<svg width="2587" height="809" viewBox="0 0 2587 809" fill="none" xmlns="http://www.w3.org/2000/svg">
<g clip-path="url(#clip0_112_25)">
<rect y="176" width="300" height="632" rx="5" fill="#60A394"/>
<rect y="176" width="300" height="632" rx="5" fill="white" fill-opacity="0.8"/>
<path d="M33.241 240V221.1H41.422C43.114 221.1 44.572 221.379 45.796 221.937C47.02 222.477 47.965 223.26 48.631 224.286C49.297 225.312 49.63 226.536 49.63 227.958C49.63 229.362 49.297 230.577 48.631 231.603C47.965 232.629 47.02 233.421 45.796 233.979C44.572 234.519 43.114 234.789 41.422 234.789H35.671L37.615 232.818V240H33.241ZM37.615 233.304L35.671 231.225H41.179C42.529 231.225 43.537 230.937 44.203 230.361C44.869 229.785 45.202 228.984 45.202 227.958C45.202 226.914 44.869 226.104 44.203 225.528C43.537 224.952 42.529 224.664 41.179 224.664H35.671L37.615 222.585V233.304ZM52.4294 240V225.474H56.4524V229.578L55.8854 228.39C56.3174 227.364 57.0104 226.59 57.9644 226.068C58.9184 225.528 60.0794 225.258 61.4474 225.258V229.146C61.2674 229.128 61.1054 229.119 60.9614 229.119C60.8174 229.101 60.6644 229.092 60.5024 229.092C59.3504 229.092 58.4144 229.425 57.6944 230.091C56.9924 230.739 56.6414 231.756 56.6414 233.142V240H52.4294ZM70.7583 240.216C69.2103 240.216 67.8333 239.892 66.6273 239.244C65.4393 238.596 64.4943 237.714 63.7923 236.598C63.1083 235.464 62.7663 234.177 62.7663 232.737C62.7663 231.279 63.1083 229.992 63.7923 228.876C64.4943 227.742 65.4393 226.86 66.6273 226.23C67.8333 225.582 69.2103 225.258 70.7583 225.258C72.2883 225.258 73.6563 225.582 74.8623 226.23C76.0683 226.86 77.0133 227.733 77.6973 228.849C78.3813 229.965 78.7233 231.261 78.7233 232.737C78.7233 234.177 78.3813 235.464 77.6973 236.598C77.0133 237.714 76.0683 238.596 74.8623 239.244C73.6563 239.892 72.2883 240.216 70.7583 240.216ZM70.7583 236.76C71.4603 236.76 72.0903 236.598 72.6483 236.274C73.2063 235.95 73.6473 235.491 73.9713 234.897C74.2953 234.285 74.4573 233.565 74.4573 232.737C74.4573 231.891 74.2953 231.171 73.9713 230.577C73.6473 229.983 73.2063 229.524 72.6483 229.2C72.0903 228.876 71.4603 228.714 70.7583 228.714C70.0563 228.714 69.4263 228.876 68.8683 229.2C68.3103 229.524 67.8603 229.983 67.5183 230.577C67.1943 231.171 67.0323 231.891 67.0323 232.737C67.0323 233.565 67.1943 234.285 67.5183 234.897C67.8603 235.491 68.3103 235.95 68.8683 236.274C69.4263 236.598 70.0563 236.76 70.7583 236.76ZM87.7757 240.216C86.4077 240.216 85.1747 239.91 84.0767 239.298C82.9787 238.668 82.1057 237.795 81.4577 236.679C80.8277 235.563 80.5127 234.249 80.5127 232.737C80.5127 231.207 80.8277 229.884 81.4577 228.768C82.1057 227.652 82.9787 226.788 84.0767 226.176C85.1747 225.564 86.4077 225.258 87.7757 225.258C88.9997 225.258 90.0707 225.528 90.9887 226.068C91.9067 226.608 92.6177 227.427 93.1217 228.525C93.6257 229.623 93.8777 231.027 93.8777 232.737C93.8777 234.429 93.6347 235.833 93.1487 236.949C92.6627 238.047 91.9607 238.866 91.0427 239.406C90.1427 239.946 89.0537 240.216 87.7757 240.216ZM88.5047 236.76C89.1887 236.76 89.8097 236.598 90.3677 236.274C90.9257 235.95 91.3667 235.491 91.6907 234.897C92.0327 234.285 92.2037 233.565 92.2037 232.737C92.2037 231.891 92.0327 231.171 91.6907 230.577C91.3667 229.983 90.9257 229.524 90.3677 229.2C89.8097 228.876 89.1887 228.714 88.5047 228.714C87.8027 228.714 87.1727 228.876 86.6147 229.2C86.0567 229.524 85.6067 229.983 85.2647 230.577C84.9407 231.171 84.7787 231.891 84.7787 232.737C84.7787 233.565 84.9407 234.285 85.2647 234.897C85.6067 235.491 86.0567 235.95 86.6147 236.274C87.1727 236.598 87.8027 236.76 88.5047 236.76ZM92.3117 240V237.03L92.3927 232.71L92.1227 228.417V219.966H96.3347V240H92.3117ZM106.362 240.216C105.156 240.216 104.076 239.982 103.122 239.514C102.186 239.046 101.457 238.335 100.935 237.381C100.413 236.409 100.152 235.176 100.152 233.682V225.474H104.364V233.061C104.364 234.267 104.616 235.158 105.12 235.734C105.642 236.292 106.371 236.571 107.307 236.571C107.955 236.571 108.531 236.436 109.035 236.166C109.539 235.878 109.935 235.446 110.223 234.87C110.511 234.276 110.655 233.538 110.655 232.656V225.474H114.867V240H110.871V236.004L111.6 237.165C111.114 238.173 110.394 238.938 109.44 239.46C108.504 239.964 107.478 240.216 106.362 240.216ZM125.789 240.216C124.223 240.216 122.828 239.901 121.604 239.271C120.38 238.623 119.417 237.732 118.715 236.598C118.031 235.464 117.689 234.177 117.689 232.737C117.689 231.279 118.031 229.992 118.715 228.876C119.417 227.742 120.38 226.86 121.604 226.23C122.828 225.582 124.223 225.258 125.789 225.258C127.319 225.258 128.651 225.582 129.785 226.23C130.919 226.86 131.756 227.769 132.296 228.957L129.029 230.712C128.651 230.028 128.174 229.524 127.598 229.2C127.04 228.876 126.428 228.714 125.762 228.714C125.042 228.714 124.394 228.876 123.818 229.2C123.242 229.524 122.783 229.983 122.441 230.577C122.117 231.171 121.955 231.891 121.955 232.737C121.955 233.583 122.117 234.303 122.441 234.897C122.783 235.491 123.242 235.95 123.818 236.274C124.394 236.598 125.042 236.76 125.762 236.76C126.428 236.76 127.04 236.607 127.598 236.301C128.174 235.977 128.651 235.464 129.029 234.762L132.296 236.544C131.756 237.714 130.919 238.623 129.785 239.271C128.651 239.901 127.319 240.216 125.789 240.216ZM140.872 240.216C139.162 240.216 137.83 239.784 136.876 238.92C135.922 238.038 135.445 236.733 135.445 235.005V222.261H139.657V234.951C139.657 235.563 139.819 236.04 140.143 236.382C140.467 236.706 140.908 236.868 141.466 236.868C142.132 236.868 142.699 236.688 143.167 236.328L144.301 239.298C143.869 239.604 143.347 239.838 142.735 240C142.141 240.144 141.52 240.216 140.872 240.216ZM133.204 229.038V225.798H143.275V229.038H133.204ZM154.609 240V221.1H163.843C166.219 221.1 168.001 221.55 169.189 222.45C170.395 223.35 170.998 224.538 170.998 226.014C170.998 227.004 170.755 227.868 170.269 228.606C169.783 229.326 169.117 229.884 168.271 230.28C167.425 230.676 166.453 230.874 165.355 230.874L165.868 229.767C167.056 229.767 168.109 229.965 169.027 230.361C169.945 230.739 170.656 231.306 171.16 232.062C171.682 232.818 171.943 233.745 171.943 234.843C171.943 236.463 171.304 237.732 170.026 238.65C168.748 239.55 166.867 240 164.383 240H154.609ZM158.956 236.706H164.059C165.193 236.706 166.048 236.526 166.624 236.166C167.218 235.788 167.515 235.194 167.515 234.384C167.515 233.592 167.218 233.007 166.624 232.629C166.048 232.233 165.193 232.035 164.059 232.035H158.632V228.849H163.303C164.365 228.849 165.175 228.669 165.733 228.309C166.309 227.931 166.597 227.364 166.597 226.608C166.597 225.87 166.309 225.321 165.733 224.961C165.175 224.583 164.365 224.394 163.303 224.394H158.956V236.706ZM183.868 240V237.165L183.598 236.544V231.468C183.598 230.568 183.319 229.866 182.761 229.362C182.221 228.858 181.384 228.606 180.25 228.606C179.476 228.606 178.711 228.732 177.955 228.984C177.217 229.218 176.587 229.542 176.065 229.956L174.553 227.013C175.345 226.455 176.299 226.023 177.415 225.717C178.531 225.411 179.665 225.258 180.817 225.258C183.031 225.258 184.75 225.78 185.974 226.824C187.198 227.868 187.81 229.497 187.81 231.711V240H183.868ZM179.44 240.216C178.306 240.216 177.334 240.027 176.524 239.649C175.714 239.253 175.093 238.722 174.661 238.056C174.229 237.39 174.013 236.643 174.013 235.815C174.013 234.951 174.22 234.195 174.634 233.547C175.066 232.899 175.741 232.395 176.659 232.035C177.577 231.657 178.774 231.468 180.25 231.468H184.111V233.925H180.709C179.719 233.925 179.035 234.087 178.657 234.411C178.297 234.735 178.117 235.14 178.117 235.626C178.117 236.166 178.324 236.598 178.738 236.922C179.17 237.228 179.755 237.381 180.493 237.381C181.195 237.381 181.825 237.219 182.383 236.895C182.941 236.553 183.346 236.058 183.598 235.41L184.246 237.354C183.94 238.29 183.382 239.001 182.572 239.487C181.762 239.973 180.718 240.216 179.44 240.216ZM198.747 240.216C197.181 240.216 195.786 239.901 194.562 239.271C193.338 238.623 192.375 237.732 191.673 236.598C190.989 235.464 190.647 234.177 190.647 232.737C190.647 231.279 190.989 229.992 191.673 228.876C192.375 227.742 193.338 226.86 194.562 226.23C195.786 225.582 197.181 225.258 198.747 225.258C200.277 225.258 201.609 225.582 202.743 226.23C203.877 226.86 204.714 227.769 205.254 228.957L201.987 230.712C201.609 230.028 201.132 229.524 200.556 229.2C199.998 228.876 199.386 228.714 198.72 228.714C198 228.714 197.352 228.876 196.776 229.2C196.2 229.524 195.741 229.983 195.399 230.577C195.075 231.171 194.913 231.891 194.913 232.737C194.913 233.583 195.075 234.303 195.399 234.897C195.741 235.491 196.2 235.95 196.776 236.274C197.352 236.598 198 236.76 198.72 236.76C199.386 236.76 199.998 236.607 200.556 236.301C201.132 235.977 201.609 235.464 201.987 234.762L205.254 236.544C204.714 237.714 203.877 238.623 202.743 239.271C201.609 239.901 200.277 240.216 198.747 240.216ZM211.083 237.03L211.191 231.9L217.968 225.474H222.99L216.483 232.089L214.296 233.871L211.083 237.03ZM207.6 240V219.966H211.812V240H207.6ZM218.427 240L213.513 233.898L216.159 230.631L223.53 240H218.427ZM225.424 240V219.966H229.636V240H225.424ZM240.458 240.216C238.91 240.216 237.533 239.892 236.327 239.244C235.139 238.596 234.194 237.714 233.492 236.598C232.808 235.464 232.466 234.177 232.466 232.737C232.466 231.279 232.808 229.992 233.492 228.876C234.194 227.742 235.139 226.86 236.327 226.23C237.533 225.582 238.91 225.258 240.458 225.258C241.988 225.258 243.356 225.582 244.562 226.23C245.768 226.86 246.713 227.733 247.397 228.849C248.081 229.965 248.423 231.261 248.423 232.737C248.423 234.177 248.081 235.464 247.397 236.598C246.713 237.714 245.768 238.596 244.562 239.244C243.356 239.892 241.988 240.216 240.458 240.216ZM240.458 236.76C241.16 236.76 241.79 236.598 242.348 236.274C242.906 235.95 243.347 235.491 243.671 234.897C243.995 234.285 244.157 233.565 244.157 232.737C244.157 231.891 243.995 231.171 243.671 230.577C243.347 229.983 242.906 229.524 242.348 229.2C241.79 228.876 241.16 228.714 240.458 228.714C239.756 228.714 239.126 228.876 238.568 229.2C238.01 229.524 237.56 229.983 237.218 230.577C236.894 231.171 236.732 231.891 236.732 232.737C236.732 233.565 236.894 234.285 237.218 234.897C237.56 235.491 238.01 235.95 238.568 236.274C239.126 236.598 239.756 236.76 240.458 236.76ZM258.069 245.454C256.701 245.454 255.378 245.283 254.1 244.941C252.84 244.617 251.787 244.122 250.941 243.456L252.615 240.432C253.227 240.936 254.001 241.332 254.937 241.62C255.891 241.926 256.827 242.079 257.745 242.079C259.239 242.079 260.319 241.746 260.985 241.08C261.669 240.414 262.011 239.424 262.011 238.11V235.923L262.281 232.278L262.227 228.606V225.474H266.223V237.57C266.223 240.27 265.521 242.259 264.117 243.537C262.713 244.815 260.697 245.454 258.069 245.454ZM257.421 239.298C256.071 239.298 254.847 239.01 253.749 238.434C252.669 237.84 251.796 237.021 251.13 235.977C250.482 234.915 250.158 233.682 250.158 232.278C250.158 230.856 250.482 229.623 251.13 228.579C251.796 227.517 252.669 226.698 253.749 226.122C254.847 225.546 256.071 225.258 257.421 225.258C258.645 225.258 259.725 225.51 260.661 226.014C261.597 226.5 262.326 227.265 262.848 228.309C263.37 229.335 263.631 230.658 263.631 232.278C263.631 233.88 263.37 235.203 262.848 236.247C262.326 237.273 261.597 238.038 260.661 238.542C259.725 239.046 258.645 239.298 257.421 239.298ZM258.258 235.842C258.996 235.842 259.653 235.698 260.229 235.41C260.805 235.104 261.255 234.681 261.579 234.141C261.903 233.601 262.065 232.98 262.065 232.278C262.065 231.558 261.903 230.937 261.579 230.415C261.255 229.875 260.805 229.461 260.229 229.173C259.653 228.867 258.996 228.714 258.258 228.714C257.52 228.714 256.863 228.867 256.287 229.173C255.711 229.461 255.252 229.875 254.91 230.415C254.586 230.937 254.424 231.558 254.424 232.278C254.424 232.98 254.586 233.601 254.91 234.141C255.252 234.681 255.711 235.104 256.287 235.41C256.863 235.698 257.52 235.842 258.258 235.842Z" fill="black"/>
<rect x="50" y="276" width="200" height="50" rx="5" fill="#FB6233"/>
<path d="M94.2191 308L89.5791 294H92.2791L96.4191 306.66H95.0791L99.3791 294H101.779L105.959 306.66H104.659L108.899 294H111.379L106.739 308H103.979L100.159 296.58H100.879L96.9991 308H94.2191ZM119.92 308.2C118.827 308.2 117.82 308.02 116.9 307.66C115.98 307.3 115.18 306.8 114.5 306.16C113.82 305.507 113.294 304.747 112.92 303.88C112.547 303 112.36 302.04 112.36 301C112.36 299.96 112.547 299.007 112.92 298.14C113.294 297.26 113.82 296.5 114.5 295.86C115.18 295.207 115.98 294.7 116.9 294.34C117.82 293.98 118.82 293.8 119.9 293.8C120.994 293.8 121.994 293.98 122.9 294.34C123.82 294.7 124.62 295.207 125.3 295.86C125.98 296.5 126.507 297.26 126.88 298.14C127.254 299.007 127.44 299.96 127.44 301C127.44 302.04 127.254 303 126.88 303.88C126.507 304.76 125.98 305.52 125.3 306.16C124.62 306.8 123.82 307.3 122.9 307.66C121.994 308.02 121 308.2 119.92 308.2ZM119.9 305.92C120.607 305.92 121.26 305.8 121.86 305.56C122.46 305.32 122.98 304.98 123.42 304.54C123.86 304.087 124.2 303.567 124.44 302.98C124.694 302.38 124.82 301.72 124.82 301C124.82 300.28 124.694 299.627 124.44 299.04C124.2 298.44 123.86 297.92 123.42 297.48C122.98 297.027 122.46 296.68 121.86 296.44C121.26 296.2 120.607 296.08 119.9 296.08C119.194 296.08 118.54 296.2 117.94 296.44C117.354 296.68 116.834 297.027 116.38 297.48C115.94 297.92 115.594 298.44 115.34 299.04C115.1 299.627 114.98 300.28 114.98 301C114.98 301.707 115.1 302.36 115.34 302.96C115.594 303.56 115.94 304.087 116.38 304.54C116.82 304.98 117.34 305.32 117.94 305.56C118.54 305.8 119.194 305.92 119.9 305.92ZM130.196 308V294H135.956C137.196 294 138.256 294.2 139.136 294.6C140.03 295 140.716 295.573 141.196 296.32C141.676 297.067 141.916 297.953 141.916 298.98C141.916 300.007 141.676 300.893 141.196 301.64C140.716 302.373 140.03 302.94 139.136 303.34C138.256 303.727 137.196 303.92 135.956 303.92H131.636L132.796 302.74V308H130.196ZM139.356 308L135.816 302.92H138.596L142.156 308H139.356ZM132.796 303.02L131.636 301.78H135.836C136.983 301.78 137.843 301.533 138.416 301.04C139.003 300.547 139.296 299.86 139.296 298.98C139.296 298.087 139.003 297.4 138.416 296.92C137.843 296.44 136.983 296.2 135.836 296.2H131.636L132.796 294.92V303.02ZM147.145 304.7L147.005 301.62L154.345 294H157.265L151.165 300.48L149.725 302.06L147.145 304.7ZM144.825 308V294H147.425V308H144.825ZM154.585 308L149.225 301.62L150.945 299.72L157.625 308H154.585ZM164.923 308V294H167.523V308H164.923ZM174.15 308V296.2H169.51V294H181.39V296.2H176.75V308H174.15ZM185.741 299.82H192.701V301.96H185.741V299.82ZM185.941 305.82H193.841V308H183.341V294H193.561V296.18H185.941V305.82ZM196.739 308V294H198.879L204.999 304.22H203.879L209.899 294H212.039L212.059 308H209.599L209.579 297.86H210.099L204.979 306.4H203.819L198.619 297.86H199.219V308H196.739Z" fill="#F8F8F8"/>
<rect x="50" y="336" width="200" height="50" rx="5" fill="#FB6233"/>
<path d="M94.2191 368L89.5791 354H92.2791L96.4191 366.66H95.0791L99.3791 354H101.779L105.959 366.66H104.659L108.899 354H111.379L106.739 368H103.979L100.159 356.58H100.879L96.9991 368H94.2191ZM119.92 368.2C118.827 368.2 117.82 368.02 116.9 367.66C115.98 367.3 115.18 366.8 114.5 366.16C113.82 365.507 113.294 364.747 112.92 363.88C112.547 363 112.36 362.04 112.36 361C112.36 359.96 112.547 359.007 112.92 358.14C113.294 357.26 113.82 356.5 114.5 355.86C115.18 355.207 115.98 354.7 116.9 354.34C117.82 353.98 118.82 353.8 119.9 353.8C120.994 353.8 121.994 353.98 122.9 354.34C123.82 354.7 124.62 355.207 125.3 355.86C125.98 356.5 126.507 357.26 126.88 358.14C127.254 359.007 127.44 359.96 127.44 361C127.44 362.04 127.254 363 126.88 363.88C126.507 364.76 125.98 365.52 125.3 366.16C124.62 366.8 123.82 367.3 122.9 367.66C121.994 368.02 121 368.2 119.92 368.2ZM119.9 365.92C120.607 365.92 121.26 365.8 121.86 365.56C122.46 365.32 122.98 364.98 123.42 364.54C123.86 364.087 124.2 363.567 124.44 362.98C124.694 362.38 124.82 361.72 124.82 361C124.82 360.28 124.694 359.627 124.44 359.04C124.2 358.44 123.86 357.92 123.42 357.48C122.98 357.027 122.46 356.68 121.86 356.44C121.26 356.2 120.607 356.08 119.9 356.08C119.194 356.08 118.54 356.2 117.94 356.44C117.354 356.68 116.834 357.027 116.38 357.48C115.94 357.92 115.594 358.44 115.34 359.04C115.1 359.627 114.98 360.28 114.98 361C114.98 361.707 115.1 362.36 115.34 362.96C115.594 363.56 115.94 364.087 116.38 364.54C116.82 364.98 117.34 365.32 117.94 365.56C118.54 365.8 119.194 365.92 119.9 365.92ZM130.196 368V354H135.956C137.196 354 138.256 354.2 139.136 354.6C140.03 355 140.716 355.573 141.196 356.32C141.676 357.067 141.916 357.953 141.916 358.98C141.916 360.007 141.676 360.893 141.196 361.64C140.716 362.373 140.03 362.94 139.136 363.34C138.256 363.727 137.196 363.92 135.956 363.92H131.636L132.796 362.74V368H130.196ZM139.356 368L135.816 362.92H138.596L142.156 368H139.356ZM132.796 363.02L131.636 361.78H135.836C136.983 361.78 137.843 361.533 138.416 361.04C139.003 360.547 139.296 359.86 139.296 358.98C139.296 358.087 139.003 357.4 138.416 356.92C137.843 356.44 136.983 356.2 135.836 356.2H131.636L132.796 354.92V363.02ZM147.145 364.7L147.005 361.62L154.345 354H157.265L151.165 360.48L149.725 362.06L147.145 364.7ZM144.825 368V354H147.425V368H144.825ZM154.585 368L149.225 361.62L150.945 359.72L157.625 368H154.585ZM164.923 368V354H167.523V368H164.923ZM174.15 368V356.2H169.51V354H181.39V356.2H176.75V368H174.15ZM185.741 359.82H192.701V361.96H185.741V359.82ZM185.941 365.82H193.841V368H183.341V354H193.561V356.18H185.941V365.82ZM196.739 368V354H198.879L204.999 364.22H203.879L209.899 354H212.039L212.059 368H209.599L209.579 357.86H210.099L204.979 366.4H203.819L198.619 357.86H199.219V368H196.739Z" fill="#F8F8F8"/>
<rect x="50" y="398" width="200" height="50" rx="5" fill="#FB6233"/>
<path d="M94.2191 430L89.5791 416H92.2791L96.4191 428.66H95.0791L99.3791 416H101.779L105.959 428.66H104.659L108.899 416H111.379L106.739 430H103.979L100.159 418.58H100.879L96.9991 430H94.2191ZM119.92 430.2C118.827 430.2 117.82 430.02 116.9 429.66C115.98 429.3 115.18 428.8 114.5 428.16C113.82 427.507 113.294 426.747 112.92 425.88C112.547 425 112.36 424.04 112.36 423C112.36 421.96 112.547 421.007 112.92 420.14C113.294 419.26 113.82 418.5 114.5 417.86C115.18 417.207 115.98 416.7 116.9 416.34C117.82 415.98 118.82 415.8 119.9 415.8C120.994 415.8 121.994 415.98 122.9 416.34C123.82 416.7 124.62 417.207 125.3 417.86C125.98 418.5 126.507 419.26 126.88 420.14C127.254 421.007 127.44 421.96 127.44 423C127.44 424.04 127.254 425 126.88 425.88C126.507 426.76 125.98 427.52 125.3 428.16C124.62 428.8 123.82 429.3 122.9 429.66C121.994 430.02 121 430.2 119.92 430.2ZM119.9 427.92C120.607 427.92 121.26 427.8 121.86 427.56C122.46 427.32 122.98 426.98 123.42 426.54C123.86 426.087 124.2 425.567 124.44 424.98C124.694 424.38 124.82 423.72 124.82 423C124.82 422.28 124.694 421.627 124.44 421.04C124.2 420.44 123.86 419.92 123.42 419.48C122.98 419.027 122.46 418.68 121.86 418.44C121.26 418.2 120.607 418.08 119.9 418.08C119.194 418.08 118.54 418.2 117.94 418.44C117.354 418.68 116.834 419.027 116.38 419.48C115.94 419.92 115.594 420.44 115.34 421.04C115.1 421.627 114.98 422.28 114.98 423C114.98 423.707 115.1 424.36 115.34 424.96C115.594 425.56 115.94 426.087 116.38 426.54C116.82 426.98 117.34 427.32 117.94 427.56C118.54 427.8 119.194 427.92 119.9 427.92ZM130.196 430V416H135.956C137.196 416 138.256 416.2 139.136 416.6C140.03 417 140.716 417.573 141.196 418.32C141.676 419.067 141.916 419.953 141.916 420.98C141.916 422.007 141.676 422.893 141.196 423.64C140.716 424.373 140.03 424.94 139.136 425.34C138.256 425.727 137.196 425.92 135.956 425.92H131.636L132.796 424.74V430H130.196ZM139.356 430L135.816 424.92H138.596L142.156 430H139.356ZM132.796 425.02L131.636 423.78H135.836C136.983 423.78 137.843 423.533 138.416 423.04C139.003 422.547 139.296 421.86 139.296 420.98C139.296 420.087 139.003 419.4 138.416 418.92C137.843 418.44 136.983 418.2 135.836 418.2H131.636L132.796 416.92V425.02ZM147.145 426.7L147.005 423.62L154.345 416H157.265L151.165 422.48L149.725 424.06L147.145 426.7ZM144.825 430V416H147.425V430H144.825ZM154.585 430L149.225 423.62L150.945 421.72L157.625 430H154.585ZM164.923 430V416H167.523V430H164.923ZM174.15 430V418.2H169.51V416H181.39V418.2H176.75V430H174.15ZM185.741 421.82H192.701V423.96H185.741V421.82ZM185.941 427.82H193.841V430H183.341V416H193.561V418.18H185.941V427.82ZM196.739 430V416H198.879L204.999 426.22H203.879L209.899 416H212.039L212.059 430H209.599L209.579 419.86H210.099L204.979 428.4H203.819L198.619 419.86H199.219V430H196.739Z" fill="#F8F8F8"/>
<rect x="50" y="460" width="200" height="50" rx="5" fill="#FB6233"/>
<path d="M94.2191 492L89.5791 478H92.2791L96.4191 490.66H95.0791L99.3791 478H101.779L105.959 490.66H104.659L108.899 478H111.379L106.739 492H103.979L100.159 480.58H100.879L96.9991 492H94.2191ZM119.92 492.2C118.827 492.2 117.82 492.02 116.9 491.66C115.98 491.3 115.18 490.8 114.5 490.16C113.82 489.507 113.294 488.747 112.92 487.88C112.547 487 112.36 486.04 112.36 485C112.36 483.96 112.547 483.007 112.92 482.14C113.294 481.26 113.82 480.5 114.5 479.86C115.18 479.207 115.98 478.7 116.9 478.34C117.82 477.98 118.82 477.8 119.9 477.8C120.994 477.8 121.994 477.98 122.9 478.34C123.82 478.7 124.62 479.207 125.3 479.86C125.98 480.5 126.507 481.26 126.88 482.14C127.254 483.007 127.44 483.96 127.44 485C127.44 486.04 127.254 487 126.88 487.88C126.507 488.76 125.98 489.52 125.3 490.16C124.62 490.8 123.82 491.3 122.9 491.66C121.994 492.02 121 492.2 119.92 492.2ZM119.9 489.92C120.607 489.92 121.26 489.8 121.86 489.56C122.46 489.32 122.98 488.98 123.42 488.54C123.86 488.087 124.2 487.567 124.44 486.98C124.694 486.38 124.82 485.72 124.82 485C124.82 484.28 124.694 483.627 124.44 483.04C124.2 482.44 123.86 481.92 123.42 481.48C122.98 481.027 122.46 480.68 121.86 480.44C121.26 480.2 120.607 480.08 119.9 480.08C119.194 480.08 118.54 480.2 117.94 480.44C117.354 480.68 116.834 481.027 116.38 481.48C115.94 481.92 115.594 482.44 115.34 483.04C115.1 483.627 114.98 484.28 114.98 485C114.98 485.707 115.1 486.36 115.34 486.96C115.594 487.56 115.94 488.087 116.38 488.54C116.82 488.98 117.34 489.32 117.94 489.56C118.54 489.8 119.194 489.92 119.9 489.92ZM130.196 492V478H135.956C137.196 478 138.256 478.2 139.136 478.6C140.03 479 140.716 479.573 141.196 480.32C141.676 481.067 141.916 481.953 141.916 482.98C141.916 484.007 141.676 484.893 141.196 485.64C140.716 486.373 140.03 486.94 139.136 487.34C138.256 487.727 137.196 487.92 135.956 487.92H131.636L132.796 486.74V492H130.196ZM139.356 492L135.816 486.92H138.596L142.156 492H139.356ZM132.796 487.02L131.636 485.78H135.836C136.983 485.78 137.843 485.533 138.416 485.04C139.003 484.547 139.296 483.86 139.296 482.98C139.296 482.087 139.003 481.4 138.416 480.92C137.843 480.44 136.983 480.2 135.836 480.2H131.636L132.796 478.92V487.02ZM147.145 488.7L147.005 485.62L154.345 478H157.265L151.165 484.48L149.725 486.06L147.145 488.7ZM144.825 492V478H147.425V492H144.825ZM154.585 492L149.225 485.62L150.945 483.72L157.625 492H154.585ZM164.923 492V478H167.523V492H164.923ZM174.15 492V480.2H169.51V478H181.39V480.2H176.75V492H174.15ZM185.741 483.82H192.701V485.96H185.741V483.82ZM185.941 489.82H193.841V492H183.341V478H193.561V480.18H185.941V489.82ZM196.739 492V478H198.879L204.999 488.22H203.879L209.899 478H212.039L212.059 492H209.599L209.579 481.86H210.099L204.979 490.4H203.819L198.619 481.86H199.219V492H196.739Z" fill="#F8F8F8"/>
<rect x="50" y="522" width="200" height="50" rx="5" fill="#FFD633"/>
<path d="M94.2191 554L89.5791 540H92.2791L96.4191 552.66H95.0791L99.3791 540H101.779L105.959 552.66H104.659L108.899 540H111.379L106.739 554H103.979L100.159 542.58H100.879L96.9991 554H94.2191ZM119.92 554.2C118.827 554.2 117.82 554.02 116.9 553.66C115.98 553.3 115.18 552.8 114.5 552.16C113.82 551.507 113.294 550.747 112.92 549.88C112.547 549 112.36 548.04 112.36 547C112.36 545.96 112.547 545.007 112.92 544.14C113.294 543.26 113.82 542.5 114.5 541.86C115.18 541.207 115.98 540.7 116.9 540.34C117.82 539.98 118.82 539.8 119.9 539.8C120.994 539.8 121.994 539.98 122.9 540.34C123.82 540.7 124.62 541.207 125.3 541.86C125.98 542.5 126.507 543.26 126.88 544.14C127.254 545.007 127.44 545.96 127.44 547C127.44 548.04 127.254 549 126.88 549.88C126.507 550.76 125.98 551.52 125.3 552.16C124.62 552.8 123.82 553.3 122.9 553.66C121.994 554.02 121 554.2 119.92 554.2ZM119.9 551.92C120.607 551.92 121.26 551.8 121.86 551.56C122.46 551.32 122.98 550.98 123.42 550.54C123.86 550.087 124.2 549.567 124.44 548.98C124.694 548.38 124.82 547.72 124.82 547C124.82 546.28 124.694 545.627 124.44 545.04C124.2 544.44 123.86 543.92 123.42 543.48C122.98 543.027 122.46 542.68 121.86 542.44C121.26 542.2 120.607 542.08 119.9 542.08C119.194 542.08 118.54 542.2 117.94 542.44C117.354 542.68 116.834 543.027 116.38 543.48C115.94 543.92 115.594 544.44 115.34 545.04C115.1 545.627 114.98 546.28 114.98 547C114.98 547.707 115.1 548.36 115.34 548.96C115.594 549.56 115.94 550.087 116.38 550.54C116.82 550.98 117.34 551.32 117.94 551.56C118.54 551.8 119.194 551.92 119.9 551.92ZM130.196 554V540H135.956C137.196 540 138.256 540.2 139.136 540.6C140.03 541 140.716 541.573 141.196 542.32C141.676 543.067 141.916 543.953 141.916 544.98C141.916 546.007 141.676 546.893 141.196 547.64C140.716 548.373 140.03 548.94 139.136 549.34C138.256 549.727 137.196 549.92 135.956 549.92H131.636L132.796 548.74V554H130.196ZM139.356 554L135.816 548.92H138.596L142.156 554H139.356ZM132.796 549.02L131.636 547.78H135.836C136.983 547.78 137.843 547.533 138.416 547.04C139.003 546.547 139.296 545.86 139.296 544.98C139.296 544.087 139.003 543.4 138.416 542.92C137.843 542.44 136.983 542.2 135.836 542.2H131.636L132.796 540.92V549.02ZM147.145 550.7L147.005 547.62L154.345 540H157.265L151.165 546.48L149.725 548.06L147.145 550.7ZM144.825 554V540H147.425V554H144.825ZM154.585 554L149.225 547.62L150.945 545.72L157.625 554H154.585ZM164.923 554V540H167.523V554H164.923ZM174.15 554V542.2H169.51V540H181.39V542.2H176.75V554H174.15ZM185.741 545.82H192.701V547.96H185.741V545.82ZM185.941 551.82H193.841V554H183.341V540H193.561V542.18H185.941V551.82ZM196.739 554V540H198.879L204.999 550.22H203.879L209.899 540H212.039L212.059 554H209.599L209.579 543.86H210.099L204.979 552.4H203.819L198.619 543.86H199.219V554H196.739Z" fill="black"/>
<rect x="50" y="584" width="200" height="50" rx="5" fill="#FFD633"/>
<path d="M94.2191 616L89.5791 602H92.2791L96.4191 614.66H95.0791L99.3791 602H101.779L105.959 614.66H104.659L108.899 602H111.379L106.739 616H103.979L100.159 604.58H100.879L96.9991 616H94.2191ZM119.92 616.2C118.827 616.2 117.82 616.02 116.9 615.66C115.98 615.3 115.18 614.8 114.5 614.16C113.82 613.507 113.294 612.747 112.92 611.88C112.547 611 112.36 610.04 112.36 609C112.36 607.96 112.547 607.007 112.92 606.14C113.294 605.26 113.82 604.5 114.5 603.86C115.18 603.207 115.98 602.7 116.9 602.34C117.82 601.98 118.82 601.8 119.9 601.8C120.994 601.8 121.994 601.98 122.9 602.34C123.82 602.7 124.62 603.207 125.3 603.86C125.98 604.5 126.507 605.26 126.88 606.14C127.254 607.007 127.44 607.96 127.44 609C127.44 610.04 127.254 611 126.88 611.88C126.507 612.76 125.98 613.52 125.3 614.16C124.62 614.8 123.82 615.3 122.9 615.66C121.994 616.02 121 616.2 119.92 616.2ZM119.9 613.92C120.607 613.92 121.26 613.8 121.86 613.56C122.46 613.32 122.98 612.98 123.42 612.54C123.86 612.087 124.2 611.567 124.44 610.98C124.694 610.38 124.82 609.72 124.82 609C124.82 608.28 124.694 607.627 124.44 607.04C124.2 606.44 123.86 605.92 123.42 605.48C122.98 605.027 122.46 604.68 121.86 604.44C121.26 604.2 120.607 604.08 119.9 604.08C119.194 604.08 118.54 604.2 117.94 604.44C117.354 604.68 116.834 605.027 116.38 605.48C115.94 605.92 115.594 606.44 115.34 607.04C115.1 607.627 114.98 608.28 114.98 609C114.98 609.707 115.1 610.36 115.34 610.96C115.594 611.56 115.94 612.087 116.38 612.54C116.82 612.98 117.34 613.32 117.94 613.56C118.54 613.8 119.194 613.92 119.9 613.92ZM130.196 616V602H135.956C137.196 602 138.256 602.2 139.136 602.6C140.03 603 140.716 603.573 141.196 604.32C141.676 605.067 141.916 605.953 141.916 606.98C141.916 608.007 141.676 608.893 141.196 609.64C140.716 610.373 140.03 610.94 139.136 611.34C138.256 611.727 137.196 611.92 135.956 611.92H131.636L132.796 610.74V616H130.196ZM139.356 616L135.816 610.92H138.596L142.156 616H139.356ZM132.796 611.02L131.636 609.78H135.836C136.983 609.78 137.843 609.533 138.416 609.04C139.003 608.547 139.296 607.86 139.296 606.98C139.296 606.087 139.003 605.4 138.416 604.92C137.843 604.44 136.983 604.2 135.836 604.2H131.636L132.796 602.92V611.02ZM147.145 612.7L147.005 609.62L154.345 602H157.265L151.165 608.48L149.725 610.06L147.145 612.7ZM144.825 616V602H147.425V616H144.825ZM154.585 616L149.225 609.62L150.945 607.72L157.625 616H154.585ZM164.923 616V602H167.523V616H164.923ZM174.15 616V604.2H169.51V602H181.39V604.2H176.75V616H174.15ZM185.741 607.82H192.701V609.96H185.741V607.82ZM185.941 613.82H193.841V616H183.341V602H193.561V604.18H185.941V613.82ZM196.739 616V602H198.879L204.999 612.22H203.879L209.899 602H212.039L212.059 616H209.599L209.579 605.86H210.099L204.979 614.4H203.819L198.619 605.86H199.219V616H196.739Z" fill="black"/>
<rect x="50" y="646" width="200" height="50" rx="5" fill="#FFD633"/>
<path d="M94.2191 678L89.5791 664H92.2791L96.4191 676.66H95.0791L99.3791 664H101.779L105.959 676.66H104.659L108.899 664H111.379L106.739 678H103.979L100.159 666.58H100.879L96.9991 678H94.2191ZM119.92 678.2C118.827 678.2 117.82 678.02 116.9 677.66C115.98 677.3 115.18 676.8 114.5 676.16C113.82 675.507 113.294 674.747 112.92 673.88C112.547 673 112.36 672.04 112.36 671C112.36 669.96 112.547 669.007 112.92 668.14C113.294 667.26 113.82 666.5 114.5 665.86C115.18 665.207 115.98 664.7 116.9 664.34C117.82 663.98 118.82 663.8 119.9 663.8C120.994 663.8 121.994 663.98 122.9 664.34C123.82 664.7 124.62 665.207 125.3 665.86C125.98 666.5 126.507 667.26 126.88 668.14C127.254 669.007 127.44 669.96 127.44 671C127.44 672.04 127.254 673 126.88 673.88C126.507 674.76 125.98 675.52 125.3 676.16C124.62 676.8 123.82 677.3 122.9 677.66C121.994 678.02 121 678.2 119.92 678.2ZM119.9 675.92C120.607 675.92 121.26 675.8 121.86 675.56C122.46 675.32 122.98 674.98 123.42 674.54C123.86 674.087 124.2 673.567 124.44 672.98C124.694 672.38 124.82 671.72 124.82 671C124.82 670.28 124.694 669.627 124.44 669.04C124.2 668.44 123.86 667.92 123.42 667.48C122.98 667.027 122.46 666.68 121.86 666.44C121.26 666.2 120.607 666.08 119.9 666.08C119.194 666.08 118.54 666.2 117.94 666.44C117.354 666.68 116.834 667.027 116.38 667.48C115.94 667.92 115.594 668.44 115.34 669.04C115.1 669.627 114.98 670.28 114.98 671C114.98 671.707 115.1 672.36 115.34 672.96C115.594 673.56 115.94 674.087 116.38 674.54C116.82 674.98 117.34 675.32 117.94 675.56C118.54 675.8 119.194 675.92 119.9 675.92ZM130.196 678V664H135.956C137.196 664 138.256 664.2 139.136 664.6C140.03 665 140.716 665.573 141.196 666.32C141.676 667.067 141.916 667.953 141.916 668.98C141.916 670.007 141.676 670.893 141.196 671.64C140.716 672.373 140.03 672.94 139.136 673.34C138.256 673.727 137.196 673.92 135.956 673.92H131.636L132.796 672.74V678H130.196ZM139.356 678L135.816 672.92H138.596L142.156 678H139.356ZM132.796 673.02L131.636 671.78H135.836C136.983 671.78 137.843 671.533 138.416 671.04C139.003 670.547 139.296 669.86 139.296 668.98C139.296 668.087 139.003 667.4 138.416 666.92C137.843 666.44 136.983 666.2 135.836 666.2H131.636L132.796 664.92V673.02ZM147.145 674.7L147.005 671.62L154.345 664H157.265L151.165 670.48L149.725 672.06L147.145 674.7ZM144.825 678V664H147.425V678H144.825ZM154.585 678L149.225 671.62L150.945 669.72L157.625 678H154.585ZM164.923 678V664H167.523V678H164.923ZM174.15 678V666.2H169.51V664H181.39V666.2H176.75V678H174.15ZM185.741 669.82H192.701V671.96H185.741V669.82ZM185.941 675.82H193.841V678H183.341V664H193.561V666.18H185.941V675.82ZM196.739 678V664H198.879L204.999 674.22H203.879L209.899 664H212.039L212.059 678H209.599L209.579 667.86H210.099L204.979 676.4H203.819L198.619 667.86H199.219V678H196.739Z" fill="black"/>
<rect x="50" y="708" width="200" height="50" rx="5" fill="#FFD633"/>
<path d="M146.616 740.14C146.162 740.14 145.776 739.987 145.456 739.68C145.136 739.36 144.976 738.96 144.976 738.48C144.976 737.973 145.136 737.573 145.456 737.28C145.776 736.973 146.162 736.82 146.616 736.82C147.069 736.82 147.456 736.973 147.776 737.28C148.096 737.573 148.256 737.973 148.256 738.48C148.256 738.96 148.096 739.36 147.776 739.68C147.456 739.987 147.069 740.14 146.616 740.14ZM151.499 740.14C151.045 740.14 150.659 739.987 150.339 739.68C150.019 739.36 149.859 738.96 149.859 738.48C149.859 737.973 150.019 737.573 150.339 737.28C150.659 736.973 151.045 736.82 151.499 736.82C151.952 736.82 152.339 736.973 152.659 737.28C152.979 737.573 153.139 737.973 153.139 738.48C153.139 738.96 152.979 739.36 152.659 739.68C152.339 739.987 151.952 740.14 151.499 740.14ZM156.381 740.14C155.928 740.14 155.541 739.987 155.221 739.68C154.901 739.36 154.741 738.96 154.741 738.48C154.741 737.973 154.901 737.573 155.221 737.28C155.541 736.973 155.928 736.82 156.381 736.82C156.835 736.82 157.221 736.973 157.541 737.28C157.861 737.573 158.021 737.973 158.021 738.48C158.021 738.96 157.861 739.36 157.541 739.68C157.221 739.987 156.835 740.14 156.381 740.14Z" fill="black"/>
<rect x="669" y="424" width="300" height="384" rx="5" fill="#60A394"/>
<rect x="669" y="424" width="300" height="384" rx="5" fill="white" fill-opacity="0.8"/>
<path d="M722.451 488.324C720.939 488.324 719.49 488.126 718.104 487.73C716.718 487.316 715.602 486.785 714.756 486.137L716.241 482.843C717.051 483.419 718.005 483.896 719.103 484.274C720.219 484.634 721.344 484.814 722.478 484.814C723.342 484.814 724.035 484.733 724.557 484.571C725.097 484.391 725.493 484.148 725.745 483.842C725.997 483.536 726.123 483.185 726.123 482.789C726.123 482.285 725.925 481.889 725.529 481.601C725.133 481.295 724.611 481.052 723.963 480.872C723.315 480.674 722.595 480.494 721.803 480.332C721.029 480.152 720.246 479.936 719.454 479.684C718.68 479.432 717.969 479.108 717.321 478.712C716.673 478.316 716.142 477.794 715.728 477.146C715.332 476.498 715.134 475.67 715.134 474.662C715.134 473.582 715.422 472.601 715.998 471.719C716.592 470.819 717.474 470.108 718.644 469.586C719.832 469.046 721.317 468.776 723.099 468.776C724.287 468.776 725.457 468.92 726.609 469.208C727.761 469.478 728.778 469.892 729.66 470.45L728.31 473.771C727.428 473.267 726.546 472.898 725.664 472.664C724.782 472.412 723.918 472.286 723.072 472.286C722.226 472.286 721.533 472.385 720.993 472.583C720.453 472.781 720.066 473.042 719.832 473.366C719.598 473.672 719.481 474.032 719.481 474.446C719.481 474.932 719.679 475.328 720.075 475.634C720.471 475.922 720.993 476.156 721.641 476.336C722.289 476.516 723 476.696 723.774 476.876C724.566 477.056 725.349 477.263 726.123 477.497C726.915 477.731 727.635 478.046 728.283 478.442C728.931 478.838 729.453 479.36 729.849 480.008C730.263 480.656 730.47 481.475 730.47 482.465C730.47 483.527 730.173 484.499 729.579 485.381C728.985 486.263 728.094 486.974 726.906 487.514C725.736 488.054 724.251 488.324 722.451 488.324ZM741.748 488.216C740.524 488.216 739.453 487.946 738.535 487.406C737.617 486.866 736.897 486.047 736.375 484.949C735.871 483.833 735.619 482.429 735.619 480.737C735.619 479.027 735.862 477.623 736.348 476.525C736.834 475.427 737.536 474.608 738.454 474.068C739.372 473.528 740.47 473.258 741.748 473.258C743.116 473.258 744.34 473.573 745.42 474.203C746.518 474.815 747.382 475.679 748.012 476.795C748.66 477.911 748.984 479.225 748.984 480.737C748.984 482.267 748.66 483.59 748.012 484.706C747.382 485.822 746.518 486.686 745.42 487.298C744.34 487.91 743.116 488.216 741.748 488.216ZM733.162 493.238V473.474H737.185V476.444L737.104 480.764L737.374 485.057V493.238H733.162ZM741.019 484.76C741.721 484.76 742.342 484.598 742.882 484.274C743.44 483.95 743.881 483.491 744.205 482.897C744.547 482.285 744.718 481.565 744.718 480.737C744.718 479.891 744.547 479.171 744.205 478.577C743.881 477.983 743.44 477.524 742.882 477.2C742.342 476.876 741.721 476.714 741.019 476.714C740.317 476.714 739.687 476.876 739.129 477.2C738.571 477.524 738.13 477.983 737.806 478.577C737.482 479.171 737.32 479.891 737.32 480.737C737.32 481.565 737.482 482.285 737.806 482.897C738.13 483.491 738.571 483.95 739.129 484.274C739.687 484.598 740.317 484.76 741.019 484.76ZM751.803 488V473.474H755.826V477.578L755.259 476.39C755.691 475.364 756.384 474.59 757.338 474.068C758.292 473.528 759.453 473.258 760.821 473.258V477.146C760.641 477.128 760.479 477.119 760.335 477.119C760.191 477.101 760.038 477.092 759.876 477.092C758.724 477.092 757.788 477.425 757.068 478.091C756.366 478.739 756.015 479.756 756.015 481.142V488H751.803ZM763.352 488V473.474H767.564V488H763.352ZM765.458 471.449C764.684 471.449 764.054 471.224 763.568 470.774C763.082 470.324 762.839 469.766 762.839 469.1C762.839 468.434 763.082 467.876 763.568 467.426C764.054 466.976 764.684 466.751 765.458 466.751C766.232 466.751 766.862 466.967 767.348 467.399C767.834 467.813 768.077 468.353 768.077 469.019C768.077 469.721 767.834 470.306 767.348 470.774C766.88 471.224 766.25 471.449 765.458 471.449ZM780.302 473.258C781.454 473.258 782.48 473.492 783.38 473.96C784.298 474.41 785.018 475.112 785.54 476.066C786.062 477.002 786.323 478.208 786.323 479.684V488H782.111V480.332C782.111 479.162 781.85 478.298 781.328 477.74C780.824 477.182 780.104 476.903 779.168 476.903C778.502 476.903 777.899 477.047 777.359 477.335C776.837 477.605 776.423 478.028 776.117 478.604C775.829 479.18 775.685 479.918 775.685 480.818V488H771.473V473.474H775.496V477.497L774.74 476.282C775.262 475.31 776.009 474.563 776.981 474.041C777.953 473.519 779.06 473.258 780.302 473.258ZM796.081 488.216C794.371 488.216 793.039 487.784 792.085 486.92C791.131 486.038 790.654 484.733 790.654 483.005V470.261H794.866V482.951C794.866 483.563 795.028 484.04 795.352 484.382C795.676 484.706 796.117 484.868 796.675 484.868C797.341 484.868 797.908 484.688 798.376 484.328L799.51 487.298C799.078 487.604 798.556 487.838 797.944 488C797.35 488.144 796.729 488.216 796.081 488.216ZM788.413 477.038V473.798H798.484V477.038H788.413ZM809.818 488V469.1H819.052C821.428 469.1 823.21 469.55 824.398 470.45C825.604 471.35 826.207 472.538 826.207 474.014C826.207 475.004 825.964 475.868 825.478 476.606C824.992 477.326 824.326 477.884 823.48 478.28C822.634 478.676 821.662 478.874 820.564 478.874L821.077 477.767C822.265 477.767 823.318 477.965 824.236 478.361C825.154 478.739 825.865 479.306 826.369 480.062C826.891 480.818 827.152 481.745 827.152 482.843C827.152 484.463 826.513 485.732 825.235 486.65C823.957 487.55 822.076 488 819.592 488H809.818ZM814.165 484.706H819.268C820.402 484.706 821.257 484.526 821.833 484.166C822.427 483.788 822.724 483.194 822.724 482.384C822.724 481.592 822.427 481.007 821.833 480.629C821.257 480.233 820.402 480.035 819.268 480.035H813.841V476.849H818.512C819.574 476.849 820.384 476.669 820.942 476.309C821.518 475.931 821.806 475.364 821.806 474.608C821.806 473.87 821.518 473.321 820.942 472.961C820.384 472.583 819.574 472.394 818.512 472.394H814.165V484.706ZM839.077 488V485.165L838.807 484.544V479.468C838.807 478.568 838.528 477.866 837.97 477.362C837.43 476.858 836.593 476.606 835.459 476.606C834.685 476.606 833.92 476.732 833.164 476.984C832.426 477.218 831.796 477.542 831.274 477.956L829.762 475.013C830.554 474.455 831.508 474.023 832.624 473.717C833.74 473.411 834.874 473.258 836.026 473.258C838.24 473.258 839.959 473.78 841.183 474.824C842.407 475.868 843.019 477.497 843.019 479.711V488H839.077ZM834.649 488.216C833.515 488.216 832.543 488.027 831.733 487.649C830.923 487.253 830.302 486.722 829.87 486.056C829.438 485.39 829.222 484.643 829.222 483.815C829.222 482.951 829.429 482.195 829.843 481.547C830.275 480.899 830.95 480.395 831.868 480.035C832.786 479.657 833.983 479.468 835.459 479.468H839.32V481.925H835.918C834.928 481.925 834.244 482.087 833.866 482.411C833.506 482.735 833.326 483.14 833.326 483.626C833.326 484.166 833.533 484.598 833.947 484.922C834.379 485.228 834.964 485.381 835.702 485.381C836.404 485.381 837.034 485.219 837.592 484.895C838.15 484.553 838.555 484.058 838.807 483.41L839.455 485.354C839.149 486.29 838.591 487.001 837.781 487.487C836.971 487.973 835.927 488.216 834.649 488.216ZM853.956 488.216C852.39 488.216 850.995 487.901 849.771 487.271C848.547 486.623 847.584 485.732 846.882 484.598C846.198 483.464 845.856 482.177 845.856 480.737C845.856 479.279 846.198 477.992 846.882 476.876C847.584 475.742 848.547 474.86 849.771 474.23C850.995 473.582 852.39 473.258 853.956 473.258C855.486 473.258 856.818 473.582 857.952 474.23C859.086 474.86 859.923 475.769 860.463 476.957L857.196 478.712C856.818 478.028 856.341 477.524 855.765 477.2C855.207 476.876 854.595 476.714 853.929 476.714C853.209 476.714 852.561 476.876 851.985 477.2C851.409 477.524 850.95 477.983 850.608 478.577C850.284 479.171 850.122 479.891 850.122 480.737C850.122 481.583 850.284 482.303 850.608 482.897C850.95 483.491 851.409 483.95 851.985 484.274C852.561 484.598 853.209 484.76 853.929 484.76C854.595 484.76 855.207 484.607 855.765 484.301C856.341 483.977 856.818 483.464 857.196 482.762L860.463 484.544C859.923 485.714 859.086 486.623 857.952 487.271C856.818 487.901 855.486 488.216 853.956 488.216ZM866.292 485.03L866.4 479.9L873.177 473.474H878.199L871.692 480.089L869.505 481.871L866.292 485.03ZM862.809 488V467.966H867.021V488H862.809ZM873.636 488L868.722 481.898L871.368 478.631L878.739 488H873.636ZM880.633 488V467.966H884.845V488H880.633ZM895.667 488.216C894.119 488.216 892.742 487.892 891.536 487.244C890.348 486.596 889.403 485.714 888.701 484.598C888.017 483.464 887.675 482.177 887.675 480.737C887.675 479.279 888.017 477.992 888.701 476.876C889.403 475.742 890.348 474.86 891.536 474.23C892.742 473.582 894.119 473.258 895.667 473.258C897.197 473.258 898.565 473.582 899.771 474.23C900.977 474.86 901.922 475.733 902.606 476.849C903.29 477.965 903.632 479.261 903.632 480.737C903.632 482.177 903.29 483.464 902.606 484.598C901.922 485.714 900.977 486.596 899.771 487.244C898.565 487.892 897.197 488.216 895.667 488.216ZM895.667 484.76C896.369 484.76 896.999 484.598 897.557 484.274C898.115 483.95 898.556 483.491 898.88 482.897C899.204 482.285 899.366 481.565 899.366 480.737C899.366 479.891 899.204 479.171 898.88 478.577C898.556 477.983 898.115 477.524 897.557 477.2C896.999 476.876 896.369 476.714 895.667 476.714C894.965 476.714 894.335 476.876 893.777 477.2C893.219 477.524 892.769 477.983 892.427 478.577C892.103 479.171 891.941 479.891 891.941 480.737C891.941 481.565 892.103 482.285 892.427 482.897C892.769 483.491 893.219 483.95 893.777 484.274C894.335 484.598 894.965 484.76 895.667 484.76ZM913.278 493.454C911.91 493.454 910.587 493.283 909.309 492.941C908.049 492.617 906.996 492.122 906.15 491.456L907.824 488.432C908.436 488.936 909.21 489.332 910.146 489.62C911.1 489.926 912.036 490.079 912.954 490.079C914.448 490.079 915.528 489.746 916.194 489.08C916.878 488.414 917.22 487.424 917.22 486.11V483.923L917.49 480.278L917.436 476.606V473.474H921.432V485.57C921.432 488.27 920.73 490.259 919.326 491.537C917.922 492.815 915.906 493.454 913.278 493.454ZM912.63 487.298C911.28 487.298 910.056 487.01 908.958 486.434C907.878 485.84 907.005 485.021 906.339 483.977C905.691 482.915 905.367 481.682 905.367 480.278C905.367 478.856 905.691 477.623 906.339 476.579C907.005 475.517 907.878 474.698 908.958 474.122C910.056 473.546 911.28 473.258 912.63 473.258C913.854 473.258 914.934 473.51 915.87 474.014C916.806 474.5 917.535 475.265 918.057 476.309C918.579 477.335 918.84 478.658 918.84 480.278C918.84 481.88 918.579 483.203 918.057 484.247C917.535 485.273 916.806 486.038 915.87 486.542C914.934 487.046 913.854 487.298 912.63 487.298ZM913.467 483.842C914.205 483.842 914.862 483.698 915.438 483.41C916.014 483.104 916.464 482.681 916.788 482.141C917.112 481.601 917.274 480.98 917.274 480.278C917.274 479.558 917.112 478.937 916.788 478.415C916.464 477.875 916.014 477.461 915.438 477.173C914.862 476.867 914.205 476.714 913.467 476.714C912.729 476.714 912.072 476.867 911.496 477.173C910.92 477.461 910.461 477.875 910.119 478.415C909.795 478.937 909.633 479.558 909.633 480.278C909.633 480.98 909.795 481.601 910.119 482.141C910.461 482.681 910.92 483.104 911.496 483.41C912.072 483.698 912.729 483.842 913.467 483.842Z" fill="black"/>
<rect x="719" y="524" width="200" height="50" rx="5" fill="#FB6233"/>
<path d="M763.219 556L758.579 542H761.279L765.419 554.66H764.079L768.379 542H770.779L774.959 554.66H773.659L777.899 542H780.379L775.739 556H772.979L769.159 544.58H769.879L765.999 556H763.219ZM788.92 556.2C787.827 556.2 786.82 556.02 785.9 555.66C784.98 555.3 784.18 554.8 783.5 554.16C782.82 553.507 782.294 552.747 781.92 551.88C781.547 551 781.36 550.04 781.36 549C781.36 547.96 781.547 547.007 781.92 546.14C782.294 545.26 782.82 544.5 783.5 543.86C784.18 543.207 784.98 542.7 785.9 542.34C786.82 541.98 787.82 541.8 788.9 541.8C789.994 541.8 790.994 541.98 791.9 542.34C792.82 542.7 793.62 543.207 794.3 543.86C794.98 544.5 795.507 545.26 795.88 546.14C796.254 547.007 796.44 547.96 796.44 549C796.44 550.04 796.254 551 795.88 551.88C795.507 552.76 794.98 553.52 794.3 554.16C793.62 554.8 792.82 555.3 791.9 555.66C790.994 556.02 790 556.2 788.92 556.2ZM788.9 553.92C789.607 553.92 790.26 553.8 790.86 553.56C791.46 553.32 791.98 552.98 792.42 552.54C792.86 552.087 793.2 551.567 793.44 550.98C793.694 550.38 793.82 549.72 793.82 549C793.82 548.28 793.694 547.627 793.44 547.04C793.2 546.44 792.86 545.92 792.42 545.48C791.98 545.027 791.46 544.68 790.86 544.44C790.26 544.2 789.607 544.08 788.9 544.08C788.194 544.08 787.54 544.2 786.94 544.44C786.354 544.68 785.834 545.027 785.38 545.48C784.94 545.92 784.594 546.44 784.34 547.04C784.1 547.627 783.98 548.28 783.98 549C783.98 549.707 784.1 550.36 784.34 550.96C784.594 551.56 784.94 552.087 785.38 552.54C785.82 552.98 786.34 553.32 786.94 553.56C787.54 553.8 788.194 553.92 788.9 553.92ZM799.196 556V542H804.956C806.196 542 807.256 542.2 808.136 542.6C809.03 543 809.716 543.573 810.196 544.32C810.676 545.067 810.916 545.953 810.916 546.98C810.916 548.007 810.676 548.893 810.196 549.64C809.716 550.373 809.03 550.94 808.136 551.34C807.256 551.727 806.196 551.92 804.956 551.92H800.636L801.796 550.74V556H799.196ZM808.356 556L804.816 550.92H807.596L811.156 556H808.356ZM801.796 551.02L800.636 549.78H804.836C805.983 549.78 806.843 549.533 807.416 549.04C808.003 548.547 808.296 547.86 808.296 546.98C808.296 546.087 808.003 545.4 807.416 544.92C806.843 544.44 805.983 544.2 804.836 544.2H800.636L801.796 542.92V551.02ZM816.145 552.7L816.005 549.62L823.345 542H826.265L820.165 548.48L818.725 550.06L816.145 552.7ZM813.825 556V542H816.425V556H813.825ZM823.585 556L818.225 549.62L819.945 547.72L826.625 556H823.585ZM833.923 556V542H836.523V556H833.923ZM843.15 556V544.2H838.51V542H850.39V544.2H845.75V556H843.15ZM854.741 547.82H861.701V549.96H854.741V547.82ZM854.941 553.82H862.841V556H852.341V542H862.561V544.18H854.941V553.82ZM865.739 556V542H867.879L873.999 552.22H872.879L878.899 542H881.039L881.059 556H878.599L878.579 545.86H879.099L873.979 554.4H872.819L867.619 545.86H868.219V556H865.739Z" fill="#F8F8F8"/>
<rect x="719" y="584" width="200" height="50" rx="5" fill="#FB6233"/>
<path d="M763.219 616L758.579 602H761.279L765.419 614.66H764.079L768.379 602H770.779L774.959 614.66H773.659L777.899 602H780.379L775.739 616H772.979L769.159 604.58H769.879L765.999 616H763.219ZM788.92 616.2C787.827 616.2 786.82 616.02 785.9 615.66C784.98 615.3 784.18 614.8 783.5 614.16C782.82 613.507 782.294 612.747 781.92 611.88C781.547 611 781.36 610.04 781.36 609C781.36 607.96 781.547 607.007 781.92 606.14C782.294 605.26 782.82 604.5 783.5 603.86C784.18 603.207 784.98 602.7 785.9 602.34C786.82 601.98 787.82 601.8 788.9 601.8C789.994 601.8 790.994 601.98 791.9 602.34C792.82 602.7 793.62 603.207 794.3 603.86C794.98 604.5 795.507 605.26 795.88 606.14C796.254 607.007 796.44 607.96 796.44 609C796.44 610.04 796.254 611 795.88 611.88C795.507 612.76 794.98 613.52 794.3 614.16C793.62 614.8 792.82 615.3 791.9 615.66C790.994 616.02 790 616.2 788.92 616.2ZM788.9 613.92C789.607 613.92 790.26 613.8 790.86 613.56C791.46 613.32 791.98 612.98 792.42 612.54C792.86 612.087 793.2 611.567 793.44 610.98C793.694 610.38 793.82 609.72 793.82 609C793.82 608.28 793.694 607.627 793.44 607.04C793.2 606.44 792.86 605.92 792.42 605.48C791.98 605.027 791.46 604.68 790.86 604.44C790.26 604.2 789.607 604.08 788.9 604.08C788.194 604.08 787.54 604.2 786.94 604.44C786.354 604.68 785.834 605.027 785.38 605.48C784.94 605.92 784.594 606.44 784.34 607.04C784.1 607.627 783.98 608.28 783.98 609C783.98 609.707 784.1 610.36 784.34 610.96C784.594 611.56 784.94 612.087 785.38 612.54C785.82 612.98 786.34 613.32 786.94 613.56C787.54 613.8 788.194 613.92 788.9 613.92ZM799.196 616V602H804.956C806.196 602 807.256 602.2 808.136 602.6C809.03 603 809.716 603.573 810.196 604.32C810.676 605.067 810.916 605.953 810.916 606.98C810.916 608.007 810.676 608.893 810.196 609.64C809.716 610.373 809.03 610.94 808.136 611.34C807.256 611.727 806.196 611.92 804.956 611.92H800.636L801.796 610.74V616H799.196ZM808.356 616L804.816 610.92H807.596L811.156 616H808.356ZM801.796 611.02L800.636 609.78H804.836C805.983 609.78 806.843 609.533 807.416 609.04C808.003 608.547 808.296 607.86 808.296 606.98C808.296 606.087 808.003 605.4 807.416 604.92C806.843 604.44 805.983 604.2 804.836 604.2H800.636L801.796 602.92V611.02ZM816.145 612.7L816.005 609.62L823.345 602H826.265L820.165 608.48L818.725 610.06L816.145 612.7ZM813.825 616V602H816.425V616H813.825ZM823.585 616L818.225 609.62L819.945 607.72L826.625 616H823.585ZM833.923 616V602H836.523V616H833.923ZM843.15 616V604.2H838.51V602H850.39V604.2H845.75V616H843.15ZM854.741 607.82H861.701V609.96H854.741V607.82ZM854.941 613.82H862.841V616H852.341V602H862.561V604.18H854.941V613.82ZM865.739 616V602H867.879L873.999 612.22H872.879L878.899 602H881.039L881.059 616H878.599L878.579 605.86H879.099L873.979 614.4H872.819L867.619 605.86H868.219V616H865.739Z" fill="#F8F8F8"/>
<rect x="719" y="646" width="200" height="50" rx="5" fill="#FB6233"/>
<path d="M763.219 678L758.579 664H761.279L765.419 676.66H764.079L768.379 664H770.779L774.959 676.66H773.659L777.899 664H780.379L775.739 678H772.979L769.159 666.58H769.879L765.999 678H763.219ZM788.92 678.2C787.827 678.2 786.82 678.02 785.9 677.66C784.98 677.3 784.18 676.8 783.5 676.16C782.82 675.507 782.294 674.747 781.92 673.88C781.547 673 781.36 672.04 781.36 671C781.36 669.96 781.547 669.007 781.92 668.14C782.294 667.26 782.82 666.5 783.5 665.86C784.18 665.207 784.98 664.7 785.9 664.34C786.82 663.98 787.82 663.8 788.9 663.8C789.994 663.8 790.994 663.98 791.9 664.34C792.82 664.7 793.62 665.207 794.3 665.86C794.98 666.5 795.507 667.26 795.88 668.14C796.254 669.007 796.44 669.96 796.44 671C796.44 672.04 796.254 673 795.88 673.88C795.507 674.76 794.98 675.52 794.3 676.16C793.62 676.8 792.82 677.3 791.9 677.66C790.994 678.02 790 678.2 788.92 678.2ZM788.9 675.92C789.607 675.92 790.26 675.8 790.86 675.56C791.46 675.32 791.98 674.98 792.42 674.54C792.86 674.087 793.2 673.567 793.44 672.98C793.694 672.38 793.82 671.72 793.82 671C793.82 670.28 793.694 669.627 793.44 669.04C793.2 668.44 792.86 667.92 792.42 667.48C791.98 667.027 791.46 666.68 790.86 666.44C790.26 666.2 789.607 666.08 788.9 666.08C788.194 666.08 787.54 666.2 786.94 666.44C786.354 666.68 785.834 667.027 785.38 667.48C784.94 667.92 784.594 668.44 784.34 669.04C784.1 669.627 783.98 670.28 783.98 671C783.98 671.707 784.1 672.36 784.34 672.96C784.594 673.56 784.94 674.087 785.38 674.54C785.82 674.98 786.34 675.32 786.94 675.56C787.54 675.8 788.194 675.92 788.9 675.92ZM799.196 678V664H804.956C806.196 664 807.256 664.2 808.136 664.6C809.03 665 809.716 665.573 810.196 666.32C810.676 667.067 810.916 667.953 810.916 668.98C810.916 670.007 810.676 670.893 810.196 671.64C809.716 672.373 809.03 672.94 808.136 673.34C807.256 673.727 806.196 673.92 804.956 673.92H800.636L801.796 672.74V678H799.196ZM808.356 678L804.816 672.92H807.596L811.156 678H808.356ZM801.796 673.02L800.636 671.78H804.836C805.983 671.78 806.843 671.533 807.416 671.04C808.003 670.547 808.296 669.86 808.296 668.98C808.296 668.087 808.003 667.4 807.416 666.92C806.843 666.44 805.983 666.2 804.836 666.2H800.636L801.796 664.92V673.02ZM816.145 674.7L816.005 671.62L823.345 664H826.265L820.165 670.48L818.725 672.06L816.145 674.7ZM813.825 678V664H816.425V678H813.825ZM823.585 678L818.225 671.62L819.945 669.72L826.625 678H823.585ZM833.923 678V664H836.523V678H833.923ZM843.15 678V666.2H838.51V664H850.39V666.2H845.75V678H843.15ZM854.741 669.82H861.701V671.96H854.741V669.82ZM854.941 675.82H862.841V678H852.341V664H862.561V666.18H854.941V675.82ZM865.739 678V664H867.879L873.999 674.22H872.879L878.899 664H881.039L881.059 678H878.599L878.579 667.86H879.099L873.979 676.4H872.819L867.619 667.86H868.219V678H865.739Z" fill="#F8F8F8"/>
<rect x="719" y="708" width="200" height="50" rx="5" fill="#FB6233"/>
<path d="M763.219 740L758.579 726H761.279L765.419 738.66H764.079L768.379 726H770.779L774.959 738.66H773.659L777.899 726H780.379L775.739 740H772.979L769.159 728.58H769.879L765.999 740H763.219ZM788.92 740.2C787.827 740.2 786.82 740.02 785.9 739.66C784.98 739.3 784.18 738.8 783.5 738.16C782.82 737.507 782.294 736.747 781.92 735.88C781.547 735 781.36 734.04 781.36 733C781.36 731.96 781.547 731.007 781.92 730.14C782.294 729.26 782.82 728.5 783.5 727.86C784.18 727.207 784.98 726.7 785.9 726.34C786.82 725.98 787.82 725.8 788.9 725.8C789.994 725.8 790.994 725.98 791.9 726.34C792.82 726.7 793.62 727.207 794.3 727.86C794.98 728.5 795.507 729.26 795.88 730.14C796.254 731.007 796.44 731.96 796.44 733C796.44 734.04 796.254 735 795.88 735.88C795.507 736.76 794.98 737.52 794.3 738.16C793.62 738.8 792.82 739.3 791.9 739.66C790.994 740.02 790 740.2 788.92 740.2ZM788.9 737.92C789.607 737.92 790.26 737.8 790.86 737.56C791.46 737.32 791.98 736.98 792.42 736.54C792.86 736.087 793.2 735.567 793.44 734.98C793.694 734.38 793.82 733.72 793.82 733C793.82 732.28 793.694 731.627 793.44 731.04C793.2 730.44 792.86 729.92 792.42 729.48C791.98 729.027 791.46 728.68 790.86 728.44C790.26 728.2 789.607 728.08 788.9 728.08C788.194 728.08 787.54 728.2 786.94 728.44C786.354 728.68 785.834 729.027 785.38 729.48C784.94 729.92 784.594 730.44 784.34 731.04C784.1 731.627 783.98 732.28 783.98 733C783.98 733.707 784.1 734.36 784.34 734.96C784.594 735.56 784.94 736.087 785.38 736.54C785.82 736.98 786.34 737.32 786.94 737.56C787.54 737.8 788.194 737.92 788.9 737.92ZM799.196 740V726H804.956C806.196 726 807.256 726.2 808.136 726.6C809.03 727 809.716 727.573 810.196 728.32C810.676 729.067 810.916 729.953 810.916 730.98C810.916 732.007 810.676 732.893 810.196 733.64C809.716 734.373 809.03 734.94 808.136 735.34C807.256 735.727 806.196 735.92 804.956 735.92H800.636L801.796 734.74V740H799.196ZM808.356 740L804.816 734.92H807.596L811.156 740H808.356ZM801.796 735.02L800.636 733.78H804.836C805.983 733.78 806.843 733.533 807.416 733.04C808.003 732.547 808.296 731.86 808.296 730.98C808.296 730.087 808.003 729.4 807.416 728.92C806.843 728.44 805.983 728.2 804.836 728.2H800.636L801.796 726.92V735.02ZM816.145 736.7L816.005 733.62L823.345 726H826.265L820.165 732.48L818.725 734.06L816.145 736.7ZM813.825 740V726H816.425V740H813.825ZM823.585 740L818.225 733.62L819.945 731.72L826.625 740H823.585ZM833.923 740V726H836.523V740H833.923ZM843.15 740V728.2H838.51V726H850.39V728.2H845.75V740H843.15ZM854.741 731.82H861.701V733.96H854.741V731.82ZM854.941 737.82H862.841V740H852.341V726H862.561V728.18H854.941V737.82ZM865.739 740V726H867.879L873.999 736.22H872.879L878.899 726H881.039L881.059 740H878.599L878.579 729.86H879.099L873.979 738.4H872.819L867.619 729.86H868.219V740H865.739Z" fill="#F8F8F8"/>
<path d="M537.725 724.998L580.084 760.925C582.386 762.878 582.446 766.411 580.21 768.441L537.767 806.967C536.847 807.802 535.649 808.265 534.406 808.265H389C386.239 808.265 384 806.027 384 803.265V728.027C384 725.255 386.255 723.012 389.027 723.027L534.517 723.812C535.693 723.818 536.828 724.238 537.725 724.998Z" fill="#FFD633"/>
<path d="M1913.05 199.712C1914.63 199.712 1916.12 198.97 1917.04 197.685C1927.83 182.596 1935.16 165.228 1938.43 146.813C1942.78 122.274 1939.69 96.9959 1929.57 74.2236C1919.44 51.4512 1902.75 32.2246 1881.61 19.0125C1860.48 5.80048 1835.89 -0.793878 1810.98 0.0762392C1786.08 0.946387 1762 9.24125 1741.84 23.8958C1721.68 38.5502 1706.37 58.8954 1697.86 82.3187C1689.35 105.742 1688.04 131.174 1694.09 155.349C1694.45 156.793 1692.95 158.038 1691.61 157.4C1647.31 136.402 1597.78 124.655 1545.5 124.655C1525.63 124.655 1506.16 126.351 1487.22 129.607C1485.77 129.857 1484.51 130.745 1483.77 132.021L1458.65 175.536C1457.27 177.927 1458.09 180.985 1460.48 182.366L1510.66 211.337C1511.61 211.886 1512.72 212.106 1513.81 211.971C1524.19 210.69 1534.77 210.03 1545.5 210.03C1661.78 210.03 1759.96 287.514 1791.22 393.666C1792.37 397.577 1797.46 398.73 1800.08 395.607L1830.39 359.485C1832.17 357.369 1835.32 357.093 1837.44 358.868L1868.21 384.691C1871.86 387.752 1877.21 384.487 1876.01 379.879C1856.48 304.87 1812.1 239.893 1752.18 194.273C1738.55 181.844 1728.88 165.666 1724.4 147.762C1719.86 129.631 1720.85 110.557 1727.23 92.989C1733.61 75.4215 1745.1 60.1627 1760.22 49.1718C1775.33 38.1809 1793.39 31.9598 1812.07 31.3072C1830.75 30.6546 1849.2 35.6003 1865.05 45.5094C1880.9 55.4185 1893.42 69.8384 1901.01 86.9177C1908.6 103.997 1910.92 122.956 1907.66 141.36C1905.49 153.607 1900.91 165.236 1894.27 175.604C1893.73 176.433 1893.44 177.393 1893.44 178.377V194.712C1893.44 197.473 1895.68 199.712 1898.44 199.712H1913.05Z" fill="#FFD633"/>
<path d="M1204 466.155C1204 314.442 1302.93 185.836 1439.8 141.328C1444.07 139.939 1447.69 144.528 1445.44 148.419L1424.5 184.686C1423.12 187.078 1423.94 190.136 1426.33 191.516L1465.05 213.869C1468.87 216.078 1468.18 221.867 1463.99 223.272C1362.5 257.318 1289.38 353.197 1289.38 466.155C1289.38 486.893 1291.84 507.056 1296.49 526.366C1296.8 527.626 1296.61 528.955 1295.96 530.078L1270.46 574.247C1269.08 576.638 1266.02 577.458 1263.63 576.077L1215.54 548.309C1214.35 547.626 1213.5 546.489 1213.18 545.16C1207.18 519.802 1204 493.349 1204 466.155Z" fill="#FFD633"/>
<path d="M1637.41 786.188C1634.77 789.988 1638.25 794.941 1642.68 793.628C1783.95 751.77 1887 620.997 1887 466.155C1887 455.199 1886.48 444.363 1885.48 433.672C1885.35 432.373 1884.72 431.178 1883.72 430.34L1840.52 394.089C1838.4 392.314 1835.25 392.59 1833.47 394.706L1801.13 433.247C1800.24 434.308 1799.84 435.69 1799.99 437.066C1801.07 446.613 1801.62 456.319 1801.62 466.155C1801.62 579.634 1727.82 675.876 1625.6 709.505C1621.59 710.825 1620.71 716.229 1624.18 718.636L1660.64 743.915C1662.91 745.488 1663.47 748.603 1661.9 750.873L1637.41 786.188Z" fill="#FFD633"/>
<path d="M1805.22 733.839C1805.21 733.853 1805.2 733.865 1805.18 733.878C1778.93 760.13 1749.46 781.214 1718.05 797.128C1713.17 799.601 1714.89 807.609 1720.36 807.596L2081.99 806.757C2083.2 806.754 2084.36 806.312 2085.27 805.514L2127.68 768.273C2129.95 766.281 2129.95 762.75 2127.68 760.759L2085.28 723.524C2084.37 722.722 2083.19 722.28 2081.98 722.281L1818.3 722.454C1816.9 722.455 1815.56 723.047 1814.6 724.072C1810.96 727.967 1805.58 733.475 1805.22 733.839Z" fill="#FFD633"/>
<path d="M1545.5 807.655H1058C1055.24 807.655 1053 805.416 1053 802.655V727.651C1053 724.891 1055.24 722.653 1058 722.651L1545.5 722.28C1557.17 722.28 1568.66 721.499 1579.92 719.986C1581.17 719.819 1582.44 720.117 1583.47 720.835L1625.85 750.214C1628.12 751.788 1628.68 754.903 1627.11 757.172L1595.77 802.372C1594.98 803.513 1593.74 804.276 1592.37 804.465C1577.05 806.568 1561.4 807.655 1545.5 807.655Z" fill="#FFD633"/>
<path d="M1461.9 447.64C1458.41 447.64 1455.06 447.149 1451.86 446.168C1448.66 445.144 1446.12 443.843 1444.24 442.264L1447.12 435.8C1448.91 437.208 1451.13 438.381 1453.78 439.32C1456.42 440.259 1459.13 440.728 1461.9 440.728C1464.25 440.728 1466.15 440.472 1467.6 439.96C1469.05 439.448 1470.12 438.765 1470.8 437.912C1471.48 437.016 1471.82 436.013 1471.82 434.904C1471.82 433.539 1471.33 432.451 1470.35 431.64C1469.37 430.787 1468.09 430.125 1466.51 429.656C1464.98 429.144 1463.25 428.675 1461.33 428.248C1459.45 427.821 1457.55 427.331 1455.63 426.776C1453.75 426.179 1452.03 425.432 1450.45 424.536C1448.91 423.597 1447.65 422.36 1446.67 420.824C1445.69 419.288 1445.2 417.325 1445.2 414.936C1445.2 412.504 1445.84 410.285 1447.12 408.28C1448.44 406.232 1450.43 404.611 1453.07 403.416C1455.76 402.179 1459.15 401.56 1463.25 401.56C1465.94 401.56 1468.6 401.901 1471.25 402.584C1473.89 403.267 1476.2 404.248 1478.16 405.528L1475.54 411.992C1473.53 410.797 1471.46 409.923 1469.33 409.368C1467.19 408.771 1465.15 408.472 1463.18 408.472C1460.88 408.472 1459 408.749 1457.55 409.304C1456.14 409.859 1455.1 410.584 1454.42 411.48C1453.78 412.376 1453.46 413.4 1453.46 414.552C1453.46 415.917 1453.93 417.027 1454.86 417.88C1455.85 418.691 1457.1 419.331 1458.64 419.8C1460.22 420.269 1461.97 420.739 1463.89 421.208C1465.81 421.635 1467.71 422.125 1469.58 422.68C1471.5 423.235 1473.23 423.96 1474.77 424.856C1476.35 425.752 1477.61 426.968 1478.54 428.504C1479.53 430.04 1480.02 431.981 1480.02 434.328C1480.02 436.717 1479.35 438.936 1478.03 440.984C1476.75 442.989 1474.77 444.611 1472.08 445.848C1469.39 447.043 1466 447.64 1461.9 447.64ZM1506.44 447.448C1503.67 447.448 1501.13 446.808 1498.83 445.528C1496.56 444.248 1494.75 442.328 1493.39 439.768C1492.06 437.165 1491.4 433.88 1491.4 429.912C1491.4 425.901 1492.04 422.616 1493.32 420.056C1494.64 417.496 1496.44 415.597 1498.7 414.36C1500.96 413.08 1503.54 412.44 1506.44 412.44C1509.81 412.44 1512.78 413.165 1515.34 414.616C1517.94 416.067 1519.99 418.093 1521.48 420.696C1523.02 423.299 1523.79 426.371 1523.79 429.912C1523.79 433.453 1523.02 436.547 1521.48 439.192C1519.99 441.795 1517.94 443.821 1515.34 445.272C1512.78 446.723 1509.81 447.448 1506.44 447.448ZM1487.5 459.416V412.824H1495.11V420.888L1494.86 429.976L1495.5 439.064V459.416H1487.5ZM1505.55 440.6C1507.47 440.6 1509.17 440.173 1510.67 439.32C1512.2 438.467 1513.42 437.229 1514.31 435.608C1515.21 433.987 1515.66 432.088 1515.66 429.912C1515.66 427.693 1515.21 425.795 1514.31 424.216C1513.42 422.595 1512.2 421.357 1510.67 420.504C1509.17 419.651 1507.47 419.224 1505.55 419.224C1503.63 419.224 1501.9 419.651 1500.36 420.504C1498.83 421.357 1497.61 422.595 1496.71 424.216C1495.82 425.795 1495.37 427.693 1495.37 429.912C1495.37 432.088 1495.82 433.987 1496.71 435.608C1497.61 437.229 1498.83 438.467 1500.36 439.32C1501.9 440.173 1503.63 440.6 1505.55 440.6ZM1531.37 447V412.824H1538.99V422.232L1538.09 419.48C1539.12 417.176 1540.72 415.427 1542.89 414.232C1545.11 413.037 1547.86 412.44 1551.15 412.44V420.056C1550.81 419.971 1550.49 419.928 1550.19 419.928C1549.89 419.885 1549.59 419.864 1549.29 419.864C1546.26 419.864 1543.85 420.76 1542.06 422.552C1540.27 424.301 1539.37 426.925 1539.37 430.424V447H1531.37ZM1557.94 447V412.824H1565.94V447H1557.94ZM1561.97 407.192C1560.47 407.192 1559.24 406.723 1558.26 405.784C1557.32 404.845 1556.85 403.715 1556.85 402.392C1556.85 401.027 1557.32 399.896 1558.26 399C1559.24 398.061 1560.47 397.592 1561.97 397.592C1563.46 397.592 1564.68 398.04 1565.62 398.936C1566.6 399.789 1567.09 400.877 1567.09 402.2C1567.09 403.608 1566.62 404.803 1565.68 405.784C1564.74 406.723 1563.5 407.192 1561.97 407.192ZM1595.83 412.44C1598.56 412.44 1600.99 412.973 1603.12 414.04C1605.3 415.107 1607.01 416.749 1608.24 418.968C1609.48 421.144 1610.1 423.96 1610.1 427.416V447H1602.1V428.44C1602.1 425.411 1601.37 423.149 1599.92 421.656C1598.52 420.163 1596.53 419.416 1593.97 419.416C1592.09 419.416 1590.43 419.8 1588.98 420.568C1587.53 421.336 1586.4 422.488 1585.59 424.024C1584.82 425.517 1584.44 427.416 1584.44 429.72V447H1576.44V412.824H1584.05V422.04L1582.71 419.224C1583.9 417.048 1585.63 415.384 1587.89 414.232C1590.2 413.037 1592.84 412.44 1595.83 412.44ZM1633.11 447.448C1629.36 447.448 1626.46 446.488 1624.41 444.568C1622.36 442.605 1621.34 439.725 1621.34 435.928V405.272H1629.34V435.736C1629.34 437.357 1629.74 438.616 1630.55 439.512C1631.41 440.408 1632.58 440.856 1634.07 440.856C1635.86 440.856 1637.36 440.387 1638.55 439.448L1640.79 445.144C1639.85 445.912 1638.7 446.488 1637.34 446.872C1635.97 447.256 1634.56 447.448 1633.11 447.448ZM1615.7 419.48V413.08H1638.49V419.48H1615.7Z" fill="#FB6233"/>
<path d="M1783.57 119V96.6H1793.36C1795.79 96.6 1797.93 97.0693 1799.76 98.008C1801.6 98.9467 1803.03 100.248 1804.05 101.912C1805.07 103.576 1805.59 105.539 1805.59 107.8C1805.59 110.04 1805.07 112.003 1804.05 113.688C1803.03 115.352 1801.6 116.653 1799.76 117.592C1797.93 118.531 1795.79 119 1793.36 119H1783.57ZM1787.73 115.48H1793.17C1794.86 115.48 1796.31 115.16 1797.52 114.52C1798.76 113.88 1799.71 112.984 1800.37 111.832C1801.05 110.68 1801.39 109.336 1801.39 107.8C1801.39 106.243 1801.05 104.899 1800.37 103.768C1799.71 102.616 1798.76 101.72 1797.52 101.08C1796.31 100.44 1794.86 100.12 1793.17 100.12H1787.73V115.48ZM1820.15 119V115.544L1819.93 114.808V108.76C1819.93 107.587 1819.58 106.68 1818.87 106.04C1818.17 105.379 1817.1 105.048 1815.67 105.048C1814.71 105.048 1813.76 105.197 1812.82 105.496C1811.91 105.795 1811.13 106.211 1810.49 106.744L1808.92 103.832C1809.84 103.128 1810.93 102.605 1812.18 102.264C1813.46 101.901 1814.79 101.72 1816.15 101.72C1818.63 101.72 1820.54 102.317 1821.88 103.512C1823.25 104.685 1823.93 106.509 1823.93 108.984V119H1820.15ZM1814.78 119.224C1813.5 119.224 1812.38 119.011 1811.42 118.584C1810.46 118.136 1809.71 117.528 1809.18 116.76C1808.66 115.971 1808.41 115.085 1808.41 114.104C1808.41 113.144 1808.63 112.28 1809.08 111.512C1809.55 110.744 1810.31 110.136 1811.35 109.688C1812.4 109.24 1813.78 109.016 1815.51 109.016H1820.47V111.672H1815.8C1814.43 111.672 1813.52 111.896 1813.05 112.344C1812.58 112.771 1812.34 113.304 1812.34 113.944C1812.34 114.669 1812.63 115.245 1813.21 115.672C1813.78 116.099 1814.58 116.312 1815.61 116.312C1816.59 116.312 1817.46 116.088 1818.23 115.64C1819.02 115.192 1819.59 114.531 1819.93 113.656L1820.6 116.056C1820.22 117.059 1819.52 117.837 1818.52 118.392C1817.54 118.947 1816.29 119.224 1814.78 119.224ZM1829.06 119V101.912H1833.06V119H1829.06ZM1831.08 99.096C1830.33 99.096 1829.71 98.8613 1829.22 98.392C1828.75 97.9227 1828.52 97.3573 1828.52 96.696C1828.52 96.0133 1828.75 95.448 1829.22 95C1829.71 94.5307 1830.33 94.296 1831.08 94.296C1831.82 94.296 1832.43 94.52 1832.9 94.968C1833.39 95.3947 1833.64 95.9387 1833.64 96.6C1833.64 97.304 1833.4 97.9013 1832.93 98.392C1832.46 98.8613 1831.85 99.096 1831.08 99.096ZM1838.31 119V95.256H1842.31V119H1838.31ZM1848.97 125.432C1848.14 125.432 1847.31 125.293 1846.47 125.016C1845.64 124.739 1844.95 124.355 1844.39 123.864L1845.99 120.92C1846.4 121.283 1846.86 121.571 1847.37 121.784C1847.88 121.997 1848.4 122.104 1848.94 122.104C1849.66 122.104 1850.25 121.923 1850.7 121.56C1851.15 121.197 1851.56 120.589 1851.95 119.736L1852.94 117.496L1853.26 117.016L1859.72 101.912H1863.56L1855.56 120.376C1855.03 121.656 1854.43 122.669 1853.77 123.416C1853.13 124.163 1852.4 124.685 1851.59 124.984C1850.8 125.283 1849.93 125.432 1848.97 125.432ZM1852.49 119.608L1844.78 101.912H1848.94L1855.21 116.664L1852.49 119.608ZM1778.14 158.32C1776.39 158.32 1774.72 158.075 1773.12 157.584C1771.52 157.072 1770.25 156.421 1769.31 155.632L1770.75 152.4C1771.64 153.104 1772.75 153.691 1774.08 154.16C1775.4 154.629 1776.75 154.864 1778.14 154.864C1779.31 154.864 1780.26 154.736 1780.99 154.48C1781.71 154.224 1782.25 153.883 1782.59 153.456C1782.93 153.008 1783.1 152.507 1783.1 151.952C1783.1 151.269 1782.85 150.725 1782.36 150.32C1781.87 149.893 1781.23 149.563 1780.44 149.328C1779.68 149.072 1778.81 148.837 1777.85 148.624C1776.91 148.411 1775.96 148.165 1775 147.888C1774.06 147.589 1773.2 147.216 1772.41 146.768C1771.64 146.299 1771.01 145.68 1770.52 144.912C1770.03 144.144 1769.79 143.163 1769.79 141.968C1769.79 140.752 1770.11 139.643 1770.75 138.64C1771.41 137.616 1772.4 136.805 1773.72 136.208C1775.07 135.589 1776.76 135.28 1778.81 135.28C1780.16 135.28 1781.49 135.451 1782.81 135.792C1784.13 136.133 1785.29 136.624 1786.27 137.264L1784.96 140.496C1783.95 139.899 1782.92 139.461 1781.85 139.184C1780.78 138.885 1779.76 138.736 1778.78 138.736C1777.63 138.736 1776.69 138.875 1775.96 139.152C1775.26 139.429 1774.74 139.792 1774.4 140.24C1774.08 140.688 1773.92 141.2 1773.92 141.776C1773.92 142.459 1774.15 143.013 1774.62 143.44C1775.11 143.845 1775.74 144.165 1776.51 144.4C1777.3 144.635 1778.17 144.869 1779.13 145.104C1780.09 145.317 1781.04 145.563 1781.98 145.84C1782.94 146.117 1783.8 146.48 1784.57 146.928C1785.36 147.376 1785.99 147.984 1786.46 148.752C1786.95 149.52 1787.2 150.491 1787.2 151.664C1787.2 152.859 1786.86 153.968 1786.2 154.992C1785.56 155.995 1784.57 156.805 1783.23 157.424C1781.88 158.021 1780.19 158.32 1778.14 158.32ZM1798.78 158.224C1796.98 158.224 1795.38 157.851 1793.98 157.104C1792.59 156.336 1791.5 155.291 1790.71 153.968C1789.92 152.645 1789.53 151.141 1789.53 149.456C1789.53 147.749 1789.92 146.245 1790.71 144.944C1791.5 143.621 1792.59 142.587 1793.98 141.84C1795.38 141.093 1796.98 140.72 1798.78 140.72C1800.44 140.72 1801.9 141.061 1803.16 141.744C1804.44 142.405 1805.41 143.387 1806.07 144.688L1803 146.48C1802.49 145.669 1801.86 145.072 1801.11 144.688C1800.39 144.304 1799.6 144.112 1798.74 144.112C1797.76 144.112 1796.88 144.325 1796.09 144.752C1795.3 145.179 1794.68 145.797 1794.23 146.608C1793.78 147.397 1793.56 148.347 1793.56 149.456C1793.56 150.565 1793.78 151.525 1794.23 152.336C1794.68 153.125 1795.3 153.733 1796.09 154.16C1796.88 154.587 1797.76 154.8 1798.74 154.8C1799.6 154.8 1800.39 154.608 1801.11 154.224C1801.86 153.84 1802.49 153.243 1803 152.432L1806.07 154.224C1805.41 155.504 1804.44 156.496 1803.16 157.2C1801.9 157.883 1800.44 158.224 1798.78 158.224ZM1809.53 158V140.912H1813.34V145.616L1812.89 144.24C1813.4 143.088 1814.2 142.213 1815.29 141.616C1816.4 141.019 1817.78 140.72 1819.42 140.72V144.528C1819.25 144.485 1819.09 144.464 1818.94 144.464C1818.79 144.443 1818.64 144.432 1818.49 144.432C1816.98 144.432 1815.77 144.88 1814.87 145.776C1813.98 146.651 1813.53 147.963 1813.53 149.712V158H1809.53ZM1830.2 158.224C1828.75 158.224 1827.47 157.957 1826.36 157.424C1825.25 156.869 1824.39 156.037 1823.77 154.928C1823.15 153.797 1822.84 152.379 1822.84 150.672V140.912H1826.84V150.128C1826.84 151.664 1827.18 152.816 1827.86 153.584C1828.57 154.331 1829.56 154.704 1830.84 154.704C1831.78 154.704 1832.59 154.512 1833.27 154.128C1833.98 153.744 1834.52 153.168 1834.9 152.4C1835.31 151.632 1835.51 150.683 1835.51 149.552V140.912H1839.51V158H1835.7V153.392L1836.38 154.8C1835.8 155.909 1834.96 156.763 1833.85 157.36C1832.74 157.936 1831.52 158.224 1830.2 158.224ZM1866.32 140.72C1867.68 140.72 1868.89 140.987 1869.93 141.52C1871 142.053 1871.83 142.875 1872.43 143.984C1873.03 145.072 1873.33 146.48 1873.33 148.208V158H1869.33V148.72C1869.33 147.205 1868.99 146.075 1868.33 145.328C1867.67 144.581 1866.72 144.208 1865.49 144.208C1864.61 144.208 1863.83 144.4 1863.15 144.784C1862.49 145.168 1861.97 145.733 1861.58 146.48C1861.22 147.227 1861.04 148.176 1861.04 149.328V158H1857.04V148.72C1857.04 147.205 1856.71 146.075 1856.05 145.328C1855.38 144.581 1854.43 144.208 1853.2 144.208C1852.32 144.208 1851.54 144.4 1850.86 144.784C1850.2 145.168 1849.68 145.733 1849.29 146.48C1848.93 147.227 1848.75 148.176 1848.75 149.328V158H1844.75V140.912H1848.56V145.456L1847.89 144.112C1848.46 143.003 1849.29 142.16 1850.38 141.584C1851.49 141.008 1852.75 140.72 1854.16 140.72C1855.76 140.72 1857.14 141.115 1858.32 141.904C1859.51 142.693 1860.3 143.888 1860.69 145.488L1859.12 144.944C1859.67 143.664 1860.59 142.64 1861.87 141.872C1863.15 141.104 1864.63 140.72 1866.32 140.72Z" fill="#FB6233"/>
<path d="M1438.48 505V503.062L1449.54 492.232C1450.55 491.244 1451.31 490.383 1451.82 489.648C1452.33 488.888 1452.67 488.179 1452.85 487.52C1453.02 486.861 1453.11 486.241 1453.11 485.658C1453.11 484.113 1452.58 482.897 1451.52 482.01C1450.48 481.123 1448.93 480.68 1446.88 480.68C1445.31 480.68 1443.92 480.921 1442.7 481.402C1441.51 481.883 1440.48 482.631 1439.62 483.644L1437.68 481.972C1438.72 480.756 1440.05 479.819 1441.67 479.16C1443.3 478.501 1445.11 478.172 1447.11 478.172C1448.91 478.172 1450.46 478.463 1451.78 479.046C1453.1 479.603 1454.11 480.427 1454.82 481.516C1455.56 482.605 1455.92 483.885 1455.92 485.354C1455.92 486.215 1455.8 487.064 1455.54 487.9C1455.32 488.736 1454.89 489.623 1454.25 490.56C1453.64 491.472 1452.74 492.511 1451.55 493.676L1441.41 503.632L1440.65 502.568H1457.14V505H1438.48ZM1470.82 495.88V493.524H1480.78V495.88H1470.82ZM1494.52 498.008V496.032L1508.62 478.4H1511.66L1497.67 496.032L1496.19 495.576H1517.58V498.008H1494.52ZM1509.53 505V498.008L1509.6 495.576V489.42H1512.26V505H1509.53ZM1535.89 505L1528.37 485.05H1530.95L1537.79 503.556H1536.62L1543.65 485.05H1545.96L1552.92 503.556H1551.74L1558.69 485.05H1561.16L1553.6 505H1551.06L1544.37 487.596H1545.17L1538.44 505H1535.89ZM1573.14 505.19C1571.07 505.19 1569.24 504.759 1567.67 503.898C1566.1 503.011 1564.87 501.808 1563.99 500.288C1563.1 498.743 1562.66 496.982 1562.66 495.006C1562.66 493.03 1563.07 491.282 1563.91 489.762C1564.77 488.242 1565.94 487.051 1567.41 486.19C1568.9 485.303 1570.57 484.86 1572.42 484.86C1574.3 484.86 1575.96 485.291 1577.4 486.152C1578.87 486.988 1580.02 488.179 1580.86 489.724C1581.69 491.244 1582.11 493.005 1582.11 495.006C1582.11 495.133 1582.1 495.272 1582.07 495.424C1582.07 495.551 1582.07 495.69 1582.07 495.842H1564.71V493.828H1580.63L1579.57 494.626C1579.57 493.182 1579.25 491.903 1578.62 490.788C1578.01 489.648 1577.17 488.761 1576.11 488.128C1575.04 487.495 1573.82 487.178 1572.42 487.178C1571.05 487.178 1569.83 487.495 1568.74 488.128C1567.65 488.761 1566.8 489.648 1566.19 490.788C1565.58 491.928 1565.28 493.233 1565.28 494.702V495.12C1565.28 496.64 1565.61 497.983 1566.27 499.148C1566.95 500.288 1567.89 501.187 1569.08 501.846C1570.29 502.479 1571.67 502.796 1573.22 502.796C1574.44 502.796 1575.56 502.581 1576.6 502.15C1577.67 501.719 1578.58 501.061 1579.34 500.174L1580.86 501.922C1579.97 502.986 1578.86 503.797 1577.51 504.354C1576.2 504.911 1574.74 505.19 1573.14 505.19ZM1596.08 505.19C1594 505.19 1592.18 504.759 1590.61 503.898C1589.04 503.011 1587.81 501.808 1586.92 500.288C1586.03 498.743 1585.59 496.982 1585.59 495.006C1585.59 493.03 1586.01 491.282 1586.84 489.762C1587.71 488.242 1588.87 487.051 1590.34 486.19C1591.83 485.303 1593.51 484.86 1595.36 484.86C1597.23 484.86 1598.89 485.291 1600.33 486.152C1601.8 486.988 1602.96 488.179 1603.79 489.724C1604.63 491.244 1605.05 493.005 1605.05 495.006C1605.05 495.133 1605.03 495.272 1605.01 495.424C1605.01 495.551 1605.01 495.69 1605.01 495.842H1587.64V493.828H1603.56L1602.5 494.626C1602.5 493.182 1602.18 491.903 1601.55 490.788C1600.94 489.648 1600.11 488.761 1599.04 488.128C1597.98 487.495 1596.75 487.178 1595.36 487.178C1593.99 487.178 1592.76 487.495 1591.67 488.128C1590.58 488.761 1589.73 489.648 1589.12 490.788C1588.52 491.928 1588.21 493.233 1588.21 494.702V495.12C1588.21 496.64 1588.54 497.983 1589.2 499.148C1589.88 500.288 1590.82 501.187 1592.01 501.846C1593.23 502.479 1594.61 502.796 1596.15 502.796C1597.37 502.796 1598.5 502.581 1599.54 502.15C1600.6 501.719 1601.51 501.061 1602.27 500.174L1603.79 501.922C1602.91 502.986 1601.79 503.797 1600.45 504.354C1599.13 504.911 1597.67 505.19 1596.08 505.19ZM1612.67 499.832L1612.74 496.374L1625.17 485.05H1628.47L1619.7 493.448L1618.18 494.74L1612.67 499.832ZM1610.54 505V476.804H1613.24V505H1610.54ZM1626 505L1617.68 494.626L1619.43 492.536L1629.31 505H1626ZM1638.12 505.19C1636.48 505.19 1634.92 504.962 1633.45 504.506C1631.98 504.025 1630.83 503.429 1629.99 502.72L1631.21 500.592C1632.02 501.2 1633.06 501.732 1634.32 502.188C1635.59 502.619 1636.92 502.834 1638.31 502.834C1640.21 502.834 1641.58 502.543 1642.42 501.96C1643.25 501.352 1643.67 500.554 1643.67 499.566C1643.67 498.831 1643.43 498.261 1642.95 497.856C1642.49 497.425 1641.89 497.109 1641.13 496.906C1640.37 496.678 1639.52 496.488 1638.58 496.336C1637.64 496.184 1636.71 496.007 1635.77 495.804C1634.86 495.601 1634.02 495.31 1633.26 494.93C1632.5 494.525 1631.88 493.98 1631.4 493.296C1630.94 492.612 1630.71 491.7 1630.71 490.56C1630.71 489.471 1631.02 488.495 1631.63 487.634C1632.23 486.773 1633.12 486.101 1634.29 485.62C1635.48 485.113 1636.92 484.86 1638.62 484.86C1639.91 484.86 1641.2 485.037 1642.49 485.392C1643.79 485.721 1644.85 486.165 1645.69 486.722L1644.51 488.888C1643.62 488.28 1642.67 487.849 1641.66 487.596C1640.64 487.317 1639.63 487.178 1638.62 487.178C1636.82 487.178 1635.49 487.495 1634.63 488.128C1633.79 488.736 1633.37 489.521 1633.37 490.484C1633.37 491.244 1633.6 491.839 1634.06 492.27C1634.54 492.701 1635.16 493.043 1635.92 493.296C1636.71 493.524 1637.55 493.714 1638.47 493.866C1639.4 494.018 1640.33 494.208 1641.24 494.436C1642.18 494.639 1643.03 494.93 1643.79 495.31C1644.57 495.665 1645.19 496.184 1645.65 496.868C1646.13 497.527 1646.37 498.401 1646.37 499.49C1646.37 500.655 1646.04 501.669 1645.38 502.53C1644.75 503.366 1643.81 504.025 1642.57 504.506C1641.35 504.962 1639.87 505.19 1638.12 505.19Z" fill="#00B4CA"/>
<path d="M2522 805.5H2328.04L2280.23 757.697C2279.76 757.228 2279.5 756.592 2279.5 755.929V560.5H2474.93C2475.59 560.5 2476.23 560.763 2476.7 561.232L2524.5 609.036V803C2524.5 804.381 2523.38 805.5 2522 805.5Z" fill="#FB6233" stroke="#F8F8F8" stroke-width="5"/>
<path d="M2222.02 473V428.2H2241.6C2246.46 428.2 2250.73 429.139 2254.4 431.016C2258.07 432.893 2260.93 435.496 2262.98 438.824C2265.02 442.152 2266.05 446.077 2266.05 450.6C2266.05 455.08 2265.02 459.005 2262.98 462.376C2260.93 465.704 2258.07 468.307 2254.4 470.184C2250.73 472.061 2246.46 473 2241.6 473H2222.02ZM2230.34 465.96H2241.22C2244.59 465.96 2247.49 465.32 2249.92 464.04C2252.39 462.76 2254.29 460.968 2255.62 458.664C2256.98 456.36 2257.66 453.672 2257.66 450.6C2257.66 447.485 2256.98 444.797 2255.62 442.536C2254.29 440.232 2252.39 438.44 2249.92 437.16C2247.49 435.88 2244.59 435.24 2241.22 435.24H2230.34V465.96ZM2290.19 473.448C2286.39 473.448 2283.06 472.701 2280.2 471.208C2277.39 469.672 2275.19 467.581 2273.61 464.936C2272.08 462.291 2271.31 459.283 2271.31 455.912C2271.31 452.499 2272.05 449.491 2273.55 446.888C2275.08 444.243 2277.17 442.173 2279.82 440.68C2282.51 439.187 2285.56 438.44 2288.97 438.44C2292.3 438.44 2295.26 439.165 2297.87 440.616C2300.47 442.067 2302.52 444.115 2304.01 446.76C2305.5 449.405 2306.25 452.52 2306.25 456.104C2306.25 456.445 2306.23 456.829 2306.19 457.256C2306.19 457.683 2306.17 458.088 2306.12 458.472H2277.64V453.16H2301.9L2298.76 454.824C2298.81 452.861 2298.4 451.133 2297.55 449.64C2296.69 448.147 2295.52 446.973 2294.03 446.12C2292.58 445.267 2290.89 444.84 2288.97 444.84C2287.01 444.84 2285.28 445.267 2283.79 446.12C2282.34 446.973 2281.18 448.168 2280.33 449.704C2279.52 451.197 2279.12 452.968 2279.12 455.016V456.296C2279.12 458.344 2279.58 460.157 2280.52 461.736C2281.46 463.315 2282.78 464.531 2284.49 465.384C2286.2 466.237 2288.16 466.664 2290.38 466.664C2292.3 466.664 2294.03 466.365 2295.56 465.768C2297.1 465.171 2298.46 464.232 2299.66 462.952L2303.95 467.88C2302.41 469.672 2300.47 471.059 2298.12 472.04C2295.82 472.979 2293.17 473.448 2290.19 473.448ZM2313.94 473V425.512H2321.94V473H2313.94ZM2332.44 473V438.824H2340.44V473H2332.44ZM2336.47 433.192C2334.97 433.192 2333.74 432.723 2332.76 431.784C2331.82 430.845 2331.35 429.715 2331.35 428.392C2331.35 427.027 2331.82 425.896 2332.76 425C2333.74 424.061 2334.97 423.592 2336.47 423.592C2337.96 423.592 2339.18 424.04 2340.12 424.936C2341.1 425.789 2341.59 426.877 2341.59 428.2C2341.59 429.608 2341.12 430.803 2340.18 431.784C2339.24 432.723 2338 433.192 2336.47 433.192ZM2360.02 473L2345.37 438.824H2353.69L2366.3 468.968H2362.2L2375.26 438.824H2382.94L2368.28 473H2360.02ZM2403.06 473.448C2399.26 473.448 2395.94 472.701 2393.08 471.208C2390.26 469.672 2388.06 467.581 2386.49 464.936C2384.95 462.291 2384.18 459.283 2384.18 455.912C2384.18 452.499 2384.93 449.491 2386.42 446.888C2387.96 444.243 2390.05 442.173 2392.69 440.68C2395.38 439.187 2398.43 438.44 2401.85 438.44C2405.17 438.44 2408.14 439.165 2410.74 440.616C2413.34 442.067 2415.39 444.115 2416.89 446.76C2418.38 449.405 2419.13 452.52 2419.13 456.104C2419.13 456.445 2419.1 456.829 2419.06 457.256C2419.06 457.683 2419.04 458.088 2419 458.472H2390.52V453.16H2414.77L2411.64 454.824C2411.68 452.861 2411.28 451.133 2410.42 449.64C2409.57 448.147 2408.4 446.973 2406.9 446.12C2405.45 445.267 2403.77 444.84 2401.85 444.84C2399.88 444.84 2398.16 445.267 2396.66 446.12C2395.21 446.973 2394.06 448.168 2393.21 449.704C2392.4 451.197 2391.99 452.968 2391.99 455.016V456.296C2391.99 458.344 2392.46 460.157 2393.4 461.736C2394.34 463.315 2395.66 464.531 2397.37 465.384C2399.07 466.237 2401.04 466.664 2403.25 466.664C2405.17 466.664 2406.9 466.365 2408.44 465.768C2409.97 465.171 2411.34 464.232 2412.53 462.952L2416.82 467.88C2415.29 469.672 2413.34 471.059 2411 472.04C2408.69 472.979 2406.05 473.448 2403.06 473.448ZM2426.81 473V438.824H2434.43V448.232L2433.53 445.48C2434.55 443.176 2436.15 441.427 2438.33 440.232C2440.55 439.037 2443.3 438.44 2446.59 438.44V446.056C2446.25 445.971 2445.93 445.928 2445.63 445.928C2445.33 445.885 2445.03 445.864 2444.73 445.864C2441.7 445.864 2439.29 446.76 2437.5 448.552C2435.71 450.301 2434.81 452.925 2434.81 456.424V473H2426.81ZM2471.99 473V466.088L2471.54 464.616V452.52C2471.54 450.173 2470.84 448.36 2469.43 447.08C2468.02 445.757 2465.89 445.096 2463.03 445.096C2461.11 445.096 2459.21 445.395 2457.34 445.992C2455.5 446.589 2453.94 447.421 2452.66 448.488L2449.53 442.664C2451.36 441.256 2453.54 440.211 2456.06 439.528C2458.62 438.803 2461.26 438.44 2463.99 438.44C2468.94 438.44 2472.76 439.635 2475.45 442.024C2478.18 444.371 2479.54 448.019 2479.54 452.968V473H2471.99ZM2461.24 473.448C2458.68 473.448 2456.44 473.021 2454.52 472.168C2452.6 471.272 2451.11 470.056 2450.04 468.52C2449.02 466.941 2448.5 465.171 2448.5 463.208C2448.5 461.288 2448.95 459.56 2449.85 458.024C2450.79 456.488 2452.3 455.272 2454.39 454.376C2456.48 453.48 2459.26 453.032 2462.71 453.032H2472.63V458.344H2463.29C2460.56 458.344 2458.72 458.792 2457.78 459.688C2456.84 460.541 2456.38 461.608 2456.38 462.888C2456.38 464.339 2456.95 465.491 2458.1 466.344C2459.26 467.197 2460.86 467.624 2462.9 467.624C2464.87 467.624 2466.62 467.176 2468.15 466.28C2469.73 465.384 2470.86 464.061 2471.54 462.312L2472.89 467.112C2472.12 469.117 2470.73 470.675 2468.73 471.784C2466.76 472.893 2464.27 473.448 2461.24 473.448ZM2508.75 473.448C2505.85 473.448 2503.27 472.808 2501.01 471.528C2498.75 470.248 2496.96 468.328 2495.63 465.768C2494.35 463.165 2493.71 459.88 2493.71 455.912C2493.71 451.901 2494.38 448.616 2495.7 446.056C2497.06 443.496 2498.88 441.597 2501.14 440.36C2503.44 439.08 2505.98 438.44 2508.75 438.44C2512.13 438.44 2515.09 439.165 2517.65 440.616C2520.25 442.067 2522.3 444.093 2523.79 446.696C2525.33 449.299 2526.1 452.371 2526.1 455.912C2526.1 459.453 2525.33 462.525 2523.79 465.128C2522.3 467.731 2520.25 469.779 2517.65 471.272C2515.09 472.723 2512.13 473.448 2508.75 473.448ZM2489.81 473V425.512H2497.81V446.76L2497.17 455.848L2497.43 464.936V473H2489.81ZM2507.86 466.6C2509.78 466.6 2511.49 466.173 2512.98 465.32C2514.51 464.467 2515.73 463.229 2516.63 461.608C2517.52 459.987 2517.97 458.088 2517.97 455.912C2517.97 453.693 2517.52 451.795 2516.63 450.216C2515.73 448.595 2514.51 447.357 2512.98 446.504C2511.49 445.651 2509.78 445.224 2507.86 445.224C2505.94 445.224 2504.21 445.651 2502.67 446.504C2501.14 447.357 2499.92 448.595 2499.03 450.216C2498.13 451.795 2497.68 453.693 2497.68 455.912C2497.68 458.088 2498.13 459.987 2499.03 461.608C2499.92 463.229 2501.14 464.467 2502.67 465.32C2504.21 466.173 2505.94 466.6 2507.86 466.6ZM2533.69 473V425.512H2541.69V473H2533.69ZM2568.25 473.448C2564.45 473.448 2561.12 472.701 2558.27 471.208C2555.45 469.672 2553.25 467.581 2551.67 464.936C2550.14 462.291 2549.37 459.283 2549.37 455.912C2549.37 452.499 2550.12 449.491 2551.61 446.888C2553.15 444.243 2555.24 442.173 2557.88 440.68C2560.57 439.187 2563.62 438.44 2567.03 438.44C2570.36 438.44 2573.33 439.165 2575.93 440.616C2578.53 442.067 2580.58 444.115 2582.07 446.76C2583.57 449.405 2584.31 452.52 2584.31 456.104C2584.31 456.445 2584.29 456.829 2584.25 457.256C2584.25 457.683 2584.23 458.088 2584.19 458.472H2555.71V453.16H2579.96L2576.83 454.824C2576.87 452.861 2576.46 451.133 2575.61 449.64C2574.76 448.147 2573.58 446.973 2572.09 446.12C2570.64 445.267 2568.95 444.84 2567.03 444.84C2565.07 444.84 2563.34 445.267 2561.85 446.12C2560.4 446.973 2559.25 448.168 2558.39 449.704C2557.58 451.197 2557.18 452.968 2557.18 455.016V456.296C2557.18 458.344 2557.65 460.157 2558.59 461.736C2559.52 463.315 2560.85 464.531 2562.55 465.384C2564.26 466.237 2566.22 466.664 2568.44 466.664C2570.36 466.664 2572.09 466.365 2573.63 465.768C2575.16 465.171 2576.53 464.232 2577.72 462.952L2582.01 467.88C2580.47 469.672 2578.53 471.059 2576.19 472.04C2573.88 472.979 2571.24 473.448 2568.25 473.448Z" fill="#FB6233"/>
</g>
<defs>
<clipPath id="clip0_112_25">
<rect width="2587" height="808.265" fill="white"/>
</clipPath>
</defs>
</svg>
