<svg width="1001" height="1172" viewBox="0 0 1001 1172" fill="none" xmlns="http://www.w3.org/2000/svg">
<g clip-path="url(#clip0_232_1068)">
<path d="M115.057 800.394L150.794 843.009C152.75 845.342 156.318 845.4 158.349 843.133L196.613 800.424C197.434 799.507 197.889 798.319 197.889 797.088L197.888 720C197.888 717.239 195.649 715 192.888 715H118.889C116.127 715 113.889 717.239 113.889 720L113.889 797.181C113.889 798.356 114.302 799.493 115.057 800.394Z" fill="#FB6233"/>
<path d="M133.263 768.32C131.513 768.32 129.839 768.075 128.239 767.584C126.639 767.072 125.369 766.421 124.431 765.632L125.871 762.4C126.767 763.104 127.876 763.691 129.199 764.16C130.521 764.629 131.876 764.864 133.263 764.864C134.436 764.864 135.385 764.736 136.111 764.48C136.836 764.224 137.369 763.883 137.711 763.456C138.052 763.008 138.223 762.507 138.223 761.952C138.223 761.269 137.977 760.725 137.487 760.32C136.996 759.893 136.356 759.563 135.567 759.328C134.799 759.072 133.935 758.837 132.975 758.624C132.036 758.411 131.087 758.165 130.127 757.888C129.188 757.589 128.324 757.216 127.535 756.768C126.767 756.299 126.137 755.68 125.647 754.912C125.156 754.144 124.911 753.163 124.911 751.968C124.911 750.752 125.231 749.643 125.871 748.64C126.532 747.616 127.524 746.805 128.847 746.208C130.191 745.589 131.887 745.28 133.935 745.28C135.279 745.28 136.612 745.451 137.935 745.792C139.257 746.133 140.409 746.624 141.391 747.264L140.079 750.496C139.076 749.899 138.041 749.461 136.975 749.184C135.908 748.885 134.884 748.736 133.903 748.736C132.751 748.736 131.812 748.875 131.087 749.152C130.383 749.429 129.86 749.792 129.519 750.24C129.199 750.688 129.039 751.2 129.039 751.776C129.039 752.459 129.273 753.013 129.743 753.44C130.233 753.845 130.863 754.165 131.631 754.4C132.42 754.635 133.295 754.869 134.255 755.104C135.215 755.317 136.164 755.563 137.103 755.84C138.063 756.117 138.927 756.48 139.695 756.928C140.484 757.376 141.113 757.984 141.583 758.752C142.073 759.52 142.319 760.491 142.319 761.664C142.319 762.859 141.988 763.968 141.327 764.992C140.687 765.995 139.695 766.805 138.351 767.424C137.007 768.021 135.311 768.32 133.263 768.32ZM153.388 768.32C151.638 768.32 149.964 768.075 148.364 767.584C146.764 767.072 145.494 766.421 144.556 765.632L145.996 762.4C146.892 763.104 148.001 763.691 149.324 764.16C150.646 764.629 152.001 764.864 153.388 764.864C154.561 764.864 155.51 764.736 156.236 764.48C156.961 764.224 157.494 763.883 157.836 763.456C158.177 763.008 158.348 762.507 158.348 761.952C158.348 761.269 158.102 760.725 157.612 760.32C157.121 759.893 156.481 759.563 155.692 759.328C154.924 759.072 154.06 758.837 153.1 758.624C152.161 758.411 151.212 758.165 150.252 757.888C149.313 757.589 148.449 757.216 147.66 756.768C146.892 756.299 146.262 755.68 145.772 754.912C145.281 754.144 145.036 753.163 145.036 751.968C145.036 750.752 145.356 749.643 145.996 748.64C146.657 747.616 147.649 746.805 148.972 746.208C150.316 745.589 152.012 745.28 154.06 745.28C155.404 745.28 156.737 745.451 158.06 745.792C159.382 746.133 160.534 746.624 161.516 747.264L160.204 750.496C159.201 749.899 158.166 749.461 157.1 749.184C156.033 748.885 155.009 748.736 154.028 748.736C152.876 748.736 151.937 748.875 151.212 749.152C150.508 749.429 149.985 749.792 149.644 750.24C149.324 750.688 149.164 751.2 149.164 751.776C149.164 752.459 149.398 753.013 149.868 753.44C150.358 753.845 150.988 754.165 151.756 754.4C152.545 754.635 153.42 754.869 154.38 755.104C155.34 755.317 156.289 755.563 157.228 755.84C158.188 756.117 159.052 756.48 159.82 756.928C160.609 757.376 161.238 757.984 161.708 758.752C162.198 759.52 162.444 760.491 162.444 761.664C162.444 762.859 162.113 763.968 161.452 764.992C160.812 765.995 159.82 766.805 158.476 767.424C157.132 768.021 155.436 768.32 153.388 768.32ZM182.313 745.6H186.473V768H182.313V745.6ZM170.729 768H166.569V745.6H170.729V768ZM182.633 758.4H170.377V754.848H182.633V758.4Z" fill="#F8F8F8"/>
<path d="M460.057 800.394L495.794 843.009C497.75 845.342 501.318 845.4 503.349 843.133L541.613 800.424C542.434 799.507 542.889 798.319 542.889 797.088L542.888 720C542.888 717.239 540.649 715 537.888 715H463.889C461.127 715 458.889 717.239 458.889 720V797.181C458.889 798.356 459.302 799.493 460.057 800.394Z" fill="#FB6233"/>
<path d="M478.263 768.32C476.513 768.32 474.839 768.075 473.239 767.584C471.639 767.072 470.369 766.421 469.431 765.632L470.871 762.4C471.767 763.104 472.876 763.691 474.199 764.16C475.521 764.629 476.876 764.864 478.263 764.864C479.436 764.864 480.385 764.736 481.111 764.48C481.836 764.224 482.369 763.883 482.711 763.456C483.052 763.008 483.223 762.507 483.223 761.952C483.223 761.269 482.977 760.725 482.487 760.32C481.996 759.893 481.356 759.563 480.567 759.328C479.799 759.072 478.935 758.837 477.975 758.624C477.036 758.411 476.087 758.165 475.127 757.888C474.188 757.589 473.324 757.216 472.535 756.768C471.767 756.299 471.137 755.68 470.647 754.912C470.156 754.144 469.911 753.163 469.911 751.968C469.911 750.752 470.231 749.643 470.871 748.64C471.532 747.616 472.524 746.805 473.847 746.208C475.191 745.589 476.887 745.28 478.935 745.28C480.279 745.28 481.612 745.451 482.935 745.792C484.257 746.133 485.409 746.624 486.391 747.264L485.079 750.496C484.076 749.899 483.041 749.461 481.975 749.184C480.908 748.885 479.884 748.736 478.903 748.736C477.751 748.736 476.812 748.875 476.087 749.152C475.383 749.429 474.86 749.792 474.519 750.24C474.199 750.688 474.039 751.2 474.039 751.776C474.039 752.459 474.273 753.013 474.743 753.44C475.233 753.845 475.863 754.165 476.631 754.4C477.42 754.635 478.295 754.869 479.255 755.104C480.215 755.317 481.164 755.563 482.103 755.84C483.063 756.117 483.927 756.48 484.695 756.928C485.484 757.376 486.113 757.984 486.583 758.752C487.073 759.52 487.319 760.491 487.319 761.664C487.319 762.859 486.988 763.968 486.327 764.992C485.687 765.995 484.695 766.805 483.351 767.424C482.007 768.021 480.311 768.32 478.263 768.32ZM498.388 768.32C496.638 768.32 494.964 768.075 493.364 767.584C491.764 767.072 490.494 766.421 489.556 765.632L490.996 762.4C491.892 763.104 493.001 763.691 494.324 764.16C495.646 764.629 497.001 764.864 498.388 764.864C499.561 764.864 500.51 764.736 501.236 764.48C501.961 764.224 502.494 763.883 502.836 763.456C503.177 763.008 503.348 762.507 503.348 761.952C503.348 761.269 503.102 760.725 502.612 760.32C502.121 759.893 501.481 759.563 500.692 759.328C499.924 759.072 499.06 758.837 498.1 758.624C497.161 758.411 496.212 758.165 495.252 757.888C494.313 757.589 493.449 757.216 492.66 756.768C491.892 756.299 491.262 755.68 490.772 754.912C490.281 754.144 490.036 753.163 490.036 751.968C490.036 750.752 490.356 749.643 490.996 748.64C491.657 747.616 492.649 746.805 493.972 746.208C495.316 745.589 497.012 745.28 499.06 745.28C500.404 745.28 501.737 745.451 503.06 745.792C504.382 746.133 505.534 746.624 506.516 747.264L505.204 750.496C504.201 749.899 503.166 749.461 502.1 749.184C501.033 748.885 500.009 748.736 499.028 748.736C497.876 748.736 496.937 748.875 496.212 749.152C495.508 749.429 494.985 749.792 494.644 750.24C494.324 750.688 494.164 751.2 494.164 751.776C494.164 752.459 494.398 753.013 494.868 753.44C495.358 753.845 495.988 754.165 496.756 754.4C497.545 754.635 498.42 754.869 499.38 755.104C500.34 755.317 501.289 755.563 502.228 755.84C503.188 756.117 504.052 756.48 504.82 756.928C505.609 757.376 506.238 757.984 506.708 758.752C507.198 759.52 507.444 760.491 507.444 761.664C507.444 762.859 507.113 763.968 506.452 764.992C505.812 765.995 504.82 766.805 503.476 767.424C502.132 768.021 500.436 768.32 498.388 768.32ZM527.313 745.6H531.473V768H527.313V745.6ZM515.729 768H511.569V745.6H515.729V768ZM527.633 758.4H515.377V754.848H527.633V758.4Z" fill="#F8F8F8"/>
<path d="M805.057 800.394L840.794 843.009C842.75 845.342 846.318 845.4 848.349 843.133L886.613 800.424C887.434 799.507 887.889 798.319 887.889 797.088L887.888 720C887.888 717.239 885.649 715 882.888 715H808.889C806.127 715 803.889 717.239 803.889 720V797.181C803.889 798.356 804.302 799.493 805.057 800.394Z" fill="#FB6233"/>
<path d="M823.263 768.32C821.513 768.32 819.839 768.075 818.239 767.584C816.639 767.072 815.369 766.421 814.431 765.632L815.871 762.4C816.767 763.104 817.876 763.691 819.199 764.16C820.521 764.629 821.876 764.864 823.263 764.864C824.436 764.864 825.385 764.736 826.111 764.48C826.836 764.224 827.369 763.883 827.711 763.456C828.052 763.008 828.223 762.507 828.223 761.952C828.223 761.269 827.977 760.725 827.487 760.32C826.996 759.893 826.356 759.563 825.567 759.328C824.799 759.072 823.935 758.837 822.975 758.624C822.036 758.411 821.087 758.165 820.127 757.888C819.188 757.589 818.324 757.216 817.535 756.768C816.767 756.299 816.137 755.68 815.647 754.912C815.156 754.144 814.911 753.163 814.911 751.968C814.911 750.752 815.231 749.643 815.871 748.64C816.532 747.616 817.524 746.805 818.847 746.208C820.191 745.589 821.887 745.28 823.935 745.28C825.279 745.28 826.612 745.451 827.935 745.792C829.257 746.133 830.409 746.624 831.391 747.264L830.079 750.496C829.076 749.899 828.041 749.461 826.975 749.184C825.908 748.885 824.884 748.736 823.903 748.736C822.751 748.736 821.812 748.875 821.087 749.152C820.383 749.429 819.86 749.792 819.519 750.24C819.199 750.688 819.039 751.2 819.039 751.776C819.039 752.459 819.273 753.013 819.743 753.44C820.233 753.845 820.863 754.165 821.631 754.4C822.42 754.635 823.295 754.869 824.255 755.104C825.215 755.317 826.164 755.563 827.103 755.84C828.063 756.117 828.927 756.48 829.695 756.928C830.484 757.376 831.113 757.984 831.583 758.752C832.073 759.52 832.319 760.491 832.319 761.664C832.319 762.859 831.988 763.968 831.327 764.992C830.687 765.995 829.695 766.805 828.351 767.424C827.007 768.021 825.311 768.32 823.263 768.32ZM843.388 768.32C841.638 768.32 839.964 768.075 838.364 767.584C836.764 767.072 835.494 766.421 834.556 765.632L835.996 762.4C836.892 763.104 838.001 763.691 839.324 764.16C840.646 764.629 842.001 764.864 843.388 764.864C844.561 764.864 845.51 764.736 846.236 764.48C846.961 764.224 847.494 763.883 847.836 763.456C848.177 763.008 848.348 762.507 848.348 761.952C848.348 761.269 848.102 760.725 847.612 760.32C847.121 759.893 846.481 759.563 845.692 759.328C844.924 759.072 844.06 758.837 843.1 758.624C842.161 758.411 841.212 758.165 840.252 757.888C839.313 757.589 838.449 757.216 837.66 756.768C836.892 756.299 836.262 755.68 835.772 754.912C835.281 754.144 835.036 753.163 835.036 751.968C835.036 750.752 835.356 749.643 835.996 748.64C836.657 747.616 837.649 746.805 838.972 746.208C840.316 745.589 842.012 745.28 844.06 745.28C845.404 745.28 846.737 745.451 848.06 745.792C849.382 746.133 850.534 746.624 851.516 747.264L850.204 750.496C849.201 749.899 848.166 749.461 847.1 749.184C846.033 748.885 845.009 748.736 844.028 748.736C842.876 748.736 841.937 748.875 841.212 749.152C840.508 749.429 839.985 749.792 839.644 750.24C839.324 750.688 839.164 751.2 839.164 751.776C839.164 752.459 839.398 753.013 839.868 753.44C840.358 753.845 840.988 754.165 841.756 754.4C842.545 754.635 843.42 754.869 844.38 755.104C845.34 755.317 846.289 755.563 847.228 755.84C848.188 756.117 849.052 756.48 849.82 756.928C850.609 757.376 851.238 757.984 851.708 758.752C852.198 759.52 852.444 760.491 852.444 761.664C852.444 762.859 852.113 763.968 851.452 764.992C850.812 765.995 849.82 766.805 848.476 767.424C847.132 768.021 845.436 768.32 843.388 768.32ZM872.313 745.6H876.473V768H872.313V745.6ZM860.729 768H856.569V745.6H860.729V768ZM872.633 758.4H860.377V754.848H872.633V758.4Z" fill="#F8F8F8"/>
<rect x="690.889" y="862" width="310" height="310" rx="5" fill="#F1CBA2"/>
<rect x="690.889" y="1069" width="186.945" height="103" rx="5" fill="#D19129"/>
<path d="M709.884 1111.43V1089.03H713.308L723.1 1105.38H721.308L730.94 1089.03H734.364L734.396 1111.43H730.46L730.428 1095.2H731.26L723.068 1108.87H721.212L712.892 1095.2H713.852V1111.43H709.884ZM750.59 1111.43V1107.97L750.366 1107.24V1101.19C750.366 1100.02 750.014 1099.11 749.31 1098.47C748.606 1097.81 747.539 1097.48 746.11 1097.48C745.15 1097.48 744.201 1097.63 743.262 1097.92C742.345 1098.22 741.566 1098.64 740.926 1099.17L739.358 1096.26C740.275 1095.56 741.363 1095.03 742.622 1094.69C743.902 1094.33 745.225 1094.15 746.59 1094.15C749.065 1094.15 750.974 1094.75 752.318 1095.94C753.683 1097.11 754.366 1098.94 754.366 1101.41V1111.43H750.59ZM745.214 1111.65C743.934 1111.65 742.814 1111.44 741.854 1111.01C740.894 1110.56 740.147 1109.96 739.614 1109.19C739.102 1108.4 738.846 1107.51 738.846 1106.53C738.846 1105.57 739.07 1104.71 739.518 1103.94C739.987 1103.17 740.745 1102.56 741.79 1102.12C742.835 1101.67 744.222 1101.44 745.95 1101.44H750.91V1104.1H746.238C744.873 1104.1 743.955 1104.32 743.486 1104.77C743.017 1105.2 742.782 1105.73 742.782 1106.37C742.782 1107.1 743.07 1107.67 743.646 1108.1C744.222 1108.53 745.022 1108.74 746.046 1108.74C747.027 1108.74 747.902 1108.52 748.67 1108.07C749.459 1107.62 750.025 1106.96 750.366 1106.08L751.038 1108.48C750.654 1109.49 749.961 1110.27 748.958 1110.82C747.977 1111.38 746.729 1111.65 745.214 1111.65ZM769.196 1094.15C770.561 1094.15 771.777 1094.42 772.844 1094.95C773.932 1095.48 774.785 1096.3 775.404 1097.41C776.022 1098.5 776.332 1099.91 776.332 1101.64V1111.43H772.332V1102.15C772.332 1100.63 771.969 1099.5 771.244 1098.76C770.54 1098.01 769.548 1097.64 768.268 1097.64C767.329 1097.64 766.497 1097.83 765.772 1098.21C765.046 1098.6 764.481 1099.17 764.076 1099.94C763.692 1100.69 763.5 1101.64 763.5 1102.79V1111.43H759.5V1094.34H763.308V1098.95L762.636 1097.54C763.233 1096.45 764.097 1095.62 765.228 1095.04C766.38 1094.45 767.702 1094.15 769.196 1094.15ZM791.934 1111.43V1107.97L791.71 1107.24V1101.19C791.71 1100.02 791.358 1099.11 790.654 1098.47C789.95 1097.81 788.883 1097.48 787.454 1097.48C786.494 1097.48 785.544 1097.63 784.606 1097.92C783.688 1098.22 782.91 1098.64 782.27 1099.17L780.702 1096.26C781.619 1095.56 782.707 1095.03 783.966 1094.69C785.246 1094.33 786.568 1094.15 787.934 1094.15C790.408 1094.15 792.318 1094.75 793.662 1095.94C795.027 1097.11 795.71 1098.94 795.71 1101.41V1111.43H791.934ZM786.558 1111.65C785.278 1111.65 784.158 1111.44 783.198 1111.01C782.238 1110.56 781.491 1109.96 780.958 1109.19C780.446 1108.4 780.19 1107.51 780.19 1106.53C780.19 1105.57 780.414 1104.71 780.862 1103.94C781.331 1103.17 782.088 1102.56 783.134 1102.12C784.179 1101.67 785.566 1101.44 787.294 1101.44H792.254V1104.1H787.582C786.216 1104.1 785.299 1104.32 784.83 1104.77C784.36 1105.2 784.126 1105.73 784.126 1106.37C784.126 1107.1 784.414 1107.67 784.99 1108.1C785.566 1108.53 786.366 1108.74 787.39 1108.74C788.371 1108.74 789.246 1108.52 790.014 1108.07C790.803 1107.62 791.368 1106.96 791.71 1106.08L792.382 1108.48C791.998 1109.49 791.304 1110.27 790.302 1110.82C789.32 1111.38 788.072 1111.65 786.558 1111.65ZM808.619 1117.86C807.04 1117.86 805.493 1117.65 803.979 1117.22C802.485 1116.82 801.259 1116.22 800.299 1115.43L802.091 1112.42C802.837 1113.04 803.776 1113.53 804.907 1113.89C806.059 1114.28 807.221 1114.47 808.395 1114.47C810.272 1114.47 811.648 1114.03 812.523 1113.16C813.397 1112.3 813.835 1111.01 813.835 1109.28V1106.24L814.155 1102.37L814.027 1098.5V1094.34H817.835V1108.84C817.835 1111.93 817.045 1114.2 815.467 1115.65C813.888 1117.12 811.605 1117.86 808.619 1117.86ZM808.107 1110.66C806.485 1110.66 805.013 1110.32 803.691 1109.64C802.389 1108.93 801.355 1107.96 800.587 1106.72C799.84 1105.49 799.467 1104.04 799.467 1102.37C799.467 1100.73 799.84 1099.29 800.587 1098.05C801.355 1096.82 802.389 1095.86 803.691 1095.17C805.013 1094.49 806.485 1094.15 808.107 1094.15C809.557 1094.15 810.859 1094.44 812.011 1095.01C813.163 1095.59 814.08 1096.48 814.763 1097.7C815.467 1098.92 815.819 1100.47 815.819 1102.37C815.819 1104.27 815.467 1105.84 814.763 1107.08C814.08 1108.29 813.163 1109.2 812.011 1109.8C810.859 1110.37 809.557 1110.66 808.107 1110.66ZM808.715 1107.27C809.717 1107.27 810.613 1107.07 811.403 1106.66C812.192 1106.23 812.8 1105.66 813.227 1104.93C813.675 1104.19 813.899 1103.33 813.899 1102.37C813.899 1101.41 813.675 1100.57 813.227 1099.84C812.8 1099.1 812.192 1098.53 811.403 1098.15C810.613 1097.74 809.717 1097.54 808.715 1097.54C807.712 1097.54 806.805 1097.74 805.995 1098.15C805.205 1098.53 804.587 1099.1 804.139 1099.84C803.712 1100.57 803.499 1101.41 803.499 1102.37C803.499 1103.33 803.712 1104.19 804.139 1104.93C804.587 1105.66 805.205 1106.23 805.995 1106.66C806.805 1107.07 807.712 1107.27 808.715 1107.27ZM831.125 1111.65C829.227 1111.65 827.563 1111.28 826.133 1110.53C824.725 1109.76 823.627 1108.72 822.837 1107.4C822.069 1106.07 821.685 1104.57 821.685 1102.88C821.685 1101.18 822.059 1099.67 822.805 1098.37C823.573 1097.05 824.619 1096.02 825.941 1095.27C827.285 1094.52 828.811 1094.15 830.517 1094.15C832.181 1094.15 833.664 1094.51 834.965 1095.24C836.267 1095.96 837.291 1096.99 838.037 1098.31C838.784 1099.63 839.157 1101.19 839.157 1102.98C839.157 1103.15 839.147 1103.34 839.125 1103.56C839.125 1103.77 839.115 1103.97 839.093 1104.16H824.853V1101.51H836.981L835.413 1102.34C835.435 1101.36 835.232 1100.5 834.805 1099.75C834.379 1099 833.792 1098.42 833.045 1097.99C832.32 1097.56 831.477 1097.35 830.517 1097.35C829.536 1097.35 828.672 1097.56 827.925 1097.99C827.2 1098.42 826.624 1099.01 826.197 1099.78C825.792 1100.53 825.589 1101.41 825.589 1102.44V1103.08C825.589 1104.1 825.824 1105.01 826.293 1105.8C826.763 1106.59 827.424 1107.19 828.277 1107.62C829.131 1108.05 830.112 1108.26 831.221 1108.26C832.181 1108.26 833.045 1108.11 833.813 1107.81C834.581 1107.51 835.264 1107.04 835.861 1106.4L838.005 1108.87C837.237 1109.76 836.267 1110.46 835.093 1110.95C833.941 1111.42 832.619 1111.65 831.125 1111.65ZM850.232 1111.65C848.589 1111.65 847.106 1111.29 845.784 1110.56C844.482 1109.82 843.458 1108.79 842.712 1107.49C841.965 1106.19 841.592 1104.66 841.592 1102.88C841.592 1101.11 841.965 1099.58 842.712 1098.28C843.458 1096.98 844.482 1095.96 845.784 1095.24C847.106 1094.51 848.589 1094.15 850.232 1094.15C851.661 1094.15 852.941 1094.47 854.072 1095.11C855.202 1095.73 856.098 1096.68 856.76 1097.96C857.421 1099.24 857.752 1100.88 857.752 1102.88C857.752 1104.87 857.432 1106.51 856.792 1107.81C856.152 1109.09 855.266 1110.05 854.136 1110.69C853.005 1111.33 851.704 1111.65 850.232 1111.65ZM850.712 1108.23C851.672 1108.23 852.525 1108.02 853.272 1107.59C854.04 1107.16 854.648 1106.54 855.096 1105.73C855.565 1104.92 855.8 1103.97 855.8 1102.88C855.8 1101.78 855.565 1100.83 855.096 1100.04C854.648 1099.23 854.04 1098.61 853.272 1098.18C852.525 1097.75 851.672 1097.54 850.712 1097.54C849.752 1097.54 848.888 1097.75 848.12 1098.18C847.373 1098.61 846.765 1099.23 846.296 1100.04C845.848 1100.83 845.624 1101.78 845.624 1102.88C845.624 1103.97 845.848 1104.92 846.296 1105.73C846.765 1106.54 847.373 1107.16 848.12 1107.59C848.888 1108.02 849.752 1108.23 850.712 1108.23ZM855.896 1111.43V1107.4L856.056 1102.85L855.736 1098.31V1087.68H859.704V1111.43H855.896ZM743.415 1150.43V1128.03H746.839L760.887 1145.28H759.191V1128.03H763.319V1150.43H759.895L745.847 1133.18H747.543V1150.43H743.415ZM776.617 1150.65C774.868 1150.65 773.31 1150.28 771.945 1149.53C770.58 1148.76 769.502 1147.72 768.713 1146.4C767.924 1145.07 767.529 1143.57 767.529 1141.88C767.529 1140.18 767.924 1138.67 768.713 1137.37C769.502 1136.05 770.58 1135.02 771.945 1134.27C773.31 1133.52 774.868 1133.15 776.617 1133.15C778.388 1133.15 779.956 1133.52 781.321 1134.27C782.708 1135.02 783.785 1136.04 784.553 1137.34C785.342 1138.64 785.737 1140.16 785.737 1141.88C785.737 1143.57 785.342 1145.07 784.553 1146.4C783.785 1147.72 782.708 1148.76 781.321 1149.53C779.956 1150.28 778.388 1150.65 776.617 1150.65ZM776.617 1147.23C777.598 1147.23 778.473 1147.02 779.241 1146.59C780.009 1146.16 780.606 1145.54 781.033 1144.73C781.481 1143.92 781.705 1142.97 781.705 1141.88C781.705 1140.78 781.481 1139.83 781.033 1139.04C780.606 1138.23 780.009 1137.61 779.241 1137.18C778.473 1136.75 777.609 1136.54 776.649 1136.54C775.668 1136.54 774.793 1136.75 774.025 1137.18C773.278 1137.61 772.681 1138.23 772.233 1139.04C771.785 1139.83 771.561 1140.78 771.561 1141.88C771.561 1142.97 771.785 1143.92 772.233 1144.73C772.681 1145.54 773.278 1146.16 774.025 1146.59C774.793 1147.02 775.657 1147.23 776.617 1147.23ZM796.794 1150.65C795.151 1150.65 793.669 1150.29 792.346 1149.56C791.045 1148.82 790.021 1147.79 789.274 1146.49C788.527 1145.19 788.154 1143.66 788.154 1141.88C788.154 1140.11 788.527 1138.58 789.274 1137.28C790.021 1135.98 791.045 1134.96 792.346 1134.24C793.669 1133.51 795.151 1133.15 796.794 1133.15C798.223 1133.15 799.503 1133.47 800.634 1134.11C801.765 1134.73 802.661 1135.68 803.322 1136.96C803.983 1138.24 804.314 1139.88 804.314 1141.88C804.314 1143.87 803.994 1145.51 803.354 1146.81C802.714 1148.09 801.829 1149.05 800.698 1149.69C799.567 1150.33 798.266 1150.65 796.794 1150.65ZM797.274 1147.23C798.234 1147.23 799.087 1147.02 799.834 1146.59C800.602 1146.16 801.21 1145.54 801.658 1144.73C802.127 1143.92 802.362 1142.97 802.362 1141.88C802.362 1140.78 802.127 1139.83 801.658 1139.04C801.21 1138.23 800.602 1137.61 799.834 1137.18C799.087 1136.75 798.234 1136.54 797.274 1136.54C796.314 1136.54 795.45 1136.75 794.682 1137.18C793.935 1137.61 793.327 1138.23 792.858 1139.04C792.41 1139.83 792.186 1140.78 792.186 1141.88C792.186 1142.97 792.41 1143.92 792.858 1144.73C793.327 1145.54 793.935 1146.16 794.682 1146.59C795.45 1147.02 796.314 1147.23 797.274 1147.23ZM802.458 1150.43V1146.4L802.618 1141.85L802.298 1137.31V1126.68H806.266V1150.43H802.458ZM819.563 1150.65C817.664 1150.65 816 1150.28 814.571 1149.53C813.163 1148.76 812.064 1147.72 811.275 1146.4C810.507 1145.07 810.123 1143.57 810.123 1141.88C810.123 1140.18 810.496 1138.67 811.243 1137.37C812.011 1136.05 813.056 1135.02 814.379 1134.27C815.723 1133.52 817.248 1133.15 818.955 1133.15C820.619 1133.15 822.101 1133.51 823.403 1134.24C824.704 1134.96 825.728 1135.99 826.475 1137.31C827.221 1138.63 827.595 1140.19 827.595 1141.98C827.595 1142.15 827.584 1142.34 827.563 1142.56C827.563 1142.77 827.552 1142.97 827.531 1143.16H813.291V1140.51H825.419L823.851 1141.34C823.872 1140.36 823.669 1139.5 823.243 1138.75C822.816 1138 822.229 1137.42 821.483 1136.99C820.757 1136.56 819.915 1136.35 818.955 1136.35C817.973 1136.35 817.109 1136.56 816.363 1136.99C815.637 1137.42 815.061 1138.01 814.635 1138.78C814.229 1139.53 814.027 1140.41 814.027 1141.44V1142.08C814.027 1143.1 814.261 1144.01 814.731 1144.8C815.2 1145.59 815.861 1146.19 816.715 1146.62C817.568 1147.05 818.549 1147.26 819.659 1147.26C820.619 1147.26 821.483 1147.11 822.251 1146.81C823.019 1146.51 823.701 1146.04 824.299 1145.4L826.443 1147.87C825.675 1148.76 824.704 1149.46 823.531 1149.95C822.379 1150.42 821.056 1150.65 819.563 1150.65Z" fill="#F8F8F8"/>
<rect x="345.889" y="862" width="310" height="310" rx="5" fill="#F1CBA2"/>
<rect x="345.889" y="1069" width="186.945" height="103" rx="5" fill="#D19129"/>
<path d="M364.884 1111.43V1089.03H368.308L378.1 1105.38H376.308L385.94 1089.03H389.364L389.396 1111.43H385.46L385.428 1095.2H386.26L378.068 1108.87H376.212L367.892 1095.2H368.852V1111.43H364.884ZM405.59 1111.43V1107.97L405.366 1107.24V1101.19C405.366 1100.02 405.014 1099.11 404.31 1098.47C403.606 1097.81 402.539 1097.48 401.11 1097.48C400.15 1097.48 399.201 1097.63 398.262 1097.92C397.345 1098.22 396.566 1098.64 395.926 1099.17L394.358 1096.26C395.275 1095.56 396.363 1095.03 397.622 1094.69C398.902 1094.33 400.225 1094.15 401.59 1094.15C404.065 1094.15 405.974 1094.75 407.318 1095.94C408.683 1097.11 409.366 1098.94 409.366 1101.41V1111.43H405.59ZM400.214 1111.65C398.934 1111.65 397.814 1111.44 396.854 1111.01C395.894 1110.56 395.147 1109.96 394.614 1109.19C394.102 1108.4 393.846 1107.51 393.846 1106.53C393.846 1105.57 394.07 1104.71 394.518 1103.94C394.987 1103.17 395.745 1102.56 396.79 1102.12C397.835 1101.67 399.222 1101.44 400.95 1101.44H405.91V1104.1H401.238C399.873 1104.1 398.955 1104.32 398.486 1104.77C398.017 1105.2 397.782 1105.73 397.782 1106.37C397.782 1107.1 398.07 1107.67 398.646 1108.1C399.222 1108.53 400.022 1108.74 401.046 1108.74C402.027 1108.74 402.902 1108.52 403.67 1108.07C404.459 1107.62 405.025 1106.96 405.366 1106.08L406.038 1108.48C405.654 1109.49 404.961 1110.27 403.958 1110.82C402.977 1111.38 401.729 1111.65 400.214 1111.65ZM424.196 1094.15C425.561 1094.15 426.777 1094.42 427.844 1094.95C428.932 1095.48 429.785 1096.3 430.404 1097.41C431.022 1098.5 431.332 1099.91 431.332 1101.64V1111.43H427.332V1102.15C427.332 1100.63 426.969 1099.5 426.244 1098.76C425.54 1098.01 424.548 1097.64 423.268 1097.64C422.329 1097.64 421.497 1097.83 420.772 1098.21C420.046 1098.6 419.481 1099.17 419.076 1099.94C418.692 1100.69 418.5 1101.64 418.5 1102.79V1111.43H414.5V1094.34H418.308V1098.95L417.636 1097.54C418.233 1096.45 419.097 1095.62 420.228 1095.04C421.38 1094.45 422.702 1094.15 424.196 1094.15ZM446.934 1111.43V1107.97L446.71 1107.24V1101.19C446.71 1100.02 446.358 1099.11 445.654 1098.47C444.95 1097.81 443.883 1097.48 442.454 1097.48C441.494 1097.48 440.544 1097.63 439.606 1097.92C438.688 1098.22 437.91 1098.64 437.27 1099.17L435.702 1096.26C436.619 1095.56 437.707 1095.03 438.966 1094.69C440.246 1094.33 441.568 1094.15 442.934 1094.15C445.408 1094.15 447.318 1094.75 448.662 1095.94C450.027 1097.11 450.71 1098.94 450.71 1101.41V1111.43H446.934ZM441.558 1111.65C440.278 1111.65 439.158 1111.44 438.198 1111.01C437.238 1110.56 436.491 1109.96 435.958 1109.19C435.446 1108.4 435.19 1107.51 435.19 1106.53C435.19 1105.57 435.414 1104.71 435.862 1103.94C436.331 1103.17 437.088 1102.56 438.134 1102.12C439.179 1101.67 440.566 1101.44 442.294 1101.44H447.254V1104.1H442.582C441.216 1104.1 440.299 1104.32 439.83 1104.77C439.36 1105.2 439.126 1105.73 439.126 1106.37C439.126 1107.1 439.414 1107.67 439.99 1108.1C440.566 1108.53 441.366 1108.74 442.39 1108.74C443.371 1108.74 444.246 1108.52 445.014 1108.07C445.803 1107.62 446.368 1106.96 446.71 1106.08L447.382 1108.48C446.998 1109.49 446.304 1110.27 445.302 1110.82C444.32 1111.38 443.072 1111.65 441.558 1111.65ZM463.619 1117.86C462.04 1117.86 460.493 1117.65 458.979 1117.22C457.485 1116.82 456.259 1116.22 455.299 1115.43L457.091 1112.42C457.837 1113.04 458.776 1113.53 459.907 1113.89C461.059 1114.28 462.221 1114.47 463.395 1114.47C465.272 1114.47 466.648 1114.03 467.523 1113.16C468.397 1112.3 468.835 1111.01 468.835 1109.28V1106.24L469.155 1102.37L469.027 1098.5V1094.34H472.835V1108.84C472.835 1111.93 472.045 1114.2 470.467 1115.65C468.888 1117.12 466.605 1117.86 463.619 1117.86ZM463.107 1110.66C461.485 1110.66 460.013 1110.32 458.691 1109.64C457.389 1108.93 456.355 1107.96 455.587 1106.72C454.84 1105.49 454.467 1104.04 454.467 1102.37C454.467 1100.73 454.84 1099.29 455.587 1098.05C456.355 1096.82 457.389 1095.86 458.691 1095.17C460.013 1094.49 461.485 1094.15 463.107 1094.15C464.557 1094.15 465.859 1094.44 467.011 1095.01C468.163 1095.59 469.08 1096.48 469.763 1097.7C470.467 1098.92 470.819 1100.47 470.819 1102.37C470.819 1104.27 470.467 1105.84 469.763 1107.08C469.08 1108.29 468.163 1109.2 467.011 1109.8C465.859 1110.37 464.557 1110.66 463.107 1110.66ZM463.715 1107.27C464.717 1107.27 465.613 1107.07 466.403 1106.66C467.192 1106.23 467.8 1105.66 468.227 1104.93C468.675 1104.19 468.899 1103.33 468.899 1102.37C468.899 1101.41 468.675 1100.57 468.227 1099.84C467.8 1099.1 467.192 1098.53 466.403 1098.15C465.613 1097.74 464.717 1097.54 463.715 1097.54C462.712 1097.54 461.805 1097.74 460.995 1098.15C460.205 1098.53 459.587 1099.1 459.139 1099.84C458.712 1100.57 458.499 1101.41 458.499 1102.37C458.499 1103.33 458.712 1104.19 459.139 1104.93C459.587 1105.66 460.205 1106.23 460.995 1106.66C461.805 1107.07 462.712 1107.27 463.715 1107.27ZM486.125 1111.65C484.227 1111.65 482.563 1111.28 481.133 1110.53C479.725 1109.76 478.627 1108.72 477.837 1107.4C477.069 1106.07 476.685 1104.57 476.685 1102.88C476.685 1101.18 477.059 1099.67 477.805 1098.37C478.573 1097.05 479.619 1096.02 480.941 1095.27C482.285 1094.52 483.811 1094.15 485.517 1094.15C487.181 1094.15 488.664 1094.51 489.965 1095.24C491.267 1095.96 492.291 1096.99 493.037 1098.31C493.784 1099.63 494.157 1101.19 494.157 1102.98C494.157 1103.15 494.147 1103.34 494.125 1103.56C494.125 1103.77 494.115 1103.97 494.093 1104.16H479.853V1101.51H491.981L490.413 1102.34C490.435 1101.36 490.232 1100.5 489.805 1099.75C489.379 1099 488.792 1098.42 488.045 1097.99C487.32 1097.56 486.477 1097.35 485.517 1097.35C484.536 1097.35 483.672 1097.56 482.925 1097.99C482.2 1098.42 481.624 1099.01 481.197 1099.78C480.792 1100.53 480.589 1101.41 480.589 1102.44V1103.08C480.589 1104.1 480.824 1105.01 481.293 1105.8C481.763 1106.59 482.424 1107.19 483.277 1107.62C484.131 1108.05 485.112 1108.26 486.221 1108.26C487.181 1108.26 488.045 1108.11 488.813 1107.81C489.581 1107.51 490.264 1107.04 490.861 1106.4L493.005 1108.87C492.237 1109.76 491.267 1110.46 490.093 1110.95C488.941 1111.42 487.619 1111.65 486.125 1111.65ZM505.232 1111.65C503.589 1111.65 502.106 1111.29 500.784 1110.56C499.482 1109.82 498.458 1108.79 497.712 1107.49C496.965 1106.19 496.592 1104.66 496.592 1102.88C496.592 1101.11 496.965 1099.58 497.712 1098.28C498.458 1096.98 499.482 1095.96 500.784 1095.24C502.106 1094.51 503.589 1094.15 505.232 1094.15C506.661 1094.15 507.941 1094.47 509.072 1095.11C510.202 1095.73 511.098 1096.68 511.76 1097.96C512.421 1099.24 512.752 1100.88 512.752 1102.88C512.752 1104.87 512.432 1106.51 511.792 1107.81C511.152 1109.09 510.266 1110.05 509.136 1110.69C508.005 1111.33 506.704 1111.65 505.232 1111.65ZM505.712 1108.23C506.672 1108.23 507.525 1108.02 508.272 1107.59C509.04 1107.16 509.648 1106.54 510.096 1105.73C510.565 1104.92 510.8 1103.97 510.8 1102.88C510.8 1101.78 510.565 1100.83 510.096 1100.04C509.648 1099.23 509.04 1098.61 508.272 1098.18C507.525 1097.75 506.672 1097.54 505.712 1097.54C504.752 1097.54 503.888 1097.75 503.12 1098.18C502.373 1098.61 501.765 1099.23 501.296 1100.04C500.848 1100.83 500.624 1101.78 500.624 1102.88C500.624 1103.97 500.848 1104.92 501.296 1105.73C501.765 1106.54 502.373 1107.16 503.12 1107.59C503.888 1108.02 504.752 1108.23 505.712 1108.23ZM510.896 1111.43V1107.4L511.056 1102.85L510.736 1098.31V1087.68H514.704V1111.43H510.896ZM398.415 1150.43V1128.03H401.839L415.887 1145.28H414.191V1128.03H418.319V1150.43H414.895L400.847 1133.18H402.543V1150.43H398.415ZM431.617 1150.65C429.868 1150.65 428.31 1150.28 426.945 1149.53C425.58 1148.76 424.502 1147.72 423.713 1146.4C422.924 1145.07 422.529 1143.57 422.529 1141.88C422.529 1140.18 422.924 1138.67 423.713 1137.37C424.502 1136.05 425.58 1135.02 426.945 1134.27C428.31 1133.52 429.868 1133.15 431.617 1133.15C433.388 1133.15 434.956 1133.52 436.321 1134.27C437.708 1135.02 438.785 1136.04 439.553 1137.34C440.342 1138.64 440.737 1140.16 440.737 1141.88C440.737 1143.57 440.342 1145.07 439.553 1146.4C438.785 1147.72 437.708 1148.76 436.321 1149.53C434.956 1150.28 433.388 1150.65 431.617 1150.65ZM431.617 1147.23C432.598 1147.23 433.473 1147.02 434.241 1146.59C435.009 1146.16 435.606 1145.54 436.033 1144.73C436.481 1143.92 436.705 1142.97 436.705 1141.88C436.705 1140.78 436.481 1139.83 436.033 1139.04C435.606 1138.23 435.009 1137.61 434.241 1137.18C433.473 1136.75 432.609 1136.54 431.649 1136.54C430.668 1136.54 429.793 1136.75 429.025 1137.18C428.278 1137.61 427.681 1138.23 427.233 1139.04C426.785 1139.83 426.561 1140.78 426.561 1141.88C426.561 1142.97 426.785 1143.92 427.233 1144.73C427.681 1145.54 428.278 1146.16 429.025 1146.59C429.793 1147.02 430.657 1147.23 431.617 1147.23ZM451.794 1150.65C450.151 1150.65 448.669 1150.29 447.346 1149.56C446.045 1148.82 445.021 1147.79 444.274 1146.49C443.527 1145.19 443.154 1143.66 443.154 1141.88C443.154 1140.11 443.527 1138.58 444.274 1137.28C445.021 1135.98 446.045 1134.96 447.346 1134.24C448.669 1133.51 450.151 1133.15 451.794 1133.15C453.223 1133.15 454.503 1133.47 455.634 1134.11C456.765 1134.73 457.661 1135.68 458.322 1136.96C458.983 1138.24 459.314 1139.88 459.314 1141.88C459.314 1143.87 458.994 1145.51 458.354 1146.81C457.714 1148.09 456.829 1149.05 455.698 1149.69C454.567 1150.33 453.266 1150.65 451.794 1150.65ZM452.274 1147.23C453.234 1147.23 454.087 1147.02 454.834 1146.59C455.602 1146.16 456.21 1145.54 456.658 1144.73C457.127 1143.92 457.362 1142.97 457.362 1141.88C457.362 1140.78 457.127 1139.83 456.658 1139.04C456.21 1138.23 455.602 1137.61 454.834 1137.18C454.087 1136.75 453.234 1136.54 452.274 1136.54C451.314 1136.54 450.45 1136.75 449.682 1137.18C448.935 1137.61 448.327 1138.23 447.858 1139.04C447.41 1139.83 447.186 1140.78 447.186 1141.88C447.186 1142.97 447.41 1143.92 447.858 1144.73C448.327 1145.54 448.935 1146.16 449.682 1146.59C450.45 1147.02 451.314 1147.23 452.274 1147.23ZM457.458 1150.43V1146.4L457.618 1141.85L457.298 1137.31V1126.68H461.266V1150.43H457.458ZM474.563 1150.65C472.664 1150.65 471 1150.28 469.571 1149.53C468.163 1148.76 467.064 1147.72 466.275 1146.4C465.507 1145.07 465.123 1143.57 465.123 1141.88C465.123 1140.18 465.496 1138.67 466.243 1137.37C467.011 1136.05 468.056 1135.02 469.379 1134.27C470.723 1133.52 472.248 1133.15 473.955 1133.15C475.619 1133.15 477.101 1133.51 478.403 1134.24C479.704 1134.96 480.728 1135.99 481.475 1137.31C482.221 1138.63 482.595 1140.19 482.595 1141.98C482.595 1142.15 482.584 1142.34 482.563 1142.56C482.563 1142.77 482.552 1142.97 482.531 1143.16H468.291V1140.51H480.419L478.851 1141.34C478.872 1140.36 478.669 1139.5 478.243 1138.75C477.816 1138 477.229 1137.42 476.483 1136.99C475.757 1136.56 474.915 1136.35 473.955 1136.35C472.973 1136.35 472.109 1136.56 471.363 1136.99C470.637 1137.42 470.061 1138.01 469.635 1138.78C469.229 1139.53 469.027 1140.41 469.027 1141.44V1142.08C469.027 1143.1 469.261 1144.01 469.731 1144.8C470.2 1145.59 470.861 1146.19 471.715 1146.62C472.568 1147.05 473.549 1147.26 474.659 1147.26C475.619 1147.26 476.483 1147.11 477.251 1146.81C478.019 1146.51 478.701 1146.04 479.299 1145.4L481.443 1147.87C480.675 1148.76 479.704 1149.46 478.531 1149.95C477.379 1150.42 476.056 1150.65 474.563 1150.65Z" fill="#F8F8F8"/>
<rect x="0.888672" y="862" width="310" height="310" rx="5" fill="#F1CBA2"/>
<rect x="0.888672" y="1069" width="186.945" height="103" rx="5" fill="#D19129"/>
<path d="M19.8836 1111.43V1089.03H23.3076L33.0996 1105.38H31.3076L40.9396 1089.03H44.3636L44.3956 1111.43H40.4596L40.4276 1095.2H41.2596L33.0676 1108.87H31.2116L22.8916 1095.2H23.8516V1111.43H19.8836ZM60.5901 1111.43V1107.97L60.3661 1107.24V1101.19C60.3661 1100.02 60.0141 1099.11 59.3101 1098.47C58.6061 1097.81 57.5394 1097.48 56.1101 1097.48C55.1501 1097.48 54.2007 1097.63 53.2621 1097.92C52.3447 1098.22 51.5661 1098.64 50.9261 1099.17L49.3581 1096.26C50.2754 1095.56 51.3634 1095.03 52.6221 1094.69C53.9021 1094.33 55.2247 1094.15 56.5901 1094.15C59.0647 1094.15 60.9741 1094.75 62.3181 1095.94C63.6834 1097.11 64.3661 1098.94 64.3661 1101.41V1111.43H60.5901ZM55.2141 1111.65C53.9341 1111.65 52.8141 1111.44 51.8541 1111.01C50.8941 1110.56 50.1474 1109.96 49.6141 1109.19C49.1021 1108.4 48.8461 1107.51 48.8461 1106.53C48.8461 1105.57 49.0701 1104.71 49.5181 1103.94C49.9874 1103.17 50.7447 1102.56 51.7901 1102.12C52.8354 1101.67 54.2221 1101.44 55.9501 1101.44H60.9101V1104.1H56.2381C54.8727 1104.1 53.9554 1104.32 53.4861 1104.77C53.0167 1105.2 52.7821 1105.73 52.7821 1106.37C52.7821 1107.1 53.0701 1107.67 53.6461 1108.1C54.2221 1108.53 55.0221 1108.74 56.0461 1108.74C57.0274 1108.74 57.9021 1108.52 58.6701 1108.07C59.4594 1107.62 60.0247 1106.96 60.3661 1106.08L61.0381 1108.48C60.6541 1109.49 59.9607 1110.27 58.9581 1110.82C57.9767 1111.38 56.7287 1111.65 55.2141 1111.65ZM79.1956 1094.15C80.5609 1094.15 81.7769 1094.42 82.8436 1094.95C83.9316 1095.48 84.7849 1096.3 85.4036 1097.41C86.0222 1098.5 86.3316 1099.91 86.3316 1101.64V1111.43H82.3316V1102.15C82.3316 1100.63 81.9689 1099.5 81.2436 1098.76C80.5396 1098.01 79.5476 1097.64 78.2676 1097.64C77.3289 1097.64 76.4969 1097.83 75.7716 1098.21C75.0462 1098.6 74.4809 1099.17 74.0756 1099.94C73.6916 1100.69 73.4996 1101.64 73.4996 1102.79V1111.43H69.4996V1094.34H73.3076V1098.95L72.6356 1097.54C73.2329 1096.45 74.0969 1095.62 75.2276 1095.04C76.3796 1094.45 77.7022 1094.15 79.1956 1094.15ZM101.934 1111.43V1107.97L101.71 1107.24V1101.19C101.71 1100.02 101.358 1099.11 100.654 1098.47C99.9498 1097.81 98.8832 1097.48 97.4538 1097.48C96.4938 1097.48 95.5445 1097.63 94.6058 1097.92C93.6885 1098.22 92.9098 1098.64 92.2698 1099.17L90.7018 1096.26C91.6192 1095.56 92.7072 1095.03 93.9658 1094.69C95.2458 1094.33 96.5685 1094.15 97.9338 1094.15C100.408 1094.15 102.318 1094.75 103.662 1095.94C105.027 1097.11 105.71 1098.94 105.71 1101.41V1111.43H101.934ZM96.5578 1111.65C95.2778 1111.65 94.1578 1111.44 93.1978 1111.01C92.2378 1110.56 91.4912 1109.96 90.9578 1109.19C90.4458 1108.4 90.1898 1107.51 90.1898 1106.53C90.1898 1105.57 90.4138 1104.71 90.8618 1103.94C91.3312 1103.17 92.0885 1102.56 93.1338 1102.12C94.1792 1101.67 95.5658 1101.44 97.2938 1101.44H102.254V1104.1H97.5818C96.2165 1104.1 95.2992 1104.32 94.8298 1104.77C94.3605 1105.2 94.1258 1105.73 94.1258 1106.37C94.1258 1107.1 94.4138 1107.67 94.9898 1108.1C95.5658 1108.53 96.3658 1108.74 97.3898 1108.74C98.3712 1108.74 99.2458 1108.52 100.014 1108.07C100.803 1107.62 101.368 1106.96 101.71 1106.08L102.382 1108.48C101.998 1109.49 101.304 1110.27 100.302 1110.82C99.3205 1111.38 98.0725 1111.65 96.5578 1111.65ZM118.619 1117.86C117.04 1117.86 115.493 1117.65 113.979 1117.22C112.485 1116.82 111.259 1116.22 110.299 1115.43L112.091 1112.42C112.837 1113.04 113.776 1113.53 114.907 1113.89C116.059 1114.28 117.221 1114.47 118.395 1114.47C120.272 1114.47 121.648 1114.03 122.523 1113.16C123.397 1112.3 123.835 1111.01 123.835 1109.28V1106.24L124.155 1102.37L124.027 1098.5V1094.34H127.835V1108.84C127.835 1111.93 127.045 1114.2 125.467 1115.65C123.888 1117.12 121.605 1117.86 118.619 1117.86ZM118.107 1110.66C116.485 1110.66 115.013 1110.32 113.691 1109.64C112.389 1108.93 111.355 1107.96 110.587 1106.72C109.84 1105.49 109.467 1104.04 109.467 1102.37C109.467 1100.73 109.84 1099.29 110.587 1098.05C111.355 1096.82 112.389 1095.86 113.691 1095.17C115.013 1094.49 116.485 1094.15 118.107 1094.15C119.557 1094.15 120.859 1094.44 122.011 1095.01C123.163 1095.59 124.08 1096.48 124.763 1097.7C125.467 1098.92 125.819 1100.47 125.819 1102.37C125.819 1104.27 125.467 1105.84 124.763 1107.08C124.08 1108.29 123.163 1109.2 122.011 1109.8C120.859 1110.37 119.557 1110.66 118.107 1110.66ZM118.715 1107.27C119.717 1107.27 120.613 1107.07 121.403 1106.66C122.192 1106.23 122.8 1105.66 123.227 1104.93C123.675 1104.19 123.899 1103.33 123.899 1102.37C123.899 1101.41 123.675 1100.57 123.227 1099.84C122.8 1099.1 122.192 1098.53 121.403 1098.15C120.613 1097.74 119.717 1097.54 118.715 1097.54C117.712 1097.54 116.805 1097.74 115.995 1098.15C115.205 1098.53 114.587 1099.1 114.139 1099.84C113.712 1100.57 113.499 1101.41 113.499 1102.37C113.499 1103.33 113.712 1104.19 114.139 1104.93C114.587 1105.66 115.205 1106.23 115.995 1106.66C116.805 1107.07 117.712 1107.27 118.715 1107.27ZM141.125 1111.65C139.227 1111.65 137.563 1111.28 136.133 1110.53C134.725 1109.76 133.627 1108.72 132.837 1107.4C132.069 1106.07 131.685 1104.57 131.685 1102.88C131.685 1101.18 132.059 1099.67 132.805 1098.37C133.573 1097.05 134.619 1096.02 135.941 1095.27C137.285 1094.52 138.811 1094.15 140.517 1094.15C142.181 1094.15 143.664 1094.51 144.965 1095.24C146.267 1095.96 147.291 1096.99 148.037 1098.31C148.784 1099.63 149.157 1101.19 149.157 1102.98C149.157 1103.15 149.147 1103.34 149.125 1103.56C149.125 1103.77 149.115 1103.97 149.093 1104.16H134.853V1101.51H146.981L145.413 1102.34C145.435 1101.36 145.232 1100.5 144.805 1099.75C144.379 1099 143.792 1098.42 143.045 1097.99C142.32 1097.56 141.477 1097.35 140.517 1097.35C139.536 1097.35 138.672 1097.56 137.925 1097.99C137.2 1098.42 136.624 1099.01 136.197 1099.78C135.792 1100.53 135.589 1101.41 135.589 1102.44V1103.08C135.589 1104.1 135.824 1105.01 136.293 1105.8C136.763 1106.59 137.424 1107.19 138.277 1107.62C139.131 1108.05 140.112 1108.26 141.221 1108.26C142.181 1108.26 143.045 1108.11 143.813 1107.81C144.581 1107.51 145.264 1107.04 145.861 1106.4L148.005 1108.87C147.237 1109.76 146.267 1110.46 145.093 1110.95C143.941 1111.42 142.619 1111.65 141.125 1111.65ZM160.232 1111.65C158.589 1111.65 157.106 1111.29 155.784 1110.56C154.482 1109.82 153.458 1108.79 152.712 1107.49C151.965 1106.19 151.592 1104.66 151.592 1102.88C151.592 1101.11 151.965 1099.58 152.712 1098.28C153.458 1096.98 154.482 1095.96 155.784 1095.24C157.106 1094.51 158.589 1094.15 160.232 1094.15C161.661 1094.15 162.941 1094.47 164.072 1095.11C165.202 1095.73 166.098 1096.68 166.76 1097.96C167.421 1099.24 167.752 1100.88 167.752 1102.88C167.752 1104.87 167.432 1106.51 166.792 1107.81C166.152 1109.09 165.266 1110.05 164.136 1110.69C163.005 1111.33 161.704 1111.65 160.232 1111.65ZM160.712 1108.23C161.672 1108.23 162.525 1108.02 163.272 1107.59C164.04 1107.16 164.648 1106.54 165.096 1105.73C165.565 1104.92 165.8 1103.97 165.8 1102.88C165.8 1101.78 165.565 1100.83 165.096 1100.04C164.648 1099.23 164.04 1098.61 163.272 1098.18C162.525 1097.75 161.672 1097.54 160.712 1097.54C159.752 1097.54 158.888 1097.75 158.12 1098.18C157.373 1098.61 156.765 1099.23 156.296 1100.04C155.848 1100.83 155.624 1101.78 155.624 1102.88C155.624 1103.97 155.848 1104.92 156.296 1105.73C156.765 1106.54 157.373 1107.16 158.12 1107.59C158.888 1108.02 159.752 1108.23 160.712 1108.23ZM165.896 1111.43V1107.4L166.056 1102.85L165.736 1098.31V1087.68H169.704V1111.43H165.896ZM53.4148 1150.43V1128.03H56.8388L70.8868 1145.28H69.1908V1128.03H73.3188V1150.43H69.8948L55.8468 1133.18H57.5428V1150.43H53.4148ZM86.6171 1150.65C84.8677 1150.65 83.3104 1150.28 81.9451 1149.53C80.5797 1148.76 79.5024 1147.72 78.7131 1146.4C77.9237 1145.07 77.5291 1143.57 77.5291 1141.88C77.5291 1140.18 77.9237 1138.67 78.7131 1137.37C79.5024 1136.05 80.5797 1135.02 81.9451 1134.27C83.3104 1133.52 84.8677 1133.15 86.6171 1133.15C88.3877 1133.15 89.9557 1133.52 91.3211 1134.27C92.7077 1135.02 93.7851 1136.04 94.5531 1137.34C95.3424 1138.64 95.7371 1140.16 95.7371 1141.88C95.7371 1143.57 95.3424 1145.07 94.5531 1146.4C93.7851 1147.72 92.7077 1148.76 91.3211 1149.53C89.9557 1150.28 88.3877 1150.65 86.6171 1150.65ZM86.6171 1147.23C87.5984 1147.23 88.4731 1147.02 89.2411 1146.59C90.0091 1146.16 90.6064 1145.54 91.0331 1144.73C91.4811 1143.92 91.7051 1142.97 91.7051 1141.88C91.7051 1140.78 91.4811 1139.83 91.0331 1139.04C90.6064 1138.23 90.0091 1137.61 89.2411 1137.18C88.4731 1136.75 87.6091 1136.54 86.6491 1136.54C85.6677 1136.54 84.7931 1136.75 84.0251 1137.18C83.2784 1137.61 82.6811 1138.23 82.2331 1139.04C81.7851 1139.83 81.5611 1140.78 81.5611 1141.88C81.5611 1142.97 81.7851 1143.92 82.2331 1144.73C82.6811 1145.54 83.2784 1146.16 84.0251 1146.59C84.7931 1147.02 85.6571 1147.23 86.6171 1147.23ZM106.794 1150.65C105.151 1150.65 103.669 1150.29 102.346 1149.56C101.045 1148.82 100.021 1147.79 99.2741 1146.49C98.5274 1145.19 98.1541 1143.66 98.1541 1141.88C98.1541 1140.11 98.5274 1138.58 99.2741 1137.28C100.021 1135.98 101.045 1134.96 102.346 1134.24C103.669 1133.51 105.151 1133.15 106.794 1133.15C108.223 1133.15 109.503 1133.47 110.634 1134.11C111.765 1134.73 112.661 1135.68 113.322 1136.96C113.983 1138.24 114.314 1139.88 114.314 1141.88C114.314 1143.87 113.994 1145.51 113.354 1146.81C112.714 1148.09 111.829 1149.05 110.698 1149.69C109.567 1150.33 108.266 1150.65 106.794 1150.65ZM107.274 1147.23C108.234 1147.23 109.087 1147.02 109.834 1146.59C110.602 1146.16 111.21 1145.54 111.658 1144.73C112.127 1143.92 112.362 1142.97 112.362 1141.88C112.362 1140.78 112.127 1139.83 111.658 1139.04C111.21 1138.23 110.602 1137.61 109.834 1137.18C109.087 1136.75 108.234 1136.54 107.274 1136.54C106.314 1136.54 105.45 1136.75 104.682 1137.18C103.935 1137.61 103.327 1138.23 102.858 1139.04C102.41 1139.83 102.186 1140.78 102.186 1141.88C102.186 1142.97 102.41 1143.92 102.858 1144.73C103.327 1145.54 103.935 1146.16 104.682 1146.59C105.45 1147.02 106.314 1147.23 107.274 1147.23ZM112.458 1150.43V1146.4L112.618 1141.85L112.298 1137.31V1126.68H116.266V1150.43H112.458ZM129.563 1150.65C127.664 1150.65 126 1150.28 124.571 1149.53C123.163 1148.76 122.064 1147.72 121.275 1146.4C120.507 1145.07 120.123 1143.57 120.123 1141.88C120.123 1140.18 120.496 1138.67 121.243 1137.37C122.011 1136.05 123.056 1135.02 124.379 1134.27C125.723 1133.52 127.248 1133.15 128.955 1133.15C130.619 1133.15 132.101 1133.51 133.403 1134.24C134.704 1134.96 135.728 1135.99 136.475 1137.31C137.221 1138.63 137.595 1140.19 137.595 1141.98C137.595 1142.15 137.584 1142.34 137.563 1142.56C137.563 1142.77 137.552 1142.97 137.531 1143.16H123.291V1140.51H135.419L133.851 1141.34C133.872 1140.36 133.669 1139.5 133.243 1138.75C132.816 1138 132.229 1137.42 131.483 1136.99C130.757 1136.56 129.915 1136.35 128.955 1136.35C127.973 1136.35 127.109 1136.56 126.363 1136.99C125.637 1137.42 125.061 1138.01 124.635 1138.78C124.229 1139.53 124.027 1140.41 124.027 1141.44V1142.08C124.027 1143.1 124.261 1144.01 124.731 1144.8C125.2 1145.59 125.861 1146.19 126.715 1146.62C127.568 1147.05 128.549 1147.26 129.659 1147.26C130.619 1147.26 131.483 1147.11 132.251 1146.81C133.019 1146.51 133.701 1146.04 134.299 1145.4L136.443 1147.87C135.675 1148.76 134.704 1149.46 133.531 1149.95C132.379 1150.42 131.056 1150.65 129.563 1150.65Z" fill="#F8F8F8"/>
<rect x="0.888672" width="1000" height="700" rx="5" fill="#F1CBA2"/>
<rect x="0.888672" width="310" height="70" rx="5" fill="#D19129"/>
<path d="M60.209 46.32C58.5023 46.32 56.913 46.0427 55.441 45.488C53.9903 44.912 52.721 44.112 51.633 43.088C50.5663 42.0427 49.7343 40.816 49.137 39.408C48.5396 38 48.241 36.464 48.241 34.8C48.241 33.136 48.5396 31.6 49.137 30.192C49.7343 28.784 50.577 27.568 51.665 26.544C52.753 25.4987 54.0223 24.6987 55.473 24.144C56.9236 23.568 58.513 23.28 60.241 23.28C62.0756 23.28 63.7503 23.6 65.265 24.24C66.7796 24.8587 68.0596 25.7867 69.105 27.024L66.417 29.552C65.6063 28.6773 64.6996 28.0267 63.697 27.6C62.6943 27.152 61.6063 26.928 60.433 26.928C59.2596 26.928 58.1823 27.12 57.201 27.504C56.241 27.888 55.3983 28.432 54.673 29.136C53.969 29.84 53.4143 30.672 53.009 31.632C52.625 32.592 52.433 33.648 52.433 34.8C52.433 35.952 52.625 37.008 53.009 37.968C53.4143 38.928 53.969 39.76 54.673 40.464C55.3983 41.168 56.241 41.712 57.201 42.096C58.1823 42.48 59.2596 42.672 60.433 42.672C61.6063 42.672 62.6943 42.4587 63.697 42.032C64.6996 41.584 65.6063 40.912 66.417 40.016L69.105 42.576C68.0596 43.792 66.7796 44.72 65.265 45.36C63.7503 46 62.065 46.32 60.209 46.32ZM79.7307 46.224C77.9814 46.224 76.4241 45.8507 75.0587 45.104C73.6934 44.336 72.6161 43.2907 71.8267 41.968C71.0374 40.6453 70.6427 39.1413 70.6427 37.456C70.6427 35.7493 71.0374 34.2453 71.8267 32.944C72.6161 31.6213 73.6934 30.5867 75.0587 29.84C76.4241 29.0933 77.9814 28.72 79.7307 28.72C81.5014 28.72 83.0694 29.0933 84.4347 29.84C85.8214 30.5867 86.8987 31.6107 87.6667 32.912C88.4561 34.2133 88.8507 35.728 88.8507 37.456C88.8507 39.1413 88.4561 40.6453 87.6667 41.968C86.8987 43.2907 85.8214 44.336 84.4347 45.104C83.0694 45.8507 81.5014 46.224 79.7307 46.224ZM79.7307 42.8C80.7121 42.8 81.5867 42.5867 82.3547 42.16C83.1227 41.7333 83.7201 41.1147 84.1467 40.304C84.5947 39.4933 84.8187 38.544 84.8187 37.456C84.8187 36.3467 84.5947 35.3973 84.1467 34.608C83.7201 33.7973 83.1227 33.1787 82.3547 32.752C81.5867 32.3253 80.7227 32.112 79.7627 32.112C78.7814 32.112 77.9067 32.3253 77.1387 32.752C76.3921 33.1787 75.7947 33.7973 75.3467 34.608C74.8987 35.3973 74.6747 36.3467 74.6747 37.456C74.6747 38.544 74.8987 39.4933 75.3467 40.304C75.7947 41.1147 76.3921 41.7333 77.1387 42.16C77.9067 42.5867 78.7707 42.8 79.7307 42.8ZM102.372 28.72C103.737 28.72 104.953 28.9867 106.02 29.52C107.108 30.0533 107.961 30.8747 108.58 31.984C109.198 33.072 109.508 34.48 109.508 36.208V46H105.508V36.72C105.508 35.2053 105.145 34.0747 104.42 33.328C103.716 32.5813 102.724 32.208 101.444 32.208C100.505 32.208 99.6731 32.4 98.9477 32.784C98.2224 33.168 97.6571 33.744 97.2517 34.512C96.8677 35.2587 96.6757 36.208 96.6757 37.36V46H92.6757V28.912H96.4837V33.52L95.8117 32.112C96.4091 31.024 97.2731 30.192 98.4037 29.616C99.5557 29.0187 100.878 28.72 102.372 28.72ZM121.014 46.224C119.137 46.224 117.686 45.744 116.662 44.784C115.638 43.8027 115.126 42.3627 115.126 40.464V25.136H119.126V40.368C119.126 41.1787 119.329 41.808 119.734 42.256C120.161 42.704 120.747 42.928 121.494 42.928C122.39 42.928 123.137 42.6933 123.734 42.224L124.854 45.072C124.385 45.456 123.809 45.744 123.126 45.936C122.443 46.128 121.739 46.224 121.014 46.224ZM112.31 32.24V29.04H123.702V32.24H112.31ZM128.144 46V28.912H131.952V33.616L131.504 32.24C132.016 31.088 132.816 30.2133 133.904 29.616C135.014 29.0187 136.39 28.72 138.032 28.72V32.528C137.862 32.4853 137.702 32.464 137.552 32.464C137.403 32.4427 137.254 32.432 137.104 32.432C135.59 32.432 134.384 32.88 133.488 33.776C132.592 34.6507 132.144 35.9627 132.144 37.712V46H128.144ZM148.949 46.224C147.2 46.224 145.643 45.8507 144.277 45.104C142.912 44.336 141.835 43.2907 141.045 41.968C140.256 40.6453 139.861 39.1413 139.861 37.456C139.861 35.7493 140.256 34.2453 141.045 32.944C141.835 31.6213 142.912 30.5867 144.277 29.84C145.643 29.0933 147.2 28.72 148.949 28.72C150.72 28.72 152.288 29.0933 153.653 29.84C155.04 30.5867 156.117 31.6107 156.885 32.912C157.675 34.2133 158.069 35.728 158.069 37.456C158.069 39.1413 157.675 40.6453 156.885 41.968C156.117 43.2907 155.04 44.336 153.653 45.104C152.288 45.8507 150.72 46.224 148.949 46.224ZM148.949 42.8C149.931 42.8 150.805 42.5867 151.573 42.16C152.341 41.7333 152.939 41.1147 153.365 40.304C153.813 39.4933 154.037 38.544 154.037 37.456C154.037 36.3467 153.813 35.3973 153.365 34.608C152.939 33.7973 152.341 33.1787 151.573 32.752C150.805 32.3253 149.941 32.112 148.981 32.112C148 32.112 147.125 32.3253 146.357 32.752C145.611 33.1787 145.013 33.7973 144.565 34.608C144.117 35.3973 143.893 36.3467 143.893 37.456C143.893 38.544 144.117 39.4933 144.565 40.304C145.013 41.1147 145.611 41.7333 146.357 42.16C147.125 42.5867 147.989 42.8 148.949 42.8ZM161.894 46V22.256H165.894V46H161.894ZM180.372 46V23.6H183.796L197.844 40.848H196.148V23.6H200.276V46H196.852L182.804 28.752H184.5V46H180.372ZM213.574 46.224C211.825 46.224 210.268 45.8507 208.902 45.104C207.537 44.336 206.46 43.2907 205.67 41.968C204.881 40.6453 204.486 39.1413 204.486 37.456C204.486 35.7493 204.881 34.2453 205.67 32.944C206.46 31.6213 207.537 30.5867 208.902 29.84C210.268 29.0933 211.825 28.72 213.574 28.72C215.345 28.72 216.913 29.0933 218.278 29.84C219.665 30.5867 220.742 31.6107 221.51 32.912C222.3 34.2133 222.694 35.728 222.694 37.456C222.694 39.1413 222.3 40.6453 221.51 41.968C220.742 43.2907 219.665 44.336 218.278 45.104C216.913 45.8507 215.345 46.224 213.574 46.224ZM213.574 42.8C214.556 42.8 215.43 42.5867 216.198 42.16C216.966 41.7333 217.564 41.1147 217.99 40.304C218.438 39.4933 218.662 38.544 218.662 37.456C218.662 36.3467 218.438 35.3973 217.99 34.608C217.564 33.7973 216.966 33.1787 216.198 32.752C215.43 32.3253 214.566 32.112 213.606 32.112C212.625 32.112 211.75 32.3253 210.982 32.752C210.236 33.1787 209.638 33.7973 209.19 34.608C208.742 35.3973 208.518 36.3467 208.518 37.456C208.518 38.544 208.742 39.4933 209.19 40.304C209.638 41.1147 210.236 41.7333 210.982 42.16C211.75 42.5867 212.614 42.8 213.574 42.8ZM233.751 46.224C232.109 46.224 230.626 45.8613 229.303 45.136C228.002 44.3893 226.978 43.3653 226.231 42.064C225.485 40.7627 225.111 39.2267 225.111 37.456C225.111 35.6853 225.485 34.1493 226.231 32.848C226.978 31.5467 228.002 30.5333 229.303 29.808C230.626 29.0827 232.109 28.72 233.751 28.72C235.181 28.72 236.461 29.04 237.591 29.68C238.722 30.2987 239.618 31.248 240.279 32.528C240.941 33.808 241.271 35.4507 241.271 37.456C241.271 39.44 240.951 41.0827 240.311 42.384C239.671 43.664 238.786 44.624 237.655 45.264C236.525 45.904 235.223 46.224 233.751 46.224ZM234.231 42.8C235.191 42.8 236.045 42.5867 236.791 42.16C237.559 41.7333 238.167 41.1147 238.615 40.304C239.085 39.4933 239.319 38.544 239.319 37.456C239.319 36.3467 239.085 35.3973 238.615 34.608C238.167 33.7973 237.559 33.1787 236.791 32.752C236.045 32.3253 235.191 32.112 234.231 32.112C233.271 32.112 232.407 32.3253 231.639 32.752C230.893 33.1787 230.285 33.7973 229.815 34.608C229.367 35.3973 229.143 36.3467 229.143 37.456C229.143 38.544 229.367 39.4933 229.815 40.304C230.285 41.1147 230.893 41.7333 231.639 42.16C232.407 42.5867 233.271 42.8 234.231 42.8ZM239.415 46V41.968L239.575 37.424L239.255 32.88V22.256H243.223V46H239.415ZM256.52 46.224C254.622 46.224 252.958 45.8507 251.528 45.104C250.12 44.336 249.022 43.2907 248.232 41.968C247.464 40.6453 247.08 39.1413 247.08 37.456C247.08 35.7493 247.454 34.2453 248.2 32.944C248.968 31.6213 250.014 30.5867 251.336 29.84C252.68 29.0933 254.206 28.72 255.912 28.72C257.576 28.72 259.059 29.0827 260.36 29.808C261.662 30.5333 262.686 31.5573 263.432 32.88C264.179 34.2027 264.552 35.76 264.552 37.552C264.552 37.7227 264.542 37.9147 264.52 38.128C264.52 38.3413 264.51 38.544 264.488 38.736H250.248V36.08H262.376L260.808 36.912C260.83 35.9307 260.627 35.0667 260.2 34.32C259.774 33.5733 259.187 32.9867 258.44 32.56C257.715 32.1333 256.872 31.92 255.912 31.92C254.931 31.92 254.067 32.1333 253.32 32.56C252.595 32.9867 252.019 33.584 251.592 34.352C251.187 35.0987 250.984 35.984 250.984 37.008V37.648C250.984 38.672 251.219 39.5787 251.688 40.368C252.158 41.1573 252.819 41.7653 253.672 42.192C254.526 42.6187 255.507 42.832 256.616 42.832C257.576 42.832 258.44 42.6827 259.208 42.384C259.976 42.0853 260.659 41.616 261.256 40.976L263.4 43.44C262.632 44.336 261.662 45.0293 260.488 45.52C259.336 45.9893 258.014 46.224 256.52 46.224Z" fill="#F8F8F8"/>
<path d="M316.518 314.971C316.517 334.67 308.691 353.561 294.761 367.49C280.832 381.419 261.94 389.244 242.241 389.244C201.223 389.244 167.973 355.993 167.973 314.975C167.973 273.957 201.227 240.707 242.241 240.707C283.255 240.707 316.51 273.961 316.51 314.983" fill="black"/>
<path d="M243.495 286.073L262.716 333.511L233.686 310.647L243.495 286.073ZM277.638 344.437L248.072 273.289C247.23 271.239 245.582 270.152 243.491 270.152C241.4 270.152 239.632 271.239 238.785 273.289L206.336 351.329H217.436L230.279 319.154L268.612 350.122C270.156 351.366 271.268 351.931 272.712 351.931C275.608 351.931 278.14 349.761 278.14 346.628C278.14 346.117 277.961 345.308 277.638 344.437Z" fill="#F8F8F8"/>
<path d="M181.744 458.805C180.976 458.805 180.15 458.61 179.574 457.834L154.954 425.459V458.481H149.34V417.816C149.34 416.156 150.68 414.903 152.212 414.903C153.104 414.903 153.871 415.164 154.444 415.94L178.997 448.248V415.355H184.611V455.954C184.615 456.331 184.543 456.706 184.4 457.055C184.257 457.404 184.045 457.72 183.778 457.986C183.51 458.252 183.192 458.461 182.842 458.602C182.492 458.743 182.121 458.812 181.744 458.805ZM214.222 459.195C208.612 459.195 202.741 458.033 197.259 455.958L198.599 451.298C203.637 452.958 209.123 454.079 214.222 454.079C221.301 454.079 225.003 451.556 225.003 447.995C225.003 444.759 222.131 443.14 212.247 438.476C202.363 433.812 198.471 430.841 198.471 425.011C198.471 417.695 204.081 414.72 214.67 414.72C219.069 414.72 225.874 415.633 229.725 416.795L228.833 421.583C224.234 420.485 219.527 419.901 214.799 419.841C207.338 419.841 204.276 421.264 204.276 424.828C204.276 428.322 206.508 429.808 216.965 434.671C228.003 439.788 230.804 442.377 230.804 447.688C230.804 455.394 223.53 459.216 214.222 459.216M243.452 415.284H249.253V458.407H243.452V415.284ZM288.018 438.377H273.602V453.012H288.018C292.927 453.012 295.927 449.9 295.927 445.564C295.927 441.485 292.802 438.377 288.018 438.377ZM285.209 419.729H273.602V433.522H285.209C289.864 433.522 293.246 430.542 293.246 426.397C293.246 422.318 290.312 419.729 285.209 419.729ZM288.08 457.929H270.735C269.075 457.929 267.801 456.635 267.801 455.016V417.72C267.81 416.947 268.122 416.208 268.671 415.663C269.22 415.118 269.961 414.811 270.735 414.807H285.084C293.881 414.807 299.109 419.144 299.109 425.945C299.109 429.679 296.939 433.065 293.624 435.074C298.537 436.567 301.852 440.642 301.852 445.564C301.852 452.427 296.184 457.929 288.08 457.929ZM318.782 457.452C317.189 457.452 315.878 456.091 315.878 454.539V414.289H321.687V452.166H344.854V457.411L318.782 457.452ZM371.884 457.689C360.016 457.689 352.879 453.29 352.879 444.41C352.879 440.202 355.245 436.186 359.834 434.31C356.099 431.978 354.22 428.675 354.22 425.048C354.22 417.019 360.411 413.197 372.063 413.197C376.757 413.217 381.437 413.716 386.03 414.687L385.391 419.48C380.544 418.704 376.013 418.251 371.614 418.251C364.087 418.251 360.07 420.326 360.07 425.306C360.07 429.256 363.772 432.36 368.685 432.36H378.635C378.961 432.355 379.285 432.415 379.587 432.537C379.889 432.658 380.164 432.839 380.395 433.068C380.627 433.297 380.81 433.57 380.935 433.871C381.059 434.172 381.123 434.495 381.121 434.821C381.121 436.244 380.042 437.343 378.631 437.343H367.917C362.303 437.343 358.734 440.124 358.734 444.398C358.734 450.676 364.535 452.556 371.805 452.556C375.76 452.556 381.117 452.041 385.499 451.004L386.329 455.726C381.648 456.988 376.824 457.642 371.975 457.672M117.596 423.82L127.762 449.29L112.409 437.007L117.596 423.82ZM135.655 455.157L120.019 416.957C119.571 415.857 118.679 415.272 117.596 415.272C117.058 415.263 116.53 415.419 116.085 415.721C115.639 416.022 115.298 416.454 115.106 416.957L98.002 460L103.811 458.855L110.604 441.58L130.875 458.207C131.692 458.871 132.277 459.178 133.045 459.178C133.422 459.184 133.796 459.115 134.145 458.974C134.495 458.833 134.813 458.624 135.08 458.358C135.347 458.092 135.559 457.776 135.702 457.427C135.844 457.078 135.916 456.704 135.912 456.328C135.886 455.925 135.796 455.528 135.647 455.153L135.655 455.157Z" fill="black"/>
<rect x="691.889" y="316" width="210" height="67" rx="5" fill="#FB6233"/>
<path d="M721.247 360.85V357.394L721.023 356.658V350.61C721.023 349.436 720.671 348.53 719.967 347.89C719.263 347.228 718.196 346.898 716.767 346.898C715.807 346.898 714.858 347.047 713.919 347.346C713.002 347.644 712.223 348.06 711.583 348.594L710.015 345.682C710.932 344.978 712.02 344.455 713.279 344.114C714.559 343.751 715.882 343.57 717.247 343.57C719.722 343.57 721.631 344.167 722.975 345.362C724.34 346.535 725.023 348.359 725.023 350.834V360.85H721.247ZM715.871 361.074C714.591 361.074 713.471 360.86 712.511 360.434C711.551 359.986 710.804 359.378 710.271 358.61C709.759 357.82 709.503 356.935 709.503 355.954C709.503 354.994 709.727 354.13 710.175 353.362C710.644 352.594 711.402 351.986 712.447 351.538C713.492 351.09 714.879 350.866 716.607 350.866H721.567V353.522H716.895C715.53 353.522 714.612 353.746 714.143 354.194C713.674 354.62 713.439 355.154 713.439 355.794C713.439 356.519 713.727 357.095 714.303 357.522C714.879 357.948 715.679 358.162 716.703 358.162C717.684 358.162 718.559 357.938 719.327 357.49C720.116 357.042 720.682 356.38 721.023 355.506L721.695 357.906C721.311 358.908 720.618 359.687 719.615 360.242C718.634 360.796 717.386 361.074 715.871 361.074ZM739.852 343.57C741.218 343.57 742.434 343.836 743.5 344.37C744.588 344.903 745.442 345.724 746.06 346.834C746.679 347.922 746.988 349.33 746.988 351.058V360.85H742.988V351.57C742.988 350.055 742.626 348.924 741.9 348.178C741.196 347.431 740.204 347.058 738.924 347.058C737.986 347.058 737.154 347.25 736.428 347.634C735.703 348.018 735.138 348.594 734.732 349.362C734.348 350.108 734.156 351.058 734.156 352.21V360.85H730.156V343.762H733.964V348.37L733.292 346.962C733.89 345.874 734.754 345.042 735.884 344.466C737.036 343.868 738.359 343.57 739.852 343.57ZM757.343 361.074C755.913 361.074 754.537 360.892 753.215 360.53C751.913 360.146 750.879 359.687 750.111 359.154L751.647 356.114C752.415 356.604 753.332 357.01 754.399 357.33C755.465 357.65 756.532 357.81 757.599 357.81C758.857 357.81 759.764 357.639 760.319 357.298C760.895 356.956 761.183 356.498 761.183 355.922C761.183 355.452 760.991 355.1 760.607 354.866C760.223 354.61 759.721 354.418 759.103 354.29C758.484 354.162 757.791 354.044 757.023 353.938C756.276 353.831 755.519 353.692 754.751 353.522C754.004 353.33 753.321 353.063 752.703 352.722C752.084 352.359 751.583 351.879 751.199 351.282C750.815 350.684 750.623 349.895 750.623 348.914C750.623 347.826 750.932 346.887 751.551 346.098C752.169 345.287 753.033 344.668 754.143 344.242C755.273 343.794 756.607 343.57 758.143 343.57C759.295 343.57 760.457 343.698 761.631 343.954C762.804 344.21 763.775 344.572 764.543 345.042L763.007 348.082C762.196 347.591 761.375 347.26 760.543 347.09C759.732 346.898 758.921 346.802 758.111 346.802C756.895 346.802 755.988 346.983 755.391 347.346C754.815 347.708 754.527 348.167 754.527 348.722C754.527 349.234 754.719 349.618 755.103 349.874C755.487 350.13 755.988 350.332 756.607 350.482C757.225 350.631 757.908 350.759 758.655 350.866C759.423 350.951 760.18 351.09 760.927 351.282C761.673 351.474 762.356 351.74 762.975 352.082C763.615 352.402 764.127 352.86 764.511 353.458C764.895 354.055 765.087 354.834 765.087 355.794C765.087 356.86 764.767 357.788 764.127 358.578C763.508 359.367 762.623 359.986 761.471 360.434C760.319 360.86 758.943 361.074 757.343 361.074ZM768.531 360.85V343.762H772.531V360.85H768.531ZM770.547 340.946C769.801 340.946 769.182 340.711 768.691 340.242C768.222 339.772 767.987 339.207 767.987 338.546C767.987 337.863 768.222 337.298 768.691 336.85C769.182 336.38 769.801 336.146 770.547 336.146C771.294 336.146 771.902 336.37 772.371 336.818C772.862 337.244 773.107 337.788 773.107 338.45C773.107 339.154 772.873 339.751 772.403 340.242C771.934 340.711 771.315 340.946 770.547 340.946ZM787.253 361.074C785.803 361.074 784.512 360.754 783.381 360.114C782.251 359.474 781.355 358.514 780.693 357.234C780.053 355.932 779.733 354.29 779.733 352.306C779.733 350.3 780.064 348.658 780.725 347.378C781.408 346.098 782.315 345.148 783.445 344.53C784.597 343.89 785.867 343.57 787.253 343.57C788.939 343.57 790.421 343.932 791.701 344.658C793.003 345.383 794.027 346.396 794.773 347.698C795.541 348.999 795.925 350.535 795.925 352.306C795.925 354.076 795.541 355.612 794.773 356.914C794.027 358.215 793.003 359.239 791.701 359.986C790.421 360.711 788.939 361.074 787.253 361.074ZM777.781 360.85V337.106H781.781V347.73L781.461 352.274L781.589 356.818V360.85H777.781ZM786.805 357.65C787.765 357.65 788.619 357.436 789.365 357.01C790.133 356.583 790.741 355.964 791.189 355.154C791.637 354.343 791.861 353.394 791.861 352.306C791.861 351.196 791.637 350.247 791.189 349.458C790.741 348.647 790.133 348.028 789.365 347.602C788.619 347.175 787.765 346.962 786.805 346.962C785.845 346.962 784.981 347.175 784.213 347.602C783.445 348.028 782.837 348.647 782.389 349.458C781.941 350.247 781.717 351.196 781.717 352.306C781.717 353.394 781.941 354.343 782.389 355.154C782.837 355.964 783.445 356.583 784.213 357.01C784.981 357.436 785.845 357.65 786.805 357.65ZM799.719 360.85V337.106H803.719V360.85H799.719ZM817.001 361.074C815.102 361.074 813.438 360.7 812.009 359.954C810.601 359.186 809.502 358.14 808.713 356.818C807.945 355.495 807.561 353.991 807.561 352.306C807.561 350.599 807.934 349.095 808.681 347.794C809.449 346.471 810.494 345.436 811.817 344.69C813.161 343.943 814.686 343.57 816.393 343.57C818.057 343.57 819.54 343.932 820.841 344.658C822.142 345.383 823.166 346.407 823.913 347.73C824.66 349.052 825.033 350.61 825.033 352.402C825.033 352.572 825.022 352.764 825.001 352.978C825.001 353.191 824.99 353.394 824.969 353.586H810.729V350.93H822.857L821.289 351.762C821.31 350.78 821.108 349.916 820.681 349.17C820.254 348.423 819.668 347.836 818.921 347.41C818.196 346.983 817.353 346.77 816.393 346.77C815.412 346.77 814.548 346.983 813.801 347.41C813.076 347.836 812.5 348.434 812.073 349.202C811.668 349.948 811.465 350.834 811.465 351.858V352.498C811.465 353.522 811.7 354.428 812.169 355.218C812.638 356.007 813.3 356.615 814.153 357.042C815.006 357.468 815.988 357.682 817.097 357.682C818.057 357.682 818.921 357.532 819.689 357.234C820.457 356.935 821.14 356.466 821.737 355.826L823.881 358.29C823.113 359.186 822.142 359.879 820.969 360.37C819.817 360.839 818.494 361.074 817.001 361.074ZM830.155 361.074C829.43 361.074 828.811 360.828 828.299 360.338C827.787 359.826 827.531 359.186 827.531 358.418C827.531 357.607 827.787 356.967 828.299 356.498C828.811 356.007 829.43 355.762 830.155 355.762C830.881 355.762 831.499 356.007 832.011 356.498C832.523 356.967 832.779 357.607 832.779 358.418C832.779 359.186 832.523 359.826 832.011 360.338C831.499 360.828 830.881 361.074 830.155 361.074ZM844.246 361.074C842.454 361.074 840.854 360.7 839.446 359.954C838.06 359.186 836.972 358.14 836.182 356.818C835.393 355.495 834.998 353.991 834.998 352.306C834.998 350.599 835.393 349.095 836.182 347.794C836.972 346.471 838.06 345.436 839.446 344.69C840.854 343.943 842.454 343.57 844.246 343.57C845.91 343.57 847.372 343.911 848.63 344.594C849.91 345.255 850.881 346.236 851.542 347.538L848.47 349.33C847.958 348.519 847.329 347.922 846.582 347.538C845.857 347.154 845.068 346.962 844.214 346.962C843.233 346.962 842.348 347.175 841.558 347.602C840.769 348.028 840.15 348.647 839.702 349.458C839.254 350.247 839.03 351.196 839.03 352.306C839.03 353.415 839.254 354.375 839.702 355.186C840.15 355.975 840.769 356.583 841.558 357.01C842.348 357.436 843.233 357.65 844.214 357.65C845.068 357.65 845.857 357.458 846.582 357.074C847.329 356.69 847.958 356.092 848.47 355.282L851.542 357.074C850.881 358.354 849.91 359.346 848.63 360.05C847.372 360.732 845.91 361.074 844.246 361.074ZM855.544 360.85V342.802C855.544 341.01 856.067 339.58 857.112 338.514C858.179 337.426 859.694 336.882 861.656 336.882C862.36 336.882 863.022 336.956 863.64 337.106C864.28 337.255 864.814 337.49 865.24 337.81L864.152 340.818C863.854 340.583 863.512 340.412 863.128 340.306C862.744 340.178 862.35 340.114 861.944 340.114C861.112 340.114 860.483 340.348 860.056 340.818C859.63 341.266 859.416 341.948 859.416 342.866V344.786L859.544 346.578V360.85H855.544ZM852.728 347.09V343.89H864.12V347.09H852.728ZM874.307 367.282C872.728 367.282 871.181 367.068 869.667 366.642C868.173 366.236 866.947 365.639 865.987 364.85L867.779 361.842C868.525 362.46 869.464 362.951 870.595 363.314C871.747 363.698 872.909 363.89 874.083 363.89C875.96 363.89 877.336 363.452 878.211 362.578C879.085 361.724 879.523 360.434 879.523 358.706V355.666L879.843 351.794L879.715 347.922V343.762H883.523V358.258C883.523 361.351 882.733 363.623 881.155 365.074C879.576 366.546 877.293 367.282 874.307 367.282ZM873.795 360.082C872.173 360.082 870.701 359.74 869.379 359.058C868.077 358.354 867.043 357.383 866.275 356.146C865.528 354.908 865.155 353.458 865.155 351.794C865.155 350.151 865.528 348.711 866.275 347.474C867.043 346.236 868.077 345.276 869.379 344.594C870.701 343.911 872.173 343.57 873.795 343.57C875.245 343.57 876.547 343.858 877.699 344.434C878.851 345.01 879.768 345.906 880.451 347.122C881.155 348.338 881.507 349.895 881.507 351.794C881.507 353.692 881.155 355.26 880.451 356.498C879.768 357.714 878.851 358.62 877.699 359.218C876.547 359.794 875.245 360.082 873.795 360.082ZM874.403 356.69C875.405 356.69 876.301 356.487 877.091 356.082C877.88 355.655 878.488 355.079 878.915 354.354C879.363 353.607 879.587 352.754 879.587 351.794C879.587 350.834 879.363 349.991 878.915 349.266C878.488 348.519 877.88 347.954 877.091 347.57C876.301 347.164 875.405 346.962 874.403 346.962C873.4 346.962 872.493 347.164 871.683 347.57C870.893 347.954 870.275 348.519 869.827 349.266C869.4 349.991 869.187 350.834 869.187 351.794C869.187 352.754 869.4 353.607 869.827 354.354C870.275 355.079 870.893 355.655 871.683 356.082C872.493 356.487 873.4 356.69 874.403 356.69Z" fill="#F8F8F8"/>
<path d="M652.889 415C652.889 417.761 650.65 420 647.889 420H517.889C515.127 420 512.889 417.761 512.889 415V285.007C512.889 282.246 515.127 280.008 517.888 280.007L627.881 280L652.889 304.998V415Z" fill="#0067A8"/>
<path d="M627.889 300V280L652.889 305H632.889C630.127 305 627.889 302.761 627.889 300Z" fill="#F8F8F8"/>
<path d="M552.889 327H612.889" stroke="#F8F8F8" stroke-width="7" stroke-linecap="round"/>
<path d="M552.889 350H612.889" stroke="#F8F8F8" stroke-width="7" stroke-linecap="round"/>
<path d="M552.889 373H612.889" stroke="#F8F8F8" stroke-width="7" stroke-linecap="round"/>
<rect x="691.889" y="496" width="210" height="67" rx="5" fill="#FB6233"/>
<path d="M728.056 541.151C726.669 541.151 725.4 540.831 724.248 540.191C723.117 539.551 722.211 538.591 721.528 537.311C720.867 536.009 720.536 534.367 720.536 532.383C720.536 530.377 720.856 528.735 721.496 527.455C722.157 526.175 723.053 525.225 724.184 524.607C725.315 523.967 726.605 523.647 728.056 523.647C729.741 523.647 731.224 524.009 732.504 524.735C733.805 525.46 734.829 526.473 735.576 527.775C736.344 529.076 736.728 530.612 736.728 532.383C736.728 534.153 736.344 535.7 735.576 537.023C734.829 538.324 733.805 539.337 732.504 540.063C731.224 540.788 729.741 541.151 728.056 541.151ZM718.584 547.135V523.839H722.392V527.871L722.264 532.415L722.584 536.959V547.135H718.584ZM727.608 537.727C728.568 537.727 729.421 537.513 730.168 537.087C730.936 536.66 731.544 536.041 731.992 535.231C732.44 534.42 732.664 533.471 732.664 532.383C732.664 531.273 732.44 530.324 731.992 529.535C731.544 528.724 730.936 528.105 730.168 527.679C729.421 527.252 728.568 527.039 727.608 527.039C726.648 527.039 725.784 527.252 725.016 527.679C724.248 528.105 723.64 528.724 723.192 529.535C722.744 530.324 722.52 531.273 722.52 532.383C722.52 533.471 722.744 534.42 723.192 535.231C723.64 536.041 724.248 536.66 725.016 537.087C725.784 537.513 726.648 537.727 727.608 537.727ZM740.522 540.927V517.183H744.522V540.927H740.522ZM760.3 540.927V537.471L760.076 536.735V530.687C760.076 529.513 759.724 528.607 759.02 527.967C758.316 527.305 757.249 526.975 755.82 526.975C754.86 526.975 753.91 527.124 752.972 527.423C752.054 527.721 751.276 528.137 750.636 528.671L749.068 525.759C749.985 525.055 751.073 524.532 752.332 524.191C753.612 523.828 754.934 523.647 756.3 523.647C758.774 523.647 760.684 524.244 762.028 525.439C763.393 526.612 764.076 528.436 764.076 530.911V540.927H760.3ZM754.924 541.151C753.644 541.151 752.524 540.937 751.564 540.511C750.604 540.063 749.857 539.455 749.324 538.687C748.812 537.897 748.556 537.012 748.556 536.031C748.556 535.071 748.78 534.207 749.228 533.439C749.697 532.671 750.454 532.063 751.5 531.615C752.545 531.167 753.932 530.943 755.66 530.943H760.62V533.599H755.948C754.582 533.599 753.665 533.823 753.196 534.271C752.726 534.697 752.492 535.231 752.492 535.871C752.492 536.596 752.78 537.172 753.356 537.599C753.932 538.025 754.732 538.239 755.756 538.239C756.737 538.239 757.612 538.015 758.38 537.567C759.169 537.119 759.734 536.457 760.076 535.583L760.748 537.983C760.364 538.985 759.67 539.764 758.668 540.319C757.686 540.873 756.438 541.151 754.924 541.151ZM770.305 547.359C769.473 547.359 768.641 547.22 767.809 546.943C766.977 546.665 766.283 546.281 765.729 545.791L767.329 542.847C767.734 543.209 768.193 543.497 768.705 543.711C769.217 543.924 769.739 544.031 770.273 544.031C770.998 544.031 771.585 543.849 772.033 543.487C772.481 543.124 772.897 542.516 773.281 541.663L774.273 539.423L774.593 538.943L781.057 523.839H784.897L776.897 542.303C776.363 543.583 775.766 544.596 775.105 545.343C774.465 546.089 773.739 546.612 772.929 546.911C772.139 547.209 771.265 547.359 770.305 547.359ZM773.825 541.535L766.113 523.839H770.273L776.545 538.591L773.825 541.535ZM796.869 541.151C795.418 541.151 794.127 540.831 792.997 540.191C791.866 539.551 790.97 538.591 790.309 537.311C789.669 536.009 789.349 534.367 789.349 532.383C789.349 530.377 789.679 528.735 790.341 527.455C791.023 526.175 791.93 525.225 793.061 524.607C794.213 523.967 795.482 523.647 796.869 523.647C798.554 523.647 800.037 524.009 801.317 524.735C802.618 525.46 803.642 526.473 804.389 527.775C805.157 529.076 805.541 530.612 805.541 532.383C805.541 534.153 805.157 535.689 804.389 536.991C803.642 538.292 802.618 539.316 801.317 540.063C800.037 540.788 798.554 541.151 796.869 541.151ZM787.397 540.927V517.183H791.397V527.807L791.077 532.351L791.205 536.895V540.927H787.397ZM796.421 537.727C797.381 537.727 798.234 537.513 798.981 537.087C799.749 536.66 800.357 536.041 800.805 535.231C801.253 534.42 801.477 533.471 801.477 532.383C801.477 531.273 801.253 530.324 800.805 529.535C800.357 528.724 799.749 528.105 798.981 527.679C798.234 527.252 797.381 527.039 796.421 527.039C795.461 527.039 794.597 527.252 793.829 527.679C793.061 528.105 792.453 528.724 792.005 529.535C791.557 530.324 791.333 531.273 791.333 532.383C791.333 533.471 791.557 534.42 792.005 535.231C792.453 536.041 793.061 536.66 793.829 537.087C794.597 537.513 795.461 537.727 796.421 537.727ZM817.014 541.151C815.265 541.151 813.707 540.777 812.342 540.031C810.977 539.263 809.899 538.217 809.11 536.895C808.321 535.572 807.926 534.068 807.926 532.383C807.926 530.676 808.321 529.172 809.11 527.871C809.899 526.548 810.977 525.513 812.342 524.767C813.707 524.02 815.265 523.647 817.014 523.647C818.785 523.647 820.353 524.02 821.718 524.767C823.105 525.513 824.182 526.537 824.95 527.839C825.739 529.14 826.134 530.655 826.134 532.383C826.134 534.068 825.739 535.572 824.95 536.895C824.182 538.217 823.105 539.263 821.718 540.031C820.353 540.777 818.785 541.151 817.014 541.151ZM817.014 537.727C817.995 537.727 818.87 537.513 819.638 537.087C820.406 536.66 821.003 536.041 821.43 535.231C821.878 534.42 822.102 533.471 822.102 532.383C822.102 531.273 821.878 530.324 821.43 529.535C821.003 528.724 820.406 528.105 819.638 527.679C818.87 527.252 818.006 527.039 817.046 527.039C816.065 527.039 815.19 527.252 814.422 527.679C813.675 528.105 813.078 528.724 812.63 529.535C812.182 530.324 811.958 531.273 811.958 532.383C811.958 533.471 812.182 534.42 812.63 535.231C813.078 536.041 813.675 536.66 814.422 537.087C815.19 537.513 816.054 537.727 817.014 537.727ZM837.639 541.151C835.89 541.151 834.332 540.777 832.967 540.031C831.602 539.263 830.524 538.217 829.735 536.895C828.946 535.572 828.551 534.068 828.551 532.383C828.551 530.676 828.946 529.172 829.735 527.871C830.524 526.548 831.602 525.513 832.967 524.767C834.332 524.02 835.89 523.647 837.639 523.647C839.41 523.647 840.978 524.02 842.343 524.767C843.73 525.513 844.807 526.537 845.575 527.839C846.364 529.14 846.759 530.655 846.759 532.383C846.759 534.068 846.364 535.572 845.575 536.895C844.807 538.217 843.73 539.263 842.343 540.031C840.978 540.777 839.41 541.151 837.639 541.151ZM837.639 537.727C838.62 537.727 839.495 537.513 840.263 537.087C841.031 536.66 841.628 536.041 842.055 535.231C842.503 534.42 842.727 533.471 842.727 532.383C842.727 531.273 842.503 530.324 842.055 529.535C841.628 528.724 841.031 528.105 840.263 527.679C839.495 527.252 838.631 527.039 837.671 527.039C836.69 527.039 835.815 527.252 835.047 527.679C834.3 528.105 833.703 528.724 833.255 529.535C832.807 530.324 832.583 531.273 832.583 532.383C832.583 533.471 832.807 534.42 833.255 535.231C833.703 536.041 834.3 536.66 835.047 537.087C835.815 537.513 836.679 537.727 837.639 537.727ZM853.848 537.119L853.944 532.095L862.872 523.839H867.672L860.088 531.455L857.976 533.215L853.848 537.119ZM850.584 540.927V517.183H854.584V540.927H850.584ZM863.48 540.927L857.24 533.215L859.768 530.015L868.344 540.927H863.48Z" fill="#F8F8F8"/>
<path d="M652.889 595C652.889 597.761 650.65 600 647.889 600H517.889C515.127 600 512.889 597.761 512.889 595V465.007C512.889 462.246 515.127 460.008 517.888 460.007L627.881 460L652.889 484.998V595Z" fill="#0067A8"/>
<path d="M627.889 480V460L652.889 485H632.889C630.127 485 627.889 482.761 627.889 480Z" fill="#F8F8F8"/>
<path d="M567.701 574.52C564.128 574.52 561.408 573.613 559.541 571.8C557.728 570.04 556.821 567.4 556.821 563.88V543.56C556.821 542.12 556.501 541.08 555.861 540.44C555.275 539.8 554.395 539.48 553.221 539.48H550.501V534.68H553.221C554.395 534.68 555.275 534.36 555.861 533.72C556.501 533.08 556.821 532.04 556.821 530.6V510.28C556.821 506.707 557.728 504.04 559.541 502.28C561.408 500.52 564.128 499.64 567.701 499.64H570.741V504.36H568.581C566.555 504.36 565.035 504.92 564.021 506.04C563.008 507.16 562.501 508.733 562.501 510.76V530.52C562.501 532.12 562.315 533.373 561.941 534.28C561.568 535.187 560.981 535.88 560.181 536.36C559.435 536.84 558.448 537.213 557.221 537.48V536.68C558.448 536.893 559.435 537.267 560.181 537.8C560.981 538.28 561.568 538.973 561.941 539.88C562.315 540.787 562.501 542.04 562.501 543.64V563.4C562.501 565.427 563.008 567 564.021 568.12C565.035 569.24 566.555 569.8 568.581 569.8H570.741V574.52H567.701ZM597.997 574.52H595.037V569.8H597.197C599.277 569.8 600.797 569.24 601.757 568.12C602.771 567 603.277 565.427 603.277 563.4V543.64C603.277 542.04 603.464 540.787 603.837 539.88C604.211 538.973 604.797 538.28 605.597 537.8C606.397 537.267 607.384 536.893 608.557 536.68V537.48C607.384 537.213 606.397 536.84 605.597 536.36C604.797 535.88 604.211 535.187 603.837 534.28C603.464 533.373 603.277 532.12 603.277 530.52V510.76C603.277 508.733 602.771 507.16 601.757 506.04C600.797 504.92 599.277 504.36 597.197 504.36H595.037V499.64H597.997C601.624 499.64 604.344 500.52 606.157 502.28C608.024 504.04 608.957 506.707 608.957 510.28V530.6C608.957 532.04 609.277 533.08 609.917 533.72C610.557 534.36 611.437 534.68 612.557 534.68H615.277V539.48H612.557C611.437 539.48 610.557 539.8 609.917 540.44C609.277 541.08 608.957 542.12 608.957 543.56V563.88C608.957 567.4 608.024 570.04 606.157 571.8C604.344 573.613 601.624 574.52 597.997 574.52Z" fill="#F8F8F8"/>
<rect x="691.967" y="136" width="210" height="67" rx="5" fill="#FB6233"/>
<path d="M721.489 180.85V163.762H725.489V180.85H721.489ZM723.505 160.946C722.758 160.946 722.139 160.711 721.649 160.242C721.179 159.772 720.945 159.207 720.945 158.546C720.945 157.863 721.179 157.298 721.649 156.85C722.139 156.38 722.758 156.146 723.505 156.146C724.251 156.146 724.859 156.37 725.329 156.818C725.819 157.244 726.065 157.788 726.065 158.45C726.065 159.154 725.83 159.751 725.361 160.242C724.891 160.711 724.273 160.946 723.505 160.946ZM740.435 163.57C741.8 163.57 743.016 163.836 744.083 164.37C745.171 164.903 746.024 165.724 746.643 166.834C747.261 167.922 747.571 169.33 747.571 171.058V180.85H743.571V171.57C743.571 170.055 743.208 168.924 742.483 168.178C741.779 167.431 740.787 167.058 739.507 167.058C738.568 167.058 737.736 167.25 737.011 167.634C736.285 168.018 735.72 168.594 735.315 169.362C734.931 170.108 734.739 171.058 734.739 172.21V180.85H730.739V163.762H734.547V168.37L733.875 166.962C734.472 165.874 735.336 165.042 736.467 164.466C737.619 163.868 738.941 163.57 740.435 163.57ZM756.876 180.85L749.548 163.762H753.708L760.012 178.834H757.964L764.492 163.762H768.332L761.004 180.85H756.876ZM778.396 181.074C776.497 181.074 774.833 180.7 773.404 179.954C771.996 179.186 770.897 178.14 770.108 176.818C769.34 175.495 768.956 173.991 768.956 172.306C768.956 170.599 769.329 169.095 770.076 167.794C770.844 166.471 771.889 165.436 773.212 164.69C774.556 163.943 776.081 163.57 777.788 163.57C779.452 163.57 780.934 163.932 782.236 164.658C783.537 165.383 784.561 166.407 785.308 167.73C786.054 169.052 786.428 170.61 786.428 172.402C786.428 172.572 786.417 172.764 786.396 172.978C786.396 173.191 786.385 173.394 786.364 173.586H772.124V170.93H784.252L782.684 171.762C782.705 170.78 782.502 169.916 782.076 169.17C781.649 168.423 781.062 167.836 780.316 167.41C779.59 166.983 778.748 166.77 777.788 166.77C776.806 166.77 775.942 166.983 775.196 167.41C774.47 167.836 773.894 168.434 773.468 169.202C773.062 169.948 772.86 170.834 772.86 171.858V172.498C772.86 173.522 773.094 174.428 773.564 175.218C774.033 176.007 774.694 176.615 775.548 177.042C776.401 177.468 777.382 177.682 778.492 177.682C779.452 177.682 780.316 177.532 781.084 177.234C781.852 176.935 782.534 176.466 783.132 175.826L785.276 178.29C784.508 179.186 783.537 179.879 782.364 180.37C781.212 180.839 779.889 181.074 778.396 181.074ZM799.966 163.57C801.331 163.57 802.547 163.836 803.614 164.37C804.702 164.903 805.555 165.724 806.174 166.834C806.792 167.922 807.102 169.33 807.102 171.058V180.85H803.102V171.57C803.102 170.055 802.739 168.924 802.014 168.178C801.31 167.431 800.318 167.058 799.038 167.058C798.099 167.058 797.267 167.25 796.542 167.634C795.816 168.018 795.251 168.594 794.846 169.362C794.462 170.108 794.27 171.058 794.27 172.21V180.85H790.27V163.762H794.078V168.37L793.406 166.962C794.003 165.874 794.867 165.042 795.998 164.466C797.15 163.868 798.472 163.57 799.966 163.57ZM818.608 181.074C816.731 181.074 815.28 180.594 814.256 179.634C813.232 178.652 812.72 177.212 812.72 175.314V159.986H816.72V175.218C816.72 176.028 816.923 176.658 817.328 177.106C817.755 177.554 818.341 177.778 819.088 177.778C819.984 177.778 820.731 177.543 821.328 177.074L822.448 179.922C821.979 180.306 821.403 180.594 820.72 180.786C820.037 180.978 819.333 181.074 818.608 181.074ZM809.904 167.09V163.89H821.296V167.09H809.904ZM832.856 181.074C831.107 181.074 829.549 180.7 828.184 179.954C826.819 179.186 825.741 178.14 824.952 176.818C824.163 175.495 823.768 173.991 823.768 172.306C823.768 170.599 824.163 169.095 824.952 167.794C825.741 166.471 826.819 165.436 828.184 164.69C829.549 163.943 831.107 163.57 832.856 163.57C834.627 163.57 836.195 163.943 837.56 164.69C838.947 165.436 840.024 166.46 840.792 167.762C841.581 169.063 841.976 170.578 841.976 172.306C841.976 173.991 841.581 175.495 840.792 176.818C840.024 178.14 838.947 179.186 837.56 179.954C836.195 180.7 834.627 181.074 832.856 181.074ZM832.856 177.65C833.837 177.65 834.712 177.436 835.48 177.01C836.248 176.583 836.845 175.964 837.272 175.154C837.72 174.343 837.944 173.394 837.944 172.306C837.944 171.196 837.72 170.247 837.272 169.458C836.845 168.647 836.248 168.028 835.48 167.602C834.712 167.175 833.848 166.962 832.888 166.962C831.907 166.962 831.032 167.175 830.264 167.602C829.517 168.028 828.92 168.647 828.472 169.458C828.024 170.247 827.8 171.196 827.8 172.306C827.8 173.394 828.024 174.343 828.472 175.154C828.92 175.964 829.517 176.583 830.264 177.01C831.032 177.436 831.896 177.65 832.856 177.65ZM845.801 180.85V163.762H849.609V168.466L849.161 167.09C849.673 165.938 850.473 165.063 851.561 164.466C852.67 163.868 854.046 163.57 855.689 163.57V167.378C855.518 167.335 855.358 167.314 855.209 167.314C855.06 167.292 854.91 167.282 854.761 167.282C853.246 167.282 852.041 167.73 851.145 168.626C850.249 169.5 849.801 170.812 849.801 172.562V180.85H845.801ZM861.115 187.282C860.283 187.282 859.451 187.143 858.619 186.866C857.787 186.588 857.094 186.204 856.539 185.714L858.139 182.77C858.545 183.132 859.003 183.42 859.515 183.634C860.027 183.847 860.55 183.954 861.083 183.954C861.809 183.954 862.395 183.772 862.843 183.41C863.291 183.047 863.707 182.439 864.091 181.586L865.083 179.346L865.403 178.866L871.867 163.762H875.707L867.707 182.226C867.174 183.506 866.577 184.519 865.915 185.266C865.275 186.012 864.55 186.535 863.739 186.834C862.95 187.132 862.075 187.282 861.115 187.282ZM864.635 181.458L856.923 163.762H861.083L867.355 178.514L864.635 181.458Z" fill="#F8F8F8"/>
<path d="M652.896 235C652.896 237.761 650.658 240 647.896 240H517.896C515.135 240 512.896 237.761 512.896 235V105.007C512.896 102.246 515.135 100.008 517.896 100.007L627.889 100L652.896 124.998V235Z" fill="#0067A8"/>
<path d="M627.912 120V100L652.912 125H632.912C630.151 125 627.912 122.761 627.912 120Z" fill="#F8F8F8"/>
<rect x="540.389" y="135.5" width="85" height="25" rx="2.5" stroke="#F8F8F8" stroke-width="5"/>
<path d="M554.889 148H556.689" stroke="#F8F8F8" stroke-width="5" stroke-linecap="round"/>
<path d="M569.889 148H571.689" stroke="#F8F8F8" stroke-width="5" stroke-linecap="round"/>
<path d="M583.889 148H585.689" stroke="#F8F8F8" stroke-width="5" stroke-linecap="round"/>
<rect x="540.389" y="178.5" width="85" height="25" rx="2.5" stroke="#F8F8F8" stroke-width="5"/>
<path d="M554.889 191H556.689" stroke="#F8F8F8" stroke-width="5" stroke-linecap="round"/>
<path d="M569.889 191H571.689" stroke="#F8F8F8" stroke-width="5" stroke-linecap="round"/>
<path d="M583.889 191H585.689" stroke="#F8F8F8" stroke-width="5" stroke-linecap="round"/>
<path d="M92.381 977V954.6H101.597C103.581 954.6 105.277 954.92 106.685 955.56C108.114 956.2 109.213 957.117 109.981 958.312C110.749 959.507 111.133 960.925 111.133 962.568C111.133 964.211 110.749 965.629 109.981 966.824C109.213 967.997 108.114 968.904 106.685 969.544C105.277 970.163 103.581 970.472 101.597 970.472H94.685L96.541 968.584V977H92.381ZM107.037 977L101.373 968.872H105.821L111.517 977H107.037ZM96.541 969.032L94.685 967.048H101.405C103.24 967.048 104.616 966.653 105.533 965.864C106.472 965.075 106.941 963.976 106.941 962.568C106.941 961.139 106.472 960.04 105.533 959.272C104.616 958.504 103.24 958.12 101.405 958.12H94.685L96.541 956.072V969.032ZM123.435 977.224C121.537 977.224 119.873 976.851 118.443 976.104C117.035 975.336 115.937 974.291 115.147 972.968C114.379 971.645 113.995 970.141 113.995 968.456C113.995 966.749 114.369 965.245 115.115 963.944C115.883 962.621 116.929 961.587 118.251 960.84C119.595 960.093 121.121 959.72 122.827 959.72C124.491 959.72 125.974 960.083 127.275 960.808C128.577 961.533 129.601 962.557 130.347 963.88C131.094 965.203 131.467 966.76 131.467 968.552C131.467 968.723 131.457 968.915 131.435 969.128C131.435 969.341 131.425 969.544 131.403 969.736H117.163V967.08H129.291L127.723 967.912C127.745 966.931 127.542 966.067 127.115 965.32C126.689 964.573 126.102 963.987 125.355 963.56C124.63 963.133 123.787 962.92 122.827 962.92C121.846 962.92 120.982 963.133 120.235 963.56C119.51 963.987 118.934 964.584 118.507 965.352C118.102 966.099 117.899 966.984 117.899 968.008V968.648C117.899 969.672 118.134 970.579 118.603 971.368C119.073 972.157 119.734 972.765 120.587 973.192C121.441 973.619 122.422 973.832 123.531 973.832C124.491 973.832 125.355 973.683 126.123 973.384C126.891 973.085 127.574 972.616 128.171 971.976L130.315 974.44C129.547 975.336 128.577 976.029 127.403 976.52C126.251 976.989 124.929 977.224 123.435 977.224ZM142.542 977.224C140.899 977.224 139.416 976.861 138.094 976.136C136.792 975.389 135.768 974.365 135.022 973.064C134.275 971.763 133.902 970.227 133.902 968.456C133.902 966.685 134.275 965.149 135.022 963.848C135.768 962.547 136.792 961.533 138.094 960.808C139.416 960.083 140.899 959.72 142.542 959.72C143.971 959.72 145.251 960.04 146.382 960.68C147.512 961.299 148.408 962.248 149.07 963.528C149.731 964.808 150.062 966.451 150.062 968.456C150.062 970.44 149.742 972.083 149.102 973.384C148.462 974.664 147.576 975.624 146.446 976.264C145.315 976.904 144.014 977.224 142.542 977.224ZM143.022 973.8C143.982 973.8 144.835 973.587 145.582 973.16C146.35 972.733 146.958 972.115 147.406 971.304C147.875 970.493 148.11 969.544 148.11 968.456C148.11 967.347 147.875 966.397 147.406 965.608C146.958 964.797 146.35 964.179 145.582 963.752C144.835 963.325 143.982 963.112 143.022 963.112C142.062 963.112 141.198 963.325 140.43 963.752C139.683 964.179 139.075 964.797 138.606 965.608C138.158 966.397 137.934 967.347 137.934 968.456C137.934 969.544 138.158 970.493 138.606 971.304C139.075 972.115 139.683 972.733 140.43 973.16C141.198 973.587 142.062 973.8 143.022 973.8ZM148.206 977V972.968L148.366 968.424L148.046 963.88V953.256H152.014V977H148.206ZM182.25 954.6H186.41V977H182.25V954.6ZM170.666 977H166.506V954.6H170.666V977ZM182.57 967.4H170.314V963.848H182.57V967.4ZM202.556 977V973.544L202.332 972.808V966.76C202.332 965.587 201.98 964.68 201.276 964.04C200.572 963.379 199.506 963.048 198.076 963.048C197.116 963.048 196.167 963.197 195.228 963.496C194.311 963.795 193.532 964.211 192.892 964.744L191.324 961.832C192.242 961.128 193.33 960.605 194.588 960.264C195.868 959.901 197.191 959.72 198.556 959.72C201.031 959.72 202.94 960.317 204.284 961.512C205.65 962.685 206.332 964.509 206.332 966.984V977H202.556ZM197.18 977.224C195.9 977.224 194.78 977.011 193.82 976.584C192.86 976.136 192.114 975.528 191.58 974.76C191.068 973.971 190.812 973.085 190.812 972.104C190.812 971.144 191.036 970.28 191.484 969.512C191.954 968.744 192.711 968.136 193.756 967.688C194.802 967.24 196.188 967.016 197.916 967.016H202.876V969.672H198.204C196.839 969.672 195.922 969.896 195.452 970.344C194.983 970.771 194.748 971.304 194.748 971.944C194.748 972.669 195.036 973.245 195.612 973.672C196.188 974.099 196.988 974.312 198.012 974.312C198.994 974.312 199.868 974.088 200.636 973.64C201.426 973.192 201.991 972.531 202.332 971.656L203.004 974.056C202.62 975.059 201.927 975.837 200.924 976.392C199.943 976.947 198.695 977.224 197.18 977.224ZM217.898 977.224C216.02 977.224 214.57 976.744 213.546 975.784C212.522 974.803 212.01 973.363 212.01 971.464V956.136H216.01V971.368C216.01 972.179 216.212 972.808 216.618 973.256C217.044 973.704 217.631 973.928 218.378 973.928C219.274 973.928 220.02 973.693 220.618 973.224L221.738 976.072C221.268 976.456 220.692 976.744 220.01 976.936C219.327 977.128 218.623 977.224 217.898 977.224ZM209.194 963.24V960.04H220.586V963.24H209.194Z" fill="black"/>
<path d="M450.919 977.32C447.847 977.32 445.437 976.456 443.687 974.728C441.959 973 441.095 970.504 441.095 967.24V954.6H445.255V967.08C445.255 969.384 445.746 971.059 446.727 972.104C447.73 973.149 449.138 973.672 450.951 973.672C452.765 973.672 454.162 973.149 455.143 972.104C456.125 971.059 456.615 969.384 456.615 967.08V954.6H460.711V967.24C460.711 970.504 459.837 973 458.087 974.728C456.359 976.456 453.97 977.32 450.919 977.32ZM475.625 977.224C474.175 977.224 472.884 976.904 471.753 976.264C470.623 975.624 469.727 974.664 469.065 973.384C468.425 972.083 468.105 970.44 468.105 968.456C468.105 966.451 468.436 964.808 469.097 963.528C469.78 962.248 470.687 961.299 471.817 960.68C472.969 960.04 474.239 959.72 475.625 959.72C477.311 959.72 478.793 960.083 480.073 960.808C481.375 961.533 482.399 962.547 483.145 963.848C483.913 965.149 484.297 966.685 484.297 968.456C484.297 970.227 483.913 971.763 483.145 973.064C482.399 974.365 481.375 975.389 480.073 976.136C478.793 976.861 477.311 977.224 475.625 977.224ZM466.153 977V953.256H470.153V963.88L469.833 968.424L469.961 972.968V977H466.153ZM475.177 973.8C476.137 973.8 476.991 973.587 477.737 973.16C478.505 972.733 479.113 972.115 479.561 971.304C480.009 970.493 480.233 969.544 480.233 968.456C480.233 967.347 480.009 966.397 479.561 965.608C479.113 964.797 478.505 964.179 477.737 963.752C476.991 963.325 476.137 963.112 475.177 963.112C474.217 963.112 473.353 963.325 472.585 963.752C471.817 964.179 471.209 964.797 470.761 965.608C470.313 966.397 470.089 967.347 470.089 968.456C470.089 969.544 470.313 970.493 470.761 971.304C471.209 972.115 471.817 972.733 472.585 973.16C473.353 973.587 474.217 973.8 475.177 973.8ZM495.323 977.224C493.872 977.224 492.592 976.957 491.483 976.424C490.373 975.869 489.509 975.037 488.891 973.928C488.272 972.797 487.963 971.379 487.963 969.672V959.912H491.963V969.128C491.963 970.664 492.304 971.816 492.987 972.584C493.691 973.331 494.683 973.704 495.963 973.704C496.901 973.704 497.712 973.512 498.395 973.128C499.099 972.744 499.643 972.168 500.027 971.4C500.432 970.632 500.635 969.683 500.635 968.552V959.912H504.635V977H500.827V972.392L501.499 973.8C500.923 974.909 500.08 975.763 498.971 976.36C497.861 976.936 496.645 977.224 495.323 977.224ZM519.568 959.72C520.933 959.72 522.149 959.987 523.216 960.52C524.304 961.053 525.157 961.875 525.776 962.984C526.395 964.072 526.704 965.48 526.704 967.208V977H522.704V967.72C522.704 966.205 522.341 965.075 521.616 964.328C520.912 963.581 519.92 963.208 518.64 963.208C517.701 963.208 516.869 963.4 516.144 963.784C515.419 964.168 514.853 964.744 514.448 965.512C514.064 966.259 513.872 967.208 513.872 968.36V977H509.872V959.912H513.68V964.52L513.008 963.112C513.605 962.024 514.469 961.192 515.6 960.616C516.752 960.019 518.075 959.72 519.568 959.72ZM538.21 977.224C536.333 977.224 534.882 976.744 533.858 975.784C532.834 974.803 532.322 973.363 532.322 971.464V956.136H536.322V971.368C536.322 972.179 536.525 972.808 536.93 973.256C537.357 973.704 537.944 973.928 538.69 973.928C539.586 973.928 540.333 973.693 540.93 973.224L542.05 976.072C541.581 976.456 541.005 976.744 540.322 976.936C539.64 977.128 538.936 977.224 538.21 977.224ZM529.506 963.24V960.04H540.898V963.24H529.506ZM552.573 977.224C551.122 977.224 549.842 976.957 548.733 976.424C547.623 975.869 546.759 975.037 546.141 973.928C545.522 972.797 545.213 971.379 545.213 969.672V959.912H549.213V969.128C549.213 970.664 549.554 971.816 550.237 972.584C550.941 973.331 551.933 973.704 553.213 973.704C554.151 973.704 554.962 973.512 555.645 973.128C556.349 972.744 556.893 972.168 557.277 971.4C557.682 970.632 557.885 969.683 557.885 968.552V959.912H561.885V977H558.077V972.392L558.749 973.8C558.173 974.909 557.33 975.763 556.221 976.36C555.111 976.936 553.895 977.224 552.573 977.224Z" fill="black"/>
<path d="M807.01 977L817.09 954.6H821.186L831.298 977H826.946L818.274 956.808H819.938L811.298 977H807.01ZM811.65 971.816L812.77 968.552H824.866L825.986 971.816H811.65ZM833.763 977V959.912H837.571V964.616L837.123 963.24C837.635 962.088 838.435 961.213 839.523 960.616C840.632 960.019 842.008 959.72 843.651 959.72V963.528C843.48 963.485 843.32 963.464 843.171 963.464C843.021 963.443 842.872 963.432 842.723 963.432C841.208 963.432 840.003 963.88 839.107 964.776C838.211 965.651 837.763 966.963 837.763 968.712V977H833.763ZM854.728 977.224C852.936 977.224 851.336 976.851 849.928 976.104C848.541 975.336 847.453 974.291 846.664 972.968C845.874 971.645 845.48 970.141 845.48 968.456C845.48 966.749 845.874 965.245 846.664 963.944C847.453 962.621 848.541 961.587 849.928 960.84C851.336 960.093 852.936 959.72 854.728 959.72C856.392 959.72 857.853 960.061 859.112 960.744C860.392 961.405 861.362 962.387 862.024 963.688L858.952 965.48C858.44 964.669 857.81 964.072 857.064 963.688C856.338 963.304 855.549 963.112 854.696 963.112C853.714 963.112 852.829 963.325 852.04 963.752C851.25 964.179 850.632 964.797 850.184 965.608C849.736 966.397 849.512 967.347 849.512 968.456C849.512 969.565 849.736 970.525 850.184 971.336C850.632 972.125 851.25 972.733 852.04 973.16C852.829 973.587 853.714 973.8 854.696 973.8C855.549 973.8 856.338 973.608 857.064 973.224C857.81 972.84 858.44 972.243 858.952 971.432L862.024 973.224C861.362 974.504 860.392 975.496 859.112 976.2C857.853 976.883 856.392 977.224 854.728 977.224ZM875.021 959.72C876.387 959.72 877.603 959.987 878.669 960.52C879.757 961.053 880.611 961.875 881.229 962.984C881.848 964.072 882.157 965.48 882.157 967.208V977H878.157V967.72C878.157 966.205 877.795 965.075 877.069 964.328C876.365 963.581 875.373 963.208 874.093 963.208C873.155 963.208 872.323 963.4 871.597 963.784C870.872 964.168 870.307 964.744 869.901 965.512C869.517 966.259 869.325 967.208 869.325 968.36V977H865.325V953.256H869.325V964.52L868.461 963.112C869.059 962.024 869.923 961.192 871.053 960.616C872.205 960.019 873.528 959.72 875.021 959.72Z" fill="black"/>
</g>
<defs>
<clipPath id="clip0_232_1068">
<rect width="1000" height="1172" fill="white" transform="translate(0.888672)"/>
</clipPath>
</defs>
</svg>
