<svg width="1885" height="1497" viewBox="0 0 1885 1497" fill="none" xmlns="http://www.w3.org/2000/svg">
<g clip-path="url(#clip0_112_28)">
<path fill-rule="evenodd" clip-rule="evenodd" d="M1214.44 224.081C1214.44 225.062 1215.24 225.857 1216.22 225.857H1230.48C1231.46 225.857 1232.26 225.062 1232.26 224.081V141.17L1242.55 151.423C1243.24 152.117 1244.37 152.117 1245.07 151.423L1252.63 143.886C1253.33 143.192 1253.33 142.067 1252.63 141.373L1232.85 121.654C1232.66 121.465 1232.5 121.246 1232.31 121.058L1224.75 113.52C1224.13 112.906 1223.18 112.836 1222.48 113.309C1222.38 113.376 1222.28 113.455 1222.19 113.546L1214.63 121.083C1214.59 121.126 1214.55 121.17 1214.51 121.216L1194.31 141.348C1193.61 142.042 1193.61 143.167 1194.31 143.861L1201.87 151.398C1202.57 152.092 1203.7 152.092 1204.39 151.398L1214.44 141.385V224.081ZM1223.45 132.404C1223.45 132.399 1223.46 132.399 1223.47 132.404C1223.47 132.413 1223.47 132.427 1223.46 132.427C1223.45 132.427 1223.44 132.413 1223.45 132.404Z" fill="#60A394"/>
<path fill-rule="evenodd" clip-rule="evenodd" d="M886.505 280.94C885.524 280.94 884.729 281.738 884.729 282.722L884.729 296.981C884.729 297.965 885.524 298.763 886.505 298.763L969.415 298.763L959.163 309.049C958.469 309.745 958.469 310.874 959.163 311.57L966.7 319.132C967.394 319.828 968.519 319.828 969.213 319.132L988.932 299.348C989.121 299.159 989.34 299.002 989.528 298.813L997.066 291.251C997.68 290.635 997.75 289.679 997.277 288.985C997.21 288.882 997.131 288.783 997.04 288.692L989.503 281.13C989.46 281.087 989.416 281.047 989.37 281.009L969.238 260.812C968.544 260.116 967.419 260.116 966.725 260.812L959.188 268.373C958.494 269.07 958.494 270.198 959.188 270.894L969.201 280.94L886.505 280.94ZM978.182 289.95C978.187 289.955 978.187 289.963 978.182 289.968C978.173 289.976 978.159 289.971 978.159 289.959C978.159 289.947 978.173 289.941 978.182 289.95Z" fill="#60A394"/>
<path fill-rule="evenodd" clip-rule="evenodd" d="M1007.52 244.398C1008.21 245.092 1008.21 246.218 1007.51 246.915L997.428 256.997C996.732 257.693 995.606 257.695 994.912 257.001L880.931 143.021L880.908 157.544C880.906 158.526 880.108 159.324 879.125 159.326L868.448 159.343C867.466 159.345 866.67 158.55 866.672 157.567L866.718 129.633C866.718 129.367 866.674 129.101 866.674 128.834L866.692 118.157C866.693 117.287 867.319 116.562 868.144 116.406C868.265 116.38 868.39 116.366 868.519 116.366L879.195 116.348C879.256 116.348 879.316 116.351 879.376 116.357L907.893 116.31C908.875 116.309 909.671 117.104 909.669 118.087L909.652 128.764C909.65 129.746 908.852 130.544 907.869 130.546L893.686 130.569L1007.52 244.398ZM880.965 130.59C880.957 130.59 880.952 130.596 880.952 130.603C880.952 130.615 880.966 130.621 880.974 130.612C880.982 130.604 880.976 130.59 880.965 130.59Z" fill="#60A394"/>
<path fill-rule="evenodd" clip-rule="evenodd" d="M1440.74 244.398C1440.04 245.092 1440.04 246.218 1440.74 246.915L1450.82 256.997C1451.52 257.693 1452.65 257.695 1453.34 257.001L1567.32 143.021L1567.34 157.544C1567.34 158.526 1568.14 159.324 1569.13 159.326L1579.8 159.343C1580.79 159.345 1581.58 158.55 1581.58 157.567L1581.53 129.633C1581.53 129.367 1581.58 129.101 1581.58 128.834L1581.56 118.157C1581.56 117.287 1580.93 116.562 1580.11 116.406C1579.99 116.38 1579.86 116.366 1579.73 116.366L1569.06 116.348C1568.99 116.348 1568.93 116.351 1568.88 116.357L1540.36 116.31C1539.38 116.309 1538.58 117.104 1538.58 118.087L1538.6 128.764C1538.6 129.746 1539.4 130.544 1540.38 130.546L1554.56 130.569L1440.74 244.398ZM1567.29 130.59C1567.29 130.59 1567.3 130.596 1567.3 130.603C1567.3 130.615 1567.29 130.621 1567.28 130.612C1567.27 130.604 1567.27 130.59 1567.29 130.59Z" fill="#60A394"/>
<rect x="563.77" width="401.198" height="95.9701" rx="3.26177" fill="#D19129"/>
<path d="M642.669 57.0137L652.532 35.0946H656.54L666.435 57.0137H662.177L653.691 37.2552H655.319L646.865 57.0137H642.669ZM647.209 51.941L648.305 48.747H660.141L661.237 51.941H647.209ZM669.223 57.0137V35.0946H678.241C680.182 35.0946 681.842 35.4077 683.22 36.0339C684.618 36.6602 685.694 37.5578 686.445 38.7269C687.197 39.8959 687.572 41.2841 687.572 42.8915C687.572 44.4989 687.197 45.8871 686.445 47.0561C685.694 48.2252 684.618 49.1228 683.22 49.7491C681.842 50.3753 680.182 50.6884 678.241 50.6884H671.477L673.294 48.7783V57.0137H669.223ZM673.294 49.2167L671.477 47.244H678.053C679.848 47.244 681.195 46.8683 682.093 46.1167C683.011 45.3444 683.47 44.2693 683.47 42.8915C683.47 41.4929 683.011 40.4178 682.093 39.6663C681.195 38.9147 679.848 38.539 678.053 38.539H671.477L673.294 36.535V49.2167ZM691.637 57.0137V35.0946H700.656C702.597 35.0946 704.257 35.4077 705.634 36.0339C707.033 36.6602 708.108 37.5578 708.86 38.7269C709.611 39.8959 709.987 41.2841 709.987 42.8915C709.987 44.4989 709.611 45.8871 708.86 47.0561C708.108 48.2252 707.033 49.1228 705.634 49.7491C704.257 50.3753 702.597 50.6884 700.656 50.6884H693.892L695.708 48.7783V57.0137H691.637ZM695.708 49.2167L693.892 47.244H700.468C702.263 47.244 703.609 46.8683 704.507 46.1167C705.426 45.3444 705.885 44.2693 705.885 42.8915C705.885 41.4929 705.426 40.4178 704.507 39.6663C703.609 38.9147 702.263 38.539 700.468 38.539H693.892L695.708 36.535V49.2167ZM714.052 57.0137V35.0946H718.123V53.5692H729.583V57.0137H714.052ZM732.797 57.0137V35.0946H736.868V57.0137H732.797ZM752.942 57.3268C751.272 57.3268 749.716 57.0554 748.276 56.5127C746.857 55.949 745.614 55.1662 744.55 54.1642C743.506 53.1413 742.692 51.941 742.107 50.5632C741.523 49.1854 741.231 47.6824 741.231 46.0541C741.231 44.4258 741.523 42.9228 742.107 41.545C742.692 40.1673 743.516 38.9774 744.581 37.9754C745.646 36.9525 746.888 36.1696 748.307 35.6269C749.727 35.0632 751.282 34.7814 752.973 34.7814C754.768 34.7814 756.407 35.0946 757.889 35.7208C759.371 36.3262 760.624 37.2343 761.647 38.445L759.016 40.9188C758.223 40.0629 757.336 39.4262 756.355 39.0087C755.374 38.5703 754.309 38.3511 753.161 38.3511C752.013 38.3511 750.959 38.539 749.998 38.9147C749.059 39.2905 748.234 39.8228 747.525 40.5117C746.836 41.2006 746.293 42.0147 745.896 42.9541C745.521 43.8935 745.333 44.9268 745.333 46.0541C745.333 47.1814 745.521 48.2147 745.896 49.1541C746.293 50.0935 746.836 50.9076 747.525 51.5965C748.234 52.2854 749.059 52.8177 749.998 53.1935C750.959 53.5692 752.013 53.7571 753.161 53.7571C754.309 53.7571 755.374 53.5484 756.355 53.1309C757.336 52.6925 758.223 52.0349 759.016 51.1581L761.647 53.6632C760.624 54.8531 759.371 55.7612 757.889 56.3874C756.407 57.0137 754.758 57.3268 752.942 57.3268ZM761.988 57.0137L771.852 35.0946H775.86L785.755 57.0137H781.496L773.011 37.2552H774.639L766.184 57.0137H761.988ZM766.529 51.941L767.625 48.747H779.461L780.557 51.941H766.529ZM791.888 57.0137V38.539H784.624V35.0946H803.224V38.539H795.959V57.0137H791.888ZM806.279 57.0137V35.0946H810.349V57.0137H806.279ZM826.549 57.3268C824.837 57.3268 823.261 57.045 821.82 56.4814C820.38 55.9177 819.127 55.1349 818.063 54.1329C816.998 53.11 816.174 51.9201 815.589 50.5632C815.005 49.1854 814.712 47.6824 814.712 46.0541C814.712 44.4258 815.005 42.9332 815.589 41.5764C816.174 40.1986 816.998 39.0087 818.063 38.0067C819.127 36.9838 820.38 36.1905 821.82 35.6269C823.261 35.0632 824.826 34.7814 826.517 34.7814C828.229 34.7814 829.795 35.0632 831.214 35.6269C832.655 36.1905 833.907 36.9838 834.972 38.0067C836.036 39.0087 836.861 40.1986 837.445 41.5764C838.03 42.9332 838.322 44.4258 838.322 46.0541C838.322 47.6824 838.03 49.1854 837.445 50.5632C836.861 51.941 836.036 53.1309 834.972 54.1329C833.907 55.1349 832.655 55.9177 831.214 56.4814C829.795 57.045 828.239 57.3268 826.549 57.3268ZM826.517 53.7571C827.624 53.7571 828.647 53.5692 829.586 53.1935C830.525 52.8177 831.339 52.2854 832.028 51.5965C832.717 50.8868 833.25 50.0726 833.625 49.1541C834.022 48.2147 834.22 47.1814 834.22 46.0541C834.22 44.9268 834.022 43.904 833.625 42.9854C833.25 42.046 832.717 41.2319 832.028 40.543C831.339 39.8333 830.525 39.2905 829.586 38.9147C828.647 38.539 827.624 38.3511 826.517 38.3511C825.411 38.3511 824.388 38.539 823.449 38.9147C822.53 39.2905 821.716 39.8333 821.006 40.543C820.317 41.2319 819.775 42.046 819.378 42.9854C819.002 43.904 818.814 44.9268 818.814 46.0541C818.814 47.1605 819.002 48.1834 819.378 49.1228C819.775 50.0622 820.317 50.8868 821.006 51.5965C821.695 52.2854 822.509 52.8177 823.449 53.1935C824.388 53.5692 825.411 53.7571 826.517 53.7571ZM842.637 57.0137V35.0946H845.988L859.734 51.9723H858.074V35.0946H862.114V57.0137H858.763L845.017 40.136H846.676V57.0137H842.637ZM874.782 57.3268C873.07 57.3268 871.432 57.0867 869.866 56.6066C868.3 56.1056 867.058 55.4689 866.14 54.6965L867.549 51.5339C868.426 52.2228 869.511 52.7969 870.805 53.2561C872.1 53.7154 873.425 53.945 874.782 53.945C875.93 53.945 876.859 53.8197 877.569 53.5692C878.279 53.3187 878.801 52.9847 879.135 52.5672C879.469 52.1288 879.636 51.6383 879.636 51.0955C879.636 50.4275 879.396 49.8952 878.915 49.4985C878.435 49.081 877.809 48.7575 877.037 48.5278C876.285 48.2773 875.44 48.0477 874.5 47.839C873.582 47.6302 872.653 47.3901 871.713 47.1188C870.795 46.8265 869.949 46.4612 869.177 46.0228C868.426 45.5635 867.81 44.9582 867.33 44.2066C866.849 43.4551 866.609 42.4949 866.609 41.3258C866.609 40.136 866.923 39.0504 867.549 38.0693C868.196 37.0673 869.167 36.274 870.461 35.6895C871.776 35.0841 873.436 34.7814 875.44 34.7814C876.755 34.7814 878.06 34.9484 879.354 35.2824C880.648 35.6164 881.775 36.0966 882.736 36.7228L881.452 39.8854C880.471 39.3009 879.458 38.873 878.414 38.6016C877.371 38.3094 876.369 38.1632 875.408 38.1632C874.281 38.1632 873.363 38.2989 872.653 38.5703C871.964 38.8417 871.452 39.1966 871.118 39.6349C870.805 40.0733 870.649 40.5743 870.649 41.138C870.649 41.806 870.878 42.3487 871.338 42.7662C871.818 43.1629 872.434 43.476 873.185 43.7056C873.958 43.9353 874.813 44.1649 875.753 44.3945C876.692 44.6033 877.621 44.8433 878.54 45.1147C879.479 45.3861 880.325 45.741 881.076 46.1794C881.848 46.6177 882.464 47.2127 882.923 47.9642C883.404 48.7157 883.644 49.6655 883.644 50.8137C883.644 51.9827 883.32 53.0682 882.673 54.0702C882.047 55.0514 881.076 55.8447 879.761 56.45C878.446 57.0345 876.786 57.3268 874.782 57.3268Z" fill="#F8F8F8"/>
<rect x="0.788086" width="401.198" height="95.9701" rx="3.26177" fill="#FFD633"/>
<path d="M119.903 57.3268C118.233 57.3268 116.678 57.0554 115.238 56.5127C113.818 55.949 112.576 55.1662 111.512 54.1642C110.468 53.1413 109.654 51.941 109.069 50.5632C108.485 49.1854 108.192 47.6824 108.192 46.0541C108.192 44.4258 108.485 42.9228 109.069 41.545C109.654 40.1673 110.478 38.9774 111.543 37.9754C112.608 36.9525 113.85 36.1696 115.269 35.6269C116.689 35.0632 118.244 34.7814 119.935 34.7814C121.73 34.7814 123.369 35.0946 124.851 35.7208C126.333 36.3262 127.586 37.2343 128.608 38.445L125.978 40.9188C125.185 40.0629 124.298 39.4262 123.317 39.0087C122.335 38.5703 121.271 38.3511 120.123 38.3511C118.975 38.3511 117.92 38.539 116.96 38.9147C116.021 39.2905 115.196 39.8228 114.486 40.5117C113.797 41.2006 113.255 42.0147 112.858 42.9541C112.482 43.8935 112.294 44.9268 112.294 46.0541C112.294 47.1814 112.482 48.2147 112.858 49.1541C113.255 50.0935 113.797 50.9076 114.486 51.5965C115.196 52.2854 116.021 52.8177 116.96 53.1935C117.92 53.5692 118.975 53.7571 120.123 53.7571C121.271 53.7571 122.335 53.5484 123.317 53.1309C124.298 52.6925 125.185 52.0349 125.978 51.1581L128.608 53.6632C127.586 54.8531 126.333 55.7612 124.851 56.3874C123.369 57.0137 121.72 57.3268 119.903 57.3268ZM142.321 57.3268C140.609 57.3268 139.033 57.045 137.593 56.4814C136.152 55.9177 134.9 55.1349 133.835 54.1329C132.77 53.11 131.946 51.9201 131.361 50.5632C130.777 49.1854 130.485 47.6824 130.485 46.0541C130.485 44.4258 130.777 42.9332 131.361 41.5764C131.946 40.1986 132.77 39.0087 133.835 38.0067C134.9 36.9838 136.152 36.1905 137.593 35.6269C139.033 35.0632 140.599 34.7814 142.29 34.7814C144.001 34.7814 145.567 35.0632 146.987 35.6269C148.427 36.1905 149.679 36.9838 150.744 38.0067C151.809 39.0087 152.633 40.1986 153.218 41.5764C153.802 42.9332 154.095 44.4258 154.095 46.0541C154.095 47.6824 153.802 49.1854 153.218 50.5632C152.633 51.941 151.809 53.1309 150.744 54.1329C149.679 55.1349 148.427 55.9177 146.987 56.4814C145.567 57.045 144.012 57.3268 142.321 57.3268ZM142.29 53.7571C143.396 53.7571 144.419 53.5692 145.358 53.1935C146.298 52.8177 147.112 52.2854 147.801 51.5965C148.49 50.8868 149.022 50.0726 149.398 49.1541C149.794 48.2147 149.993 47.1814 149.993 46.0541C149.993 44.9268 149.794 43.904 149.398 42.9854C149.022 42.046 148.49 41.2319 147.801 40.543C147.112 39.8333 146.298 39.2905 145.358 38.9147C144.419 38.539 143.396 38.3511 142.29 38.3511C141.183 38.3511 140.16 38.539 139.221 38.9147C138.302 39.2905 137.488 39.8333 136.779 40.543C136.09 41.2319 135.547 42.046 135.15 42.9854C134.774 43.904 134.587 44.9268 134.587 46.0541C134.587 47.1605 134.774 48.1834 135.15 49.1228C135.547 50.0622 136.09 50.8868 136.779 51.5965C137.467 52.2854 138.282 52.8177 139.221 53.1935C140.16 53.5692 141.183 53.7571 142.29 53.7571ZM158.409 57.0137V35.0946H161.76L171.342 51.0955H169.588L179.013 35.0946H182.364L182.395 57.0137H178.544L178.512 41.138H179.327L171.31 54.5086H169.494L161.353 41.138H162.292V57.0137H158.409ZM188.316 57.0137V35.0946H197.334C199.275 35.0946 200.935 35.4077 202.313 36.0339C203.711 36.6602 204.786 37.5578 205.538 38.7269C206.289 39.8959 206.665 41.2841 206.665 42.8915C206.665 44.4989 206.289 45.8871 205.538 47.0561C204.786 48.2252 203.711 49.1228 202.313 49.7491C200.935 50.3753 199.275 50.6884 197.334 50.6884H190.57L192.387 48.7783V57.0137H188.316ZM192.387 49.2167L190.57 47.244H197.146C198.941 47.244 200.288 46.8683 201.185 46.1167C202.104 45.3444 202.563 44.2693 202.563 42.8915C202.563 41.4929 202.104 40.4178 201.185 39.6663C200.288 38.9147 198.941 38.539 197.146 38.539H190.57L192.387 36.535V49.2167ZM220.125 57.3268C217.119 57.3268 214.76 56.4814 213.048 54.7904C211.357 53.0995 210.512 50.6571 210.512 47.4632V35.0946H214.583V47.3066C214.583 49.5612 215.063 51.1999 216.023 52.2228C217.004 53.2457 218.382 53.7571 220.156 53.7571C221.931 53.7571 223.298 53.2457 224.258 52.2228C225.219 51.1999 225.699 49.5612 225.699 47.3066V35.0946H229.707V47.4632C229.707 50.6571 228.851 53.0995 227.139 54.7904C225.448 56.4814 223.11 57.3268 220.125 57.3268ZM239.457 57.0137V38.539H232.192V35.0946H250.792V38.539H243.527V57.0137H239.457ZM257.604 44.2066H268.501V47.5571H257.604V44.2066ZM257.918 53.6006H270.286V57.0137H253.847V35.0946H269.848V38.5077H257.918V53.6006ZM274.824 57.0137V35.0946H283.842C285.784 35.0946 287.443 35.4077 288.821 36.0339C290.22 36.6602 291.295 37.5578 292.046 38.7269C292.798 39.8959 293.174 41.2841 293.174 42.8915C293.174 44.4989 292.798 45.8871 292.046 47.0561C291.295 48.2043 290.22 49.0915 288.821 49.7177C287.443 50.3231 285.784 50.6258 283.842 50.6258H277.079L278.895 48.7783V57.0137H274.824ZM289.166 57.0137L283.623 49.0602H287.976L293.549 57.0137H289.166ZM278.895 49.2167L277.079 47.2753H283.654C285.45 47.2753 286.796 46.8891 287.694 46.1167C288.612 45.3444 289.072 44.2693 289.072 42.8915C289.072 41.4929 288.612 40.4178 287.694 39.6663C286.796 38.9147 285.45 38.539 283.654 38.539H277.079L278.895 36.535V49.2167Z" fill="black"/>
<rect x="1023.68" width="401.198" height="95.9701" rx="3.26177" fill="#D19129"/>
<path d="M1102.58 57.0137L1112.44 35.0946H1116.45L1126.35 57.0137H1122.09L1113.6 37.2552H1115.23L1106.78 57.0137H1102.58ZM1107.12 51.941L1108.22 48.747H1120.05L1121.15 51.941H1107.12ZM1129.13 57.0137V35.0946H1138.15C1140.09 35.0946 1141.75 35.4077 1143.13 36.0339C1144.53 36.6602 1145.6 37.5578 1146.36 38.7269C1147.11 39.8959 1147.48 41.2841 1147.48 42.8915C1147.48 44.4989 1147.11 45.8871 1146.36 47.0561C1145.6 48.2252 1144.53 49.1228 1143.13 49.7491C1141.75 50.3753 1140.09 50.6884 1138.15 50.6884H1131.39L1133.2 48.7783V57.0137H1129.13ZM1133.2 49.2167L1131.39 47.244H1137.96C1139.76 47.244 1141.11 46.8683 1142 46.1167C1142.92 45.3444 1143.38 44.2693 1143.38 42.8915C1143.38 41.4929 1142.92 40.4178 1142 39.6663C1141.11 38.9147 1139.76 38.539 1137.96 38.539H1131.39L1133.2 36.535V49.2167ZM1151.55 57.0137V35.0946H1160.57C1162.51 35.0946 1164.17 35.4077 1165.55 36.0339C1166.94 36.6602 1168.02 37.5578 1168.77 38.7269C1169.52 39.8959 1169.9 41.2841 1169.9 42.8915C1169.9 44.4989 1169.52 45.8871 1168.77 47.0561C1168.02 48.2252 1166.94 49.1228 1165.55 49.7491C1164.17 50.3753 1162.51 50.6884 1160.57 50.6884H1153.8L1155.62 48.7783V57.0137H1151.55ZM1155.62 49.2167L1153.8 47.244H1160.38C1162.17 47.244 1163.52 46.8683 1164.42 46.1167C1165.34 45.3444 1165.8 44.2693 1165.8 42.8915C1165.8 41.4929 1165.34 40.4178 1164.42 39.6663C1163.52 38.9147 1162.17 38.539 1160.38 38.539H1153.8L1155.62 36.535V49.2167ZM1173.96 57.0137V35.0946H1178.03V53.5692H1189.49V57.0137H1173.96ZM1192.71 57.0137V35.0946H1196.78V57.0137H1192.71ZM1212.85 57.3268C1211.18 57.3268 1209.63 57.0554 1208.19 56.5127C1206.77 55.949 1205.53 55.1662 1204.46 54.1642C1203.42 53.1413 1202.6 51.941 1202.02 50.5632C1201.43 49.1854 1201.14 47.6824 1201.14 46.0541C1201.14 44.4258 1201.43 42.9228 1202.02 41.545C1202.6 40.1673 1203.43 38.9774 1204.49 37.9754C1205.56 36.9525 1206.8 36.1696 1208.22 35.6269C1209.64 35.0632 1211.19 34.7814 1212.88 34.7814C1214.68 34.7814 1216.32 35.0946 1217.8 35.7208C1219.28 36.3262 1220.53 37.2343 1221.56 38.445L1218.93 40.9188C1218.13 40.0629 1217.25 39.4262 1216.27 39.0087C1215.28 38.5703 1214.22 38.3511 1213.07 38.3511C1211.92 38.3511 1210.87 38.539 1209.91 38.9147C1208.97 39.2905 1208.15 39.8228 1207.44 40.5117C1206.75 41.2006 1206.2 42.0147 1205.81 42.9541C1205.43 43.8935 1205.24 44.9268 1205.24 46.0541C1205.24 47.1814 1205.43 48.2147 1205.81 49.1541C1206.2 50.0935 1206.75 50.9076 1207.44 51.5965C1208.15 52.2854 1208.97 52.8177 1209.91 53.1935C1210.87 53.5692 1211.92 53.7571 1213.07 53.7571C1214.22 53.7571 1215.28 53.5484 1216.27 53.1309C1217.25 52.6925 1218.13 52.0349 1218.93 51.1581L1221.56 53.6632C1220.53 54.8531 1219.28 55.7612 1217.8 56.3874C1216.32 57.0137 1214.67 57.3268 1212.85 57.3268ZM1221.9 57.0137L1231.76 35.0946H1235.77L1245.67 57.0137H1241.41L1232.92 37.2552H1234.55L1226.1 57.0137H1221.9ZM1226.44 51.941L1227.54 48.747H1239.37L1240.47 51.941H1226.44ZM1251.8 57.0137V38.539H1244.53V35.0946H1263.13V38.539H1255.87V57.0137H1251.8ZM1266.19 57.0137V35.0946H1270.26V57.0137H1266.19ZM1286.46 57.3268C1284.75 57.3268 1283.17 57.045 1281.73 56.4814C1280.29 55.9177 1279.04 55.1349 1277.97 54.1329C1276.91 53.11 1276.08 51.9201 1275.5 50.5632C1274.92 49.1854 1274.62 47.6824 1274.62 46.0541C1274.62 44.4258 1274.92 42.9332 1275.5 41.5764C1276.08 40.1986 1276.91 39.0087 1277.97 38.0067C1279.04 36.9838 1280.29 36.1905 1281.73 35.6269C1283.17 35.0632 1284.74 34.7814 1286.43 34.7814C1288.14 34.7814 1289.71 35.0632 1291.13 35.6269C1292.57 36.1905 1293.82 36.9838 1294.88 38.0067C1295.95 39.0087 1296.77 40.1986 1297.36 41.5764C1297.94 42.9332 1298.23 44.4258 1298.23 46.0541C1298.23 47.6824 1297.94 49.1854 1297.36 50.5632C1296.77 51.941 1295.95 53.1309 1294.88 54.1329C1293.82 55.1349 1292.57 55.9177 1291.13 56.4814C1289.71 57.045 1288.15 57.3268 1286.46 57.3268ZM1286.43 53.7571C1287.53 53.7571 1288.56 53.5692 1289.5 53.1935C1290.44 52.8177 1291.25 52.2854 1291.94 51.5965C1292.63 50.8868 1293.16 50.0726 1293.54 49.1541C1293.93 48.2147 1294.13 47.1814 1294.13 46.0541C1294.13 44.9268 1293.93 43.904 1293.54 42.9854C1293.16 42.046 1292.63 41.2319 1291.94 40.543C1291.25 39.8333 1290.44 39.2905 1289.5 38.9147C1288.56 38.539 1287.53 38.3511 1286.43 38.3511C1285.32 38.3511 1284.3 38.539 1283.36 38.9147C1282.44 39.2905 1281.63 39.8333 1280.92 40.543C1280.23 41.2319 1279.69 42.046 1279.29 42.9854C1278.91 43.904 1278.73 44.9268 1278.73 46.0541C1278.73 47.1605 1278.91 48.1834 1279.29 49.1228C1279.69 50.0622 1280.23 50.8868 1280.92 51.5965C1281.61 52.2854 1282.42 52.8177 1283.36 53.1935C1284.3 53.5692 1285.32 53.7571 1286.43 53.7571ZM1302.55 57.0137V35.0946H1305.9L1319.65 51.9723H1317.99V35.0946H1322.02V57.0137H1318.67L1304.93 40.136H1306.59V57.0137H1302.55ZM1334.69 57.3268C1332.98 57.3268 1331.34 57.0867 1329.78 56.6066C1328.21 56.1056 1326.97 55.4689 1326.05 54.6965L1327.46 51.5339C1328.34 52.2228 1329.42 52.7969 1330.72 53.2561C1332.01 53.7154 1333.34 53.945 1334.69 53.945C1335.84 53.945 1336.77 53.8197 1337.48 53.5692C1338.19 53.3187 1338.71 52.9847 1339.05 52.5672C1339.38 52.1288 1339.55 51.6383 1339.55 51.0955C1339.55 50.4275 1339.31 49.8952 1338.83 49.4985C1338.35 49.081 1337.72 48.7575 1336.95 48.5278C1336.2 48.2773 1335.35 48.0477 1334.41 47.839C1333.49 47.6302 1332.56 47.3901 1331.62 47.1188C1330.71 46.8265 1329.86 46.4612 1329.09 46.0228C1328.34 45.5635 1327.72 44.9582 1327.24 44.2066C1326.76 43.4551 1326.52 42.4949 1326.52 41.3258C1326.52 40.136 1326.83 39.0504 1327.46 38.0693C1328.11 37.0673 1329.08 36.274 1330.37 35.6895C1331.69 35.0841 1333.35 34.7814 1335.35 34.7814C1336.67 34.7814 1337.97 34.9484 1339.26 35.2824C1340.56 35.6164 1341.69 36.0966 1342.65 36.7228L1341.36 39.8854C1340.38 39.3009 1339.37 38.873 1338.33 38.6016C1337.28 38.3094 1336.28 38.1632 1335.32 38.1632C1334.19 38.1632 1333.27 38.2989 1332.56 38.5703C1331.88 38.8417 1331.36 39.1966 1331.03 39.6349C1330.72 40.0733 1330.56 40.5743 1330.56 41.138C1330.56 41.806 1330.79 42.3487 1331.25 42.7662C1331.73 43.1629 1332.34 43.476 1333.1 43.7056C1333.87 43.9353 1334.72 44.1649 1335.66 44.3945C1336.6 44.6033 1337.53 44.8433 1338.45 45.1147C1339.39 45.3861 1340.24 45.741 1340.99 46.1794C1341.76 46.6177 1342.38 47.2127 1342.83 47.9642C1343.31 48.7157 1343.55 49.6655 1343.55 50.8137C1343.55 51.9827 1343.23 53.0682 1342.58 54.0702C1341.96 55.0514 1340.99 55.8447 1339.67 56.45C1338.36 57.0345 1336.7 57.3268 1334.69 57.3268Z" fill="#F8F8F8"/>
<rect x="1023.68" y="242.024" width="401.198" height="95.9701" rx="3.26177" fill="#0067A8"/>
<path d="M1071.6 299.35C1069.88 299.35 1068.31 299.069 1066.87 298.505C1065.43 297.941 1064.17 297.159 1063.11 296.157C1062.05 295.134 1061.22 293.944 1060.64 292.587C1060.05 291.209 1059.76 289.706 1059.76 288.078C1059.76 286.45 1060.05 284.957 1060.64 283.6C1061.22 282.222 1062.05 281.032 1063.11 280.03C1064.17 279.007 1065.43 278.214 1066.87 277.651C1068.31 277.087 1069.87 276.805 1071.56 276.805C1073.28 276.805 1074.84 277.087 1076.26 277.651C1077.7 278.214 1078.95 279.007 1080.02 280.03C1081.08 281.032 1081.91 282.222 1082.49 283.6C1083.08 284.957 1083.37 286.45 1083.37 288.078C1083.37 289.706 1083.08 291.209 1082.49 292.587C1081.91 293.965 1081.08 295.155 1080.02 296.157C1078.95 297.159 1077.7 297.941 1076.26 298.505C1074.84 299.069 1073.29 299.35 1071.6 299.35ZM1071.56 295.781C1072.67 295.781 1073.69 295.593 1074.63 295.217C1075.57 294.841 1076.39 294.309 1077.08 293.62C1077.76 292.91 1078.3 292.096 1078.67 291.178C1079.07 290.238 1079.27 289.205 1079.27 288.078C1079.27 286.951 1079.07 285.928 1078.67 285.009C1078.3 284.07 1077.76 283.256 1077.08 282.567C1076.39 281.857 1075.57 281.314 1074.63 280.938C1073.69 280.563 1072.67 280.375 1071.56 280.375C1070.46 280.375 1069.43 280.563 1068.5 280.938C1067.58 281.314 1066.76 281.857 1066.05 282.567C1065.36 283.256 1064.82 284.07 1064.42 285.009C1064.05 285.928 1063.86 286.951 1063.86 288.078C1063.86 289.184 1064.05 290.207 1064.42 291.146C1064.82 292.086 1065.36 292.91 1066.05 293.62C1066.74 294.309 1067.56 294.841 1068.5 295.217C1069.43 295.593 1070.46 295.781 1071.56 295.781ZM1087.68 299.037V277.118H1096.7C1098.64 277.118 1100.3 277.431 1101.68 278.058C1103.08 278.684 1104.15 279.582 1104.91 280.751C1105.66 281.92 1106.03 283.308 1106.03 284.915C1106.03 286.523 1105.66 287.911 1104.91 289.08C1104.15 290.249 1103.08 291.146 1101.68 291.773C1100.3 292.399 1098.64 292.712 1096.7 292.712H1089.94L1091.75 290.802V299.037H1087.68ZM1091.75 291.24L1089.94 289.268H1096.51C1098.31 289.268 1099.66 288.892 1100.55 288.14C1101.47 287.368 1101.93 286.293 1101.93 284.915C1101.93 283.517 1101.47 282.441 1100.55 281.69C1099.66 280.938 1098.31 280.563 1096.51 280.563H1089.94L1091.75 278.559V291.24ZM1113.86 286.23H1124.75V289.581H1113.86V286.23ZM1114.17 295.624H1126.54V299.037H1110.1V277.118H1126.1V280.531H1114.17V295.624ZM1131.08 299.037V277.118H1140.09C1142.04 277.118 1143.69 277.431 1145.07 278.058C1146.47 278.684 1147.55 279.582 1148.3 280.751C1149.05 281.92 1149.43 283.308 1149.43 284.915C1149.43 286.523 1149.05 287.911 1148.3 289.08C1147.55 290.228 1146.47 291.115 1145.07 291.741C1143.69 292.347 1142.04 292.649 1140.09 292.649H1133.33L1135.15 290.802V299.037H1131.08ZM1145.42 299.037L1139.87 291.084H1144.23L1149.8 299.037H1145.42ZM1135.15 291.24L1133.33 289.299H1139.91C1141.7 289.299 1143.05 288.913 1143.95 288.14C1144.86 287.368 1145.32 286.293 1145.32 284.915C1145.32 283.517 1144.86 282.441 1143.95 281.69C1143.05 280.938 1141.7 280.563 1139.91 280.563H1133.33L1135.15 278.559V291.24ZM1150.88 299.037L1160.74 277.118H1164.75L1174.65 299.037H1170.39L1161.9 279.279H1163.53L1155.08 299.037H1150.88ZM1155.42 293.965L1156.52 290.771H1168.35L1169.45 293.965H1155.42ZM1180.78 299.037V280.563H1173.51V277.118H1192.11V280.563H1184.85V299.037H1180.78ZM1195.17 299.037V277.118H1199.24V299.037H1195.17ZM1205.17 299.037V277.118H1208.52L1222.27 293.996H1220.61V277.118H1224.65V299.037H1221.3L1207.55 282.16H1209.21V299.037H1205.17ZM1240.76 299.35C1239.05 299.35 1237.47 299.079 1236.03 298.536C1234.61 297.973 1233.37 297.19 1232.3 296.188C1231.24 295.165 1230.41 293.965 1229.83 292.587C1229.25 291.209 1228.95 289.706 1228.95 288.078C1228.95 286.45 1229.25 284.946 1229.83 283.569C1230.41 282.191 1231.24 281.001 1232.3 279.999C1233.39 278.976 1234.65 278.193 1236.09 277.651C1237.53 277.087 1239.11 276.805 1240.82 276.805C1242.68 276.805 1244.35 277.108 1245.83 277.713C1247.33 278.319 1248.6 279.206 1249.62 280.375L1247.05 282.88C1246.2 282.024 1245.27 281.398 1244.27 281.001C1243.28 280.584 1242.2 280.375 1241.01 280.375C1239.86 280.375 1238.8 280.563 1237.82 280.938C1236.83 281.314 1235.99 281.847 1235.28 282.535C1234.57 283.224 1234.02 284.038 1233.62 284.978C1233.24 285.917 1233.06 286.951 1233.06 288.078C1233.06 289.184 1233.24 290.207 1233.62 291.146C1234.02 292.086 1234.57 292.91 1235.28 293.62C1235.99 294.309 1236.82 294.841 1237.78 295.217C1238.74 295.593 1239.81 295.781 1240.98 295.781C1242.06 295.781 1243.11 295.614 1244.11 295.28C1245.13 294.925 1246.1 294.34 1247.02 293.526L1249.34 296.564C1248.19 297.482 1246.85 298.181 1245.33 298.662C1243.83 299.121 1242.3 299.35 1240.76 299.35ZM1245.49 296.031V287.827H1249.34V296.564L1245.49 296.031ZM1270.16 299.35C1268.44 299.35 1266.81 299.11 1265.24 298.63C1263.67 298.129 1262.43 297.493 1261.51 296.72L1262.92 293.558C1263.8 294.246 1264.88 294.821 1266.18 295.28C1267.47 295.739 1268.8 295.969 1270.16 295.969C1271.3 295.969 1272.23 295.843 1272.94 295.593C1273.65 295.342 1274.17 295.008 1274.51 294.591C1274.84 294.153 1275.01 293.662 1275.01 293.119C1275.01 292.451 1274.77 291.919 1274.29 291.522C1273.81 291.105 1273.18 290.781 1272.41 290.552C1271.66 290.301 1270.81 290.071 1269.87 289.863C1268.96 289.654 1268.03 289.414 1267.09 289.142C1266.17 288.85 1265.32 288.485 1264.55 288.046C1263.8 287.587 1263.18 286.982 1262.7 286.23C1262.22 285.479 1261.98 284.519 1261.98 283.35C1261.98 282.16 1262.3 281.074 1262.92 280.093C1263.57 279.091 1264.54 278.298 1265.83 277.713C1267.15 277.108 1268.81 276.805 1270.81 276.805C1272.13 276.805 1273.43 276.972 1274.73 277.306C1276.02 277.64 1277.15 278.12 1278.11 278.747L1276.83 281.909C1275.84 281.325 1274.83 280.897 1273.79 280.625C1272.74 280.333 1271.74 280.187 1270.78 280.187C1269.66 280.187 1268.74 280.323 1268.03 280.594C1267.34 280.865 1266.83 281.22 1266.49 281.659C1266.18 282.097 1266.02 282.598 1266.02 283.162C1266.02 283.83 1266.25 284.372 1266.71 284.79C1267.19 285.187 1267.81 285.5 1268.56 285.729C1269.33 285.959 1270.19 286.189 1271.13 286.418C1272.07 286.627 1273 286.867 1273.91 287.138C1274.85 287.41 1275.7 287.765 1276.45 288.203C1277.22 288.641 1277.84 289.236 1278.3 289.988C1278.78 290.739 1279.02 291.689 1279.02 292.837C1279.02 294.006 1278.69 295.092 1278.05 296.094C1277.42 297.075 1276.45 297.868 1275.13 298.474C1273.82 299.058 1272.16 299.35 1270.16 299.35ZM1287.98 299.037V290.364L1288.89 292.869L1279.37 277.118H1283.72L1291.36 289.8H1288.92L1296.62 277.118H1300.63L1291.11 292.869L1292.05 290.364V299.037H1287.98ZM1309.63 299.35C1307.92 299.35 1306.28 299.11 1304.72 298.63C1303.15 298.129 1301.91 297.493 1300.99 296.72L1302.4 293.558C1303.28 294.246 1304.36 294.821 1305.66 295.28C1306.95 295.739 1308.28 295.969 1309.63 295.969C1310.78 295.969 1311.71 295.843 1312.42 295.593C1313.13 295.342 1313.65 295.008 1313.99 294.591C1314.32 294.153 1314.49 293.662 1314.49 293.119C1314.49 292.451 1314.25 291.919 1313.77 291.522C1313.29 291.105 1312.66 290.781 1311.89 290.552C1311.14 290.301 1310.29 290.071 1309.35 289.863C1308.43 289.654 1307.5 289.414 1306.56 289.142C1305.65 288.85 1304.8 288.485 1304.03 288.046C1303.28 287.587 1302.66 286.982 1302.18 286.23C1301.7 285.479 1301.46 284.519 1301.46 283.35C1301.46 282.16 1301.77 281.074 1302.4 280.093C1303.05 279.091 1304.02 278.298 1305.31 277.713C1306.63 277.108 1308.29 276.805 1310.29 276.805C1311.61 276.805 1312.91 276.972 1314.21 277.306C1315.5 277.64 1316.63 278.12 1317.59 278.747L1316.3 281.909C1315.32 281.325 1314.31 280.897 1313.27 280.625C1312.22 280.333 1311.22 280.187 1310.26 280.187C1309.13 280.187 1308.21 280.323 1307.5 280.594C1306.82 280.865 1306.3 281.22 1305.97 281.659C1305.66 282.097 1305.5 282.598 1305.5 283.162C1305.5 283.83 1305.73 284.372 1306.19 284.79C1306.67 285.187 1307.29 285.5 1308.04 285.729C1308.81 285.959 1309.66 286.189 1310.6 286.418C1311.54 286.627 1312.47 286.867 1313.39 287.138C1314.33 287.41 1315.18 287.765 1315.93 288.203C1316.7 288.641 1317.32 289.236 1317.78 289.988C1318.26 290.739 1318.5 291.689 1318.5 292.837C1318.5 294.006 1318.17 295.092 1317.52 296.094C1316.9 297.075 1315.93 297.868 1314.61 298.474C1313.3 299.058 1311.64 299.35 1309.63 299.35ZM1326.67 299.037V280.563H1319.41V277.118H1338.01V280.563H1330.74V299.037H1326.67ZM1344.82 286.23H1355.72V289.581H1344.82V286.23ZM1345.13 295.624H1357.5V299.037H1341.06V277.118H1357.06V280.531H1345.13V295.624ZM1362.04 299.037V277.118H1365.39L1374.97 293.119H1373.22L1382.64 277.118H1385.99L1386.03 299.037H1382.17L1382.14 283.162H1382.96L1374.94 296.532H1373.12L1364.98 283.162H1365.92V299.037H1362.04Z" fill="#F8F8F8"/>
<rect x="458.089" y="242.023" width="401.198" height="95.9701" rx="3.26177" fill="#0067A8"/>
<path d="M506.003 299.35C504.291 299.35 502.715 299.069 501.275 298.505C499.835 297.941 498.582 297.159 497.517 296.157C496.453 295.134 495.628 293.944 495.044 292.587C494.459 291.209 494.167 289.706 494.167 288.078C494.167 286.45 494.459 284.957 495.044 283.6C495.628 282.222 496.453 281.032 497.517 280.03C498.582 279.007 499.835 278.214 501.275 277.651C502.715 277.087 504.281 276.805 505.972 276.805C507.684 276.805 509.249 277.087 510.669 277.651C512.109 278.214 513.362 279.007 514.426 280.03C515.491 281.032 516.316 282.222 516.9 283.6C517.485 284.957 517.777 286.45 517.777 288.078C517.777 289.706 517.485 291.209 516.9 292.587C516.316 293.965 515.491 295.155 514.426 296.157C513.362 297.159 512.109 297.941 510.669 298.505C509.249 299.069 507.694 299.35 506.003 299.35ZM505.972 295.781C507.078 295.781 508.101 295.593 509.041 295.217C509.98 294.841 510.794 294.309 511.483 293.62C512.172 292.91 512.704 292.096 513.08 291.178C513.477 290.238 513.675 289.205 513.675 288.078C513.675 286.951 513.477 285.928 513.08 285.009C512.704 284.07 512.172 283.256 511.483 282.567C510.794 281.857 509.98 281.314 509.041 280.938C508.101 280.563 507.078 280.375 505.972 280.375C504.866 280.375 503.843 280.563 502.903 280.938C501.985 281.314 501.171 281.857 500.461 282.567C499.772 283.256 499.229 284.07 498.833 285.009C498.457 285.928 498.269 286.951 498.269 288.078C498.269 289.184 498.457 290.207 498.833 291.146C499.229 292.086 499.772 292.91 500.461 293.62C501.15 294.309 501.964 294.841 502.903 295.217C503.843 295.593 504.866 295.781 505.972 295.781ZM522.092 299.037V277.118H531.11C533.051 277.118 534.711 277.431 536.089 278.058C537.487 278.684 538.562 279.582 539.314 280.751C540.065 281.92 540.441 283.308 540.441 284.915C540.441 286.523 540.065 287.911 539.314 289.08C538.562 290.249 537.487 291.146 536.089 291.773C534.711 292.399 533.051 292.712 531.11 292.712H524.346L526.162 290.802V299.037H522.092ZM526.162 291.24L524.346 289.268H530.922C532.717 289.268 534.064 288.892 534.961 288.14C535.88 287.368 536.339 286.293 536.339 284.915C536.339 283.517 535.88 282.441 534.961 281.69C534.064 280.938 532.717 280.563 530.922 280.563H524.346L526.162 278.559V291.24ZM548.264 286.23H559.161V289.581H548.264V286.23ZM548.577 295.624H560.946V299.037H544.506V277.118H560.507V280.531H548.577V295.624ZM565.484 299.037V277.118H574.502C576.443 277.118 578.103 277.431 579.48 278.058C580.879 278.684 581.954 279.582 582.706 280.751C583.457 281.92 583.833 283.308 583.833 284.915C583.833 286.523 583.457 287.911 582.706 289.08C581.954 290.228 580.879 291.115 579.48 291.741C578.103 292.347 576.443 292.649 574.502 292.649H567.738L569.554 290.802V299.037H565.484ZM579.825 299.037L574.282 291.084H578.635L584.209 299.037H579.825ZM569.554 291.24L567.738 289.299H574.314C576.109 289.299 577.456 288.913 578.353 288.14C579.272 287.368 579.731 286.293 579.731 284.915C579.731 283.517 579.272 282.441 578.353 281.69C577.456 280.938 576.109 280.563 574.314 280.563H567.738L569.554 278.559V291.24ZM585.287 299.037L595.151 277.118H599.159L609.054 299.037H604.795L596.309 279.279H597.938L589.483 299.037H585.287ZM589.828 293.965L590.924 290.771H602.76L603.856 293.965H589.828ZM615.187 299.037V280.563H607.922V277.118H626.522V280.563H619.258V299.037H615.187ZM629.577 299.037V277.118H633.648V299.037H629.577ZM639.577 299.037V277.118H642.927L656.674 293.996H655.014V277.118H659.053V299.037H655.703L641.957 282.16H643.616V299.037H639.577ZM675.166 299.35C673.454 299.35 671.878 299.079 670.438 298.536C669.018 297.973 667.776 297.19 666.712 296.188C665.647 295.165 664.822 293.965 664.238 292.587C663.653 291.209 663.361 289.706 663.361 288.078C663.361 286.45 663.653 284.946 664.238 283.569C664.822 282.191 665.647 281.001 666.712 279.999C667.797 278.976 669.06 278.193 670.501 277.651C671.941 277.087 673.517 276.805 675.229 276.805C677.087 276.805 678.757 277.108 680.239 277.713C681.742 278.319 683.005 279.206 684.028 280.375L681.46 282.88C680.604 282.024 679.675 281.398 678.673 281.001C677.692 280.584 676.607 280.375 675.417 280.375C674.269 280.375 673.204 280.563 672.223 280.938C671.242 281.314 670.396 281.847 669.686 282.535C668.977 283.224 668.423 284.038 668.027 284.978C667.651 285.917 667.463 286.951 667.463 288.078C667.463 289.184 667.651 290.207 668.027 291.146C668.423 292.086 668.977 292.91 669.686 293.62C670.396 294.309 671.231 294.841 672.191 295.217C673.152 295.593 674.216 295.781 675.385 295.781C676.471 295.781 677.515 295.614 678.517 295.28C679.54 294.925 680.51 294.34 681.429 293.526L683.746 296.564C682.598 297.482 681.262 298.181 679.738 298.662C678.235 299.121 676.711 299.35 675.166 299.35ZM679.894 296.031V287.827H683.746V296.564L679.894 296.031ZM704.564 299.35C702.852 299.35 701.213 299.11 699.648 298.63C698.082 298.129 696.84 297.493 695.921 296.72L697.33 293.558C698.207 294.246 699.293 294.821 700.587 295.28C701.881 295.739 703.207 295.969 704.564 295.969C705.712 295.969 706.641 295.843 707.351 295.593C708.06 295.342 708.582 295.008 708.916 294.591C709.25 294.153 709.417 293.662 709.417 293.119C709.417 292.451 709.177 291.919 708.697 291.522C708.217 291.105 707.591 290.781 706.818 290.552C706.067 290.301 705.221 290.071 704.282 289.863C703.363 289.654 702.434 289.414 701.495 289.142C700.577 288.85 699.731 288.485 698.959 288.046C698.207 287.587 697.591 286.982 697.111 286.23C696.631 285.479 696.391 284.519 696.391 283.35C696.391 282.16 696.704 281.074 697.33 280.093C697.978 279.091 698.948 278.298 700.243 277.713C701.558 277.108 703.217 276.805 705.221 276.805C706.536 276.805 707.841 276.972 709.135 277.306C710.43 277.64 711.557 278.12 712.517 278.747L711.233 281.909C710.252 281.325 709.24 280.897 708.196 280.625C707.152 280.333 706.15 280.187 705.19 280.187C704.063 280.187 703.144 280.323 702.434 280.594C701.746 280.865 701.234 281.22 700.9 281.659C700.587 282.097 700.43 282.598 700.43 283.162C700.43 283.83 700.66 284.372 701.119 284.79C701.599 285.187 702.215 285.5 702.967 285.729C703.739 285.959 704.595 286.189 705.534 286.418C706.474 286.627 707.403 286.867 708.321 287.138C709.261 287.41 710.106 287.765 710.858 288.203C711.63 288.641 712.246 289.236 712.705 289.988C713.185 290.739 713.425 291.689 713.425 292.837C713.425 294.006 713.102 295.092 712.455 296.094C711.828 297.075 710.858 297.868 709.542 298.474C708.227 299.058 706.568 299.35 704.564 299.35ZM722.389 299.037V290.364L723.297 292.869L713.778 277.118H718.13L725.771 289.8H723.328L731.031 277.118H735.039L725.52 292.869L726.46 290.364V299.037H722.389ZM744.041 299.35C742.33 299.35 740.691 299.11 739.125 298.63C737.56 298.129 736.317 297.493 735.399 296.72L736.808 293.558C737.685 294.246 738.77 294.821 740.065 295.28C741.359 295.739 742.684 295.969 744.041 295.969C745.19 295.969 746.118 295.843 746.828 295.593C747.538 295.342 748.06 295.008 748.394 294.591C748.728 294.153 748.895 293.662 748.895 293.119C748.895 292.451 748.655 291.919 748.175 291.522C747.695 291.105 747.068 290.781 746.296 290.552C745.544 290.301 744.699 290.071 743.76 289.863C742.841 289.654 741.912 289.414 740.973 289.142C740.054 288.85 739.209 288.485 738.436 288.046C737.685 287.587 737.069 286.982 736.589 286.23C736.109 285.479 735.869 284.519 735.869 283.35C735.869 282.16 736.182 281.074 736.808 280.093C737.455 279.091 738.426 278.298 739.72 277.713C741.035 277.108 742.695 276.805 744.699 276.805C746.014 276.805 747.319 276.972 748.613 277.306C749.907 277.64 751.035 278.12 751.995 278.747L750.711 281.909C749.73 281.325 748.717 280.897 747.674 280.625C746.63 280.333 745.628 280.187 744.668 280.187C743.54 280.187 742.622 280.323 741.912 280.594C741.223 280.865 740.712 281.22 740.378 281.659C740.065 282.097 739.908 282.598 739.908 283.162C739.908 283.83 740.138 284.372 740.597 284.79C741.077 285.187 741.693 285.5 742.444 285.729C743.217 285.959 744.073 286.189 745.012 286.418C745.951 286.627 746.88 286.867 747.799 287.138C748.738 287.41 749.584 287.765 750.335 288.203C751.108 288.641 751.724 289.236 752.183 289.988C752.663 290.739 752.903 291.689 752.903 292.837C752.903 294.006 752.579 295.092 751.932 296.094C751.306 297.075 750.335 297.868 749.02 298.474C747.705 299.058 746.045 299.35 744.041 299.35ZM761.08 299.037V280.563H753.815V277.118H772.415V280.563H765.151V299.037H761.08ZM779.228 286.23H790.125V289.581H779.228V286.23ZM779.541 295.624H791.91V299.037H775.47V277.118H791.471V280.531H779.541V295.624ZM796.448 299.037V277.118H799.798L809.38 293.119H807.626L817.052 277.118H820.402L820.433 299.037H816.582L816.551 283.162H817.365L809.349 296.532H807.532L799.391 283.162H800.33V299.037H796.448Z" fill="#F8F8F8"/>
<rect x="458.089" y="403.807" width="401.198" height="95.9701" rx="3.26177" fill="#FB6233"/>
<path d="M577.006 438.902H581.077V460.821H577.006V438.902ZM565.671 460.821H561.6V438.902H565.671V460.821ZM577.319 451.427H565.326V447.951H577.319V451.427ZM583.85 460.821L593.714 438.902H597.722L607.617 460.821H603.358L594.872 441.063H596.501L588.046 460.821H583.85ZM588.39 455.748L589.486 452.554H601.323L602.419 455.748H588.39ZM610.404 460.821V438.902H619.422C621.364 438.902 623.023 439.215 624.401 439.841C625.8 440.468 626.875 441.365 627.626 442.534C628.378 443.703 628.754 445.091 628.754 446.699C628.754 448.306 628.378 449.694 627.626 450.864C626.875 452.012 625.8 452.899 624.401 453.525C623.023 454.13 621.364 454.433 619.422 454.433H612.659L614.475 452.586V460.821H610.404ZM624.746 460.821L619.203 452.868H623.556L629.129 460.821H624.746ZM614.475 453.024L612.659 451.083H619.235C621.03 451.083 622.376 450.697 623.274 449.924C624.192 449.152 624.652 448.077 624.652 446.699C624.652 445.3 624.192 444.225 623.274 443.474C622.376 442.722 621.03 442.346 619.235 442.346H612.659L614.475 440.342V453.024ZM633.308 460.821V438.902H642.89C645.27 438.902 647.357 439.361 649.152 440.28C650.948 441.198 652.346 442.472 653.348 444.1C654.35 445.728 654.851 447.649 654.851 449.861C654.851 452.053 654.35 453.974 653.348 455.623C652.346 457.251 650.948 458.525 649.152 459.443C647.357 460.362 645.27 460.821 642.89 460.821H633.308ZM637.379 457.377H642.702C644.351 457.377 645.771 457.063 646.96 456.437C648.171 455.811 649.1 454.934 649.747 453.807C650.415 452.68 650.749 451.365 650.749 449.861C650.749 448.338 650.415 447.022 649.747 445.916C649.1 444.789 648.171 443.912 646.96 443.286C645.771 442.659 644.351 442.346 642.702 442.346H637.379V457.377ZM663.672 460.821L656.407 438.902H660.634L667.116 458.723H665.018L671.751 438.902H675.508L682.053 458.723H680.017L686.656 438.902H690.538L683.274 460.821H678.953L672.972 442.941H674.099L668.024 460.821H663.672ZM690.051 460.821L699.915 438.902H703.923L713.818 460.821H709.559L701.074 441.063H702.702L694.247 460.821H690.051ZM694.592 455.748L695.688 452.554H707.524L708.62 455.748H694.592ZM716.606 460.821V438.902H725.624C727.565 438.902 729.225 439.215 730.602 439.841C732.001 440.468 733.076 441.365 733.828 442.534C734.579 443.703 734.955 445.091 734.955 446.699C734.955 448.306 734.579 449.694 733.828 450.864C733.076 452.012 732.001 452.899 730.602 453.525C729.225 454.13 727.565 454.433 725.624 454.433H718.86L720.676 452.586V460.821H716.606ZM730.947 460.821L725.404 452.868H729.757L735.331 460.821H730.947ZM720.676 453.024L718.86 451.083H725.436C727.231 451.083 728.578 450.697 729.475 449.924C730.394 449.152 730.853 448.077 730.853 446.699C730.853 445.3 730.394 444.225 729.475 443.474C728.578 442.722 727.231 442.346 725.436 442.346H718.86L720.676 440.342V453.024ZM743.267 448.014H754.164V451.365H743.267V448.014ZM743.58 457.408H755.949V460.821H739.509V438.902H755.51V442.315H743.58V457.408Z" fill="#F8F8F8"/>
<rect x="0.788086" y="574.072" width="401.198" height="95.9701" rx="3.26177" fill="#FB6233"/>
<path d="M178.967 631.399C177.297 631.399 175.742 631.127 174.301 630.585C172.882 630.021 171.64 629.238 170.575 628.236C169.531 627.213 168.717 626.013 168.133 624.635C167.548 623.257 167.256 621.754 167.256 620.126C167.256 618.498 167.548 616.995 168.133 615.617C168.717 614.239 169.542 613.049 170.606 612.047C171.671 611.024 172.913 610.242 174.333 609.699C175.752 609.135 177.307 608.853 178.998 608.853C180.794 608.853 182.432 609.167 183.915 609.793C185.397 610.398 186.649 611.306 187.672 612.517L185.042 614.991C184.249 614.135 183.361 613.498 182.38 613.081C181.399 612.642 180.334 612.423 179.186 612.423C178.038 612.423 176.984 612.611 176.024 612.987C175.084 613.363 174.26 613.895 173.55 614.584C172.861 615.273 172.318 616.087 171.922 617.026C171.546 617.966 171.358 618.999 171.358 620.126C171.358 621.253 171.546 622.287 171.922 623.226C172.318 624.166 172.861 624.98 173.55 625.669C174.26 626.357 175.084 626.89 176.024 627.266C176.984 627.641 178.038 627.829 179.186 627.829C180.334 627.829 181.399 627.62 182.38 627.203C183.361 626.764 184.249 626.107 185.042 625.23L187.672 627.735C186.649 628.925 185.397 629.833 183.915 630.459C182.432 631.086 180.783 631.399 178.967 631.399ZM191.572 631.086V609.167H200.591C202.532 609.167 204.192 609.48 205.569 610.106C206.968 610.732 208.043 611.63 208.795 612.799C209.546 613.968 209.922 615.356 209.922 616.964C209.922 618.571 209.546 619.959 208.795 621.128C208.043 622.297 206.968 623.195 205.569 623.821C204.192 624.447 202.532 624.76 200.591 624.76H193.827L195.643 622.85V631.086H191.572ZM195.643 623.289L193.827 621.316H200.403C202.198 621.316 203.545 620.94 204.442 620.189C205.361 619.416 205.82 618.341 205.82 616.964C205.82 615.565 205.361 614.49 204.442 613.738C203.545 612.987 202.198 612.611 200.403 612.611H193.827L195.643 610.607V623.289ZM223.382 631.399C220.376 631.399 218.017 630.553 216.305 628.862C214.614 627.172 213.769 624.729 213.769 621.535V609.167H217.839V621.379C217.839 623.633 218.319 625.272 219.28 626.295C220.261 627.318 221.639 627.829 223.413 627.829C225.187 627.829 226.555 627.318 227.515 626.295C228.475 625.272 228.955 623.633 228.955 621.379V609.167H232.963V621.535C232.963 624.729 232.108 627.172 230.396 628.862C228.705 630.553 226.367 631.399 223.382 631.399Z" fill="#F8F8F8"/>
<rect x="0.788086" y="692.148" width="401.198" height="95.9701" rx="3.26177" fill="#FB6233"/>
<path d="M165.611 749.162V727.243H174.629C176.57 727.243 178.23 727.556 179.608 728.182C181.006 728.809 182.081 729.706 182.833 730.875C183.584 732.044 183.96 733.432 183.96 735.04C183.96 736.647 183.584 738.035 182.833 739.204C182.081 740.353 181.006 741.24 179.608 741.866C178.23 742.471 176.57 742.774 174.629 742.774H167.865L169.682 740.927V749.162H165.611ZM179.952 749.162L174.41 741.208H178.762L184.336 749.162H179.952ZM169.682 741.365L167.865 739.424H174.441C176.236 739.424 177.583 739.037 178.48 738.265C179.399 737.493 179.858 736.418 179.858 735.04C179.858 733.641 179.399 732.566 178.48 731.815C177.583 731.063 176.236 730.687 174.441 730.687H167.865L169.682 728.683V741.365ZM185.415 749.162L195.278 727.243H199.286L209.181 749.162H204.923L196.437 729.403H198.065L189.611 749.162H185.415ZM189.955 744.089L191.051 740.895H202.887L203.983 744.089H189.955ZM211.969 749.162V727.243H215.319L224.901 743.244H223.148L232.573 727.243H235.923L235.955 749.162H232.103L232.072 733.286H232.886L224.87 746.657H223.054L214.912 733.286H215.852V749.162H211.969Z" fill="#F8F8F8"/>
<rect x="0.788086" y="810.224" width="401.198" height="95.9701" rx="3.26177" fill="#FB6233"/>
<path d="M132.79 867.551C131.079 867.551 129.44 867.311 127.874 866.831C126.309 866.33 125.067 865.693 124.148 864.921L125.557 861.758C126.434 862.447 127.519 863.021 128.814 863.481C130.108 863.94 131.434 864.169 132.79 864.169C133.939 864.169 134.868 864.044 135.577 863.794C136.287 863.543 136.809 863.209 137.143 862.792C137.477 862.353 137.644 861.863 137.644 861.32C137.644 860.652 137.404 860.12 136.924 859.723C136.444 859.306 135.817 858.982 135.045 858.752C134.294 858.502 133.448 858.272 132.509 858.063C131.59 857.855 130.661 857.615 129.722 857.343C128.803 857.051 127.958 856.686 127.185 856.247C126.434 855.788 125.818 855.183 125.338 854.431C124.858 853.68 124.618 852.719 124.618 851.55C124.618 850.36 124.931 849.275 125.557 848.294C126.204 847.292 127.175 846.499 128.469 845.914C129.784 845.309 131.444 845.006 133.448 845.006C134.763 845.006 136.068 845.173 137.362 845.507C138.656 845.841 139.784 846.321 140.744 846.947L139.46 850.11C138.479 849.525 137.467 849.097 136.423 848.826C135.379 848.534 134.377 848.388 133.417 848.388C132.289 848.388 131.371 848.523 130.661 848.795C129.972 849.066 129.461 849.421 129.127 849.859C128.814 850.298 128.657 850.799 128.657 851.362C128.657 852.03 128.887 852.573 129.346 852.991C129.826 853.387 130.442 853.7 131.194 853.93C131.966 854.16 132.822 854.389 133.761 854.619C134.701 854.828 135.63 855.068 136.548 855.339C137.487 855.611 138.333 855.965 139.084 856.404C139.857 856.842 140.473 857.437 140.932 858.189C141.412 858.94 141.652 859.89 141.652 861.038C141.652 862.207 141.329 863.293 140.681 864.295C140.055 865.276 139.084 866.069 137.769 866.675C136.454 867.259 134.795 867.551 132.79 867.551ZM149.829 867.238V848.763H142.565V845.319H161.164V848.763H153.9V867.238H149.829ZM174.184 867.551C172.473 867.551 170.896 867.269 169.456 866.706C168.016 866.142 166.763 865.359 165.699 864.357C164.634 863.334 163.809 862.145 163.225 860.788C162.64 859.41 162.348 857.907 162.348 856.279C162.348 854.65 162.64 853.158 163.225 851.801C163.809 850.423 164.634 849.233 165.699 848.231C166.763 847.208 168.016 846.415 169.456 845.851C170.896 845.288 172.462 845.006 174.153 845.006C175.865 845.006 177.43 845.288 178.85 845.851C180.29 846.415 181.543 847.208 182.608 848.231C183.672 849.233 184.497 850.423 185.081 851.801C185.666 853.158 185.958 854.65 185.958 856.279C185.958 857.907 185.666 859.41 185.081 860.788C184.497 862.165 183.672 863.355 182.608 864.357C181.543 865.359 180.29 866.142 178.85 866.706C177.43 867.269 175.875 867.551 174.184 867.551ZM174.153 863.982C175.259 863.982 176.282 863.794 177.222 863.418C178.161 863.042 178.975 862.51 179.664 861.821C180.353 861.111 180.885 860.297 181.261 859.379C181.658 858.439 181.856 857.406 181.856 856.279C181.856 855.151 181.658 854.128 181.261 853.21C180.885 852.271 180.353 851.456 179.664 850.768C178.975 850.058 178.161 849.515 177.222 849.139C176.282 848.763 175.259 848.576 174.153 848.576C173.047 848.576 172.024 848.763 171.084 849.139C170.166 849.515 169.352 850.058 168.642 850.768C167.953 851.456 167.41 852.271 167.014 853.21C166.638 854.128 166.45 855.151 166.45 856.279C166.45 857.385 166.638 858.408 167.014 859.347C167.41 860.287 167.953 861.111 168.642 861.821C169.331 862.51 170.145 863.042 171.084 863.418C172.024 863.794 173.047 863.982 174.153 863.982ZM190.273 867.238V845.319H199.291C201.232 845.319 202.892 845.632 204.27 846.258C205.668 846.885 206.744 847.782 207.495 848.951C208.247 850.12 208.622 851.509 208.622 853.116C208.622 854.723 208.247 856.112 207.495 857.281C206.744 858.429 205.668 859.316 204.27 859.942C202.892 860.548 201.232 860.85 199.291 860.85H192.527L194.344 859.003V867.238H190.273ZM204.614 867.238L199.072 859.285H203.424L208.998 867.238H204.614ZM194.344 859.441L192.527 857.5H199.103C200.898 857.5 202.245 857.114 203.143 856.341C204.061 855.569 204.52 854.494 204.52 853.116C204.52 851.717 204.061 850.642 203.143 849.891C202.245 849.139 200.898 848.763 199.103 848.763H192.527L194.344 846.759V859.441ZM210.077 867.238L219.94 845.319H223.948L233.843 867.238H229.585L221.099 847.48H222.727L214.273 867.238H210.077ZM214.617 862.165L215.713 858.972H227.549L228.645 862.165H214.617ZM246.564 867.551C244.853 867.551 243.277 867.28 241.836 866.737C240.417 866.174 239.175 865.391 238.11 864.389C237.045 863.366 236.221 862.165 235.636 860.788C235.052 859.41 234.759 857.907 234.759 856.279C234.759 854.65 235.052 853.147 235.636 851.77C236.221 850.392 237.045 849.202 238.11 848.2C239.195 847.177 240.458 846.394 241.899 845.851C243.339 845.288 244.915 845.006 246.627 845.006C248.485 845.006 250.155 845.309 251.637 845.914C253.14 846.519 254.403 847.407 255.426 848.576L252.858 851.081C252.002 850.225 251.073 849.598 250.071 849.202C249.09 848.784 248.005 848.576 246.815 848.576C245.667 848.576 244.602 848.763 243.621 849.139C242.64 849.515 241.794 850.047 241.085 850.736C240.375 851.425 239.822 852.239 239.425 853.179C239.049 854.118 238.861 855.151 238.861 856.279C238.861 857.385 239.049 858.408 239.425 859.347C239.822 860.287 240.375 861.111 241.085 861.821C241.794 862.51 242.629 863.042 243.59 863.418C244.55 863.794 245.615 863.982 246.784 863.982C247.869 863.982 248.913 863.815 249.915 863.481C250.938 863.126 251.908 862.541 252.827 861.727L255.144 864.764C253.996 865.683 252.66 866.382 251.136 866.862C249.633 867.322 248.109 867.551 246.564 867.551ZM251.293 864.232V856.028H255.144V864.764L251.293 864.232ZM264.271 854.431H275.168V857.782H264.271V854.431ZM264.584 863.825H276.952V867.238H260.513V845.319H276.514V848.732H264.584V863.825Z" fill="#F8F8F8"/>
<rect x="0.788086" y="928.301" width="401.198" height="95.9701" rx="3.26177" fill="#FB6233"/>
<path d="M70.6779 985.314V963.395H74.0284L83.6102 979.396H81.8567L91.2819 963.395H94.6324L94.6637 985.314H90.8122L90.7809 969.439H91.595L83.5789 982.809H81.7627L73.6214 969.439H74.5608V985.314H70.6779ZM110.855 985.627C109.143 985.627 107.567 985.346 106.127 984.782C104.686 984.218 103.434 983.436 102.369 982.434C101.305 981.411 100.48 980.221 99.8954 978.864C99.3109 977.486 99.0187 975.983 99.0187 974.355C99.0187 972.726 99.3109 971.234 99.8954 969.877C100.48 968.499 101.305 967.309 102.369 966.307C103.434 965.284 104.686 964.491 106.127 963.928C107.567 963.364 109.133 963.082 110.824 963.082C112.535 963.082 114.101 963.364 115.521 963.928C116.961 964.491 118.214 965.284 119.278 966.307C120.343 967.309 121.167 968.499 121.752 969.877C122.336 971.234 122.629 972.726 122.629 974.355C122.629 975.983 122.336 977.486 121.752 978.864C121.167 980.242 120.343 981.432 119.278 982.434C118.214 983.436 116.961 984.218 115.521 984.782C114.101 985.346 112.546 985.627 110.855 985.627ZM110.824 982.058C111.93 982.058 112.953 981.87 113.892 981.494C114.832 981.118 115.646 980.586 116.335 979.897C117.024 979.187 117.556 978.373 117.932 977.455C118.328 976.515 118.527 975.482 118.527 974.355C118.527 973.228 118.328 972.205 117.932 971.286C117.556 970.347 117.024 969.533 116.335 968.844C115.646 968.134 114.832 967.591 113.892 967.215C112.953 966.84 111.93 966.652 110.824 966.652C109.717 966.652 108.694 966.84 107.755 967.215C106.836 967.591 106.022 968.134 105.313 968.844C104.624 969.533 104.081 970.347 103.684 971.286C103.309 972.205 103.121 973.228 103.121 974.355C103.121 975.461 103.309 976.484 103.684 977.423C104.081 978.363 104.624 979.187 105.313 979.897C106.001 980.586 106.816 981.118 107.755 981.494C108.694 981.87 109.717 982.058 110.824 982.058ZM131.084 985.314V966.84H123.82V963.395H142.419V966.84H135.155V985.314H131.084ZM160.88 963.395H164.951V985.314H160.88V963.395ZM149.545 985.314H145.474V963.395H149.545V985.314ZM161.194 975.92H149.201V972.445H161.194V975.92ZM174.582 972.507H185.479V975.858H174.582V972.507ZM174.895 981.901H187.264V985.314H170.825V963.395H186.826V966.808H174.895V981.901ZM191.802 985.314V963.395H200.82C202.761 963.395 204.421 963.708 205.799 964.335C207.197 964.961 208.272 965.859 209.024 967.028C209.776 968.197 210.151 969.585 210.151 971.192C210.151 972.8 209.776 974.188 209.024 975.357C208.272 976.505 207.197 977.392 205.799 978.018C204.421 978.624 202.761 978.926 200.82 978.926H194.056L195.873 977.079V985.314H191.802ZM206.143 985.314L200.601 977.361H204.953L210.527 985.314H206.143ZM195.873 977.517L194.056 975.576H200.632C202.427 975.576 203.774 975.19 204.671 974.417C205.59 973.645 206.049 972.57 206.049 971.192C206.049 969.794 205.59 968.718 204.671 967.967C203.774 967.215 202.427 966.84 200.632 966.84H194.056L195.873 964.836V977.517ZM214.706 985.314V963.395H224.976C227.607 963.395 229.611 963.917 230.988 964.961C232.366 965.984 233.055 967.362 233.055 969.094C233.055 970.263 232.784 971.265 232.241 972.1C231.698 972.914 230.967 973.551 230.049 974.01C229.151 974.449 228.17 974.668 227.106 974.668L227.669 973.541C228.901 973.541 230.007 973.77 230.988 974.23C231.97 974.668 232.742 975.315 233.306 976.171C233.89 977.027 234.182 978.091 234.182 979.365C234.182 981.244 233.462 982.705 232.022 983.749C230.581 984.792 228.442 985.314 225.603 985.314H214.706ZM218.776 982.12H225.352C226.876 982.12 228.045 981.87 228.859 981.369C229.673 980.868 230.08 980.064 230.08 978.958C230.08 977.872 229.673 977.079 228.859 976.578C228.045 976.056 226.876 975.795 225.352 975.795H218.463V972.633H224.538C225.957 972.633 227.043 972.382 227.794 971.881C228.567 971.38 228.953 970.629 228.953 969.627C228.953 968.604 228.567 967.842 227.794 967.341C227.043 966.84 225.957 966.589 224.538 966.589H218.776V982.12ZM248.797 985.627C247.086 985.627 245.51 985.346 244.069 984.782C242.629 984.218 241.376 983.436 240.312 982.434C239.247 981.411 238.422 980.221 237.838 978.864C237.253 977.486 236.961 975.983 236.961 974.355C236.961 972.726 237.253 971.234 237.838 969.877C238.422 968.499 239.247 967.309 240.312 966.307C241.376 965.284 242.629 964.491 244.069 963.928C245.51 963.364 247.075 963.082 248.766 963.082C250.478 963.082 252.044 963.364 253.463 963.928C254.903 964.491 256.156 965.284 257.221 966.307C258.285 967.309 259.11 968.499 259.694 969.877C260.279 971.234 260.571 972.726 260.571 974.355C260.571 975.983 260.279 977.486 259.694 978.864C259.11 980.242 258.285 981.432 257.221 982.434C256.156 983.436 254.903 984.218 253.463 984.782C252.044 985.346 250.488 985.627 248.797 985.627ZM248.766 982.058C249.872 982.058 250.895 981.87 251.835 981.494C252.774 981.118 253.588 980.586 254.277 979.897C254.966 979.187 255.498 978.373 255.874 977.455C256.271 976.515 256.469 975.482 256.469 974.355C256.469 973.228 256.271 972.205 255.874 971.286C255.498 970.347 254.966 969.533 254.277 968.844C253.588 968.134 252.774 967.591 251.835 967.215C250.895 966.84 249.872 966.652 248.766 966.652C247.66 966.652 246.637 966.84 245.697 967.215C244.779 967.591 243.965 968.134 243.255 968.844C242.566 969.533 242.023 970.347 241.627 971.286C241.251 972.205 241.063 973.228 241.063 974.355C241.063 975.461 241.251 976.484 241.627 977.423C242.023 978.363 242.566 979.187 243.255 979.897C243.944 980.586 244.758 981.118 245.697 981.494C246.637 981.87 247.66 982.058 248.766 982.058ZM261.48 985.314L271.344 963.395H275.352L285.247 985.314H280.988L272.502 965.556H274.131L265.676 985.314H261.48ZM266.021 980.242L267.116 977.048H278.953L280.049 980.242H266.021ZM288.034 985.314V963.395H297.052C298.994 963.395 300.653 963.708 302.031 964.335C303.43 964.961 304.505 965.859 305.256 967.028C306.008 968.197 306.384 969.585 306.384 971.192C306.384 972.8 306.008 974.188 305.256 975.357C304.505 976.505 303.43 977.392 302.031 978.018C300.653 978.624 298.994 978.926 297.052 978.926H290.289L292.105 977.079V985.314H288.034ZM302.376 985.314L296.833 977.361H301.186L306.76 985.314H302.376ZM292.105 977.517L290.289 975.576H296.865C298.66 975.576 300.006 975.19 300.904 974.417C301.823 973.645 302.282 972.57 302.282 971.192C302.282 969.794 301.823 968.718 300.904 967.967C300.006 967.215 298.66 966.84 296.865 966.84H290.289L292.105 964.836V977.517ZM310.938 985.314V963.395H320.52C322.9 963.395 324.987 963.854 326.783 964.773C328.578 965.692 329.976 966.965 330.978 968.593C331.98 970.221 332.481 972.142 332.481 974.355C332.481 976.547 331.98 978.467 330.978 980.116C329.976 981.745 328.578 983.018 326.783 983.937C324.987 984.855 322.9 985.314 320.52 985.314H310.938ZM315.009 981.87H320.332C321.981 981.87 323.401 981.557 324.591 980.931C325.801 980.304 326.73 979.427 327.377 978.3C328.045 977.173 328.379 975.858 328.379 974.355C328.379 972.831 328.045 971.516 327.377 970.409C326.73 969.282 325.801 968.405 324.591 967.779C323.401 967.153 321.981 966.84 320.332 966.84H315.009V981.87Z" fill="#F8F8F8"/>
<rect x="0.788086" y="1046.38" width="401.198" height="95.9701" rx="3.26177" fill="#FB6233"/>
<path d="M96.1503 1103.39V1081.47H105.168C107.11 1081.47 108.769 1081.78 110.147 1082.41C111.546 1083.04 112.621 1083.93 113.373 1085.1C114.124 1086.27 114.5 1087.66 114.5 1089.27C114.5 1090.88 114.124 1092.26 113.373 1093.43C112.621 1094.6 111.546 1095.5 110.147 1096.13C108.769 1096.75 107.11 1097.07 105.168 1097.07H98.4049L100.221 1095.16V1103.39H96.1503ZM100.221 1095.59L98.4049 1093.62H104.981C106.776 1093.62 108.122 1093.25 109.02 1092.49C109.939 1091.72 110.398 1090.65 110.398 1089.27C110.398 1087.87 109.939 1086.79 109.02 1086.04C108.122 1085.29 106.776 1084.92 104.981 1084.92H98.4049L100.221 1082.91V1095.59ZM129.141 1103.7C127.43 1103.7 125.853 1103.42 124.413 1102.86C122.973 1102.29 121.72 1101.51 120.655 1100.51C119.591 1099.49 118.766 1098.3 118.182 1096.94C117.597 1095.56 117.305 1094.06 117.305 1092.43C117.305 1090.8 117.597 1089.31 118.182 1087.95C118.766 1086.58 119.591 1085.39 120.655 1084.38C121.72 1083.36 122.973 1082.57 124.413 1082C125.853 1081.44 127.419 1081.16 129.11 1081.16C130.822 1081.16 132.387 1081.44 133.807 1082C135.247 1082.57 136.5 1083.36 137.565 1084.38C138.629 1085.39 139.454 1086.58 140.038 1087.95C140.623 1089.31 140.915 1090.8 140.915 1092.43C140.915 1094.06 140.623 1095.56 140.038 1096.94C139.454 1098.32 138.629 1099.51 137.565 1100.51C136.5 1101.51 135.247 1102.29 133.807 1102.86C132.387 1103.42 130.832 1103.7 129.141 1103.7ZM129.11 1100.13C130.216 1100.13 131.239 1099.95 132.179 1099.57C133.118 1099.19 133.932 1098.66 134.621 1097.97C135.31 1097.26 135.842 1096.45 136.218 1095.53C136.615 1094.59 136.813 1093.56 136.813 1092.43C136.813 1091.3 136.615 1090.28 136.218 1089.36C135.842 1088.42 135.31 1087.61 134.621 1086.92C133.932 1086.21 133.118 1085.67 132.179 1085.29C131.239 1084.92 130.216 1084.73 129.11 1084.73C128.004 1084.73 126.981 1084.92 126.041 1085.29C125.123 1085.67 124.309 1086.21 123.599 1086.92C122.91 1087.61 122.367 1088.42 121.971 1089.36C121.595 1090.28 121.407 1091.3 121.407 1092.43C121.407 1093.54 121.595 1094.56 121.971 1095.5C122.367 1096.44 122.91 1097.26 123.599 1097.97C124.288 1098.66 125.102 1099.19 126.041 1099.57C126.981 1099.95 128.004 1100.13 129.11 1100.13ZM149.724 1103.39L142.459 1081.47H146.686L153.168 1101.29H151.07L157.803 1081.47H161.56L168.104 1101.29H166.069L172.708 1081.47H176.59L169.326 1103.39H165.005L159.024 1085.51H160.151L154.076 1103.39H149.724ZM183.664 1090.58H194.561V1093.93H183.664V1090.58ZM183.977 1099.98H196.346V1103.39H179.907V1081.47H195.908V1084.88H183.977V1099.98ZM200.884 1103.39V1081.47H209.902C211.843 1081.47 213.503 1081.78 214.881 1082.41C216.279 1083.04 217.354 1083.93 218.106 1085.1C218.858 1086.27 219.233 1087.66 219.233 1089.27C219.233 1090.88 218.858 1092.26 218.106 1093.43C217.354 1094.58 216.279 1095.47 214.881 1096.09C213.503 1096.7 211.843 1097 209.902 1097H203.138L204.955 1095.16V1103.39H200.884ZM215.225 1103.39L209.683 1095.44H214.035L219.609 1103.39H215.225ZM204.955 1095.59L203.138 1093.65H209.714C211.509 1093.65 212.856 1093.27 213.753 1092.49C214.672 1091.72 215.131 1090.65 215.131 1089.27C215.131 1087.87 214.672 1086.79 213.753 1086.04C212.856 1085.29 211.509 1084.92 209.714 1084.92H203.138L204.955 1082.91V1095.59ZM241.867 1103.7C238.861 1103.7 236.502 1102.86 234.79 1101.17C233.099 1099.48 232.254 1097.03 232.254 1093.84V1081.47H236.324V1093.68C236.324 1095.94 236.804 1097.58 237.765 1098.6C238.746 1099.62 240.124 1100.13 241.898 1100.13C243.672 1100.13 245.04 1099.62 246 1098.6C246.96 1097.58 247.44 1095.94 247.44 1093.68V1081.47H251.449V1093.84C251.449 1097.03 250.593 1099.48 248.881 1101.17C247.19 1102.86 244.852 1103.7 241.867 1103.7ZM257.149 1103.39V1081.47H260.5L274.246 1098.35H272.587V1081.47H276.626V1103.39H273.276L259.529 1086.51H261.189V1103.39H257.149ZM282.5 1103.39V1081.47H286.57V1103.39H282.5ZM296.945 1103.39V1084.92H289.681V1081.47H308.281V1084.92H301.016V1103.39H296.945Z" fill="#F8F8F8"/>
<rect x="0.788086" y="1164.45" width="401.198" height="95.9701" rx="3.26177" fill="#FB6233"/>
<path d="M77.8182 1221.47V1199.55H81.8889V1221.47H77.8182ZM87.8175 1221.47V1199.55H91.168L104.914 1216.43H103.255V1199.55H107.294V1221.47H103.944L90.1973 1204.59H91.8569V1221.47H87.8175ZM113.168 1221.47V1199.55H122.186C124.127 1199.55 125.787 1199.86 127.165 1200.49C128.563 1201.11 129.638 1202.01 130.39 1203.18C131.141 1204.35 131.517 1205.74 131.517 1207.34C131.517 1208.95 131.141 1210.34 130.39 1211.51C129.638 1212.68 128.563 1213.58 127.165 1214.2C125.787 1214.83 124.127 1215.14 122.186 1215.14H115.422L117.238 1213.23V1221.47H113.168ZM117.238 1213.67L115.422 1211.7H121.998C123.793 1211.7 125.14 1211.32 126.037 1210.57C126.956 1209.8 127.415 1208.72 127.415 1207.34C127.415 1205.95 126.956 1204.87 126.037 1204.12C125.14 1203.37 123.793 1202.99 121.998 1202.99H115.422L117.238 1200.99V1213.67ZM144.977 1221.78C141.971 1221.78 139.612 1220.93 137.9 1219.24C136.209 1217.55 135.364 1215.11 135.364 1211.92V1199.55H139.434V1211.76C139.434 1214.01 139.914 1215.65 140.875 1216.68C141.856 1217.7 143.234 1218.21 145.008 1218.21C146.782 1218.21 148.15 1217.7 149.11 1216.68C150.07 1215.65 150.55 1214.01 150.55 1211.76V1199.55H154.559V1211.92C154.559 1215.11 153.703 1217.55 151.991 1219.24C150.3 1220.93 147.962 1221.78 144.977 1221.78ZM164.308 1221.47V1202.99H157.044V1199.55H175.644V1202.99H168.379V1221.47H164.308ZM187.353 1221.47V1199.55H196.934C199.314 1199.55 201.402 1200.01 203.197 1200.93C204.992 1201.84 206.391 1203.12 207.393 1204.75C208.395 1206.37 208.896 1208.29 208.896 1210.51C208.896 1212.7 208.395 1214.62 207.393 1216.27C206.391 1217.9 204.992 1219.17 203.197 1220.09C201.402 1221.01 199.314 1221.47 196.934 1221.47H187.353ZM191.423 1218.02H196.746C198.396 1218.02 199.815 1217.71 201.005 1217.08C202.216 1216.46 203.145 1215.58 203.792 1214.45C204.46 1213.33 204.794 1212.01 204.794 1210.51C204.794 1208.98 204.46 1207.67 203.792 1206.56C203.145 1205.43 202.216 1204.56 201.005 1203.93C199.815 1203.31 198.396 1202.99 196.746 1202.99H191.423V1218.02ZM216.98 1208.66H227.877V1212.01H216.98V1208.66ZM217.293 1218.05H229.662V1221.47H213.223V1199.55H229.223V1202.96H217.293V1218.05ZM240.376 1221.47L230.794 1199.55H235.209L243.758 1219.37H241.221L249.864 1199.55H253.934L244.384 1221.47H240.376ZM256.247 1221.47V1199.55H260.318V1221.47H256.247ZM276.392 1221.78C274.722 1221.78 273.167 1221.51 271.726 1220.97C270.307 1220.4 269.065 1219.62 268 1218.62C266.956 1217.59 266.142 1216.39 265.558 1215.02C264.973 1213.64 264.681 1212.14 264.681 1210.51C264.681 1208.88 264.973 1207.38 265.558 1206C266.142 1204.62 266.967 1203.43 268.032 1202.43C269.096 1201.41 270.338 1200.62 271.758 1200.08C273.177 1199.52 274.733 1199.23 276.423 1199.23C278.219 1199.23 279.857 1199.55 281.34 1200.17C282.822 1200.78 284.074 1201.69 285.097 1202.9L282.467 1205.37C281.674 1204.52 280.786 1203.88 279.805 1203.46C278.824 1203.02 277.759 1202.8 276.611 1202.8C275.463 1202.8 274.409 1202.99 273.449 1203.37C272.509 1203.74 271.685 1204.28 270.975 1204.96C270.286 1205.65 269.743 1206.47 269.347 1207.41C268.971 1208.35 268.783 1209.38 268.783 1210.51C268.783 1211.63 268.971 1212.67 269.347 1213.61C269.743 1214.55 270.286 1215.36 270.975 1216.05C271.685 1216.74 272.509 1217.27 273.449 1217.65C274.409 1218.02 275.463 1218.21 276.611 1218.21C277.759 1218.21 278.824 1218 279.805 1217.58C280.786 1217.15 281.674 1216.49 282.467 1215.61L285.097 1218.12C284.074 1219.31 282.822 1220.21 281.34 1220.84C279.857 1221.47 278.208 1221.78 276.392 1221.78ZM292.755 1208.66H303.652V1212.01H292.755V1208.66ZM293.068 1218.05H305.437V1221.47H288.998V1199.55H304.999V1202.96H293.068V1218.05ZM316.77 1221.78C315.058 1221.78 313.419 1221.54 311.854 1221.06C310.288 1220.56 309.046 1219.92 308.127 1219.15L309.536 1215.99C310.413 1216.68 311.499 1217.25 312.793 1217.71C314.087 1218.17 315.413 1218.4 316.77 1218.4C317.918 1218.4 318.847 1218.27 319.557 1218.02C320.266 1217.77 320.788 1217.44 321.122 1217.02C321.456 1216.58 321.623 1216.09 321.623 1215.55C321.623 1214.88 321.383 1214.35 320.903 1213.95C320.423 1213.53 319.797 1213.21 319.024 1212.98C318.273 1212.73 317.427 1212.5 316.488 1212.29C315.569 1212.08 314.64 1211.84 313.701 1211.57C312.783 1211.28 311.937 1210.91 311.165 1210.48C310.413 1210.02 309.797 1209.41 309.317 1208.66C308.837 1207.91 308.597 1206.95 308.597 1205.78C308.597 1204.59 308.91 1203.5 309.536 1202.52C310.184 1201.52 311.154 1200.73 312.449 1200.14C313.764 1199.54 315.423 1199.23 317.427 1199.23C318.743 1199.23 320.047 1199.4 321.341 1199.74C322.636 1200.07 323.763 1200.55 324.723 1201.18L323.439 1204.34C322.458 1203.75 321.446 1203.33 320.402 1203.05C319.358 1202.76 318.356 1202.62 317.396 1202.62C316.269 1202.62 315.35 1202.75 314.64 1203.02C313.952 1203.29 313.44 1203.65 313.106 1204.09C312.793 1204.53 312.636 1205.03 312.636 1205.59C312.636 1206.26 312.866 1206.8 313.325 1207.22C313.805 1207.62 314.421 1207.93 315.173 1208.16C315.945 1208.39 316.801 1208.62 317.74 1208.85C318.68 1209.06 319.609 1209.3 320.527 1209.57C321.467 1209.84 322.312 1210.19 323.064 1210.63C323.836 1211.07 324.452 1211.67 324.911 1212.42C325.391 1213.17 325.631 1214.12 325.631 1215.27C325.631 1216.44 325.308 1217.52 324.661 1218.52C324.034 1219.5 323.064 1220.3 321.749 1220.9C320.433 1221.49 318.774 1221.78 316.77 1221.78Z" fill="#F8F8F8"/>
<rect x="0.788086" y="1282.53" width="401.198" height="95.9701" rx="3.26177" fill="#FB6233"/>
<path d="M71.0104 1339.86C69.2986 1339.86 67.7225 1339.57 66.2821 1339.01C64.8417 1338.45 63.5892 1337.66 62.5246 1336.66C61.4599 1335.64 60.6353 1334.45 60.0508 1333.09C59.4663 1331.71 59.1741 1330.21 59.1741 1328.58C59.1741 1326.96 59.4663 1325.46 60.0508 1324.11C60.6353 1322.73 61.4599 1321.54 62.5246 1320.54C63.5892 1319.51 64.8417 1318.72 66.2821 1318.16C67.7225 1317.59 69.2882 1317.31 70.9791 1317.31C72.6909 1317.31 74.2565 1317.59 75.676 1318.16C77.1164 1318.72 78.369 1319.51 79.4336 1320.54C80.4982 1321.54 81.3228 1322.73 81.9073 1324.11C82.4918 1325.46 82.7841 1326.96 82.7841 1328.58C82.7841 1330.21 82.4918 1331.71 81.9073 1333.09C81.3228 1334.47 80.4982 1335.66 79.4336 1336.66C78.369 1337.66 77.1164 1338.45 75.676 1339.01C74.2565 1339.57 72.7013 1339.86 71.0104 1339.86ZM70.9791 1336.29C72.0855 1336.29 73.1084 1336.1 74.0478 1335.72C74.9871 1335.35 75.8013 1334.81 76.4902 1334.13C77.1791 1333.42 77.7114 1332.6 78.0871 1331.68C78.4838 1330.74 78.6821 1329.71 78.6821 1328.58C78.6821 1327.46 78.4838 1326.43 78.0871 1325.51C77.7114 1324.58 77.1791 1323.76 76.4902 1323.07C75.8013 1322.36 74.9871 1321.82 74.0478 1321.44C73.1084 1321.07 72.0855 1320.88 70.9791 1320.88C69.8727 1320.88 68.8498 1321.07 67.9104 1321.44C66.9919 1321.82 66.1777 1322.36 65.468 1323.07C64.7791 1323.76 64.2363 1324.58 63.8397 1325.51C63.464 1326.43 63.2761 1327.46 63.2761 1328.58C63.2761 1329.69 63.464 1330.71 63.8397 1331.65C64.2363 1332.59 64.7791 1333.42 65.468 1334.13C66.1569 1334.81 66.971 1335.35 67.9104 1335.72C68.8498 1336.1 69.8727 1336.29 70.9791 1336.29ZM96.5241 1339.86C93.5181 1339.86 91.1592 1339.01 89.4474 1337.32C87.7565 1335.63 86.911 1333.19 86.911 1329.99V1317.62H90.9817V1329.84C90.9817 1332.09 91.4619 1333.73 92.4221 1334.75C93.4033 1335.77 94.7811 1336.29 96.5555 1336.29C98.3299 1336.29 99.6972 1335.77 100.657 1334.75C101.618 1333.73 102.098 1332.09 102.098 1329.84V1317.62H106.106V1329.99C106.106 1333.19 105.25 1335.63 103.538 1337.32C101.847 1339.01 99.5093 1339.86 96.5241 1339.86ZM115.856 1339.54V1321.07H108.591V1317.62H127.191V1321.07H119.926V1339.54H115.856ZM130.246 1339.54V1317.62H139.264C141.206 1317.62 142.865 1317.94 144.243 1318.56C145.642 1319.19 146.717 1320.09 147.468 1321.26C148.22 1322.43 148.595 1323.81 148.595 1325.42C148.595 1327.03 148.22 1328.42 147.468 1329.59C146.717 1330.75 145.642 1331.65 144.243 1332.28C142.865 1332.9 141.206 1333.22 139.264 1333.22H132.501L134.317 1331.31V1339.54H130.246ZM134.317 1331.75L132.501 1329.77H139.076C140.872 1329.77 142.218 1329.4 143.116 1328.65C144.034 1327.87 144.493 1326.8 144.493 1325.42C144.493 1324.02 144.034 1322.95 143.116 1322.2C142.218 1321.44 140.872 1321.07 139.076 1321.07H132.501L134.317 1319.06V1331.75ZM162.055 1339.86C159.049 1339.86 156.69 1339.01 154.978 1337.32C153.288 1335.63 152.442 1333.19 152.442 1329.99V1317.62H156.513V1329.84C156.513 1332.09 156.993 1333.73 157.953 1334.75C158.934 1335.77 160.312 1336.29 162.087 1336.29C163.861 1336.29 165.228 1335.77 166.189 1334.75C167.149 1333.73 167.629 1332.09 167.629 1329.84V1317.62H171.637V1329.99C171.637 1333.19 170.781 1335.63 169.069 1337.32C167.378 1339.01 165.04 1339.86 162.055 1339.86ZM181.387 1339.54V1321.07H174.122V1317.62H192.722V1321.07H185.458V1339.54H181.387ZM204.431 1339.54V1317.62H214.013C216.393 1317.62 218.48 1318.08 220.275 1319C222.071 1319.92 223.469 1321.19 224.471 1322.82C225.473 1324.45 225.974 1326.37 225.974 1328.58C225.974 1330.78 225.473 1332.7 224.471 1334.34C223.469 1335.97 222.071 1337.25 220.275 1338.17C218.48 1339.08 216.393 1339.54 214.013 1339.54H204.431ZM208.502 1336.1H213.825C215.474 1336.1 216.894 1335.79 218.083 1335.16C219.294 1334.53 220.223 1333.66 220.87 1332.53C221.538 1331.4 221.872 1330.09 221.872 1328.58C221.872 1327.06 221.538 1325.74 220.87 1324.64C220.223 1323.51 219.294 1322.63 218.083 1322.01C216.894 1321.38 215.474 1321.07 213.825 1321.07H208.502V1336.1ZM234.059 1326.74H244.955V1330.09H234.059V1326.74ZM234.372 1336.13H246.74V1339.54H230.301V1317.62H246.302V1321.04H234.372V1336.13ZM257.454 1339.54L247.872 1317.62H252.288L260.836 1337.44H258.3L266.942 1317.62H271.013L261.462 1339.54H257.454ZM273.326 1339.54V1317.62H277.396V1339.54H273.326ZM293.471 1339.86C291.801 1339.86 290.245 1339.58 288.805 1339.04C287.385 1338.48 286.143 1337.7 285.079 1336.69C284.035 1335.67 283.221 1334.47 282.636 1333.09C282.052 1331.71 281.76 1330.21 281.76 1328.58C281.76 1326.96 282.052 1325.45 282.636 1324.07C283.221 1322.7 284.045 1321.51 285.11 1320.5C286.175 1319.48 287.417 1318.7 288.836 1318.16C290.256 1317.59 291.811 1317.31 293.502 1317.31C295.297 1317.31 296.936 1317.62 298.418 1318.25C299.9 1318.86 301.153 1319.76 302.176 1320.97L299.545 1323.45C298.752 1322.59 297.865 1321.96 296.884 1321.54C295.903 1321.1 294.838 1320.88 293.69 1320.88C292.542 1320.88 291.487 1321.07 290.527 1321.44C289.588 1321.82 288.763 1322.35 288.053 1323.04C287.365 1323.73 286.822 1324.54 286.425 1325.48C286.049 1326.42 285.862 1327.46 285.862 1328.58C285.862 1329.71 286.049 1330.74 286.425 1331.68C286.822 1332.62 287.365 1333.44 288.053 1334.13C288.763 1334.81 289.588 1335.35 290.527 1335.72C291.487 1336.1 292.542 1336.29 293.69 1336.29C294.838 1336.29 295.903 1336.08 296.884 1335.66C297.865 1335.22 298.752 1334.56 299.545 1333.69L302.176 1336.19C301.153 1337.38 299.9 1338.29 298.418 1338.92C296.936 1339.54 295.287 1339.86 293.471 1339.86ZM309.834 1326.74H320.73V1330.09H309.834V1326.74ZM310.147 1336.13H322.515V1339.54H306.076V1317.62H322.077V1321.04H310.147V1336.13ZM333.848 1339.86C332.136 1339.86 330.498 1339.62 328.932 1339.14C327.366 1338.63 326.124 1338 325.206 1337.23L326.615 1334.06C327.492 1334.75 328.577 1335.33 329.871 1335.79C331.166 1336.24 332.491 1336.47 333.848 1336.47C334.996 1336.47 335.925 1336.35 336.635 1336.1C337.345 1335.85 337.867 1335.51 338.201 1335.1C338.535 1334.66 338.702 1334.17 338.702 1333.62C338.702 1332.96 338.462 1332.42 337.982 1332.03C337.501 1331.61 336.875 1331.29 336.103 1331.06C335.351 1330.81 334.506 1330.58 333.566 1330.37C332.648 1330.16 331.719 1329.92 330.78 1329.65C329.861 1329.36 329.016 1328.99 328.243 1328.55C327.492 1328.09 326.876 1327.49 326.396 1326.74C325.916 1325.98 325.676 1325.02 325.676 1323.86C325.676 1322.67 325.989 1321.58 326.615 1320.6C327.262 1319.6 328.233 1318.8 329.527 1318.22C330.842 1317.61 332.502 1317.31 334.506 1317.31C335.821 1317.31 337.126 1317.48 338.42 1317.81C339.714 1318.15 340.841 1318.63 341.802 1319.25L340.518 1322.41C339.537 1321.83 338.524 1321.4 337.481 1321.13C336.437 1320.84 335.435 1320.69 334.474 1320.69C333.347 1320.69 332.429 1320.83 331.719 1321.1C331.03 1321.37 330.519 1321.73 330.185 1322.16C329.871 1322.6 329.715 1323.1 329.715 1323.67C329.715 1324.34 329.945 1324.88 330.404 1325.3C330.884 1325.69 331.5 1326.01 332.251 1326.23C333.024 1326.46 333.88 1326.69 334.819 1326.92C335.758 1327.13 336.687 1327.37 337.606 1327.64C338.545 1327.92 339.391 1328.27 340.142 1328.71C340.915 1329.15 341.53 1329.74 341.99 1330.49C342.47 1331.24 342.71 1332.19 342.71 1333.34C342.71 1334.51 342.386 1335.6 341.739 1336.6C341.113 1337.58 340.142 1338.37 338.827 1338.98C337.512 1339.56 335.852 1339.86 333.848 1339.86Z" fill="#F8F8F8"/>
<rect x="0.788086" y="1400.61" width="401.198" height="95.9701" rx="3.26177" fill="#FB6233"/>
<path d="M52.3458 1457.62V1435.7H55.6962L69.4427 1452.58H67.7831V1435.7H71.8225V1457.62H68.472L54.7255 1440.74H56.3851V1457.62H52.3458ZM81.4534 1444.81H92.3503V1448.16H81.4534V1444.81ZM81.7665 1454.21H94.1352V1457.62H77.6958V1435.7H93.6968V1439.11H81.7665V1454.21ZM103.12 1457.62V1439.14H95.855V1435.7H114.455V1439.14H107.19V1457.62H103.12ZM122.34 1457.62L115.076 1435.7H119.303L125.785 1455.52H123.687L130.419 1435.7H134.176L140.721 1455.52H138.686L145.324 1435.7H149.207L141.942 1457.62H137.621L131.64 1439.74H132.767L126.693 1457.62H122.34ZM162.58 1457.93C160.868 1457.93 159.292 1457.65 157.851 1457.09C156.411 1456.52 155.158 1455.74 154.094 1454.74C153.029 1453.72 152.205 1452.53 151.62 1451.17C151.036 1449.79 150.743 1448.29 150.743 1446.66C150.743 1445.03 151.036 1443.54 151.62 1442.18C152.205 1440.8 153.029 1439.61 154.094 1438.61C155.158 1437.59 156.411 1436.8 157.851 1436.23C159.292 1435.67 160.857 1435.39 162.548 1435.39C164.26 1435.39 165.826 1435.67 167.245 1436.23C168.686 1436.8 169.938 1437.59 171.003 1438.61C172.067 1439.61 172.892 1440.8 173.477 1442.18C174.061 1443.54 174.353 1445.03 174.353 1446.66C174.353 1448.29 174.061 1449.79 173.477 1451.17C172.892 1452.55 172.067 1453.74 171.003 1454.74C169.938 1455.74 168.686 1456.52 167.245 1457.09C165.826 1457.65 164.27 1457.93 162.58 1457.93ZM162.548 1454.36C163.655 1454.36 164.678 1454.17 165.617 1453.8C166.556 1453.42 167.37 1452.89 168.059 1452.2C168.748 1451.49 169.281 1450.68 169.656 1449.76C170.053 1448.82 170.251 1447.79 170.251 1446.66C170.251 1445.53 170.053 1444.51 169.656 1443.59C169.281 1442.65 168.748 1441.84 168.059 1441.15C167.37 1440.44 166.556 1439.9 165.617 1439.52C164.678 1439.14 163.655 1438.96 162.548 1438.96C161.442 1438.96 160.419 1439.14 159.48 1439.52C158.561 1439.9 157.747 1440.44 157.037 1441.15C156.348 1441.84 155.806 1442.65 155.409 1443.59C155.033 1444.51 154.845 1445.53 154.845 1446.66C154.845 1447.77 155.033 1448.79 155.409 1449.73C155.806 1450.67 156.348 1451.49 157.037 1452.2C157.726 1452.89 158.54 1453.42 159.48 1453.8C160.419 1454.17 161.442 1454.36 162.548 1454.36ZM178.668 1457.62V1435.7H187.686C189.628 1435.7 191.287 1436.01 192.665 1436.64C194.064 1437.27 195.139 1438.16 195.89 1439.33C196.642 1440.5 197.018 1441.89 197.018 1443.5C197.018 1445.1 196.642 1446.49 195.89 1447.66C195.139 1448.81 194.064 1449.7 192.665 1450.32C191.287 1450.93 189.628 1451.23 187.686 1451.23H180.923L182.739 1449.38V1457.62H178.668ZM193.009 1457.62L187.467 1449.67H191.82L197.393 1457.62H193.009ZM182.739 1449.82L180.923 1447.88H187.498C189.294 1447.88 190.64 1447.49 191.538 1446.72C192.456 1445.95 192.916 1444.87 192.916 1443.5C192.916 1442.1 192.456 1441.02 191.538 1440.27C190.64 1439.52 189.294 1439.14 187.498 1439.14H180.923L182.739 1437.14V1449.82ZM205.204 1452.45L204.985 1447.63L216.477 1435.7H221.049L211.498 1445.85L209.244 1448.32L205.204 1452.45ZM201.572 1457.62V1435.7H205.643V1457.62H201.572ZM216.853 1457.62L208.461 1447.63L211.154 1444.66L221.612 1457.62H216.853ZM233.038 1457.62V1435.7H243.308C245.939 1435.7 247.943 1436.22 249.321 1437.27C250.698 1438.29 251.387 1439.67 251.387 1441.4C251.387 1442.57 251.116 1443.57 250.573 1444.4C250.03 1445.22 249.3 1445.86 248.381 1446.32C247.484 1446.75 246.502 1446.97 245.438 1446.97L246.001 1445.85C247.233 1445.85 248.339 1446.07 249.321 1446.53C250.302 1446.97 251.074 1447.62 251.638 1448.48C252.222 1449.33 252.514 1450.4 252.514 1451.67C252.514 1453.55 251.794 1455.01 250.354 1456.05C248.913 1457.1 246.774 1457.62 243.935 1457.62H233.038ZM237.108 1454.43H243.684C245.208 1454.43 246.377 1454.17 247.191 1453.67C248.005 1453.17 248.412 1452.37 248.412 1451.26C248.412 1450.18 248.005 1449.38 247.191 1448.88C246.377 1448.36 245.208 1448.1 243.684 1448.1H236.795V1444.94H242.87C244.29 1444.94 245.375 1444.69 246.127 1444.19C246.899 1443.68 247.285 1442.93 247.285 1441.93C247.285 1440.91 246.899 1440.15 246.127 1439.65C245.375 1439.14 244.29 1438.89 242.87 1438.89H237.108V1454.43ZM267.13 1457.93C265.418 1457.93 263.842 1457.65 262.401 1457.09C260.961 1456.52 259.708 1455.74 258.644 1454.74C257.579 1453.72 256.755 1452.53 256.17 1451.17C255.586 1449.79 255.293 1448.29 255.293 1446.66C255.293 1445.03 255.586 1443.54 256.17 1442.18C256.755 1440.8 257.579 1439.61 258.644 1438.61C259.708 1437.59 260.961 1436.8 262.401 1436.23C263.842 1435.67 265.407 1435.39 267.098 1435.39C268.81 1435.39 270.376 1435.67 271.795 1436.23C273.236 1436.8 274.488 1437.59 275.553 1438.61C276.617 1439.61 277.442 1440.8 278.027 1442.18C278.611 1443.54 278.903 1445.03 278.903 1446.66C278.903 1448.29 278.611 1449.79 278.027 1451.17C277.442 1452.55 276.617 1453.74 275.553 1454.74C274.488 1455.74 273.236 1456.52 271.795 1457.09C270.376 1457.65 268.82 1457.93 267.13 1457.93ZM267.098 1454.36C268.205 1454.36 269.228 1454.17 270.167 1453.8C271.106 1453.42 271.92 1452.89 272.609 1452.2C273.298 1451.49 273.831 1450.68 274.206 1449.76C274.603 1448.82 274.801 1447.79 274.801 1446.66C274.801 1445.53 274.603 1444.51 274.206 1443.59C273.831 1442.65 273.298 1441.84 272.609 1441.15C271.92 1440.44 271.106 1439.9 270.167 1439.52C269.228 1439.14 268.205 1438.96 267.098 1438.96C265.992 1438.96 264.969 1439.14 264.03 1439.52C263.111 1439.9 262.297 1440.44 261.587 1441.15C260.898 1441.84 260.356 1442.65 259.959 1443.59C259.583 1444.51 259.395 1445.53 259.395 1446.66C259.395 1447.77 259.583 1448.79 259.959 1449.73C260.356 1450.67 260.898 1451.49 261.587 1452.2C262.276 1452.89 263.09 1453.42 264.03 1453.8C264.969 1454.17 265.992 1454.36 267.098 1454.36ZM279.812 1457.62L289.676 1435.7H293.684L303.579 1457.62H299.32L290.835 1437.86H292.463L284.008 1457.62H279.812ZM284.353 1452.55L285.449 1449.35H297.285L298.381 1452.55H284.353ZM306.367 1457.62V1435.7H315.385C317.326 1435.7 318.986 1436.01 320.363 1436.64C321.762 1437.27 322.837 1438.16 323.589 1439.33C324.34 1440.5 324.716 1441.89 324.716 1443.5C324.716 1445.1 324.34 1446.49 323.589 1447.66C322.837 1448.81 321.762 1449.7 320.363 1450.32C318.986 1450.93 317.326 1451.23 315.385 1451.23H308.621L310.437 1449.38V1457.62H306.367ZM320.708 1457.62L315.165 1449.67H319.518L325.092 1457.62H320.708ZM310.437 1449.82L308.621 1447.88H315.197C316.992 1447.88 318.339 1447.49 319.236 1446.72C320.155 1445.95 320.614 1444.87 320.614 1443.5C320.614 1442.1 320.155 1441.02 319.236 1440.27C318.339 1439.52 316.992 1439.14 315.197 1439.14H308.621L310.437 1437.14V1449.82ZM329.27 1457.62V1435.7H338.852C341.232 1435.7 343.319 1436.16 345.115 1437.08C346.91 1438 348.309 1439.27 349.311 1440.9C350.313 1442.53 350.814 1444.45 350.814 1446.66C350.814 1448.85 350.313 1450.77 349.311 1452.42C348.309 1454.05 346.91 1455.32 345.115 1456.24C343.319 1457.16 341.232 1457.62 338.852 1457.62H329.27ZM333.341 1454.17H338.664C340.313 1454.17 341.733 1453.86 342.923 1453.24C344.134 1452.61 345.062 1451.73 345.71 1450.6C346.378 1449.48 346.712 1448.16 346.712 1446.66C346.712 1445.14 346.378 1443.82 345.71 1442.71C345.062 1441.59 344.134 1440.71 342.923 1440.08C341.733 1439.46 340.313 1439.14 338.664 1439.14H333.341V1454.17Z" fill="#F8F8F8"/>
<rect x="1483.59" width="401.198" height="95.9701" rx="3.26177" fill="#D19129"/>
<path d="M1562.49 57.0137L1572.35 35.0946H1576.36L1586.26 57.0137H1582L1573.51 37.2552H1575.14L1566.68 57.0137H1562.49ZM1567.03 51.941L1568.13 48.747H1579.96L1581.06 51.941H1567.03ZM1589.04 57.0137V35.0946H1598.06C1600 35.0946 1601.66 35.4077 1603.04 36.0339C1604.44 36.6602 1605.51 37.5578 1606.27 38.7269C1607.02 39.8959 1607.39 41.2841 1607.39 42.8915C1607.39 44.4989 1607.02 45.8871 1606.27 47.0561C1605.51 48.2252 1604.44 49.1228 1603.04 49.7491C1601.66 50.3753 1600 50.6884 1598.06 50.6884H1591.3L1593.11 48.7783V57.0137H1589.04ZM1593.11 49.2167L1591.3 47.244H1597.87C1599.67 47.244 1601.02 46.8683 1601.91 46.1167C1602.83 45.3444 1603.29 44.2693 1603.29 42.8915C1603.29 41.4929 1602.83 40.4178 1601.91 39.6663C1601.02 38.9147 1599.67 38.539 1597.87 38.539H1591.3L1593.11 36.535V49.2167ZM1611.46 57.0137V35.0946H1620.48C1622.42 35.0946 1624.08 35.4077 1625.45 36.0339C1626.85 36.6602 1627.93 37.5578 1628.68 38.7269C1629.43 39.8959 1629.81 41.2841 1629.81 42.8915C1629.81 44.4989 1629.43 45.8871 1628.68 47.0561C1627.93 48.2252 1626.85 49.1228 1625.45 49.7491C1624.08 50.3753 1622.42 50.6884 1620.48 50.6884H1613.71L1615.53 48.7783V57.0137H1611.46ZM1615.53 49.2167L1613.71 47.244H1620.29C1622.08 47.244 1623.43 46.8683 1624.33 46.1167C1625.25 45.3444 1625.71 44.2693 1625.71 42.8915C1625.71 41.4929 1625.25 40.4178 1624.33 39.6663C1623.43 38.9147 1622.08 38.539 1620.29 38.539H1613.71L1615.53 36.535V49.2167ZM1633.87 57.0137V35.0946H1637.94V53.5692H1649.4V57.0137H1633.87ZM1652.62 57.0137V35.0946H1656.69V57.0137H1652.62ZM1672.76 57.3268C1671.09 57.3268 1669.54 57.0554 1668.1 56.5127C1666.68 55.949 1665.43 55.1662 1664.37 54.1642C1663.33 53.1413 1662.51 51.941 1661.93 50.5632C1661.34 49.1854 1661.05 47.6824 1661.05 46.0541C1661.05 44.4258 1661.34 42.9228 1661.93 41.545C1662.51 40.1673 1663.34 38.9774 1664.4 37.9754C1665.47 36.9525 1666.71 36.1696 1668.13 35.6269C1669.55 35.0632 1671.1 34.7814 1672.79 34.7814C1674.59 34.7814 1676.23 35.0946 1677.71 35.7208C1679.19 36.3262 1680.44 37.2343 1681.47 38.445L1678.84 40.9188C1678.04 40.0629 1677.16 39.4262 1676.18 39.0087C1675.19 38.5703 1674.13 38.3511 1672.98 38.3511C1671.83 38.3511 1670.78 38.539 1669.82 38.9147C1668.88 39.2905 1668.05 39.8228 1667.34 40.5117C1666.66 41.2006 1666.11 42.0147 1665.72 42.9541C1665.34 43.8935 1665.15 44.9268 1665.15 46.0541C1665.15 47.1814 1665.34 48.2147 1665.72 49.1541C1666.11 50.0935 1666.66 50.9076 1667.34 51.5965C1668.05 52.2854 1668.88 52.8177 1669.82 53.1935C1670.78 53.5692 1671.83 53.7571 1672.98 53.7571C1674.13 53.7571 1675.19 53.5484 1676.18 53.1309C1677.16 52.6925 1678.04 52.0349 1678.84 51.1581L1681.47 53.6632C1680.44 54.8531 1679.19 55.7612 1677.71 56.3874C1676.23 57.0137 1674.58 57.3268 1672.76 57.3268ZM1681.81 57.0137L1691.67 35.0946H1695.68L1705.58 57.0137H1701.32L1692.83 37.2552H1694.46L1686 57.0137H1681.81ZM1686.35 51.941L1687.45 48.747H1699.28L1700.38 51.941H1686.35ZM1711.71 57.0137V38.539H1704.44V35.0946H1723.04V38.539H1715.78V57.0137H1711.71ZM1726.1 57.0137V35.0946H1730.17V57.0137H1726.1ZM1746.37 57.3268C1744.66 57.3268 1743.08 57.045 1741.64 56.4814C1740.2 55.9177 1738.95 55.1349 1737.88 54.1329C1736.82 53.11 1735.99 51.9201 1735.41 50.5632C1734.82 49.1854 1734.53 47.6824 1734.53 46.0541C1734.53 44.4258 1734.82 42.9332 1735.41 41.5764C1735.99 40.1986 1736.82 39.0087 1737.88 38.0067C1738.95 36.9838 1740.2 36.1905 1741.64 35.6269C1743.08 35.0632 1744.65 34.7814 1746.34 34.7814C1748.05 34.7814 1749.61 35.0632 1751.03 35.6269C1752.47 36.1905 1753.73 36.9838 1754.79 38.0067C1755.86 39.0087 1756.68 40.1986 1757.27 41.5764C1757.85 42.9332 1758.14 44.4258 1758.14 46.0541C1758.14 47.6824 1757.85 49.1854 1757.27 50.5632C1756.68 51.941 1755.86 53.1309 1754.79 54.1329C1753.73 55.1349 1752.47 55.9177 1751.03 56.4814C1749.61 57.045 1748.06 57.3268 1746.37 57.3268ZM1746.34 53.7571C1747.44 53.7571 1748.47 53.5692 1749.41 53.1935C1750.35 52.8177 1751.16 52.2854 1751.85 51.5965C1752.54 50.8868 1753.07 50.0726 1753.45 49.1541C1753.84 48.2147 1754.04 47.1814 1754.04 46.0541C1754.04 44.9268 1753.84 43.904 1753.45 42.9854C1753.07 42.046 1752.54 41.2319 1751.85 40.543C1751.16 39.8333 1750.35 39.2905 1749.41 38.9147C1748.47 38.539 1747.44 38.3511 1746.34 38.3511C1745.23 38.3511 1744.21 38.539 1743.27 38.9147C1742.35 39.2905 1741.54 39.8333 1740.83 40.543C1740.14 41.2319 1739.59 42.046 1739.2 42.9854C1738.82 43.904 1738.63 44.9268 1738.63 46.0541C1738.63 47.1605 1738.82 48.1834 1739.2 49.1228C1739.59 50.0622 1740.14 50.8868 1740.83 51.5965C1741.52 52.2854 1742.33 52.8177 1743.27 53.1935C1744.21 53.5692 1745.23 53.7571 1746.34 53.7571ZM1762.46 57.0137V35.0946H1765.81L1779.55 51.9723H1777.89V35.0946H1781.93V57.0137H1778.58L1764.84 40.136H1766.5V57.0137H1762.46ZM1794.6 57.3268C1792.89 57.3268 1791.25 57.0867 1789.69 56.6066C1788.12 56.1056 1786.88 55.4689 1785.96 54.6965L1787.37 51.5339C1788.25 52.2228 1789.33 52.7969 1790.63 53.2561C1791.92 53.7154 1793.25 53.945 1794.6 53.945C1795.75 53.945 1796.68 53.8197 1797.39 53.5692C1798.1 53.3187 1798.62 52.9847 1798.95 52.5672C1799.29 52.1288 1799.46 51.6383 1799.46 51.0955C1799.46 50.4275 1799.22 49.8952 1798.74 49.4985C1798.26 49.081 1797.63 48.7575 1796.86 48.5278C1796.11 48.2773 1795.26 48.0477 1794.32 47.839C1793.4 47.6302 1792.47 47.3901 1791.53 47.1188C1790.62 46.8265 1789.77 46.4612 1789 46.0228C1788.25 45.5635 1787.63 44.9582 1787.15 44.2066C1786.67 43.4551 1786.43 42.4949 1786.43 41.3258C1786.43 40.136 1786.74 39.0504 1787.37 38.0693C1788.02 37.0673 1788.99 36.274 1790.28 35.6895C1791.6 35.0841 1793.26 34.7814 1795.26 34.7814C1796.58 34.7814 1797.88 34.9484 1799.17 35.2824C1800.47 35.6164 1801.6 36.0966 1802.56 36.7228L1801.27 39.8854C1800.29 39.3009 1799.28 38.873 1798.23 38.6016C1797.19 38.3094 1796.19 38.1632 1795.23 38.1632C1794.1 38.1632 1793.18 38.2989 1792.47 38.5703C1791.78 38.8417 1791.27 39.1966 1790.94 39.6349C1790.63 40.0733 1790.47 40.5743 1790.47 41.138C1790.47 41.806 1790.7 42.3487 1791.16 42.7662C1791.64 43.1629 1792.25 43.476 1793.01 43.7056C1793.78 43.9353 1794.63 44.1649 1795.57 44.3945C1796.51 44.6033 1797.44 44.8433 1798.36 45.1147C1799.3 45.3861 1800.14 45.741 1800.9 46.1794C1801.67 46.6177 1802.28 47.2127 1802.74 47.9642C1803.22 48.7157 1803.46 49.6655 1803.46 50.8137C1803.46 51.9827 1803.14 53.0682 1802.49 54.0702C1801.87 55.0514 1800.9 55.8447 1799.58 56.45C1798.27 57.0345 1796.61 57.3268 1794.6 57.3268Z" fill="#F8F8F8"/>
<path d="M233.918 205.158V232.875H117.353H0.788086V341.847V450.818H54.0207H107.253L106.722 453.627C106.494 455.222 105.431 458.26 104.52 460.31C100.647 468.815 94.4198 473.144 83.9404 474.51L77.4097 475.422L77.6375 486.433L77.8653 497.52L142.641 497.748L207.34 497.899V486.585V475.27L202.252 474.738C199.366 474.435 195.342 473.523 193.215 472.764C186.001 470.03 179.395 461.677 178.256 453.703L177.8 450.818H205.897H233.918V474.359V497.899H311.755H389.591V337.67V177.44H311.755H233.918V205.158ZM366.81 304.637V409.052H325.424H284.037V343.745V278.438H314.792H345.547V267.047V255.657H314.792H284.037V244.266V232.875H270.369H256.7V216.549V200.222H311.755H366.81V304.637ZM261.256 320.964V386.27H142.413H23.5695V320.964V255.657H142.413H261.256V320.964ZM261.256 418.544V428.036H142.413H23.5695V418.544V409.052H142.413H261.256V418.544ZM366.81 453.476V475.118H311.755H256.7V462.968V450.818H270.369H284.037V441.325V431.833H325.424H366.81V453.476ZM155.322 453.627C156.461 460.993 157.6 465.246 159.575 469.726C160.79 472.384 161.777 474.662 161.777 474.814C161.777 474.966 153.044 475.118 142.413 475.118C131.781 475.118 123.049 474.966 123.049 474.738C123.049 474.51 123.884 472.688 124.871 470.714C127.073 466.385 128.82 460.31 129.503 454.767L130.035 450.818H142.413H154.867L155.322 453.627Z" fill="#FFD633"/>
<path d="M300.516 309.345C300.212 309.573 299.984 314.737 299.984 320.736V331.595H311.375H322.766V320.204V308.814H311.907C305.908 308.814 300.744 309.041 300.516 309.345Z" fill="#FFD633"/>
<path d="M300.516 347.314C300.212 347.542 299.984 352.706 299.984 358.705V369.564H311.375H322.766V358.173V346.783H311.907C305.908 346.783 300.744 347.01 300.516 347.314Z" fill="#FFD633"/>
<path d="M140.554 273.433C138.822 273.678 136.957 274.299 134.999 275.26C131.76 276.841 129.689 279.496 128.88 283.111C128.409 285.164 128.333 290.003 128.672 295.068C129.143 302.054 129.011 305.33 128.202 306.724C127.976 307.1 126.639 308.964 125.227 310.885C120.425 317.344 120.105 317.927 117.582 324.913C116.678 327.399 115.529 330.317 115.021 331.409C113.835 333.989 113.646 334.817 113.759 336.87L113.854 338.546L113.213 339.167C112.856 339.506 112.272 340.316 111.914 340.956C110.784 342.952 109.692 343.648 106.303 344.515C103.478 345.23 102.575 345.795 101.953 347.264C101.577 348.186 101.596 349.071 102.047 350.954C102.537 353.007 102.518 354.005 101.953 355.907C100.861 359.559 100.861 359.616 101.2 360.52C101.953 362.516 104.119 363.495 109.73 364.342C113.006 364.851 113.797 365.058 118.617 366.715C124.869 368.861 126.375 369.2 128.465 368.861C130.273 368.56 132.081 367.374 132.89 365.962C133.022 365.698 133.662 365.528 135.734 365.19C141.175 364.305 145.487 364.21 150.345 364.851C153.433 365.265 153.735 365.378 154.375 366.3C156.39 369.2 159.139 370.217 162.547 369.332C164.223 368.899 165.239 368.315 166.821 366.903C168.648 365.265 171.02 363.702 176.048 360.915C180.51 358.43 180.943 358.166 181.847 357.319C183.259 356.02 183.655 354.118 182.864 352.555C182.393 351.651 181.696 351.086 180.077 350.276C177.648 349.053 177.027 348.111 176.801 345.343C176.65 343.385 176.292 342.33 175.313 340.956L174.748 340.165L175.031 338.847C175.803 335.232 175.671 330.826 174.73 327.982C174.127 326.194 172.658 323.143 171.133 320.563C169.947 318.549 165.748 312.222 163.055 308.437C159.402 303.24 159.421 303.334 158.724 292.244C158.178 283.563 155.486 277.99 150.421 275.052C147.86 273.546 144.037 272.925 140.554 273.433ZM147.784 287.781C148.895 288.516 149.686 290.229 149.686 291.867C149.686 293.016 149.441 294.202 149.14 294.541C149.084 294.616 149.065 294.221 149.084 293.656C149.178 292.394 148.519 290.813 147.634 290.191C146.975 289.721 145.977 289.495 145.28 289.683C144.113 289.965 143.002 291.509 142.776 293.11C142.606 294.39 142.286 293.656 142.286 291.961C142.305 288.308 145.224 286.087 147.784 287.781ZM135.508 288.553C136.355 289.269 136.901 290.549 137.014 292.15C137.146 293.788 136.882 294.033 136.524 292.62C136.223 291.453 135.413 290.304 134.641 289.984C133.888 289.683 132.815 289.852 132.25 290.38C131.704 290.907 131.666 290.587 132.175 289.589C132.909 288.177 134.472 287.687 135.508 288.553ZM143.265 298.1C146.24 299.248 147.502 299.87 147.333 300.152C147.163 300.435 140.366 304.276 139.518 304.577C139.066 304.728 138.52 304.803 138.313 304.747C137.146 304.389 133.681 301.583 133.681 301C133.681 300.868 133.869 300.623 134.114 300.472C134.34 300.322 135.244 299.587 136.129 298.853C138.068 297.234 139.029 296.706 139.801 296.876C140.121 296.932 141.665 297.497 143.265 298.1ZM150.458 304.765C150.854 305.481 152.228 308.456 153.527 311.356C156.973 319.151 159.346 325.516 159.986 328.773C160.419 331.052 160.287 337.058 159.741 338.79C159.666 339.054 159.421 339.129 158.593 339.129C157.35 339.129 156.465 339.506 156.032 340.259C155.58 340.994 155.354 343.027 155.335 346.285C155.297 350.258 155.222 350.615 153.998 351.858C150.948 354.984 147.483 356.886 143.924 357.394C141.439 357.733 137.635 357.94 135.884 357.827L134.208 357.714L132.702 356.02L131.177 354.325L131.855 353.741C132.89 352.818 133.173 352.235 133.192 350.917C133.21 348.958 132.288 347.847 127.467 344.1C124.229 341.596 122.534 339.845 121.988 338.47C121.611 337.491 121.555 337.02 121.555 334.799C121.555 331.372 121.969 329.752 123.796 326.043C124.549 324.48 125.773 321.543 126.507 319.509C127.976 315.367 128.296 314.689 129.444 313.05C130.838 311.092 131.949 308.456 132.269 306.404C132.344 305.971 132.42 305.613 132.457 305.613C132.495 305.613 133.097 306.046 133.775 306.554C136.28 308.437 137.899 308.946 139.669 308.362C140.177 308.192 142.286 307.1 144.339 305.952C148.519 303.636 149.102 303.353 149.479 303.41C149.63 303.429 150.082 304.031 150.458 304.765ZM117.845 342.707C119.088 343.705 119.841 344.703 122.553 349.147C125.245 353.59 125.961 354.626 127.373 356.358C130.141 359.748 130.348 361.518 128.183 363.683L127.072 364.775L125.961 364.662C124.511 364.493 121.837 363.645 118.128 362.177C115.36 361.085 114.757 360.915 110.784 360.2C106.529 359.428 105.625 359.164 105.625 358.618C105.625 358.467 105.889 357.432 106.19 356.321C106.849 353.986 106.905 353.063 106.567 350.747C106.359 349.335 106.359 349.053 106.585 348.827C106.736 348.676 107.903 348.299 109.184 347.979C113.044 347.019 113.42 346.774 114.795 344.213C116.207 341.596 116.358 341.521 117.845 342.707ZM160.494 346.379C161.436 349.561 165.409 350.427 169.438 348.356C170.756 347.659 171.133 347.358 171.98 346.228C172.752 345.193 172.79 345.23 172.903 347.226C173.054 349.862 173.995 351.312 176.518 352.781C177.479 353.346 178.345 353.929 178.477 354.08C178.778 354.438 178.439 354.664 173.75 357.168C169.363 359.503 168.61 359.993 166.953 361.518C163.865 364.361 161.794 365.359 160.438 364.662C159.591 364.21 158.913 363.081 158.687 361.687C158.498 360.633 158.536 360.181 159.063 357.488C160.08 352.348 160.231 350.389 160.005 346.002C159.929 344.515 159.948 343.893 160.042 344.439C160.118 344.91 160.325 345.795 160.494 346.379Z" fill="#FFD633"/>
<path d="M527.638 516.665C528.623 516.665 529.421 517.46 529.421 518.441V746.497C529.421 749.258 527.182 751.497 524.421 751.497L446.235 751.562L456.511 761.871C457.206 762.569 457.206 763.7 456.511 764.398L448.956 771.977C448.261 772.675 447.134 772.675 446.438 771.977L418.522 744.032C417.906 743.415 417.835 742.457 418.31 741.762L446.413 713.523C447.108 712.826 448.236 712.826 448.931 713.523L456.486 721.102C457.181 721.8 457.181 722.931 456.486 723.629L446.45 733.697L506.597 733.673C509.358 733.673 511.597 731.435 511.597 728.673V518.441C511.597 517.46 512.395 516.665 513.379 516.665H527.638Z" fill="#60A394"/>
<path d="M560.638 517C561.623 517 562.421 517.795 562.421 518.777V862.832C562.421 865.594 560.182 867.832 557.421 867.832L446.235 867.897L456.511 878.207C457.206 878.904 457.206 880.035 456.511 880.733L448.956 888.312C448.261 889.01 447.134 889.01 446.438 888.312L418.522 860.368C417.906 859.75 417.835 858.792 418.31 858.097L446.413 829.858C447.108 829.161 448.236 829.161 448.931 829.858L456.486 837.438C457.181 838.135 457.181 839.266 456.486 839.964L446.45 850.033L539.597 850.009C542.358 850.009 544.597 847.77 544.597 845.009V518.777C544.597 517.795 545.395 517 546.379 517H560.638Z" fill="#60A394"/>
<path d="M592.638 517C593.623 517 594.421 517.795 594.421 518.777V969.832C594.421 972.594 592.182 974.832 589.421 974.832L446.235 974.897L456.511 985.207C457.206 985.904 457.206 987.035 456.511 987.733L448.956 995.312C448.261 996.01 447.134 996.01 446.438 995.312L418.522 967.368C417.906 966.75 417.835 965.792 418.31 965.097L446.413 936.858C447.108 936.161 448.236 936.161 448.931 936.858L456.486 944.438C457.181 945.135 457.181 946.266 456.486 946.964L446.45 957.033L571.597 957.009C574.358 957.009 576.597 954.77 576.597 952.009V518.777C576.597 517.795 577.395 517 578.379 517H592.638Z" fill="#60A394"/>
<path d="M625.638 517C626.623 517 627.421 517.795 627.421 518.777V1096.83C627.421 1099.59 625.182 1101.83 622.421 1101.83L446.235 1101.9L456.511 1112.21C457.206 1112.9 457.206 1114.04 456.511 1114.73L448.956 1122.31C448.261 1123.01 447.134 1123.01 446.438 1122.31L418.522 1094.37C417.906 1093.75 417.835 1092.79 418.31 1092.1L446.413 1063.86C447.108 1063.16 448.236 1063.16 448.931 1063.86L456.486 1071.44C457.181 1072.14 457.181 1073.27 456.486 1073.96L446.45 1084.03L604.597 1084.01C607.358 1084.01 609.597 1081.77 609.597 1079.01V518.777C609.597 517.795 610.395 517 611.379 517H625.638Z" fill="#60A394"/>
<path d="M658.638 517C659.623 517 660.421 517.795 660.421 518.777V1212.83C660.421 1215.59 658.182 1217.83 655.421 1217.83L446.235 1217.9L456.511 1228.21C457.206 1228.9 457.206 1230.04 456.511 1230.73L448.956 1238.31C448.261 1239.01 447.134 1239.01 446.438 1238.31L418.522 1210.37C417.906 1209.75 417.835 1208.79 418.31 1208.1L446.413 1179.86C447.108 1179.16 448.236 1179.16 448.931 1179.86L456.486 1187.44C457.181 1188.14 457.181 1189.27 456.486 1189.96L446.45 1200.03L637.597 1200.01C640.358 1200.01 642.597 1197.77 642.597 1195.01V518.777C642.597 517.795 643.395 517 644.379 517H658.638Z" fill="#60A394"/>
<path d="M690.638 517C691.622 517 692.421 517.795 692.421 518.777V1334.83C692.421 1337.59 690.182 1339.83 687.421 1339.83L446.235 1339.9L456.511 1350.21C457.206 1350.9 457.206 1352.04 456.511 1352.73L448.956 1360.31C448.261 1361.01 447.134 1361.01 446.438 1360.31L418.522 1332.37C417.906 1331.75 417.835 1330.79 418.31 1330.1L446.413 1301.86C447.108 1301.16 448.236 1301.16 448.931 1301.86L456.486 1309.44C457.181 1310.14 457.181 1311.27 456.486 1311.96L446.45 1322.03L669.597 1322.01C672.358 1322.01 674.597 1319.77 674.597 1317.01V518.777C674.597 517.795 675.395 517 676.379 517H690.638Z" fill="#60A394"/>
<path d="M723.638 517C724.622 517 725.421 517.795 725.421 518.777V1451.83C725.421 1454.59 723.182 1456.83 720.421 1456.83L446.235 1456.9L456.511 1467.21C457.206 1467.9 457.206 1469.04 456.511 1469.73L448.956 1477.31C448.261 1478.01 447.134 1478.01 446.438 1477.31L418.522 1449.37C417.906 1448.75 417.835 1447.79 418.31 1447.1L446.413 1418.86C447.108 1418.16 448.236 1418.16 448.931 1418.86L456.486 1426.44C457.181 1427.14 457.181 1428.27 456.486 1428.96L446.45 1439.03L702.597 1439.01C705.358 1439.01 707.597 1436.77 707.597 1434.01V518.777C707.597 517.795 708.395 517 709.379 517H723.638Z" fill="#60A394"/>
<path d="M494.638 517C495.623 517 496.421 517.795 496.421 518.777V624.832C496.421 627.594 494.182 629.832 491.421 629.832L446.235 629.897L456.511 640.207C457.206 640.904 457.206 642.035 456.511 642.733L448.956 650.312C448.261 651.01 447.134 651.01 446.438 650.312L418.522 622.368C417.906 621.75 417.835 620.792 418.31 620.097L446.413 591.858C447.108 591.161 448.236 591.161 448.931 591.858L456.486 599.438C457.181 600.135 457.181 601.266 456.486 601.964L446.45 612.033L473.597 612.009C476.358 612.009 478.597 609.77 478.597 607.009V518.777C478.597 517.795 479.395 517 480.379 517H494.638Z" fill="#60A394"/>
</g>
<defs>
<clipPath id="clip0_112_28">
<rect width="1884" height="1496.58" fill="white" transform="translate(0.788086)"/>
</clipPath>
</defs>
</svg>
