<svg width="1520" height="2067" viewBox="0 0 1520 2067" fill="none" xmlns="http://www.w3.org/2000/svg">
<rect x="1046.71" y="32" width="441" height="108" rx="5" fill="#FB6233"/>
<path d="M1094.32 99V73.8H1099V95.04H1112.18V99H1094.32ZM1127.22 99.36C1125.26 99.36 1123.44 99.036 1121.79 98.388C1120.13 97.74 1118.69 96.84 1117.47 95.688C1116.24 94.512 1115.3 93.144 1114.62 91.584C1113.95 90 1113.62 88.272 1113.62 86.4C1113.62 84.528 1113.95 82.812 1114.62 81.252C1115.3 79.668 1116.24 78.3 1117.47 77.148C1118.69 75.972 1120.13 75.06 1121.79 74.412C1123.44 73.764 1125.24 73.44 1127.19 73.44C1129.16 73.44 1130.96 73.764 1132.59 74.412C1134.24 75.06 1135.68 75.972 1136.91 77.148C1138.13 78.3 1139.08 79.668 1139.75 81.252C1140.42 82.812 1140.76 84.528 1140.76 86.4C1140.76 88.272 1140.42 90 1139.75 91.584C1139.08 93.168 1138.13 94.536 1136.91 95.688C1135.68 96.84 1134.24 97.74 1132.59 98.388C1130.96 99.036 1129.17 99.36 1127.22 99.36ZM1127.19 95.256C1128.46 95.256 1129.64 95.04 1130.72 94.608C1131.8 94.176 1132.73 93.564 1133.52 92.772C1134.32 91.956 1134.93 91.02 1135.36 89.964C1135.82 88.884 1136.04 87.696 1136.04 86.4C1136.04 85.104 1135.82 83.928 1135.36 82.872C1134.93 81.792 1134.32 80.856 1133.52 80.064C1132.73 79.248 1131.8 78.624 1130.72 78.192C1129.64 77.76 1128.46 77.544 1127.19 77.544C1125.92 77.544 1124.74 77.76 1123.66 78.192C1122.6 78.624 1121.67 79.248 1120.85 80.064C1120.06 80.856 1119.44 81.792 1118.98 82.872C1118.55 83.928 1118.33 85.104 1118.33 86.4C1118.33 87.672 1118.55 88.848 1118.98 89.928C1119.44 91.008 1120.06 91.956 1120.85 92.772C1121.64 93.564 1122.58 94.176 1123.66 94.608C1124.74 95.04 1125.92 95.256 1127.19 95.256ZM1157.49 99.36C1155.52 99.36 1153.71 99.048 1152.06 98.424C1150.42 97.776 1149 96.876 1147.77 95.724C1146.55 94.548 1145.6 93.168 1144.93 91.584C1144.26 90 1143.92 88.272 1143.92 86.4C1143.92 84.528 1144.26 82.8 1144.93 81.216C1145.6 79.632 1146.55 78.264 1147.77 77.112C1149.02 75.936 1150.47 75.036 1152.13 74.412C1153.78 73.764 1155.6 73.44 1157.56 73.44C1159.7 73.44 1161.62 73.788 1163.32 74.484C1165.05 75.18 1166.5 76.2 1167.68 77.544L1164.73 80.424C1163.74 79.44 1162.68 78.72 1161.52 78.264C1160.4 77.784 1159.15 77.544 1157.78 77.544C1156.46 77.544 1155.24 77.76 1154.11 78.192C1152.98 78.624 1152.01 79.236 1151.19 80.028C1150.38 80.82 1149.74 81.756 1149.28 82.836C1148.85 83.916 1148.64 85.104 1148.64 86.4C1148.64 87.672 1148.85 88.848 1149.28 89.928C1149.74 91.008 1150.38 91.956 1151.19 92.772C1152.01 93.564 1152.97 94.176 1154.07 94.608C1155.18 95.04 1156.4 95.256 1157.74 95.256C1158.99 95.256 1160.19 95.064 1161.34 94.68C1162.52 94.272 1163.64 93.6 1164.69 92.664L1167.36 96.156C1166.04 97.212 1164.5 98.016 1162.75 98.568C1161.02 99.096 1159.27 99.36 1157.49 99.36ZM1162.93 95.544V86.112H1167.36V96.156L1162.93 95.544ZM1173.53 99V73.8H1178.21V99H1173.53ZM1185.02 99V73.8H1188.88L1204.68 93.204H1202.77V73.8H1207.42V99H1203.56L1187.76 79.596H1189.67V99H1185.02ZM1231.39 99.36C1229.64 99.36 1228.07 99.072 1226.67 98.496C1225.28 97.92 1224.19 97.128 1223.4 96.12C1222.61 95.112 1222.21 93.948 1222.21 92.628C1222.21 91.428 1222.47 90.348 1223 89.388C1223.53 88.428 1224.37 87.516 1225.52 86.652C1226.67 85.764 1228.15 84.876 1229.95 83.988C1231.37 83.292 1232.47 82.68 1233.26 82.152C1234.08 81.624 1234.64 81.12 1234.95 80.64C1235.29 80.16 1235.46 79.656 1235.46 79.128C1235.46 78.408 1235.21 77.832 1234.7 77.4C1234.2 76.944 1233.48 76.716 1232.54 76.716C1231.53 76.716 1230.74 76.968 1230.17 77.472C1229.61 77.952 1229.34 78.588 1229.34 79.38C1229.34 79.788 1229.41 80.184 1229.55 80.568C1229.72 80.952 1230.01 81.384 1230.42 81.864C1230.83 82.344 1231.41 82.956 1232.18 83.7L1245.5 96.48L1243.02 99.396L1228.62 85.572C1227.8 84.78 1227.14 84.048 1226.64 83.376C1226.13 82.704 1225.77 82.056 1225.56 81.432C1225.34 80.784 1225.23 80.124 1225.23 79.452C1225.23 78.276 1225.53 77.244 1226.13 76.356C1226.73 75.444 1227.59 74.748 1228.69 74.268C1229.79 73.764 1231.08 73.512 1232.54 73.512C1233.91 73.512 1235.09 73.74 1236.07 74.196C1237.08 74.628 1237.86 75.264 1238.41 76.104C1238.99 76.92 1239.27 77.904 1239.27 79.056C1239.27 80.064 1239.02 81 1238.52 81.864C1238.01 82.704 1237.22 83.508 1236.14 84.276C1235.09 85.044 1233.67 85.848 1231.89 86.688C1230.57 87.336 1229.53 87.948 1228.76 88.524C1227.99 89.1 1227.44 89.676 1227.11 90.252C1226.77 90.828 1226.6 91.464 1226.6 92.16C1226.6 92.856 1226.81 93.468 1227.21 93.996C1227.65 94.524 1228.25 94.944 1229.01 95.256C1229.78 95.544 1230.68 95.688 1231.71 95.688C1233.25 95.688 1234.64 95.352 1235.89 94.68C1237.16 93.984 1238.23 92.952 1239.09 91.584C1239.96 90.216 1240.58 88.524 1240.97 86.508L1244.6 87.696C1244.1 90.12 1243.22 92.208 1241.97 93.96C1240.75 95.688 1239.24 97.02 1237.44 97.956C1235.64 98.892 1233.62 99.36 1231.39 99.36ZM1255.92 99L1267.26 73.8H1271.87L1283.25 99H1278.35L1268.59 76.284H1270.47L1260.75 99H1255.92ZM1261.14 93.168L1262.4 89.496H1276.01L1277.27 93.168H1261.14ZM1297.76 99.36C1295.84 99.36 1294.05 99.048 1292.4 98.424C1290.77 97.776 1289.34 96.876 1288.11 95.724C1286.91 94.548 1285.98 93.168 1285.31 91.584C1284.63 90 1284.3 88.272 1284.3 86.4C1284.3 84.528 1284.63 82.8 1285.31 81.216C1285.98 79.632 1286.93 78.264 1288.15 77.112C1289.37 75.936 1290.8 75.036 1292.43 74.412C1294.07 73.764 1295.85 73.44 1297.8 73.44C1299.86 73.44 1301.75 73.8 1303.45 74.52C1305.15 75.216 1306.59 76.26 1307.77 77.652L1304.75 80.496C1303.83 79.512 1302.81 78.78 1301.69 78.3C1300.56 77.796 1299.33 77.544 1298.01 77.544C1296.69 77.544 1295.48 77.76 1294.38 78.192C1293.3 78.624 1292.35 79.236 1291.53 80.028C1290.74 80.82 1290.12 81.756 1289.66 82.836C1289.23 83.916 1289.01 85.104 1289.01 86.4C1289.01 87.696 1289.23 88.884 1289.66 89.964C1290.12 91.044 1290.74 91.98 1291.53 92.772C1292.35 93.564 1293.3 94.176 1294.38 94.608C1295.48 95.04 1296.69 95.256 1298.01 95.256C1299.33 95.256 1300.56 95.016 1301.69 94.536C1302.81 94.032 1303.83 93.276 1304.75 92.268L1307.77 95.148C1306.59 96.516 1305.15 97.56 1303.45 98.28C1301.75 99 1299.85 99.36 1297.76 99.36ZM1323.39 99.36C1321.47 99.36 1319.68 99.048 1318.03 98.424C1316.4 97.776 1314.97 96.876 1313.74 95.724C1312.54 94.548 1311.61 93.168 1310.94 91.584C1310.26 90 1309.93 88.272 1309.93 86.4C1309.93 84.528 1310.26 82.8 1310.94 81.216C1311.61 79.632 1312.56 78.264 1313.78 77.112C1315 75.936 1316.43 75.036 1318.06 74.412C1319.7 73.764 1321.48 73.44 1323.43 73.44C1325.49 73.44 1327.38 73.8 1329.08 74.52C1330.78 75.216 1332.22 76.26 1333.4 77.652L1330.38 80.496C1329.46 79.512 1328.44 78.78 1327.32 78.3C1326.19 77.796 1324.96 77.544 1323.64 77.544C1322.32 77.544 1321.11 77.76 1320.01 78.192C1318.93 78.624 1317.98 79.236 1317.16 80.028C1316.37 80.82 1315.75 81.756 1315.29 82.836C1314.86 83.916 1314.64 85.104 1314.64 86.4C1314.64 87.696 1314.86 88.884 1315.29 89.964C1315.75 91.044 1316.37 91.98 1317.16 92.772C1317.98 93.564 1318.93 94.176 1320.01 94.608C1321.11 95.04 1322.32 95.256 1323.64 95.256C1324.96 95.256 1326.19 95.016 1327.32 94.536C1328.44 94.032 1329.46 93.276 1330.38 92.268L1333.4 95.148C1332.22 96.516 1330.78 97.56 1329.08 98.28C1327.38 99 1325.48 99.36 1323.39 99.36ZM1349.16 99.36C1347.2 99.36 1345.38 99.036 1343.73 98.388C1342.07 97.74 1340.63 96.84 1339.41 95.688C1338.18 94.512 1337.24 93.144 1336.56 91.584C1335.89 90 1335.56 88.272 1335.56 86.4C1335.56 84.528 1335.89 82.812 1336.56 81.252C1337.24 79.668 1338.18 78.3 1339.41 77.148C1340.63 75.972 1342.07 75.06 1343.73 74.412C1345.38 73.764 1347.18 73.44 1349.13 73.44C1351.1 73.44 1352.9 73.764 1354.53 74.412C1356.18 75.06 1357.62 75.972 1358.85 77.148C1360.07 78.3 1361.02 79.668 1361.69 81.252C1362.36 82.812 1362.7 84.528 1362.7 86.4C1362.7 88.272 1362.36 90 1361.69 91.584C1361.02 93.168 1360.07 94.536 1358.85 95.688C1357.62 96.84 1356.18 97.74 1354.53 98.388C1352.9 99.036 1351.11 99.36 1349.16 99.36ZM1349.13 95.256C1350.4 95.256 1351.58 95.04 1352.66 94.608C1353.74 94.176 1354.67 93.564 1355.46 92.772C1356.26 91.956 1356.87 91.02 1357.3 89.964C1357.76 88.884 1357.98 87.696 1357.98 86.4C1357.98 85.104 1357.76 83.928 1357.3 82.872C1356.87 81.792 1356.26 80.856 1355.46 80.064C1354.67 79.248 1353.74 78.624 1352.66 78.192C1351.58 77.76 1350.4 77.544 1349.13 77.544C1347.86 77.544 1346.68 77.76 1345.6 78.192C1344.54 78.624 1343.61 79.248 1342.79 80.064C1342 80.856 1341.38 81.792 1340.92 82.872C1340.49 83.928 1340.27 85.104 1340.27 86.4C1340.27 87.672 1340.49 88.848 1340.92 89.928C1341.38 91.008 1342 91.956 1342.79 92.772C1343.58 93.564 1344.52 94.176 1345.6 94.608C1346.68 95.04 1347.86 95.256 1349.13 95.256ZM1378.5 99.36C1375.04 99.36 1372.33 98.388 1370.36 96.444C1368.42 94.5 1367.45 91.692 1367.45 88.02V73.8H1372.13V87.84C1372.13 90.432 1372.68 92.316 1373.78 93.492C1374.91 94.668 1376.49 95.256 1378.53 95.256C1380.57 95.256 1382.15 94.668 1383.25 93.492C1384.35 92.316 1384.91 90.432 1384.91 87.84V73.8H1389.51V88.02C1389.51 91.692 1388.53 94.5 1386.56 96.444C1384.62 98.388 1381.93 99.36 1378.5 99.36ZM1396.07 99V73.8H1399.92L1415.72 93.204H1413.82V73.8H1418.46V99H1414.61L1398.8 79.596H1400.71V99H1396.07ZM1430.32 99V77.76H1421.97V73.8H1443.36V77.76H1435V99H1430.32Z" fill="white"/>
<rect x="1046.71" y="204" width="441" height="108" rx="5" fill="#FB6233"/>
<path d="M1216.23 271.36C1214.27 271.36 1212.38 271.084 1210.58 270.532C1208.78 269.956 1207.35 269.224 1206.3 268.336L1207.92 264.7C1208.93 265.492 1210.17 266.152 1211.66 266.68C1213.15 267.208 1214.67 267.472 1216.23 267.472C1217.55 267.472 1218.62 267.328 1219.44 267.04C1220.25 266.752 1220.85 266.368 1221.24 265.888C1221.62 265.384 1221.81 264.82 1221.81 264.196C1221.81 263.428 1221.54 262.816 1220.99 262.36C1220.43 261.88 1219.71 261.508 1218.83 261.244C1217.96 260.956 1216.99 260.692 1215.91 260.452C1214.85 260.212 1213.79 259.936 1212.71 259.624C1211.65 259.288 1210.68 258.868 1209.79 258.364C1208.93 257.836 1208.22 257.14 1207.67 256.276C1207.11 255.412 1206.84 254.308 1206.84 252.964C1206.84 251.596 1207.2 250.348 1207.92 249.22C1208.66 248.068 1209.78 247.156 1211.27 246.484C1212.78 245.788 1214.69 245.44 1216.99 245.44C1218.5 245.44 1220 245.632 1221.49 246.016C1222.98 246.4 1224.27 246.952 1225.38 247.672L1223.9 251.308C1222.77 250.636 1221.61 250.144 1220.41 249.832C1219.21 249.496 1218.06 249.328 1216.95 249.328C1215.66 249.328 1214.6 249.484 1213.79 249.796C1212.99 250.108 1212.41 250.516 1212.02 251.02C1211.66 251.524 1211.48 252.1 1211.48 252.748C1211.48 253.516 1211.75 254.14 1212.27 254.62C1212.83 255.076 1213.53 255.436 1214.4 255.7C1215.29 255.964 1216.27 256.228 1217.35 256.492C1218.43 256.732 1219.5 257.008 1220.55 257.32C1221.63 257.632 1222.61 258.04 1223.47 258.544C1224.36 259.048 1225.07 259.732 1225.59 260.596C1226.15 261.46 1226.42 262.552 1226.42 263.872C1226.42 265.216 1226.05 266.464 1225.31 267.616C1224.59 268.744 1223.47 269.656 1221.96 270.352C1220.45 271.024 1218.54 271.36 1216.23 271.36ZM1235.82 271V249.76H1227.47V245.8H1248.85V249.76H1240.5V271H1235.82ZM1263.82 271.36C1261.85 271.36 1260.04 271.036 1258.39 270.388C1256.73 269.74 1255.29 268.84 1254.07 267.688C1252.84 266.512 1251.89 265.144 1251.22 263.584C1250.55 262 1250.21 260.272 1250.21 258.4C1250.21 256.528 1250.55 254.812 1251.22 253.252C1251.89 251.668 1252.84 250.3 1254.07 249.148C1255.29 247.972 1256.73 247.06 1258.39 246.412C1260.04 245.764 1261.84 245.44 1263.79 245.44C1265.75 245.44 1267.55 245.764 1269.19 246.412C1270.84 247.06 1272.28 247.972 1273.51 249.148C1274.73 250.3 1275.68 251.668 1276.35 253.252C1277.02 254.812 1277.36 256.528 1277.36 258.4C1277.36 260.272 1277.02 262 1276.35 263.584C1275.68 265.168 1274.73 266.536 1273.51 267.688C1272.28 268.84 1270.84 269.74 1269.19 270.388C1267.55 271.036 1265.77 271.36 1263.82 271.36ZM1263.79 267.256C1265.06 267.256 1266.23 267.04 1267.31 266.608C1268.39 266.176 1269.33 265.564 1270.12 264.772C1270.91 263.956 1271.53 263.02 1271.96 261.964C1272.41 260.884 1272.64 259.696 1272.64 258.4C1272.64 257.104 1272.41 255.928 1271.96 254.872C1271.53 253.792 1270.91 252.856 1270.12 252.064C1269.33 251.248 1268.39 250.624 1267.31 250.192C1266.23 249.76 1265.06 249.544 1263.79 249.544C1262.51 249.544 1261.34 249.76 1260.26 250.192C1259.2 250.624 1258.27 251.248 1257.45 252.064C1256.66 252.856 1256.03 253.792 1255.58 254.872C1255.15 255.928 1254.93 257.104 1254.93 258.4C1254.93 259.672 1255.15 260.848 1255.58 261.928C1256.03 263.008 1256.66 263.956 1257.45 264.772C1258.24 265.564 1259.18 266.176 1260.26 266.608C1261.34 267.04 1262.51 267.256 1263.79 267.256ZM1282.32 271V245.8H1292.69C1294.92 245.8 1296.83 246.16 1298.41 246.88C1300.02 247.6 1301.26 248.632 1302.12 249.976C1302.98 251.32 1303.42 252.916 1303.42 254.764C1303.42 256.612 1302.98 258.208 1302.12 259.552C1301.26 260.872 1300.02 261.892 1298.41 262.612C1296.83 263.308 1294.92 263.656 1292.69 263.656H1284.91L1287 261.532V271H1282.32ZM1298.81 271L1292.44 261.856H1297.44L1303.85 271H1298.81ZM1287 262.036L1284.91 259.804H1292.47C1294.54 259.804 1296.08 259.36 1297.12 258.472C1298.17 257.584 1298.7 256.348 1298.7 254.764C1298.7 253.156 1298.17 251.92 1297.12 251.056C1296.08 250.192 1294.54 249.76 1292.47 249.76H1284.91L1287 247.456V262.036ZM1312.97 256.276H1325.5V260.128H1312.97V256.276ZM1313.33 267.076H1327.55V271H1308.65V245.8H1327.05V249.724H1313.33V267.076Z" fill="white"/>
<rect x="1046.71" y="376" width="441" height="108" rx="5" fill="#FB6233"/>
<path d="M1179.22 443V417.8H1189.59C1191.82 417.8 1193.73 418.16 1195.32 418.88C1196.92 419.6 1198.16 420.632 1199.02 421.976C1199.89 423.32 1200.32 424.916 1200.32 426.764C1200.32 428.612 1199.89 430.208 1199.02 431.552C1198.16 432.896 1196.92 433.928 1195.32 434.648C1193.73 435.368 1191.82 435.728 1189.59 435.728H1181.82L1183.9 433.532V443H1179.22ZM1183.9 434.036L1181.82 431.768H1189.38C1191.44 431.768 1192.99 431.336 1194.02 430.472C1195.08 429.584 1195.6 428.348 1195.6 426.764C1195.6 425.156 1195.08 423.92 1194.02 423.056C1192.99 422.192 1191.44 421.76 1189.38 421.76H1181.82L1183.9 419.456V434.036ZM1200.16 443L1211.5 417.8H1216.11L1227.49 443H1222.59L1212.84 420.284H1214.71L1204.99 443H1200.16ZM1205.38 437.168L1206.64 433.496H1220.25L1221.51 437.168H1205.38ZM1235.37 443V433.028L1236.42 435.908L1225.47 417.8H1230.48L1239.26 432.38H1236.45L1245.31 417.8H1249.92L1238.97 435.908L1240.05 433.028V443H1235.37ZM1252.67 443V417.8H1256.52L1267.53 436.196H1265.52L1276.35 417.8H1280.21L1280.24 443H1275.81L1275.78 424.748H1276.71L1267.5 440.12H1265.41L1256.05 424.748H1257.13V443H1252.67ZM1291.37 428.276H1303.9V432.128H1291.37V428.276ZM1291.73 439.076H1305.95V443H1287.05V417.8H1305.44V421.724H1291.73V439.076ZM1311.17 443V417.8H1315.02L1330.82 437.204H1328.91V417.8H1333.56V443H1329.71L1313.9 423.596H1315.81V443H1311.17ZM1345.42 443V421.76H1337.07V417.8H1358.45V421.76H1350.1V443H1345.42Z" fill="white"/>
<rect x="1046.71" y="548" width="441" height="108" rx="5" fill="#FB6233"/>
<path d="M1200.73 615.36C1198.76 615.36 1196.88 615.084 1195.08 614.532C1193.28 613.956 1191.85 613.224 1190.79 612.336L1192.41 608.7C1193.42 609.492 1194.67 610.152 1196.16 610.68C1197.65 611.208 1199.17 611.472 1200.73 611.472C1202.05 611.472 1203.12 611.328 1203.93 611.04C1204.75 610.752 1205.35 610.368 1205.73 609.888C1206.12 609.384 1206.31 608.82 1206.31 608.196C1206.31 607.428 1206.03 606.816 1205.48 606.36C1204.93 605.88 1204.21 605.508 1203.32 605.244C1202.46 604.956 1201.49 604.692 1200.41 604.452C1199.35 604.212 1198.28 603.936 1197.2 603.624C1196.15 603.288 1195.17 602.868 1194.29 602.364C1193.42 601.836 1192.71 601.14 1192.16 600.276C1191.61 599.412 1191.33 598.308 1191.33 596.964C1191.33 595.596 1191.69 594.348 1192.41 593.22C1193.16 592.068 1194.27 591.156 1195.76 590.484C1197.27 589.788 1199.18 589.44 1201.49 589.44C1203 589.44 1204.5 589.632 1205.99 590.016C1207.47 590.4 1208.77 590.952 1209.87 591.672L1208.4 595.308C1207.27 594.636 1206.11 594.144 1204.91 593.832C1203.71 593.496 1202.55 593.328 1201.45 593.328C1200.15 593.328 1199.1 593.484 1198.28 593.796C1197.49 594.108 1196.9 594.516 1196.52 595.02C1196.16 595.524 1195.98 596.1 1195.98 596.748C1195.98 597.516 1196.24 598.14 1196.77 598.62C1197.32 599.076 1198.03 599.436 1198.89 599.7C1199.78 599.964 1200.77 600.228 1201.85 600.492C1202.93 600.732 1203.99 601.008 1205.05 601.32C1206.13 601.632 1207.1 602.04 1207.97 602.544C1208.85 603.048 1209.56 603.732 1210.09 604.596C1210.64 605.46 1210.92 606.552 1210.92 607.872C1210.92 609.216 1210.55 610.464 1209.8 611.616C1209.08 612.744 1207.97 613.656 1206.45 614.352C1204.94 615.024 1203.03 615.36 1200.73 615.36ZM1219.88 600.276H1232.41V604.128H1219.88V600.276ZM1220.24 611.076H1234.46V615H1215.56V589.8H1233.95V593.724H1220.24V611.076ZM1236.11 615L1247.45 589.8H1252.06L1263.44 615H1258.54L1248.78 592.284H1250.66L1240.94 615H1236.11ZM1241.33 609.168L1242.59 605.496H1256.2L1257.46 609.168H1241.33ZM1266.64 615V589.8H1277.01C1279.24 589.8 1281.15 590.16 1282.73 590.88C1284.34 591.6 1285.58 592.632 1286.44 593.976C1287.3 595.32 1287.74 596.916 1287.74 598.764C1287.74 600.612 1287.3 602.208 1286.44 603.552C1285.58 604.872 1284.34 605.892 1282.73 606.612C1281.15 607.308 1279.24 607.656 1277.01 607.656H1269.23L1271.32 605.532V615H1266.64ZM1283.13 615L1276.76 605.856H1281.76L1288.17 615H1283.13ZM1271.32 606.036L1269.23 603.804H1276.79C1278.86 603.804 1280.4 603.36 1281.44 602.472C1282.49 601.584 1283.02 600.348 1283.02 598.764C1283.02 597.156 1282.49 595.92 1281.44 595.056C1280.4 594.192 1278.86 593.76 1276.79 593.76H1269.23L1271.32 591.456V606.036ZM1304.64 615.36C1302.72 615.36 1300.93 615.048 1299.27 614.424C1297.64 613.776 1296.21 612.876 1294.99 611.724C1293.79 610.548 1292.85 609.168 1292.18 607.584C1291.51 606 1291.17 604.272 1291.17 602.4C1291.17 600.528 1291.51 598.8 1292.18 597.216C1292.85 595.632 1293.8 594.264 1295.02 593.112C1296.25 591.936 1297.68 591.036 1299.31 590.412C1300.94 589.764 1302.73 589.44 1304.67 589.44C1306.74 589.44 1308.62 589.8 1310.32 590.52C1312.03 591.216 1313.47 592.26 1314.64 593.652L1311.62 596.496C1310.71 595.512 1309.69 594.78 1308.56 594.3C1307.43 593.796 1306.21 593.544 1304.89 593.544C1303.57 593.544 1302.36 593.76 1301.25 594.192C1300.17 594.624 1299.22 595.236 1298.41 596.028C1297.62 596.82 1296.99 597.756 1296.54 598.836C1296.1 599.916 1295.89 601.104 1295.89 602.4C1295.89 603.696 1296.1 604.884 1296.54 605.964C1296.99 607.044 1297.62 607.98 1298.41 608.772C1299.22 609.564 1300.17 610.176 1301.25 610.608C1302.36 611.04 1303.57 611.256 1304.89 611.256C1306.21 611.256 1307.43 611.016 1308.56 610.536C1309.69 610.032 1310.71 609.276 1311.62 608.268L1314.64 611.148C1313.47 612.516 1312.03 613.56 1310.32 614.28C1308.62 615 1306.72 615.36 1304.64 615.36ZM1336.84 589.8H1341.52V615H1336.84V589.8ZM1323.81 615H1319.13V589.8H1323.81V615ZM1337.2 604.2H1323.41V600.204H1337.2V604.2Z" fill="white"/>
<rect x="1046.71" y="720" width="441" height="108" rx="5" fill="#FB6233"/>
<path d="M1217.3 787V761.8H1229.11C1232.13 761.8 1234.43 762.4 1236.02 763.6C1237.6 764.776 1238.39 766.36 1238.39 768.352C1238.39 769.696 1238.08 770.848 1237.46 771.808C1236.83 772.744 1235.99 773.476 1234.94 774.004C1233.91 774.508 1232.78 774.76 1231.55 774.76L1232.2 773.464C1233.62 773.464 1234.89 773.728 1236.02 774.256C1237.15 774.76 1238.03 775.504 1238.68 776.488C1239.35 777.472 1239.69 778.696 1239.69 780.16C1239.69 782.32 1238.86 784 1237.21 785.2C1235.55 786.4 1233.09 787 1229.83 787H1217.3ZM1221.98 783.328H1229.54C1231.29 783.328 1232.63 783.04 1233.57 782.464C1234.51 781.888 1234.97 780.964 1234.97 779.692C1234.97 778.444 1234.51 777.532 1233.57 776.956C1232.63 776.356 1231.29 776.056 1229.54 776.056H1221.62V772.42H1228.6C1230.23 772.42 1231.48 772.132 1232.35 771.556C1233.23 770.98 1233.68 770.116 1233.68 768.964C1233.68 767.788 1233.23 766.912 1232.35 766.336C1231.48 765.76 1230.23 765.472 1228.6 765.472H1221.98V783.328ZM1244.68 787V761.8H1249.36V783.04H1262.54V787H1244.68ZM1277.59 787.36C1275.62 787.36 1273.81 787.036 1272.15 786.388C1270.49 785.74 1269.05 784.84 1267.83 783.688C1266.61 782.512 1265.66 781.144 1264.99 779.584C1264.31 778 1263.98 776.272 1263.98 774.4C1263.98 772.528 1264.31 770.812 1264.99 769.252C1265.66 767.668 1266.61 766.3 1267.83 765.148C1269.05 763.972 1270.49 763.06 1272.15 762.412C1273.81 761.764 1275.61 761.44 1277.55 761.44C1279.52 761.44 1281.32 761.764 1282.95 762.412C1284.61 763.06 1286.05 763.972 1287.27 765.148C1288.49 766.3 1289.44 767.668 1290.11 769.252C1290.79 770.812 1291.12 772.528 1291.12 774.4C1291.12 776.272 1290.79 778 1290.11 779.584C1289.44 781.168 1288.49 782.536 1287.27 783.688C1286.05 784.84 1284.61 785.74 1282.95 786.388C1281.32 787.036 1279.53 787.36 1277.59 787.36ZM1277.55 783.256C1278.82 783.256 1280 783.04 1281.08 782.608C1282.16 782.176 1283.09 781.564 1283.89 780.772C1284.68 779.956 1285.29 779.02 1285.72 777.964C1286.18 776.884 1286.41 775.696 1286.41 774.4C1286.41 773.104 1286.18 771.928 1285.72 770.872C1285.29 769.792 1284.68 768.856 1283.89 768.064C1283.09 767.248 1282.16 766.624 1281.08 766.192C1280 765.76 1278.82 765.544 1277.55 765.544C1276.28 765.544 1275.1 765.76 1274.02 766.192C1272.97 766.624 1272.03 767.248 1271.21 768.064C1270.42 768.856 1269.8 769.792 1269.34 770.872C1268.91 771.928 1268.69 773.104 1268.69 774.4C1268.69 775.672 1268.91 776.848 1269.34 777.928C1269.8 779.008 1270.42 779.956 1271.21 780.772C1272.01 781.564 1272.94 782.176 1274.02 782.608C1275.1 783.04 1276.28 783.256 1277.55 783.256ZM1307.86 787.36C1305.89 787.36 1304.08 787.048 1302.42 786.424C1300.79 785.776 1299.36 784.876 1298.14 783.724C1296.91 782.548 1295.96 781.168 1295.29 779.584C1294.62 778 1294.28 776.272 1294.28 774.4C1294.28 772.528 1294.62 770.8 1295.29 769.216C1295.96 767.632 1296.91 766.264 1298.14 765.112C1299.38 763.936 1300.84 763.036 1302.49 762.412C1304.15 761.764 1305.96 761.44 1307.93 761.44C1310.06 761.44 1311.98 761.788 1313.69 762.484C1315.42 763.18 1316.87 764.2 1318.04 765.544L1315.09 768.424C1314.11 767.44 1313.04 766.72 1311.89 766.264C1310.76 765.784 1309.51 765.544 1308.14 765.544C1306.82 765.544 1305.6 765.76 1304.47 766.192C1303.34 766.624 1302.37 767.236 1301.56 768.028C1300.74 768.82 1300.1 769.756 1299.65 770.836C1299.22 771.916 1299 773.104 1299 774.4C1299 775.672 1299.22 776.848 1299.65 777.928C1300.1 779.008 1300.74 779.956 1301.56 780.772C1302.37 781.564 1303.33 782.176 1304.44 782.608C1305.54 783.04 1306.76 783.256 1308.11 783.256C1309.36 783.256 1310.56 783.064 1311.71 782.68C1312.88 782.272 1314 781.6 1315.06 780.664L1317.72 784.156C1316.4 785.212 1314.86 786.016 1313.11 786.568C1311.38 787.096 1309.63 787.36 1307.86 787.36ZM1313.29 783.544V774.112H1317.72V784.156L1313.29 783.544Z" fill="white"/>
<rect x="1046.71" y="892" width="441" height="108" rx="5" fill="#FB6233"/>
<path d="M1163.37 959L1174.71 933.8H1179.32L1190.7 959H1185.8L1176.04 936.284H1177.92L1168.2 959H1163.37ZM1168.59 953.168L1169.85 949.496H1183.46L1184.72 953.168H1168.59ZM1193.9 959V933.8H1197.75L1213.56 953.204H1211.65V933.8H1216.29V959H1212.44L1196.64 939.596H1198.55V959H1193.9ZM1219.48 959L1230.82 933.8H1235.43L1246.81 959H1241.91L1232.15 936.284H1234.03L1224.31 959H1219.48ZM1224.7 953.168L1225.96 949.496H1239.57L1240.83 953.168H1224.7ZM1250.01 959V933.8H1254.69V955.04H1267.87V959H1250.01ZM1275.12 959V949.028L1276.16 951.908L1265.22 933.8H1270.22L1279.01 948.38H1276.2L1285.05 933.8H1289.66L1278.72 951.908L1279.8 949.028V959H1275.12ZM1297.45 959V937.76H1289.1V933.8H1310.48V937.76H1302.13V959H1297.45ZM1314 959V933.8H1318.68V959H1314ZM1337.16 959.36C1335.24 959.36 1333.45 959.048 1331.79 958.424C1330.16 957.776 1328.73 956.876 1327.51 955.724C1326.31 954.548 1325.37 953.168 1324.7 951.584C1324.03 950 1323.69 948.272 1323.69 946.4C1323.69 944.528 1324.03 942.8 1324.7 941.216C1325.37 939.632 1326.32 938.264 1327.54 937.112C1328.77 935.936 1330.2 935.036 1331.83 934.412C1333.46 933.764 1335.25 933.44 1337.19 933.44C1339.26 933.44 1341.14 933.8 1342.84 934.52C1344.55 935.216 1345.99 936.26 1347.16 937.652L1344.14 940.496C1343.23 939.512 1342.21 938.78 1341.08 938.3C1339.95 937.796 1338.73 937.544 1337.41 937.544C1336.09 937.544 1334.88 937.76 1333.77 938.192C1332.69 938.624 1331.74 939.236 1330.93 940.028C1330.14 940.82 1329.51 941.756 1329.06 942.836C1328.62 943.916 1328.41 945.104 1328.41 946.4C1328.41 947.696 1328.62 948.884 1329.06 949.964C1329.51 951.044 1330.14 951.98 1330.93 952.772C1331.74 953.564 1332.69 954.176 1333.77 954.608C1334.88 955.04 1336.09 955.256 1337.41 955.256C1338.73 955.256 1339.95 955.016 1341.08 954.536C1342.21 954.032 1343.23 953.276 1344.14 952.268L1347.16 955.148C1345.99 956.516 1344.55 957.56 1342.84 958.28C1341.14 959 1339.24 959.36 1337.16 959.36ZM1359.42 959.36C1357.46 959.36 1355.57 959.084 1353.77 958.532C1351.97 957.956 1350.54 957.224 1349.49 956.336L1351.11 952.7C1352.12 953.492 1353.36 954.152 1354.85 954.68C1356.34 955.208 1357.86 955.472 1359.42 955.472C1360.74 955.472 1361.81 955.328 1362.63 955.04C1363.44 954.752 1364.04 954.368 1364.43 953.888C1364.81 953.384 1365 952.82 1365 952.196C1365 951.428 1364.73 950.816 1364.18 950.36C1363.62 949.88 1362.9 949.508 1362.02 949.244C1361.15 948.956 1360.18 948.692 1359.1 948.452C1358.04 948.212 1356.98 947.936 1355.9 947.624C1354.84 947.288 1353.87 946.868 1352.98 946.364C1352.12 945.836 1351.41 945.14 1350.86 944.276C1350.3 943.412 1350.03 942.308 1350.03 940.964C1350.03 939.596 1350.39 938.348 1351.11 937.22C1351.85 936.068 1352.97 935.156 1354.46 934.484C1355.97 933.788 1357.88 933.44 1360.18 933.44C1361.69 933.44 1363.19 933.632 1364.68 934.016C1366.17 934.4 1367.46 934.952 1368.57 935.672L1367.09 939.308C1365.96 938.636 1364.8 938.144 1363.6 937.832C1362.4 937.496 1361.25 937.328 1360.14 937.328C1358.85 937.328 1357.79 937.484 1356.98 937.796C1356.18 938.108 1355.6 938.516 1355.21 939.02C1354.85 939.524 1354.67 940.1 1354.67 940.748C1354.67 941.516 1354.94 942.14 1355.46 942.62C1356.02 943.076 1356.72 943.436 1357.59 943.7C1358.48 943.964 1359.46 944.228 1360.54 944.492C1361.62 944.732 1362.69 945.008 1363.74 945.32C1364.82 945.632 1365.8 946.04 1366.66 946.544C1367.55 947.048 1368.26 947.732 1368.78 948.596C1369.34 949.46 1369.61 950.552 1369.61 951.872C1369.61 953.216 1369.24 954.464 1368.5 955.616C1367.78 956.744 1366.66 957.656 1365.15 958.352C1363.64 959.024 1361.73 959.36 1359.42 959.36Z" fill="white"/>
<rect x="1046.71" y="1064" width="441" height="108" rx="5" fill="#FB6233"/>
<path d="M1082.54 1131V1105.8H1092.91C1095.14 1105.8 1097.05 1106.16 1098.64 1106.88C1100.24 1107.6 1101.48 1108.63 1102.34 1109.98C1103.21 1111.32 1103.64 1112.92 1103.64 1114.76C1103.64 1116.61 1103.21 1118.21 1102.34 1119.55C1101.48 1120.87 1100.24 1121.89 1098.64 1122.61C1097.05 1123.31 1095.14 1123.66 1092.91 1123.66H1085.14L1087.22 1121.53V1131H1082.54ZM1099.03 1131L1092.66 1121.86H1097.66L1104.07 1131H1099.03ZM1087.22 1122.04L1085.14 1119.8H1092.7C1094.76 1119.8 1096.31 1119.36 1097.34 1118.47C1098.4 1117.58 1098.92 1116.35 1098.92 1114.76C1098.92 1113.16 1098.4 1111.92 1097.34 1111.06C1096.31 1110.19 1094.76 1109.76 1092.7 1109.76H1085.14L1087.22 1107.46V1122.04ZM1113.2 1116.28H1125.72V1120.13H1113.2V1116.28ZM1113.56 1127.08H1127.78V1131H1108.88V1105.8H1127.27V1109.72H1113.56V1127.08ZM1144.66 1131.36C1142.74 1131.36 1140.95 1131.05 1139.29 1130.42C1137.66 1129.78 1136.23 1128.88 1135.01 1127.72C1133.81 1126.55 1132.87 1125.17 1132.2 1123.58C1131.53 1122 1131.19 1120.27 1131.19 1118.4C1131.19 1116.53 1131.53 1114.8 1132.2 1113.22C1132.87 1111.63 1133.82 1110.26 1135.05 1109.11C1136.27 1107.94 1137.7 1107.04 1139.33 1106.41C1140.96 1105.76 1142.75 1105.44 1144.69 1105.44C1146.76 1105.44 1148.64 1105.8 1150.35 1106.52C1152.05 1107.22 1153.49 1108.26 1154.67 1109.65L1151.64 1112.5C1150.73 1111.51 1149.71 1110.78 1148.58 1110.3C1147.45 1109.8 1146.23 1109.54 1144.91 1109.54C1143.59 1109.54 1142.38 1109.76 1141.27 1110.19C1140.19 1110.62 1139.25 1111.24 1138.43 1112.03C1137.64 1112.82 1137.01 1113.76 1136.56 1114.84C1136.13 1115.92 1135.91 1117.1 1135.91 1118.4C1135.91 1119.7 1136.13 1120.88 1136.56 1121.96C1137.01 1123.04 1137.64 1123.98 1138.43 1124.77C1139.25 1125.56 1140.19 1126.18 1141.27 1126.61C1142.38 1127.04 1143.59 1127.26 1144.91 1127.26C1146.23 1127.26 1147.45 1127.02 1148.58 1126.54C1149.71 1126.03 1150.73 1125.28 1151.64 1124.27L1154.67 1127.15C1153.49 1128.52 1152.05 1129.56 1150.35 1130.28C1148.64 1131 1146.75 1131.36 1144.66 1131.36ZM1170.43 1131.36C1168.46 1131.36 1166.65 1131.04 1164.99 1130.39C1163.34 1129.74 1161.9 1128.84 1160.67 1127.69C1159.45 1126.51 1158.5 1125.14 1157.83 1123.58C1157.16 1122 1156.82 1120.27 1156.82 1118.4C1156.82 1116.53 1157.16 1114.81 1157.83 1113.25C1158.5 1111.67 1159.45 1110.3 1160.67 1109.15C1161.9 1107.97 1163.34 1107.06 1164.99 1106.41C1166.65 1105.76 1168.45 1105.44 1170.39 1105.44C1172.36 1105.44 1174.16 1105.76 1175.79 1106.41C1177.45 1107.06 1178.89 1107.97 1180.11 1109.15C1181.34 1110.3 1182.29 1111.67 1182.96 1113.25C1183.63 1114.81 1183.97 1116.53 1183.97 1118.4C1183.97 1120.27 1183.63 1122 1182.96 1123.58C1182.29 1125.17 1181.34 1126.54 1180.11 1127.69C1178.89 1128.84 1177.45 1129.74 1175.79 1130.39C1174.16 1131.04 1172.37 1131.36 1170.43 1131.36ZM1170.39 1127.26C1171.67 1127.26 1172.84 1127.04 1173.92 1126.61C1175 1126.18 1175.94 1125.56 1176.73 1124.77C1177.52 1123.96 1178.13 1123.02 1178.57 1121.96C1179.02 1120.88 1179.25 1119.7 1179.25 1118.4C1179.25 1117.1 1179.02 1115.93 1178.57 1114.87C1178.13 1113.79 1177.52 1112.86 1176.73 1112.06C1175.94 1111.25 1175 1110.62 1173.92 1110.19C1172.84 1109.76 1171.67 1109.54 1170.39 1109.54C1169.12 1109.54 1167.95 1109.76 1166.87 1110.19C1165.81 1110.62 1164.87 1111.25 1164.06 1112.06C1163.27 1112.86 1162.64 1113.79 1162.19 1114.87C1161.75 1115.93 1161.54 1117.1 1161.54 1118.4C1161.54 1119.67 1161.75 1120.85 1162.19 1121.93C1162.64 1123.01 1163.27 1123.96 1164.06 1124.77C1164.85 1125.56 1165.79 1126.18 1166.87 1126.61C1167.95 1127.04 1169.12 1127.26 1170.39 1127.26ZM1188.93 1131V1105.8H1192.78L1203.79 1124.2H1201.78L1212.61 1105.8H1216.47L1216.5 1131H1212.07L1212.04 1112.75H1212.97L1203.76 1128.12H1201.67L1192.31 1112.75H1193.39V1131H1188.93ZM1223.31 1131V1105.8H1227.16L1238.18 1124.2H1236.16L1247 1105.8H1250.85L1250.89 1131H1246.46L1246.42 1112.75H1247.36L1238.14 1128.12H1236.05L1226.69 1112.75H1227.77V1131H1223.31ZM1262.01 1116.28H1274.54V1120.13H1262.01V1116.28ZM1262.37 1127.08H1276.59V1131H1257.69V1105.8H1276.09V1109.72H1262.37V1127.08ZM1281.81 1131V1105.8H1285.66L1301.47 1125.2H1299.56V1105.8H1304.2V1131H1300.35L1284.55 1111.6H1286.45V1131H1281.81ZM1310.95 1131V1105.8H1321.97C1324.71 1105.8 1327.11 1106.33 1329.17 1107.38C1331.23 1108.44 1332.84 1109.9 1333.99 1111.78C1335.15 1113.65 1335.72 1115.86 1335.72 1118.4C1335.72 1120.92 1335.15 1123.13 1333.99 1125.02C1332.84 1126.9 1331.23 1128.36 1329.17 1129.42C1327.11 1130.47 1324.71 1131 1321.97 1131H1310.95ZM1315.63 1127.04H1321.75C1323.65 1127.04 1325.28 1126.68 1326.65 1125.96C1328.04 1125.24 1329.11 1124.23 1329.85 1122.94C1330.62 1121.64 1331.01 1120.13 1331.01 1118.4C1331.01 1116.65 1330.62 1115.14 1329.85 1113.86C1329.11 1112.57 1328.04 1111.56 1326.65 1110.84C1325.28 1110.12 1323.65 1109.76 1321.75 1109.76H1315.63V1127.04ZM1336.78 1131L1348.12 1105.8H1352.73L1364.1 1131H1359.21L1349.45 1108.28H1351.32L1341.6 1131H1336.78ZM1342 1125.17L1343.26 1121.5H1356.87L1358.13 1125.17H1342ZM1371.16 1131V1109.76H1362.8V1105.8H1384.19V1109.76H1375.84V1131H1371.16ZM1387.7 1131V1105.8H1392.38V1131H1387.7ZM1411 1131.36C1409.04 1131.36 1407.22 1131.04 1405.57 1130.39C1403.91 1129.74 1402.47 1128.84 1401.25 1127.69C1400.02 1126.51 1399.08 1125.14 1398.4 1123.58C1397.73 1122 1397.4 1120.27 1397.4 1118.4C1397.4 1116.53 1397.73 1114.81 1398.4 1113.25C1399.08 1111.67 1400.02 1110.3 1401.25 1109.15C1402.47 1107.97 1403.91 1107.06 1405.57 1106.41C1407.22 1105.76 1409.02 1105.44 1410.97 1105.44C1412.94 1105.44 1414.74 1105.76 1416.37 1106.41C1418.02 1107.06 1419.46 1107.97 1420.69 1109.15C1421.91 1110.3 1422.86 1111.67 1423.53 1113.25C1424.2 1114.81 1424.54 1116.53 1424.54 1118.4C1424.54 1120.27 1424.2 1122 1423.53 1123.58C1422.86 1125.17 1421.91 1126.54 1420.69 1127.69C1419.46 1128.84 1418.02 1129.74 1416.37 1130.39C1414.74 1131.04 1412.95 1131.36 1411 1131.36ZM1410.97 1127.26C1412.24 1127.26 1413.42 1127.04 1414.5 1126.61C1415.58 1126.18 1416.51 1125.56 1417.3 1124.77C1418.1 1123.96 1418.71 1123.02 1419.14 1121.96C1419.6 1120.88 1419.82 1119.7 1419.82 1118.4C1419.82 1117.1 1419.6 1115.93 1419.14 1114.87C1418.71 1113.79 1418.1 1112.86 1417.3 1112.06C1416.51 1111.25 1415.58 1110.62 1414.5 1110.19C1413.42 1109.76 1412.24 1109.54 1410.97 1109.54C1409.7 1109.54 1408.52 1109.76 1407.44 1110.19C1406.38 1110.62 1405.45 1111.25 1404.63 1112.06C1403.84 1112.86 1403.22 1113.79 1402.76 1114.87C1402.33 1115.93 1402.11 1117.1 1402.11 1118.4C1402.11 1119.67 1402.33 1120.85 1402.76 1121.93C1403.22 1123.01 1403.84 1123.96 1404.63 1124.77C1405.42 1125.56 1406.36 1126.18 1407.44 1126.61C1408.52 1127.04 1409.7 1127.26 1410.97 1127.26ZM1429.5 1131V1105.8H1433.35L1449.16 1125.2H1447.25V1105.8H1451.89V1131H1448.04L1432.24 1111.6H1434.15V1131H1429.5Z" fill="white"/>
<path d="M997.427 50.6446L1029.25 82.4644C1031.2 84.4171 1031.2 87.5829 1029.25 89.5355L997.427 121.355C995.474 123.308 992.308 123.308 990.356 121.355C988.403 119.403 988.403 116.237 990.356 114.284L1013.64 91L912.711 91C909.95 91 907.711 93.2386 907.711 96V248C907.711 250.761 909.95 253 912.711 253L1013.64 253L990.356 229.716C988.403 227.763 988.403 224.597 990.356 222.645C992.308 220.692 995.474 220.692 997.427 222.645L1029.25 254.464C1031.2 256.417 1031.2 259.583 1029.25 261.536L997.427 293.355C995.474 295.308 992.308 295.308 990.356 293.355C988.403 291.403 988.403 288.237 990.356 286.284L1013.64 263L912.711 263C909.95 263 907.711 265.239 907.711 268V420C907.711 422.761 909.95 425 912.711 425H1013.64L990.356 401.716C988.403 399.763 988.403 396.597 990.356 394.645C992.308 392.692 995.474 392.692 997.427 394.645L1029.25 426.464C1031.2 428.417 1031.2 431.583 1029.25 433.535L997.427 465.355C995.474 467.308 992.308 467.308 990.356 465.355C988.403 463.403 988.403 460.237 990.356 458.284L1013.64 435H912.711C909.95 435 907.711 437.239 907.711 440V592C907.711 594.761 909.95 597 912.711 597H1013.64L990.356 573.716C988.403 571.763 988.403 568.597 990.356 566.645C992.308 564.692 995.474 564.692 997.427 566.645L1029.25 598.464C1031.2 600.417 1031.2 603.583 1029.25 605.536L997.427 637.355C995.474 639.308 992.308 639.308 990.356 637.355C988.403 635.403 988.403 632.237 990.356 630.284L1013.64 607H912.711C909.95 607 907.711 609.239 907.711 612V764C907.711 766.761 909.95 769 912.711 769H1013.64L990.356 745.716C988.403 743.763 988.403 740.597 990.356 738.645C992.308 736.692 995.474 736.692 997.427 738.645L1029.25 770.464C1031.2 772.417 1031.2 775.583 1029.25 777.536L997.427 809.355C995.474 811.308 992.308 811.308 990.356 809.355C988.403 807.403 988.403 804.237 990.356 802.284L1013.64 779H912.711C909.95 779 907.711 781.239 907.711 784V936C907.711 938.761 909.95 941 912.711 941H1013.64L990.356 917.716C988.403 915.763 988.403 912.597 990.356 910.645C992.308 908.692 995.474 908.692 997.427 910.645L1029.25 942.464C1031.2 944.417 1031.2 947.583 1029.25 949.536L997.427 981.355C995.474 983.308 992.308 983.308 990.356 981.355C988.403 979.403 988.403 976.237 990.356 974.284L1013.64 951H912.711C909.95 951 907.711 953.239 907.711 956V1108C907.711 1110.76 909.95 1113 912.711 1113H1013.64L990.356 1089.72C988.403 1087.76 988.403 1084.6 990.356 1082.64C992.308 1080.69 995.474 1080.69 997.427 1082.64L1029.25 1114.46C1031.2 1116.42 1031.2 1119.58 1029.25 1121.54L997.427 1153.36C995.474 1155.31 992.308 1155.31 990.356 1153.36C988.403 1151.4 988.403 1148.24 990.356 1146.28L1013.64 1123H902.711C899.95 1123 897.711 1120.76 897.711 1118V612C897.711 609.239 895.472 607 892.711 607H769.711C766.95 607 764.711 604.761 764.711 602C764.711 599.239 766.95 597 769.711 597H892.711C895.472 597 897.711 594.761 897.711 592V86C897.711 83.2386 899.95 81 902.711 81L1013.64 81L990.356 57.7157C988.403 55.7631 988.403 52.5973 990.356 50.6446C992.308 48.692 995.474 48.692 997.427 50.6446Z" fill="#60A394"/>
<path d="M32.7109 289C32.7109 286.239 34.9495 284 37.7109 284H743.711C746.472 284 748.711 286.239 748.711 289V363.373H32.7109V289Z" fill="#E0E0E0"/>
<path d="M32.7109 362.826H748.711V913.437C748.711 916.199 746.472 918.437 743.711 918.437H37.7109C34.9495 918.437 32.7109 916.199 32.7109 913.437V362.826Z" fill="white"/>
<ellipse cx="637.111" cy="323.686" rx="11.9552" ry="11.906" fill="white"/>
<ellipse cx="672.994" cy="323.686" rx="11.9552" ry="11.906" fill="white"/>
<ellipse cx="708.869" cy="323.686" rx="11.9552" ry="11.906" fill="white"/>
<rect x="582.297" y="406.618" width="131.376" height="293.407" rx="5" fill="#75ACCF"/>
<rect x="411.516" y="647.474" width="131.376" height="223.339" rx="5" fill="#E0E0E0"/>
<rect x="69.9219" y="577.407" width="131.376" height="293.407" rx="5" fill="#D19129"/>
<rect x="240.703" y="739.437" width="131.376" height="131.376" rx="5" fill="#75ACCF"/>
<rect x="240.703" y="406.618" width="131.376" height="293.407" rx="5" fill="#60A394"/>
<rect x="582.297" y="739.437" width="131.376" height="131.376" rx="5" fill="#D84C4E"/>
<rect x="411.516" y="406.618" width="131.376" height="201.443" rx="5" fill="#0067A8"/>
<rect x="69.9219" y="406.618" width="131.376" height="131.376" rx="5" fill="#0067A8"/>
<path d="M395.711 934.437C395.711 931.676 393.472 929.437 390.711 929.437C387.95 929.437 385.711 931.676 385.711 934.437L395.711 934.437ZM387.175 1065.97C389.128 1067.93 392.294 1067.93 394.246 1065.97L426.066 1034.15C428.019 1032.2 428.019 1029.03 426.066 1027.08C424.114 1025.13 420.948 1025.13 418.995 1027.08L390.711 1055.37L362.427 1027.08C360.474 1025.13 357.308 1025.13 355.356 1027.08C353.403 1029.03 353.403 1032.2 355.356 1034.15L387.175 1065.97ZM385.711 934.437L385.711 1062.44L395.711 1062.44L395.711 934.437L385.711 934.437Z" fill="#60A394"/>
<path fill-rule="evenodd" clip-rule="evenodd" d="M261.164 1161.94C263.106 1161.94 264.68 1163.52 264.68 1165.46V1170.8C264.68 1172.74 263.106 1174.31 261.164 1174.31H244.227C242.285 1174.31 240.711 1175.89 240.711 1177.83V1254.3C240.711 1256.24 242.285 1257.82 244.227 1257.82H261.164C263.106 1257.82 264.68 1259.39 264.68 1261.33V1267.45C264.68 1269.39 263.106 1270.96 261.164 1270.96H244.227C242.285 1270.96 240.711 1272.54 240.711 1274.48V1350.95C240.711 1352.89 242.285 1354.47 244.227 1354.47H261.164C263.106 1354.47 264.68 1356.04 264.68 1357.98V1363.32C264.68 1365.26 263.106 1366.84 261.164 1366.84H244.227C242.285 1366.84 240.711 1368.41 240.711 1370.36V1446.83C240.711 1448.77 242.285 1450.34 244.227 1450.34H261.164C263.106 1450.34 264.68 1451.92 264.68 1453.86V1470.8C264.68 1472.74 266.254 1474.31 268.196 1474.31H513.226C515.168 1474.31 516.742 1472.74 516.742 1470.8V1453.86C516.742 1451.92 518.316 1450.34 520.258 1450.34H537.195C539.137 1450.34 540.711 1448.77 540.711 1446.83V1370.36C540.711 1368.41 539.137 1366.84 537.195 1366.84H520.258C518.316 1366.84 516.742 1365.26 516.742 1363.32V1357.98C516.742 1356.04 518.316 1354.47 520.258 1354.47H537.195C539.137 1354.47 540.711 1352.89 540.711 1350.95V1274.48C540.711 1272.54 539.137 1270.96 537.195 1270.96H520.258C518.316 1270.96 516.742 1269.39 516.742 1267.45V1261.33C516.742 1259.39 518.316 1257.82 520.258 1257.82H537.195C539.137 1257.82 540.711 1256.24 540.711 1254.3V1177.83C540.711 1175.89 539.137 1174.31 537.195 1174.31H520.258C518.316 1174.31 516.742 1172.74 516.742 1170.8V1165.46C516.742 1163.52 518.316 1161.94 520.258 1161.94H537.195C539.137 1161.94 540.711 1160.37 540.711 1158.43V1081.95C540.711 1080.01 539.137 1078.44 537.195 1078.44H244.227C242.285 1078.44 240.711 1080.01 240.711 1081.95V1158.43C240.711 1160.37 242.285 1161.94 244.227 1161.94H261.164ZM255.825 1150.34C253.883 1150.34 252.309 1148.77 252.309 1146.83V1093.55C252.309 1091.61 253.883 1090.04 255.825 1090.04H525.597C527.539 1090.04 529.113 1091.61 529.113 1093.55V1146.83C529.113 1148.77 527.539 1150.34 525.597 1150.34H255.825ZM279.794 1174.31C277.852 1174.31 276.278 1172.74 276.278 1170.8V1165.46C276.278 1163.52 277.852 1161.94 279.794 1161.94H501.628C503.57 1161.94 505.144 1163.52 505.144 1165.46V1170.8C505.144 1172.74 503.57 1174.31 501.628 1174.31H279.794ZM255.825 1246.22C253.883 1246.22 252.309 1244.65 252.309 1242.7V1189.43C252.309 1187.49 253.883 1185.91 255.825 1185.91H525.597C527.539 1185.91 529.113 1187.49 529.113 1189.43V1242.7C529.113 1244.65 527.539 1246.22 525.597 1246.22H255.825ZM279.949 1270.96C278.007 1270.96 276.433 1269.39 276.433 1267.45V1261.33C276.433 1259.39 278.007 1257.82 279.949 1257.82H501.241C503.183 1257.82 504.757 1259.39 504.757 1261.33V1267.45C504.757 1269.39 503.183 1270.96 501.241 1270.96H279.949ZM525.597 1342.87C527.539 1342.87 529.113 1341.3 529.113 1339.35V1286.08C529.113 1284.14 527.539 1282.56 525.597 1282.56H255.825C253.883 1282.56 252.309 1284.14 252.309 1286.08V1339.35C252.309 1341.3 253.883 1342.87 255.825 1342.87H525.597ZM279.794 1366.84C277.852 1366.84 276.278 1365.26 276.278 1363.32V1357.98C276.278 1356.04 277.852 1354.47 279.794 1354.47H501.628C503.57 1354.47 505.144 1356.04 505.144 1357.98V1363.32C505.144 1365.26 503.57 1366.84 501.628 1366.84H279.794ZM255.825 1438.75C253.883 1438.75 252.309 1437.17 252.309 1435.23V1381.95C252.309 1380.01 253.883 1378.44 255.825 1378.44H525.597C527.539 1378.44 529.113 1380.01 529.113 1381.95V1435.23C529.113 1437.17 527.539 1438.75 525.597 1438.75H255.825ZM505.144 1453.86C505.144 1451.92 503.57 1450.34 501.628 1450.34H279.794C277.852 1450.34 276.278 1451.92 276.278 1453.86V1459.2C276.278 1461.14 277.852 1462.72 279.794 1462.72H501.628C503.57 1462.72 505.144 1461.14 505.144 1459.2V1453.86Z" fill="#FB6233"/>
<path d="M342.211 1106.19C342.211 1104.25 343.785 1102.68 345.727 1102.68H350.293C352.235 1102.68 353.809 1104.25 353.809 1106.19V1134.65C353.809 1136.59 352.235 1138.17 350.293 1138.17H345.727C343.785 1138.17 342.211 1136.59 342.211 1134.65V1106.19Z" fill="#FB6233"/>
<path d="M365.977 1106.19C365.977 1104.25 367.551 1102.68 369.493 1102.68H374.058C376 1102.68 377.575 1104.25 377.575 1106.19V1134.65C377.575 1136.59 376 1138.17 374.058 1138.17H369.493C367.551 1138.17 365.977 1136.59 365.977 1134.65V1106.19Z" fill="#FB6233"/>
<path d="M270.867 1106.19C270.867 1104.25 272.441 1102.68 274.383 1102.68H278.949C280.891 1102.68 282.465 1104.25 282.465 1106.19V1134.65C282.465 1136.59 280.891 1138.17 278.949 1138.17H274.383C272.441 1138.17 270.867 1136.59 270.867 1134.65V1106.19Z" fill="#FB6233"/>
<path d="M294.648 1106.19C294.648 1104.25 296.223 1102.68 298.165 1102.68H302.73C304.672 1102.68 306.246 1104.25 306.246 1106.19V1134.65C306.246 1136.59 304.672 1138.17 302.73 1138.17H298.165C296.223 1138.17 294.648 1136.59 294.648 1134.65V1106.19Z" fill="#FB6233"/>
<path d="M318.414 1106.19C318.414 1104.25 319.988 1102.68 321.93 1102.68H326.496C328.438 1102.68 330.012 1104.25 330.012 1106.19V1134.65C330.012 1136.59 328.438 1138.17 326.496 1138.17H321.93C319.988 1138.17 318.414 1136.59 318.414 1134.65V1106.19Z" fill="#FB6233"/>
<path d="M389.742 1106.19C389.742 1104.25 391.316 1102.68 393.258 1102.68H397.824C399.766 1102.68 401.34 1104.25 401.34 1106.19V1134.65C401.34 1136.59 399.766 1138.17 397.824 1138.17H393.258C391.316 1138.17 389.742 1136.59 389.742 1134.65V1106.19Z" fill="#FB6233"/>
<path fill-rule="evenodd" clip-rule="evenodd" d="M427.258 1134.65C427.258 1136.59 428.832 1138.17 430.774 1138.17H459.154C461.096 1138.17 462.67 1136.59 462.67 1134.65V1106.12C462.67 1104.17 461.096 1102.6 459.154 1102.6H430.774C428.832 1102.6 427.258 1104.17 427.258 1106.12V1134.65ZM451.227 1123.05C451.227 1124.99 449.653 1126.57 447.711 1126.57H442.372C440.43 1126.57 438.856 1124.99 438.856 1123.05V1117.71C438.856 1115.77 440.43 1114.2 442.372 1114.2H447.711C449.653 1114.2 451.227 1115.77 451.227 1117.71V1123.05Z" fill="#FB6233"/>
<path fill-rule="evenodd" clip-rule="evenodd" d="M492.983 1138.17C502.591 1138.17 510.38 1130.25 510.38 1120.48C510.38 1110.71 502.591 1102.79 492.983 1102.79C483.375 1102.79 475.586 1110.71 475.586 1120.48C475.586 1130.25 483.375 1138.17 492.983 1138.17ZM492.983 1126.57C496.506 1126.57 499.362 1123.71 499.362 1120.19C499.362 1116.67 496.506 1113.81 492.983 1113.81C489.46 1113.81 486.604 1116.67 486.604 1120.19C486.604 1123.71 489.46 1126.57 492.983 1126.57Z" fill="#FB6233"/>
<path d="M342.211 1297.75C342.211 1295.81 343.785 1294.24 345.727 1294.24H350.293C352.235 1294.24 353.809 1295.81 353.809 1297.75V1326.21C353.809 1328.15 352.235 1329.73 350.293 1329.73H345.727C343.785 1329.73 342.211 1328.15 342.211 1326.21V1297.75Z" fill="#FB6233"/>
<path d="M365.977 1297.75C365.977 1295.81 367.551 1294.24 369.493 1294.24H374.058C376 1294.24 377.575 1295.81 377.575 1297.75V1326.21C377.575 1328.15 376 1329.73 374.058 1329.73H369.493C367.551 1329.73 365.977 1328.15 365.977 1326.21V1297.75Z" fill="#FB6233"/>
<path d="M270.867 1297.75C270.867 1295.81 272.441 1294.24 274.383 1294.24H278.949C280.891 1294.24 282.465 1295.81 282.465 1297.75V1326.21C282.465 1328.15 280.891 1329.73 278.949 1329.73H274.383C272.441 1329.73 270.867 1328.15 270.867 1326.21V1297.75Z" fill="#FB6233"/>
<path d="M294.648 1297.75C294.648 1295.81 296.223 1294.24 298.165 1294.24H302.73C304.672 1294.24 306.246 1295.81 306.246 1297.75V1326.21C306.246 1328.15 304.672 1329.73 302.73 1329.73H298.165C296.223 1329.73 294.648 1328.15 294.648 1326.21V1297.75Z" fill="#FB6233"/>
<path d="M318.414 1297.75C318.414 1295.81 319.988 1294.24 321.93 1294.24H326.496C328.438 1294.24 330.012 1295.81 330.012 1297.75V1326.21C330.012 1328.15 328.438 1329.73 326.496 1329.73H321.93C319.988 1329.73 318.414 1328.15 318.414 1326.21V1297.75Z" fill="#FB6233"/>
<path d="M389.742 1297.75C389.742 1295.81 391.316 1294.24 393.258 1294.24H397.824C399.766 1294.24 401.34 1295.81 401.34 1297.75V1326.21C401.34 1328.15 399.766 1329.73 397.824 1329.73H393.258C391.316 1329.73 389.742 1328.15 389.742 1326.21V1297.75Z" fill="#FB6233"/>
<path fill-rule="evenodd" clip-rule="evenodd" d="M427.258 1326.21C427.258 1328.15 428.832 1329.73 430.774 1329.73H459.154C461.096 1329.73 462.67 1328.15 462.67 1326.21V1297.67C462.67 1295.73 461.096 1294.16 459.154 1294.16H430.774C428.832 1294.16 427.258 1295.73 427.258 1297.67V1326.21ZM451.227 1314.61C451.227 1316.55 449.653 1318.13 447.711 1318.13H442.372C440.43 1318.13 438.856 1316.55 438.856 1314.61V1309.27C438.856 1307.33 440.43 1305.76 442.372 1305.76H447.711C449.653 1305.76 451.227 1307.33 451.227 1309.27V1314.61Z" fill="#FB6233"/>
<path fill-rule="evenodd" clip-rule="evenodd" d="M492.983 1329.73C502.591 1329.73 510.38 1321.81 510.38 1312.04C510.38 1302.27 502.591 1294.35 492.983 1294.35C483.375 1294.35 475.586 1302.27 475.586 1312.04C475.586 1321.81 483.375 1329.73 492.983 1329.73ZM492.983 1318.13C496.506 1318.13 499.362 1315.27 499.362 1311.75C499.362 1308.23 496.506 1305.37 492.983 1305.37C489.46 1305.37 486.604 1308.23 486.604 1311.75C486.604 1315.27 489.46 1318.13 492.983 1318.13Z" fill="#FB6233"/>
<path d="M342.211 1201.49C342.211 1199.55 343.785 1197.97 345.727 1197.97H350.293C352.235 1197.97 353.809 1199.55 353.809 1201.49V1229.95C353.809 1231.89 352.235 1233.46 350.293 1233.46H345.727C343.785 1233.46 342.211 1231.89 342.211 1229.95V1201.49Z" fill="#FB6233"/>
<path d="M365.977 1201.49C365.977 1199.55 367.551 1197.97 369.493 1197.97H374.058C376 1197.97 377.575 1199.55 377.575 1201.49V1229.95C377.575 1231.89 376 1233.46 374.058 1233.46H369.493C367.551 1233.46 365.977 1231.89 365.977 1229.95V1201.49Z" fill="#FB6233"/>
<path d="M270.867 1201.49C270.867 1199.55 272.441 1197.97 274.383 1197.97H278.949C280.891 1197.97 282.465 1199.55 282.465 1201.49V1229.95C282.465 1231.89 280.891 1233.46 278.949 1233.46H274.383C272.441 1233.46 270.867 1231.89 270.867 1229.95V1201.49Z" fill="#FB6233"/>
<path d="M294.648 1201.49C294.648 1199.55 296.223 1197.97 298.165 1197.97H302.73C304.672 1197.97 306.246 1199.55 306.246 1201.49V1229.95C306.246 1231.89 304.672 1233.46 302.73 1233.46H298.165C296.223 1233.46 294.648 1231.89 294.648 1229.95V1201.49Z" fill="#FB6233"/>
<path d="M318.414 1201.49C318.414 1199.55 319.988 1197.97 321.93 1197.97H326.496C328.438 1197.97 330.012 1199.55 330.012 1201.49V1229.95C330.012 1231.89 328.438 1233.46 326.496 1233.46H321.93C319.988 1233.46 318.414 1231.89 318.414 1229.95V1201.49Z" fill="#FB6233"/>
<path d="M389.742 1201.49C389.742 1199.55 391.316 1197.97 393.258 1197.97H397.824C399.766 1197.97 401.34 1199.55 401.34 1201.49V1229.95C401.34 1231.89 399.766 1233.46 397.824 1233.46H393.258C391.316 1233.46 389.742 1231.89 389.742 1229.95V1201.49Z" fill="#FB6233"/>
<path fill-rule="evenodd" clip-rule="evenodd" d="M427.258 1229.95C427.258 1231.89 428.832 1233.46 430.774 1233.46H459.154C461.096 1233.46 462.67 1231.89 462.67 1229.95V1201.41C462.67 1199.47 461.096 1197.9 459.154 1197.9H430.774C428.832 1197.9 427.258 1199.47 427.258 1201.41V1229.95ZM451.227 1218.35C451.227 1220.29 449.653 1221.86 447.711 1221.86H442.372C440.43 1221.86 438.856 1220.29 438.856 1218.35V1213.01C438.856 1211.07 440.43 1209.49 442.372 1209.49H447.711C449.653 1209.49 451.227 1211.07 451.227 1213.01V1218.35Z" fill="#FB6233"/>
<path fill-rule="evenodd" clip-rule="evenodd" d="M492.983 1233.46C502.591 1233.46 510.38 1225.54 510.38 1215.78C510.38 1206.01 502.591 1198.09 492.983 1198.09C483.375 1198.09 475.586 1206.01 475.586 1215.78C475.586 1225.54 483.375 1233.46 492.983 1233.46ZM492.983 1221.86C496.506 1221.86 499.362 1219.01 499.362 1215.49C499.362 1211.96 496.506 1209.11 492.983 1209.11C489.46 1209.11 486.604 1211.96 486.604 1215.49C486.604 1219.01 489.46 1221.86 492.983 1221.86Z" fill="#FB6233"/>
<path d="M342.211 1393.05C342.211 1391.11 343.785 1389.53 345.727 1389.53H350.293C352.235 1389.53 353.809 1391.11 353.809 1393.05V1421.51C353.809 1423.45 352.235 1425.02 350.293 1425.02H345.727C343.785 1425.02 342.211 1423.45 342.211 1421.51V1393.05Z" fill="#FB6233"/>
<path d="M365.977 1393.05C365.977 1391.11 367.551 1389.53 369.493 1389.53H374.058C376 1389.53 377.575 1391.11 377.575 1393.05V1421.51C377.575 1423.45 376 1425.02 374.058 1425.02H369.493C367.551 1425.02 365.977 1423.45 365.977 1421.51V1393.05Z" fill="#FB6233"/>
<path d="M270.867 1393.05C270.867 1391.11 272.441 1389.53 274.383 1389.53H278.949C280.891 1389.53 282.465 1391.11 282.465 1393.05V1421.51C282.465 1423.45 280.891 1425.02 278.949 1425.02H274.383C272.441 1425.02 270.867 1423.45 270.867 1421.51V1393.05Z" fill="#FB6233"/>
<path d="M294.648 1393.05C294.648 1391.11 296.223 1389.53 298.165 1389.53H302.73C304.672 1389.53 306.246 1391.11 306.246 1393.05V1421.51C306.246 1423.45 304.672 1425.02 302.73 1425.02H298.165C296.223 1425.02 294.648 1423.45 294.648 1421.51V1393.05Z" fill="#FB6233"/>
<path d="M318.414 1393.05C318.414 1391.11 319.988 1389.53 321.93 1389.53H326.496C328.438 1389.53 330.012 1391.11 330.012 1393.05V1421.51C330.012 1423.45 328.438 1425.02 326.496 1425.02H321.93C319.988 1425.02 318.414 1423.45 318.414 1421.51V1393.05Z" fill="#FB6233"/>
<path d="M389.742 1393.05C389.742 1391.11 391.316 1389.53 393.258 1389.53H397.824C399.766 1389.53 401.34 1391.11 401.34 1393.05V1421.51C401.34 1423.45 399.766 1425.02 397.824 1425.02H393.258C391.316 1425.02 389.742 1423.45 389.742 1421.51V1393.05Z" fill="#FB6233"/>
<path fill-rule="evenodd" clip-rule="evenodd" d="M427.258 1421.51C427.258 1423.45 428.832 1425.02 430.774 1425.02H459.154C461.096 1425.02 462.67 1423.45 462.67 1421.51V1392.97C462.67 1391.03 461.096 1389.46 459.154 1389.46H430.774C428.832 1389.46 427.258 1391.03 427.258 1392.97V1421.51ZM451.227 1409.91C451.227 1411.85 449.653 1413.42 447.711 1413.42H442.372C440.43 1413.42 438.856 1411.85 438.856 1409.91V1404.57C438.856 1402.63 440.43 1401.05 442.372 1401.05H447.711C449.653 1401.05 451.227 1402.63 451.227 1404.57V1409.91Z" fill="#FB6233"/>
<path fill-rule="evenodd" clip-rule="evenodd" d="M492.983 1425.02C502.591 1425.02 510.38 1417.1 510.38 1407.34C510.38 1397.57 502.591 1389.65 492.983 1389.65C483.375 1389.65 475.586 1397.57 475.586 1407.34C475.586 1417.1 483.375 1425.02 492.983 1425.02ZM492.983 1413.42C496.506 1413.42 499.362 1410.57 499.362 1407.05C499.362 1403.52 496.506 1400.67 492.983 1400.67C489.46 1400.67 486.604 1403.52 486.604 1407.05C486.604 1410.57 489.46 1413.42 492.983 1413.42Z" fill="#FB6233"/>
<path d="M395.711 1490.31C395.711 1487.55 393.472 1485.31 390.711 1485.31C387.95 1485.31 385.711 1487.55 385.711 1490.31L395.711 1490.31ZM387.175 1621.85C389.128 1623.8 392.294 1623.8 394.246 1621.85L426.066 1590.03C428.019 1588.08 428.019 1584.91 426.066 1582.96C424.114 1581.01 420.948 1581.01 418.995 1582.96L390.711 1611.24L362.427 1582.96C360.474 1581.01 357.308 1581.01 355.356 1582.96C353.403 1584.91 353.403 1588.08 355.356 1590.03L387.175 1621.85ZM385.711 1490.31L385.711 1618.31L395.711 1618.31L395.711 1490.31L385.711 1490.31Z" fill="#60A394"/>
<path d="M390.711 1967.65C473.554 1967.65 540.711 1930.34 540.711 1884.31C540.711 1838.29 473.554 1800.98 390.711 1800.98C307.868 1800.98 240.711 1838.29 240.711 1884.31C240.711 1930.34 307.868 1967.65 390.711 1967.65Z" fill="#F8F8F8"/>
<path fill-rule="evenodd" clip-rule="evenodd" d="M240.711 1884.31V1950.98C240.711 1997.15 307.611 2034.31 390.711 2034.31C473.811 2034.31 540.711 1997.15 540.711 1950.98V1884.31C540.711 1930.48 473.811 1967.65 390.711 1967.65C307.611 1967.65 240.711 1930.48 240.711 1884.31Z" fill="#75ACCF"/>
<path d="M276.008 1971.46C301.718 1988.38 339.378 1999.48 381.888 2000.84" stroke="#E0E0E0" stroke-linecap="round" stroke-linejoin="round"/>
<path d="M427.512 2010.98C433.223 2010.98 437.852 2006.52 437.852 2001.01C437.852 1995.51 433.223 1991.05 427.512 1991.05C421.801 1991.05 417.172 1995.51 417.172 2001.01C417.172 2006.52 421.801 2010.98 427.512 2010.98Z" fill="#FFD633"/>
<path d="M463.317 2000.91C469.027 2000.91 473.657 1996.45 473.657 1990.94C473.657 1985.44 469.027 1980.98 463.317 1980.98C457.606 1980.98 452.977 1985.44 452.977 1990.94C452.977 1996.45 457.606 2000.91 463.317 2000.91Z" fill="#D19129"/>
<path d="M498.613 1987.58C504.324 1987.58 508.953 1983.12 508.953 1977.61C508.953 1972.11 504.324 1967.65 498.613 1967.65C492.903 1967.65 488.273 1972.11 488.273 1977.61C488.273 1983.12 492.903 1987.58 498.613 1987.58Z" fill="#60A394"/>
<path d="M390.711 1884.32C473.554 1884.32 540.711 1847.01 540.711 1800.98C540.711 1754.96 473.554 1717.65 390.711 1717.65C307.868 1717.65 240.711 1754.96 240.711 1800.98C240.711 1847.01 307.868 1884.32 390.711 1884.32Z" fill="#F8F8F8"/>
<path fill-rule="evenodd" clip-rule="evenodd" d="M240.711 1800.98V1867.64C240.711 1913.81 307.611 1950.98 390.711 1950.98C473.811 1950.98 540.711 1913.81 540.711 1867.64V1800.98C540.711 1847.14 473.811 1884.31 390.711 1884.31C307.611 1884.31 240.711 1847.14 240.711 1800.98Z" fill="#75ACCF"/>
<path d="M276.008 1888.13C301.718 1905.04 339.378 1916.15 381.888 1917.5" stroke="#E0E0E0" stroke-linecap="round" stroke-linejoin="round"/>
<path d="M427.512 1927.64C433.223 1927.64 437.852 1923.18 437.852 1917.68C437.852 1912.17 433.223 1907.71 427.512 1907.71C421.801 1907.71 417.172 1912.17 417.172 1917.68C417.172 1923.18 421.801 1927.64 427.512 1927.64Z" fill="#FFD633"/>
<path d="M463.317 1917.58C469.027 1917.58 473.657 1913.12 473.657 1907.61C473.657 1902.11 469.027 1897.65 463.317 1897.65C457.606 1897.65 452.977 1902.11 452.977 1907.61C452.977 1913.12 457.606 1917.58 463.317 1917.58Z" fill="#D19129"/>
<path d="M498.613 1904.24C504.324 1904.24 508.953 1899.78 508.953 1894.28C508.953 1888.78 504.324 1884.31 498.613 1884.31C492.903 1884.31 488.273 1888.78 488.273 1894.28C488.273 1899.78 492.903 1904.24 498.613 1904.24Z" fill="#60A394"/>
<path d="M390.711 1800.98C473.554 1800.98 540.711 1763.67 540.711 1717.65C540.711 1671.62 473.554 1634.31 390.711 1634.31C307.868 1634.31 240.711 1671.62 240.711 1717.65C240.711 1763.67 307.868 1800.98 390.711 1800.98Z" fill="#F8F8F8"/>
<path fill-rule="evenodd" clip-rule="evenodd" d="M240.711 1717.65V1784.31C240.711 1830.48 307.611 1867.65 390.711 1867.65C473.811 1867.65 540.711 1830.48 540.711 1784.31V1717.65C540.711 1763.81 473.811 1800.98 390.711 1800.98C307.611 1800.98 240.711 1763.81 240.711 1717.65Z" fill="#75ACCF"/>
<path d="M276.008 1804.79C301.718 1821.71 339.378 1832.81 381.888 1834.17" stroke="#E0E0E0" stroke-linecap="round" stroke-linejoin="round"/>
<path d="M427.504 1844.31C433.215 1844.31 437.844 1839.85 437.844 1834.35C437.844 1828.84 433.215 1824.38 427.504 1824.38C421.793 1824.38 417.164 1828.84 417.164 1834.35C417.164 1839.85 421.793 1844.31 427.504 1844.31Z" fill="#FFD633"/>
<path d="M463.301 1834.24C469.012 1834.24 473.641 1829.78 473.641 1824.28C473.641 1818.78 469.012 1814.31 463.301 1814.31C457.59 1814.31 452.961 1818.78 452.961 1824.28C452.961 1829.78 457.59 1834.24 463.301 1834.24Z" fill="#D19129"/>
<path d="M498.582 1820.91C504.293 1820.91 508.922 1816.45 508.922 1810.94C508.922 1805.44 504.293 1800.98 498.582 1800.98C492.872 1800.98 488.242 1805.44 488.242 1810.94C488.242 1816.45 492.872 1820.91 498.582 1820.91Z" fill="#60A394"/>
<path d="M390.699 1784.31C463.796 1784.31 523.054 1754.46 523.054 1717.64C523.054 1680.83 463.796 1650.98 390.699 1650.98C317.601 1650.98 258.344 1680.83 258.344 1717.64C258.344 1754.46 317.601 1784.31 390.699 1784.31Z" fill="#E0E0E0"/>
</svg>
