<svg width="3753" height="1131" viewBox="0 0 3753 1131" fill="none" xmlns="http://www.w3.org/2000/svg">
<rect width="3752.82" height="1131" rx="5" fill="#E0E0E0"/>
<rect x="64" y="64" width="438" height="1003" rx="5" fill="#FFD633"/>
<rect x="64" y="64" width="438" height="1003" rx="5" fill="white" fill-opacity="0.4"/>
<path d="M192 425.5C192 422.739 194.239 420.5 197 420.5H369C371.761 420.5 374 422.739 374 425.5V456.75H192V425.5Z" fill="#E0E0E0"/>
<path d="M192 456.5H374V705.25C374 708.011 371.761 710.25 369 710.25H197C194.239 710.25 192 708.011 192 705.25V456.5Z" fill="white"/>
<ellipse cx="323.038" cy="438.625" rx="5.46" ry="5.4375" fill="white"/>
<ellipse cx="339.421" cy="438.625" rx="5.46" ry="5.4375" fill="white"/>
<ellipse cx="355.796" cy="438.625" rx="5.46" ry="5.4375" fill="white"/>
<path d="M259.559 606.268L215.303 589.084V578.716L259.559 561.532V571.516L219.047 586.684V581.116L259.559 596.284V606.268ZM262.807 627.1L294.488 536.668H305.24L273.56 627.1H262.807ZM307.553 606.268V596.284L348.065 581.116V586.684L307.553 571.516V561.532L351.809 578.716V589.084L307.553 606.268Z" fill="black"/>
<path fill-rule="evenodd" clip-rule="evenodd" d="M537.491 547.547C535.563 547.547 534 549.133 534 551.089L534 579.432C534 581.389 535.563 582.975 537.491 582.975L660.87 582.975L832.049 582.975L811.904 603.421C810.541 604.804 810.541 607.048 811.904 608.431L826.714 623.462C828.077 624.846 830.287 624.846 831.65 623.462L870.398 584.136C870.767 583.761 871.198 583.449 871.568 583.074L886.378 568.043C887.585 566.818 887.723 564.919 886.792 563.539C886.661 563.333 886.506 563.138 886.328 562.957L871.518 547.926C871.434 547.84 871.346 547.76 871.256 547.685L831.7 507.538C830.337 506.154 828.126 506.154 826.763 507.538L811.954 522.569C810.59 523.952 810.59 526.195 811.954 527.579L831.627 547.547L537.491 547.547ZM849.274 565.457C849.283 565.467 849.283 565.483 849.274 565.493C849.257 565.509 849.229 565.498 849.229 565.475C849.229 565.452 849.257 565.44 849.274 565.457Z" fill="#60A394"/>
<rect x="919.398" y="64" width="639" height="1003" rx="5" fill="#D19129"/>
<rect x="919.398" y="64" width="639" height="1003" rx="5" fill="white" fill-opacity="0.6"/>
<path d="M1047.4 703H1430.4V806C1430.4 808.761 1428.16 811 1425.4 811H1052.4C1049.64 811 1047.4 808.761 1047.4 806V703Z" fill="#FB6233"/>
<path d="M1115.83 770V744.8H1126.84C1129.58 744.8 1131.98 745.328 1134.04 746.384C1136.11 747.44 1137.71 748.904 1138.87 750.776C1140.02 752.648 1140.59 754.856 1140.59 757.4C1140.59 759.92 1140.02 762.128 1138.87 764.024C1137.71 765.896 1136.11 767.36 1134.04 768.416C1131.98 769.472 1129.58 770 1126.84 770H1115.83ZM1120.51 766.04H1126.63C1128.52 766.04 1130.15 765.68 1131.52 764.96C1132.91 764.24 1133.98 763.232 1134.73 761.936C1135.49 760.64 1135.88 759.128 1135.88 757.4C1135.88 755.648 1135.49 754.136 1134.73 752.864C1133.98 751.568 1132.91 750.56 1131.52 749.84C1130.15 749.12 1128.52 748.76 1126.63 748.76H1120.51V766.04ZM1157.38 770.36C1155.41 770.36 1153.6 770.036 1151.94 769.388C1150.28 768.74 1148.84 767.84 1147.62 766.688C1146.4 765.512 1145.45 764.144 1144.78 762.584C1144.1 761 1143.77 759.272 1143.77 757.4C1143.77 755.528 1144.1 753.812 1144.78 752.252C1145.45 750.668 1146.4 749.3 1147.62 748.148C1148.84 746.972 1150.28 746.06 1151.94 745.412C1153.6 744.764 1155.4 744.44 1157.34 744.44C1159.31 744.44 1161.11 744.764 1162.74 745.412C1164.4 746.06 1165.84 746.972 1167.06 748.148C1168.28 749.3 1169.23 750.668 1169.9 752.252C1170.58 753.812 1170.91 755.528 1170.91 757.4C1170.91 759.272 1170.58 761 1169.9 762.584C1169.23 764.168 1168.28 765.536 1167.06 766.688C1165.84 767.84 1164.4 768.74 1162.74 769.388C1161.11 770.036 1159.32 770.36 1157.38 770.36ZM1157.34 766.256C1158.61 766.256 1159.79 766.04 1160.87 765.608C1161.95 765.176 1162.88 764.564 1163.68 763.772C1164.47 762.956 1165.08 762.02 1165.51 760.964C1165.97 759.884 1166.2 758.696 1166.2 757.4C1166.2 756.104 1165.97 754.928 1165.51 753.872C1165.08 752.792 1164.47 751.856 1163.68 751.064C1162.88 750.248 1161.95 749.624 1160.87 749.192C1159.79 748.76 1158.61 748.544 1157.34 748.544C1156.07 748.544 1154.89 748.76 1153.81 749.192C1152.76 749.624 1151.82 750.248 1151 751.064C1150.21 751.856 1149.59 752.792 1149.13 753.872C1148.7 754.928 1148.48 756.104 1148.48 757.4C1148.48 758.672 1148.7 759.848 1149.13 760.928C1149.59 762.008 1150.21 762.956 1151 763.772C1151.8 764.564 1152.73 765.176 1153.81 765.608C1154.89 766.04 1156.07 766.256 1157.34 766.256ZM1187.54 770.36C1185.62 770.36 1183.83 770.048 1182.17 769.424C1180.54 768.776 1179.11 767.876 1177.89 766.724C1176.69 765.548 1175.75 764.168 1175.08 762.584C1174.41 761 1174.07 759.272 1174.07 757.4C1174.07 755.528 1174.41 753.8 1175.08 752.216C1175.75 750.632 1176.7 749.264 1177.92 748.112C1179.15 746.936 1180.58 746.036 1182.21 745.412C1183.84 744.764 1185.63 744.44 1187.57 744.44C1189.64 744.44 1191.52 744.8 1193.22 745.52C1194.93 746.216 1196.37 747.26 1197.54 748.652L1194.52 751.496C1193.61 750.512 1192.59 749.78 1191.46 749.3C1190.33 748.796 1189.11 748.544 1187.79 748.544C1186.47 748.544 1185.26 748.76 1184.15 749.192C1183.07 749.624 1182.12 750.236 1181.31 751.028C1180.52 751.82 1179.89 752.756 1179.44 753.836C1179 754.916 1178.79 756.104 1178.79 757.4C1178.79 758.696 1179 759.884 1179.44 760.964C1179.89 762.044 1180.52 762.98 1181.31 763.772C1182.12 764.564 1183.07 765.176 1184.15 765.608C1185.26 766.04 1186.47 766.256 1187.79 766.256C1189.11 766.256 1190.33 766.016 1191.46 765.536C1192.59 765.032 1193.61 764.276 1194.52 763.268L1197.54 766.148C1196.37 767.516 1194.93 768.56 1193.22 769.28C1191.52 770 1189.62 770.36 1187.54 770.36ZM1206.2 764.06L1205.95 758.516L1219.16 744.8H1224.42L1213.44 756.464L1210.85 759.308L1206.2 764.06ZM1202.03 770V744.8H1206.71V770H1202.03ZM1219.6 770L1209.95 758.516L1213.04 755.096L1225.07 770H1219.6ZM1232.58 755.276H1245.1V759.128H1232.58V755.276ZM1232.94 766.076H1247.16V770H1228.26V744.8H1246.65V748.724H1232.94V766.076ZM1252.37 770V744.8H1262.74C1264.97 744.8 1266.88 745.16 1268.46 745.88C1270.07 746.6 1271.31 747.632 1272.17 748.976C1273.04 750.32 1273.47 751.916 1273.47 753.764C1273.47 755.612 1273.04 757.208 1272.17 758.552C1271.31 759.872 1270.07 760.892 1268.46 761.612C1266.88 762.308 1264.97 762.656 1262.74 762.656H1254.96L1257.05 760.532V770H1252.37ZM1268.86 770L1262.49 760.856H1267.49L1273.9 770H1268.86ZM1257.05 761.036L1254.96 758.804H1262.52C1264.59 758.804 1266.14 758.36 1267.17 757.472C1268.22 756.584 1268.75 755.348 1268.75 753.764C1268.75 752.156 1268.22 750.92 1267.17 750.056C1266.14 749.192 1264.59 748.76 1262.52 748.76H1254.96L1257.05 746.456V761.036ZM1292.94 756.392H1305.5V760.352H1292.94V756.392ZM1293.33 770H1288.65V744.8H1307.05V748.724H1293.33V770ZM1311.58 770V744.8H1316.26V770H1311.58ZM1323.07 770V744.8H1327.75V766.04H1340.93V770H1323.07ZM1348.94 755.276H1361.47V759.128H1348.94V755.276ZM1349.3 766.076H1363.52V770H1344.62V744.8H1363.02V748.724H1349.3V766.076Z" fill="#F8F8F8"/>
<path d="M1355.37 480.052C1353.71 467.934 1347.04 457.413 1335.02 447.907L1328.06 443.19L1323.43 450.229C1317.49 459.299 1314.52 471.925 1315.46 484.043C1315.9 488.252 1317.27 495.943 1321.55 502.546C1317.27 504.941 1308.8 508.134 1297.5 507.916H1081.64L1081.21 510.456C1079.18 522.574 1079.18 560.524 1103.44 589.621C1121.91 611.753 1149.51 623 1185.58 623C1263.81 623 1321.62 586.501 1348.78 520.034C1359.43 520.252 1382.39 520.107 1394.2 497.249C1394.49 496.741 1395.21 495.363 1397.24 491.009L1398.4 488.615L1391.81 484.116C1384.56 479.399 1368.12 477.585 1355.37 480.052ZM1254.25 399H1221.44V429.259H1254.25V399ZM1254.25 435.354H1221.44V465.612H1254.25V435.354ZM1215.43 435.354H1182.61V465.612H1215.43V435.354ZM1176.68 435.354H1143.86V465.612H1176.68V435.354ZM1137.85 471.707H1105.04V501.966H1137.85V471.707ZM1176.68 471.707H1143.86V501.966H1176.68V471.707ZM1215.43 471.707H1182.61V501.966H1215.43V471.707ZM1254.25 471.707H1221.44V501.966H1254.25V471.707ZM1293.08 471.707H1260.27V501.966H1293.08V471.707Z" fill="#1D63ED"/>
<path fill-rule="evenodd" clip-rule="evenodd" d="M1593.89 547.547C1591.96 547.547 1590.4 549.133 1590.4 551.089L1590.4 579.432C1590.4 581.389 1591.96 582.975 1593.89 582.975L1717.27 582.975L1888.45 582.975L1868.3 603.421C1866.94 604.804 1866.94 607.048 1868.3 608.431L1883.11 623.462C1884.48 624.846 1886.69 624.846 1888.05 623.462L1926.8 584.136C1927.17 583.761 1927.6 583.449 1927.97 583.074L1942.78 568.043C1943.98 566.818 1944.12 564.919 1943.19 563.539C1943.06 563.333 1942.9 563.138 1942.73 562.957L1927.92 547.926C1927.83 547.84 1927.74 547.76 1927.65 547.685L1888.1 507.538C1886.74 506.154 1884.52 506.154 1883.16 507.538L1868.35 522.569C1866.99 523.952 1866.99 526.195 1868.35 527.579L1888.03 547.547L1593.89 547.547ZM1905.67 565.457C1905.68 565.467 1905.68 565.483 1905.67 565.493C1905.66 565.509 1905.63 565.498 1905.63 565.475C1905.63 565.452 1905.66 565.44 1905.67 565.457Z" fill="#60A394"/>
<rect x="1975.8" y="64" width="639.619" height="1003" rx="5" fill="#FB6233"/>
<rect x="1975.8" y="64" width="639.619" height="1003" rx="5" fill="white" fill-opacity="0.6"/>
<path d="M2160.67 261.264C2155.55 261.262 2150.53 262.787 2146.27 265.643C2142.01 268.5 2138.69 272.561 2136.72 277.312C2134.76 282.064 2134.25 287.293 2135.25 292.337C2136.24 297.382 2138.71 302.016 2142.34 305.653C2145.96 309.291 2150.58 311.768 2155.61 312.772C2160.63 313.776 2165.85 313.261 2170.58 311.293C2175.32 309.325 2179.37 305.992 2182.21 301.716C2185.06 297.439 2186.58 292.411 2186.58 287.268C2186.58 280.374 2183.84 273.764 2178.99 268.889C2174.13 264.014 2167.54 261.272 2160.67 261.264ZM2160.67 319.407C2154.34 319.407 2148.14 317.522 2142.88 313.99C2137.61 310.459 2133.5 305.439 2131.08 299.567C2128.65 293.694 2128.02 287.232 2129.26 280.998C2130.49 274.763 2133.54 269.037 2138.02 264.542C2142.5 260.047 2148.21 256.987 2154.42 255.746C2160.64 254.506 2167.08 255.143 2172.93 257.575C2178.78 260.008 2183.78 264.127 2187.3 269.412C2190.82 274.698 2192.7 280.911 2192.7 287.268C2192.69 295.789 2189.32 303.958 2183.31 309.983C2177.31 316.008 2169.16 319.397 2160.67 319.407ZM2198.28 340.79H2123.34V335.008H2198.28V340.79Z" fill="#40BE46"/>
<path d="M2229.71 299.422H2238.53L2245.27 340.991H2238.77L2237.55 332.74V332.856H2230.18L2229 340.991H2222.94L2229.71 299.422ZM2236.81 327.213L2233.91 306.669H2233.79L2230.95 327.213H2236.81Z" fill="#1D1D1B"/>
<path d="M2248.41 299.422H2258.06C2261.41 299.422 2263.86 300.204 2265.4 301.769C2266.94 303.333 2267.71 305.739 2267.71 308.985V311.539C2267.71 315.852 2266.29 318.584 2263.47 319.735V319.85C2264.21 320.052 2264.89 320.419 2265.47 320.923C2266.05 321.427 2266.51 322.056 2266.81 322.763C2267.53 324.635 2267.87 326.636 2267.79 328.642V335.938C2267.78 336.9 2267.81 337.862 2267.9 338.82C2267.99 339.569 2268.19 340.299 2268.51 340.985H2261.85C2261.63 340.37 2261.47 339.735 2261.38 339.088C2261.28 338.021 2261.23 336.949 2261.25 335.877V328.277C2261.25 326.38 2260.95 325.049 2260.34 324.301C2259.73 323.553 2258.67 323.17 2257.17 323.17H2254.92V340.985H2248.41V299.422ZM2257.29 317.236C2257.82 317.278 2258.36 317.21 2258.86 317.036C2259.36 316.862 2259.83 316.587 2260.22 316.227C2260.87 315.558 2261.19 314.403 2261.19 312.84V309.636C2261.19 308.134 2260.93 307.046 2260.4 306.371C2260.09 306.018 2259.7 305.743 2259.26 305.567C2258.82 305.392 2258.35 305.322 2257.88 305.362H2254.92V317.236H2257.29Z" fill="#1D1D1B"/>
<path d="M2277.24 305.362H2270.44V299.422H2290.56V305.362H2283.77V340.991H2277.24V305.362Z" fill="#1D1D1B"/>
<path d="M2293.7 299.422H2300.21V340.991H2293.7V299.422Z" fill="#1D1D1B"/>
<path d="M2305.05 299.422H2322.28V305.362H2311.57V316.914H2319.97V322.854H2311.57V340.966H2305.05V299.422Z" fill="#1D1D1B"/>
<path d="M2328.55 299.422H2337.37L2344.12 340.991H2337.61L2336.4 332.74V332.856H2329.02L2327.84 340.991H2321.78L2328.55 299.422ZM2335.65 327.213L2332.76 306.669H2332.63L2329.82 327.213H2335.65Z" fill="#1D1D1B"/>
<path d="M2349.18 338.917C2347.54 337.134 2346.73 334.619 2346.73 331.372V309.04C2346.73 305.798 2347.54 303.285 2349.18 301.501C2350.82 299.718 2353.19 298.826 2356.31 298.826C2359.44 298.826 2361.81 299.718 2363.45 301.501C2365.08 303.285 2365.9 305.798 2365.91 309.04V313.436H2359.75V308.627C2359.75 306.053 2358.66 304.766 2356.49 304.766C2354.33 304.766 2353.23 306.055 2353.23 308.627V331.846C2353.23 334.382 2354.33 335.646 2356.49 335.646C2358.66 335.646 2359.75 334.382 2359.75 331.846V325.493H2365.91V331.36C2365.91 334.603 2365.09 337.118 2363.45 338.905C2361.81 340.693 2359.43 341.583 2356.31 341.574C2353.2 341.583 2350.82 340.697 2349.18 338.917Z" fill="#1D1D1B"/>
<path d="M2374.9 305.362H2368.09V299.422H2388.22V305.362H2381.41V340.991H2374.9V305.362Z" fill="#1D1D1B"/>
<path d="M2393.19 338.857C2391.5 337.033 2390.65 334.459 2390.65 331.135V309.277C2390.65 305.954 2391.5 303.382 2393.19 301.562C2394.89 299.742 2397.34 298.83 2400.53 298.826C2403.72 298.826 2406.17 299.738 2407.87 301.562C2409.57 303.386 2410.42 305.958 2410.42 309.277V331.135C2410.42 334.459 2409.57 337.033 2407.87 338.857C2406.17 340.681 2403.73 341.591 2400.53 341.587C2397.34 341.587 2394.89 340.677 2393.19 338.857ZM2403.91 331.561V308.864C2403.91 306.132 2402.78 304.766 2400.53 304.766C2398.28 304.766 2397.16 306.132 2397.16 308.864V331.548C2397.16 334.284 2398.28 335.65 2400.53 335.646C2402.78 335.642 2403.91 334.276 2403.91 331.548V331.561Z" fill="#1D1D1B"/>
<path d="M2414.79 299.422H2424.44C2427.79 299.422 2430.24 300.204 2431.77 301.769C2433.31 303.333 2434.08 305.739 2434.08 308.985V311.539C2434.08 315.852 2432.67 318.584 2429.84 319.735V319.85C2430.58 320.051 2431.27 320.418 2431.85 320.922C2432.43 321.426 2432.88 322.056 2433.19 322.763C2433.91 324.635 2434.24 326.636 2434.16 328.642V335.938C2434.15 336.9 2434.19 337.862 2434.28 338.82C2434.37 339.569 2434.57 340.299 2434.89 340.985H2428.22C2428 340.37 2427.84 339.735 2427.75 339.088C2427.65 338.02 2427.61 336.949 2427.64 335.877V328.277C2427.64 326.38 2427.33 325.049 2426.71 324.301C2426.1 323.553 2425.05 323.17 2423.55 323.17H2421.32V340.985H2414.79V299.422ZM2423.67 317.236C2424.2 317.277 2424.73 317.209 2425.24 317.035C2425.74 316.862 2426.2 316.587 2426.6 316.227C2427.25 315.558 2427.57 314.429 2427.57 312.84V309.636C2427.57 308.132 2427.31 307.044 2426.78 306.371C2426.46 306.019 2426.07 305.744 2425.64 305.569C2425.2 305.394 2424.73 305.323 2424.26 305.362H2421.32V317.236H2423.67Z" fill="#1D1D1B"/>
<path d="M2443.67 323.298L2435.8 299.422H2442.72L2447.16 314.682H2447.28L2451.72 299.422H2458.05L2450.17 323.298V340.991H2443.67V323.298Z" fill="#1D1D1B"/>
<path d="M2241.45 284.003H2237.12V263.009H2249.11V266.657H2241.45V272.068H2248.56V275.716H2241.45V284.003ZM2261.76 267.648C2262.26 267.639 2262.75 267.682 2263.24 267.775L2262.91 271.885C2262.49 271.78 2262.05 271.731 2261.62 271.739C2260.44 271.667 2259.27 272.052 2258.37 272.816C2257.96 273.207 2257.65 273.681 2257.45 274.206C2257.25 274.731 2257.16 275.294 2257.2 275.856V284.003H2252.83V267.946H2256.14L2256.78 270.645H2257C2257.48 269.765 2258.17 269.018 2259.01 268.474C2259.82 267.931 2260.78 267.643 2261.76 267.648ZM2269.64 275.947C2269.56 277.198 2269.83 278.447 2270.42 279.552C2270.7 279.962 2271.08 280.291 2271.52 280.504C2271.97 280.718 2272.47 280.809 2272.96 280.768C2273.45 280.808 2273.94 280.717 2274.38 280.503C2274.82 280.289 2275.2 279.961 2275.47 279.552C2276.05 278.441 2276.32 277.192 2276.24 275.941C2276.31 274.704 2276.03 273.472 2275.44 272.384C2275.14 272.012 2274.75 271.712 2274.31 271.506C2273.88 271.3 2273.4 271.194 2272.92 271.194C2272.44 271.194 2271.96 271.3 2271.52 271.506C2271.09 271.712 2270.7 272.012 2270.39 272.384C2269.81 273.475 2269.54 274.71 2269.62 275.947H2269.64ZM2280.7 275.947C2280.7 278.561 2280.02 280.604 2278.64 282.075C2277.27 283.547 2275.34 284.284 2272.87 284.289C2271.45 284.32 2270.04 283.969 2268.8 283.273C2267.63 282.602 2266.69 281.588 2266.1 280.367C2265.44 278.988 2265.12 277.474 2265.15 275.947C2265.15 273.324 2265.83 271.285 2267.2 269.83C2268.56 268.375 2270.48 267.648 2272.95 267.648C2274.37 267.618 2275.77 267.964 2277.01 268.651C2278.19 269.317 2279.13 270.323 2279.72 271.539C2280.38 272.911 2280.71 274.422 2280.68 275.947H2280.7ZM2287.47 273.205C2287.44 273.942 2287.65 274.671 2288.08 275.272C2288.29 275.525 2288.56 275.726 2288.87 275.857C2289.17 275.989 2289.5 276.049 2289.83 276.032C2290.18 276.063 2290.52 276.01 2290.84 275.877C2291.15 275.745 2291.43 275.537 2291.65 275.272C2292.06 274.664 2292.27 273.938 2292.23 273.205C2292.23 271.271 2291.44 270.305 2289.85 270.305C2288.27 270.305 2287.47 271.271 2287.45 273.205H2287.47ZM2285.88 286.271C2285.88 286.565 2285.96 286.854 2286.12 287.105C2286.27 287.357 2286.49 287.56 2286.75 287.693C2287.5 288.079 2288.33 288.257 2289.17 288.21C2290.43 288.276 2291.69 288.062 2292.86 287.584C2293.24 287.458 2293.56 287.223 2293.8 286.908C2294.04 286.593 2294.17 286.214 2294.19 285.821C2294.21 285.548 2294.14 285.276 2294 285.046C2293.85 284.816 2293.63 284.639 2293.38 284.544C2292.6 284.279 2291.78 284.164 2290.96 284.203H2288.68C2287.97 284.178 2287.27 284.376 2286.67 284.769C2286.42 284.929 2286.21 285.152 2286.07 285.415C2285.93 285.677 2285.86 285.972 2285.87 286.271H2285.88ZM2298.21 267.946V270.177L2295.71 270.821C2296.17 271.546 2296.41 272.392 2296.4 273.253C2296.43 274.021 2296.29 274.785 2295.97 275.485C2295.65 276.185 2295.18 276.799 2294.58 277.278C2293.37 278.239 2291.72 278.719 2289.59 278.719L2288.8 278.677L2288.16 278.604C2287.97 278.728 2287.8 278.897 2287.69 279.097C2287.57 279.297 2287.5 279.521 2287.49 279.753C2287.49 280.361 2288.29 280.701 2289.91 280.701H2292.63C2294.38 280.701 2295.72 281.08 2296.65 281.838C2297.11 282.247 2297.48 282.758 2297.72 283.333C2297.96 283.908 2298.07 284.53 2298.03 285.152C2298.05 286.022 2297.85 286.883 2297.44 287.65C2297.03 288.416 2296.43 289.06 2295.69 289.517C2294.13 290.551 2291.89 291.068 2288.97 291.068C2286.74 291.068 2285.03 290.673 2283.85 289.894C2283.3 289.554 2282.84 289.071 2282.53 288.495C2282.22 287.92 2282.06 287.272 2282.08 286.617C2282.06 285.72 2282.38 284.848 2282.99 284.185C2283.71 283.468 2284.63 282.983 2285.63 282.793C2285.17 282.589 2284.76 282.266 2284.46 281.857C2284.13 281.439 2283.96 280.923 2283.96 280.392C2283.97 279.861 2284.15 279.348 2284.49 278.938C2284.93 278.452 2285.45 278.042 2286.02 277.722C2285.19 277.365 2284.49 276.752 2284.02 275.971C2283.52 275.111 2283.26 274.125 2283.28 273.126C2283.24 272.366 2283.37 271.607 2283.67 270.906C2283.96 270.206 2284.41 269.582 2284.99 269.082C2286.12 268.122 2287.74 267.648 2289.83 267.648C2290.37 267.655 2290.9 267.696 2291.43 267.769C2292.03 267.848 2292.43 267.909 2292.61 267.946H2298.21ZM2225.2 290.174C2224.31 290.19 2223.43 290.083 2222.58 289.858V286.155C2223.26 286.334 2223.96 286.43 2224.67 286.441C2225.07 286.479 2225.47 286.415 2225.83 286.255C2226.2 286.096 2226.52 285.846 2226.76 285.529C2227.23 284.658 2227.44 283.667 2227.37 282.677V263.009H2231.8V282.653C2231.8 285.085 2231.24 286.952 2230.13 288.253C2229.03 289.536 2227.38 290.174 2225.2 290.174Z" fill="#40BE46"/>
<path d="M2104.11 795H2487.11V898C2487.11 900.761 2484.87 903 2482.11 903H2109.11C2106.35 903 2104.11 900.761 2104.11 898V795Z" fill="#FB6233"/>
<path d="M2170.11 862V836.8H2181.13C2183.86 836.8 2186.26 837.328 2188.33 838.384C2190.39 839.44 2192 840.904 2193.15 842.776C2194.3 844.648 2194.88 846.856 2194.88 849.4C2194.88 851.92 2194.3 854.128 2193.15 856.024C2192 857.896 2190.39 859.36 2188.33 860.416C2186.26 861.472 2183.86 862 2181.13 862H2170.11ZM2174.79 858.04H2180.91C2182.81 858.04 2184.44 857.68 2185.81 856.96C2187.2 856.24 2188.27 855.232 2189.01 853.936C2189.78 852.64 2190.16 851.128 2190.16 849.4C2190.16 847.648 2189.78 846.136 2189.01 844.864C2188.27 843.568 2187.2 842.56 2185.81 841.84C2184.44 841.12 2182.81 840.76 2180.91 840.76H2174.79V858.04ZM2211.66 862.36C2209.69 862.36 2207.88 862.036 2206.22 861.388C2204.57 860.74 2203.13 859.84 2201.9 858.688C2200.68 857.512 2199.73 856.144 2199.06 854.584C2198.39 853 2198.05 851.272 2198.05 849.4C2198.05 847.528 2198.39 845.812 2199.06 844.252C2199.73 842.668 2200.68 841.3 2201.9 840.148C2203.13 838.972 2204.57 838.06 2206.22 837.412C2207.88 836.764 2209.68 836.44 2211.62 836.44C2213.59 836.44 2215.39 836.764 2217.02 837.412C2218.68 838.06 2220.12 838.972 2221.34 840.148C2222.57 841.3 2223.52 842.668 2224.19 844.252C2224.86 845.812 2225.2 847.528 2225.2 849.4C2225.2 851.272 2224.86 853 2224.19 854.584C2223.52 856.168 2222.57 857.536 2221.34 858.688C2220.12 859.84 2218.68 860.74 2217.02 861.388C2215.39 862.036 2213.6 862.36 2211.66 862.36ZM2211.62 858.256C2212.9 858.256 2214.07 858.04 2215.15 857.608C2216.23 857.176 2217.17 856.564 2217.96 855.772C2218.75 854.956 2219.36 854.02 2219.8 852.964C2220.25 851.884 2220.48 850.696 2220.48 849.4C2220.48 848.104 2220.25 846.928 2219.8 845.872C2219.36 844.792 2218.75 843.856 2217.96 843.064C2217.17 842.248 2216.23 841.624 2215.15 841.192C2214.07 840.76 2212.9 840.544 2211.62 840.544C2210.35 840.544 2209.18 840.76 2208.1 841.192C2207.04 841.624 2206.1 842.248 2205.29 843.064C2204.5 843.856 2203.87 844.792 2203.42 845.872C2202.98 846.928 2202.77 848.104 2202.77 849.4C2202.77 850.672 2202.98 851.848 2203.42 852.928C2203.87 854.008 2204.5 854.956 2205.29 855.772C2206.08 856.564 2207.02 857.176 2208.1 857.608C2209.18 858.04 2210.35 858.256 2211.62 858.256ZM2241.82 862.36C2239.9 862.36 2238.11 862.048 2236.46 861.424C2234.83 860.776 2233.4 859.876 2232.17 858.724C2230.97 857.548 2230.04 856.168 2229.37 854.584C2228.69 853 2228.36 851.272 2228.36 849.4C2228.36 847.528 2228.69 845.8 2229.37 844.216C2230.04 842.632 2230.99 841.264 2232.21 840.112C2233.43 838.936 2234.86 838.036 2236.49 837.412C2238.13 836.764 2239.91 836.44 2241.86 836.44C2243.92 836.44 2245.81 836.8 2247.51 837.52C2249.21 838.216 2250.65 839.26 2251.83 840.652L2248.81 843.496C2247.89 842.512 2246.87 841.78 2245.75 841.3C2244.62 840.796 2243.39 840.544 2242.07 840.544C2240.75 840.544 2239.54 840.76 2238.44 841.192C2237.36 841.624 2236.41 842.236 2235.59 843.028C2234.8 843.82 2234.18 844.756 2233.72 845.836C2233.29 846.916 2233.07 848.104 2233.07 849.4C2233.07 850.696 2233.29 851.884 2233.72 852.964C2234.18 854.044 2234.8 854.98 2235.59 855.772C2236.41 856.564 2237.36 857.176 2238.44 857.608C2239.54 858.04 2240.75 858.256 2242.07 858.256C2243.39 858.256 2244.62 858.016 2245.75 857.536C2246.87 857.032 2247.89 856.276 2248.81 855.268L2251.83 858.148C2250.65 859.516 2249.21 860.56 2247.51 861.28C2245.81 862 2243.91 862.36 2241.82 862.36ZM2260.49 856.06L2260.24 850.516L2273.45 836.8H2278.71L2267.73 848.464L2265.13 851.308L2260.49 856.06ZM2256.31 862V836.8H2260.99V862H2256.31ZM2273.88 862L2264.23 850.516L2267.33 847.096L2279.35 862H2273.88ZM2286.86 847.276H2299.39V851.128H2286.86V847.276ZM2287.22 858.076H2301.44V862H2282.54V836.8H2300.94V840.724H2287.22V858.076ZM2306.66 862V836.8H2317.03C2319.26 836.8 2321.17 837.16 2322.75 837.88C2324.36 838.6 2325.59 839.632 2326.46 840.976C2327.32 842.32 2327.75 843.916 2327.75 845.764C2327.75 847.612 2327.32 849.208 2326.46 850.552C2325.59 851.872 2324.36 852.892 2322.75 853.612C2321.17 854.308 2319.26 854.656 2317.03 854.656H2309.25L2311.34 852.532V862H2306.66ZM2323.15 862L2316.77 852.856H2321.78L2328.19 862H2323.15ZM2311.34 853.036L2309.25 850.804H2316.81C2318.87 850.804 2320.42 850.36 2321.45 849.472C2322.51 848.584 2323.04 847.348 2323.04 845.764C2323.04 844.156 2322.51 842.92 2321.45 842.056C2320.42 841.192 2318.87 840.76 2316.81 840.76H2309.25L2311.34 838.456V853.036ZM2360.65 836.8H2365.33V862H2360.65V836.8ZM2347.62 862H2342.94V836.8H2347.62V862ZM2361.01 851.2H2347.22V847.204H2361.01V851.2ZM2382.92 862.36C2379.46 862.36 2376.75 861.388 2374.78 859.444C2372.84 857.5 2371.87 854.692 2371.87 851.02V836.8H2376.55V850.84C2376.55 853.432 2377.1 855.316 2378.2 856.492C2379.33 857.668 2380.92 858.256 2382.96 858.256C2385 858.256 2386.57 857.668 2387.67 856.492C2388.78 855.316 2389.33 853.432 2389.33 850.84V836.8H2393.94V851.02C2393.94 854.692 2392.95 857.5 2390.98 859.444C2389.04 861.388 2386.35 862.36 2382.92 862.36ZM2400.49 862V836.8H2412.3C2415.32 836.8 2417.63 837.4 2419.21 838.6C2420.79 839.776 2421.59 841.36 2421.59 843.352C2421.59 844.696 2421.27 845.848 2420.65 846.808C2420.03 847.744 2419.19 848.476 2418.13 849.004C2417.1 849.508 2415.97 849.76 2414.75 849.76L2415.39 848.464C2416.81 848.464 2418.08 848.728 2419.21 849.256C2420.34 849.76 2421.23 850.504 2421.87 851.488C2422.55 852.472 2422.88 853.696 2422.88 855.16C2422.88 857.32 2422.05 859 2420.4 860.2C2418.74 861.4 2416.28 862 2413.02 862H2400.49ZM2405.17 858.328H2412.73C2414.48 858.328 2415.83 858.04 2416.76 857.464C2417.7 856.888 2418.17 855.964 2418.17 854.692C2418.17 853.444 2417.7 852.532 2416.76 851.956C2415.83 851.356 2414.48 851.056 2412.73 851.056H2404.81V847.42H2411.79C2413.43 847.42 2414.67 847.132 2415.54 846.556C2416.43 845.98 2416.87 845.116 2416.87 843.964C2416.87 842.788 2416.43 841.912 2415.54 841.336C2414.67 840.76 2413.43 840.472 2411.79 840.472H2405.17V858.328Z" fill="#F8F8F8"/>
<path d="M2412.08 572.052C2410.42 559.934 2403.75 549.413 2391.73 539.907L2384.78 535.19L2380.14 542.229C2374.2 551.299 2371.23 563.925 2372.17 576.043C2372.61 580.252 2373.98 587.943 2378.26 594.546C2373.98 596.941 2365.51 600.134 2354.21 599.916H2138.35L2137.92 602.456C2135.89 614.574 2135.89 652.524 2160.15 681.621C2178.63 703.753 2206.22 715 2242.3 715C2320.53 715 2378.33 678.501 2405.49 612.034C2416.14 612.252 2439.1 612.107 2450.91 589.249C2451.2 588.741 2451.92 587.363 2453.95 583.009L2455.11 580.615L2448.52 576.116C2441.27 571.399 2424.83 569.585 2412.08 572.052ZM2310.96 491H2278.15V521.259H2310.96V491ZM2310.96 527.354H2278.15V557.612H2310.96V527.354ZM2272.14 527.354H2239.33V557.612H2272.14V527.354ZM2233.39 527.354H2200.57V557.612H2233.39V527.354ZM2194.56 563.707H2161.75V593.966H2194.56V563.707ZM2233.39 563.707H2200.57V593.966H2233.39V563.707ZM2272.14 563.707H2239.33V593.966H2272.14V563.707ZM2310.96 563.707H2278.15V593.966H2310.96V563.707ZM2349.79 563.707H2316.98V593.966H2349.79V563.707Z" fill="#1D63ED"/>
<path fill-rule="evenodd" clip-rule="evenodd" d="M2650.91 547.547C2648.98 547.547 2647.42 549.133 2647.42 551.089L2647.42 579.432C2647.42 581.389 2648.98 582.975 2650.91 582.975L2774.29 582.975L2945.47 582.975L2925.33 603.421C2923.96 604.804 2923.96 607.048 2925.33 608.431L2940.14 623.462C2941.5 624.846 2943.71 624.846 2945.07 623.462L2983.82 584.136C2984.19 583.761 2984.62 583.449 2984.99 583.074L2999.8 568.043C3001.01 566.818 3001.14 564.919 3000.21 563.539C3000.08 563.333 2999.93 563.138 2999.75 562.957L2984.94 547.926C2984.86 547.84 2984.77 547.76 2984.68 547.685L2945.12 507.538C2943.76 506.154 2941.55 506.154 2940.19 507.538L2925.38 522.569C2924.01 523.952 2924.01 526.195 2925.38 527.579L2945.05 547.547L2650.91 547.547ZM2962.7 565.457C2962.71 565.467 2962.71 565.483 2962.7 565.493C2962.68 565.509 2962.65 565.498 2962.65 565.475C2962.65 565.452 2962.68 565.44 2962.7 565.457Z" fill="#60A394"/>
<rect x="3032.82" y="64" width="656" height="1003" rx="5" fill="#DFC3F9"/>
<path d="M3245.27 559.655H3256.99V568.968H3245.27L3245.27 559.655Z" fill="white"/>
<path d="M3382.4 551.985C3382.09 551.923 3381.77 551.899 3381.46 551.913C3380.91 551.942 3380.38 552.081 3379.88 552.322C3378.93 552.783 3378.19 553.594 3377.82 554.587C3377.45 555.579 3377.47 556.677 3377.89 557.651L3377.86 557.692L3387.28 580.446C3396.29 574.696 3403.13 566.107 3406.71 556.036L3382.44 551.934L3382.4 551.985ZM3344.64 555.21C3344.43 554.313 3343.93 553.51 3343.22 552.931C3342.5 552.351 3341.62 552.028 3340.7 552.014C3340.42 552.01 3340.15 552.034 3339.89 552.086L3339.85 552.036L3315.79 556.12C3319.4 566.111 3326.21 574.631 3335.16 580.358L3344.48 557.827L3344.41 557.739C3344.75 556.942 3344.83 556.056 3344.64 555.21ZM3364.79 564.045C3364.44 563.39 3363.91 562.843 3363.27 562.461C3362.64 562.08 3361.91 561.879 3361.16 561.88C3360.42 561.881 3359.69 562.084 3359.05 562.467C3358.42 562.85 3357.9 563.398 3357.55 564.054H3357.53L3345.69 585.449C3354.17 588.333 3363.27 588.802 3372 586.802C3373.61 586.434 3375.19 585.992 3376.74 585.477L3364.88 564.044L3364.79 564.045ZM3402.24 514.346L3384.04 530.639L3384.05 530.691C3383.49 531.18 3383.07 531.811 3382.84 532.517C3382.61 533.224 3382.58 533.979 3382.75 534.704C3382.91 535.428 3383.27 536.094 3383.78 536.631C3384.3 537.168 3384.94 537.556 3385.66 537.753L3385.68 537.852L3409.26 544.644C3410.28 534.05 3407.82 523.412 3402.24 514.346ZM3368.42 516.171C3368.46 516.913 3368.69 517.632 3369.1 518.251C3369.51 518.871 3370.08 519.368 3370.75 519.689C3371.42 520.011 3372.16 520.145 3372.9 520.078C3373.64 520.011 3374.35 519.744 3374.95 519.307L3375.02 519.338L3394.94 505.213C3387.36 497.786 3377.55 493.056 3367.02 491.75L3368.4 516.164L3368.42 516.171ZM3347.33 519.398C3347.93 519.835 3348.64 520.1 3349.38 520.167C3350.12 520.233 3350.86 520.098 3351.53 519.775C3352.2 519.452 3352.77 518.953 3353.18 518.333C3353.58 517.712 3353.82 516.992 3353.85 516.25L3353.95 516.202L3355.33 491.75C3353.66 491.95 3352 492.237 3350.36 492.607C3341.63 494.569 3333.62 498.934 3327.24 505.207L3347.29 519.42L3347.33 519.398ZM3336.64 537.873C3337.36 537.677 3338.01 537.29 3338.52 536.753C3339.04 536.216 3339.4 535.55 3339.56 534.825C3339.73 534.099 3339.69 533.343 3339.46 532.636C3339.23 531.928 3338.81 531.297 3338.25 530.809L3338.27 530.713L3319.97 514.34C3314.38 523.429 3311.99 534.119 3313.16 544.722L3336.62 537.952L3336.64 537.873ZM3354.42 545.065L3361.17 548.312L3367.9 545.072L3369.57 537.803L3364.92 531.976H3357.42L3352.74 537.794L3354.42 545.065Z" fill="#326CE5"/>
<path d="M3472.8 559.386L3453.56 475.809C3453.04 473.646 3452.05 471.626 3450.65 469.893C3449.26 468.16 3447.5 466.758 3445.5 465.788L3367.62 428.601C3365.6 427.638 3363.39 427.138 3361.15 427.138C3358.92 427.138 3356.71 427.638 3354.69 428.601L3276.82 465.808C3274.82 466.778 3273.06 468.179 3271.66 469.912C3270.27 471.645 3269.28 473.665 3268.76 475.827L3249.55 559.402C3249.08 561.515 3249.08 563.706 3249.55 565.819C3249.69 566.463 3249.87 567.097 3250.09 567.717C3250.47 568.774 3250.96 569.785 3251.57 570.727C3251.84 571.13 3252.12 571.522 3252.42 571.902L3306.32 638.916C3306.55 639.208 3306.81 639.474 3307.07 639.745C3307.92 640.645 3308.87 641.437 3309.91 642.101C3311.23 642.93 3312.67 643.555 3314.17 643.953C3315.41 644.291 3316.68 644.467 3317.96 644.475H3318.8L3404.4 644.455C3404.92 644.453 3405.44 644.422 3405.95 644.363C3406.7 644.28 3407.43 644.14 3408.15 643.946C3408.67 643.81 3409.18 643.647 3409.68 643.458C3410.07 643.309 3410.45 643.16 3410.83 642.98C3411.39 642.71 3411.94 642.407 3412.46 642.072C3413.82 641.219 3415.03 640.15 3416.04 638.908L3417.68 636.864L3469.92 571.88C3470.92 570.625 3471.71 569.212 3472.25 567.7C3472.47 567.078 3472.66 566.442 3472.8 565.796C3473.27 563.683 3473.27 561.492 3472.8 559.379L3472.8 559.386ZM3392.01 591.891C3392.23 592.534 3392.49 593.162 3392.79 593.772C3392.31 594.606 3392.18 595.594 3392.43 596.522C3393.56 599.117 3394.94 601.596 3396.56 603.922C3397.46 605.111 3398.3 606.351 3399.06 607.637C3399.25 607.985 3399.49 608.524 3399.67 608.892C3400 609.452 3400.22 610.077 3400.3 610.726C3400.38 611.374 3400.32 612.032 3400.13 612.657C3399.94 613.283 3399.62 613.861 3399.2 614.356C3398.77 614.85 3398.24 615.25 3397.65 615.53C3397.06 615.809 3396.42 615.961 3395.77 615.977C3395.11 615.993 3394.46 615.873 3393.86 615.623C3393.26 615.373 3392.71 614.999 3392.26 614.526C3391.81 614.053 3391.46 613.49 3391.24 612.875C3391.06 612.511 3390.82 612.025 3390.67 611.68C3390.13 610.283 3389.68 608.857 3389.31 607.408C3388.51 604.698 3387.43 602.073 3386.11 599.57C3385.54 598.797 3384.69 598.278 3383.74 598.127C3383.59 597.869 3383.03 596.857 3382.74 596.334C3368.87 601.585 3353.56 601.546 3339.72 596.224L3338.67 598.135C3337.92 598.252 3337.22 598.593 3336.66 599.114C3335.07 601.723 3333.86 604.541 3333.05 607.488C3332.69 608.937 3332.24 610.363 3331.71 611.76C3331.56 612.102 3331.31 612.581 3331.13 612.945V612.955L3331.12 612.964C3330.9 613.58 3330.55 614.143 3330.1 614.617C3329.65 615.09 3329.11 615.464 3328.5 615.714C3327.9 615.965 3327.25 616.085 3326.59 616.069C3325.94 616.052 3325.3 615.898 3324.71 615.618C3324.12 615.338 3323.59 614.936 3323.16 614.44C3322.74 613.944 3322.42 613.364 3322.23 612.738C3322.04 612.111 3321.99 611.453 3322.07 610.804C3322.15 610.155 3322.37 609.53 3322.71 608.97C3322.88 608.6 3323.12 608.064 3323.3 607.717C3324.06 606.428 3324.9 605.184 3325.8 603.991C3327.45 601.604 3328.86 599.065 3330.02 596.408C3330.14 595.508 3330 594.591 3329.6 593.772L3330.45 591.74C3317.7 584.211 3308.13 572.273 3303.57 558.18L3301.54 558.525C3300.75 557.966 3299.83 557.639 3298.86 557.581C3296.08 558.113 3293.36 558.914 3290.74 559.972C3289.37 560.585 3287.98 561.12 3286.55 561.574C3286.22 561.666 3285.73 561.759 3285.35 561.843C3285.32 561.854 3285.29 561.867 3285.26 561.875C3285.24 561.879 3285.21 561.881 3285.19 561.882C3284.57 562.085 3283.91 562.157 3283.27 562.093C3282.62 562.029 3281.99 561.831 3281.42 561.51C3280.86 561.19 3280.36 560.755 3279.97 560.232C3279.58 559.71 3279.31 559.112 3279.16 558.477C3279.02 557.842 3279.01 557.184 3279.13 556.545C3279.26 555.905 3279.51 555.299 3279.89 554.765C3280.26 554.23 3280.74 553.779 3281.29 553.441C3281.85 553.102 3282.47 552.884 3283.12 552.799L3283.18 552.782L3283.23 552.771C3283.62 552.68 3284.11 552.551 3284.47 552.482C3285.95 552.276 3287.45 552.156 3288.94 552.122C3291.77 551.937 3294.56 551.478 3297.3 550.75C3298.11 550.234 3298.79 549.544 3299.3 548.729L3301.25 548.159C3299.13 533.45 3302.52 518.476 3310.76 506.111L3309.27 504.779C3309.22 503.812 3308.89 502.88 3308.33 502.088C3306.19 500.243 3303.87 498.612 3301.4 497.218C3300.07 496.539 3298.78 495.785 3297.54 494.958C3297.25 494.747 3296.88 494.43 3296.57 494.181L3296.5 494.132C3295.44 493.371 3294.73 492.22 3294.51 490.933C3294.3 489.645 3294.6 488.325 3295.36 487.26C3295.8 486.714 3296.37 486.28 3297.02 485.995C3297.66 485.709 3298.37 485.58 3299.07 485.617C3300.26 485.668 3301.39 486.098 3302.32 486.843C3302.64 487.091 3303.07 487.424 3303.35 487.666C3304.44 488.692 3305.46 489.78 3306.42 490.924C3308.33 493.017 3310.43 494.919 3312.71 496.603C3313.56 497.051 3314.55 497.147 3315.47 496.871C3316.03 497.276 3316.59 497.674 3317.16 498.066C3325.35 489.36 3335.95 483.301 3347.61 480.667C3350.39 480.038 3353.2 479.606 3356.04 479.371L3356.15 477.401C3356.87 476.758 3357.4 475.921 3357.66 474.989C3357.76 472.161 3357.59 469.33 3357.14 466.536C3356.85 465.071 3356.63 463.591 3356.51 462.103C3356.5 461.764 3356.51 461.295 3356.52 460.909C3356.52 460.865 3356.51 460.82 3356.51 460.779C3356.44 460.127 3356.51 459.469 3356.72 458.846C3356.92 458.224 3357.25 457.651 3357.69 457.165C3358.13 456.679 3358.67 456.29 3359.27 456.024C3359.86 455.758 3360.51 455.621 3361.17 455.62C3361.82 455.62 3362.47 455.757 3363.07 456.022C3363.67 456.288 3364.2 456.676 3364.64 457.162C3365.08 457.647 3365.41 458.22 3365.62 458.842C3365.82 459.464 3365.9 460.122 3365.83 460.774C3365.83 461.183 3365.85 461.724 3365.84 462.099C3365.71 463.588 3365.5 465.068 3365.2 466.531C3364.75 469.326 3364.57 472.158 3364.67 474.987C3364.86 475.933 3365.4 476.769 3366.2 477.317C3366.21 477.654 3366.27 478.778 3366.31 479.398C3381.04 480.738 3394.79 487.38 3405 498.091L3406.77 496.825C3407.72 496.988 3408.7 496.882 3409.6 496.518C3411.87 494.831 3413.98 492.927 3415.88 490.832C3416.85 489.687 3417.87 488.6 3418.96 487.574C3419.25 487.329 3419.68 487 3420 486.75C3420.46 486.289 3421.02 485.931 3421.64 485.7C3422.25 485.469 3422.91 485.37 3423.56 485.41C3424.22 485.449 3424.86 485.626 3425.44 485.928C3426.03 486.231 3426.54 486.653 3426.95 487.166C3427.36 487.68 3427.65 488.274 3427.82 488.91C3427.98 489.546 3428.01 490.209 3427.91 490.857C3427.8 491.505 3427.55 492.123 3427.19 492.671C3426.83 493.219 3426.36 493.684 3425.8 494.037C3425.49 494.29 3425.08 494.642 3424.78 494.865C3423.53 495.693 3422.24 496.447 3420.9 497.125C3418.44 498.52 3416.12 500.151 3413.97 501.996C3413.35 502.727 3413.03 503.675 3413.1 504.635C3412.84 504.874 3411.93 505.681 3411.44 506.118C3419.71 518.44 3423.16 533.367 3421.15 548.068L3423.03 548.616C3423.51 549.462 3424.2 550.162 3425.04 550.637C3427.78 551.366 3430.58 551.826 3433.4 552.013C3434.9 552.047 3436.39 552.166 3437.87 552.371C3438.26 552.442 3438.83 552.599 3439.23 552.691C3439.88 552.776 3440.5 552.995 3441.05 553.333C3441.61 553.672 3442.09 554.123 3442.46 554.658C3442.83 555.192 3443.09 555.799 3443.21 556.438C3443.34 557.078 3443.33 557.736 3443.18 558.371C3443.04 559.006 3442.76 559.604 3442.37 560.126C3441.98 560.648 3441.49 561.083 3440.92 561.403C3440.35 561.723 3439.73 561.922 3439.08 561.985C3438.43 562.049 3437.77 561.976 3437.16 561.773L3437.09 561.764C3437.06 561.756 3437.03 561.739 3437 561.731C3436.61 561.648 3436.13 561.564 3435.79 561.475C3434.37 561.018 3432.97 560.479 3431.61 559.861C3428.99 558.801 3426.26 558.001 3423.48 557.47C3422.52 557.439 3421.58 557.787 3420.87 558.438C3420.21 558.312 3419.55 558.196 3418.88 558.089C3414.37 572.271 3404.81 584.3 3392.01 591.89V591.891Z" fill="#326CE5"/>
<path d="M3482.96 561.53L3461.97 470.347C3461.4 467.988 3460.32 465.783 3458.8 463.892C3457.28 462.002 3455.36 460.472 3453.18 459.414L3368.21 418.848C3366.01 417.797 3363.6 417.251 3361.16 417.251C3358.72 417.251 3356.31 417.797 3354.1 418.848L3269.14 459.437C3266.96 460.494 3265.04 462.023 3263.52 463.913C3262 465.803 3260.92 468.006 3260.35 470.365L3239.39 561.552C3238.92 563.654 3238.87 565.829 3239.25 567.95C3239.63 570.071 3240.43 572.096 3241.6 573.905C3241.89 574.346 3242.19 574.775 3242.52 575.188L3301.33 648.306C3302.87 650.188 3304.81 651.706 3307 652.754C3309.2 653.801 3311.6 654.352 3314.03 654.366L3408.33 654.344C3410.76 654.33 3413.16 653.781 3415.36 652.735C3417.55 651.689 3419.49 650.172 3421.03 648.292L3479.82 575.167C3481.32 573.271 3482.39 571.063 3482.93 568.704C3483.47 566.345 3483.48 563.893 3482.96 561.53ZM3472.8 565.799C3472.66 566.445 3472.47 567.081 3472.25 567.702C3471.71 569.215 3470.92 570.627 3469.92 571.883L3417.68 636.865L3416.04 638.91C3415.03 640.153 3413.82 641.222 3412.46 642.074C3411.94 642.409 3411.39 642.712 3410.83 642.982C3410.46 643.156 3410.07 643.315 3409.68 643.457C3409.18 643.647 3408.67 643.811 3408.15 643.948C3407.43 644.143 3406.7 644.283 3405.96 644.367C3405.44 644.425 3404.92 644.456 3404.4 644.457L3318.8 644.477H3317.96C3316.68 644.469 3315.41 644.294 3314.18 643.956C3312.67 643.557 3311.23 642.933 3309.92 642.103C3308.87 641.44 3307.92 640.649 3307.07 639.748C3306.82 639.477 3306.56 639.21 3306.32 638.92L3252.42 571.903C3252.12 571.526 3251.84 571.134 3251.58 570.727C3250.97 569.785 3250.47 568.774 3250.09 567.717C3249.87 567.096 3249.69 566.462 3249.55 565.817C3249.08 563.705 3249.08 561.514 3249.55 559.403L3268.76 475.825C3269.28 473.663 3270.27 471.643 3271.67 469.911C3273.06 468.179 3274.82 466.777 3276.82 465.808L3354.69 428.605C3356.71 427.641 3358.92 427.142 3361.16 427.142C3363.39 427.142 3365.6 427.641 3367.62 428.605L3445.5 465.791C3447.5 466.761 3449.26 468.163 3450.66 469.896C3452.05 471.628 3453.04 473.649 3453.56 475.811L3472.8 559.388C3473.27 561.5 3473.27 563.69 3472.8 565.802V565.799Z" fill="white"/>
<path d="M3439.23 552.692C3438.83 552.6 3438.26 552.444 3437.87 552.372C3436.39 552.167 3434.9 552.047 3433.4 552.012C3430.58 551.827 3427.78 551.368 3425.04 550.64C3424.2 550.164 3423.5 549.464 3423.03 548.617L3421.15 548.069C3423.16 533.369 3419.71 518.441 3411.44 506.12C3411.92 505.682 3412.84 504.875 3413.09 504.637C3413.03 503.677 3413.34 502.73 3413.97 501.998C3416.11 500.153 3418.44 498.522 3420.9 497.127C3422.23 496.45 3423.53 495.695 3424.77 494.868C3425.07 494.645 3425.48 494.291 3425.8 494.039C3426.35 493.686 3426.83 493.221 3427.19 492.673C3427.55 492.126 3427.79 491.508 3427.9 490.86C3428.01 490.212 3427.98 489.549 3427.82 488.913C3427.65 488.278 3427.36 487.684 3426.95 487.17C3426.54 486.656 3426.02 486.234 3425.44 485.931C3424.86 485.629 3424.22 485.452 3423.56 485.412C3422.91 485.373 3422.25 485.471 3421.64 485.702C3421.02 485.932 3420.46 486.289 3419.99 486.75C3419.68 487.001 3419.24 487.33 3418.96 487.575C3417.87 488.601 3416.84 489.689 3415.88 490.833C3413.97 492.928 3411.87 494.832 3409.6 496.519C3408.7 496.883 3407.72 496.989 3406.77 496.826L3405 498.093C3394.79 487.381 3381.04 480.738 3366.31 479.398C3366.26 478.779 3366.21 477.656 3366.19 477.317C3365.4 476.769 3364.86 475.932 3364.67 474.987C3364.57 472.158 3364.75 469.326 3365.2 466.532C3365.5 465.068 3365.71 463.589 3365.83 462.101C3365.85 461.725 3365.83 461.18 3365.83 460.774C3365.89 460.123 3365.82 459.464 3365.62 458.842C3365.41 458.22 3365.08 457.648 3364.64 457.162C3364.2 456.676 3363.66 456.288 3363.06 456.023C3362.47 455.757 3361.82 455.62 3361.16 455.62C3360.51 455.621 3359.86 455.758 3359.26 456.024C3358.66 456.29 3358.13 456.679 3357.69 457.165C3357.25 457.651 3356.92 458.224 3356.71 458.846C3356.51 459.469 3356.44 460.127 3356.5 460.779C3356.5 460.823 3356.51 460.865 3356.52 460.909C3356.51 461.295 3356.49 461.764 3356.5 462.102C3356.63 463.591 3356.84 465.071 3357.14 466.536C3357.59 469.33 3357.76 472.161 3357.66 474.989C3357.4 475.92 3356.87 476.756 3356.15 477.399L3356.04 479.372C3353.2 479.606 3350.38 480.039 3347.61 480.667C3335.95 483.302 3325.35 489.361 3317.16 498.066C3316.59 497.675 3316.03 497.277 3315.47 496.871C3314.55 497.147 3313.55 497.051 3312.7 496.603C3310.43 494.919 3308.32 493.017 3306.42 490.925C3305.46 489.781 3304.44 488.693 3303.35 487.667C3303.07 487.424 3302.63 487.093 3302.32 486.839C3301.39 486.093 3300.25 485.664 3299.07 485.613C3298.36 485.576 3297.66 485.706 3297.01 485.991C3296.37 486.277 3295.8 486.711 3295.35 487.258C3294.6 488.323 3294.29 489.643 3294.51 490.931C3294.72 492.218 3295.44 493.368 3296.5 494.13L3296.57 494.181C3296.88 494.43 3297.25 494.75 3297.53 494.956C3298.78 495.784 3300.07 496.539 3301.4 497.218C3303.86 498.613 3306.18 500.245 3308.33 502.091C3308.89 502.882 3309.21 503.813 3309.27 504.779L3310.76 506.113C3302.52 518.479 3299.13 533.452 3301.25 548.162L3299.3 548.729C3298.79 549.543 3298.1 550.232 3297.29 550.747C3294.56 551.477 3291.76 551.938 3288.94 552.124C3287.44 552.158 3285.95 552.279 3284.47 552.484C3284.11 552.551 3283.61 552.677 3283.22 552.774L3283.18 552.783L3283.12 552.802C3282.47 552.887 3281.85 553.106 3281.29 553.445C3280.74 553.783 3280.26 554.234 3279.89 554.769C3279.51 555.303 3279.26 555.909 3279.13 556.549C3279.01 557.188 3279.02 557.846 3279.16 558.481C3279.31 559.116 3279.58 559.713 3279.97 560.236C3280.36 560.758 3280.86 561.193 3281.42 561.514C3281.99 561.834 3282.62 562.033 3283.27 562.097C3283.91 562.161 3284.57 562.089 3285.19 561.885L3285.26 561.874C3285.29 561.868 3285.31 561.852 3285.34 561.847C3285.73 561.758 3286.21 561.667 3286.55 561.575C3287.97 561.121 3289.37 560.586 3290.73 559.972C3293.36 558.914 3296.08 558.113 3298.86 557.581C3299.82 557.64 3300.75 557.968 3301.54 558.528L3303.57 558.18C3308.13 572.274 3317.69 584.211 3330.45 591.74L3329.6 593.772C3330 594.591 3330.14 595.508 3330.02 596.408C3328.86 599.064 3327.44 601.602 3325.8 603.989C3324.9 605.181 3324.06 606.425 3323.3 607.713C3323.11 608.065 3322.88 608.602 3322.7 608.97C3322.36 609.53 3322.15 610.154 3322.07 610.803C3321.99 611.451 3322.04 612.109 3322.23 612.734C3322.42 613.36 3322.74 613.938 3323.17 614.434C3323.59 614.929 3324.12 615.329 3324.71 615.609C3325.3 615.889 3325.94 616.043 3326.59 616.06C3327.25 616.076 3327.89 615.956 3328.5 615.707C3329.1 615.458 3329.65 615.085 3330.1 614.613C3330.55 614.14 3330.9 613.579 3331.12 612.964L3331.13 612.955V612.944C3331.3 612.579 3331.55 612.101 3331.7 611.76C3332.23 610.363 3332.68 608.937 3333.05 607.488C3333.85 604.541 3335.07 601.723 3336.66 599.114C3337.21 598.593 3337.91 598.251 3338.67 598.134L3339.72 596.223C3353.56 601.544 3368.87 601.583 3382.74 596.332C3383.03 596.86 3383.58 597.87 3383.73 598.125C3384.68 598.277 3385.54 598.796 3386.11 599.571C3387.43 602.073 3388.5 604.698 3389.31 607.408C3389.68 608.857 3390.13 610.284 3390.66 611.68C3390.81 612.025 3391.06 612.509 3391.24 612.875C3391.46 613.491 3391.81 614.053 3392.26 614.526C3392.71 614.999 3393.25 615.373 3393.86 615.623C3394.46 615.873 3395.11 615.994 3395.76 615.978C3396.42 615.962 3397.06 615.809 3397.65 615.53C3398.24 615.25 3398.77 614.851 3399.19 614.356C3399.62 613.861 3399.94 613.283 3400.13 612.658C3400.32 612.032 3400.38 611.374 3400.3 610.726C3400.22 610.077 3400 609.452 3399.67 608.892C3399.49 608.524 3399.24 607.986 3399.06 607.637C3398.3 606.352 3397.46 605.111 3396.56 603.922C3394.94 601.596 3393.56 599.117 3392.43 596.522C3392.18 595.594 3392.31 594.606 3392.78 593.772C3392.49 593.162 3392.23 592.534 3392.01 591.891C3404.81 584.302 3414.37 572.272 3418.88 558.09C3419.48 558.187 3420.53 558.37 3420.87 558.439C3421.58 557.789 3422.52 557.441 3423.48 557.471C3426.26 558.002 3428.98 558.803 3431.61 559.862C3432.97 560.48 3434.37 561.019 3435.79 561.477C3436.13 561.565 3436.61 561.649 3436.99 561.734C3437.03 561.743 3437.05 561.756 3437.09 561.765L3437.15 561.775C3437.77 561.978 3438.42 562.049 3439.07 561.985C3439.72 561.921 3440.35 561.723 3440.91 561.402C3441.48 561.082 3441.97 560.647 3442.36 560.125C3442.75 559.603 3443.03 559.006 3443.17 558.371C3443.32 557.737 3443.33 557.079 3443.2 556.44C3443.08 555.801 3442.82 555.195 3442.45 554.66C3442.08 554.126 3441.6 553.675 3441.05 553.336C3440.49 552.997 3439.87 552.778 3439.23 552.692ZM3394.94 505.216L3375.02 519.338L3374.95 519.305C3374.35 519.743 3373.64 520.01 3372.9 520.078C3372.16 520.146 3371.42 520.012 3370.75 519.69C3370.08 519.369 3369.51 518.872 3369.1 518.252C3368.69 517.632 3368.45 516.913 3368.42 516.171L3368.4 516.16L3367.01 491.749C3377.54 493.057 3387.36 497.788 3394.94 505.216H3394.94ZM3357.41 531.974H3364.91L3369.57 537.801L3367.9 545.068L3361.17 548.309L3354.41 545.062L3352.74 537.791L3357.41 531.974ZM3350.36 492.603C3352 492.233 3353.66 491.948 3355.33 491.748L3353.95 516.196L3353.84 516.245C3353.81 516.987 3353.58 517.707 3353.17 518.328C3352.77 518.949 3352.2 519.448 3351.53 519.771C3350.86 520.094 3350.11 520.23 3349.37 520.164C3348.63 520.097 3347.93 519.832 3347.32 519.395L3347.29 519.417L3327.24 505.201C3333.62 498.928 3341.63 494.565 3350.36 492.603ZM3319.97 514.338L3338.27 530.71L3338.25 530.809C3338.81 531.297 3339.23 531.928 3339.46 532.636C3339.69 533.343 3339.72 534.099 3339.56 534.824C3339.39 535.549 3339.03 536.215 3338.52 536.752C3338 537.289 3337.35 537.676 3336.64 537.872L3336.62 537.951L3313.15 544.721C3311.98 534.118 3314.38 523.427 3319.97 514.338ZM3344.47 557.83L3335.15 580.357C3326.2 574.629 3319.4 566.108 3315.78 556.117L3339.84 552.03L3339.88 552.085C3340.15 552.034 3340.42 552.01 3340.69 552.013C3341.36 552.023 3342.03 552.199 3342.62 552.525C3343.21 552.852 3343.71 553.319 3344.07 553.885C3344.44 554.451 3344.66 555.098 3344.72 555.771C3344.78 556.443 3344.67 557.119 3344.4 557.739L3344.47 557.83ZM3371.99 586.799C3363.27 588.799 3354.16 588.332 3345.69 585.448L3357.52 564.053H3357.54C3357.89 563.4 3358.42 562.853 3359.05 562.472C3359.69 562.091 3360.42 561.89 3361.16 561.889C3361.9 561.888 3362.63 562.088 3363.27 562.468C3363.91 562.848 3364.43 563.394 3364.78 564.047H3364.87L3376.73 585.477C3375.19 585.991 3373.61 586.432 3371.99 586.801V586.799ZM3387.28 580.447L3377.86 557.691L3377.89 557.65C3377.47 556.676 3377.44 555.579 3377.82 554.587C3378.19 553.595 3378.93 552.784 3379.88 552.323C3380.37 552.082 3380.91 551.943 3381.45 551.915C3381.77 551.9 3382.09 551.923 3382.4 551.984L3382.44 551.933L3406.71 556.035C3403.13 566.107 3396.29 574.696 3387.28 580.447ZM3409.26 544.642L3385.68 537.85L3385.66 537.75C3384.94 537.553 3384.29 537.165 3383.78 536.628C3383.26 536.091 3382.91 535.425 3382.74 534.7C3382.57 533.976 3382.61 533.221 3382.84 532.514C3383.07 531.808 3383.48 531.176 3384.04 530.688L3384.03 530.64L3402.24 514.349C3407.81 523.414 3410.28 534.05 3409.26 544.643L3409.26 544.642Z" fill="white"/>
</svg>
