<svg width="1750" height="800" viewBox="0 0 1750 800" fill="none" xmlns="http://www.w3.org/2000/svg">
<path d="M1174.06 207.61C1242 158.043 1299.72 133.971 1347.27 133.971C1402.22 133.971 1453.27 150.634 1495.65 179.181H1596.91V88.7448C1528.56 33.8471 1441.75 1 1347.27 1C1253 1 1160.73 49.4193 1075.48 115.355H1174.06V207.61Z" fill="#FFD633"/>
<path d="M1347.27 798.827C1266.37 798.827 1185.93 762.151 1110.23 709.451V617.986H1213.06C1264.79 650.064 1309.7 665.855 1347.27 665.855C1419.58 665.855 1485.14 637.001 1533.08 590.178V681.812H1629.52C1557.32 754.104 1457.52 798.827 1347.27 798.827Z" fill="#FFD633"/>
<path d="M1564.99 552.67V649.899H1658.16C1713.22 581.503 1746.18 494.557 1746.18 399.913C1746.18 289.489 1701.32 189.543 1628.82 117.313V211.094H1534.55C1583.13 259.28 1613.21 326.083 1613.21 399.913C1613.21 456.762 1595.38 509.445 1564.99 552.67Z" fill="#FFD633"/>
<path d="M644.833 706.874C568.069 761.229 486.274 799.09 402.913 799.09C292.533 799.09 192.624 754.259 120.401 681.812H216.666V590.011C264.643 637.087 330.388 666.119 402.913 666.119C441.425 666.119 486.612 650.327 538.499 617.986H644.833V706.874Z" fill="#FB6233"/>
<path d="M581.007 212.032C510.468 159.826 450.743 134.235 402.913 134.235C348.138 134.235 297.23 150.795 254.924 179.181H152.84V89.3614C221.249 34.2514 308.229 1.26344 402.913 1.26344C495.945 1.26344 588.369 49.7608 673.667 115.355H581.007V212.032Z" fill="#FB6233"/>
<path d="M184.753 552.307C154.637 509.2 136.971 456.751 136.971 400.177C136.971 326.212 167.166 259.3 215.902 211.094H120.927V118.015C48.6861 190.211 4 289.975 4 400.177C4 494.699 36.8752 581.544 91.8153 649.899H184.753V552.307Z" fill="#FB6233"/>
<path d="M875.129 303.88C826.82 253.022 772.077 197.076 713.23 147.268H613.008V236.872C619.734 242.354 626.548 248.06 633.451 253.989C689.152 301.834 737.424 351.826 783.031 400.093L875.231 496.21C934.665 558.779 1003.84 629.05 1078.41 686.116V586.073H1166.6C1150.58 574.115 1134.02 560.795 1116.91 546.102C1061.21 498.256 1012.94 448.264 967.329 399.997L875.129 303.88Z" fill="#FB6233"/>
<path d="M966.217 399.997C1013.42 350.045 1062.3 299.204 1118.54 250.973C1126.18 244.422 1133.7 238.153 1141.12 232.163V147.268H1035.21C977.078 196.775 922.77 252.525 874.017 303.88L781.919 400.093C734.718 450.046 685.839 500.886 629.598 549.117C613.843 562.629 598.561 574.943 583.754 586.073H675.722V683.151C747.952 626.977 815.105 558.374 874.119 496.21L966.217 399.997Z" fill="#FFD633"/>
<path d="M277.878 446.79V357.433H318.471C328.173 357.433 336.726 359.306 344.129 363.05C351.533 366.71 357.32 371.858 361.49 378.496C365.66 385.134 367.745 393.006 367.745 402.112C367.745 411.133 365.66 419.004 361.49 425.727C357.32 432.365 351.533 437.557 344.129 441.301C336.726 444.96 328.173 446.79 318.471 446.79H277.878ZM298.558 429.812H317.45C323.407 429.812 328.556 428.706 332.896 426.493C337.321 424.196 340.725 420.962 343.108 416.792C345.576 412.622 346.81 407.728 346.81 402.112C346.81 396.41 345.576 391.517 343.108 387.432C340.725 383.262 337.321 380.07 332.896 377.858C328.556 375.56 323.407 374.411 317.45 374.411H298.558V429.812ZM416.02 447.811C408.19 447.811 401.297 446.279 395.34 443.216C389.468 440.152 384.915 435.982 381.681 430.706C378.447 425.344 376.83 419.26 376.83 412.452C376.83 405.558 378.405 399.474 381.553 394.197C384.787 388.836 389.17 384.666 394.702 381.687C400.233 378.624 406.488 377.092 413.466 377.092C420.189 377.092 426.232 378.539 431.593 381.432C437.04 384.24 441.337 388.325 444.486 393.687C447.635 398.963 449.209 405.303 449.209 412.707C449.209 413.473 449.167 414.366 449.081 415.388C448.996 416.324 448.911 417.217 448.826 418.068H393.042V406.452H438.359L430.7 409.899C430.7 406.324 429.976 403.218 428.529 400.58C427.083 397.942 425.083 395.899 422.53 394.453C419.977 392.921 416.998 392.155 413.594 392.155C410.19 392.155 407.169 392.921 404.531 394.453C401.978 395.899 399.978 397.984 398.531 400.708C397.084 403.346 396.361 406.494 396.361 410.154V413.218C396.361 416.962 397.17 420.281 398.786 423.174C400.488 425.983 402.829 428.153 405.807 429.685C408.871 431.131 412.445 431.855 416.53 431.855C420.189 431.855 423.381 431.302 426.104 430.195C428.912 429.089 431.465 427.429 433.763 425.217L444.358 436.706C441.21 440.28 437.252 443.046 432.487 445.003C427.721 446.875 422.232 447.811 416.02 447.811ZM479.858 446.79L451.008 378.113H471.56L495.559 437.216H485.347L510.239 378.113H529.387L500.41 446.79H479.858Z" fill="#FFD633"/>
<path d="M1276.01 448.322C1268.95 448.322 1262.4 447.173 1256.35 444.875C1250.4 442.578 1245.21 439.344 1240.78 435.174C1236.44 431.004 1233.04 426.11 1230.57 420.494C1228.18 414.877 1226.99 408.75 1226.99 402.112C1226.99 395.474 1228.18 389.347 1230.57 383.73C1233.04 378.113 1236.48 373.22 1240.91 369.05C1245.33 364.88 1250.52 361.646 1256.48 359.348C1262.44 357.051 1268.91 355.902 1275.88 355.902C1282.95 355.902 1289.42 357.051 1295.29 359.348C1301.24 361.646 1306.39 364.88 1310.73 369.05C1315.16 373.22 1318.61 378.113 1321.07 383.73C1323.54 389.261 1324.78 395.389 1324.78 402.112C1324.78 408.75 1323.54 414.92 1321.07 420.621C1318.61 426.238 1315.16 431.131 1310.73 435.301C1306.39 439.386 1301.24 442.578 1295.29 444.875C1289.42 447.173 1282.99 448.322 1276.01 448.322ZM1275.88 430.706C1279.88 430.706 1283.54 430.025 1286.86 428.663C1290.27 427.302 1293.25 425.344 1295.8 422.791C1298.35 420.238 1300.31 417.217 1301.67 413.728C1303.12 410.239 1303.84 406.367 1303.84 402.112C1303.84 397.857 1303.12 393.985 1301.67 390.495C1300.31 387.006 1298.35 383.985 1295.8 381.432C1293.33 378.879 1290.39 376.922 1286.99 375.56C1283.59 374.198 1279.88 373.518 1275.88 373.518C1271.88 373.518 1268.18 374.198 1264.78 375.56C1261.46 376.922 1258.52 378.879 1255.97 381.432C1253.42 383.985 1251.42 387.006 1249.97 390.495C1248.61 393.985 1247.93 397.857 1247.93 402.112C1247.93 406.282 1248.61 410.154 1249.97 413.728C1251.42 417.217 1253.38 420.238 1255.84 422.791C1258.4 425.344 1261.37 427.302 1264.78 428.663C1268.18 430.025 1271.88 430.706 1275.88 430.706ZM1379.51 447.811C1373.72 447.811 1368.66 446.535 1364.32 443.982C1359.98 441.429 1356.57 437.557 1354.1 432.365C1351.72 427.089 1350.53 420.451 1350.53 412.452C1350.53 404.367 1351.68 397.729 1353.98 392.538C1356.27 387.347 1359.59 383.475 1363.93 380.921C1368.27 378.368 1373.46 377.092 1379.51 377.092C1385.97 377.092 1391.76 378.581 1396.87 381.56C1402.06 384.453 1406.14 388.538 1409.12 393.814C1412.19 399.091 1413.72 405.303 1413.72 412.452C1413.72 419.685 1412.19 425.94 1409.12 431.216C1406.14 436.493 1402.06 440.578 1396.87 443.471C1391.76 446.365 1385.97 447.811 1379.51 447.811ZM1338.91 471.555V378.113H1357.93V392.155L1357.55 412.579L1358.83 432.876V471.555H1338.91ZM1376.06 431.472C1379.38 431.472 1382.31 430.706 1384.87 429.174C1387.51 427.642 1389.59 425.472 1391.12 422.664C1392.74 419.77 1393.55 416.366 1393.55 412.452C1393.55 408.452 1392.74 405.048 1391.12 402.239C1389.59 399.431 1387.51 397.261 1384.87 395.729C1382.31 394.197 1379.38 393.431 1376.06 393.431C1372.74 393.431 1369.76 394.197 1367.12 395.729C1364.49 397.261 1362.4 399.431 1360.87 402.239C1359.34 405.048 1358.57 408.452 1358.57 412.452C1358.57 416.366 1359.34 419.77 1360.87 422.664C1362.4 425.472 1364.49 427.642 1367.12 429.174C1369.76 430.706 1372.74 431.472 1376.06 431.472ZM1450.15 447.811C1444.28 447.811 1438.62 447.13 1433.17 445.769C1427.81 444.322 1423.56 442.535 1420.41 440.407L1427.05 426.11C1430.2 428.068 1433.9 429.685 1438.15 430.961C1442.49 432.153 1446.75 432.748 1450.92 432.748C1455.51 432.748 1458.75 432.195 1460.62 431.089C1462.58 429.982 1463.56 428.451 1463.56 426.493C1463.56 424.876 1462.79 423.685 1461.26 422.919C1459.81 422.068 1457.85 421.43 1455.39 421.004C1452.92 420.579 1450.2 420.153 1447.22 419.728C1444.32 419.302 1441.39 418.749 1438.41 418.068C1435.43 417.302 1432.71 416.196 1430.24 414.749C1427.77 413.303 1425.77 411.345 1424.24 408.877C1422.79 406.409 1422.07 403.218 1422.07 399.303C1422.07 394.963 1423.3 391.134 1425.77 387.815C1428.32 384.496 1431.98 381.9 1436.75 380.028C1441.51 378.071 1447.22 377.092 1453.85 377.092C1458.54 377.092 1463.3 377.603 1468.15 378.624C1473 379.645 1477.04 381.134 1480.28 383.092L1473.64 397.261C1470.32 395.304 1466.96 393.985 1463.56 393.304C1460.24 392.538 1457 392.155 1453.85 392.155C1449.43 392.155 1446.2 392.751 1444.15 393.942C1442.11 395.133 1441.09 396.665 1441.09 398.537C1441.09 400.24 1441.81 401.516 1443.26 402.367C1444.79 403.218 1446.79 403.899 1449.26 404.409C1451.73 404.92 1454.41 405.388 1457.3 405.814C1460.28 406.154 1463.26 406.707 1466.24 407.473C1469.22 408.239 1471.9 409.345 1474.28 410.792C1476.75 412.154 1478.75 414.069 1480.28 416.536C1481.81 418.919 1482.58 422.068 1482.58 425.983C1482.58 430.238 1481.3 434.025 1478.75 437.344C1476.19 440.578 1472.49 443.131 1467.64 445.003C1462.88 446.875 1457.05 447.811 1450.15 447.811Z" fill="#FB6233"/>
<path d="M335.47 90.6574C332.385 90.6574 329.637 90.0369 327.226 88.7958C324.815 87.5193 322.918 85.7641 321.535 83.5302C320.188 81.2963 319.514 78.761 319.514 75.9242C319.514 73.0521 320.188 70.5168 321.535 68.3183C322.918 66.0844 324.815 64.3469 327.226 63.1058C329.637 61.8293 332.385 61.191 335.47 61.191C338.484 61.191 341.108 61.8293 343.342 63.1058C345.576 64.3469 347.225 66.1376 348.289 68.4779L341.853 71.9351C341.108 70.5877 340.169 69.5948 339.034 68.9566C337.935 68.3183 336.729 67.9992 335.417 67.9992C333.999 67.9992 332.722 68.3183 331.588 68.9566C330.453 69.5948 329.549 70.499 328.875 71.6692C328.237 72.8393 327.918 74.2577 327.918 75.9242C327.918 77.5908 328.237 79.0092 328.875 80.1793C329.549 81.3495 330.453 82.2537 331.588 82.8919C332.722 83.5302 333.999 83.8493 335.417 83.8493C336.729 83.8493 337.935 83.5479 339.034 82.9451C340.169 82.3069 341.108 81.2963 341.853 79.9134L348.289 83.4238C347.225 85.7286 345.576 87.5193 343.342 88.7958C341.108 90.0369 338.484 90.6574 335.47 90.6574ZM366.319 90.6574C363.269 90.6574 360.557 90.0192 358.181 88.7427C355.841 87.4661 353.979 85.7286 352.596 83.5302C351.249 81.2963 350.575 78.761 350.575 75.9242C350.575 73.0521 351.249 70.5168 352.596 68.3183C353.979 66.0844 355.841 64.3469 358.181 63.1058C360.557 61.8293 363.269 61.191 366.319 61.191C369.333 61.191 372.028 61.8293 374.403 63.1058C376.779 64.3469 378.641 66.0667 379.988 68.2651C381.336 70.4636 382.009 73.0166 382.009 75.9242C382.009 78.761 381.336 81.2963 379.988 83.5302C378.641 85.7286 376.779 87.4661 374.403 88.7427C372.028 90.0192 369.333 90.6574 366.319 90.6574ZM366.319 83.8493C367.702 83.8493 368.943 83.5302 370.042 82.8919C371.141 82.2537 372.01 81.3495 372.648 80.1793C373.286 78.9737 373.606 77.5554 373.606 75.9242C373.606 74.2577 373.286 72.8393 372.648 71.6692C372.01 70.499 371.141 69.5948 370.042 68.9566C368.943 68.3183 367.702 67.9992 366.319 67.9992C364.936 67.9992 363.695 68.3183 362.596 68.9566C361.496 69.5948 360.61 70.499 359.936 71.6692C359.298 72.8393 358.979 74.2577 358.979 75.9242C358.979 77.5554 359.298 78.9737 359.936 80.1793C360.61 81.3495 361.496 82.2537 362.596 82.8919C363.695 83.5302 364.936 83.8493 366.319 83.8493ZM399.842 90.6574C397.147 90.6574 394.718 90.0546 392.555 88.849C390.392 87.608 388.672 85.8882 387.396 83.6898C386.155 81.4913 385.534 78.9028 385.534 75.9242C385.534 72.9102 386.155 70.304 387.396 68.1055C388.672 65.9071 390.392 64.2051 392.555 62.9995C394.718 61.7938 397.147 61.191 399.842 61.191C402.253 61.191 404.363 61.7229 406.171 62.7867C407.98 63.8505 409.381 65.4639 410.373 67.6268C411.366 69.7898 411.863 72.5556 411.863 75.9242C411.863 79.2574 411.384 82.0232 410.427 84.2216C409.469 86.3846 408.086 87.998 406.278 89.0618C404.505 90.1256 402.36 90.6574 399.842 90.6574ZM401.278 83.8493C402.626 83.8493 403.849 83.5302 404.948 82.8919C406.047 82.2537 406.916 81.3495 407.554 80.1793C408.228 78.9737 408.565 77.5554 408.565 75.9242C408.565 74.2577 408.228 72.8393 407.554 71.6692C406.916 70.499 406.047 69.5948 404.948 68.9566C403.849 68.3183 402.626 67.9992 401.278 67.9992C399.895 67.9992 398.654 68.3183 397.555 68.9566C396.456 69.5948 395.569 70.499 394.896 71.6692C394.257 72.8393 393.938 74.2577 393.938 75.9242C393.938 77.5554 394.257 78.9737 394.896 80.1793C395.569 81.3495 396.456 82.2537 397.555 82.8919C398.654 83.5302 399.895 83.8493 401.278 83.8493ZM408.778 90.2319V84.3812L408.937 75.8711L408.405 67.4141V50.7661H416.703V90.2319H408.778ZM438.584 90.6574C435.321 90.6574 432.449 90.0192 429.967 88.7427C427.52 87.4661 425.623 85.7286 424.276 83.5302C422.928 81.2963 422.255 78.761 422.255 75.9242C422.255 73.0521 422.911 70.5168 424.223 68.3183C425.57 66.0844 427.396 64.3469 429.701 63.1058C432.006 61.8293 434.612 61.191 437.52 61.191C440.321 61.191 442.839 61.7938 445.073 62.9995C447.342 64.1696 449.133 65.8716 450.445 68.1055C451.757 70.304 452.413 72.9457 452.413 76.0306C452.413 76.3498 452.395 76.7221 452.359 77.1476C452.324 77.5376 452.288 77.9099 452.253 78.2645H429.01V73.4244H447.892L444.7 74.8605C444.7 73.3712 444.399 72.0769 443.796 70.9777C443.193 69.8785 442.36 69.0275 441.296 68.4247C440.232 67.7864 438.991 67.4673 437.573 67.4673C436.155 67.4673 434.896 67.7864 433.797 68.4247C432.733 69.0275 431.9 69.8962 431.297 71.0309C430.694 72.1301 430.393 73.4421 430.393 74.9669V76.2434C430.393 77.8036 430.729 79.1865 431.403 80.3921C432.112 81.5622 433.087 82.4664 434.329 83.1047C435.605 83.7075 437.094 84.0089 438.796 84.0089C440.321 84.0089 441.651 83.7784 442.785 83.3174C443.956 82.8565 445.019 82.165 445.977 81.2431L450.391 86.03C449.079 87.5193 447.431 88.6717 445.445 89.4873C443.459 90.2674 441.172 90.6574 438.584 90.6574Z" fill="#FFD633"/>
<path d="M1286.9 90.6574C1284.2 90.6574 1281.77 90.0546 1279.61 88.849C1277.45 87.608 1275.73 85.8882 1274.45 83.6898C1273.21 81.4913 1272.59 78.9028 1272.59 75.9242C1272.59 72.9102 1273.21 70.304 1274.45 68.1055C1275.73 65.9071 1277.45 64.2051 1279.61 62.9995C1281.77 61.7938 1284.2 61.191 1286.9 61.191C1289.31 61.191 1291.42 61.7229 1293.23 62.7867C1295.04 63.8505 1296.44 65.4639 1297.43 67.6268C1298.42 69.7898 1298.92 72.5556 1298.92 75.9242C1298.92 79.2574 1298.44 82.0232 1297.48 84.2216C1296.52 86.3846 1295.14 87.998 1293.33 89.0618C1291.56 90.1256 1289.42 90.6574 1286.9 90.6574ZM1288.33 83.8493C1289.68 83.8493 1290.9 83.5302 1292 82.8919C1293.1 82.2537 1293.97 81.3495 1294.61 80.1793C1295.28 78.9737 1295.62 77.5554 1295.62 75.9242C1295.62 74.2577 1295.28 72.8393 1294.61 71.6692C1293.97 70.499 1293.1 69.5948 1292 68.9566C1290.9 68.3183 1289.68 67.9992 1288.33 67.9992C1286.95 67.9992 1285.71 68.3183 1284.61 68.9566C1283.51 69.5948 1282.62 70.499 1281.95 71.6692C1281.31 72.8393 1280.99 74.2577 1280.99 75.9242C1280.99 77.5554 1281.31 78.9737 1281.95 80.1793C1282.62 81.3495 1283.51 82.2537 1284.61 82.8919C1285.71 83.5302 1286.95 83.8493 1288.33 83.8493ZM1295.83 90.2319V84.3812L1295.99 75.8711L1295.46 67.4141V50.7661H1303.76V90.2319H1295.83ZM1325.64 90.6574C1322.38 90.6574 1319.5 90.0192 1317.02 88.7427C1314.58 87.4661 1312.68 85.7286 1311.33 83.5302C1309.98 81.2963 1309.31 78.761 1309.31 75.9242C1309.31 73.0521 1309.97 70.5168 1311.28 68.3183C1312.63 66.0844 1314.45 64.3469 1316.76 63.1058C1319.06 61.8293 1321.67 61.191 1324.58 61.191C1327.38 61.191 1329.89 61.7938 1332.13 62.9995C1334.4 64.1696 1336.19 65.8716 1337.5 68.1055C1338.81 70.304 1339.47 72.9457 1339.47 76.0306C1339.47 76.3498 1339.45 76.7221 1339.41 77.1476C1339.38 77.5376 1339.34 77.9099 1339.31 78.2645H1316.07V73.4244H1334.95L1331.76 74.8605C1331.76 73.3712 1331.45 72.0769 1330.85 70.9777C1330.25 69.8785 1329.42 69.0275 1328.35 68.4247C1327.29 67.7864 1326.05 67.4673 1324.63 67.4673C1323.21 67.4673 1321.95 67.7864 1320.85 68.4247C1319.79 69.0275 1318.96 69.8962 1318.35 71.0309C1317.75 72.1301 1317.45 73.4421 1317.45 74.9669V76.2434C1317.45 77.8036 1317.78 79.1865 1318.46 80.3921C1319.17 81.5622 1320.14 82.4664 1321.38 83.1047C1322.66 83.7075 1324.15 84.0089 1325.85 84.0089C1327.38 84.0089 1328.71 83.7784 1329.84 83.3174C1331.01 82.8565 1332.07 82.165 1333.03 81.2431L1337.45 86.03C1336.13 87.5193 1334.49 88.6717 1332.5 89.4873C1330.51 90.2674 1328.23 90.6574 1325.64 90.6574ZM1361.91 90.6574C1359.49 90.6574 1357.39 90.1256 1355.58 89.0618C1353.77 87.998 1352.35 86.3846 1351.32 84.2216C1350.33 82.0232 1349.83 79.2574 1349.83 75.9242C1349.83 72.5556 1350.31 69.7898 1351.27 67.6268C1352.23 65.4639 1353.61 63.8505 1355.42 62.7867C1357.23 61.7229 1359.39 61.191 1361.91 61.191C1364.6 61.191 1367.01 61.8116 1369.14 63.0526C1371.3 64.2582 1373 65.9603 1374.25 68.1587C1375.52 70.3572 1376.16 72.9457 1376.16 75.9242C1376.16 78.9383 1375.52 81.5445 1374.25 83.7429C1373 85.9414 1371.3 87.6434 1369.14 88.849C1367.01 90.0546 1364.6 90.6574 1361.91 90.6574ZM1344.99 100.55V61.6166H1352.92V67.4673L1352.76 75.9774L1353.29 84.4344V100.55H1344.99ZM1360.47 83.8493C1361.85 83.8493 1363.08 83.5302 1364.14 82.8919C1365.24 82.2537 1366.11 81.3495 1366.75 80.1793C1367.42 78.9737 1367.76 77.5554 1367.76 75.9242C1367.76 74.2577 1367.42 72.8393 1366.75 71.6692C1366.11 70.499 1365.24 69.5948 1364.14 68.9566C1363.08 68.3183 1361.85 67.9992 1360.47 67.9992C1359.09 67.9992 1357.85 68.3183 1356.75 68.9566C1355.65 69.5948 1354.78 70.499 1354.14 71.6692C1353.5 72.8393 1353.18 74.2577 1353.18 75.9242C1353.18 77.5554 1353.5 78.9737 1354.14 80.1793C1354.78 81.3495 1355.65 82.2537 1356.75 82.8919C1357.85 83.5302 1359.09 83.8493 1360.47 83.8493ZM1381.72 90.2319V50.7661H1390.01V90.2319H1381.72ZM1411.33 90.6574C1408.28 90.6574 1405.57 90.0192 1403.19 88.7427C1400.85 87.4661 1398.99 85.7286 1397.61 83.5302C1396.26 81.2963 1395.59 78.761 1395.59 75.9242C1395.59 73.0521 1396.26 70.5168 1397.61 68.3183C1398.99 66.0844 1400.85 64.3469 1403.19 63.1058C1405.57 61.8293 1408.28 61.191 1411.33 61.191C1414.34 61.191 1417.04 61.8293 1419.41 63.1058C1421.79 64.3469 1423.65 66.0667 1425 68.2651C1426.35 70.4636 1427.02 73.0166 1427.02 75.9242C1427.02 78.761 1426.35 81.2963 1425 83.5302C1423.65 85.7286 1421.79 87.4661 1419.41 88.7427C1417.04 90.0192 1414.34 90.6574 1411.33 90.6574ZM1411.33 83.8493C1412.71 83.8493 1413.95 83.5302 1415.05 82.8919C1416.15 82.2537 1417.02 81.3495 1417.66 80.1793C1418.3 78.9737 1418.62 77.5554 1418.62 75.9242C1418.62 74.2577 1418.3 72.8393 1417.66 71.6692C1417.02 70.499 1416.15 69.5948 1415.05 68.9566C1413.95 68.3183 1412.71 67.9992 1411.33 67.9992C1409.95 67.9992 1408.71 68.3183 1407.61 68.9566C1406.51 69.5948 1405.62 70.499 1404.95 71.6692C1404.31 72.8393 1403.99 74.2577 1403.99 75.9242C1403.99 77.5554 1404.31 78.9737 1404.95 80.1793C1405.62 81.3495 1406.51 82.2537 1407.61 82.8919C1408.71 83.5302 1409.95 83.8493 1411.33 83.8493ZM1435.4 100.976C1433.91 100.976 1432.44 100.746 1430.99 100.285C1429.54 99.8236 1428.35 99.1853 1427.43 98.3698L1430.46 92.4658C1431.1 93.0332 1431.82 93.4764 1432.64 93.7956C1433.49 94.1147 1434.32 94.2743 1435.14 94.2743C1436.31 94.2743 1437.23 93.9906 1437.9 93.4232C1438.61 92.8914 1439.25 91.9872 1439.82 90.7106L1441.31 87.2002L1441.95 86.296L1452.21 61.6166H1460.19L1447.26 91.9872C1446.34 94.292 1445.28 96.1004 1444.07 97.4124C1442.9 98.7244 1441.59 99.6463 1440.14 100.178C1438.72 100.71 1437.14 100.976 1435.4 100.976ZM1440.3 91.3489L1427.53 61.6166H1436.1L1445.99 85.5514L1440.3 91.3489Z" fill="#FB6233"/>
<path d="M1297.06 707.431C1299.33 707.431 1301.34 707.892 1303.07 708.813C1304.85 709.7 1306.23 711.083 1307.22 712.962C1308.25 714.806 1308.77 717.182 1308.77 720.089V736.471H1300.47V721.366C1300.47 719.061 1299.99 717.359 1299.03 716.26C1298.07 715.161 1296.73 714.611 1294.99 714.611C1293.78 714.611 1292.7 714.895 1291.75 715.462C1290.79 715.994 1290.04 716.809 1289.51 717.909C1288.98 719.008 1288.71 720.409 1288.71 722.111V736.471H1280.42V721.366C1280.42 719.061 1279.94 717.359 1278.98 716.26C1278.06 715.161 1276.73 714.611 1274.99 714.611C1273.79 714.611 1272.7 714.895 1271.75 715.462C1270.79 715.994 1270.04 716.809 1269.51 717.909C1268.98 719.008 1268.71 720.409 1268.71 722.111V736.471H1260.42V707.856H1268.34V715.675L1266.85 713.388C1267.85 711.437 1269.25 709.966 1271.06 708.973C1272.9 707.945 1274.99 707.431 1277.33 707.431C1279.96 707.431 1282.24 708.104 1284.19 709.452C1286.18 710.764 1287.49 712.785 1288.13 715.515L1285.2 714.717C1286.16 712.483 1287.69 710.711 1289.78 709.399C1291.91 708.087 1294.33 707.431 1297.06 707.431ZM1330.03 736.897C1326.98 736.897 1324.26 736.259 1321.89 734.982C1319.55 733.706 1317.69 731.968 1316.3 729.77C1314.96 727.536 1314.28 725 1314.28 722.164C1314.28 719.292 1314.96 716.756 1316.3 714.558C1317.69 712.324 1319.55 710.586 1321.89 709.345C1324.26 708.069 1326.98 707.431 1330.03 707.431C1333.04 707.431 1335.74 708.069 1338.11 709.345C1340.49 710.586 1342.35 712.306 1343.7 714.505C1345.04 716.703 1345.72 719.256 1345.72 722.164C1345.72 725 1345.04 727.536 1343.7 729.77C1342.35 731.968 1340.49 733.706 1338.11 734.982C1335.74 736.259 1333.04 736.897 1330.03 736.897ZM1330.03 730.089C1331.41 730.089 1332.65 729.77 1333.75 729.131C1334.85 728.493 1335.72 727.589 1336.36 726.419C1336.99 725.213 1337.31 723.795 1337.31 722.164C1337.31 720.497 1336.99 719.079 1336.36 717.909C1335.72 716.739 1334.85 715.834 1333.75 715.196C1332.65 714.558 1331.41 714.239 1330.03 714.239C1328.64 714.239 1327.4 714.558 1326.3 715.196C1325.2 715.834 1324.32 716.739 1323.64 717.909C1323.01 719.079 1322.69 720.497 1322.69 722.164C1322.69 723.795 1323.01 725.213 1323.64 726.419C1324.32 727.589 1325.2 728.493 1326.3 729.131C1327.4 729.77 1328.64 730.089 1330.03 730.089ZM1368.66 707.431C1370.93 707.431 1372.95 707.892 1374.72 708.813C1376.53 709.7 1377.95 711.083 1378.97 712.962C1380 714.806 1380.52 717.182 1380.52 720.089V736.471H1372.22V721.366C1372.22 719.061 1371.71 717.359 1370.68 716.26C1369.68 715.161 1368.27 714.611 1366.42 714.611C1365.11 714.611 1363.92 714.895 1362.86 715.462C1361.83 715.994 1361.01 716.827 1360.41 717.962C1359.84 719.097 1359.56 720.55 1359.56 722.323V736.471H1351.26V707.856H1359.19V715.781L1357.7 713.388C1358.73 711.473 1360.2 710.001 1362.11 708.973C1364.03 707.945 1366.21 707.431 1368.66 707.431ZM1388.04 736.471V707.856H1396.34V736.471H1388.04ZM1392.19 703.867C1390.66 703.867 1389.42 703.424 1388.46 702.537C1387.51 701.651 1387.03 700.552 1387.03 699.24C1387.03 697.928 1387.51 696.828 1388.46 695.942C1389.42 695.055 1390.66 694.612 1392.19 694.612C1393.71 694.612 1394.95 695.038 1395.91 695.889C1396.87 696.704 1397.35 697.768 1397.35 699.08C1397.35 700.463 1396.87 701.615 1395.91 702.537C1394.99 703.424 1393.75 703.867 1392.19 703.867ZM1415.74 736.897C1412.37 736.897 1409.75 736.046 1407.87 734.344C1405.99 732.606 1405.05 730.036 1405.05 726.632V701.527H1413.34V726.525C1413.34 727.731 1413.66 728.67 1414.3 729.344C1414.94 729.982 1415.81 730.302 1416.91 730.302C1418.22 730.302 1419.34 729.947 1420.26 729.238L1422.49 735.089C1421.64 735.691 1420.61 736.152 1419.41 736.471C1418.24 736.755 1417.01 736.897 1415.74 736.897ZM1400.63 714.877V708.494H1420.47V714.877H1400.63ZM1439.88 736.897C1436.83 736.897 1434.12 736.259 1431.75 734.982C1429.41 733.706 1427.54 731.968 1426.16 729.77C1424.81 727.536 1424.14 725 1424.14 722.164C1424.14 719.292 1424.81 716.756 1426.16 714.558C1427.54 712.324 1429.41 710.586 1431.75 709.345C1434.12 708.069 1436.83 707.431 1439.88 707.431C1442.9 707.431 1445.59 708.069 1447.97 709.345C1450.34 710.586 1452.21 712.306 1453.55 714.505C1454.9 716.703 1455.57 719.256 1455.57 722.164C1455.57 725 1454.9 727.536 1453.55 729.77C1452.21 731.968 1450.34 733.706 1447.97 734.982C1445.59 736.259 1442.9 736.897 1439.88 736.897ZM1439.88 730.089C1441.27 730.089 1442.51 729.77 1443.61 729.131C1444.71 728.493 1445.58 727.589 1446.21 726.419C1446.85 725.213 1447.17 723.795 1447.17 722.164C1447.17 720.497 1446.85 719.079 1446.21 717.909C1445.58 716.739 1444.71 715.834 1443.61 715.196C1442.51 714.558 1441.27 714.239 1439.88 714.239C1438.5 714.239 1437.26 714.558 1436.16 715.196C1435.06 715.834 1434.18 716.739 1433.5 717.909C1432.86 719.079 1432.54 720.497 1432.54 722.164C1432.54 723.795 1432.86 725.213 1433.5 726.419C1434.18 727.589 1435.06 728.493 1436.16 729.131C1437.26 729.77 1438.5 730.089 1439.88 730.089ZM1461.12 736.471V707.856H1469.05V715.941L1467.93 713.6C1468.78 711.579 1470.14 710.055 1472.02 709.026C1473.9 707.962 1476.19 707.431 1478.89 707.431V715.09C1478.53 715.054 1478.21 715.036 1477.93 715.036C1477.64 715.001 1477.34 714.983 1477.02 714.983C1474.75 714.983 1472.91 715.639 1471.49 716.951C1470.11 718.228 1469.42 720.231 1469.42 722.962V736.471H1461.12Z" fill="#FB6233"/>
<path d="M1658.92 308.323C1658.92 305.273 1659.56 302.561 1660.84 300.185C1662.11 297.845 1663.85 295.983 1666.05 294.6C1668.28 293.253 1670.82 292.579 1673.66 292.579C1676.53 292.579 1679.06 293.253 1681.26 294.6C1683.5 295.983 1685.23 297.845 1686.47 300.185C1687.75 302.561 1688.39 305.273 1688.39 308.323C1688.39 311.337 1687.75 314.032 1686.47 316.407C1685.23 318.783 1683.51 320.645 1681.32 321.992C1679.12 323.34 1676.56 324.013 1673.66 324.013C1670.82 324.013 1668.28 323.34 1666.05 321.992C1663.85 320.645 1662.11 318.783 1660.84 316.407C1659.56 314.032 1658.92 311.337 1658.92 308.323ZM1665.73 308.323C1665.73 309.706 1666.05 310.947 1666.69 312.046C1667.33 313.145 1668.23 314.014 1669.4 314.652C1670.61 315.29 1672.03 315.61 1673.66 315.61C1675.32 315.61 1676.74 315.29 1677.91 314.652C1679.08 314.014 1679.99 313.145 1680.62 312.046C1681.26 310.947 1681.58 309.706 1681.58 308.323C1681.58 306.94 1681.26 305.699 1680.62 304.6C1679.99 303.5 1679.08 302.614 1677.91 301.94C1676.74 301.302 1675.32 300.983 1673.66 300.983C1672.03 300.983 1670.61 301.302 1669.4 301.94C1668.23 302.614 1667.33 303.5 1666.69 304.6C1666.05 305.699 1665.73 306.94 1665.73 308.323ZM1658.92 346.473C1658.92 344.062 1659.46 341.952 1660.52 340.144C1661.58 338.336 1663.2 336.917 1665.36 335.889C1667.56 334.896 1670.32 334.4 1673.66 334.4C1677.02 334.4 1679.79 334.878 1681.95 335.836C1684.12 336.793 1685.73 338.176 1686.79 339.984C1687.86 341.793 1688.39 343.956 1688.39 346.473C1688.39 349.168 1687.77 351.58 1686.53 353.707C1685.32 355.87 1683.62 357.572 1681.42 358.813C1679.22 360.09 1676.63 360.728 1673.66 360.728C1670.64 360.728 1668.04 360.09 1665.84 358.813C1663.64 357.572 1661.94 355.87 1660.73 353.707C1659.53 351.58 1658.92 349.168 1658.92 346.473ZM1649.03 329.559L1687.96 329.559V337.485H1682.11L1673.6 337.325L1665.15 337.857H1649.03V329.559ZM1665.73 345.037C1665.73 346.42 1666.05 347.644 1666.69 348.707C1667.33 349.807 1668.23 350.675 1669.4 351.314C1670.61 351.987 1672.03 352.324 1673.66 352.324C1675.32 352.324 1676.74 351.987 1677.91 351.314C1679.08 350.675 1679.99 349.807 1680.62 348.707C1681.26 347.644 1681.58 346.42 1681.58 345.037C1681.58 343.654 1681.26 342.413 1680.62 341.314C1679.99 340.215 1679.08 339.346 1677.91 338.708C1676.74 338.07 1675.32 337.751 1673.66 337.751C1672.03 337.751 1670.61 338.07 1669.4 338.708C1668.23 339.346 1667.33 340.215 1666.69 341.314C1666.05 342.413 1665.73 343.654 1665.73 345.037ZM1658.92 380.484C1658.92 377.221 1659.56 374.349 1660.84 371.867C1662.11 369.42 1663.85 367.523 1666.05 366.176C1668.28 364.829 1670.82 364.155 1673.66 364.155C1676.53 364.155 1679.06 364.811 1681.26 366.123C1683.5 367.47 1685.23 369.296 1686.47 371.601C1687.75 373.906 1688.39 376.512 1688.39 379.42C1688.39 382.221 1687.79 384.739 1686.58 386.973C1685.41 389.242 1683.71 391.033 1681.48 392.345C1679.28 393.657 1676.63 394.313 1673.55 394.313C1673.23 394.313 1672.86 394.295 1672.43 394.259C1672.04 394.224 1671.67 394.189 1671.32 394.153V370.91H1676.16V389.792L1674.72 386.6C1676.21 386.6 1677.5 386.299 1678.6 385.696C1679.7 385.093 1680.55 384.26 1681.16 383.196C1681.79 382.133 1682.11 380.891 1682.11 379.473C1682.11 378.055 1681.79 376.796 1681.16 375.697C1680.55 374.633 1679.68 373.8 1678.55 373.197C1677.45 372.594 1676.14 372.293 1674.61 372.293H1673.34C1671.78 372.293 1670.39 372.63 1669.19 373.303C1668.02 374.012 1667.11 374.988 1666.48 376.229C1665.87 377.505 1665.57 378.994 1665.57 380.696C1665.57 382.221 1665.8 383.551 1666.26 384.686C1666.72 385.856 1667.42 386.919 1668.34 387.877L1663.55 392.292C1662.06 390.98 1660.91 389.331 1660.09 387.345C1659.31 385.359 1658.92 383.072 1658.92 380.484ZM1659.35 399.837H1687.96V407.762H1679.88L1682.22 406.645C1684.24 407.496 1685.77 408.861 1686.79 410.74C1687.86 412.62 1688.39 414.907 1688.39 417.602H1680.73C1680.77 417.247 1680.78 416.928 1680.78 416.644C1680.82 416.361 1680.84 416.059 1680.84 415.74C1680.84 413.471 1680.18 411.627 1678.87 410.209C1677.59 408.826 1675.59 408.134 1672.86 408.134H1659.35V399.837ZM1659.35 438.218H1664.93L1666.16 437.686H1676.16C1677.93 437.686 1679.31 437.136 1680.3 436.037C1681.3 434.973 1681.79 433.324 1681.79 431.09C1681.79 429.566 1681.55 428.059 1681.05 426.569C1680.59 425.116 1679.95 423.874 1679.13 422.846L1684.93 419.868C1686.03 421.428 1686.88 423.307 1687.49 425.506C1688.09 427.704 1688.39 429.938 1688.39 432.207C1688.39 436.569 1687.36 439.955 1685.3 442.366C1683.25 444.778 1680.04 445.983 1675.68 445.983H1659.35V438.218ZM1658.92 429.495C1658.92 427.261 1659.3 425.346 1660.04 423.75C1660.82 422.155 1661.87 420.931 1663.18 420.08C1664.49 419.229 1665.96 418.804 1667.59 418.804C1669.29 418.804 1670.78 419.212 1672.06 420.027C1673.34 420.878 1674.33 422.208 1675.04 424.016C1675.78 425.825 1676.16 428.183 1676.16 431.09V438.696H1671.32V431.995C1671.32 430.044 1671 428.697 1670.36 427.952C1669.72 427.243 1668.92 426.889 1667.97 426.889C1666.9 426.889 1666.05 427.296 1665.41 428.112C1664.81 428.963 1664.51 430.115 1664.51 431.569C1664.51 432.952 1664.83 434.193 1665.47 435.292C1666.14 436.392 1667.11 437.189 1668.39 437.686L1664.56 438.962C1662.72 438.359 1661.32 437.26 1660.36 435.665C1659.4 434.069 1658.92 432.012 1658.92 429.495ZM1658.92 465.194C1658.92 461.826 1659.77 459.202 1661.48 457.322C1663.21 455.443 1665.78 454.503 1669.19 454.503H1694.29V462.801H1669.29C1668.09 462.801 1667.15 463.12 1666.48 463.758C1665.84 464.396 1665.52 465.265 1665.52 466.364C1665.52 467.676 1665.87 468.793 1666.58 469.715L1660.73 471.949C1660.13 471.098 1659.67 470.07 1659.35 468.864C1659.06 467.694 1658.92 466.471 1658.92 465.194ZM1680.94 450.089H1687.33V469.928H1680.94V450.089ZM1658.92 489.925C1658.92 486.663 1659.56 483.791 1660.84 481.309C1662.11 478.862 1663.85 476.965 1666.05 475.617C1668.28 474.27 1670.82 473.596 1673.66 473.596C1676.53 473.596 1679.06 474.252 1681.26 475.564C1683.5 476.912 1685.23 478.738 1686.47 481.043C1687.75 483.347 1688.39 485.954 1688.39 488.861C1688.39 491.663 1687.79 494.18 1686.58 496.414C1685.41 498.683 1683.71 500.474 1681.48 501.786C1679.28 503.098 1676.63 503.754 1673.55 503.754C1673.23 503.754 1672.86 503.736 1672.43 503.701C1672.04 503.665 1671.67 503.63 1671.32 503.595V480.351H1676.16V499.233L1674.72 496.042C1676.21 496.042 1677.5 495.74 1678.6 495.138C1679.7 494.535 1680.55 493.702 1681.16 492.638C1681.79 491.574 1682.11 490.333 1682.11 488.915C1682.11 487.496 1681.79 486.237 1681.16 485.138C1680.55 484.074 1679.68 483.241 1678.55 482.638C1677.45 482.036 1676.14 481.734 1674.61 481.734H1673.34C1671.78 481.734 1670.39 482.071 1669.19 482.745C1668.02 483.454 1667.11 484.429 1666.48 485.67C1665.87 486.947 1665.57 488.436 1665.57 490.138C1665.57 491.663 1665.8 492.992 1666.26 494.127C1666.72 495.297 1667.42 496.361 1668.34 497.318L1663.55 501.733C1662.06 500.421 1660.91 498.772 1660.09 496.786C1659.31 494.801 1658.92 492.514 1658.92 489.925Z" fill="#FB6233"/>
<path d="M720.838 262.833C719.133 261.128 718.017 259.26 717.491 257.229C716.964 255.198 717.102 253.054 717.905 250.797C718.757 248.541 720.362 246.234 722.719 243.877C725.101 241.495 727.395 239.878 729.601 239.025C731.808 238.173 733.926 238.01 735.957 238.537C737.988 239.063 739.894 240.216 741.674 241.997C743.58 243.902 744.846 246.046 745.473 248.428C746.15 250.81 746.15 253.217 745.473 255.649C744.821 258.106 743.442 260.388 741.336 262.494C739.204 264.625 736.91 266.017 734.453 266.669C732.021 267.346 729.614 267.346 727.232 266.669C724.875 266.017 722.744 264.738 720.838 262.833ZM701.883 257.868L729.413 230.338L735.017 235.941L730.88 240.079L724.75 245.983L719.146 252.339L707.75 263.735L701.883 257.868ZM724.637 257.003C725.615 257.981 726.705 258.62 727.909 258.921C729.137 259.247 730.391 259.222 731.67 258.846C732.999 258.47 734.24 257.705 735.393 256.552C736.572 255.373 737.336 254.132 737.687 252.828C738.063 251.55 738.089 250.296 737.763 249.067C737.462 247.864 736.822 246.773 735.845 245.795C734.867 244.817 733.763 244.165 732.535 243.84C731.306 243.514 730.053 243.539 728.774 243.915C727.495 244.291 726.267 245.068 725.088 246.247C723.935 247.4 723.157 248.629 722.756 249.932C722.38 251.211 722.355 252.465 722.681 253.693C723.007 254.922 723.659 256.025 724.637 257.003ZM735.146 276.539L763.053 248.632L768.92 254.499L741.013 282.406L735.146 276.539ZM758.87 300.262L762.819 296.313L763.308 295.072L770.378 288.001C771.632 286.748 772.221 285.381 772.146 283.902C772.096 282.448 771.281 280.931 769.701 279.351C768.623 278.273 767.382 277.383 765.978 276.681C764.624 275.979 763.295 275.553 761.991 275.402L763.985 269.197C765.865 269.522 767.796 270.25 769.777 271.378C771.757 272.506 773.55 273.873 775.155 275.477C778.239 278.561 779.906 281.683 780.157 284.842C780.408 288.001 778.991 291.123 775.907 294.207L764.361 305.753L758.87 300.262ZM752.401 294.395C750.821 292.816 749.73 291.198 749.129 289.544C748.552 287.864 748.427 286.259 748.753 284.729C749.079 283.2 749.818 281.859 750.972 280.705C752.175 279.502 753.517 278.737 754.996 278.411C756.5 278.11 758.143 278.348 759.923 279.126C761.728 279.878 763.659 281.282 765.715 283.338L771.093 288.716L767.67 292.139L762.932 287.4C761.553 286.021 760.374 285.294 759.396 285.218C758.443 285.168 757.629 285.482 756.952 286.159C756.199 286.911 755.886 287.801 756.011 288.829C756.187 289.857 756.789 290.885 757.817 291.913C758.794 292.891 759.898 293.543 761.126 293.869C762.38 294.17 763.634 294.044 764.887 293.493L763.082 297.103C761.352 297.981 759.584 298.194 757.779 297.742C755.974 297.291 754.181 296.175 752.401 294.395ZM802.504 302.827C804.109 304.432 805.212 306.187 805.814 308.092C806.466 309.998 806.491 311.979 805.889 314.035C805.312 316.066 803.996 318.109 801.94 320.165L790.356 331.749L784.489 325.882L795.17 315.201C796.8 313.571 797.64 312.004 797.69 310.499C797.765 309.02 797.151 307.628 795.847 306.325C794.92 305.397 793.879 304.757 792.726 304.406C791.622 304.055 790.457 304.068 789.228 304.444C788.024 304.845 786.796 305.673 785.542 306.926L775.538 316.931L769.671 311.063L789.905 290.829L795.509 296.433L789.905 302.037L790.544 299.292C792.625 298.665 794.706 298.665 796.788 299.292C798.869 299.918 800.774 301.097 802.504 302.827Z" fill="#FFD633"/>
<path d="M349.299 750.194C345.931 750.194 343.307 749.343 341.427 747.641C339.548 745.904 338.608 743.333 338.608 739.929V714.824H346.906V739.822C346.906 741.028 347.225 741.968 347.863 742.641C348.502 743.28 349.37 743.599 350.469 743.599C351.781 743.599 352.898 743.244 353.82 742.535L356.054 748.386C355.203 748.988 354.175 749.449 352.969 749.769C351.799 750.052 350.576 750.194 349.299 750.194ZM334.194 728.174V721.791H354.033V728.174H334.194ZM374.03 750.194C370.768 750.194 367.896 749.556 365.414 748.279C362.967 747.003 361.07 745.265 359.723 743.067C358.375 740.833 357.701 738.298 357.701 735.461C357.701 732.589 358.357 730.053 359.669 727.855C361.017 725.621 362.843 723.884 365.148 722.642C367.453 721.366 370.059 720.728 372.967 720.728C375.768 720.728 378.285 721.33 380.519 722.536C382.789 723.706 384.579 725.408 385.891 727.642C387.203 729.841 387.859 732.482 387.859 735.567C387.859 735.886 387.842 736.259 387.806 736.684C387.771 737.074 387.735 737.447 387.7 737.801H364.456V732.961H383.338L380.147 734.397C380.147 732.908 379.846 731.614 379.243 730.514C378.64 729.415 377.807 728.564 376.743 727.961C375.679 727.323 374.438 727.004 373.02 727.004C371.601 727.004 370.343 727.323 369.243 727.961C368.18 728.564 367.346 729.433 366.743 730.568C366.141 731.667 365.839 732.979 365.839 734.503V735.78C365.839 737.34 366.176 738.723 366.85 739.929C367.559 741.099 368.534 742.003 369.775 742.641C371.052 743.244 372.541 743.546 374.243 743.546C375.768 743.546 377.097 743.315 378.232 742.854C379.402 742.393 380.466 741.702 381.423 740.78L385.838 745.567C384.526 747.056 382.877 748.208 380.892 749.024C378.906 749.804 376.619 750.194 374.03 750.194ZM403.011 750.194C400.564 750.194 398.206 749.91 395.936 749.343C393.703 748.74 391.93 747.996 390.618 747.109L393.383 741.152C394.695 741.968 396.238 742.641 398.011 743.173C399.819 743.67 401.592 743.918 403.33 743.918C405.244 743.918 406.592 743.687 407.372 743.226C408.188 742.765 408.595 742.127 408.595 741.312C408.595 740.638 408.276 740.141 407.638 739.822C407.035 739.468 406.22 739.202 405.191 739.024C404.163 738.847 403.028 738.67 401.787 738.493C400.582 738.315 399.358 738.085 398.117 737.801C396.876 737.482 395.741 737.021 394.713 736.418C393.685 735.815 392.852 735 392.213 733.972C391.61 732.943 391.309 731.614 391.309 729.982C391.309 728.174 391.823 726.578 392.852 725.195C393.915 723.813 395.44 722.731 397.426 721.951C399.411 721.135 401.787 720.728 404.553 720.728C406.503 720.728 408.489 720.94 410.51 721.366C412.531 721.791 414.216 722.412 415.563 723.228L412.797 729.131C411.414 728.316 410.014 727.766 408.595 727.483C407.212 727.163 405.865 727.004 404.553 727.004C402.709 727.004 401.362 727.252 400.511 727.749C399.66 728.245 399.234 728.883 399.234 729.663C399.234 730.373 399.536 730.904 400.138 731.259C400.777 731.614 401.61 731.897 402.638 732.11C403.667 732.323 404.783 732.518 405.989 732.695C407.23 732.837 408.471 733.067 409.712 733.387C410.953 733.706 412.07 734.167 413.063 734.769C414.091 735.337 414.925 736.135 415.563 737.163C416.201 738.156 416.52 739.468 416.52 741.099C416.52 742.872 415.988 744.45 414.925 745.833C413.861 747.18 412.318 748.244 410.297 749.024C408.312 749.804 405.883 750.194 403.011 750.194ZM433.341 750.194C429.973 750.194 427.349 749.343 425.469 747.641C423.59 745.904 422.65 743.333 422.65 739.929V714.824H430.948V739.822C430.948 741.028 431.267 741.968 431.905 742.641C432.543 743.28 433.412 743.599 434.511 743.599C435.823 743.599 436.94 743.244 437.862 742.535L440.096 748.386C439.245 748.988 438.217 749.449 437.011 749.769C435.841 750.052 434.618 750.194 433.341 750.194ZM418.236 728.174V721.791H438.075V728.174H418.236Z" fill="#FFD633"/>
<path d="M822.688 469.091L802.454 448.857L808.057 443.253L813.774 448.97L811.329 448.105C810.502 446.074 810.389 444.031 810.991 441.975C811.568 439.894 812.809 437.9 814.714 435.995L820.13 441.411C819.854 441.636 819.616 441.849 819.416 442.05C819.19 442.225 818.964 442.426 818.739 442.652C817.134 444.256 816.294 446.024 816.219 447.955C816.144 449.835 817.071 451.741 819.002 453.671L828.555 463.224L822.688 469.091ZM848.934 443.447C846.627 445.754 844.145 447.333 841.487 448.186C838.854 449.013 836.284 449.126 833.777 448.524C831.245 447.898 828.975 446.581 826.97 444.575C824.939 442.544 823.61 440.288 822.983 437.806C822.356 435.273 822.419 432.753 823.171 430.246C823.898 427.714 825.29 425.419 827.346 423.363C829.326 421.383 831.533 420.029 833.965 419.301C836.397 418.524 838.867 418.462 841.374 419.113C843.856 419.74 846.188 421.144 848.37 423.326C848.595 423.551 848.846 423.827 849.122 424.153C849.373 424.454 849.611 424.742 849.836 425.018L833.401 441.454L829.978 438.031L843.33 424.68L842.089 427.952C841.036 426.899 839.907 426.197 838.704 425.846C837.5 425.495 836.309 425.482 835.131 425.808C833.927 426.109 832.824 426.761 831.821 427.764C830.818 428.767 830.154 429.882 829.828 431.111C829.502 432.289 829.527 433.493 829.903 434.722C830.254 435.925 830.969 437.066 832.047 438.144L832.95 439.047C834.053 440.15 835.269 440.89 836.598 441.266C837.927 441.592 839.256 441.541 840.584 441.115C841.913 440.639 843.179 439.799 844.383 438.595C845.461 437.517 846.238 436.414 846.715 435.286C847.216 434.132 847.48 432.891 847.505 431.562L854.011 431.826C854.136 433.806 853.785 435.787 852.958 437.768C852.106 439.724 850.764 441.617 848.934 443.447ZM862.318 429.461L834.411 401.555L840.278 395.688L868.185 423.594L862.318 429.461ZM883.973 408.408C881.666 410.715 879.184 412.294 876.526 413.147C873.893 413.974 871.323 414.087 868.816 413.485C866.284 412.859 864.014 411.542 862.009 409.536C859.978 407.505 858.649 405.249 858.022 402.767C857.395 400.234 857.458 397.714 858.21 395.207C858.937 392.675 860.329 390.38 862.385 388.324C864.365 386.344 866.572 384.99 869.004 384.263C871.436 383.485 873.906 383.423 876.413 384.075C878.895 384.701 881.227 386.105 883.409 388.287C883.634 388.512 883.885 388.788 884.161 389.114C884.411 389.415 884.65 389.703 884.875 389.979L868.44 406.415L865.017 402.992L878.369 389.641L877.128 392.913C876.075 391.86 874.946 391.158 873.743 390.807C872.539 390.456 871.348 390.443 870.17 390.769C868.966 391.07 867.863 391.722 866.86 392.725C865.857 393.728 865.193 394.843 864.867 396.072C864.541 397.251 864.566 398.454 864.942 399.683C865.293 400.886 866.008 402.027 867.086 403.105L867.988 404.008C869.092 405.111 870.308 405.851 871.637 406.227C872.966 406.553 874.294 406.503 875.623 406.076C876.952 405.6 878.218 404.76 879.422 403.556C880.5 402.478 881.277 401.375 881.754 400.247C882.255 399.093 882.518 397.852 882.544 396.523L889.05 396.787C889.175 398.767 888.824 400.748 887.997 402.729C887.144 404.685 885.803 406.578 883.973 408.408ZM909.217 382.562L905.268 378.613L904.027 378.124L896.956 371.054C895.702 369.8 894.336 369.211 892.857 369.286C891.402 369.336 889.885 370.151 888.306 371.731C887.228 372.809 886.338 374.05 885.635 375.454C884.933 376.808 884.507 378.137 884.357 379.441L878.151 377.447C878.477 375.567 879.204 373.636 880.332 371.655C881.461 369.675 882.827 367.882 884.432 366.277C887.516 363.193 890.638 361.526 893.797 361.275C896.956 361.024 900.078 362.441 903.162 365.525L914.708 377.071L909.217 382.562ZM903.35 389.031C901.77 390.611 900.153 391.701 898.498 392.303C896.818 392.88 895.213 393.005 893.684 392.679C892.155 392.353 890.813 391.614 889.66 390.46C888.456 389.257 887.691 387.915 887.366 386.436C887.065 384.932 887.303 383.289 888.08 381.509C888.832 379.704 890.236 377.773 892.292 375.717L897.671 370.339L901.093 373.761L896.354 378.5C894.975 379.879 894.248 381.058 894.173 382.036C894.123 382.988 894.436 383.803 895.113 384.48C895.865 385.233 896.755 385.546 897.783 385.421C898.811 385.245 899.839 384.643 900.867 383.615C901.845 382.637 902.497 381.534 902.823 380.306C903.124 379.052 902.999 377.798 902.447 376.545L906.058 378.35C906.935 380.08 907.148 381.848 906.697 383.653C906.246 385.458 905.13 387.251 903.35 389.031ZM927.126 365.255C925.396 366.985 923.528 368.451 921.522 369.655C919.517 370.808 917.736 371.535 916.182 371.836L913.925 365.668C915.43 365.317 916.997 364.703 918.626 363.825C920.256 362.898 921.685 361.82 922.914 360.591C924.268 359.237 925.058 358.121 925.283 357.244C925.534 356.341 925.371 355.601 924.794 355.025C924.318 354.548 923.741 354.423 923.064 354.649C922.387 354.824 921.623 355.213 920.77 355.815C919.918 356.416 918.99 357.093 917.987 357.845C917.009 358.573 915.981 359.275 914.903 359.952C913.8 360.603 912.672 361.08 911.518 361.381C910.365 361.682 909.199 361.694 908.02 361.418C906.867 361.117 905.714 360.39 904.56 359.237C903.282 357.958 902.517 356.466 902.266 354.761C902.04 353.031 902.354 351.188 903.206 349.233C904.034 347.252 905.425 345.284 907.381 343.328C908.76 341.949 910.315 340.695 912.045 339.567C913.775 338.439 915.404 337.687 916.934 337.31L919.153 343.441C917.598 343.842 916.219 344.444 915.016 345.246C913.812 345.998 912.747 346.838 911.819 347.766C910.515 349.07 909.738 350.198 909.487 351.151C909.236 352.104 909.387 352.856 909.939 353.407C910.44 353.909 911.029 354.072 911.706 353.896C912.408 353.696 913.198 353.307 914.076 352.73C914.953 352.154 915.881 351.502 916.859 350.775C917.837 349.998 918.877 349.283 919.98 348.631C921.084 347.979 922.199 347.515 923.328 347.239C924.456 346.913 925.609 346.888 926.788 347.164C927.941 347.415 929.095 348.117 930.248 349.27C931.502 350.524 932.241 352.016 932.467 353.746C932.667 355.451 932.329 357.294 931.451 359.275C930.599 361.23 929.157 363.224 927.126 365.255ZM950.341 342.04C948.034 344.347 945.552 345.926 942.894 346.779C940.261 347.606 937.691 347.719 935.184 347.117C932.652 346.49 930.383 345.174 928.377 343.168C926.346 341.137 925.017 338.881 924.39 336.398C923.763 333.866 923.826 331.346 924.578 328.839C925.305 326.306 926.697 324.012 928.753 321.956C930.734 319.975 932.94 318.621 935.372 317.894C937.804 317.117 940.274 317.054 942.781 317.706C945.264 318.333 947.595 319.737 949.777 321.919C950.002 322.144 950.253 322.42 950.529 322.746C950.78 323.047 951.018 323.335 951.244 323.611L934.808 340.047L931.386 336.624L944.737 323.273L943.496 326.545C942.443 325.492 941.315 324.789 940.111 324.438C938.908 324.087 937.717 324.075 936.538 324.401C935.335 324.702 934.231 325.354 933.228 326.357C932.226 327.359 931.561 328.475 931.235 329.704C930.909 330.882 930.934 332.086 931.31 333.314C931.661 334.518 932.376 335.659 933.454 336.737L934.357 337.64C935.46 338.743 936.676 339.482 938.005 339.859C939.334 340.184 940.663 340.134 941.992 339.708C943.32 339.232 944.587 338.392 945.79 337.188C946.868 336.11 947.646 335.007 948.122 333.879C948.623 332.725 948.887 331.484 948.912 330.155L955.418 330.418C955.544 332.399 955.193 334.38 954.365 336.361C953.513 338.316 952.171 340.21 950.341 342.04Z" fill="#FB6233"/>
<path d="M96.3171 448.315C96.3171 450.832 95.7852 452.995 94.7215 454.804C93.6577 456.612 92.0443 457.995 89.8813 458.952C87.6829 459.91 84.9171 460.388 81.5839 460.388C78.2153 460.388 75.4495 459.892 73.2865 458.899C71.1235 457.871 69.5101 456.452 68.4464 454.644C67.3826 452.836 66.8507 450.726 66.8507 448.315C66.8507 445.62 67.4535 443.209 68.6591 441.081C69.8647 438.918 71.5668 437.216 73.7652 435.975C75.9637 434.698 78.5699 434.06 81.5839 434.06C84.5625 434.06 87.151 434.698 89.3494 435.975C91.5479 437.216 93.2676 438.918 94.5087 441.081C95.7143 443.209 96.3171 445.62 96.3171 448.315ZM95.8916 465.229H56.4258V456.931H73.0738L81.5307 457.463L90.0409 457.303H95.8916V465.229ZM89.509 449.751C89.509 448.368 89.1899 447.144 88.5516 446.081C87.9133 444.981 87.0091 444.113 85.839 443.474C84.6334 442.801 83.215 442.464 81.5839 442.464C79.9173 442.464 78.499 442.801 77.3288 443.474C76.1587 444.113 75.2545 444.981 74.6162 446.081C73.978 447.144 73.6588 448.368 73.6588 449.751C73.6588 451.134 73.978 452.375 74.6162 453.474C75.2545 454.573 76.1587 455.442 77.3288 456.08C78.499 456.718 79.9173 457.038 81.5839 457.038C83.215 457.038 84.6334 456.718 85.839 456.08C87.0091 455.442 87.9133 454.573 88.5516 453.474C89.1899 452.375 89.509 451.134 89.509 449.751ZM96.3171 416.432C96.3171 418.808 95.8561 420.935 94.9342 422.815C94.0123 424.658 92.6116 426.094 90.7323 427.123C88.8175 428.151 86.3886 428.665 83.4455 428.665H67.2762V420.368H82.2222C84.5979 420.368 86.3531 419.871 87.4878 418.879C88.5871 417.85 89.1367 416.414 89.1367 414.57C89.1367 413.294 88.8707 412.159 88.3388 411.166C87.7715 410.173 86.9205 409.393 85.7858 408.826C84.6157 408.259 83.1618 407.975 81.4243 407.975H67.2762V399.678H95.8916V407.549H88.0197L90.3068 406.113C92.2925 407.071 93.7995 408.489 94.8278 410.368C95.8207 412.212 96.3171 414.233 96.3171 416.432ZM95.8916 391.991H67.2762V383.693H95.8916V391.991ZM63.2871 387.842C63.2871 389.367 62.8439 390.608 61.9574 391.565C61.0709 392.522 59.9717 393.001 58.6597 393.001C57.3477 393.001 56.2485 392.522 55.362 391.565C54.4755 390.608 54.0323 389.367 54.0323 387.842C54.0323 386.317 54.4578 385.076 55.3088 384.119C56.1244 383.161 57.1882 382.683 58.5001 382.683C59.883 382.683 61.0354 383.161 61.9574 384.119C62.8439 385.041 63.2871 386.282 63.2871 387.842ZM95.8916 375.992H56.4258V367.695H95.8916V375.992ZM96.3171 347.708C96.3171 350.403 95.7143 352.832 94.5087 354.995C93.2676 357.158 91.5479 358.877 89.3494 360.154C87.151 361.395 84.5625 362.016 81.5839 362.016C78.5699 362.016 75.9637 361.395 73.7652 360.154C71.5668 358.877 69.8647 357.158 68.6591 354.995C67.4535 352.832 66.8507 350.403 66.8507 347.708C66.8507 345.297 67.3826 343.187 68.4464 341.378C69.5101 339.57 71.1235 338.169 73.2865 337.177C75.4495 336.184 78.2153 335.687 81.5839 335.687C84.9171 335.687 87.6829 336.166 89.8813 337.123C92.0443 338.081 93.6577 339.464 94.7215 341.272C95.7852 343.045 96.3171 345.19 96.3171 347.708ZM89.509 346.272C89.509 344.924 89.1899 343.701 88.5516 342.602C87.9133 341.503 87.0091 340.634 85.839 339.996C84.6334 339.322 83.215 338.985 81.5839 338.985C79.9173 338.985 78.499 339.322 77.3288 339.996C76.1587 340.634 75.2545 341.503 74.6162 342.602C73.978 343.701 73.6588 344.924 73.6588 346.272C73.6588 347.655 73.978 348.896 74.6162 349.995C75.2545 351.094 76.1587 351.981 77.3288 352.654C78.499 353.293 79.9173 353.612 81.5839 353.612C83.215 353.612 84.6334 353.293 85.839 352.654C87.0091 351.981 87.9133 351.094 88.5516 349.995C89.1899 348.896 89.509 347.655 89.509 346.272ZM95.8916 338.772H90.0409L81.5307 338.613L73.0738 339.145H56.4258V330.847H95.8916V338.772Z" fill="#FFD633"/>
</svg>
