<svg width="3324" height="1631" viewBox="0 0 3324 1631" fill="none" xmlns="http://www.w3.org/2000/svg">
<rect width="3323.86" height="1631" rx="5" fill="#F1CBA2"/>
<rect width="3323.86" height="1631" rx="5" fill="white" fill-opacity="0.8"/>
<path d="M64 1459H447V1562C447 1564.76 444.761 1567 442 1567H69C66.2386 1567 64 1564.76 64 1562V1459Z" fill="#FB6233"/>
<path d="M99.5559 1526V1500.8H110.572C113.308 1500.8 115.708 1501.33 117.772 1502.38C119.836 1503.44 121.444 1504.9 122.596 1506.78C123.748 1508.65 124.324 1510.86 124.324 1513.4C124.324 1515.92 123.748 1518.13 122.596 1520.02C121.444 1521.9 119.836 1523.36 117.772 1524.42C115.708 1525.47 113.308 1526 110.572 1526H99.5559ZM104.236 1522.04H110.356C112.252 1522.04 113.884 1521.68 115.252 1520.96C116.644 1520.24 117.712 1519.23 118.456 1517.94C119.224 1516.64 119.608 1515.13 119.608 1513.4C119.608 1511.65 119.224 1510.14 118.456 1508.86C117.712 1507.57 116.644 1506.56 115.252 1505.84C113.884 1505.12 112.252 1504.76 110.356 1504.76H104.236V1522.04ZM141.106 1526.36C139.138 1526.36 137.326 1526.04 135.67 1525.39C134.014 1524.74 132.574 1523.84 131.35 1522.69C130.126 1521.51 129.178 1520.14 128.506 1518.58C127.834 1517 127.498 1515.27 127.498 1513.4C127.498 1511.53 127.834 1509.81 128.506 1508.25C129.178 1506.67 130.126 1505.3 131.35 1504.15C132.574 1502.97 134.014 1502.06 135.67 1501.41C137.326 1500.76 139.126 1500.44 141.07 1500.44C143.038 1500.44 144.838 1500.76 146.47 1501.41C148.126 1502.06 149.566 1502.97 150.79 1504.15C152.014 1505.3 152.962 1506.67 153.634 1508.25C154.306 1509.81 154.642 1511.53 154.642 1513.4C154.642 1515.27 154.306 1517 153.634 1518.58C152.962 1520.17 152.014 1521.54 150.79 1522.69C149.566 1523.84 148.126 1524.74 146.47 1525.39C144.838 1526.04 143.05 1526.36 141.106 1526.36ZM141.07 1522.26C142.342 1522.26 143.518 1522.04 144.598 1521.61C145.678 1521.18 146.614 1520.56 147.406 1519.77C148.198 1518.96 148.81 1518.02 149.242 1516.96C149.698 1515.88 149.926 1514.7 149.926 1513.4C149.926 1512.1 149.698 1510.93 149.242 1509.87C148.81 1508.79 148.198 1507.86 147.406 1507.06C146.614 1506.25 145.678 1505.62 144.598 1505.19C143.518 1504.76 142.342 1504.54 141.07 1504.54C139.798 1504.54 138.622 1504.76 137.542 1505.19C136.486 1505.62 135.55 1506.25 134.734 1507.06C133.942 1507.86 133.318 1508.79 132.862 1509.87C132.43 1510.93 132.214 1512.1 132.214 1513.4C132.214 1514.67 132.43 1515.85 132.862 1516.93C133.318 1518.01 133.942 1518.96 134.734 1519.77C135.526 1520.56 136.462 1521.18 137.542 1521.61C138.622 1522.04 139.798 1522.26 141.07 1522.26ZM171.267 1526.36C169.347 1526.36 167.559 1526.05 165.903 1525.42C164.271 1524.78 162.843 1523.88 161.619 1522.72C160.419 1521.55 159.483 1520.17 158.811 1518.58C158.139 1517 157.803 1515.27 157.803 1513.4C157.803 1511.53 158.139 1509.8 158.811 1508.22C159.483 1506.63 160.431 1505.26 161.655 1504.11C162.879 1502.94 164.307 1502.04 165.939 1501.41C167.571 1500.76 169.359 1500.44 171.303 1500.44C173.367 1500.44 175.251 1500.8 176.955 1501.52C178.659 1502.22 180.099 1503.26 181.275 1504.65L178.251 1507.5C177.339 1506.51 176.319 1505.78 175.191 1505.3C174.063 1504.8 172.839 1504.54 171.519 1504.54C170.199 1504.54 168.987 1504.76 167.883 1505.19C166.803 1505.62 165.855 1506.24 165.039 1507.03C164.247 1507.82 163.623 1508.76 163.167 1509.84C162.735 1510.92 162.519 1512.1 162.519 1513.4C162.519 1514.7 162.735 1515.88 163.167 1516.96C163.623 1518.04 164.247 1518.98 165.039 1519.77C165.855 1520.56 166.803 1521.18 167.883 1521.61C168.987 1522.04 170.199 1522.26 171.519 1522.26C172.839 1522.26 174.063 1522.02 175.191 1521.54C176.319 1521.03 177.339 1520.28 178.251 1519.27L181.275 1522.15C180.099 1523.52 178.659 1524.56 176.955 1525.28C175.251 1526 173.355 1526.36 171.267 1526.36ZM189.935 1520.06L189.683 1514.52L202.895 1500.8H208.151L197.171 1512.46L194.579 1515.31L189.935 1520.06ZM185.759 1526V1500.8H190.439V1526H185.759ZM203.327 1526L193.679 1514.52L196.775 1511.1L208.799 1526H203.327ZM216.306 1511.28H228.834V1515.13H216.306V1511.28ZM216.666 1522.08H230.886V1526H211.986V1500.8H230.382V1504.72H216.666V1522.08ZM236.103 1526V1500.8H246.471C248.703 1500.8 250.611 1501.16 252.195 1501.88C253.803 1502.6 255.039 1503.63 255.903 1504.98C256.767 1506.32 257.199 1507.92 257.199 1509.76C257.199 1511.61 256.767 1513.21 255.903 1514.55C255.039 1515.87 253.803 1516.89 252.195 1517.61C250.611 1518.31 248.703 1518.66 246.471 1518.66H238.695L240.783 1516.53V1526H236.103ZM252.591 1526L246.219 1516.86H251.223L257.631 1526H252.591ZM240.783 1517.04L238.695 1514.8H246.255C248.319 1514.8 249.867 1514.36 250.899 1513.47C251.955 1512.58 252.483 1511.35 252.483 1509.76C252.483 1508.16 251.955 1506.92 250.899 1506.06C249.867 1505.19 248.319 1504.76 246.255 1504.76H238.695L240.783 1502.46V1517.04ZM276.704 1511.28H289.232V1515.13H276.704V1511.28ZM277.064 1522.08H291.284V1526H272.384V1500.8H290.78V1504.72H277.064V1522.08ZM296.501 1526V1500.8H300.353L316.157 1520.2H314.249V1500.8H318.893V1526H315.041L299.237 1506.6H301.145V1526H296.501ZM337.418 1526.36C335.45 1526.36 333.638 1526.05 331.982 1525.42C330.35 1524.78 328.922 1523.88 327.698 1522.72C326.474 1521.55 325.526 1520.17 324.854 1518.58C324.182 1517 323.846 1515.27 323.846 1513.4C323.846 1511.53 324.182 1509.8 324.854 1508.22C325.526 1506.63 326.474 1505.26 327.698 1504.11C328.946 1502.94 330.398 1502.04 332.054 1501.41C333.71 1500.76 335.522 1500.44 337.49 1500.44C339.626 1500.44 341.546 1500.79 343.25 1501.48C344.978 1502.18 346.43 1503.2 347.606 1504.54L344.654 1507.42C343.67 1506.44 342.602 1505.72 341.45 1505.26C340.322 1504.78 339.074 1504.54 337.706 1504.54C336.386 1504.54 335.162 1504.76 334.034 1505.19C332.906 1505.62 331.934 1506.24 331.118 1507.03C330.302 1507.82 329.666 1508.76 329.21 1509.84C328.778 1510.92 328.562 1512.1 328.562 1513.4C328.562 1514.67 328.778 1515.85 329.21 1516.93C329.666 1518.01 330.302 1518.96 331.118 1519.77C331.934 1520.56 332.894 1521.18 333.998 1521.61C335.102 1522.04 336.326 1522.26 337.67 1522.26C338.918 1522.26 340.118 1522.06 341.27 1521.68C342.446 1521.27 343.562 1520.6 344.618 1519.66L347.282 1523.16C345.962 1524.21 344.426 1525.02 342.674 1525.57C340.946 1526.1 339.194 1526.36 337.418 1526.36ZM342.854 1522.54V1513.11H347.282V1523.16L342.854 1522.54ZM353.454 1526V1500.8H358.134V1526H353.454ZM364.95 1526V1500.8H368.802L384.606 1520.2H382.698V1500.8H387.342V1526H383.49L367.686 1506.6H369.594V1526H364.95ZM398.415 1511.28H410.943V1515.13H398.415V1511.28ZM398.775 1522.08H412.995V1526H394.095V1500.8H412.491V1504.72H398.775V1522.08Z" fill="#F8F8F8"/>
<path d="M64 1086C64 1081.29 64 1078.93 65.4645 1077.46C66.9289 1076 69.286 1076 74 1076H437C441.714 1076 444.071 1076 445.536 1077.46C447 1078.93 447 1081.29 447 1086V1459H64V1086Z" fill="#F1CBA2"/>
<path d="M371.974 1236.05C370.308 1223.93 363.644 1213.41 351.619 1203.91L344.666 1199.19L340.03 1206.23C334.09 1215.3 331.12 1227.93 332.062 1240.04C332.497 1244.25 333.873 1251.94 338.147 1258.55C333.873 1260.94 325.398 1264.13 314.098 1263.92H98.2423L97.8077 1266.46C95.7795 1278.57 95.7795 1316.52 120.045 1345.62C138.516 1367.75 166.114 1379 202.186 1379C280.416 1379 338.219 1342.5 365.382 1276.03C376.03 1276.25 398.992 1276.11 410.799 1253.25C411.089 1252.74 411.813 1251.36 413.841 1247.01L415 1244.61L408.408 1240.12C401.165 1235.4 384.722 1233.59 371.974 1236.05ZM270.855 1155H238.042V1185.26H270.855V1155ZM270.855 1191.35H238.042V1221.61H270.855V1191.35ZM232.03 1191.35H199.217V1221.61H232.03V1191.35ZM193.277 1191.35H160.464V1221.61H193.277V1191.35ZM154.452 1227.71H121.639V1257.97H154.452V1227.71ZM193.277 1227.71H160.464V1257.97H193.277V1227.71ZM232.03 1227.71H199.217V1257.97H232.03V1227.71ZM270.855 1227.71H238.042V1257.97H270.855V1227.71ZM309.68 1227.71H276.867V1257.97H309.68V1227.71Z" fill="#1D63ED"/>
<path d="M934.732 1280.74L977.084 1316.66C979.386 1318.61 979.446 1322.15 977.21 1324.18L934.767 1362.7C933.847 1363.54 932.649 1364 931.406 1364H516C513.239 1364 511 1361.76 511 1359V1283.74C511 1280.98 513.245 1278.74 516.01 1278.74L931.508 1279.55C932.689 1279.56 933.831 1279.98 934.732 1280.74Z" fill="#FB6233"/>
<path d="M544.242 1332.73V1310.33H554.034C556.466 1310.33 558.6 1310.8 560.434 1311.74C562.269 1312.68 563.698 1313.98 564.722 1315.65C565.746 1317.31 566.258 1319.27 566.258 1321.53C566.258 1323.77 565.746 1325.74 564.722 1327.42C563.698 1329.09 562.269 1330.39 560.434 1331.33C558.6 1332.27 556.466 1332.73 554.034 1332.73H544.242ZM548.402 1329.21H553.842C555.528 1329.21 556.978 1328.89 558.194 1328.25C559.432 1327.61 560.381 1326.72 561.042 1325.57C561.725 1324.41 562.066 1323.07 562.066 1321.53C562.066 1319.98 561.725 1318.63 561.042 1317.5C560.381 1316.35 559.432 1315.45 558.194 1314.81C556.978 1314.17 555.528 1313.85 553.842 1313.85H548.402V1329.21ZM581.176 1333.05C579.427 1333.05 577.816 1332.77 576.344 1332.19C574.872 1331.61 573.592 1330.81 572.504 1329.79C571.416 1328.75 570.573 1327.53 569.976 1326.14C569.379 1324.73 569.08 1323.2 569.08 1321.53C569.08 1319.87 569.379 1318.35 569.976 1316.96C570.573 1315.55 571.416 1314.33 572.504 1313.31C573.592 1312.27 574.872 1311.45 576.344 1310.88C577.816 1310.3 579.416 1310.01 581.144 1310.01C582.893 1310.01 584.493 1310.3 585.944 1310.88C587.416 1311.45 588.696 1312.27 589.784 1313.31C590.872 1314.33 591.715 1315.55 592.312 1316.96C592.909 1318.35 593.208 1319.87 593.208 1321.53C593.208 1323.2 592.909 1324.73 592.312 1326.14C591.715 1327.55 590.872 1328.77 589.784 1329.79C588.696 1330.81 587.416 1331.61 585.944 1332.19C584.493 1332.77 582.904 1333.05 581.176 1333.05ZM581.144 1329.41C582.275 1329.41 583.32 1329.21 584.28 1328.83C585.24 1328.45 586.072 1327.9 586.776 1327.2C587.48 1326.47 588.024 1325.64 588.408 1324.7C588.813 1323.74 589.016 1322.69 589.016 1321.53C589.016 1320.38 588.813 1319.34 588.408 1318.4C588.024 1317.44 587.48 1316.61 586.776 1315.9C586.072 1315.18 585.24 1314.62 584.28 1314.24C583.32 1313.85 582.275 1313.66 581.144 1313.66C580.013 1313.66 578.968 1313.85 578.008 1314.24C577.069 1314.62 576.237 1315.18 575.512 1315.9C574.808 1316.61 574.253 1317.44 573.848 1318.4C573.464 1319.34 573.272 1320.38 573.272 1321.53C573.272 1322.67 573.464 1323.71 573.848 1324.67C574.253 1325.63 574.808 1326.47 575.512 1327.2C576.216 1327.9 577.048 1328.45 578.008 1328.83C578.968 1329.21 580.013 1329.41 581.144 1329.41ZM607.985 1333.05C606.279 1333.05 604.689 1332.78 603.217 1332.22C601.767 1331.65 600.497 1330.85 599.409 1329.82C598.343 1328.78 597.511 1327.55 596.913 1326.14C596.316 1324.73 596.017 1323.2 596.017 1321.53C596.017 1319.87 596.316 1318.33 596.913 1316.93C597.511 1315.52 598.353 1314.3 599.441 1313.28C600.529 1312.23 601.799 1311.43 603.249 1310.88C604.7 1310.3 606.289 1310.01 608.017 1310.01C609.852 1310.01 611.527 1310.33 613.041 1310.97C614.556 1311.59 615.836 1312.52 616.881 1313.76L614.193 1316.29C613.383 1315.41 612.476 1314.76 611.473 1314.33C610.471 1313.89 609.383 1313.66 608.209 1313.66C607.036 1313.66 605.959 1313.85 604.977 1314.24C604.017 1314.62 603.175 1315.17 602.449 1315.87C601.745 1316.57 601.191 1317.41 600.785 1318.37C600.401 1319.33 600.209 1320.38 600.209 1321.53C600.209 1322.69 600.401 1323.74 600.785 1324.7C601.191 1325.66 601.745 1326.49 602.449 1327.2C603.175 1327.9 604.017 1328.45 604.977 1328.83C605.959 1329.21 607.036 1329.41 608.209 1329.41C609.383 1329.41 610.471 1329.19 611.473 1328.77C612.476 1328.32 613.383 1327.65 614.193 1326.75L616.881 1329.31C615.836 1330.53 614.556 1331.45 613.041 1332.09C611.527 1332.73 609.841 1333.05 607.985 1333.05ZM624.579 1327.45L624.355 1322.53L636.099 1310.33H640.771L631.011 1320.7L628.707 1323.23L624.579 1327.45ZM620.867 1332.73V1310.33H625.027V1332.73H620.867ZM636.483 1332.73L627.907 1322.53L630.659 1319.49L641.347 1332.73H636.483ZM648.02 1319.65H659.156V1323.07H648.02V1319.65ZM648.34 1329.25H660.98V1332.73H644.18V1310.33H660.532V1313.82H648.34V1329.25ZM665.617 1332.73V1310.33H674.833C676.817 1310.33 678.513 1310.65 679.921 1311.29C681.351 1311.93 682.449 1312.85 683.217 1314.05C683.985 1315.24 684.369 1316.66 684.369 1318.3C684.369 1319.95 683.985 1321.36 683.217 1322.56C682.449 1323.73 681.351 1324.64 679.921 1325.28C678.513 1325.9 676.817 1326.21 674.833 1326.21H667.921L669.777 1324.32V1332.73H665.617ZM680.273 1332.73L674.609 1324.61H679.057L684.753 1332.73H680.273ZM669.777 1324.77L667.921 1322.78H674.641C676.476 1322.78 677.852 1322.39 678.769 1321.6C679.708 1320.81 680.177 1319.71 680.177 1318.3C680.177 1316.87 679.708 1315.77 678.769 1315.01C677.852 1314.24 676.476 1313.85 674.641 1313.85H667.921L669.777 1311.81V1324.77ZM704.811 1333.05C703.062 1333.05 701.387 1332.81 699.787 1332.32C698.187 1331.81 696.918 1331.16 695.979 1330.37L697.419 1327.13C698.315 1327.84 699.425 1328.43 700.747 1328.89C702.07 1329.36 703.425 1329.6 704.811 1329.6C705.985 1329.6 706.934 1329.47 707.659 1329.21C708.385 1328.96 708.918 1328.62 709.259 1328.19C709.601 1327.74 709.771 1327.24 709.771 1326.69C709.771 1326 709.526 1325.46 709.035 1325.05C708.545 1324.63 707.905 1324.3 707.115 1324.06C706.347 1323.81 705.483 1323.57 704.523 1323.36C703.585 1323.15 702.635 1322.9 701.675 1322.62C700.737 1322.32 699.873 1321.95 699.083 1321.5C698.315 1321.03 697.686 1320.41 697.195 1319.65C696.705 1318.88 696.459 1317.9 696.459 1316.7C696.459 1315.49 696.779 1314.38 697.419 1313.37C698.081 1312.35 699.073 1311.54 700.395 1310.94C701.739 1310.32 703.435 1310.01 705.483 1310.01C706.827 1310.01 708.161 1310.19 709.483 1310.53C710.806 1310.87 711.958 1311.36 712.939 1312L711.627 1315.23C710.625 1314.63 709.59 1314.2 708.523 1313.92C707.457 1313.62 706.433 1313.47 705.451 1313.47C704.299 1313.47 703.361 1313.61 702.635 1313.89C701.931 1314.16 701.409 1314.53 701.067 1314.97C700.747 1315.42 700.587 1315.93 700.587 1316.51C700.587 1317.19 700.822 1317.75 701.291 1318.17C701.782 1318.58 702.411 1318.9 703.179 1319.13C703.969 1319.37 704.843 1319.6 705.803 1319.84C706.763 1320.05 707.713 1320.3 708.651 1320.57C709.611 1320.85 710.475 1321.21 711.243 1321.66C712.033 1322.11 712.662 1322.72 713.131 1323.49C713.622 1324.25 713.867 1325.23 713.867 1326.4C713.867 1327.59 713.537 1328.7 712.875 1329.73C712.235 1330.73 711.243 1331.54 709.899 1332.16C708.555 1332.76 706.859 1333.05 704.811 1333.05ZM723.272 1332.73L715.848 1310.33H720.168L726.792 1330.59H724.648L731.528 1310.33H735.368L742.056 1330.59H739.976L746.76 1310.33H750.728L743.304 1332.73H738.888L732.776 1314.46H733.928L727.72 1332.73H723.272ZM750.231 1332.73L760.311 1310.33H764.407L774.519 1332.73H770.167L761.495 1312.54H763.159L754.519 1332.73H750.231ZM754.871 1327.55L755.991 1324.29H768.087L769.207 1327.55H754.871ZM777.367 1332.73V1310.33H786.583C788.567 1310.33 790.263 1310.65 791.671 1311.29C793.101 1311.93 794.199 1312.85 794.967 1314.05C795.735 1315.24 796.119 1316.66 796.119 1318.3C796.119 1319.95 795.735 1321.36 794.967 1322.56C794.199 1323.73 793.101 1324.64 791.671 1325.28C790.263 1325.9 788.567 1326.21 786.583 1326.21H779.671L781.527 1324.32V1332.73H777.367ZM792.023 1332.73L786.359 1324.61H790.807L796.503 1332.73H792.023ZM781.527 1324.77L779.671 1322.78H786.391C788.226 1322.78 789.602 1322.39 790.519 1321.6C791.458 1320.81 791.927 1319.71 791.927 1318.3C791.927 1316.87 791.458 1315.77 790.519 1315.01C789.602 1314.24 788.226 1313.85 786.391 1313.85H779.671L781.527 1311.81V1324.77ZM800.774 1332.73V1310.33H804.198L813.99 1326.69H812.198L821.83 1310.33H825.254L825.286 1332.73H821.35L821.318 1316.51H822.15L813.958 1330.17H812.102L803.782 1316.51H804.742V1332.73H800.774ZM840.18 1332.73V1310.33H844.34V1332.73H840.18ZM850.399 1332.73V1310.33H853.823L867.871 1327.58H866.175V1310.33H870.303V1332.73H866.879L852.831 1315.49H854.527V1332.73H850.399ZM876.305 1332.73V1310.33H880.465V1332.73H876.305ZM891.068 1332.73V1313.85H883.644V1310.33H902.652V1313.85H895.228V1332.73H891.068Z" fill="#F8F8F8"/>
<path d="M1045.43 1459H1428.43V1562C1428.43 1564.76 1426.19 1567 1423.43 1567H1050.43C1047.67 1567 1045.43 1564.76 1045.43 1562V1459Z" fill="#FB6233"/>
<path d="M1080.99 1526V1500.8H1092C1094.74 1500.8 1097.14 1501.33 1099.2 1502.38C1101.27 1503.44 1102.87 1504.9 1104.03 1506.78C1105.18 1508.65 1105.75 1510.86 1105.75 1513.4C1105.75 1515.92 1105.18 1518.13 1104.03 1520.02C1102.87 1521.9 1101.27 1523.36 1099.2 1524.42C1097.14 1525.47 1094.74 1526 1092 1526H1080.99ZM1085.67 1522.04H1091.79C1093.68 1522.04 1095.31 1521.68 1096.68 1520.96C1098.07 1520.24 1099.14 1519.23 1099.89 1517.94C1100.65 1516.64 1101.04 1515.13 1101.04 1513.4C1101.04 1511.65 1100.65 1510.14 1099.89 1508.86C1099.14 1507.57 1098.07 1506.56 1096.68 1505.84C1095.31 1505.12 1093.68 1504.76 1091.79 1504.76H1085.67V1522.04ZM1122.54 1526.36C1120.57 1526.36 1118.76 1526.04 1117.1 1525.39C1115.44 1524.74 1114 1523.84 1112.78 1522.69C1111.56 1521.51 1110.61 1520.14 1109.94 1518.58C1109.26 1517 1108.93 1515.27 1108.93 1513.4C1108.93 1511.53 1109.26 1509.81 1109.94 1508.25C1110.61 1506.67 1111.56 1505.3 1112.78 1504.15C1114 1502.97 1115.44 1502.06 1117.1 1501.41C1118.76 1500.76 1120.56 1500.44 1122.5 1500.44C1124.47 1500.44 1126.27 1500.76 1127.9 1501.41C1129.56 1502.06 1131 1502.97 1132.22 1504.15C1133.44 1505.3 1134.39 1506.67 1135.06 1508.25C1135.74 1509.81 1136.07 1511.53 1136.07 1513.4C1136.07 1515.27 1135.74 1517 1135.06 1518.58C1134.39 1520.17 1133.44 1521.54 1132.22 1522.69C1131 1523.84 1129.56 1524.74 1127.9 1525.39C1126.27 1526.04 1124.48 1526.36 1122.54 1526.36ZM1122.5 1522.26C1123.77 1522.26 1124.95 1522.04 1126.03 1521.61C1127.11 1521.18 1128.04 1520.56 1128.84 1519.77C1129.63 1518.96 1130.24 1518.02 1130.67 1516.96C1131.13 1515.88 1131.36 1514.7 1131.36 1513.4C1131.36 1512.1 1131.13 1510.93 1130.67 1509.87C1130.24 1508.79 1129.63 1507.86 1128.84 1507.06C1128.04 1506.25 1127.11 1505.62 1126.03 1505.19C1124.95 1504.76 1123.77 1504.54 1122.5 1504.54C1121.23 1504.54 1120.05 1504.76 1118.97 1505.19C1117.92 1505.62 1116.98 1506.25 1116.16 1507.06C1115.37 1507.86 1114.75 1508.79 1114.29 1509.87C1113.86 1510.93 1113.64 1512.1 1113.64 1513.4C1113.64 1514.67 1113.86 1515.85 1114.29 1516.93C1114.75 1518.01 1115.37 1518.96 1116.16 1519.77C1116.96 1520.56 1117.89 1521.18 1118.97 1521.61C1120.05 1522.04 1121.23 1522.26 1122.5 1522.26ZM1152.7 1526.36C1150.78 1526.36 1148.99 1526.05 1147.33 1525.42C1145.7 1524.78 1144.27 1523.88 1143.05 1522.72C1141.85 1521.55 1140.91 1520.17 1140.24 1518.58C1139.57 1517 1139.23 1515.27 1139.23 1513.4C1139.23 1511.53 1139.57 1509.8 1140.24 1508.22C1140.91 1506.63 1141.86 1505.26 1143.08 1504.11C1144.31 1502.94 1145.74 1502.04 1147.37 1501.41C1149 1500.76 1150.79 1500.44 1152.73 1500.44C1154.8 1500.44 1156.68 1500.8 1158.38 1501.52C1160.09 1502.22 1161.53 1503.26 1162.7 1504.65L1159.68 1507.5C1158.77 1506.51 1157.75 1505.78 1156.62 1505.3C1155.49 1504.8 1154.27 1504.54 1152.95 1504.54C1151.63 1504.54 1150.42 1504.76 1149.31 1505.19C1148.23 1505.62 1147.28 1506.24 1146.47 1507.03C1145.68 1507.82 1145.05 1508.76 1144.6 1509.84C1144.16 1510.92 1143.95 1512.1 1143.95 1513.4C1143.95 1514.7 1144.16 1515.88 1144.6 1516.96C1145.05 1518.04 1145.68 1518.98 1146.47 1519.77C1147.28 1520.56 1148.23 1521.18 1149.31 1521.61C1150.42 1522.04 1151.63 1522.26 1152.95 1522.26C1154.27 1522.26 1155.49 1522.02 1156.62 1521.54C1157.75 1521.03 1158.77 1520.28 1159.68 1519.27L1162.7 1522.15C1161.53 1523.52 1160.09 1524.56 1158.38 1525.28C1156.68 1526 1154.78 1526.36 1152.7 1526.36ZM1171.36 1520.06L1171.11 1514.52L1184.32 1500.8H1189.58L1178.6 1512.46L1176.01 1515.31L1171.36 1520.06ZM1167.19 1526V1500.8H1171.87V1526H1167.19ZM1184.76 1526L1175.11 1514.52L1178.2 1511.1L1190.23 1526H1184.76ZM1197.74 1511.28H1210.26V1515.13H1197.74V1511.28ZM1198.1 1522.08H1212.32V1526H1193.42V1500.8H1211.81V1504.72H1198.1V1522.08ZM1217.53 1526V1500.8H1227.9C1230.13 1500.8 1232.04 1501.16 1233.62 1501.88C1235.23 1502.6 1236.47 1503.63 1237.33 1504.98C1238.2 1506.32 1238.63 1507.92 1238.63 1509.76C1238.63 1511.61 1238.2 1513.21 1237.33 1514.55C1236.47 1515.87 1235.23 1516.89 1233.62 1517.61C1232.04 1518.31 1230.13 1518.66 1227.9 1518.66H1220.12L1222.21 1516.53V1526H1217.53ZM1234.02 1526L1227.65 1516.86H1232.65L1239.06 1526H1234.02ZM1222.21 1517.04L1220.12 1514.8H1227.68C1229.75 1514.8 1231.3 1514.36 1232.33 1513.47C1233.38 1512.58 1233.91 1511.35 1233.91 1509.76C1233.91 1508.16 1233.38 1506.92 1232.33 1506.06C1231.3 1505.19 1229.75 1504.76 1227.68 1504.76H1220.12L1222.21 1502.46V1517.04ZM1258.13 1511.28H1270.66V1515.13H1258.13V1511.28ZM1258.49 1522.08H1272.71V1526H1253.81V1500.8H1272.21V1504.72H1258.49V1522.08ZM1277.93 1526V1500.8H1281.78L1297.59 1520.2H1295.68V1500.8H1300.32V1526H1296.47L1280.67 1506.6H1282.57V1526H1277.93ZM1318.85 1526.36C1316.88 1526.36 1315.07 1526.05 1313.41 1525.42C1311.78 1524.78 1310.35 1523.88 1309.13 1522.72C1307.9 1521.55 1306.96 1520.17 1306.28 1518.58C1305.61 1517 1305.28 1515.27 1305.28 1513.4C1305.28 1511.53 1305.61 1509.8 1306.28 1508.22C1306.96 1506.63 1307.9 1505.26 1309.13 1504.11C1310.38 1502.94 1311.83 1502.04 1313.48 1501.41C1315.14 1500.76 1316.95 1500.44 1318.92 1500.44C1321.06 1500.44 1322.98 1500.79 1324.68 1501.48C1326.41 1502.18 1327.86 1503.2 1329.04 1504.54L1326.08 1507.42C1325.1 1506.44 1324.03 1505.72 1322.88 1505.26C1321.75 1504.78 1320.5 1504.54 1319.14 1504.54C1317.82 1504.54 1316.59 1504.76 1315.46 1505.19C1314.34 1505.62 1313.36 1506.24 1312.55 1507.03C1311.73 1507.82 1311.1 1508.76 1310.64 1509.84C1310.21 1510.92 1309.99 1512.1 1309.99 1513.4C1309.99 1514.67 1310.21 1515.85 1310.64 1516.93C1311.1 1518.01 1311.73 1518.96 1312.55 1519.77C1313.36 1520.56 1314.32 1521.18 1315.43 1521.61C1316.53 1522.04 1317.76 1522.26 1319.1 1522.26C1320.35 1522.26 1321.55 1522.06 1322.7 1521.68C1323.88 1521.27 1324.99 1520.6 1326.05 1519.66L1328.71 1523.16C1327.39 1524.21 1325.86 1525.02 1324.1 1525.57C1322.38 1526.1 1320.62 1526.36 1318.85 1526.36ZM1324.28 1522.54V1513.11H1328.71V1523.16L1324.28 1522.54ZM1334.88 1526V1500.8H1339.56V1526H1334.88ZM1346.38 1526V1500.8H1350.23L1366.04 1520.2H1364.13V1500.8H1368.77V1526H1364.92L1349.12 1506.6H1351.02V1526H1346.38ZM1379.84 1511.28H1392.37V1515.13H1379.84V1511.28ZM1380.2 1522.08H1394.42V1526H1375.52V1500.8H1393.92V1504.72H1380.2V1522.08Z" fill="#F8F8F8"/>
<path d="M1045.43 1086C1045.43 1081.29 1045.43 1078.93 1046.89 1077.46C1048.36 1076 1050.72 1076 1055.43 1076H1418.43C1423.14 1076 1425.5 1076 1426.97 1077.46C1428.43 1078.93 1428.43 1081.29 1428.43 1086V1459H1045.43V1086Z" fill="#F1CBA2"/>
<path d="M1353.4 1236.05C1351.74 1223.93 1345.07 1213.41 1333.05 1203.91L1326.1 1199.19L1321.46 1206.23C1315.52 1215.3 1312.55 1227.93 1313.49 1240.04C1313.93 1244.25 1315.3 1251.94 1319.58 1258.55C1315.3 1260.94 1306.83 1264.13 1295.53 1263.92H1079.67L1079.24 1266.46C1077.21 1278.57 1077.21 1316.52 1101.47 1345.62C1119.95 1367.75 1147.54 1379 1183.62 1379C1261.85 1379 1319.65 1342.5 1346.81 1276.03C1357.46 1276.25 1380.42 1276.11 1392.23 1253.25C1392.52 1252.74 1393.24 1251.36 1395.27 1247.01L1396.43 1244.61L1389.84 1240.12C1382.59 1235.4 1366.15 1233.59 1353.4 1236.05ZM1252.28 1155H1219.47V1185.26H1252.28V1155ZM1252.28 1191.35H1219.47V1221.61H1252.28V1191.35ZM1213.46 1191.35H1180.65V1221.61H1213.46V1191.35ZM1174.71 1191.35H1141.89V1221.61H1174.71V1191.35ZM1135.88 1227.71H1103.07V1257.97H1135.88V1227.71ZM1174.71 1227.71H1141.89V1257.97H1174.71V1227.71ZM1213.46 1227.71H1180.65V1257.97H1213.46V1227.71ZM1252.28 1227.71H1219.47V1257.97H1252.28V1227.71ZM1291.11 1227.71H1258.3V1257.97H1291.11V1227.71Z" fill="#1D63ED"/>
<path d="M1444.43 1459H1831.43V1562C1831.43 1564.76 1829.19 1567 1826.43 1567H1449.43C1446.67 1567 1444.43 1564.76 1444.43 1562V1459Z" fill="#FB6233"/>
<path d="M1479.82 1526V1500.8H1490.84C1493.58 1500.8 1495.98 1501.33 1498.04 1502.38C1500.1 1503.44 1501.71 1504.9 1502.86 1506.78C1504.02 1508.65 1504.59 1510.86 1504.59 1513.4C1504.59 1515.92 1504.02 1518.13 1502.86 1520.02C1501.71 1521.9 1500.1 1523.36 1498.04 1524.42C1495.98 1525.47 1493.58 1526 1490.84 1526H1479.82ZM1484.5 1522.04H1490.62C1492.52 1522.04 1494.15 1521.68 1495.52 1520.96C1496.91 1520.24 1497.98 1519.23 1498.72 1517.94C1499.49 1516.64 1499.88 1515.13 1499.88 1513.4C1499.88 1511.65 1499.49 1510.14 1498.72 1508.86C1497.98 1507.57 1496.91 1506.56 1495.52 1505.84C1494.15 1505.12 1492.52 1504.76 1490.62 1504.76H1484.5V1522.04ZM1521.37 1526.36C1519.41 1526.36 1517.59 1526.04 1515.94 1525.39C1514.28 1524.74 1512.84 1523.84 1511.62 1522.69C1510.39 1521.51 1509.45 1520.14 1508.77 1518.58C1508.1 1517 1507.77 1515.27 1507.77 1513.4C1507.77 1511.53 1508.1 1509.81 1508.77 1508.25C1509.45 1506.67 1510.39 1505.3 1511.62 1504.15C1512.84 1502.97 1514.28 1502.06 1515.94 1501.41C1517.59 1500.76 1519.39 1500.44 1521.34 1500.44C1523.31 1500.44 1525.11 1500.76 1526.74 1501.41C1528.39 1502.06 1529.83 1502.97 1531.06 1504.15C1532.28 1505.3 1533.23 1506.67 1533.9 1508.25C1534.57 1509.81 1534.91 1511.53 1534.91 1513.4C1534.91 1515.27 1534.57 1517 1533.9 1518.58C1533.23 1520.17 1532.28 1521.54 1531.06 1522.69C1529.83 1523.84 1528.39 1524.74 1526.74 1525.39C1525.11 1526.04 1523.32 1526.36 1521.37 1526.36ZM1521.34 1522.26C1522.61 1522.26 1523.79 1522.04 1524.87 1521.61C1525.95 1521.18 1526.88 1520.56 1527.67 1519.77C1528.47 1518.96 1529.08 1518.02 1529.51 1516.96C1529.97 1515.88 1530.19 1514.7 1530.19 1513.4C1530.19 1512.1 1529.97 1510.93 1529.51 1509.87C1529.08 1508.79 1528.47 1507.86 1527.67 1507.06C1526.88 1506.25 1525.95 1505.62 1524.87 1505.19C1523.79 1504.76 1522.61 1504.54 1521.34 1504.54C1520.07 1504.54 1518.89 1504.76 1517.81 1505.19C1516.75 1505.62 1515.82 1506.25 1515 1507.06C1514.21 1507.86 1513.59 1508.79 1513.13 1509.87C1512.7 1510.93 1512.48 1512.1 1512.48 1513.4C1512.48 1514.67 1512.7 1515.85 1513.13 1516.93C1513.59 1518.01 1514.21 1518.96 1515 1519.77C1515.79 1520.56 1516.73 1521.18 1517.81 1521.61C1518.89 1522.04 1520.07 1522.26 1521.34 1522.26ZM1551.53 1526.36C1549.61 1526.36 1547.83 1526.05 1546.17 1525.42C1544.54 1524.78 1543.11 1523.88 1541.89 1522.72C1540.69 1521.55 1539.75 1520.17 1539.08 1518.58C1538.41 1517 1538.07 1515.27 1538.07 1513.4C1538.07 1511.53 1538.41 1509.8 1539.08 1508.22C1539.75 1506.63 1540.7 1505.26 1541.92 1504.11C1543.15 1502.94 1544.57 1502.04 1546.21 1501.41C1547.84 1500.76 1549.63 1500.44 1551.57 1500.44C1553.63 1500.44 1555.52 1500.8 1557.22 1501.52C1558.93 1502.22 1560.37 1503.26 1561.54 1504.65L1558.52 1507.5C1557.61 1506.51 1556.59 1505.78 1555.46 1505.3C1554.33 1504.8 1553.11 1504.54 1551.79 1504.54C1550.47 1504.54 1549.25 1504.76 1548.15 1505.19C1547.07 1505.62 1546.12 1506.24 1545.31 1507.03C1544.51 1507.82 1543.89 1508.76 1543.43 1509.84C1543 1510.92 1542.79 1512.1 1542.79 1513.4C1542.79 1514.7 1543 1515.88 1543.43 1516.96C1543.89 1518.04 1544.51 1518.98 1545.31 1519.77C1546.12 1520.56 1547.07 1521.18 1548.15 1521.61C1549.25 1522.04 1550.47 1522.26 1551.79 1522.26C1553.11 1522.26 1554.33 1522.02 1555.46 1521.54C1556.59 1521.03 1557.61 1520.28 1558.52 1519.27L1561.54 1522.15C1560.37 1523.52 1558.93 1524.56 1557.22 1525.28C1555.52 1526 1553.62 1526.36 1551.53 1526.36ZM1570.2 1520.06L1569.95 1514.52L1583.16 1500.8H1588.42L1577.44 1512.46L1574.85 1515.31L1570.2 1520.06ZM1566.03 1526V1500.8H1570.71V1526H1566.03ZM1583.59 1526L1573.95 1514.52L1577.04 1511.1L1589.07 1526H1583.59ZM1596.57 1511.28H1609.1V1515.13H1596.57V1511.28ZM1596.93 1522.08H1611.15V1526H1592.25V1500.8H1610.65V1504.72H1596.93V1522.08ZM1616.37 1526V1500.8H1626.74C1628.97 1500.8 1630.88 1501.16 1632.46 1501.88C1634.07 1502.6 1635.31 1503.63 1636.17 1504.98C1637.03 1506.32 1637.47 1507.92 1637.47 1509.76C1637.47 1511.61 1637.03 1513.21 1636.17 1514.55C1635.31 1515.87 1634.07 1516.89 1632.46 1517.61C1630.88 1518.31 1628.97 1518.66 1626.74 1518.66H1618.96L1621.05 1516.53V1526H1616.37ZM1632.86 1526L1626.49 1516.86H1631.49L1637.9 1526H1632.86ZM1621.05 1517.04L1618.96 1514.8H1626.52C1628.59 1514.8 1630.13 1514.36 1631.17 1513.47C1632.22 1512.58 1632.75 1511.35 1632.75 1509.76C1632.75 1508.16 1632.22 1506.92 1631.17 1506.06C1630.13 1505.19 1628.59 1504.76 1626.52 1504.76H1618.96L1621.05 1502.46V1517.04ZM1660.46 1526.36C1658.5 1526.36 1656.61 1526.08 1654.81 1525.53C1653.01 1524.96 1651.58 1524.22 1650.53 1523.34L1652.15 1519.7C1653.16 1520.49 1654.4 1521.15 1655.89 1521.68C1657.38 1522.21 1658.9 1522.47 1660.46 1522.47C1661.78 1522.47 1662.85 1522.33 1663.67 1522.04C1664.48 1521.75 1665.08 1521.37 1665.47 1520.89C1665.85 1520.38 1666.04 1519.82 1666.04 1519.2C1666.04 1518.43 1665.77 1517.82 1665.22 1517.36C1664.66 1516.88 1663.94 1516.51 1663.06 1516.24C1662.19 1515.96 1661.22 1515.69 1660.14 1515.45C1659.08 1515.21 1658.02 1514.94 1656.94 1514.62C1655.88 1514.29 1654.91 1513.87 1654.02 1513.36C1653.16 1512.84 1652.45 1512.14 1651.9 1511.28C1651.34 1510.41 1651.07 1509.31 1651.07 1507.96C1651.07 1506.6 1651.43 1505.35 1652.15 1504.22C1652.89 1503.07 1654.01 1502.16 1655.5 1501.48C1657.01 1500.79 1658.92 1500.44 1661.22 1500.44C1662.73 1500.44 1664.23 1500.63 1665.72 1501.02C1667.21 1501.4 1668.5 1501.95 1669.61 1502.67L1668.13 1506.31C1667 1505.64 1665.84 1505.14 1664.64 1504.83C1663.44 1504.5 1662.29 1504.33 1661.18 1504.33C1659.89 1504.33 1658.83 1504.48 1658.02 1504.8C1657.22 1505.11 1656.64 1505.52 1656.25 1506.02C1655.89 1506.52 1655.71 1507.1 1655.71 1507.75C1655.71 1508.52 1655.98 1509.14 1656.5 1509.62C1657.06 1510.08 1657.76 1510.44 1658.63 1510.7C1659.52 1510.96 1660.5 1511.23 1661.58 1511.49C1662.66 1511.73 1663.73 1512.01 1664.78 1512.32C1665.86 1512.63 1666.84 1513.04 1667.7 1513.54C1668.59 1514.05 1669.3 1514.73 1669.82 1515.6C1670.38 1516.46 1670.65 1517.55 1670.65 1518.87C1670.65 1520.22 1670.28 1521.46 1669.54 1522.62C1668.82 1523.74 1667.7 1524.66 1666.19 1525.35C1664.68 1526.02 1662.77 1526.36 1660.46 1526.36ZM1681.23 1526L1672.88 1500.8H1677.74L1685.19 1523.59H1682.78L1690.52 1500.8H1694.84L1702.36 1523.59H1700.02L1707.66 1500.8H1712.12L1703.77 1526H1698.8L1691.92 1505.44H1693.22L1686.24 1526H1681.23ZM1711.56 1526L1722.9 1500.8H1727.51L1738.88 1526H1733.99L1724.23 1503.28H1726.1L1716.38 1526H1711.56ZM1716.78 1520.17L1718.04 1516.5H1731.65L1732.91 1520.17H1716.78ZM1742.09 1526V1500.8H1752.46C1754.69 1500.8 1756.6 1501.16 1758.18 1501.88C1759.79 1502.6 1761.03 1503.63 1761.89 1504.98C1762.75 1506.32 1763.19 1507.92 1763.19 1509.76C1763.19 1511.61 1762.75 1513.21 1761.89 1514.55C1761.03 1515.87 1759.79 1516.89 1758.18 1517.61C1756.6 1518.31 1754.69 1518.66 1752.46 1518.66H1744.68L1746.77 1516.53V1526H1742.09ZM1758.58 1526L1752.21 1516.86H1757.21L1763.62 1526H1758.58ZM1746.77 1517.04L1744.68 1514.8H1752.24C1754.31 1514.8 1755.85 1514.36 1756.89 1513.47C1757.94 1512.58 1758.47 1511.35 1758.47 1509.76C1758.47 1508.16 1757.94 1506.92 1756.89 1506.06C1755.85 1505.19 1754.31 1504.76 1752.24 1504.76H1744.68L1746.77 1502.46V1517.04ZM1768.42 1526V1500.8H1772.27L1783.29 1519.2H1781.27L1792.11 1500.8H1795.96L1796 1526H1791.57L1791.53 1507.75H1792.47L1783.25 1523.12H1781.17L1771.81 1507.75H1772.89V1526H1768.42Z" fill="#F8F8F8"/>
<path d="M1444.43 1086C1444.43 1081.29 1444.43 1078.93 1445.89 1077.46C1447.36 1076 1449.72 1076 1454.43 1076H1821.43C1826.14 1076 1828.5 1076 1829.97 1077.46C1831.43 1078.93 1831.43 1081.29 1831.43 1086V1459H1444.43V1086Z" fill="#F1CBA2"/>
<path d="M1714.4 1219.49C1712.96 1209.04 1707.22 1199.98 1696.86 1191.78L1690.86 1187.72L1686.87 1193.78C1681.75 1201.6 1679.19 1212.48 1680 1222.93C1680.38 1226.55 1681.56 1233.18 1685.25 1238.87C1681.56 1240.93 1674.26 1243.69 1664.52 1243.5H1478.5L1478.13 1245.69C1476.38 1256.13 1476.38 1288.83 1497.29 1313.91C1513.21 1332.98 1536.99 1342.68 1568.08 1342.68C1635.49 1342.68 1685.31 1311.22 1708.72 1253.94C1717.89 1254.13 1737.68 1254 1747.86 1234.31C1748.11 1233.87 1748.73 1232.68 1750.48 1228.93L1751.48 1226.86L1745.8 1222.99C1739.55 1218.92 1725.38 1217.36 1714.4 1219.49Z" fill="#1D63ED"/>
<path d="M1714.4 1219.49C1712.96 1209.04 1707.22 1199.98 1696.86 1191.78L1690.86 1187.72L1686.87 1193.78C1681.75 1201.6 1679.19 1212.48 1680 1222.93C1680.38 1226.55 1681.56 1233.18 1685.25 1238.87C1681.56 1240.93 1674.26 1243.69 1664.52 1243.5H1478.5L1478.13 1245.69C1476.38 1256.13 1476.38 1288.83 1497.29 1313.91C1513.21 1332.98 1536.99 1342.68 1568.08 1342.68C1635.49 1342.68 1685.31 1311.22 1708.72 1253.94C1717.89 1254.13 1737.68 1254 1747.86 1234.31C1748.11 1233.87 1748.73 1232.68 1750.48 1228.93L1751.48 1226.86L1745.8 1222.99C1739.55 1218.92 1725.38 1217.36 1714.4 1219.49Z" fill="black" fill-opacity="0.4"/>
<path d="M1738.23 1233.85C1736.8 1223.41 1731.05 1214.34 1720.69 1206.15L1714.7 1202.08L1710.7 1208.15C1705.59 1215.96 1703.03 1226.85 1703.84 1237.29C1704.21 1240.92 1705.4 1247.54 1709.08 1253.23C1705.4 1255.3 1698.1 1258.05 1688.36 1257.86H1502.34L1501.96 1260.05C1500.21 1270.49 1500.21 1303.2 1521.13 1328.27C1537.04 1347.35 1560.83 1357.04 1591.91 1357.04C1659.33 1357.04 1709.14 1325.59 1732.55 1268.31C1741.73 1268.49 1761.52 1268.37 1771.69 1248.67C1771.94 1248.23 1772.57 1247.04 1774.31 1243.29L1775.31 1241.23L1769.63 1237.35C1763.39 1233.29 1749.22 1231.72 1738.23 1233.85ZM1651.09 1164H1622.81V1190.08H1651.09V1164ZM1651.09 1195.33H1622.81V1221.41H1651.09V1195.33ZM1617.63 1195.33H1589.35V1221.41H1617.63V1195.33ZM1584.24 1195.33H1555.96V1221.41H1584.24V1195.33ZM1550.78 1226.66H1522.5V1252.73H1550.78V1226.66ZM1584.24 1226.66H1555.96V1252.73H1584.24V1226.66ZM1617.63 1226.66H1589.35V1252.73H1617.63V1226.66ZM1651.09 1226.66H1622.81V1252.73H1651.09V1226.66ZM1684.55 1226.66H1656.27V1252.73H1684.55V1226.66Z" fill="#1D63ED"/>
<path d="M1762.08 1248.21C1760.65 1237.77 1754.91 1228.7 1744.54 1220.51L1738.55 1216.45L1734.56 1222.51C1729.44 1230.33 1726.88 1241.21 1727.69 1251.65C1728.06 1255.28 1729.25 1261.91 1732.93 1267.6C1729.25 1269.66 1721.95 1272.41 1712.21 1272.23H1526.19L1525.81 1274.41C1524.07 1284.86 1524.07 1317.56 1544.98 1342.64C1560.9 1361.71 1584.68 1371.4 1615.77 1371.4C1683.18 1371.4 1733 1339.95 1756.4 1282.67C1765.58 1282.86 1785.37 1282.73 1795.54 1263.03C1795.79 1262.6 1796.42 1261.41 1798.17 1257.65L1799.16 1255.59L1793.48 1251.71C1787.24 1247.65 1773.07 1246.09 1762.08 1248.21Z" fill="#1D63ED"/>
<path d="M1762.08 1248.21C1760.65 1237.77 1754.91 1228.7 1744.54 1220.51L1738.55 1216.45L1734.56 1222.51C1729.44 1230.33 1726.88 1241.21 1727.69 1251.65C1728.06 1255.28 1729.25 1261.91 1732.93 1267.6C1729.25 1269.66 1721.95 1272.41 1712.21 1272.23H1526.19L1525.81 1274.41C1524.07 1284.86 1524.07 1317.56 1544.98 1342.64C1560.9 1361.71 1584.68 1371.4 1615.77 1371.4C1683.18 1371.4 1733 1339.95 1756.4 1282.67C1765.58 1282.86 1785.37 1282.73 1795.54 1263.03C1795.79 1262.6 1796.42 1261.41 1798.17 1257.65L1799.16 1255.59L1793.48 1251.71C1787.24 1247.65 1773.07 1246.09 1762.08 1248.21Z" fill="white" fill-opacity="0.4"/>
<path d="M2363.16 1280.74L2405.51 1316.66C2407.82 1318.61 2407.88 1322.15 2405.64 1324.18L2363.2 1362.7C2362.28 1363.54 2361.08 1364 2359.84 1364H1900.43C1897.67 1364 1895.43 1361.76 1895.43 1359V1283.74C1895.43 1280.98 1897.67 1278.74 1900.44 1278.74L2359.94 1279.55C2361.12 1279.56 2362.26 1279.98 2363.16 1280.74Z" fill="#FB6233"/>
<path d="M1925.66 1332.73V1310.33H1935.45C1937.88 1310.33 1940.01 1310.8 1941.85 1311.74C1943.68 1312.68 1945.11 1313.98 1946.14 1315.65C1947.16 1317.31 1947.67 1319.27 1947.67 1321.53C1947.67 1323.77 1947.16 1325.74 1946.14 1327.42C1945.11 1329.09 1943.68 1330.39 1941.85 1331.33C1940.01 1332.27 1937.88 1332.73 1935.45 1332.73H1925.66ZM1929.82 1329.21H1935.26C1936.94 1329.21 1938.39 1328.89 1939.61 1328.25C1940.85 1327.61 1941.8 1326.72 1942.46 1325.57C1943.14 1324.41 1943.48 1323.07 1943.48 1321.53C1943.48 1319.98 1943.14 1318.63 1942.46 1317.5C1941.8 1316.35 1940.85 1315.45 1939.61 1314.81C1938.39 1314.17 1936.94 1313.85 1935.26 1313.85H1929.82V1329.21ZM1962.59 1333.05C1960.84 1333.05 1959.23 1332.77 1957.76 1332.19C1956.29 1331.61 1955.01 1330.81 1953.92 1329.79C1952.83 1328.75 1951.99 1327.53 1951.39 1326.14C1950.79 1324.73 1950.49 1323.2 1950.49 1321.53C1950.49 1319.87 1950.79 1318.35 1951.39 1316.96C1951.99 1315.55 1952.83 1314.33 1953.92 1313.31C1955.01 1312.27 1956.29 1311.45 1957.76 1310.88C1959.23 1310.3 1960.83 1310.01 1962.56 1310.01C1964.31 1310.01 1965.91 1310.3 1967.36 1310.88C1968.83 1311.45 1970.11 1312.27 1971.2 1313.31C1972.29 1314.33 1973.13 1315.55 1973.73 1316.96C1974.32 1318.35 1974.62 1319.87 1974.62 1321.53C1974.62 1323.2 1974.32 1324.73 1973.73 1326.14C1973.13 1327.55 1972.29 1328.77 1971.2 1329.79C1970.11 1330.81 1968.83 1331.61 1967.36 1332.19C1965.91 1332.77 1964.32 1333.05 1962.59 1333.05ZM1962.56 1329.41C1963.69 1329.41 1964.73 1329.21 1965.69 1328.83C1966.65 1328.45 1967.49 1327.9 1968.19 1327.2C1968.89 1326.47 1969.44 1325.64 1969.82 1324.7C1970.23 1323.74 1970.43 1322.69 1970.43 1321.53C1970.43 1320.38 1970.23 1319.34 1969.82 1318.4C1969.44 1317.44 1968.89 1316.61 1968.19 1315.9C1967.49 1315.18 1966.65 1314.62 1965.69 1314.24C1964.73 1313.85 1963.69 1313.66 1962.56 1313.66C1961.43 1313.66 1960.38 1313.85 1959.42 1314.24C1958.48 1314.62 1957.65 1315.18 1956.93 1315.9C1956.22 1316.61 1955.67 1317.44 1955.26 1318.4C1954.88 1319.34 1954.69 1320.38 1954.69 1321.53C1954.69 1322.67 1954.88 1323.71 1955.26 1324.67C1955.67 1325.63 1956.22 1326.47 1956.93 1327.2C1957.63 1327.9 1958.46 1328.45 1959.42 1328.83C1960.38 1329.21 1961.43 1329.41 1962.56 1329.41ZM1989.4 1333.05C1987.69 1333.05 1986.1 1332.78 1984.63 1332.22C1983.18 1331.65 1981.91 1330.85 1980.82 1329.82C1979.76 1328.78 1978.92 1327.55 1978.33 1326.14C1977.73 1324.73 1977.43 1323.2 1977.43 1321.53C1977.43 1319.87 1977.73 1318.33 1978.33 1316.93C1978.92 1315.52 1979.77 1314.3 1980.86 1313.28C1981.94 1312.23 1983.21 1311.43 1984.66 1310.88C1986.11 1310.3 1987.7 1310.01 1989.43 1310.01C1991.27 1310.01 1992.94 1310.33 1994.46 1310.97C1995.97 1311.59 1997.25 1312.52 1998.3 1313.76L1995.61 1316.29C1994.8 1315.41 1993.89 1314.76 1992.89 1314.33C1991.88 1313.89 1990.8 1313.66 1989.62 1313.66C1988.45 1313.66 1987.37 1313.85 1986.39 1314.24C1985.43 1314.62 1984.59 1315.17 1983.86 1315.87C1983.16 1316.57 1982.6 1317.41 1982.2 1318.37C1981.82 1319.33 1981.62 1320.38 1981.62 1321.53C1981.62 1322.69 1981.82 1323.74 1982.2 1324.7C1982.6 1325.66 1983.16 1326.49 1983.86 1327.2C1984.59 1327.9 1985.43 1328.45 1986.39 1328.83C1987.37 1329.21 1988.45 1329.41 1989.62 1329.41C1990.8 1329.41 1991.88 1329.19 1992.89 1328.77C1993.89 1328.32 1994.8 1327.65 1995.61 1326.75L1998.3 1329.31C1997.25 1330.53 1995.97 1331.45 1994.46 1332.09C1992.94 1332.73 1991.26 1333.05 1989.4 1333.05ZM2005.99 1327.45L2005.77 1322.53L2017.51 1310.33H2022.19L2012.43 1320.7L2010.12 1323.23L2005.99 1327.45ZM2002.28 1332.73V1310.33H2006.44V1332.73H2002.28ZM2017.9 1332.73L2009.32 1322.53L2012.07 1319.49L2022.76 1332.73H2017.9ZM2029.43 1319.65H2040.57V1323.07H2029.43V1319.65ZM2029.75 1329.25H2042.39V1332.73H2025.59V1310.33H2041.95V1313.82H2029.75V1329.25ZM2047.03 1332.73V1310.33H2056.25C2058.23 1310.33 2059.93 1310.65 2061.34 1311.29C2062.76 1311.93 2063.86 1312.85 2064.63 1314.05C2065.4 1315.24 2065.78 1316.66 2065.78 1318.3C2065.78 1319.95 2065.4 1321.36 2064.63 1322.56C2063.86 1323.73 2062.76 1324.64 2061.34 1325.28C2059.93 1325.9 2058.23 1326.21 2056.25 1326.21H2049.34L2051.19 1324.32V1332.73H2047.03ZM2061.69 1332.73L2056.02 1324.61H2060.47L2066.17 1332.73H2061.69ZM2051.19 1324.77L2049.34 1322.78H2056.06C2057.89 1322.78 2059.27 1322.39 2060.18 1321.6C2061.12 1320.81 2061.59 1319.71 2061.59 1318.3C2061.59 1316.87 2061.12 1315.77 2060.18 1315.01C2059.27 1314.24 2057.89 1313.85 2056.06 1313.85H2049.34L2051.19 1311.81V1324.77ZM2086.23 1333.05C2084.48 1333.05 2082.8 1332.81 2081.2 1332.32C2079.6 1331.81 2078.33 1331.16 2077.39 1330.37L2078.83 1327.13C2079.73 1327.84 2080.84 1328.43 2082.16 1328.89C2083.48 1329.36 2084.84 1329.6 2086.23 1329.6C2087.4 1329.6 2088.35 1329.47 2089.07 1329.21C2089.8 1328.96 2090.33 1328.62 2090.67 1328.19C2091.01 1327.74 2091.19 1327.24 2091.19 1326.69C2091.19 1326 2090.94 1325.46 2090.45 1325.05C2089.96 1324.63 2089.32 1324.3 2088.53 1324.06C2087.76 1323.81 2086.9 1323.57 2085.94 1323.36C2085 1323.15 2084.05 1322.9 2083.09 1322.62C2082.15 1322.32 2081.29 1321.95 2080.5 1321.5C2079.73 1321.03 2079.1 1320.41 2078.61 1319.65C2078.12 1318.88 2077.87 1317.9 2077.87 1316.7C2077.87 1315.49 2078.19 1314.38 2078.83 1313.37C2079.49 1312.35 2080.49 1311.54 2081.81 1310.94C2083.15 1310.32 2084.85 1310.01 2086.9 1310.01C2088.24 1310.01 2089.57 1310.19 2090.9 1310.53C2092.22 1310.87 2093.37 1311.36 2094.35 1312L2093.04 1315.23C2092.04 1314.63 2091 1314.2 2089.94 1313.92C2088.87 1313.62 2087.85 1313.47 2086.87 1313.47C2085.71 1313.47 2084.77 1313.61 2084.05 1313.89C2083.35 1314.16 2082.82 1314.53 2082.48 1314.97C2082.16 1315.42 2082 1315.93 2082 1316.51C2082 1317.19 2082.24 1317.75 2082.71 1318.17C2083.2 1318.58 2083.83 1318.9 2084.59 1319.13C2085.38 1319.37 2086.26 1319.6 2087.22 1319.84C2088.18 1320.05 2089.13 1320.3 2090.07 1320.57C2091.03 1320.85 2091.89 1321.21 2092.66 1321.66C2093.45 1322.11 2094.08 1322.72 2094.55 1323.49C2095.04 1324.25 2095.28 1325.23 2095.28 1326.4C2095.28 1327.59 2094.95 1328.7 2094.29 1329.73C2093.65 1330.73 2092.66 1331.54 2091.31 1332.16C2089.97 1332.76 2088.27 1333.05 2086.23 1333.05ZM2104.69 1332.73L2097.26 1310.33H2101.58L2108.21 1330.59H2106.06L2112.94 1310.33H2116.78L2123.47 1330.59H2121.39L2128.17 1310.33H2132.14L2124.72 1332.73H2120.3L2114.19 1314.46H2115.34L2109.13 1332.73H2104.69ZM2131.64 1332.73L2141.72 1310.33H2145.82L2155.93 1332.73H2151.58L2142.91 1312.54H2144.57L2135.93 1332.73H2131.64ZM2136.28 1327.55L2137.4 1324.29H2149.5L2150.62 1327.55H2136.28ZM2158.78 1332.73V1310.33H2168C2169.98 1310.33 2171.68 1310.65 2173.09 1311.29C2174.51 1311.93 2175.61 1312.85 2176.38 1314.05C2177.15 1315.24 2177.53 1316.66 2177.53 1318.3C2177.53 1319.95 2177.15 1321.36 2176.38 1322.56C2175.61 1323.73 2174.51 1324.64 2173.09 1325.28C2171.68 1325.9 2169.98 1326.21 2168 1326.21H2161.09L2162.94 1324.32V1332.73H2158.78ZM2173.44 1332.73L2167.77 1324.61H2172.22L2177.92 1332.73H2173.44ZM2162.94 1324.77L2161.09 1322.78H2167.81C2169.64 1322.78 2171.02 1322.39 2171.93 1321.6C2172.87 1320.81 2173.34 1319.71 2173.34 1318.3C2173.34 1316.87 2172.87 1315.77 2171.93 1315.01C2171.02 1314.24 2169.64 1313.85 2167.81 1313.85H2161.09L2162.94 1311.81V1324.77ZM2182.19 1332.73V1310.33H2185.61L2195.4 1326.69H2193.61L2203.24 1310.33H2206.67L2206.7 1332.73H2202.76L2202.73 1316.51H2203.56L2195.37 1330.17H2193.52L2185.2 1316.51H2186.16V1332.73H2182.19ZM2231.96 1333.05C2230.26 1333.05 2228.67 1332.78 2227.19 1332.22C2225.74 1331.65 2224.47 1330.85 2223.39 1329.82C2222.32 1328.78 2221.49 1327.55 2220.89 1326.14C2220.29 1324.73 2219.99 1323.2 2219.99 1321.53C2219.99 1319.87 2220.29 1318.33 2220.89 1316.93C2221.49 1315.52 2222.33 1314.3 2223.42 1313.28C2224.51 1312.23 2225.78 1311.43 2227.23 1310.88C2228.68 1310.3 2230.27 1310.01 2231.99 1310.01C2233.83 1310.01 2235.5 1310.33 2237.02 1310.97C2238.53 1311.59 2239.81 1312.52 2240.86 1313.76L2238.17 1316.29C2237.36 1315.41 2236.45 1314.76 2235.45 1314.33C2234.45 1313.89 2233.36 1313.66 2232.19 1313.66C2231.01 1313.66 2229.94 1313.85 2228.95 1314.24C2227.99 1314.62 2227.15 1315.17 2226.43 1315.87C2225.72 1316.57 2225.17 1317.41 2224.76 1318.37C2224.38 1319.33 2224.19 1320.38 2224.19 1321.53C2224.19 1322.69 2224.38 1323.74 2224.76 1324.7C2225.17 1325.66 2225.72 1326.49 2226.43 1327.2C2227.15 1327.9 2227.99 1328.45 2228.95 1328.83C2229.94 1329.21 2231.01 1329.41 2232.19 1329.41C2233.36 1329.41 2234.45 1329.19 2235.45 1328.77C2236.45 1328.32 2237.36 1327.65 2238.17 1326.75L2240.86 1329.31C2239.81 1330.53 2238.53 1331.45 2237.02 1332.09C2235.5 1332.73 2233.82 1333.05 2231.96 1333.05ZM2244.84 1332.73V1310.33H2254.06C2256.04 1310.33 2257.74 1310.65 2259.15 1311.29C2260.58 1311.93 2261.68 1312.85 2262.44 1314.05C2263.21 1315.24 2263.6 1316.66 2263.6 1318.3C2263.6 1319.95 2263.21 1321.36 2262.44 1322.56C2261.68 1323.73 2260.58 1324.64 2259.15 1325.28C2257.74 1325.9 2256.04 1326.21 2254.06 1326.21H2247.15L2249 1324.32V1332.73H2244.84ZM2259.5 1332.73L2253.84 1324.61H2258.28L2263.98 1332.73H2259.5ZM2249 1324.77L2247.15 1322.78H2253.87C2255.7 1322.78 2257.08 1322.39 2258 1321.6C2258.93 1320.81 2259.4 1319.71 2259.4 1318.3C2259.4 1316.87 2258.93 1315.77 2258 1315.01C2257.08 1314.24 2255.7 1313.85 2253.87 1313.85H2247.15L2249 1311.81V1324.77ZM2272.09 1319.65H2283.23V1323.07H2272.09V1319.65ZM2272.41 1329.25H2285.05V1332.73H2268.25V1310.33H2284.6V1313.82H2272.41V1329.25ZM2286.52 1332.73L2296.6 1310.33H2300.7L2310.81 1332.73H2306.46L2297.78 1312.54H2299.45L2290.81 1332.73H2286.52ZM2291.16 1327.55L2292.28 1324.29H2304.38L2305.5 1327.55H2291.16ZM2317.08 1332.73V1313.85H2309.65V1310.33H2328.66V1313.85H2321.24V1332.73H2317.08ZM2335.62 1319.65H2346.76V1323.07H2335.62V1319.65ZM2335.94 1329.25H2348.58V1332.73H2331.78V1310.33H2348.13V1313.82H2335.94V1329.25Z" fill="#F8F8F8"/>
<path d="M2473.86 1459H2856.86V1562C2856.86 1564.76 2854.62 1567 2851.86 1567H2478.86C2476.1 1567 2473.86 1564.76 2473.86 1562V1459Z" fill="#FB6233"/>
<path d="M2509.42 1526V1500.8H2520.43C2523.17 1500.8 2525.57 1501.33 2527.63 1502.38C2529.7 1503.44 2531.3 1504.9 2532.46 1506.78C2533.61 1508.65 2534.18 1510.86 2534.18 1513.4C2534.18 1515.92 2533.61 1518.13 2532.46 1520.02C2531.3 1521.9 2529.7 1523.36 2527.63 1524.42C2525.57 1525.47 2523.17 1526 2520.43 1526H2509.42ZM2514.1 1522.04H2520.22C2522.11 1522.04 2523.74 1521.68 2525.11 1520.96C2526.5 1520.24 2527.57 1519.23 2528.32 1517.94C2529.08 1516.64 2529.47 1515.13 2529.47 1513.4C2529.47 1511.65 2529.08 1510.14 2528.32 1508.86C2527.57 1507.57 2526.5 1506.56 2525.11 1505.84C2523.74 1505.12 2522.11 1504.76 2520.22 1504.76H2514.1V1522.04ZM2550.97 1526.36C2549 1526.36 2547.19 1526.04 2545.53 1525.39C2543.87 1524.74 2542.43 1523.84 2541.21 1522.69C2539.99 1521.51 2539.04 1520.14 2538.37 1518.58C2537.69 1517 2537.36 1515.27 2537.36 1513.4C2537.36 1511.53 2537.69 1509.81 2538.37 1508.25C2539.04 1506.67 2539.99 1505.3 2541.21 1504.15C2542.43 1502.97 2543.87 1502.06 2545.53 1501.41C2547.19 1500.76 2548.99 1500.44 2550.93 1500.44C2552.9 1500.44 2554.7 1500.76 2556.33 1501.41C2557.99 1502.06 2559.43 1502.97 2560.65 1504.15C2561.87 1505.3 2562.82 1506.67 2563.49 1508.25C2564.17 1509.81 2564.5 1511.53 2564.5 1513.4C2564.5 1515.27 2564.17 1517 2563.49 1518.58C2562.82 1520.17 2561.87 1521.54 2560.65 1522.69C2559.43 1523.84 2557.99 1524.74 2556.33 1525.39C2554.7 1526.04 2552.91 1526.36 2550.97 1526.36ZM2550.93 1522.26C2552.2 1522.26 2553.38 1522.04 2554.46 1521.61C2555.54 1521.18 2556.47 1520.56 2557.27 1519.77C2558.06 1518.96 2558.67 1518.02 2559.1 1516.96C2559.56 1515.88 2559.79 1514.7 2559.79 1513.4C2559.79 1512.1 2559.56 1510.93 2559.1 1509.87C2558.67 1508.79 2558.06 1507.86 2557.27 1507.06C2556.47 1506.25 2555.54 1505.62 2554.46 1505.19C2553.38 1504.76 2552.2 1504.54 2550.93 1504.54C2549.66 1504.54 2548.48 1504.76 2547.4 1505.19C2546.35 1505.62 2545.41 1506.25 2544.59 1507.06C2543.8 1507.86 2543.18 1508.79 2542.72 1509.87C2542.29 1510.93 2542.07 1512.1 2542.07 1513.4C2542.07 1514.67 2542.29 1515.85 2542.72 1516.93C2543.18 1518.01 2543.8 1518.96 2544.59 1519.77C2545.39 1520.56 2546.32 1521.18 2547.4 1521.61C2548.48 1522.04 2549.66 1522.26 2550.93 1522.26ZM2581.13 1526.36C2579.21 1526.36 2577.42 1526.05 2575.76 1525.42C2574.13 1524.78 2572.7 1523.88 2571.48 1522.72C2570.28 1521.55 2569.34 1520.17 2568.67 1518.58C2568 1517 2567.66 1515.27 2567.66 1513.4C2567.66 1511.53 2568 1509.8 2568.67 1508.22C2569.34 1506.63 2570.29 1505.26 2571.51 1504.11C2572.74 1502.94 2574.17 1502.04 2575.8 1501.41C2577.43 1500.76 2579.22 1500.44 2581.16 1500.44C2583.23 1500.44 2585.11 1500.8 2586.81 1501.52C2588.52 1502.22 2589.96 1503.26 2591.13 1504.65L2588.11 1507.5C2587.2 1506.51 2586.18 1505.78 2585.05 1505.3C2583.92 1504.8 2582.7 1504.54 2581.38 1504.54C2580.06 1504.54 2578.85 1504.76 2577.74 1505.19C2576.66 1505.62 2575.71 1506.24 2574.9 1507.03C2574.11 1507.82 2573.48 1508.76 2573.03 1509.84C2572.59 1510.92 2572.38 1512.1 2572.38 1513.4C2572.38 1514.7 2572.59 1515.88 2573.03 1516.96C2573.48 1518.04 2574.11 1518.98 2574.9 1519.77C2575.71 1520.56 2576.66 1521.18 2577.74 1521.61C2578.85 1522.04 2580.06 1522.26 2581.38 1522.26C2582.7 1522.26 2583.92 1522.02 2585.05 1521.54C2586.18 1521.03 2587.2 1520.28 2588.11 1519.27L2591.13 1522.15C2589.96 1523.52 2588.52 1524.56 2586.81 1525.28C2585.11 1526 2583.21 1526.36 2581.13 1526.36ZM2599.79 1520.06L2599.54 1514.52L2612.75 1500.8H2618.01L2607.03 1512.46L2604.44 1515.31L2599.79 1520.06ZM2595.62 1526V1500.8H2600.3V1526H2595.62ZM2613.19 1526L2603.54 1514.52L2606.63 1511.1L2618.66 1526H2613.19ZM2626.16 1511.28H2638.69V1515.13H2626.16V1511.28ZM2626.52 1522.08H2640.74V1526H2621.84V1500.8H2640.24V1504.72H2626.52V1522.08ZM2645.96 1526V1500.8H2656.33C2658.56 1500.8 2660.47 1501.16 2662.05 1501.88C2663.66 1502.6 2664.9 1503.63 2665.76 1504.98C2666.63 1506.32 2667.06 1507.92 2667.06 1509.76C2667.06 1511.61 2666.63 1513.21 2665.76 1514.55C2664.9 1515.87 2663.66 1516.89 2662.05 1517.61C2660.47 1518.31 2658.56 1518.66 2656.33 1518.66H2648.55L2650.64 1516.53V1526H2645.96ZM2662.45 1526L2656.08 1516.86H2661.08L2667.49 1526H2662.45ZM2650.64 1517.04L2648.55 1514.8H2656.11C2658.18 1514.8 2659.73 1514.36 2660.76 1513.47C2661.81 1512.58 2662.34 1511.35 2662.34 1509.76C2662.34 1508.16 2661.81 1506.92 2660.76 1506.06C2659.73 1505.19 2658.18 1504.76 2656.11 1504.76H2648.55L2650.64 1502.46V1517.04ZM2686.56 1511.28H2699.09V1515.13H2686.56V1511.28ZM2686.92 1522.08H2701.14V1526H2682.24V1500.8H2700.64V1504.72H2686.92V1522.08ZM2706.36 1526V1500.8H2710.21L2726.02 1520.2H2724.11V1500.8H2728.75V1526H2724.9L2709.1 1506.6H2711V1526H2706.36ZM2747.28 1526.36C2745.31 1526.36 2743.5 1526.05 2741.84 1525.42C2740.21 1524.78 2738.78 1523.88 2737.56 1522.72C2736.33 1521.55 2735.39 1520.17 2734.71 1518.58C2734.04 1517 2733.71 1515.27 2733.71 1513.4C2733.71 1511.53 2734.04 1509.8 2734.71 1508.22C2735.39 1506.63 2736.33 1505.26 2737.56 1504.11C2738.81 1502.94 2740.26 1502.04 2741.91 1501.41C2743.57 1500.76 2745.38 1500.44 2747.35 1500.44C2749.49 1500.44 2751.41 1500.79 2753.11 1501.48C2754.84 1502.18 2756.29 1503.2 2757.47 1504.54L2754.51 1507.42C2753.53 1506.44 2752.46 1505.72 2751.31 1505.26C2750.18 1504.78 2748.93 1504.54 2747.57 1504.54C2746.25 1504.54 2745.02 1504.76 2743.89 1505.19C2742.77 1505.62 2741.79 1506.24 2740.98 1507.03C2740.16 1507.82 2739.53 1508.76 2739.07 1509.84C2738.64 1510.92 2738.42 1512.1 2738.42 1513.4C2738.42 1514.67 2738.64 1515.85 2739.07 1516.93C2739.53 1518.01 2740.16 1518.96 2740.98 1519.77C2741.79 1520.56 2742.75 1521.18 2743.86 1521.61C2744.96 1522.04 2746.19 1522.26 2747.53 1522.26C2748.78 1522.26 2749.98 1522.06 2751.13 1521.68C2752.31 1521.27 2753.42 1520.6 2754.48 1519.66L2757.14 1523.16C2755.82 1524.21 2754.29 1525.02 2752.53 1525.57C2750.81 1526.1 2749.05 1526.36 2747.28 1526.36ZM2752.71 1522.54V1513.11H2757.14V1523.16L2752.71 1522.54ZM2763.31 1526V1500.8H2767.99V1526H2763.31ZM2774.81 1526V1500.8H2778.66L2794.47 1520.2H2792.56V1500.8H2797.2V1526H2793.35L2777.55 1506.6H2779.45V1526H2774.81ZM2808.27 1511.28H2820.8V1515.13H2808.27V1511.28ZM2808.63 1522.08H2822.85V1526H2803.95V1500.8H2822.35V1504.72H2808.63V1522.08Z" fill="#F8F8F8"/>
<path d="M2473.86 1086C2473.86 1081.29 2473.86 1078.93 2475.32 1077.46C2476.79 1076 2479.15 1076 2483.86 1076H2846.86C2851.57 1076 2853.93 1076 2855.39 1077.46C2856.86 1078.93 2856.86 1081.29 2856.86 1086V1459H2473.86V1086Z" fill="#F1CBA2"/>
<path d="M2781.83 1236.05C2780.17 1223.93 2773.5 1213.41 2761.48 1203.91L2754.53 1199.19L2749.89 1206.23C2743.95 1215.3 2740.98 1227.93 2741.92 1240.04C2742.36 1244.25 2743.73 1251.94 2748.01 1258.55C2743.73 1260.94 2735.26 1264.13 2723.96 1263.92H2508.1L2507.67 1266.46C2505.64 1278.57 2505.64 1316.52 2529.9 1345.62C2548.38 1367.75 2575.97 1379 2612.05 1379C2690.28 1379 2748.08 1342.5 2775.24 1276.03C2785.89 1276.25 2808.85 1276.11 2820.66 1253.25C2820.95 1252.74 2821.67 1251.36 2823.7 1247.01L2824.86 1244.61L2818.27 1240.12C2811.02 1235.4 2794.58 1233.59 2781.83 1236.05ZM2680.71 1155H2647.9V1185.26H2680.71V1155ZM2680.71 1191.35H2647.9V1221.61H2680.71V1191.35ZM2641.89 1191.35H2609.08V1221.61H2641.89V1191.35ZM2603.14 1191.35H2570.32V1221.61H2603.14V1191.35ZM2564.31 1227.71H2531.5V1257.97H2564.31V1227.71ZM2603.14 1227.71H2570.32V1257.97H2603.14V1227.71ZM2641.89 1227.71H2609.08V1257.97H2641.89V1227.71ZM2680.71 1227.71H2647.9V1257.97H2680.71V1227.71ZM2719.54 1227.71H2686.73V1257.97H2719.54V1227.71Z" fill="#1D63ED"/>
<path d="M2872.86 1459H3259.86V1562C3259.86 1564.76 3257.62 1567 3254.86 1567H2877.86C2875.1 1567 2872.86 1564.76 2872.86 1562V1459Z" fill="#FB6233"/>
<path d="M2908.25 1526V1500.8H2919.27C2922.01 1500.8 2924.41 1501.33 2926.47 1502.38C2928.53 1503.44 2930.14 1504.9 2931.29 1506.78C2932.45 1508.65 2933.02 1510.86 2933.02 1513.4C2933.02 1515.92 2932.45 1518.13 2931.29 1520.02C2930.14 1521.9 2928.53 1523.36 2926.47 1524.42C2924.41 1525.47 2922.01 1526 2919.27 1526H2908.25ZM2912.93 1522.04H2919.05C2920.95 1522.04 2922.58 1521.68 2923.95 1520.96C2925.34 1520.24 2926.41 1519.23 2927.15 1517.94C2927.92 1516.64 2928.31 1515.13 2928.31 1513.4C2928.31 1511.65 2927.92 1510.14 2927.15 1508.86C2926.41 1507.57 2925.34 1506.56 2923.95 1505.84C2922.58 1505.12 2920.95 1504.76 2919.05 1504.76H2912.93V1522.04ZM2949.8 1526.36C2947.84 1526.36 2946.02 1526.04 2944.37 1525.39C2942.71 1524.74 2941.27 1523.84 2940.05 1522.69C2938.82 1521.51 2937.88 1520.14 2937.2 1518.58C2936.53 1517 2936.2 1515.27 2936.2 1513.4C2936.2 1511.53 2936.53 1509.81 2937.2 1508.25C2937.88 1506.67 2938.82 1505.3 2940.05 1504.15C2941.27 1502.97 2942.71 1502.06 2944.37 1501.41C2946.02 1500.76 2947.82 1500.44 2949.77 1500.44C2951.74 1500.44 2953.54 1500.76 2955.17 1501.41C2956.82 1502.06 2958.26 1502.97 2959.49 1504.15C2960.71 1505.3 2961.66 1506.67 2962.33 1508.25C2963 1509.81 2963.34 1511.53 2963.34 1513.4C2963.34 1515.27 2963 1517 2962.33 1518.58C2961.66 1520.17 2960.71 1521.54 2959.49 1522.69C2958.26 1523.84 2956.82 1524.74 2955.17 1525.39C2953.54 1526.04 2951.75 1526.36 2949.8 1526.36ZM2949.77 1522.26C2951.04 1522.26 2952.22 1522.04 2953.3 1521.61C2954.38 1521.18 2955.31 1520.56 2956.1 1519.77C2956.9 1518.96 2957.51 1518.02 2957.94 1516.96C2958.4 1515.88 2958.62 1514.7 2958.62 1513.4C2958.62 1512.1 2958.4 1510.93 2957.94 1509.87C2957.51 1508.79 2956.9 1507.86 2956.1 1507.06C2955.31 1506.25 2954.38 1505.62 2953.3 1505.19C2952.22 1504.76 2951.04 1504.54 2949.77 1504.54C2948.5 1504.54 2947.32 1504.76 2946.24 1505.19C2945.18 1505.62 2944.25 1506.25 2943.43 1507.06C2942.64 1507.86 2942.02 1508.79 2941.56 1509.87C2941.13 1510.93 2940.91 1512.1 2940.91 1513.4C2940.91 1514.67 2941.13 1515.85 2941.56 1516.93C2942.02 1518.01 2942.64 1518.96 2943.43 1519.77C2944.22 1520.56 2945.16 1521.18 2946.24 1521.61C2947.32 1522.04 2948.5 1522.26 2949.77 1522.26ZM2979.96 1526.36C2978.04 1526.36 2976.26 1526.05 2974.6 1525.42C2972.97 1524.78 2971.54 1523.88 2970.32 1522.72C2969.12 1521.55 2968.18 1520.17 2967.51 1518.58C2966.84 1517 2966.5 1515.27 2966.5 1513.4C2966.5 1511.53 2966.84 1509.8 2967.51 1508.22C2968.18 1506.63 2969.13 1505.26 2970.35 1504.11C2971.58 1502.94 2973 1502.04 2974.64 1501.41C2976.27 1500.76 2978.06 1500.44 2980 1500.44C2982.06 1500.44 2983.95 1500.8 2985.65 1501.52C2987.36 1502.22 2988.8 1503.26 2989.97 1504.65L2986.95 1507.5C2986.04 1506.51 2985.02 1505.78 2983.89 1505.3C2982.76 1504.8 2981.54 1504.54 2980.22 1504.54C2978.9 1504.54 2977.68 1504.76 2976.58 1505.19C2975.5 1505.62 2974.55 1506.24 2973.74 1507.03C2972.94 1507.82 2972.32 1508.76 2971.86 1509.84C2971.43 1510.92 2971.22 1512.1 2971.22 1513.4C2971.22 1514.7 2971.43 1515.88 2971.86 1516.96C2972.32 1518.04 2972.94 1518.98 2973.74 1519.77C2974.55 1520.56 2975.5 1521.18 2976.58 1521.61C2977.68 1522.04 2978.9 1522.26 2980.22 1522.26C2981.54 1522.26 2982.76 1522.02 2983.89 1521.54C2985.02 1521.03 2986.04 1520.28 2986.95 1519.27L2989.97 1522.15C2988.8 1523.52 2987.36 1524.56 2985.65 1525.28C2983.95 1526 2982.05 1526.36 2979.96 1526.36ZM2998.63 1520.06L2998.38 1514.52L3011.59 1500.8H3016.85L3005.87 1512.46L3003.28 1515.31L2998.63 1520.06ZM2994.46 1526V1500.8H2999.14V1526H2994.46ZM3012.02 1526L3002.38 1514.52L3005.47 1511.1L3017.5 1526H3012.02ZM3025 1511.28H3037.53V1515.13H3025V1511.28ZM3025.36 1522.08H3039.58V1526H3020.68V1500.8H3039.08V1504.72H3025.36V1522.08ZM3044.8 1526V1500.8H3055.17C3057.4 1500.8 3059.31 1501.16 3060.89 1501.88C3062.5 1502.6 3063.74 1503.63 3064.6 1504.98C3065.46 1506.32 3065.9 1507.92 3065.9 1509.76C3065.9 1511.61 3065.46 1513.21 3064.6 1514.55C3063.74 1515.87 3062.5 1516.89 3060.89 1517.61C3059.31 1518.31 3057.4 1518.66 3055.17 1518.66H3047.39L3049.48 1516.53V1526H3044.8ZM3061.29 1526L3054.92 1516.86H3059.92L3066.33 1526H3061.29ZM3049.48 1517.04L3047.39 1514.8H3054.95C3057.02 1514.8 3058.56 1514.36 3059.6 1513.47C3060.65 1512.58 3061.18 1511.35 3061.18 1509.76C3061.18 1508.16 3060.65 1506.92 3059.6 1506.06C3058.56 1505.19 3057.02 1504.76 3054.95 1504.76H3047.39L3049.48 1502.46V1517.04ZM3088.89 1526.36C3086.93 1526.36 3085.04 1526.08 3083.24 1525.53C3081.44 1524.96 3080.01 1524.22 3078.96 1523.34L3080.58 1519.7C3081.59 1520.49 3082.83 1521.15 3084.32 1521.68C3085.81 1522.21 3087.33 1522.47 3088.89 1522.47C3090.21 1522.47 3091.28 1522.33 3092.1 1522.04C3092.91 1521.75 3093.51 1521.37 3093.9 1520.89C3094.28 1520.38 3094.47 1519.82 3094.47 1519.2C3094.47 1518.43 3094.2 1517.82 3093.65 1517.36C3093.09 1516.88 3092.37 1516.51 3091.49 1516.24C3090.62 1515.96 3089.65 1515.69 3088.57 1515.45C3087.51 1515.21 3086.45 1514.94 3085.37 1514.62C3084.31 1514.29 3083.34 1513.87 3082.45 1513.36C3081.59 1512.84 3080.88 1512.14 3080.33 1511.28C3079.77 1510.41 3079.5 1509.31 3079.5 1507.96C3079.5 1506.6 3079.86 1505.35 3080.58 1504.22C3081.32 1503.07 3082.44 1502.16 3083.93 1501.48C3085.44 1500.79 3087.35 1500.44 3089.65 1500.44C3091.16 1500.44 3092.66 1500.63 3094.15 1501.02C3095.64 1501.4 3096.93 1501.95 3098.04 1502.67L3096.56 1506.31C3095.43 1505.64 3094.27 1505.14 3093.07 1504.83C3091.87 1504.5 3090.72 1504.33 3089.61 1504.33C3088.32 1504.33 3087.26 1504.48 3086.45 1504.8C3085.65 1505.11 3085.07 1505.52 3084.68 1506.02C3084.32 1506.52 3084.14 1507.1 3084.14 1507.75C3084.14 1508.52 3084.41 1509.14 3084.93 1509.62C3085.49 1510.08 3086.19 1510.44 3087.06 1510.7C3087.95 1510.96 3088.93 1511.23 3090.01 1511.49C3091.09 1511.73 3092.16 1512.01 3093.21 1512.32C3094.29 1512.63 3095.27 1513.04 3096.13 1513.54C3097.02 1514.05 3097.73 1514.73 3098.25 1515.6C3098.81 1516.46 3099.08 1517.55 3099.08 1518.87C3099.08 1520.22 3098.71 1521.46 3097.97 1522.62C3097.25 1523.74 3096.13 1524.66 3094.62 1525.35C3093.11 1526.02 3091.2 1526.36 3088.89 1526.36ZM3109.66 1526L3101.31 1500.8H3106.17L3113.62 1523.59H3111.21L3118.95 1500.8H3123.27L3130.79 1523.59H3128.45L3136.09 1500.8H3140.55L3132.2 1526H3127.23L3120.35 1505.44H3121.65L3114.67 1526H3109.66ZM3139.99 1526L3151.33 1500.8H3155.94L3167.31 1526H3162.42L3152.66 1503.28H3154.53L3144.81 1526H3139.99ZM3145.21 1520.17L3146.47 1516.5H3160.08L3161.34 1520.17H3145.21ZM3170.52 1526V1500.8H3180.89C3183.12 1500.8 3185.03 1501.16 3186.61 1501.88C3188.22 1502.6 3189.45 1503.63 3190.32 1504.98C3191.18 1506.32 3191.61 1507.92 3191.61 1509.76C3191.61 1511.61 3191.18 1513.21 3190.32 1514.55C3189.45 1515.87 3188.22 1516.89 3186.61 1517.61C3185.03 1518.31 3183.12 1518.66 3180.89 1518.66H3173.11L3175.2 1516.53V1526H3170.52ZM3187.01 1526L3180.63 1516.86H3185.64L3192.05 1526H3187.01ZM3175.2 1517.04L3173.11 1514.8H3180.67C3182.73 1514.8 3184.28 1514.36 3185.31 1513.47C3186.37 1512.58 3186.9 1511.35 3186.9 1509.76C3186.9 1508.16 3186.37 1506.92 3185.31 1506.06C3184.28 1505.19 3182.73 1504.76 3180.67 1504.76H3173.11L3175.2 1502.46V1517.04ZM3196.85 1526V1500.8H3200.7L3211.72 1519.2H3209.7L3220.54 1500.8H3224.39L3224.43 1526H3220L3219.96 1507.75H3220.9L3211.68 1523.12H3209.59L3200.23 1507.75H3201.31V1526H3196.85Z" fill="#F8F8F8"/>
<path d="M2872.86 1086C2872.86 1081.29 2872.86 1078.93 2874.32 1077.46C2875.79 1076 2878.15 1076 2882.86 1076H3249.86C3254.57 1076 3256.93 1076 3258.39 1077.46C3259.86 1078.93 3259.86 1081.29 3259.86 1086V1459H2872.86V1086Z" fill="#F1CBA2"/>
<path d="M3142.83 1219.49C3141.39 1209.04 3135.65 1199.98 3125.29 1191.78L3119.29 1187.72L3115.3 1193.78C3110.18 1201.6 3107.62 1212.48 3108.43 1222.93C3108.81 1226.55 3109.99 1233.18 3113.68 1238.87C3109.99 1240.93 3102.69 1243.69 3092.95 1243.5H2906.93L2906.56 1245.69C2904.81 1256.13 2904.81 1288.83 2925.72 1313.91C2941.64 1332.98 2965.42 1342.68 2996.51 1342.68C3063.92 1342.68 3113.74 1311.22 3137.15 1253.94C3146.32 1254.13 3166.11 1254 3176.29 1234.31C3176.54 1233.87 3177.16 1232.68 3178.91 1228.93L3179.91 1226.86L3174.23 1222.99C3167.98 1218.92 3153.81 1217.36 3142.83 1219.49Z" fill="#1D63ED"/>
<path d="M3142.83 1219.49C3141.39 1209.04 3135.65 1199.98 3125.29 1191.78L3119.29 1187.72L3115.3 1193.78C3110.18 1201.6 3107.62 1212.48 3108.43 1222.93C3108.81 1226.55 3109.99 1233.18 3113.68 1238.87C3109.99 1240.93 3102.69 1243.69 3092.95 1243.5H2906.93L2906.56 1245.69C2904.81 1256.13 2904.81 1288.83 2925.72 1313.91C2941.64 1332.98 2965.42 1342.68 2996.51 1342.68C3063.92 1342.68 3113.74 1311.22 3137.15 1253.94C3146.32 1254.13 3166.11 1254 3176.29 1234.31C3176.54 1233.87 3177.16 1232.68 3178.91 1228.93L3179.91 1226.86L3174.23 1222.99C3167.98 1218.92 3153.81 1217.36 3142.83 1219.49Z" fill="black" fill-opacity="0.4"/>
<path d="M3166.66 1233.85C3165.23 1223.41 3159.48 1214.34 3149.12 1206.15L3143.13 1202.08L3139.13 1208.15C3134.02 1215.96 3131.46 1226.85 3132.27 1237.29C3132.64 1240.92 3133.83 1247.54 3137.51 1253.23C3133.83 1255.3 3126.52 1258.05 3116.79 1257.86H2930.77L2930.39 1260.05C2928.64 1270.49 2928.64 1303.2 2949.56 1328.27C2965.47 1347.35 2989.26 1357.04 3020.34 1357.04C3087.76 1357.04 3137.57 1325.59 3160.98 1268.31C3170.16 1268.49 3189.95 1268.37 3200.12 1248.67C3200.37 1248.23 3201 1247.04 3202.74 1243.29L3203.74 1241.23L3198.06 1237.35C3191.82 1233.29 3177.65 1231.72 3166.66 1233.85ZM3079.52 1164H3051.24V1190.08H3079.52V1164ZM3079.52 1195.33H3051.24V1221.41H3079.52V1195.33ZM3046.06 1195.33H3017.78V1221.41H3046.06V1195.33ZM3012.67 1195.33H2984.39V1221.41H3012.67V1195.33ZM2979.21 1226.66H2950.93V1252.73H2979.21V1226.66ZM3012.67 1226.66H2984.39V1252.73H3012.67V1226.66ZM3046.06 1226.66H3017.78V1252.73H3046.06V1226.66ZM3079.52 1226.66H3051.24V1252.73H3079.52V1226.66ZM3112.98 1226.66H3084.7V1252.73H3112.98V1226.66Z" fill="#1D63ED"/>
<path d="M3190.51 1248.21C3189.08 1237.77 3183.34 1228.7 3172.97 1220.51L3166.98 1216.45L3162.99 1222.51C3157.87 1230.33 3155.31 1241.21 3156.12 1251.65C3156.49 1255.28 3157.68 1261.91 3161.36 1267.6C3157.68 1269.66 3150.38 1272.41 3140.64 1272.23H2954.62L2954.24 1274.41C2952.5 1284.86 2952.5 1317.56 2973.41 1342.64C2989.32 1361.71 3013.11 1371.4 3044.19 1371.4C3111.61 1371.4 3161.43 1339.95 3184.83 1282.67C3194.01 1282.86 3213.8 1282.73 3223.97 1263.03C3224.22 1262.6 3224.85 1261.41 3226.6 1257.65L3227.59 1255.59L3221.91 1251.71C3215.67 1247.65 3201.5 1246.09 3190.51 1248.21Z" fill="#1D63ED"/>
<path d="M3190.51 1248.21C3189.08 1237.77 3183.34 1228.7 3172.97 1220.51L3166.98 1216.45L3162.99 1222.51C3157.87 1230.33 3155.31 1241.21 3156.12 1251.65C3156.49 1255.28 3157.68 1261.91 3161.36 1267.6C3157.68 1269.66 3150.38 1272.41 3140.64 1272.23H2954.62L2954.24 1274.41C2952.5 1284.86 2952.5 1317.56 2973.41 1342.64C2989.32 1361.71 3013.11 1371.4 3044.19 1371.4C3111.61 1371.4 3161.43 1339.95 3184.83 1282.67C3194.01 1282.86 3213.8 1282.73 3223.97 1263.03C3224.22 1262.6 3224.85 1261.41 3226.6 1257.65L3227.59 1255.59L3221.91 1251.71C3215.67 1247.65 3201.5 1246.09 3190.51 1248.21Z" fill="white" fill-opacity="0.4"/>
<path d="M2872.86 953H3259.86V1056C3259.86 1058.76 3257.62 1061 3254.86 1061H2877.86C2875.1 1061 2872.86 1058.76 2872.86 1056V953Z" fill="#FB6233"/>
<path d="M2997.28 1020.36C2995.31 1020.36 2993.42 1020.08 2991.62 1019.53C2989.82 1018.96 2988.4 1018.22 2987.34 1017.34L2988.96 1013.7C2989.97 1014.49 2991.22 1015.15 2992.7 1015.68C2994.19 1016.21 2995.72 1016.47 2997.28 1016.47C2998.6 1016.47 2999.66 1016.33 3000.48 1016.04C3001.3 1015.75 3001.9 1015.37 3002.28 1014.89C3002.66 1014.38 3002.86 1013.82 3002.86 1013.2C3002.86 1012.43 3002.58 1011.82 3002.03 1011.36C3001.48 1010.88 3000.76 1010.51 2999.87 1010.24C2999 1009.96 2998.03 1009.69 2996.95 1009.45C2995.9 1009.21 2994.83 1008.94 2993.75 1008.62C2992.69 1008.29 2991.72 1007.87 2990.83 1007.36C2989.97 1006.84 2989.26 1006.14 2988.71 1005.28C2988.16 1004.41 2987.88 1003.31 2987.88 1001.96C2987.88 1000.6 2988.24 999.348 2988.96 998.22C2989.7 997.068 2990.82 996.156 2992.31 995.484C2993.82 994.788 2995.73 994.44 2998.03 994.44C2999.54 994.44 3001.04 994.632 3002.53 995.016C3004.02 995.4 3005.32 995.952 3006.42 996.672L3004.94 1000.31C3003.82 999.636 3002.65 999.144 3001.45 998.832C3000.25 998.496 2999.1 998.328 2998 998.328C2996.7 998.328 2995.64 998.484 2994.83 998.796C2994.04 999.108 2993.45 999.516 2993.06 1000.02C2992.7 1000.52 2992.52 1001.1 2992.52 1001.75C2992.52 1002.52 2992.79 1003.14 2993.32 1003.62C2993.87 1004.08 2994.58 1004.44 2995.44 1004.7C2996.33 1004.96 2997.31 1005.23 2998.39 1005.49C2999.47 1005.73 3000.54 1006.01 3001.6 1006.32C3002.68 1006.63 3003.65 1007.04 3004.51 1007.54C3005.4 1008.05 3006.11 1008.73 3006.64 1009.6C3007.19 1010.46 3007.46 1011.55 3007.46 1012.87C3007.46 1014.22 3007.09 1015.46 3006.35 1016.62C3005.63 1017.74 3004.51 1018.66 3003 1019.35C3001.49 1020.02 2999.58 1020.36 2997.28 1020.36ZM3016.42 1005.28H3028.95V1009.13H3016.42V1005.28ZM3016.78 1016.08H3031V1020H3012.1V994.8H3030.5V998.724H3016.78V1016.08ZM3036.22 1020V994.8H3046.59C3048.82 994.8 3050.73 995.16 3052.31 995.88C3053.92 996.6 3055.16 997.632 3056.02 998.976C3056.89 1000.32 3057.32 1001.92 3057.32 1003.76C3057.32 1005.61 3056.89 1007.21 3056.02 1008.55C3055.16 1009.87 3053.92 1010.89 3052.31 1011.61C3050.73 1012.31 3048.82 1012.66 3046.59 1012.66H3038.81L3040.9 1010.53V1020H3036.22ZM3052.71 1020L3046.34 1010.86H3051.34L3057.75 1020H3052.71ZM3040.9 1011.04L3038.81 1008.8H3046.37C3048.44 1008.8 3049.99 1008.36 3051.02 1007.47C3052.07 1006.58 3052.6 1005.35 3052.6 1003.76C3052.6 1002.16 3052.07 1000.92 3051.02 1000.06C3049.99 999.192 3048.44 998.76 3046.37 998.76H3038.81L3040.9 996.456V1011.04ZM3070.01 1020L3058.99 994.8H3064.07L3073.89 1017.59H3070.98L3080.91 994.8H3085.59L3074.61 1020H3070.01ZM3088.25 1020V994.8H3092.93V1020H3088.25ZM3111.41 1020.36C3109.49 1020.36 3107.71 1020.05 3106.05 1019.42C3104.42 1018.78 3102.99 1017.88 3101.77 1016.72C3100.57 1015.55 3099.63 1014.17 3098.96 1012.58C3098.29 1011 3097.95 1009.27 3097.95 1007.4C3097.95 1005.53 3098.29 1003.8 3098.96 1002.22C3099.63 1000.63 3100.58 999.264 3101.8 998.112C3103.03 996.936 3104.45 996.036 3106.09 995.412C3107.72 994.764 3109.51 994.44 3111.45 994.44C3113.51 994.44 3115.4 994.8 3117.1 995.52C3118.81 996.216 3120.25 997.26 3121.42 998.652L3118.4 1001.5C3117.49 1000.51 3116.47 999.78 3115.34 999.3C3114.21 998.796 3112.99 998.544 3111.67 998.544C3110.35 998.544 3109.13 998.76 3108.03 999.192C3106.95 999.624 3106 1000.24 3105.19 1001.03C3104.39 1001.82 3103.77 1002.76 3103.31 1003.84C3102.88 1004.92 3102.67 1006.1 3102.67 1007.4C3102.67 1008.7 3102.88 1009.88 3103.31 1010.96C3103.77 1012.04 3104.39 1012.98 3105.19 1013.77C3106 1014.56 3106.95 1015.18 3108.03 1015.61C3109.13 1016.04 3110.35 1016.26 3111.67 1016.26C3112.99 1016.26 3114.21 1016.02 3115.34 1015.54C3116.47 1015.03 3117.49 1014.28 3118.4 1013.27L3121.42 1016.15C3120.25 1017.52 3118.81 1018.56 3117.1 1019.28C3115.4 1020 3113.5 1020.36 3111.41 1020.36ZM3130.23 1005.28H3142.75V1009.13H3130.23V1005.28ZM3130.59 1016.08H3144.81V1020H3125.91V994.8H3144.3V998.724H3130.59V1016.08Z" fill="#F8F8F8"/>
<path d="M2872.86 580C2872.86 575.286 2872.86 572.929 2874.32 571.464C2875.79 570 2878.15 570 2882.86 570H3249.86C3254.57 570 3256.93 570 3258.39 571.464C3259.86 572.929 3259.86 575.286 3259.86 580V953H2872.86V580Z" fill="#F1CBA2"/>
<path d="M3086.14 602L3174.36 652.936V754.808L3086.14 805.744L2997.91 754.808V652.936L3086.14 602Z" fill="#0067A8"/>
<path fill-rule="evenodd" clip-rule="evenodd" d="M3089.6 655.19C3088.42 654.507 3087.08 654.148 3085.71 654.148C3084.35 654.148 3083.01 654.507 3081.83 655.19L3045.18 676.344C3043.99 677.027 3043.01 678.008 3042.33 679.189C3041.65 680.37 3041.29 681.71 3041.29 683.075V725.388C3041.29 728.165 3042.77 730.733 3045.18 732.119L3081.83 753.278C3083.01 753.96 3084.35 754.319 3085.71 754.319C3087.08 754.319 3088.42 753.96 3089.6 753.278L3126.25 732.123C3127.43 731.441 3128.41 730.459 3129.1 729.277C3129.78 728.095 3130.14 726.753 3130.14 725.388V683.075C3130.14 681.71 3129.78 680.37 3129.09 679.189C3128.41 678.008 3127.43 677.027 3126.25 676.344L3089.6 655.19ZM3085.16 660.956C3085.33 660.858 3085.52 660.807 3085.71 660.807C3085.91 660.807 3086.1 660.858 3086.27 660.956L3120.14 680.511L3085.71 700.387L3051.28 680.511L3085.16 660.956ZM3047.95 686.287V725.393C3047.95 725.793 3048.17 726.157 3048.51 726.353L3082.38 745.908V706.162L3047.95 686.287ZM3089.04 745.908L3122.92 726.353C3123.09 726.255 3123.23 726.115 3123.32 725.947C3123.42 725.779 3123.47 725.588 3123.47 725.393V686.282L3089.04 706.157V745.903V745.908Z" fill="#F8F8F8"/>
<path d="M3019.39 768.948L3084.79 806.711V882.237L3019.39 920L2953.98 882.237V806.711L3019.39 768.948Z" fill="#0067A8"/>
<path d="M3019.39 768.948L3084.79 806.711V882.237L3019.39 920L2953.98 882.237V806.711L3019.39 768.948Z" fill="black" fill-opacity="0.2"/>
<path fill-rule="evenodd" clip-rule="evenodd" d="M3021.94 808.382C3021.07 807.876 3020.07 807.61 3019.06 807.61C3018.05 807.61 3017.05 807.876 3016.18 808.382L2989.01 824.066C2988.13 824.571 2987.4 825.299 2986.9 826.174C2986.39 827.05 2986.13 828.044 2986.12 829.055V860.426C2986.12 862.484 2987.23 864.388 2989.01 865.415L3016.18 881.102C3017.05 881.608 3018.05 881.875 3019.06 881.875C3020.07 881.875 3021.07 881.608 3021.94 881.102L3049.11 865.419C3049.99 864.913 3050.72 864.185 3051.22 863.309C3051.73 862.432 3052 861.438 3051.99 860.426V829.055C3051.99 828.044 3051.73 827.05 3051.22 826.174C3050.72 825.299 3049.99 824.571 3049.11 824.066L3021.94 808.382ZM3018.65 812.657C3018.77 812.585 3018.92 812.547 3019.06 812.547C3019.2 812.547 3019.35 812.585 3019.47 812.657L3044.58 827.155L3019.06 841.89L2993.54 827.155L3018.65 812.657ZM2991.07 831.436V860.429C2991.07 860.726 2991.22 860.996 2991.48 861.141L3016.59 875.639V846.172L2991.07 831.436ZM3021.53 875.639L3046.64 861.141C3046.77 861.068 3046.87 860.965 3046.94 860.84C3047.02 860.715 3047.05 860.573 3047.05 860.429V831.433L3021.53 846.168V875.635V875.639Z" fill="#F8F8F8"/>
<path d="M3131.76 781.243L3176.61 807.137V858.924L3131.76 884.817L3086.91 858.924V807.137L3131.76 781.243Z" fill="#0067A8"/>
<path d="M3131.76 781.243L3176.61 807.137V858.924L3131.76 884.817L3086.91 858.924V807.137L3131.76 781.243Z" fill="white" fill-opacity="0.2"/>
<path fill-rule="evenodd" clip-rule="evenodd" d="M3133.53 808.282C3132.93 807.935 3132.25 807.753 3131.55 807.753C3130.86 807.753 3130.18 807.935 3129.58 808.282L3110.94 819.036C3110.34 819.383 3109.85 819.882 3109.5 820.482C3109.15 821.083 3108.97 821.764 3108.97 822.457V843.968C3108.97 845.379 3109.72 846.684 3110.94 847.389L3129.58 858.145C3130.18 858.492 3130.86 858.675 3131.55 858.675C3132.25 858.675 3132.93 858.492 3133.53 858.145L3152.16 847.391C3152.76 847.044 3153.26 846.545 3153.61 845.944C3153.95 845.343 3154.13 844.662 3154.13 843.968V822.457C3154.13 821.764 3153.95 821.083 3153.6 820.482C3153.26 819.882 3152.76 819.383 3152.16 819.036L3133.53 808.282ZM3131.27 811.213C3131.36 811.164 3131.45 811.138 3131.55 811.138C3131.65 811.138 3131.75 811.164 3131.83 811.213L3149.05 821.154L3131.55 831.258L3114.05 821.154L3131.27 811.213ZM3112.36 824.09V843.97C3112.36 844.173 3112.46 844.358 3112.64 844.458L3129.86 854.399V834.194L3112.36 824.09ZM3133.25 854.399L3150.46 844.458C3150.55 844.408 3150.62 844.337 3150.67 844.252C3150.72 844.166 3150.75 844.069 3150.75 843.97V824.088L3133.25 834.191V854.396V854.399Z" fill="#F8F8F8"/>
<path d="M2872.86 447H3259.86V550C3259.86 552.761 3257.62 555 3254.86 555H2877.86C2875.1 555 2872.86 552.761 2872.86 550V447Z" fill="#FB6233"/>
<path d="M2958.33 514.36C2956.41 514.36 2954.62 514.048 2952.96 513.424C2951.33 512.776 2949.9 511.876 2948.68 510.724C2947.48 509.548 2946.54 508.168 2945.87 506.584C2945.2 505 2944.86 503.272 2944.86 501.4C2944.86 499.528 2945.2 497.8 2945.87 496.216C2946.54 494.632 2947.49 493.264 2948.71 492.112C2949.94 490.936 2951.37 490.036 2953 489.412C2954.63 488.764 2956.42 488.44 2958.36 488.44C2960.43 488.44 2962.31 488.8 2964.01 489.52C2965.72 490.216 2967.16 491.26 2968.33 492.652L2965.31 495.496C2964.4 494.512 2963.38 493.78 2962.25 493.3C2961.12 492.796 2959.9 492.544 2958.58 492.544C2957.26 492.544 2956.05 492.76 2954.94 493.192C2953.86 493.624 2952.91 494.236 2952.1 495.028C2951.31 495.82 2950.68 496.756 2950.23 497.836C2949.79 498.916 2949.58 500.104 2949.58 501.4C2949.58 502.696 2949.79 503.884 2950.23 504.964C2950.68 506.044 2951.31 506.98 2952.1 507.772C2952.91 508.564 2953.86 509.176 2954.94 509.608C2956.05 510.04 2957.26 510.256 2958.58 510.256C2959.9 510.256 2961.12 510.016 2962.25 509.536C2963.38 509.032 2964.4 508.276 2965.31 507.268L2968.33 510.148C2967.16 511.516 2965.72 512.56 2964.01 513.28C2962.31 514 2960.41 514.36 2958.33 514.36ZM2984.1 514.36C2982.13 514.36 2980.32 514.036 2978.66 513.388C2977.01 512.74 2975.57 511.84 2974.34 510.688C2973.12 509.512 2972.17 508.144 2971.5 506.584C2970.83 505 2970.49 503.272 2970.49 501.4C2970.49 499.528 2970.83 497.812 2971.5 496.252C2972.17 494.668 2973.12 493.3 2974.34 492.148C2975.57 490.972 2977.01 490.06 2978.66 489.412C2980.32 488.764 2982.12 488.44 2984.06 488.44C2986.03 488.44 2987.83 488.764 2989.46 489.412C2991.12 490.06 2992.56 490.972 2993.78 492.148C2995.01 493.3 2995.95 494.668 2996.63 496.252C2997.3 497.812 2997.63 499.528 2997.63 501.4C2997.63 503.272 2997.3 505 2996.63 506.584C2995.95 508.168 2995.01 509.536 2993.78 510.688C2992.56 511.84 2991.12 512.74 2989.46 513.388C2987.83 514.036 2986.04 514.36 2984.1 514.36ZM2984.06 510.256C2985.33 510.256 2986.51 510.04 2987.59 509.608C2988.67 509.176 2989.61 508.564 2990.4 507.772C2991.19 506.956 2991.8 506.02 2992.23 504.964C2992.69 503.884 2992.92 502.696 2992.92 501.4C2992.92 500.104 2992.69 498.928 2992.23 497.872C2991.8 496.792 2991.19 495.856 2990.4 495.064C2989.61 494.248 2988.67 493.624 2987.59 493.192C2986.51 492.76 2985.33 492.544 2984.06 492.544C2982.79 492.544 2981.61 492.76 2980.53 493.192C2979.48 493.624 2978.54 494.248 2977.73 495.064C2976.93 495.856 2976.31 496.792 2975.85 497.872C2975.42 498.928 2975.21 500.104 2975.21 501.4C2975.21 502.672 2975.42 503.848 2975.85 504.928C2976.31 506.008 2976.93 506.956 2977.73 507.772C2978.52 508.564 2979.45 509.176 2980.53 509.608C2981.61 510.04 2982.79 510.256 2984.06 510.256ZM3002.59 514V488.8H3006.45L3022.25 508.204H3020.34V488.8H3024.99V514H3021.13L3005.33 494.596H3007.24V514H3002.59ZM3036.85 514V492.76H3028.5V488.8H3049.88V492.76H3041.53V514H3036.85ZM3048.57 514L3059.91 488.8H3064.51L3075.89 514H3070.99L3061.24 491.284H3063.11L3053.39 514H3048.57ZM3053.79 508.168L3055.05 504.496H3068.65L3069.91 508.168H3053.79ZM3079.09 514V488.8H3083.77V514H3079.09ZM3090.59 514V488.8H3094.44L3110.25 508.204H3108.34V488.8H3112.98V514H3109.13L3093.33 494.596H3095.24V514H3090.59ZM3124.06 499.276H3136.58V503.128H3124.06V499.276ZM3124.42 510.076H3138.64V514H3119.74V488.8H3138.13V492.724H3124.42V510.076ZM3143.85 514V488.8H3154.22C3156.45 488.8 3158.36 489.16 3159.94 489.88C3161.55 490.6 3162.79 491.632 3163.65 492.976C3164.52 494.32 3164.95 495.916 3164.95 497.764C3164.95 499.612 3164.52 501.208 3163.65 502.552C3162.79 503.872 3161.55 504.892 3159.94 505.612C3158.36 506.308 3156.45 506.656 3154.22 506.656H3146.44L3148.53 504.532V514H3143.85ZM3160.34 514L3153.97 504.856H3158.97L3165.38 514H3160.34ZM3148.53 505.036L3146.44 502.804H3154C3156.07 502.804 3157.62 502.36 3158.65 501.472C3159.7 500.584 3160.23 499.348 3160.23 497.764C3160.23 496.156 3159.7 494.92 3158.65 494.056C3157.62 493.192 3156.07 492.76 3154 492.76H3146.44L3148.53 490.456V505.036ZM3178 514.36C3176.03 514.36 3174.14 514.084 3172.34 513.532C3170.54 512.956 3169.12 512.224 3168.06 511.336L3169.68 507.7C3170.69 508.492 3171.94 509.152 3173.42 509.68C3174.91 510.208 3176.44 510.472 3178 510.472C3179.32 510.472 3180.38 510.328 3181.2 510.04C3182.02 509.752 3182.62 509.368 3183 508.888C3183.38 508.384 3183.58 507.82 3183.58 507.196C3183.58 506.428 3183.3 505.816 3182.75 505.36C3182.2 504.88 3181.48 504.508 3180.59 504.244C3179.72 503.956 3178.75 503.692 3177.67 503.452C3176.62 503.212 3175.55 502.936 3174.47 502.624C3173.41 502.288 3172.44 501.868 3171.55 501.364C3170.69 500.836 3169.98 500.14 3169.43 499.276C3168.88 498.412 3168.6 497.308 3168.6 495.964C3168.6 494.596 3168.96 493.348 3169.68 492.22C3170.42 491.068 3171.54 490.156 3173.03 489.484C3174.54 488.788 3176.45 488.44 3178.75 488.44C3180.26 488.44 3181.76 488.632 3183.25 489.016C3184.74 489.4 3186.04 489.952 3187.14 490.672L3185.66 494.308C3184.54 493.636 3183.37 493.144 3182.17 492.832C3180.97 492.496 3179.82 492.328 3178.72 492.328C3177.42 492.328 3176.36 492.484 3175.55 492.796C3174.76 493.108 3174.17 493.516 3173.78 494.02C3173.42 494.524 3173.24 495.1 3173.24 495.748C3173.24 496.516 3173.51 497.14 3174.04 497.62C3174.59 498.076 3175.3 498.436 3176.16 498.7C3177.05 498.964 3178.03 499.228 3179.11 499.492C3180.19 499.732 3181.26 500.008 3182.32 500.32C3183.4 500.632 3184.37 501.04 3185.23 501.544C3186.12 502.048 3186.83 502.732 3187.36 503.596C3187.91 504.46 3188.18 505.552 3188.18 506.872C3188.18 508.216 3187.81 509.464 3187.07 510.616C3186.35 511.744 3185.23 512.656 3183.72 513.352C3182.21 514.024 3180.3 514.36 3178 514.36Z" fill="#F8F8F8"/>
<path d="M2872.86 74C2872.86 69.286 2872.86 66.9289 2874.32 65.4645C2875.79 64 2878.15 64 2882.86 64H3249.86C3254.57 64 3256.93 64 3258.39 65.4645C3259.86 66.9289 3259.86 69.286 3259.86 74V447H2872.86V74Z" fill="#F1CBA2"/>
<path d="M3066.73 154L3154.96 204.936V306.808L3066.73 357.744L2978.51 306.808V204.936L3066.73 154Z" fill="#0067A8"/>
<path fill-rule="evenodd" clip-rule="evenodd" d="M3070.19 207.19C3069.01 206.507 3067.67 206.148 3066.31 206.148C3064.94 206.148 3063.6 206.507 3062.42 207.19L3025.77 228.344C3024.59 229.027 3023.61 230.008 3022.92 231.189C3022.24 232.37 3021.88 233.71 3021.88 235.075V277.388C3021.88 280.165 3023.37 282.733 3025.77 284.119L3062.42 305.278C3063.6 305.96 3064.94 306.319 3066.31 306.319C3067.67 306.319 3069.01 305.96 3070.19 305.278L3106.84 284.123C3108.03 283.441 3109.01 282.459 3109.69 281.277C3110.37 280.095 3110.73 278.753 3110.73 277.388V235.075C3110.73 233.71 3110.37 232.37 3109.69 231.189C3109.01 230.008 3108.03 229.027 3106.84 228.344L3070.19 207.19ZM3065.75 212.956C3065.92 212.858 3066.11 212.807 3066.31 212.807C3066.5 212.807 3066.69 212.858 3066.86 212.956L3100.74 232.511L3066.31 252.387L3031.88 232.511L3065.75 212.956ZM3028.55 238.287V277.393C3028.55 277.793 3028.76 278.157 3029.1 278.353L3062.97 297.908V258.162L3028.55 238.287ZM3069.64 297.908L3103.51 278.353C3103.68 278.255 3103.82 278.115 3103.92 277.947C3104.02 277.779 3104.07 277.588 3104.07 277.393V238.282L3069.64 258.157V297.903V297.908Z" fill="#F8F8F8"/>
</svg>
