<svg width="1384" height="940" viewBox="0 0 1384 940" fill="none" xmlns="http://www.w3.org/2000/svg">
<g clip-path="url(#clip0_202_462)">
<rect y="182" width="500" height="94.6146" rx="5" fill="#FB6233"/>
<path d="M64.2101 241.065C62.8771 241.065 61.6301 240.786 60.4692 240.227C59.3082 239.668 58.3622 238.862 57.6312 237.808L59.5017 235.615C60.1252 236.475 60.8239 237.142 61.5979 237.615C62.3934 238.066 63.2641 238.292 64.2101 238.292C66.79 238.292 68.08 236.765 68.08 233.713V221.039H59.9209V218.233H71.2727V233.551C71.2727 236.067 70.6707 237.948 69.4667 239.195C68.2842 240.442 66.532 241.065 64.2101 241.065ZM80.7764 227.972H92.3861V230.713H80.7764V227.972ZM81.0666 238.002H94.2243V240.807H77.8417V218.233H93.7728V221.039H81.0666V238.002ZM99.4462 240.807V218.233H102.091L117.022 236.776H115.635V218.233H118.86V240.807H116.216L101.284 222.264H102.671V240.807H99.4462ZM128.455 235.357L128.294 231.423L141.097 218.233H144.773L134.873 228.682L133.067 230.681L128.455 235.357ZM125.617 240.807V218.233H128.842V240.807H125.617ZM141.613 240.807L132.357 230.036L134.518 227.65L145.386 240.807H141.613ZM148.796 240.807V218.233H152.021V240.807H148.796ZM158.78 240.807V218.233H161.424L176.356 236.776H174.969V218.233H178.194V240.807H175.549L160.618 222.264H162.005V240.807H158.78ZM191.53 241.065C189.81 241.065 188.165 240.807 186.596 240.291C185.026 239.754 183.79 239.066 182.887 238.227L184.08 235.712C184.94 236.464 186.037 237.088 187.37 237.582C188.703 238.077 190.089 238.324 191.53 238.324C192.841 238.324 193.905 238.174 194.722 237.873C195.539 237.572 196.141 237.163 196.528 236.647C196.915 236.11 197.109 235.508 197.109 234.841C197.109 234.067 196.851 233.444 196.335 232.971C195.84 232.498 195.185 232.122 194.368 231.842C193.572 231.541 192.691 231.283 191.723 231.068C190.756 230.853 189.778 230.606 188.789 230.326C187.821 230.025 186.929 229.649 186.112 229.198C185.316 228.746 184.671 228.144 184.177 227.392C183.682 226.618 183.435 225.629 183.435 224.425C183.435 223.264 183.736 222.2 184.338 221.232C184.962 220.243 185.908 219.458 187.176 218.878C188.466 218.276 190.1 217.975 192.078 217.975C193.389 217.975 194.69 218.147 195.98 218.491C197.27 218.835 198.388 219.329 199.334 219.974L198.27 222.554C197.302 221.909 196.281 221.447 195.206 221.168C194.131 220.867 193.088 220.716 192.078 220.716C190.81 220.716 189.767 220.877 188.95 221.2C188.133 221.522 187.531 221.952 187.144 222.49C186.778 223.027 186.596 223.629 186.596 224.296C186.596 225.091 186.843 225.725 187.337 226.198C187.853 226.671 188.509 227.048 189.305 227.327C190.122 227.607 191.014 227.865 191.981 228.101C192.949 228.316 193.916 228.563 194.884 228.843C195.873 229.122 196.765 229.488 197.56 229.939C198.377 230.391 199.033 230.993 199.528 231.745C200.022 232.498 200.269 233.465 200.269 234.648C200.269 235.787 199.958 236.851 199.334 237.84C198.711 238.808 197.743 239.593 196.432 240.195C195.142 240.775 193.508 241.065 191.53 241.065ZM213.641 240.807V218.233H216.286L226.412 235.293H224.993L234.99 218.233H237.635L237.667 240.807H234.571L234.539 223.103H235.281L226.38 238.066H224.896L215.931 223.103H216.737V240.807H213.641ZM241.024 240.807L251.247 218.233H254.439L264.695 240.807H261.308L252.182 220.039H253.472L244.345 240.807H241.024ZM245.377 235.164L246.248 232.584H258.954L259.889 235.164H245.377ZM268.062 240.807V218.233H271.287V240.807H268.062ZM278.046 240.807V218.233H280.69L295.621 236.776H294.235V218.233H297.46V240.807H294.815L279.884 222.264H281.27V240.807H278.046ZM319.456 241.065C317.736 241.065 316.091 240.807 314.522 240.291C312.953 239.754 311.716 239.066 310.813 238.227L312.007 235.712C312.867 236.464 313.963 237.088 315.296 237.582C316.629 238.077 318.016 238.324 319.456 238.324C320.768 238.324 321.832 238.174 322.649 237.873C323.466 237.572 324.068 237.163 324.455 236.647C324.842 236.11 325.035 235.508 325.035 234.841C325.035 234.067 324.777 233.444 324.261 232.971C323.767 232.498 323.111 232.122 322.294 231.842C321.499 231.541 320.617 231.283 319.65 231.068C318.682 230.853 317.704 230.606 316.715 230.326C315.747 230.025 314.855 229.649 314.038 229.198C313.243 228.746 312.598 228.144 312.103 227.392C311.609 226.618 311.362 225.629 311.362 224.425C311.362 223.264 311.663 222.2 312.265 221.232C312.888 220.243 313.834 219.458 315.102 218.878C316.392 218.276 318.026 217.975 320.004 217.975C321.316 217.975 322.617 218.147 323.907 218.491C325.197 218.835 326.314 219.329 327.26 219.974L326.196 222.554C325.229 221.909 324.208 221.447 323.133 221.168C322.058 220.867 321.015 220.716 320.004 220.716C318.736 220.716 317.693 220.877 316.876 221.2C316.059 221.522 315.457 221.952 315.07 222.49C314.705 223.027 314.522 223.629 314.522 224.296C314.522 225.091 314.769 225.725 315.264 226.198C315.78 226.671 316.435 227.048 317.231 227.327C318.048 227.607 318.94 227.865 319.908 228.101C320.875 228.316 321.843 228.563 322.81 228.843C323.799 229.122 324.691 229.488 325.487 229.939C326.304 230.391 326.959 230.993 327.454 231.745C327.948 232.498 328.196 233.465 328.196 234.648C328.196 235.787 327.884 236.851 327.26 237.84C326.637 238.808 325.67 239.593 324.358 240.195C323.068 240.775 321.434 241.065 319.456 241.065ZM335.842 227.972H347.452V230.713H335.842V227.972ZM336.132 238.002H349.29V240.807H332.907V218.233H348.838V221.039H336.132V238.002ZM354.512 240.807V218.233H363.316C365.294 218.233 366.981 218.545 368.379 219.168C369.776 219.792 370.851 220.695 371.604 221.877C372.356 223.06 372.733 224.468 372.733 226.102C372.733 227.736 372.356 229.144 371.604 230.326C370.851 231.487 369.776 232.38 368.379 233.003C366.981 233.627 365.294 233.938 363.316 233.938H356.285L357.737 232.455V240.807H354.512ZM369.604 240.807L363.864 232.616H367.315L373.12 240.807H369.604ZM357.737 232.777L356.285 231.197H363.219C365.283 231.197 366.842 230.756 367.895 229.875C368.97 228.972 369.508 227.714 369.508 226.102C369.508 224.489 368.97 223.242 367.895 222.361C366.842 221.479 365.283 221.039 363.219 221.039H356.285L357.737 219.426V232.777ZM384.457 240.807L374.524 218.233H378.007L387.134 239.066H385.134L394.325 218.233H397.55L387.65 240.807H384.457ZM403.364 227.972H414.974V230.713H403.364V227.972ZM403.654 238.002H416.812V240.807H400.429V218.233H416.36V221.039H403.654V238.002ZM422.034 240.807V218.233H430.838C432.816 218.233 434.503 218.545 435.901 219.168C437.298 219.792 438.373 220.695 439.126 221.877C439.878 223.06 440.254 224.468 440.254 226.102C440.254 227.736 439.878 229.144 439.126 230.326C438.373 231.487 437.298 232.38 435.901 233.003C434.503 233.627 432.816 233.938 430.838 233.938H423.807L425.259 232.455V240.807H422.034ZM437.126 240.807L431.386 232.616H434.837L440.641 240.807H437.126ZM425.259 232.777L423.807 231.197H430.741C432.805 231.197 434.364 230.756 435.417 229.875C436.492 228.972 437.029 227.714 437.029 226.102C437.029 224.489 436.492 223.242 435.417 222.361C434.364 221.479 432.805 221.039 430.741 221.039H423.807L425.259 219.426V232.777Z" fill="#F8F8F8"/>
<rect y="310" width="500" height="439" rx="5" fill="#FFD633"/>
<rect x="75" y="353.752" width="350" height="50" rx="5.1495" fill="#F8F8F8"/>
<path d="M221.914 387.444C220.922 387.444 219.994 387.236 219.13 386.82C218.266 386.404 217.562 385.804 217.018 385.02L218.41 383.388C218.874 384.028 219.394 384.524 219.97 384.876C220.562 385.212 221.21 385.38 221.914 385.38C223.834 385.38 224.794 384.244 224.794 381.972V372.54H218.722V370.452H227.17V381.852C227.17 383.724 226.722 385.124 225.826 386.052C224.946 386.98 223.642 387.444 221.914 387.444ZM239.643 387.444C238.363 387.444 237.171 387.228 236.067 386.796C234.979 386.364 234.035 385.764 233.235 384.996C232.435 384.212 231.811 383.3 231.363 382.26C230.915 381.22 230.691 380.084 230.691 378.852C230.691 377.62 230.915 376.484 231.363 375.444C231.811 374.404 232.435 373.5 233.235 372.732C234.035 371.948 234.979 371.34 236.067 370.908C237.155 370.476 238.347 370.26 239.643 370.26C240.923 370.26 242.099 370.476 243.171 370.908C244.259 371.324 245.203 371.924 246.003 372.708C246.819 373.476 247.443 374.38 247.875 375.42C248.323 376.46 248.547 377.604 248.547 378.852C248.547 380.1 248.323 381.244 247.875 382.284C247.443 383.324 246.819 384.236 246.003 385.02C245.203 385.788 244.259 386.388 243.171 386.82C242.099 387.236 240.923 387.444 239.643 387.444ZM239.643 385.308C240.571 385.308 241.427 385.148 242.211 384.828C243.011 384.508 243.699 384.06 244.275 383.484C244.867 382.892 245.323 382.204 245.643 381.42C245.979 380.636 246.147 379.78 246.147 378.852C246.147 377.924 245.979 377.068 245.643 376.284C245.323 375.5 244.867 374.82 244.275 374.244C243.699 373.652 243.011 373.196 242.211 372.876C241.427 372.556 240.571 372.396 239.643 372.396C238.699 372.396 237.827 372.556 237.027 372.876C236.243 373.196 235.555 373.652 234.963 374.244C234.371 374.82 233.907 375.5 233.571 376.284C233.251 377.068 233.091 377.924 233.091 378.852C233.091 379.78 233.251 380.636 233.571 381.42C233.907 382.204 234.371 382.892 234.963 383.484C235.555 384.06 236.243 384.508 237.027 384.828C237.827 385.148 238.699 385.308 239.643 385.308ZM252.215 387.252V370.452H259.751C261.687 370.452 263.175 370.844 264.215 371.628C265.255 372.396 265.775 373.452 265.775 374.796C265.775 375.708 265.567 376.476 265.151 377.1C264.751 377.724 264.207 378.204 263.519 378.54C262.831 378.876 262.087 379.044 261.287 379.044L261.719 378.324C262.679 378.324 263.527 378.492 264.263 378.828C264.999 379.164 265.583 379.66 266.015 380.316C266.447 380.956 266.663 381.756 266.663 382.716C266.663 384.156 266.119 385.276 265.031 386.076C263.959 386.86 262.359 387.252 260.231 387.252H252.215ZM254.615 385.308H260.135C261.463 385.308 262.479 385.084 263.183 384.636C263.887 384.188 264.239 383.484 264.239 382.524C264.239 381.548 263.887 380.836 263.183 380.388C262.479 379.94 261.463 379.716 260.135 379.716H254.399V377.772H259.535C260.751 377.772 261.695 377.548 262.367 377.1C263.039 376.652 263.375 375.98 263.375 375.084C263.375 374.188 263.039 373.516 262.367 373.068C261.695 372.62 260.751 372.396 259.535 372.396H254.615V385.308ZM275.275 387.444C273.995 387.444 272.771 387.252 271.603 386.868C270.435 386.468 269.515 385.956 268.843 385.332L269.731 383.46C270.371 384.02 271.187 384.484 272.179 384.852C273.171 385.22 274.203 385.404 275.275 385.404C276.251 385.404 277.043 385.292 277.651 385.068C278.259 384.844 278.707 384.54 278.995 384.156C279.283 383.756 279.427 383.308 279.427 382.812C279.427 382.236 279.235 381.772 278.851 381.42C278.483 381.068 277.995 380.788 277.387 380.58C276.795 380.356 276.139 380.164 275.419 380.004C274.699 379.844 273.971 379.66 273.235 379.452C272.515 379.228 271.851 378.948 271.243 378.612C270.651 378.276 270.171 377.828 269.803 377.268C269.435 376.692 269.251 375.956 269.251 375.06C269.251 374.196 269.475 373.404 269.923 372.684C270.387 371.948 271.091 371.364 272.035 370.932C272.995 370.484 274.211 370.26 275.683 370.26C276.659 370.26 277.627 370.388 278.587 370.644C279.547 370.9 280.379 371.268 281.083 371.748L280.291 373.668C279.571 373.188 278.811 372.844 278.011 372.636C277.211 372.412 276.435 372.3 275.683 372.3C274.739 372.3 273.963 372.42 273.355 372.66C272.747 372.9 272.299 373.22 272.011 373.62C271.739 374.02 271.603 374.468 271.603 374.964C271.603 375.556 271.787 376.028 272.155 376.38C272.539 376.732 273.027 377.012 273.619 377.22C274.227 377.428 274.891 377.62 275.611 377.796C276.331 377.956 277.051 378.14 277.771 378.348C278.507 378.556 279.171 378.828 279.763 379.164C280.371 379.5 280.859 379.948 281.227 380.508C281.595 381.068 281.779 381.788 281.779 382.668C281.779 383.516 281.547 384.308 281.083 385.044C280.619 385.764 279.899 386.348 278.923 386.796C277.963 387.228 276.747 387.444 275.275 387.444Z" fill="black"/>
<rect x="75" y="414.052" width="350" height="50" rx="5.1495" fill="#F8F8F8"/>
<path d="M218.324 447.744C216.116 447.744 214.38 447.112 213.116 445.848C211.852 444.584 211.22 442.736 211.22 440.304V430.752H213.62V440.208C213.62 442.08 214.028 443.448 214.844 444.312C215.676 445.176 216.844 445.608 218.348 445.608C219.868 445.608 221.036 445.176 221.852 444.312C222.684 443.448 223.1 442.08 223.1 440.208V430.752H225.428V440.304C225.428 442.736 224.796 444.584 223.532 445.848C222.284 447.112 220.548 447.744 218.324 447.744ZM235.244 447.744C233.964 447.744 232.74 447.552 231.572 447.168C230.404 446.768 229.484 446.256 228.812 445.632L229.7 443.76C230.34 444.32 231.156 444.784 232.148 445.152C233.14 445.52 234.172 445.704 235.244 445.704C236.22 445.704 237.012 445.592 237.62 445.368C238.228 445.144 238.676 444.84 238.964 444.456C239.252 444.056 239.396 443.608 239.396 443.112C239.396 442.536 239.204 442.072 238.82 441.72C238.452 441.368 237.964 441.088 237.356 440.88C236.764 440.656 236.108 440.464 235.388 440.304C234.668 440.144 233.94 439.96 233.204 439.752C232.484 439.528 231.82 439.248 231.212 438.912C230.62 438.576 230.14 438.128 229.772 437.568C229.404 436.992 229.22 436.256 229.22 435.36C229.22 434.496 229.444 433.704 229.892 432.984C230.356 432.248 231.06 431.664 232.004 431.232C232.964 430.784 234.18 430.56 235.652 430.56C236.628 430.56 237.596 430.688 238.556 430.944C239.516 431.2 240.348 431.568 241.052 432.048L240.26 433.968C239.54 433.488 238.78 433.144 237.98 432.936C237.18 432.712 236.404 432.6 235.652 432.6C234.708 432.6 233.932 432.72 233.324 432.96C232.716 433.2 232.268 433.52 231.98 433.92C231.708 434.32 231.572 434.768 231.572 435.264C231.572 435.856 231.756 436.328 232.124 436.68C232.508 437.032 232.996 437.312 233.588 437.52C234.196 437.728 234.86 437.92 235.58 438.096C236.3 438.256 237.02 438.44 237.74 438.648C238.476 438.856 239.14 439.128 239.732 439.464C240.34 439.8 240.828 440.248 241.196 440.808C241.564 441.368 241.748 442.088 241.748 442.968C241.748 443.816 241.516 444.608 241.052 445.344C240.588 446.064 239.868 446.648 238.892 447.096C237.932 447.528 236.716 447.744 235.244 447.744ZM247.438 438H256.078V440.04H247.438V438ZM247.654 445.464H257.446V447.552H245.254V430.752H257.11V432.84H247.654V445.464ZM261.333 447.552V430.752H267.885C269.357 430.752 270.613 430.984 271.653 431.448C272.693 431.912 273.493 432.584 274.053 433.464C274.613 434.344 274.893 435.392 274.893 436.608C274.893 437.824 274.613 438.872 274.053 439.752C273.493 440.616 272.693 441.28 271.653 441.744C270.613 442.208 269.357 442.44 267.885 442.44H262.653L263.733 441.336V447.552H261.333ZM272.565 447.552L268.293 441.456H270.861L275.181 447.552H272.565ZM263.733 441.576L262.653 440.4H267.813C269.349 440.4 270.509 440.072 271.293 439.416C272.093 438.744 272.493 437.808 272.493 436.608C272.493 435.408 272.093 434.48 271.293 433.824C270.509 433.168 269.349 432.84 267.813 432.84H262.653L263.733 431.64V441.576ZM283.666 447.744C282.386 447.744 281.162 447.552 279.994 447.168C278.826 446.768 277.906 446.256 277.234 445.632L278.122 443.76C278.762 444.32 279.578 444.784 280.57 445.152C281.562 445.52 282.594 445.704 283.666 445.704C284.642 445.704 285.434 445.592 286.042 445.368C286.65 445.144 287.098 444.84 287.386 444.456C287.674 444.056 287.818 443.608 287.818 443.112C287.818 442.536 287.626 442.072 287.242 441.72C286.874 441.368 286.386 441.088 285.778 440.88C285.186 440.656 284.53 440.464 283.81 440.304C283.09 440.144 282.362 439.96 281.626 439.752C280.906 439.528 280.242 439.248 279.634 438.912C279.042 438.576 278.562 438.128 278.194 437.568C277.826 436.992 277.642 436.256 277.642 435.36C277.642 434.496 277.866 433.704 278.314 432.984C278.778 432.248 279.482 431.664 280.426 431.232C281.386 430.784 282.602 430.56 284.074 430.56C285.05 430.56 286.018 430.688 286.978 430.944C287.938 431.2 288.77 431.568 289.474 432.048L288.682 433.968C287.962 433.488 287.202 433.144 286.402 432.936C285.602 432.712 284.826 432.6 284.074 432.6C283.13 432.6 282.354 432.72 281.746 432.96C281.138 433.2 280.69 433.52 280.402 433.92C280.13 434.32 279.994 434.768 279.994 435.264C279.994 435.856 280.178 436.328 280.546 436.68C280.93 437.032 281.418 437.312 282.01 437.52C282.618 437.728 283.282 437.92 284.002 438.096C284.722 438.256 285.442 438.44 286.162 438.648C286.898 438.856 287.562 439.128 288.154 439.464C288.762 439.8 289.25 440.248 289.618 440.808C289.986 441.368 290.17 442.088 290.17 442.968C290.17 443.816 289.938 444.608 289.474 445.344C289.01 446.064 288.29 446.648 287.314 447.096C286.354 447.528 285.138 447.744 283.666 447.744Z" fill="black"/>
<rect x="75" y="474.351" width="350" height="50" rx="5.1495" fill="#F8F8F8"/>
<path d="M197.325 507.851V491.051H203.877C205.349 491.051 206.605 491.283 207.645 491.747C208.685 492.211 209.485 492.883 210.045 493.763C210.605 494.643 210.885 495.691 210.885 496.907C210.885 498.123 210.605 499.171 210.045 500.051C209.485 500.915 208.685 501.587 207.645 502.067C206.605 502.531 205.349 502.763 203.877 502.763H198.645L199.725 501.635V507.851H197.325ZM199.725 501.875L198.645 500.675H203.805C205.341 500.675 206.501 500.347 207.285 499.691C208.085 499.035 208.485 498.107 208.485 496.907C208.485 495.707 208.085 494.779 207.285 494.123C206.501 493.467 205.341 493.139 203.805 493.139H198.645L199.725 491.939V501.875ZM214.411 507.851V491.051H216.811V505.763H225.907V507.851H214.411ZM235.339 508.043C233.131 508.043 231.395 507.411 230.131 506.147C228.867 504.883 228.235 503.035 228.235 500.603V491.051H230.635V500.507C230.635 502.379 231.043 503.747 231.859 504.611C232.691 505.475 233.859 505.907 235.363 505.907C236.883 505.907 238.051 505.475 238.867 504.611C239.699 503.747 240.115 502.379 240.115 500.507V491.051H242.443V500.603C242.443 503.035 241.811 504.883 240.547 506.147C239.299 507.411 237.563 508.043 235.339 508.043ZM254.948 508.043C253.652 508.043 252.46 507.835 251.372 507.419C250.284 506.987 249.34 506.387 248.54 505.619C247.74 504.835 247.116 503.923 246.668 502.883C246.22 501.843 245.996 500.699 245.996 499.451C245.996 498.203 246.22 497.059 246.668 496.019C247.116 494.979 247.74 494.075 248.54 493.307C249.356 492.523 250.308 491.923 251.396 491.507C252.484 491.075 253.684 490.859 254.996 490.859C256.324 490.859 257.54 491.075 258.644 491.507C259.748 491.939 260.684 492.587 261.452 493.451L259.964 494.939C259.276 494.267 258.524 493.779 257.708 493.475C256.908 493.155 256.036 492.995 255.092 492.995C254.132 492.995 253.236 493.155 252.404 493.475C251.588 493.795 250.876 494.243 250.268 494.819C249.676 495.395 249.212 496.083 248.876 496.883C248.556 497.667 248.396 498.523 248.396 499.451C248.396 500.363 248.556 501.219 248.876 502.019C249.212 502.803 249.676 503.491 250.268 504.083C250.876 504.659 251.588 505.107 252.404 505.427C253.22 505.747 254.108 505.907 255.068 505.907C255.964 505.907 256.82 505.771 257.636 505.499C258.468 505.211 259.236 504.739 259.94 504.083L261.308 505.907C260.476 506.611 259.5 507.147 258.38 507.515C257.276 507.867 256.132 508.043 254.948 508.043ZM259.004 505.595V499.355H261.308V505.907L259.004 505.595ZM265.903 507.851V491.051H268.303V507.851H265.903ZM273.333 507.851V491.051H275.301L286.413 504.851H285.381V491.051H287.781V507.851H285.812L274.701 494.051H275.733V507.851H273.333ZM297.705 508.043C296.425 508.043 295.201 507.851 294.033 507.467C292.865 507.067 291.945 506.555 291.273 505.931L292.161 504.059C292.801 504.619 293.617 505.083 294.609 505.451C295.601 505.819 296.633 506.003 297.705 506.003C298.681 506.003 299.473 505.891 300.081 505.667C300.689 505.443 301.137 505.139 301.425 504.755C301.713 504.355 301.857 503.907 301.857 503.411C301.857 502.835 301.665 502.371 301.281 502.019C300.913 501.667 300.425 501.387 299.817 501.179C299.225 500.955 298.569 500.763 297.849 500.603C297.129 500.443 296.401 500.259 295.665 500.051C294.945 499.827 294.281 499.547 293.673 499.211C293.081 498.875 292.601 498.427 292.233 497.867C291.865 497.291 291.681 496.555 291.681 495.659C291.681 494.795 291.905 494.003 292.353 493.283C292.817 492.547 293.521 491.963 294.465 491.531C295.425 491.083 296.641 490.859 298.113 490.859C299.089 490.859 300.057 490.987 301.017 491.243C301.977 491.499 302.809 491.867 303.513 492.347L302.721 494.267C302.001 493.787 301.241 493.443 300.441 493.235C299.641 493.011 298.865 492.899 298.113 492.899C297.169 492.899 296.393 493.019 295.785 493.259C295.177 493.499 294.729 493.819 294.441 494.219C294.169 494.619 294.033 495.067 294.033 495.563C294.033 496.155 294.217 496.627 294.585 496.979C294.969 497.331 295.457 497.611 296.049 497.819C296.657 498.027 297.321 498.219 298.041 498.395C298.761 498.555 299.481 498.739 300.201 498.947C300.937 499.155 301.601 499.427 302.193 499.763C302.801 500.099 303.289 500.547 303.657 501.107C304.025 501.667 304.209 502.387 304.209 503.267C304.209 504.115 303.977 504.907 303.513 505.643C303.049 506.363 302.329 506.947 301.353 507.395C300.393 507.827 299.177 508.043 297.705 508.043Z" fill="black"/>
<rect x="75" y="534.649" width="350" height="50" rx="5.1495" fill="#F8F8F8"/>
<path d="M172.868 568.341C171.588 568.341 170.404 568.133 169.316 567.717C168.244 567.285 167.308 566.685 166.508 565.917C165.724 565.133 165.108 564.221 164.66 563.181C164.212 562.141 163.988 560.997 163.988 559.749C163.988 558.501 164.212 557.357 164.66 556.317C165.108 555.277 165.732 554.373 166.532 553.605C167.332 552.821 168.268 552.221 169.34 551.805C170.428 551.373 171.612 551.157 172.892 551.157C174.188 551.157 175.38 551.381 176.468 551.829C177.572 552.261 178.508 552.909 179.276 553.773L177.716 555.285C177.076 554.613 176.356 554.117 175.556 553.797C174.756 553.461 173.9 553.293 172.988 553.293C172.044 553.293 171.164 553.453 170.348 553.773C169.548 554.093 168.852 554.541 168.26 555.117C167.668 555.693 167.204 556.381 166.868 557.181C166.548 557.965 166.388 558.821 166.388 559.749C166.388 560.677 166.548 561.541 166.868 562.341C167.204 563.125 167.668 563.805 168.26 564.381C168.852 564.957 169.548 565.405 170.348 565.725C171.164 566.045 172.044 566.205 172.988 566.205C173.9 566.205 174.756 566.045 175.556 565.725C176.356 565.389 177.076 564.877 177.716 564.189L179.276 565.701C178.508 566.565 177.572 567.221 176.468 567.669C175.38 568.117 174.18 568.341 172.868 568.341ZM182.7 568.149V551.349H189.252C190.724 551.349 191.98 551.581 193.02 552.045C194.06 552.509 194.86 553.181 195.42 554.061C195.98 554.941 196.26 555.989 196.26 557.205C196.26 558.421 195.98 559.469 195.42 560.349C194.86 561.213 194.06 561.877 193.02 562.341C191.98 562.805 190.724 563.037 189.252 563.037H184.02L185.1 561.933V568.149H182.7ZM193.932 568.149L189.66 562.053H192.228L196.548 568.149H193.932ZM185.1 562.173L184.02 560.997H189.18C190.716 560.997 191.876 560.669 192.66 560.013C193.46 559.341 193.86 558.405 193.86 557.205C193.86 556.005 193.46 555.077 192.66 554.421C191.876 553.765 190.716 553.437 189.18 553.437H184.02L185.1 552.237V562.173ZM202.321 558.597H210.961V560.637H202.321V558.597ZM202.537 566.061H212.329V568.149H200.137V551.349H211.993V553.437H202.537V566.061ZM216.215 568.149V551.349H223.295C225.087 551.349 226.663 551.701 228.023 552.405C229.399 553.109 230.463 554.093 231.215 555.357C231.983 556.621 232.367 558.085 232.367 559.749C232.367 561.413 231.983 562.877 231.215 564.141C230.463 565.405 229.399 566.389 228.023 567.093C226.663 567.797 225.087 568.149 223.295 568.149H216.215ZM218.615 566.061H223.151C224.543 566.061 225.743 565.797 226.751 565.269C227.775 564.741 228.567 564.005 229.127 563.061C229.687 562.101 229.967 560.997 229.967 559.749C229.967 558.485 229.687 557.381 229.127 556.437C228.567 555.493 227.775 554.757 226.751 554.229C225.743 553.701 224.543 553.437 223.151 553.437H218.615V566.061ZM238.227 558.597H246.867V560.637H238.227V558.597ZM238.443 566.061H248.235V568.149H236.043V551.349H247.899V553.437H238.443V566.061ZM252.122 568.149V551.349H254.09L265.202 565.149H264.17V551.349H266.57V568.149H264.602L253.49 554.349H254.522V568.149H252.122ZM274.934 568.149V553.437H269.174V551.349H283.07V553.437H277.31V568.149H274.934ZM285.684 568.149V551.349H288.084V568.149H285.684ZM290.57 568.149L298.178 551.349H300.554L308.186 568.149H305.666L298.874 552.693H299.834L293.042 568.149H290.57ZM293.81 563.949L294.458 562.029H303.914L304.61 563.949H293.81ZM310.692 568.149V551.349H313.092V566.061H322.188V568.149H310.692ZM329.674 568.341C328.394 568.341 327.17 568.149 326.002 567.765C324.834 567.365 323.914 566.853 323.242 566.229L324.13 564.357C324.77 564.917 325.586 565.381 326.578 565.749C327.57 566.117 328.602 566.301 329.674 566.301C330.65 566.301 331.442 566.189 332.05 565.965C332.658 565.741 333.106 565.437 333.394 565.053C333.682 564.653 333.826 564.205 333.826 563.709C333.826 563.133 333.634 562.669 333.25 562.317C332.882 561.965 332.394 561.685 331.786 561.477C331.194 561.253 330.538 561.061 329.818 560.901C329.098 560.741 328.37 560.557 327.634 560.349C326.914 560.125 326.25 559.845 325.642 559.509C325.05 559.173 324.57 558.725 324.202 558.165C323.834 557.589 323.65 556.853 323.65 555.957C323.65 555.093 323.874 554.301 324.322 553.581C324.786 552.845 325.49 552.261 326.434 551.829C327.394 551.381 328.61 551.157 330.082 551.157C331.058 551.157 332.026 551.285 332.986 551.541C333.946 551.797 334.778 552.165 335.482 552.645L334.69 554.565C333.97 554.085 333.21 553.741 332.41 553.533C331.61 553.309 330.834 553.197 330.082 553.197C329.138 553.197 328.362 553.317 327.754 553.557C327.146 553.797 326.698 554.117 326.41 554.517C326.138 554.917 326.002 555.365 326.002 555.861C326.002 556.453 326.186 556.925 326.554 557.277C326.938 557.629 327.426 557.909 328.018 558.117C328.626 558.325 329.29 558.517 330.01 558.693C330.73 558.853 331.45 559.037 332.17 559.245C332.906 559.453 333.57 559.725 334.162 560.061C334.77 560.397 335.258 560.845 335.626 561.405C335.994 561.965 336.178 562.685 336.178 563.565C336.178 564.413 335.946 565.205 335.482 565.941C335.018 566.661 334.298 567.245 333.322 567.693C332.362 568.125 331.146 568.341 329.674 568.341Z" fill="black"/>
<rect x="75" y="594.948" width="350" height="50" rx="5.1495" fill="#FB6233"/>
<path d="M150.731 628.448V611.648H152.699L163.811 625.448H162.779V611.648H165.179V628.448H163.211L152.099 614.648H153.131V628.448H150.731ZM177.792 628.64C176.512 628.64 175.32 628.424 174.216 627.992C173.128 627.56 172.184 626.96 171.384 626.192C170.584 625.408 169.96 624.496 169.512 623.456C169.064 622.416 168.84 621.28 168.84 620.048C168.84 618.816 169.064 617.68 169.512 616.64C169.96 615.6 170.584 614.696 171.384 613.928C172.184 613.144 173.128 612.536 174.216 612.104C175.304 611.672 176.496 611.456 177.792 611.456C179.072 611.456 180.248 611.672 181.32 612.104C182.408 612.52 183.352 613.12 184.152 613.904C184.968 614.672 185.592 615.576 186.024 616.616C186.472 617.656 186.696 618.8 186.696 620.048C186.696 621.296 186.472 622.44 186.024 623.48C185.592 624.52 184.968 625.432 184.152 626.216C183.352 626.984 182.408 627.584 181.32 628.016C180.248 628.432 179.072 628.64 177.792 628.64ZM177.792 626.504C178.72 626.504 179.576 626.344 180.359 626.024C181.16 625.704 181.848 625.256 182.424 624.68C183.016 624.088 183.472 623.4 183.792 622.616C184.128 621.832 184.296 620.976 184.296 620.048C184.296 619.12 184.128 618.264 183.792 617.48C183.472 616.696 183.016 616.016 182.424 615.44C181.848 614.848 181.16 614.392 180.359 614.072C179.576 613.752 178.72 613.592 177.792 613.592C176.848 613.592 175.976 613.752 175.176 614.072C174.392 614.392 173.704 614.848 173.112 615.44C172.52 616.016 172.056 616.696 171.72 617.48C171.4 618.264 171.24 619.12 171.24 620.048C171.24 620.976 171.4 621.832 171.72 622.616C172.056 623.4 172.52 624.088 173.112 624.68C173.704 625.256 174.392 625.704 175.176 626.024C175.976 626.344 176.848 626.504 177.792 626.504ZM190.364 628.448V611.648H197.444C199.236 611.648 200.812 612 202.172 612.704C203.548 613.408 204.612 614.392 205.364 615.656C206.132 616.92 206.516 618.384 206.516 620.048C206.516 621.712 206.132 623.176 205.364 624.44C204.612 625.704 203.548 626.688 202.172 627.392C200.812 628.096 199.236 628.448 197.444 628.448H190.364ZM192.764 626.36H197.3C198.692 626.36 199.892 626.096 200.9 625.568C201.924 625.04 202.716 624.304 203.276 623.36C203.836 622.4 204.116 621.296 204.116 620.048C204.116 618.784 203.836 617.68 203.276 616.736C202.716 615.792 201.924 615.056 200.9 614.528C199.892 614 198.692 613.736 197.3 613.736H192.764V626.36ZM212.376 618.896H221.016V620.936H212.376V618.896ZM212.592 626.36H222.384V628.448H210.192V611.648H222.048V613.736H212.592V626.36ZM231.166 628.64C229.886 628.64 228.662 628.448 227.494 628.064C226.326 627.664 225.406 627.152 224.734 626.528L225.622 624.656C226.262 625.216 227.078 625.68 228.07 626.048C229.062 626.416 230.094 626.6 231.166 626.6C232.142 626.6 232.934 626.488 233.542 626.264C234.15 626.04 234.598 625.736 234.886 625.352C235.174 624.952 235.318 624.504 235.318 624.008C235.318 623.432 235.126 622.968 234.742 622.616C234.374 622.264 233.886 621.984 233.278 621.776C232.686 621.552 232.03 621.36 231.31 621.2C230.59 621.04 229.862 620.856 229.126 620.648C228.406 620.424 227.742 620.144 227.134 619.808C226.542 619.472 226.062 619.024 225.694 618.464C225.326 617.888 225.142 617.152 225.142 616.256C225.142 615.392 225.366 614.6 225.814 613.88C226.278 613.144 226.982 612.56 227.926 612.128C228.886 611.68 230.102 611.456 231.574 611.456C232.55 611.456 233.518 611.584 234.478 611.84C235.438 612.096 236.27 612.464 236.974 612.944L236.182 614.864C235.462 614.384 234.702 614.04 233.902 613.832C233.102 613.608 232.326 613.496 231.574 613.496C230.63 613.496 229.854 613.616 229.246 613.856C228.638 614.096 228.19 614.416 227.902 614.816C227.63 615.216 227.494 615.664 227.494 616.16C227.494 616.752 227.678 617.224 228.046 617.576C228.43 617.928 228.918 618.208 229.51 618.416C230.118 618.624 230.782 618.816 231.502 618.992C232.222 619.152 232.942 619.336 233.662 619.544C234.398 619.752 235.062 620.024 235.654 620.36C236.262 620.696 236.75 621.144 237.118 621.704C237.486 622.264 237.67 622.984 237.67 623.864C237.67 624.712 237.438 625.504 236.974 626.24C236.51 626.96 235.79 627.544 234.814 627.992C233.854 628.424 232.638 628.64 231.166 628.64ZM237.984 630.848L245.904 608.24H247.992L240.072 630.848H237.984ZM256.657 628.64C255.377 628.64 254.193 628.432 253.105 628.016C252.033 627.584 251.097 626.984 250.297 626.216C249.513 625.432 248.897 624.52 248.449 623.48C248.001 622.44 247.777 621.296 247.777 620.048C247.777 618.8 248.001 617.656 248.449 616.616C248.897 615.576 249.521 614.672 250.321 613.904C251.121 613.12 252.057 612.52 253.129 612.104C254.217 611.672 255.401 611.456 256.681 611.456C257.977 611.456 259.169 611.68 260.257 612.128C261.361 612.56 262.297 613.208 263.065 614.072L261.505 615.584C260.865 614.912 260.145 614.416 259.345 614.096C258.545 613.76 257.689 613.592 256.777 613.592C255.833 613.592 254.953 613.752 254.137 614.072C253.337 614.392 252.641 614.84 252.049 615.416C251.457 615.992 250.993 616.68 250.657 617.48C250.337 618.264 250.177 619.12 250.177 620.048C250.177 620.976 250.337 621.84 250.657 622.64C250.993 623.424 251.457 624.104 252.049 624.68C252.641 625.256 253.337 625.704 254.137 626.024C254.953 626.344 255.833 626.504 256.777 626.504C257.689 626.504 258.545 626.344 259.345 626.024C260.145 625.688 260.865 625.176 261.505 624.488L263.065 626C262.297 626.864 261.361 627.52 260.257 627.968C259.169 628.416 257.969 628.64 256.657 628.64ZM266.489 628.448V611.648H268.889V626.36H277.985V628.448H266.489ZM288.018 628.64C286.738 628.64 285.546 628.424 284.442 627.992C283.354 627.56 282.41 626.96 281.61 626.192C280.81 625.408 280.186 624.496 279.738 623.456C279.29 622.416 279.066 621.28 279.066 620.048C279.066 618.816 279.29 617.68 279.738 616.64C280.186 615.6 280.81 614.696 281.61 613.928C282.41 613.144 283.354 612.536 284.442 612.104C285.53 611.672 286.722 611.456 288.018 611.456C289.298 611.456 290.474 611.672 291.546 612.104C292.634 612.52 293.578 613.12 294.378 613.904C295.194 614.672 295.818 615.576 296.25 616.616C296.698 617.656 296.922 618.8 296.922 620.048C296.922 621.296 296.698 622.44 296.25 623.48C295.818 624.52 295.194 625.432 294.378 626.216C293.578 626.984 292.634 627.584 291.546 628.016C290.474 628.432 289.298 628.64 288.018 628.64ZM288.018 626.504C288.946 626.504 289.802 626.344 290.586 626.024C291.386 625.704 292.074 625.256 292.65 624.68C293.242 624.088 293.698 623.4 294.018 622.616C294.354 621.832 294.522 620.976 294.522 620.048C294.522 619.12 294.354 618.264 294.018 617.48C293.698 616.696 293.242 616.016 292.65 615.44C292.074 614.848 291.386 614.392 290.586 614.072C289.802 613.752 288.946 613.592 288.018 613.592C287.074 613.592 286.202 613.752 285.402 614.072C284.618 614.392 283.93 614.848 283.338 615.44C282.746 616.016 282.282 616.696 281.946 617.48C281.626 618.264 281.466 619.12 281.466 620.048C281.466 620.976 281.626 621.832 281.946 622.616C282.282 623.4 282.746 624.088 283.338 624.68C283.93 625.256 284.618 625.704 285.402 626.024C286.202 626.344 287.074 626.504 288.018 626.504ZM307.55 628.64C305.342 628.64 303.606 628.008 302.342 626.744C301.078 625.48 300.446 623.632 300.446 621.2V611.648H302.846V621.104C302.846 622.976 303.254 624.344 304.07 625.208C304.902 626.072 306.07 626.504 307.574 626.504C309.094 626.504 310.262 626.072 311.078 625.208C311.91 624.344 312.326 622.976 312.326 621.104V611.648H314.654V621.2C314.654 623.632 314.022 625.48 312.758 626.744C311.51 628.008 309.774 628.64 307.55 628.64ZM319.575 628.448V611.648H326.655C328.447 611.648 330.023 612 331.383 612.704C332.759 613.408 333.823 614.392 334.575 615.656C335.343 616.92 335.727 618.384 335.727 620.048C335.727 621.712 335.343 623.176 334.575 624.44C333.823 625.704 332.759 626.688 331.383 627.392C330.023 628.096 328.447 628.448 326.655 628.448H319.575ZM321.975 626.36H326.511C327.903 626.36 329.103 626.096 330.111 625.568C331.135 625.04 331.927 624.304 332.487 623.36C333.047 622.4 333.327 621.296 333.327 620.048C333.327 618.784 333.047 617.68 332.487 616.736C331.927 615.792 331.135 615.056 330.111 614.528C329.103 614 327.903 613.736 326.511 613.736H321.975V626.36ZM344.299 628.64C343.019 628.64 341.795 628.448 340.627 628.064C339.459 627.664 338.539 627.152 337.867 626.528L338.755 624.656C339.395 625.216 340.211 625.68 341.203 626.048C342.195 626.416 343.227 626.6 344.299 626.6C345.275 626.6 346.067 626.488 346.675 626.264C347.283 626.04 347.731 625.736 348.019 625.352C348.307 624.952 348.451 624.504 348.451 624.008C348.451 623.432 348.259 622.968 347.875 622.616C347.507 622.264 347.019 621.984 346.411 621.776C345.819 621.552 345.163 621.36 344.443 621.2C343.723 621.04 342.995 620.856 342.259 620.648C341.539 620.424 340.875 620.144 340.267 619.808C339.675 619.472 339.195 619.024 338.827 618.464C338.459 617.888 338.275 617.152 338.275 616.256C338.275 615.392 338.499 614.6 338.947 613.88C339.411 613.144 340.115 612.56 341.059 612.128C342.019 611.68 343.235 611.456 344.707 611.456C345.683 611.456 346.651 611.584 347.611 611.84C348.571 612.096 349.403 612.464 350.107 612.944L349.315 614.864C348.595 614.384 347.835 614.04 347.035 613.832C346.235 613.608 345.459 613.496 344.707 613.496C343.763 613.496 342.987 613.616 342.379 613.856C341.771 614.096 341.323 614.416 341.035 614.816C340.763 615.216 340.627 615.664 340.627 616.16C340.627 616.752 340.811 617.224 341.179 617.576C341.563 617.928 342.051 618.208 342.643 618.416C343.251 618.624 343.915 618.816 344.635 618.992C345.355 619.152 346.075 619.336 346.795 619.544C347.531 619.752 348.195 620.024 348.787 620.36C349.395 620.696 349.883 621.144 350.251 621.704C350.619 622.264 350.803 622.984 350.803 623.864C350.803 624.712 350.571 625.504 350.107 626.24C349.643 626.96 348.923 627.544 347.947 627.992C346.987 628.424 345.771 628.64 344.299 628.64Z" fill="#F8F8F8"/>
<rect x="75" y="655.248" width="350" height="50" rx="5.1495" fill="#F8F8F8"/>
<path d="M156.651 688.94C155.355 688.94 154.163 688.732 153.075 688.316C151.987 687.884 151.043 687.284 150.243 686.516C149.443 685.732 148.819 684.82 148.371 683.78C147.923 682.74 147.699 681.596 147.699 680.348C147.699 679.1 147.923 677.956 148.371 676.916C148.819 675.876 149.443 674.972 150.243 674.204C151.059 673.42 152.011 672.82 153.099 672.404C154.187 671.972 155.387 671.756 156.699 671.756C158.027 671.756 159.243 671.972 160.347 672.404C161.451 672.836 162.387 673.484 163.155 674.348L161.667 675.836C160.979 675.164 160.227 674.676 159.411 674.372C158.611 674.052 157.739 673.892 156.795 673.892C155.835 673.892 154.939 674.052 154.107 674.372C153.291 674.692 152.579 675.14 151.971 675.716C151.379 676.292 150.915 676.98 150.579 677.78C150.259 678.564 150.099 679.42 150.099 680.348C150.099 681.26 150.259 682.116 150.579 682.916C150.915 683.7 151.379 684.388 151.971 684.98C152.579 685.556 153.291 686.004 154.107 686.324C154.923 686.644 155.811 686.804 156.771 686.804C157.667 686.804 158.523 686.668 159.339 686.396C160.171 686.108 160.939 685.636 161.643 684.98L163.011 686.804C162.179 687.508 161.203 688.044 160.083 688.412C158.979 688.764 157.835 688.94 156.651 688.94ZM160.707 686.492V680.252H163.011V686.804L160.707 686.492ZM167.606 688.748V671.948H170.006V686.66H179.102V688.748H167.606ZM189.135 688.94C187.855 688.94 186.663 688.724 185.559 688.292C184.471 687.86 183.527 687.26 182.727 686.492C181.927 685.708 181.303 684.796 180.855 683.756C180.407 682.716 180.183 681.58 180.183 680.348C180.183 679.116 180.407 677.98 180.855 676.94C181.303 675.9 181.927 674.996 182.727 674.228C183.527 673.444 184.471 672.836 185.559 672.404C186.647 671.972 187.839 671.756 189.135 671.756C190.415 671.756 191.591 671.972 192.663 672.404C193.751 672.82 194.695 673.42 195.495 674.204C196.311 674.972 196.935 675.876 197.367 676.916C197.815 677.956 198.039 679.1 198.039 680.348C198.039 681.596 197.815 682.74 197.367 683.78C196.935 684.82 196.311 685.732 195.495 686.516C194.695 687.284 193.751 687.884 192.663 688.316C191.591 688.732 190.415 688.94 189.135 688.94ZM189.135 686.804C190.063 686.804 190.919 686.644 191.703 686.324C192.503 686.004 193.191 685.556 193.767 684.98C194.359 684.388 194.815 683.7 195.135 682.916C195.471 682.132 195.639 681.276 195.639 680.348C195.639 679.42 195.471 678.564 195.135 677.78C194.815 676.996 194.359 676.316 193.767 675.74C193.191 675.148 192.503 674.692 191.703 674.372C190.919 674.052 190.063 673.892 189.135 673.892C188.191 673.892 187.319 674.052 186.519 674.372C185.735 674.692 185.047 675.148 184.455 675.74C183.863 676.316 183.399 676.996 183.063 677.78C182.743 678.564 182.583 679.42 182.583 680.348C182.583 681.276 182.743 682.132 183.063 682.916C183.399 683.7 183.863 684.388 184.455 684.98C185.047 685.556 185.735 686.004 186.519 686.324C187.319 686.644 188.191 686.804 189.135 686.804ZM201.708 688.748V671.948H209.244C211.18 671.948 212.668 672.34 213.708 673.124C214.748 673.892 215.268 674.948 215.268 676.292C215.268 677.204 215.06 677.972 214.644 678.596C214.244 679.22 213.7 679.7 213.012 680.036C212.324 680.372 211.58 680.54 210.78 680.54L211.212 679.82C212.172 679.82 213.02 679.988 213.756 680.324C214.492 680.66 215.076 681.156 215.508 681.812C215.94 682.452 216.156 683.252 216.156 684.212C216.156 685.652 215.612 686.772 214.524 687.572C213.452 688.356 211.852 688.748 209.724 688.748H201.708ZM204.108 686.804H209.628C210.956 686.804 211.972 686.58 212.676 686.132C213.38 685.684 213.732 684.98 213.732 684.02C213.732 683.044 213.38 682.332 212.676 681.884C211.972 681.436 210.956 681.212 209.628 681.212H203.892V679.268H209.028C210.244 679.268 211.188 679.044 211.859 678.596C212.532 678.148 212.868 677.476 212.868 676.58C212.868 675.684 212.532 675.012 211.859 674.564C211.188 674.116 210.244 673.892 209.028 673.892H204.108V686.804ZM217.328 688.748L224.936 671.948H227.312L234.944 688.748H232.424L225.632 673.292H226.592L219.8 688.748H217.328ZM220.568 684.548L221.216 682.628H230.672L231.368 684.548H220.568ZM237.45 688.748V671.948H239.85V686.66H248.946V688.748H237.45ZM265.657 688.94C264.377 688.94 263.193 688.732 262.105 688.316C261.033 687.884 260.097 687.284 259.297 686.516C258.513 685.732 257.897 684.82 257.449 683.78C257.001 682.74 256.777 681.596 256.777 680.348C256.777 679.1 257.001 677.956 257.449 676.916C257.897 675.876 258.521 674.972 259.321 674.204C260.121 673.42 261.057 672.82 262.129 672.404C263.217 671.972 264.401 671.756 265.681 671.756C266.977 671.756 268.169 671.98 269.257 672.428C270.361 672.86 271.297 673.508 272.065 674.372L270.505 675.884C269.865 675.212 269.145 674.716 268.345 674.396C267.545 674.06 266.689 673.892 265.777 673.892C264.833 673.892 263.953 674.052 263.137 674.372C262.337 674.692 261.641 675.14 261.049 675.716C260.457 676.292 259.993 676.98 259.657 677.78C259.337 678.564 259.177 679.42 259.177 680.348C259.177 681.276 259.337 682.14 259.657 682.94C259.993 683.724 260.457 684.404 261.049 684.98C261.641 685.556 262.337 686.004 263.137 686.324C263.953 686.644 264.833 686.804 265.777 686.804C266.689 686.804 267.545 686.644 268.345 686.324C269.145 685.988 269.865 685.476 270.505 684.788L272.065 686.3C271.297 687.164 270.361 687.82 269.257 688.268C268.169 688.716 266.969 688.94 265.657 688.94ZM282.721 688.94C281.441 688.94 280.249 688.724 279.145 688.292C278.057 687.86 277.113 687.26 276.313 686.492C275.513 685.708 274.889 684.796 274.441 683.756C273.993 682.716 273.769 681.58 273.769 680.348C273.769 679.116 273.993 677.98 274.441 676.94C274.889 675.9 275.513 674.996 276.313 674.228C277.113 673.444 278.057 672.836 279.145 672.404C280.233 671.972 281.425 671.756 282.721 671.756C284.001 671.756 285.177 671.972 286.249 672.404C287.337 672.82 288.281 673.42 289.081 674.204C289.897 674.972 290.521 675.876 290.953 676.916C291.401 677.956 291.625 679.1 291.625 680.348C291.625 681.596 291.401 682.74 290.953 683.78C290.521 684.82 289.897 685.732 289.081 686.516C288.281 687.284 287.337 687.884 286.249 688.316C285.177 688.732 284.001 688.94 282.721 688.94ZM282.721 686.804C283.649 686.804 284.505 686.644 285.289 686.324C286.089 686.004 286.777 685.556 287.353 684.98C287.945 684.388 288.401 683.7 288.721 682.916C289.057 682.132 289.225 681.276 289.225 680.348C289.225 679.42 289.057 678.564 288.721 677.78C288.401 676.996 287.945 676.316 287.353 675.74C286.777 675.148 286.089 674.692 285.289 674.372C284.505 674.052 283.649 673.892 282.721 673.892C281.777 673.892 280.905 674.052 280.105 674.372C279.321 674.692 278.633 675.148 278.041 675.74C277.449 676.316 276.985 676.996 276.649 677.78C276.329 678.564 276.169 679.42 276.169 680.348C276.169 681.276 276.329 682.132 276.649 682.916C276.985 683.7 277.449 684.388 278.041 684.98C278.633 685.556 279.321 686.004 280.105 686.324C280.905 686.644 281.777 686.804 282.721 686.804ZM295.293 688.748V671.948H297.261L308.373 685.748H307.341V671.948H309.741V688.748H307.773L296.661 674.948H297.693V688.748H295.293ZM316.93 679.892H325.594V681.956H316.93V679.892ZM317.17 688.748H314.77V671.948H326.626V674.036H317.17V688.748ZM330.004 688.748V671.948H332.404V688.748H330.004ZM345.018 688.94C343.722 688.94 342.53 688.732 341.442 688.316C340.354 687.884 339.41 687.284 338.61 686.516C337.81 685.732 337.186 684.82 336.738 683.78C336.29 682.74 336.066 681.596 336.066 680.348C336.066 679.1 336.29 677.956 336.738 676.916C337.186 675.876 337.81 674.972 338.61 674.204C339.426 673.42 340.378 672.82 341.466 672.404C342.554 671.972 343.754 671.756 345.066 671.756C346.394 671.756 347.61 671.972 348.714 672.404C349.818 672.836 350.754 673.484 351.522 674.348L350.034 675.836C349.346 675.164 348.594 674.676 347.778 674.372C346.978 674.052 346.106 673.892 345.162 673.892C344.202 673.892 343.306 674.052 342.474 674.372C341.658 674.692 340.946 675.14 340.338 675.716C339.746 676.292 339.282 676.98 338.946 677.78C338.626 678.564 338.466 679.42 338.466 680.348C338.466 681.26 338.626 682.116 338.946 682.916C339.282 683.7 339.746 684.388 340.338 684.98C340.946 685.556 341.658 686.004 342.474 686.324C343.29 686.644 344.178 686.804 345.138 686.804C346.034 686.804 346.89 686.668 347.706 686.396C348.538 686.108 349.306 685.636 350.01 684.98L351.378 686.804C350.546 687.508 349.57 688.044 348.45 688.412C347.346 688.764 346.202 688.94 345.018 688.94ZM349.074 686.492V680.252H351.378V686.804L349.074 686.492Z" fill="black"/>
<rect x="884" width="500" height="94.6146" rx="5" fill="#FB6233"/>
<path d="M936.353 59.0654C935.02 59.0654 933.773 58.7859 932.612 58.2269C931.451 57.6679 930.505 56.8617 929.774 55.8082L931.644 53.6152C932.268 54.4752 932.967 55.1417 933.741 55.6147C934.536 56.0662 935.407 56.2919 936.353 56.2919C938.933 56.2919 940.223 54.7655 940.223 51.7125V39.0386H932.064V36.2329H943.415V51.5513C943.415 54.0667 942.813 55.9479 941.609 57.1949C940.427 58.4419 938.675 59.0654 936.353 59.0654ZM952.919 45.9722H964.529V48.7133H952.919V45.9722ZM953.209 56.0017H966.367V58.8074H949.984V36.2329H965.916V39.0386H953.209V56.0017ZM971.589 58.8074V36.2329H974.233L989.165 54.7762H987.778V36.2329H991.003V58.8074H988.359L973.427 40.264H974.814V58.8074H971.589ZM1000.6 53.3572L1000.44 49.4228L1013.24 36.2329H1016.92L1007.02 46.6816L1005.21 48.6811L1000.6 53.3572ZM997.76 58.8074V36.2329H1000.98V58.8074H997.76ZM1013.76 58.8074L1004.5 48.0361L1006.66 45.6497L1017.53 58.8074H1013.76ZM1020.94 58.8074V36.2329H1024.16V58.8074H1020.94ZM1030.92 58.8074V36.2329H1033.57L1048.5 54.7762H1047.11V36.2329H1050.34V58.8074H1047.69L1032.76 40.264H1034.15V58.8074H1030.92ZM1063.67 59.0654C1061.95 59.0654 1060.31 58.8074 1058.74 58.2914C1057.17 57.7539 1055.93 57.0659 1055.03 56.2274L1056.22 53.712C1057.08 54.4645 1058.18 55.088 1059.51 55.5824C1060.85 56.0769 1062.23 56.3242 1063.67 56.3242C1064.98 56.3242 1066.05 56.1737 1066.87 55.8727C1067.68 55.5717 1068.28 55.1632 1068.67 54.6472C1069.06 54.1097 1069.25 53.5077 1069.25 52.8413C1069.25 52.0673 1068.99 51.4438 1068.48 50.9708C1067.98 50.4978 1067.33 50.1216 1066.51 49.8421C1065.71 49.5411 1064.83 49.2831 1063.87 49.0681C1062.9 48.8531 1061.92 48.6058 1060.93 48.3264C1059.96 48.0254 1059.07 47.6491 1058.25 47.1976C1057.46 46.7461 1056.81 46.1442 1056.32 45.3917C1055.83 44.6177 1055.58 43.6287 1055.58 42.4247C1055.58 41.2638 1055.88 40.1995 1056.48 39.2321C1057.1 38.2431 1058.05 37.4583 1059.32 36.8779C1060.61 36.2759 1062.24 35.9749 1064.22 35.9749C1065.53 35.9749 1066.83 36.1469 1068.12 36.4909C1069.41 36.8349 1070.53 37.3293 1071.48 37.9743L1070.41 40.5543C1069.45 39.9093 1068.42 39.447 1067.35 39.1676C1066.27 38.8666 1065.23 38.7161 1064.22 38.7161C1062.95 38.7161 1061.91 38.8773 1061.09 39.1998C1060.28 39.5223 1059.67 39.9523 1059.29 40.4898C1058.92 41.0273 1058.74 41.6292 1058.74 42.2957C1058.74 43.0912 1058.99 43.7255 1059.48 44.1984C1060 44.6714 1060.65 45.0477 1061.45 45.3272C1062.26 45.6067 1063.16 45.8647 1064.12 46.1012C1065.09 46.3161 1066.06 46.5634 1067.03 46.8429C1068.02 47.1224 1068.91 47.4879 1069.7 47.9394C1070.52 48.3909 1071.18 48.9928 1071.67 49.7453C1072.16 50.4978 1072.41 51.4653 1072.41 52.6478C1072.41 53.7872 1072.1 54.8515 1071.48 55.8404C1070.85 56.8079 1069.89 57.5926 1068.57 58.1946C1067.28 58.7751 1065.65 59.0654 1063.67 59.0654ZM1092.36 59.0654C1090.64 59.0654 1089 58.8074 1087.43 58.2914C1085.86 57.7539 1084.62 57.0659 1083.72 56.2274L1084.91 53.712C1085.77 54.4645 1086.87 55.088 1088.2 55.5824C1089.54 56.0769 1090.92 56.3242 1092.36 56.3242C1093.67 56.3242 1094.74 56.1737 1095.56 55.8727C1096.37 55.5717 1096.97 55.1632 1097.36 54.6472C1097.75 54.1097 1097.94 53.5077 1097.94 52.8413C1097.94 52.0673 1097.68 51.4438 1097.17 50.9708C1096.67 50.4978 1096.02 50.1216 1095.2 49.8421C1094.41 49.5411 1093.52 49.2831 1092.56 49.0681C1091.59 48.8531 1090.61 48.6058 1089.62 48.3264C1088.65 48.0254 1087.76 47.6491 1086.95 47.1976C1086.15 46.7461 1085.5 46.1442 1085.01 45.3917C1084.52 44.6177 1084.27 43.6287 1084.27 42.4247C1084.27 41.2638 1084.57 40.1995 1085.17 39.2321C1085.79 38.2431 1086.74 37.4583 1088.01 36.8779C1089.3 36.2759 1090.93 35.9749 1092.91 35.9749C1094.22 35.9749 1095.52 36.1469 1096.81 36.4909C1098.1 36.8349 1099.22 37.3293 1100.17 37.9743L1099.1 40.5543C1098.14 39.9093 1097.11 39.447 1096.04 39.1676C1094.96 38.8666 1093.92 38.7161 1092.91 38.7161C1091.64 38.7161 1090.6 38.8773 1089.78 39.1998C1088.97 39.5223 1088.36 39.9523 1087.98 40.4898C1087.61 41.0273 1087.43 41.6292 1087.43 42.2957C1087.43 43.0912 1087.68 43.7255 1088.17 44.1984C1088.69 44.6714 1089.34 45.0477 1090.14 45.3272C1090.95 45.6067 1091.85 45.8647 1092.81 46.1012C1093.78 46.3161 1094.75 46.5634 1095.72 46.8429C1096.71 47.1224 1097.6 47.4879 1098.39 47.9394C1099.21 48.3909 1099.87 48.9928 1100.36 49.7453C1100.86 50.4978 1101.1 51.4653 1101.1 52.6478C1101.1 53.7872 1100.79 54.8515 1100.17 55.8404C1099.54 56.8079 1098.58 57.5926 1097.26 58.1946C1095.97 58.7751 1094.34 59.0654 1092.36 59.0654ZM1109.98 58.8074V39.0386H1102.24V36.2329H1120.91V39.0386H1113.17V58.8074H1109.98ZM1119.87 58.8074L1130.1 36.2329H1133.29L1143.55 58.8074H1140.16L1131.03 38.0388H1132.32L1123.2 58.8074H1119.87ZM1124.23 53.1637L1125.1 50.5838H1137.81L1138.74 53.1637H1124.23ZM1150.26 58.8074V39.0386H1142.52V36.2329H1161.19V39.0386H1153.45V58.8074H1150.26ZM1164.71 58.8074V36.2329H1167.93V58.8074H1164.71ZM1184.78 59.0654C1183.06 59.0654 1181.47 58.7859 1180.01 58.2269C1178.57 57.6464 1177.31 56.8402 1176.24 55.8082C1175.18 54.7547 1174.36 53.5292 1173.75 52.1318C1173.15 50.7343 1172.85 49.1971 1172.85 47.5201C1172.85 45.8432 1173.15 44.3059 1173.75 42.9085C1174.36 41.511 1175.2 40.2963 1176.27 39.2643C1177.35 38.2108 1178.6 37.4046 1180.04 36.8456C1181.51 36.2651 1183.1 35.9749 1184.82 35.9749C1186.56 35.9749 1188.16 36.2759 1189.62 36.8779C1191.11 37.4583 1192.36 38.3291 1193.39 39.49L1191.3 41.5218C1190.44 40.6188 1189.47 39.9523 1188.4 39.5223C1187.32 39.0708 1186.17 38.8451 1184.95 38.8451C1183.68 38.8451 1182.49 39.0601 1181.4 39.49C1180.32 39.92 1179.39 40.522 1178.59 41.296C1177.8 42.07 1177.17 42.9945 1176.72 44.0694C1176.29 45.1229 1176.08 46.2731 1176.08 47.5201C1176.08 48.7671 1176.29 49.9281 1176.72 51.003C1177.17 52.0565 1177.8 52.9703 1178.59 53.7442C1179.39 54.5182 1180.32 55.1202 1181.4 55.5502C1182.49 55.9802 1183.68 56.1952 1184.95 56.1952C1186.17 56.1952 1187.32 55.9802 1188.4 55.5502C1189.47 55.0987 1190.44 54.4107 1191.3 53.4862L1193.39 55.5179C1192.36 56.6789 1191.11 57.5604 1189.62 58.1624C1188.16 58.7644 1186.55 59.0654 1184.78 59.0654ZM1203.24 58.8074L1213.46 36.2329H1216.65L1226.91 58.8074H1223.52L1214.4 38.0388H1215.69L1206.56 58.8074H1203.24ZM1207.59 53.1637L1208.46 50.5838H1221.17L1222.1 53.1637H1207.59ZM1240.15 59.0654C1238.41 59.0654 1236.81 58.7859 1235.35 58.2269C1233.88 57.6464 1232.62 56.8402 1231.54 55.8082C1230.47 54.7547 1229.63 53.5292 1229.03 52.1318C1228.42 50.7343 1228.12 49.1971 1228.12 47.5201C1228.12 45.8432 1228.42 44.3059 1229.03 42.9085C1229.63 41.511 1230.47 40.2963 1231.54 39.2643C1232.64 38.2108 1233.92 37.4046 1235.38 36.8456C1236.84 36.2651 1238.45 35.9749 1240.22 35.9749C1242 35.9749 1243.63 36.2651 1245.12 36.8456C1246.6 37.4261 1247.86 38.2968 1248.89 39.4578L1246.89 41.4573C1245.97 40.5543 1244.96 39.8985 1243.86 39.49C1242.79 39.0601 1241.61 38.8451 1240.35 38.8451C1239.06 38.8451 1237.85 39.0601 1236.73 39.49C1235.64 39.92 1234.68 40.522 1233.86 41.296C1233.07 42.07 1232.44 42.9945 1231.99 44.0694C1231.56 45.1229 1231.35 46.2731 1231.35 47.5201C1231.35 48.7456 1231.56 49.8958 1231.99 50.9708C1232.44 52.0243 1233.07 52.9488 1233.86 53.7442C1234.68 54.5182 1235.64 55.1202 1236.73 55.5502C1237.83 55.9802 1239.02 56.1952 1240.31 56.1952C1241.52 56.1952 1242.67 56.0124 1243.76 55.6469C1244.88 55.26 1245.91 54.6257 1246.86 53.7442L1248.7 56.1952C1247.58 57.1412 1246.27 57.8614 1244.76 58.3559C1243.28 58.8289 1241.74 59.0654 1240.15 59.0654ZM1245.6 55.7759V47.3911H1248.7V56.1952L1245.6 55.7759ZM1257.81 45.9722H1269.42V48.7133H1257.81V45.9722ZM1258.1 56.0017H1271.26V58.8074H1254.87V36.2329H1270.8V39.0386H1258.1V56.0017ZM1276.48 58.8074V36.2329H1279.12L1294.05 54.7762H1292.67V36.2329H1295.89V58.8074H1293.25L1278.32 40.264H1279.7V58.8074H1276.48ZM1307.13 58.8074V39.0386H1299.39V36.2329H1318.06V39.0386H1310.32V58.8074H1307.13ZM1327.87 59.0654C1326.15 59.0654 1324.51 58.8074 1322.94 58.2914C1321.37 57.7539 1320.13 57.0659 1319.23 56.2274L1320.42 53.712C1321.28 54.4645 1322.38 55.088 1323.71 55.5824C1325.04 56.0769 1326.43 56.3242 1327.87 56.3242C1329.18 56.3242 1330.25 56.1737 1331.06 55.8727C1331.88 55.5717 1332.48 55.1632 1332.87 54.6472C1333.26 54.1097 1333.45 53.5077 1333.45 52.8413C1333.45 52.0673 1333.19 51.4438 1332.68 50.9708C1332.18 50.4978 1331.53 50.1216 1330.71 49.8421C1329.91 49.5411 1329.03 49.2831 1328.06 49.0681C1327.1 48.8531 1326.12 48.6058 1325.13 48.3264C1324.16 48.0254 1323.27 47.6491 1322.45 47.1976C1321.66 46.7461 1321.01 46.1442 1320.52 45.3917C1320.02 44.6177 1319.78 43.6287 1319.78 42.4247C1319.78 41.2638 1320.08 40.1995 1320.68 39.2321C1321.3 38.2431 1322.25 37.4583 1323.52 36.8779C1324.81 36.2759 1326.44 35.9749 1328.42 35.9749C1329.73 35.9749 1331.03 36.1469 1332.32 36.4909C1333.61 36.8349 1334.73 37.3293 1335.68 37.9743L1334.61 40.5543C1333.64 39.9093 1332.62 39.447 1331.55 39.1676C1330.47 38.8666 1329.43 38.7161 1328.42 38.7161C1327.15 38.7161 1326.11 38.8773 1325.29 39.1998C1324.47 39.5223 1323.87 39.9523 1323.49 40.4898C1323.12 41.0273 1322.94 41.6292 1322.94 42.2957C1322.94 43.0912 1323.18 43.7255 1323.68 44.1984C1324.19 44.6714 1324.85 45.0477 1325.65 45.3272C1326.46 45.6067 1327.36 45.8647 1328.32 46.1012C1329.29 46.3161 1330.26 46.5634 1331.22 46.8429C1332.21 47.1224 1333.11 47.4879 1333.9 47.9394C1334.72 48.3909 1335.37 48.9928 1335.87 49.7453C1336.36 50.4978 1336.61 51.4653 1336.61 52.6478C1336.61 53.7872 1336.3 54.8515 1335.68 55.8404C1335.05 56.8079 1334.08 57.5926 1332.77 58.1946C1331.48 58.7751 1329.85 59.0654 1327.87 59.0654Z" fill="#F8F8F8"/>
<rect x="884" y="462" width="500" height="94.6146" rx="5" fill="#FB6233"/>
<path d="M912.434 521.065C911.101 521.065 909.854 520.786 908.693 520.227C907.532 519.668 906.586 518.862 905.855 517.808L907.725 515.615C908.349 516.475 909.047 517.142 909.821 517.615C910.617 518.066 911.488 518.292 912.434 518.292C915.013 518.292 916.303 516.765 916.303 513.713V501.039H908.144V498.233H919.496V513.551C919.496 516.067 918.894 517.948 917.69 519.195C916.508 520.442 914.755 521.065 912.434 521.065ZM929 507.972H940.61V510.713H929V507.972ZM929.29 518.002H942.448V520.807H926.065V498.233H941.996V501.039H929.29V518.002ZM947.67 520.807V498.233H950.314L965.246 516.776H963.859V498.233H967.084V520.807H964.439L949.508 502.264H950.895V520.807H947.67ZM976.679 515.357L976.517 511.423L989.32 498.233H992.997L983.096 508.682L981.29 510.681L976.679 515.357ZM973.841 520.807V498.233H977.066V520.807H973.841ZM989.836 520.807L980.581 510.036L982.741 507.65L993.61 520.807H989.836ZM997.02 520.807V498.233H1000.24V520.807H997.02ZM1007 520.807V498.233H1009.65L1024.58 516.776H1023.19V498.233H1026.42V520.807H1023.77L1008.84 502.264H1010.23V520.807H1007ZM1039.75 521.065C1038.03 521.065 1036.39 520.807 1034.82 520.291C1033.25 519.754 1032.01 519.066 1031.11 518.227L1032.3 515.712C1033.16 516.464 1034.26 517.088 1035.59 517.582C1036.93 518.077 1038.31 518.324 1039.75 518.324C1041.06 518.324 1042.13 518.174 1042.95 517.873C1043.76 517.572 1044.36 517.163 1044.75 516.647C1045.14 516.11 1045.33 515.508 1045.33 514.841C1045.33 514.067 1045.07 513.444 1044.56 512.971C1044.06 512.498 1043.41 512.122 1042.59 511.842C1041.8 511.541 1040.91 511.283 1039.95 511.068C1038.98 510.853 1038 510.606 1037.01 510.326C1036.04 510.025 1035.15 509.649 1034.34 509.198C1033.54 508.746 1032.89 508.144 1032.4 507.392C1031.91 506.618 1031.66 505.629 1031.66 504.425C1031.66 503.264 1031.96 502.2 1032.56 501.232C1033.19 500.243 1034.13 499.458 1035.4 498.878C1036.69 498.276 1038.32 497.975 1040.3 497.975C1041.61 497.975 1042.91 498.147 1044.2 498.491C1045.49 498.835 1046.61 499.329 1047.56 499.974L1046.49 502.554C1045.53 501.909 1044.5 501.447 1043.43 501.168C1042.35 500.867 1041.31 500.716 1040.3 500.716C1039.03 500.716 1037.99 500.877 1037.17 501.2C1036.36 501.522 1035.75 501.952 1035.37 502.49C1035 503.027 1034.82 503.629 1034.82 504.296C1034.82 505.091 1035.07 505.725 1035.56 506.198C1036.08 506.671 1036.73 507.048 1037.53 507.327C1038.34 507.607 1039.24 507.865 1040.2 508.101C1041.17 508.316 1042.14 508.563 1043.11 508.843C1044.1 509.122 1044.99 509.488 1045.78 509.939C1046.6 510.391 1047.26 510.993 1047.75 511.745C1048.25 512.498 1048.49 513.465 1048.49 514.648C1048.49 515.787 1048.18 516.851 1047.56 517.84C1046.93 518.808 1045.97 519.593 1044.66 520.195C1043.37 520.775 1041.73 521.065 1039.75 521.065ZM1061.86 520.807V498.233H1071.38C1073.79 498.233 1075.9 498.706 1077.73 499.652C1079.58 500.598 1081.01 501.92 1082.02 503.618C1083.05 505.317 1083.57 507.284 1083.57 509.52C1083.57 511.756 1083.05 513.723 1082.02 515.422C1081.01 517.12 1079.58 518.442 1077.73 519.388C1075.9 520.334 1073.79 520.807 1071.38 520.807H1061.86ZM1065.09 518.002H1071.18C1073.06 518.002 1074.67 517.647 1076.02 516.937C1077.4 516.228 1078.46 515.239 1079.21 513.971C1079.97 512.681 1080.34 511.197 1080.34 509.52C1080.34 507.822 1079.97 506.338 1079.21 505.07C1078.46 503.801 1077.4 502.812 1076.02 502.103C1074.67 501.393 1073.06 501.039 1071.18 501.039H1065.09V518.002ZM1092.98 520.807V512.165L1093.72 514.164L1084.02 498.233H1087.47L1095.63 511.681H1093.76L1101.95 498.233H1105.14L1095.47 514.164L1096.17 512.165V520.807H1092.98ZM1108.03 520.807V498.233H1110.68L1125.61 516.776H1124.22V498.233H1127.45V520.807H1124.8L1109.87 502.264H1111.26V520.807H1108.03ZM1130.79 520.807L1141.01 498.233H1144.2L1154.46 520.807H1151.07L1141.95 500.039H1143.24L1134.11 520.807H1130.79ZM1135.14 515.164L1136.01 512.584H1148.72L1149.65 515.164H1135.14ZM1157.83 520.807V498.233H1160.47L1170.6 515.293H1169.18L1179.17 498.233H1181.82L1181.85 520.807H1178.76L1178.72 503.103H1179.46L1170.56 518.066H1169.08L1160.12 503.103H1160.92V520.807H1157.83ZM1188.63 520.807V498.233H1191.85V520.807H1188.63ZM1208.7 521.065C1206.98 521.065 1205.39 520.786 1203.93 520.227C1202.49 519.646 1201.23 518.84 1200.16 517.808C1199.1 516.755 1198.28 515.529 1197.67 514.132C1197.07 512.734 1196.77 511.197 1196.77 509.52C1196.77 507.843 1197.07 506.306 1197.67 504.908C1198.28 503.511 1199.11 502.296 1200.19 501.264C1201.26 500.211 1202.52 499.405 1203.96 498.846C1205.42 498.265 1207.02 497.975 1208.74 497.975C1210.48 497.975 1212.08 498.276 1213.54 498.878C1215.02 499.458 1216.28 500.329 1217.31 501.49L1215.22 503.522C1214.36 502.619 1213.39 501.952 1212.32 501.522C1211.24 501.071 1210.09 500.845 1208.86 500.845C1207.6 500.845 1206.41 501.06 1205.32 501.49C1204.24 501.92 1203.31 502.522 1202.51 503.296C1201.72 504.07 1201.09 504.994 1200.64 506.069C1200.21 507.123 1200 508.273 1200 509.52C1200 510.767 1200.21 511.928 1200.64 513.003C1201.09 514.057 1201.72 514.97 1202.51 515.744C1203.31 516.518 1204.24 517.12 1205.32 517.55C1206.41 517.98 1207.6 518.195 1208.86 518.195C1210.09 518.195 1211.24 517.98 1212.32 517.55C1213.39 517.099 1214.36 516.411 1215.22 515.486L1217.31 517.518C1216.28 518.679 1215.02 519.56 1213.54 520.162C1212.08 520.764 1210.47 521.065 1208.7 521.065ZM1227.16 520.807L1237.38 498.233H1240.57L1250.83 520.807H1247.44L1238.32 500.039H1239.61L1230.48 520.807H1227.16ZM1231.51 515.164L1232.38 512.584H1245.09L1246.02 515.164H1231.51ZM1264.07 521.065C1262.33 521.065 1260.73 520.786 1259.27 520.227C1257.8 519.646 1256.54 518.84 1255.46 517.808C1254.39 516.755 1253.55 515.529 1252.95 514.132C1252.34 512.734 1252.04 511.197 1252.04 509.52C1252.04 507.843 1252.34 506.306 1252.95 504.908C1253.55 503.511 1254.39 502.296 1255.46 501.264C1256.56 500.211 1257.84 499.405 1259.3 498.846C1260.76 498.265 1262.37 497.975 1264.14 497.975C1265.92 497.975 1267.55 498.265 1269.04 498.846C1270.52 499.426 1271.78 500.297 1272.81 501.458L1270.81 503.457C1269.89 502.554 1268.88 501.899 1267.78 501.49C1266.7 501.06 1265.53 500.845 1264.26 500.845C1262.97 500.845 1261.77 501.06 1260.65 501.49C1259.56 501.92 1258.6 502.522 1257.78 503.296C1256.99 504.07 1256.36 504.994 1255.91 506.069C1255.48 507.123 1255.27 508.273 1255.27 509.52C1255.27 510.746 1255.48 511.896 1255.91 512.971C1256.36 514.024 1256.99 514.949 1257.78 515.744C1258.6 516.518 1259.56 517.12 1260.65 517.55C1261.75 517.98 1262.94 518.195 1264.23 518.195C1265.44 518.195 1266.59 518.012 1267.68 517.647C1268.8 517.26 1269.83 516.626 1270.78 515.744L1272.62 518.195C1271.5 519.141 1270.19 519.861 1268.68 520.356C1267.2 520.829 1265.66 521.065 1264.07 521.065ZM1269.52 517.776V509.391H1272.62V518.195L1269.52 517.776ZM1281.73 507.972H1293.34V510.713H1281.73V507.972ZM1282.02 518.002H1295.17V520.807H1278.79V498.233H1294.72V501.039H1282.02V518.002ZM1300.4 520.807V498.233H1303.04L1317.97 516.776H1316.59V498.233H1319.81V520.807H1317.17L1302.23 502.264H1303.62V520.807H1300.4ZM1331.05 520.807V501.039H1323.31V498.233H1341.98V501.039H1334.24V520.807H1331.05ZM1351.79 521.065C1350.07 521.065 1348.43 520.807 1346.86 520.291C1345.29 519.754 1344.05 519.066 1343.15 518.227L1344.34 515.712C1345.2 516.464 1346.3 517.088 1347.63 517.582C1348.96 518.077 1350.35 518.324 1351.79 518.324C1353.1 518.324 1354.17 518.174 1354.98 517.873C1355.8 517.572 1356.4 517.163 1356.79 516.647C1357.18 516.11 1357.37 515.508 1357.37 514.841C1357.37 514.067 1357.11 513.444 1356.6 512.971C1356.1 512.498 1355.45 512.122 1354.63 511.842C1353.83 511.541 1352.95 511.283 1351.98 511.068C1351.02 510.853 1350.04 510.606 1349.05 510.326C1348.08 510.025 1347.19 509.649 1346.37 509.198C1345.58 508.746 1344.93 508.144 1344.44 507.392C1343.94 506.618 1343.7 505.629 1343.7 504.425C1343.7 503.264 1344 502.2 1344.6 501.232C1345.22 500.243 1346.17 499.458 1347.44 498.878C1348.73 498.276 1350.36 497.975 1352.34 497.975C1353.65 497.975 1354.95 498.147 1356.24 498.491C1357.53 498.835 1358.65 499.329 1359.59 499.974L1358.53 502.554C1357.56 501.909 1356.54 501.447 1355.47 501.168C1354.39 500.867 1353.35 500.716 1352.34 500.716C1351.07 500.716 1350.03 500.877 1349.21 501.2C1348.39 501.522 1347.79 501.952 1347.4 502.49C1347.04 503.027 1346.86 503.629 1346.86 504.296C1346.86 505.091 1347.1 505.725 1347.6 506.198C1348.11 506.671 1348.77 507.048 1349.57 507.327C1350.38 507.607 1351.27 507.865 1352.24 508.101C1353.21 508.316 1354.18 508.563 1355.14 508.843C1356.13 509.122 1357.03 509.488 1357.82 509.939C1358.64 510.391 1359.29 510.993 1359.79 511.745C1360.28 512.498 1360.53 513.465 1360.53 514.648C1360.53 515.787 1360.22 516.851 1359.59 517.84C1358.97 518.808 1358 519.593 1356.69 520.195C1355.4 520.775 1353.77 521.065 1351.79 521.065Z" fill="#F8F8F8"/>
<rect x="884" y="128" width="500" height="233" rx="5" fill="#FFD633"/>
<rect x="959" y="159.201" width="350" height="50" rx="5.1495" fill="#F8F8F8"/>
<path d="M1098.49 192.701V175.901H1100.89V190.613H1109.99V192.701H1098.49ZM1112.74 192.701V175.901H1115.14V192.701H1112.74ZM1120.17 192.701V175.901H1122.14L1133.25 189.701H1132.22V175.901H1134.62V192.701H1132.65L1121.54 178.901H1122.57V192.701H1120.17ZM1146.61 192.893C1144.4 192.893 1142.66 192.261 1141.4 190.997C1140.14 189.733 1139.5 187.885 1139.5 185.453V175.901H1141.9V185.357C1141.9 187.229 1142.31 188.597 1143.13 189.461C1143.96 190.325 1145.13 190.757 1146.63 190.757C1148.15 190.757 1149.32 190.325 1150.14 189.461C1150.97 188.597 1151.38 187.229 1151.38 185.357V175.901H1153.71V185.453C1153.71 187.885 1153.08 189.733 1151.82 190.997C1150.57 192.261 1148.83 192.893 1146.61 192.893ZM1156.19 192.701L1163.17 183.173V185.021L1156.57 175.901H1159.31L1164.54 183.077L1163.46 183.101L1168.67 175.901H1171.29L1164.73 184.877V183.149L1171.72 192.701H1168.96L1163.39 185.045H1164.45L1158.95 192.701H1156.19Z" fill="black"/>
<rect x="959" y="219.5" width="350" height="50" rx="5.1495" fill="#F8F8F8"/>
<path d="M1073.07 253L1067.46 236.2H1069.93L1075.09 251.704H1073.84L1079.19 236.2H1081.4L1086.63 251.704H1085.43L1090.66 236.2H1092.94L1087.33 253H1084.81L1079.91 238.624H1080.56L1075.64 253H1073.07ZM1095.88 253V236.2H1098.28V253H1095.88ZM1103.31 253V236.2H1105.28L1116.39 250H1115.36V236.2H1117.76V253H1115.79L1104.68 239.2H1105.71V253H1103.31ZM1122.79 253V236.2H1129.87C1131.66 236.2 1133.23 236.552 1134.59 237.256C1135.97 237.96 1137.03 238.944 1137.79 240.208C1138.55 241.472 1138.94 242.936 1138.94 244.6C1138.94 246.264 1138.55 247.728 1137.79 248.992C1137.03 250.256 1135.97 251.24 1134.59 251.944C1133.23 252.648 1131.66 253 1129.87 253H1122.79ZM1125.19 250.912H1129.72C1131.11 250.912 1132.31 250.648 1133.32 250.12C1134.35 249.592 1135.14 248.856 1135.7 247.912C1136.26 246.952 1136.54 245.848 1136.54 244.6C1136.54 243.336 1136.26 242.232 1135.7 241.288C1135.14 240.344 1134.35 239.608 1133.32 239.08C1132.31 238.552 1131.11 238.288 1129.72 238.288H1125.19V250.912ZM1150.2 253.192C1148.92 253.192 1147.73 252.976 1146.62 252.544C1145.53 252.112 1144.59 251.512 1143.79 250.744C1142.99 249.96 1142.37 249.048 1141.92 248.008C1141.47 246.968 1141.25 245.832 1141.25 244.6C1141.25 243.368 1141.47 242.232 1141.92 241.192C1142.37 240.152 1142.99 239.248 1143.79 238.48C1144.59 237.696 1145.53 237.088 1146.62 236.656C1147.71 236.224 1148.9 236.008 1150.2 236.008C1151.48 236.008 1152.65 236.224 1153.73 236.656C1154.81 237.072 1155.76 237.672 1156.56 238.456C1157.37 239.224 1158 240.128 1158.43 241.168C1158.88 242.208 1159.1 243.352 1159.1 244.6C1159.1 245.848 1158.88 246.992 1158.43 248.032C1158 249.072 1157.37 249.984 1156.56 250.768C1155.76 251.536 1154.81 252.136 1153.73 252.568C1152.65 252.984 1151.48 253.192 1150.2 253.192ZM1150.2 251.056C1151.13 251.056 1151.98 250.896 1152.77 250.576C1153.57 250.256 1154.25 249.808 1154.83 249.232C1155.42 248.64 1155.88 247.952 1156.2 247.168C1156.53 246.384 1156.7 245.528 1156.7 244.6C1156.7 243.672 1156.53 242.816 1156.2 242.032C1155.88 241.248 1155.42 240.568 1154.83 239.992C1154.25 239.4 1153.57 238.944 1152.77 238.624C1151.98 238.304 1151.13 238.144 1150.2 238.144C1149.25 238.144 1148.38 238.304 1147.58 238.624C1146.8 238.944 1146.11 239.4 1145.52 239.992C1144.93 240.568 1144.46 241.248 1144.13 242.032C1143.81 242.816 1143.65 243.672 1143.65 244.6C1143.65 245.528 1143.81 246.384 1144.13 247.168C1144.46 247.952 1144.93 248.64 1145.52 249.232C1146.11 249.808 1146.8 250.256 1147.58 250.576C1148.38 250.896 1149.25 251.056 1150.2 251.056ZM1166.12 253L1160.5 236.2H1162.97L1168.13 251.704H1166.89L1172.24 236.2H1174.45L1179.68 251.704H1178.48L1183.71 236.2H1185.99L1180.37 253H1177.85L1172.96 238.624H1173.61L1168.69 253H1166.12ZM1193.82 253.192C1192.54 253.192 1191.32 253 1190.15 252.616C1188.98 252.216 1188.06 251.704 1187.39 251.08L1188.28 249.208C1188.92 249.768 1189.73 250.232 1190.73 250.6C1191.72 250.968 1192.75 251.152 1193.82 251.152C1194.8 251.152 1195.59 251.04 1196.2 250.816C1196.81 250.592 1197.25 250.288 1197.54 249.904C1197.83 249.504 1197.97 249.056 1197.97 248.56C1197.97 247.984 1197.78 247.52 1197.4 247.168C1197.03 246.816 1196.54 246.536 1195.93 246.328C1195.34 246.104 1194.69 245.912 1193.97 245.752C1193.25 245.592 1192.52 245.408 1191.78 245.2C1191.06 244.976 1190.4 244.696 1189.79 244.36C1189.2 244.024 1188.72 243.576 1188.35 243.016C1187.98 242.44 1187.8 241.704 1187.8 240.808C1187.8 239.944 1188.02 239.152 1188.47 238.432C1188.93 237.696 1189.64 237.112 1190.58 236.68C1191.54 236.232 1192.76 236.008 1194.23 236.008C1195.21 236.008 1196.17 236.136 1197.13 236.392C1198.09 236.648 1198.93 237.016 1199.63 237.496L1198.84 239.416C1198.12 238.936 1197.36 238.592 1196.56 238.384C1195.76 238.16 1194.98 238.048 1194.23 238.048C1193.29 238.048 1192.51 238.168 1191.9 238.408C1191.29 238.648 1190.85 238.968 1190.56 239.368C1190.29 239.768 1190.15 240.216 1190.15 240.712C1190.15 241.304 1190.33 241.776 1190.7 242.128C1191.09 242.48 1191.57 242.76 1192.17 242.968C1192.77 243.176 1193.44 243.368 1194.16 243.544C1194.88 243.704 1195.6 243.888 1196.32 244.096C1197.05 244.304 1197.72 244.576 1198.31 244.912C1198.92 245.248 1199.41 245.696 1199.77 246.256C1200.14 246.816 1200.33 247.536 1200.33 248.416C1200.33 249.264 1200.09 250.056 1199.63 250.792C1199.17 251.512 1198.45 252.096 1197.47 252.544C1196.51 252.976 1195.29 253.192 1193.82 253.192Z" fill="black"/>
<rect x="959" y="279.799" width="350" height="50" rx="5.1495" fill="#F8F8F8"/>
<path d="M1090.36 313.299V296.499H1092.33L1099.86 309.195H1098.81L1106.25 296.499H1108.22L1108.24 313.299H1105.94L1105.91 300.123H1106.46L1099.84 311.259H1098.74L1092.06 300.123H1092.66V313.299H1090.36ZM1110.74 313.299L1118.35 296.499H1120.72L1128.35 313.299H1125.83L1119.04 297.843H1120L1113.21 313.299H1110.74ZM1113.98 309.099L1114.63 307.179H1124.08L1124.78 309.099H1113.98ZM1138.14 313.491C1136.86 313.491 1135.67 313.283 1134.59 312.867C1133.51 312.435 1132.58 311.835 1131.78 311.067C1130.99 310.283 1130.38 309.371 1129.93 308.331C1129.48 307.291 1129.26 306.147 1129.26 304.899C1129.26 303.651 1129.48 302.507 1129.93 301.467C1130.38 300.427 1131 299.523 1131.8 298.755C1132.6 297.971 1133.54 297.371 1134.61 296.955C1135.7 296.523 1136.88 296.307 1138.16 296.307C1139.46 296.307 1140.65 296.531 1141.74 296.979C1142.84 297.411 1143.78 298.059 1144.55 298.923L1142.99 300.435C1142.35 299.763 1141.63 299.267 1140.83 298.947C1140.03 298.611 1139.17 298.443 1138.26 298.443C1137.31 298.443 1136.43 298.603 1135.62 298.923C1134.82 299.243 1134.12 299.691 1133.53 300.267C1132.94 300.843 1132.47 301.531 1132.14 302.331C1131.82 303.115 1131.66 303.971 1131.66 304.899C1131.66 305.827 1131.82 306.691 1132.14 307.491C1132.47 308.275 1132.94 308.955 1133.53 309.531C1134.12 310.107 1134.82 310.555 1135.62 310.875C1136.43 311.195 1137.31 311.355 1138.26 311.355C1139.17 311.355 1140.03 311.195 1140.83 310.875C1141.63 310.539 1142.35 310.027 1142.99 309.339L1144.55 310.851C1143.78 311.715 1142.84 312.371 1141.74 312.819C1140.65 313.267 1139.45 313.491 1138.14 313.491ZM1155.2 313.491C1153.92 313.491 1152.73 313.275 1151.63 312.843C1150.54 312.411 1149.59 311.811 1148.79 311.043C1147.99 310.259 1147.37 309.347 1146.92 308.307C1146.47 307.267 1146.25 306.131 1146.25 304.899C1146.25 303.667 1146.47 302.531 1146.92 301.491C1147.37 300.451 1147.99 299.547 1148.79 298.779C1149.59 297.995 1150.54 297.387 1151.63 296.955C1152.71 296.523 1153.91 296.307 1155.2 296.307C1156.48 296.307 1157.66 296.523 1158.73 296.955C1159.82 297.371 1160.76 297.971 1161.56 298.755C1162.38 299.523 1163 300.427 1163.43 301.467C1163.88 302.507 1164.11 303.651 1164.11 304.899C1164.11 306.147 1163.88 307.291 1163.43 308.331C1163 309.371 1162.38 310.283 1161.56 311.067C1160.76 311.835 1159.82 312.435 1158.73 312.867C1157.66 313.283 1156.48 313.491 1155.2 313.491ZM1155.2 311.355C1156.13 311.355 1156.99 311.195 1157.77 310.875C1158.57 310.555 1159.26 310.107 1159.83 309.531C1160.43 308.939 1160.88 308.251 1161.2 307.467C1161.54 306.683 1161.71 305.827 1161.71 304.899C1161.71 303.971 1161.54 303.115 1161.2 302.331C1160.88 301.547 1160.43 300.867 1159.83 300.291C1159.26 299.699 1158.57 299.243 1157.77 298.923C1156.99 298.603 1156.13 298.443 1155.2 298.443C1154.26 298.443 1153.39 298.603 1152.59 298.923C1151.8 299.243 1151.11 299.699 1150.52 300.291C1149.93 300.867 1149.47 301.547 1149.13 302.331C1148.81 303.115 1148.65 303.971 1148.65 304.899C1148.65 305.827 1148.81 306.683 1149.13 307.467C1149.47 308.251 1149.93 308.939 1150.52 309.531C1151.11 310.107 1151.8 310.555 1152.59 310.875C1153.39 311.195 1154.26 311.355 1155.2 311.355ZM1172.67 313.491C1171.39 313.491 1170.17 313.299 1169 312.915C1167.83 312.515 1166.91 312.003 1166.24 311.379L1167.13 309.507C1167.77 310.067 1168.58 310.531 1169.57 310.899C1170.57 311.267 1171.6 311.451 1172.67 311.451C1173.65 311.451 1174.44 311.339 1175.05 311.115C1175.65 310.891 1176.1 310.587 1176.39 310.203C1176.68 309.803 1176.82 309.355 1176.82 308.859C1176.82 308.283 1176.63 307.819 1176.25 307.467C1175.88 307.115 1175.39 306.835 1174.78 306.627C1174.19 306.403 1173.53 306.211 1172.81 306.051C1172.09 305.891 1171.37 305.707 1170.63 305.499C1169.91 305.275 1169.25 304.995 1168.64 304.659C1168.05 304.323 1167.57 303.875 1167.2 303.315C1166.83 302.739 1166.65 302.003 1166.65 301.107C1166.65 300.243 1166.87 299.451 1167.32 298.731C1167.78 297.995 1168.49 297.411 1169.43 296.979C1170.39 296.531 1171.61 296.307 1173.08 296.307C1174.05 296.307 1175.02 296.435 1175.98 296.691C1176.94 296.947 1177.77 297.315 1178.48 297.795L1177.69 299.715C1176.97 299.235 1176.21 298.891 1175.41 298.683C1174.61 298.459 1173.83 298.347 1173.08 298.347C1172.13 298.347 1171.36 298.467 1170.75 298.707C1170.14 298.947 1169.69 299.267 1169.41 299.667C1169.13 300.067 1169 300.515 1169 301.011C1169 301.603 1169.18 302.075 1169.55 302.427C1169.93 302.779 1170.42 303.059 1171.01 303.267C1171.62 303.475 1172.29 303.667 1173.01 303.843C1173.73 304.003 1174.45 304.187 1175.17 304.395C1175.9 304.603 1176.57 304.875 1177.16 305.211C1177.77 305.547 1178.25 305.995 1178.62 306.555C1178.99 307.115 1179.17 307.835 1179.17 308.715C1179.17 309.563 1178.94 310.355 1178.48 311.091C1178.01 311.811 1177.29 312.395 1176.32 312.843C1175.36 313.275 1174.14 313.491 1172.67 313.491Z" fill="black"/>
<rect x="884" y="590" width="500" height="341" rx="5" fill="#FFD633"/>
<rect x="959" y="614.902" width="350" height="50" rx="5.1495" fill="#F8F8F8"/>
<path d="M1082.47 648.402V631.602H1089.55C1091.35 631.602 1092.92 631.954 1094.28 632.658C1095.66 633.362 1096.72 634.346 1097.47 635.61C1098.24 636.874 1098.63 638.338 1098.63 640.002C1098.63 641.666 1098.24 643.13 1097.47 644.394C1096.72 645.658 1095.66 646.642 1094.28 647.346C1092.92 648.05 1091.35 648.402 1089.55 648.402H1082.47ZM1084.87 646.314H1089.41C1090.8 646.314 1092 646.05 1093.01 645.522C1094.03 644.994 1094.83 644.258 1095.39 643.314C1095.95 642.354 1096.23 641.25 1096.23 640.002C1096.23 638.738 1095.95 637.634 1095.39 636.69C1094.83 635.746 1094.03 635.01 1093.01 634.482C1092 633.954 1090.8 633.69 1089.41 633.69H1084.87V646.314ZM1109.89 648.594C1108.61 648.594 1107.41 648.378 1106.31 647.946C1105.22 647.514 1104.28 646.914 1103.48 646.146C1102.68 645.362 1102.05 644.45 1101.61 643.41C1101.16 642.37 1100.93 641.234 1100.93 640.002C1100.93 638.77 1101.16 637.634 1101.61 636.594C1102.05 635.554 1102.68 634.65 1103.48 633.882C1104.28 633.098 1105.22 632.49 1106.31 632.058C1107.4 631.626 1108.59 631.41 1109.89 631.41C1111.17 631.41 1112.34 631.626 1113.41 632.058C1114.5 632.474 1115.45 633.074 1116.25 633.858C1117.06 634.626 1117.69 635.53 1118.12 636.57C1118.57 637.61 1118.79 638.754 1118.79 640.002C1118.79 641.25 1118.57 642.394 1118.12 643.434C1117.69 644.474 1117.06 645.386 1116.25 646.17C1115.45 646.938 1114.5 647.538 1113.41 647.97C1112.34 648.386 1111.17 648.594 1109.89 648.594ZM1109.89 646.458C1110.81 646.458 1111.67 646.298 1112.45 645.978C1113.25 645.658 1113.94 645.21 1114.52 644.634C1115.11 644.042 1115.57 643.354 1115.89 642.57C1116.22 641.786 1116.39 640.93 1116.39 640.002C1116.39 639.074 1116.22 638.218 1115.89 637.434C1115.57 636.65 1115.11 635.97 1114.52 635.394C1113.94 634.802 1113.25 634.346 1112.45 634.026C1111.67 633.706 1110.81 633.546 1109.89 633.546C1108.94 633.546 1108.07 633.706 1107.27 634.026C1106.49 634.346 1105.8 634.802 1105.21 635.394C1104.61 635.97 1104.15 636.65 1103.81 637.434C1103.49 638.218 1103.33 639.074 1103.33 640.002C1103.33 640.93 1103.49 641.786 1103.81 642.57C1104.15 643.354 1104.61 644.042 1105.21 644.634C1105.8 645.21 1106.49 645.658 1107.27 645.978C1108.07 646.298 1108.94 646.458 1109.89 646.458ZM1129.97 648.594C1128.69 648.594 1127.51 648.386 1126.42 647.97C1125.35 647.538 1124.41 646.938 1123.61 646.17C1122.83 645.386 1122.21 644.474 1121.76 643.434C1121.31 642.394 1121.09 641.25 1121.09 640.002C1121.09 638.754 1121.31 637.61 1121.76 636.57C1122.21 635.53 1122.83 634.626 1123.63 633.858C1124.43 633.074 1125.37 632.474 1126.44 632.058C1127.53 631.626 1128.71 631.41 1129.99 631.41C1131.29 631.41 1132.48 631.634 1133.57 632.082C1134.67 632.514 1135.61 633.162 1136.38 634.026L1134.82 635.538C1134.18 634.866 1133.46 634.37 1132.66 634.05C1131.86 633.714 1131 633.546 1130.09 633.546C1129.15 633.546 1128.27 633.706 1127.45 634.026C1126.65 634.346 1125.95 634.794 1125.36 635.37C1124.77 635.946 1124.31 636.634 1123.97 637.434C1123.65 638.218 1123.49 639.074 1123.49 640.002C1123.49 640.93 1123.65 641.794 1123.97 642.594C1124.31 643.378 1124.77 644.058 1125.36 644.634C1125.95 645.21 1126.65 645.658 1127.45 645.978C1128.27 646.298 1129.15 646.458 1130.09 646.458C1131 646.458 1131.86 646.298 1132.66 645.978C1133.46 645.642 1134.18 645.13 1134.82 644.442L1136.38 645.954C1135.61 646.818 1134.67 647.474 1133.57 647.922C1132.48 648.37 1131.28 648.594 1129.97 648.594ZM1141.91 644.346L1141.79 641.418L1151.32 631.602H1154.06L1146.69 639.378L1145.35 640.866L1141.91 644.346ZM1139.8 648.402V631.602H1142.2V648.402H1139.8ZM1151.71 648.402L1144.82 640.386L1146.43 638.61L1154.51 648.402H1151.71ZM1159.24 638.85H1167.88V640.89H1159.24V638.85ZM1159.45 646.314H1169.24V648.402H1157.05V631.602H1168.91V633.69H1159.45V646.314ZM1173.13 648.402V631.602H1179.68C1181.15 631.602 1182.41 631.834 1183.45 632.298C1184.49 632.762 1185.29 633.434 1185.85 634.314C1186.41 635.194 1186.69 636.242 1186.69 637.458C1186.69 638.674 1186.41 639.722 1185.85 640.602C1185.29 641.466 1184.49 642.13 1183.45 642.594C1182.41 643.058 1181.15 643.29 1179.68 643.29H1174.45L1175.53 642.186V648.402H1173.13ZM1184.36 648.402L1180.09 642.306H1182.66L1186.98 648.402H1184.36ZM1175.53 642.426L1174.45 641.25H1179.61C1181.15 641.25 1182.31 640.922 1183.09 640.266C1183.89 639.594 1184.29 638.658 1184.29 637.458C1184.29 636.258 1183.89 635.33 1183.09 634.674C1182.31 634.018 1181.15 633.69 1179.61 633.69H1174.45L1175.53 632.49V642.426Z" fill="black"/>
<rect x="959" y="675.201" width="350" height="50" rx="5.1495" fill="#F8F8F8"/>
<path d="M1054.48 704.645L1054.36 701.717L1063.89 691.901H1066.62L1059.26 699.677L1057.91 701.165L1054.48 704.645ZM1052.37 708.701V691.901H1054.77V708.701H1052.37ZM1064.27 708.701L1057.38 700.685L1058.99 698.909L1067.08 708.701H1064.27ZM1076.34 708.893C1074.14 708.893 1072.4 708.261 1071.14 706.997C1069.87 705.733 1069.24 703.885 1069.24 701.453V691.901H1071.64V701.357C1071.64 703.229 1072.05 704.597 1072.86 705.461C1073.7 706.325 1074.86 706.757 1076.37 706.757C1077.89 706.757 1079.06 706.325 1079.87 705.461C1080.7 704.597 1081.12 703.229 1081.12 701.357V691.901H1083.45V701.453C1083.45 703.885 1082.82 705.733 1081.55 706.997C1080.3 708.261 1078.57 708.893 1076.34 708.893ZM1088.37 708.701V691.901H1095.9C1097.84 691.901 1099.33 692.293 1100.37 693.077C1101.41 693.845 1101.93 694.901 1101.93 696.245C1101.93 697.157 1101.72 697.925 1101.3 698.549C1100.9 699.173 1100.36 699.653 1099.67 699.989C1098.98 700.325 1098.24 700.493 1097.44 700.493L1097.87 699.773C1098.83 699.773 1099.68 699.941 1100.42 700.277C1101.15 700.613 1101.74 701.109 1102.17 701.765C1102.6 702.405 1102.82 703.205 1102.82 704.165C1102.82 705.605 1102.27 706.725 1101.18 707.525C1100.11 708.309 1098.51 708.701 1096.38 708.701H1088.37ZM1090.77 706.757H1096.29C1097.62 706.757 1098.63 706.533 1099.34 706.085C1100.04 705.637 1100.39 704.933 1100.39 703.973C1100.39 702.997 1100.04 702.285 1099.34 701.837C1098.63 701.389 1097.62 701.165 1096.29 701.165H1090.55V699.221H1095.69C1096.9 699.221 1097.85 698.997 1098.52 698.549C1099.19 698.101 1099.53 697.429 1099.53 696.533C1099.53 695.637 1099.19 694.965 1098.52 694.517C1097.85 694.069 1096.9 693.845 1095.69 693.845H1090.77V706.757ZM1108.72 699.149H1117.36V701.189H1108.72V699.149ZM1108.93 706.613H1118.72V708.701H1106.53V691.901H1118.39V693.989H1108.93V706.613ZM1122.61 708.701V691.901H1129.16C1130.63 691.901 1131.89 692.133 1132.93 692.597C1133.97 693.061 1134.77 693.733 1135.33 694.613C1135.89 695.493 1136.17 696.541 1136.17 697.757C1136.17 698.973 1135.89 700.021 1135.33 700.901C1134.77 701.765 1133.97 702.429 1132.93 702.893C1131.89 703.357 1130.63 703.589 1129.16 703.589H1123.93L1125.01 702.485V708.701H1122.61ZM1133.84 708.701L1129.57 702.605H1132.14L1136.46 708.701H1133.84ZM1125.01 702.725L1123.93 701.549H1129.09C1130.63 701.549 1131.79 701.221 1132.57 700.565C1133.37 699.893 1133.77 698.957 1133.77 697.757C1133.77 696.557 1133.37 695.629 1132.57 694.973C1131.79 694.317 1130.63 693.989 1129.09 693.989H1123.93L1125.01 692.789V702.725ZM1140.05 708.701V691.901H1142.02L1153.13 705.701H1152.1V691.901H1154.5V708.701H1152.53L1141.42 694.901H1142.45V708.701H1140.05ZM1161.71 699.149H1170.35V701.189H1161.71V699.149ZM1161.92 706.613H1171.72V708.701H1159.52V691.901H1171.38V693.989H1161.92V706.613ZM1178.94 708.701V693.989H1173.18V691.901H1187.07V693.989H1181.31V708.701H1178.94ZM1191.87 699.149H1200.51V701.189H1191.87V699.149ZM1192.09 706.613H1201.88V708.701H1189.69V691.901H1201.54V693.989H1192.09V706.613ZM1210.66 708.893C1209.38 708.893 1208.16 708.701 1206.99 708.317C1205.82 707.917 1204.9 707.405 1204.23 706.781L1205.12 704.909C1205.76 705.469 1206.57 705.933 1207.57 706.301C1208.56 706.669 1209.59 706.853 1210.66 706.853C1211.64 706.853 1212.43 706.741 1213.04 706.517C1213.65 706.293 1214.09 705.989 1214.38 705.605C1214.67 705.205 1214.81 704.757 1214.81 704.261C1214.81 703.685 1214.62 703.221 1214.24 702.869C1213.87 702.517 1213.38 702.237 1212.77 702.029C1212.18 701.805 1211.53 701.613 1210.81 701.453C1210.09 701.293 1209.36 701.109 1208.62 700.901C1207.9 700.677 1207.24 700.397 1206.63 700.061C1206.04 699.725 1205.56 699.277 1205.19 698.717C1204.82 698.141 1204.64 697.405 1204.64 696.509C1204.64 695.645 1204.86 694.853 1205.31 694.133C1205.77 693.397 1206.48 692.813 1207.42 692.381C1208.38 691.933 1209.6 691.709 1211.07 691.709C1212.05 691.709 1213.01 691.837 1213.97 692.093C1214.93 692.349 1215.77 692.717 1216.47 693.197L1215.68 695.117C1214.96 694.637 1214.2 694.293 1213.4 694.085C1212.6 693.861 1211.82 693.749 1211.07 693.749C1210.13 693.749 1209.35 693.869 1208.74 694.109C1208.13 694.349 1207.69 694.669 1207.4 695.069C1207.13 695.469 1206.99 695.917 1206.99 696.413C1206.99 697.005 1207.17 697.477 1207.54 697.829C1207.93 698.181 1208.41 698.461 1209.01 698.669C1209.61 698.877 1210.28 699.069 1211 699.245C1211.72 699.405 1212.44 699.589 1213.16 699.797C1213.89 700.005 1214.56 700.277 1215.15 700.613C1215.76 700.949 1216.25 701.397 1216.61 701.957C1216.98 702.517 1217.17 703.237 1217.17 704.117C1217.17 704.965 1216.93 705.757 1216.47 706.493C1216.01 707.213 1215.29 707.797 1214.31 708.245C1213.35 708.677 1212.13 708.893 1210.66 708.893Z" fill="black"/>
<rect x="959" y="735.5" width="350" height="50" rx="5.1495" fill="#F8F8F8"/>
<path d="M1049.96 769L1057.57 752.2H1059.95L1067.58 769H1065.06L1058.27 753.544H1059.23L1052.44 769H1049.96ZM1053.2 764.8L1053.85 762.88H1063.31L1064 764.8H1053.2ZM1070.09 769V752.2H1072.05L1079.59 764.896H1078.53L1085.97 752.2H1087.94L1087.97 769H1085.66L1085.64 755.824H1086.19L1079.57 766.96H1078.46L1071.79 755.824H1072.39V769H1070.09ZM1090.46 769L1098.07 752.2H1100.45L1108.08 769H1105.56L1098.77 753.544H1099.73L1092.94 769H1090.46ZM1093.7 764.8L1094.35 762.88H1103.81L1104.5 764.8H1093.7ZM1109.1 769V767.368L1120.4 753.352L1120.67 754.288H1109.27V752.2H1122.83V753.832L1111.57 767.848L1111.28 766.912H1123.14V769H1109.1ZM1133.76 769.192C1132.48 769.192 1131.28 768.976 1130.18 768.544C1129.09 768.112 1128.15 767.512 1127.35 766.744C1126.55 765.96 1125.92 765.048 1125.48 764.008C1125.03 762.968 1124.8 761.832 1124.8 760.6C1124.8 759.368 1125.03 758.232 1125.48 757.192C1125.92 756.152 1126.55 755.248 1127.35 754.48C1128.15 753.696 1129.09 753.088 1130.18 752.656C1131.27 752.224 1132.46 752.008 1133.76 752.008C1135.04 752.008 1136.21 752.224 1137.28 752.656C1138.37 753.072 1139.32 753.672 1140.12 754.456C1140.93 755.224 1141.56 756.128 1141.99 757.168C1142.44 758.208 1142.66 759.352 1142.66 760.6C1142.66 761.848 1142.44 762.992 1141.99 764.032C1141.56 765.072 1140.93 765.984 1140.12 766.768C1139.32 767.536 1138.37 768.136 1137.28 768.568C1136.21 768.984 1135.04 769.192 1133.76 769.192ZM1133.76 767.056C1134.68 767.056 1135.54 766.896 1136.32 766.576C1137.12 766.256 1137.81 765.808 1138.39 765.232C1138.98 764.64 1139.44 763.952 1139.76 763.168C1140.09 762.384 1140.26 761.528 1140.26 760.6C1140.26 759.672 1140.09 758.816 1139.76 758.032C1139.44 757.248 1138.98 756.568 1138.39 755.992C1137.81 755.4 1137.12 754.944 1136.32 754.624C1135.54 754.304 1134.68 754.144 1133.76 754.144C1132.81 754.144 1131.94 754.304 1131.14 754.624C1130.36 754.944 1129.67 755.4 1129.08 755.992C1128.48 756.568 1128.02 757.248 1127.68 758.032C1127.36 758.816 1127.2 759.672 1127.2 760.6C1127.2 761.528 1127.36 762.384 1127.68 763.168C1128.02 763.952 1128.48 764.64 1129.08 765.232C1129.67 765.808 1130.36 766.256 1131.14 766.576C1131.94 766.896 1132.81 767.056 1133.76 767.056ZM1146.33 769V752.2H1148.3L1159.41 766H1158.38V752.2H1160.78V769H1158.81L1147.7 755.2H1148.73V769H1146.33ZM1174.43 759.448H1183.07V761.488H1174.43V759.448ZM1174.65 766.912H1184.44V769H1172.25V752.2H1184.11V754.288H1174.65V766.912ZM1195.82 769.192C1194.54 769.192 1193.35 768.984 1192.27 768.568C1191.19 768.136 1190.26 767.536 1189.46 766.768C1188.67 765.984 1188.06 765.072 1187.61 764.032C1187.16 762.992 1186.94 761.848 1186.94 760.6C1186.94 759.352 1187.16 758.208 1187.61 757.168C1188.06 756.128 1188.68 755.224 1189.48 754.456C1190.28 753.672 1191.22 753.072 1192.29 752.656C1193.38 752.224 1194.56 752.008 1195.84 752.008C1197.14 752.008 1198.33 752.232 1199.42 752.68C1200.52 753.112 1201.46 753.76 1202.23 754.624L1200.67 756.136C1200.03 755.464 1199.31 754.968 1198.51 754.648C1197.71 754.312 1196.85 754.144 1195.94 754.144C1194.99 754.144 1194.11 754.304 1193.3 754.624C1192.5 754.944 1191.8 755.392 1191.21 755.968C1190.62 756.544 1190.15 757.232 1189.82 758.032C1189.5 758.816 1189.34 759.672 1189.34 760.6C1189.34 761.528 1189.5 762.392 1189.82 763.192C1190.15 763.976 1190.62 764.656 1191.21 765.232C1191.8 765.808 1192.5 766.256 1193.3 766.576C1194.11 766.896 1194.99 767.056 1195.94 767.056C1196.85 767.056 1197.71 766.896 1198.51 766.576C1199.31 766.24 1200.03 765.728 1200.67 765.04L1202.23 766.552C1201.46 767.416 1200.52 768.072 1199.42 768.52C1198.33 768.968 1197.13 769.192 1195.82 769.192ZM1210.52 769.192C1209.24 769.192 1208.02 769 1206.85 768.616C1205.68 768.216 1204.76 767.704 1204.09 767.08L1204.98 765.208C1205.62 765.768 1206.43 766.232 1207.43 766.6C1208.42 766.968 1209.45 767.152 1210.52 767.152C1211.5 767.152 1212.29 767.04 1212.9 766.816C1213.51 766.592 1213.95 766.288 1214.24 765.904C1214.53 765.504 1214.67 765.056 1214.67 764.56C1214.67 763.984 1214.48 763.52 1214.1 763.168C1213.73 762.816 1213.24 762.536 1212.63 762.328C1212.04 762.104 1211.39 761.912 1210.67 761.752C1209.95 761.592 1209.22 761.408 1208.48 761.2C1207.76 760.976 1207.1 760.696 1206.49 760.36C1205.9 760.024 1205.42 759.576 1205.05 759.016C1204.68 758.44 1204.5 757.704 1204.5 756.808C1204.5 755.944 1204.72 755.152 1205.17 754.432C1205.63 753.696 1206.34 753.112 1207.28 752.68C1208.24 752.232 1209.46 752.008 1210.93 752.008C1211.91 752.008 1212.87 752.136 1213.83 752.392C1214.79 752.648 1215.63 753.016 1216.33 753.496L1215.54 755.416C1214.82 754.936 1214.06 754.592 1213.26 754.384C1212.46 754.16 1211.68 754.048 1210.93 754.048C1209.99 754.048 1209.21 754.168 1208.6 754.408C1207.99 754.648 1207.55 754.968 1207.26 755.368C1206.99 755.768 1206.85 756.216 1206.85 756.712C1206.85 757.304 1207.03 757.776 1207.4 758.128C1207.79 758.48 1208.27 758.76 1208.87 758.968C1209.47 759.176 1210.14 759.368 1210.86 759.544C1211.58 759.704 1212.3 759.888 1213.02 760.096C1213.75 760.304 1214.42 760.576 1215.01 760.912C1215.62 761.248 1216.11 761.696 1216.47 762.256C1216.84 762.816 1217.03 763.536 1217.03 764.416C1217.03 765.264 1216.79 766.056 1216.33 766.792C1215.87 767.512 1215.15 768.096 1214.17 768.544C1213.21 768.976 1211.99 769.192 1210.52 769.192Z" fill="black"/>
<rect x="959" y="795.799" width="350" height="50" rx="5.1495" fill="#F8F8F8"/>
<path d="M1059.74 829.491C1058.44 829.491 1057.25 829.283 1056.16 828.867C1055.08 828.435 1054.13 827.835 1053.33 827.067C1052.53 826.283 1051.91 825.371 1051.46 824.331C1051.01 823.291 1050.79 822.147 1050.79 820.899C1050.79 819.651 1051.01 818.507 1051.46 817.467C1051.91 816.427 1052.53 815.523 1053.33 814.755C1054.15 813.971 1055.1 813.371 1056.19 812.955C1057.28 812.523 1058.48 812.307 1059.79 812.307C1061.12 812.307 1062.33 812.523 1063.44 812.955C1064.54 813.387 1065.48 814.035 1066.24 814.899L1064.76 816.387C1064.07 815.715 1063.32 815.227 1062.5 814.923C1061.7 814.603 1060.83 814.443 1059.88 814.443C1058.92 814.443 1058.03 814.603 1057.2 814.923C1056.38 815.243 1055.67 815.691 1055.06 816.267C1054.47 816.843 1054 817.531 1053.67 818.331C1053.35 819.115 1053.19 819.971 1053.19 820.899C1053.19 821.811 1053.35 822.667 1053.67 823.467C1054 824.251 1054.47 824.939 1055.06 825.531C1055.67 826.107 1056.38 826.555 1057.2 826.875C1058.01 827.195 1058.9 827.355 1059.86 827.355C1060.76 827.355 1061.61 827.219 1062.43 826.947C1063.26 826.659 1064.03 826.187 1064.73 825.531L1066.1 827.355C1065.27 828.059 1064.29 828.595 1063.17 828.963C1062.07 829.315 1060.92 829.491 1059.74 829.491ZM1063.8 827.043V820.803H1066.1V827.355L1063.8 827.043ZM1078.28 829.491C1077 829.491 1075.81 829.275 1074.7 828.843C1073.62 828.411 1072.67 827.811 1071.87 827.043C1071.07 826.259 1070.45 825.347 1070 824.307C1069.55 823.267 1069.33 822.131 1069.33 820.899C1069.33 819.667 1069.55 818.531 1070 817.491C1070.45 816.451 1071.07 815.547 1071.87 814.779C1072.67 813.995 1073.62 813.387 1074.7 812.955C1075.79 812.523 1076.98 812.307 1078.28 812.307C1079.56 812.307 1080.74 812.523 1081.81 812.955C1082.9 813.371 1083.84 813.971 1084.64 814.755C1085.46 815.523 1086.08 816.427 1086.51 817.467C1086.96 818.507 1087.18 819.651 1087.18 820.899C1087.18 822.147 1086.96 823.291 1086.51 824.331C1086.08 825.371 1085.46 826.283 1084.64 827.067C1083.84 827.835 1082.9 828.435 1081.81 828.867C1080.74 829.283 1079.56 829.491 1078.28 829.491ZM1078.28 827.355C1079.21 827.355 1080.06 827.195 1080.85 826.875C1081.65 826.555 1082.34 826.107 1082.91 825.531C1083.5 824.939 1083.96 824.251 1084.28 823.467C1084.62 822.683 1084.78 821.827 1084.78 820.899C1084.78 819.971 1084.62 819.115 1084.28 818.331C1083.96 817.547 1083.5 816.867 1082.91 816.291C1082.34 815.699 1081.65 815.243 1080.85 814.923C1080.06 814.603 1079.21 814.443 1078.28 814.443C1077.34 814.443 1076.46 814.603 1075.66 814.923C1074.88 815.243 1074.19 815.699 1073.6 816.291C1073.01 816.867 1072.54 817.547 1072.21 818.331C1071.89 819.115 1071.73 819.971 1071.73 820.899C1071.73 821.827 1071.89 822.683 1072.21 823.467C1072.54 824.251 1073.01 824.939 1073.6 825.531C1074.19 826.107 1074.88 826.555 1075.66 826.875C1076.46 827.195 1077.34 827.355 1078.28 827.355ZM1098.44 829.491C1097.16 829.491 1095.96 829.275 1094.86 828.843C1093.77 828.411 1092.83 827.811 1092.03 827.043C1091.23 826.259 1090.6 825.347 1090.16 824.307C1089.71 823.267 1089.48 822.131 1089.48 820.899C1089.48 819.667 1089.71 818.531 1090.16 817.491C1090.6 816.451 1091.23 815.547 1092.03 814.779C1092.83 813.995 1093.77 813.387 1094.86 812.955C1095.95 812.523 1097.14 812.307 1098.44 812.307C1099.72 812.307 1100.89 812.523 1101.96 812.955C1103.05 813.371 1104 813.971 1104.8 814.755C1105.61 815.523 1106.24 816.427 1106.67 817.467C1107.12 818.507 1107.34 819.651 1107.34 820.899C1107.34 822.147 1107.12 823.291 1106.67 824.331C1106.24 825.371 1105.61 826.283 1104.8 827.067C1104 827.835 1103.05 828.435 1101.96 828.867C1100.89 829.283 1099.72 829.491 1098.44 829.491ZM1098.44 827.355C1099.36 827.355 1100.22 827.195 1101 826.875C1101.8 826.555 1102.49 826.107 1103.07 825.531C1103.66 824.939 1104.12 824.251 1104.44 823.467C1104.77 822.683 1104.94 821.827 1104.94 820.899C1104.94 819.971 1104.77 819.115 1104.44 818.331C1104.12 817.547 1103.66 816.867 1103.07 816.291C1102.49 815.699 1101.8 815.243 1101 814.923C1100.22 814.603 1099.36 814.443 1098.44 814.443C1097.49 814.443 1096.62 814.603 1095.82 814.923C1095.04 815.243 1094.35 815.699 1093.76 816.291C1093.16 816.867 1092.7 817.547 1092.36 818.331C1092.04 819.115 1091.88 819.971 1091.88 820.899C1091.88 821.827 1092.04 822.683 1092.36 823.467C1092.7 824.251 1093.16 824.939 1093.76 825.531C1094.35 826.107 1095.04 826.555 1095.82 826.875C1096.62 827.195 1097.49 827.355 1098.44 827.355ZM1118.59 829.491C1117.3 829.491 1116.1 829.283 1115.02 828.867C1113.93 828.435 1112.98 827.835 1112.18 827.067C1111.38 826.283 1110.76 825.371 1110.31 824.331C1109.86 823.291 1109.64 822.147 1109.64 820.899C1109.64 819.651 1109.86 818.507 1110.31 817.467C1110.76 816.427 1111.38 815.523 1112.18 814.755C1113 813.971 1113.95 813.371 1115.04 812.955C1116.13 812.523 1117.33 812.307 1118.64 812.307C1119.97 812.307 1121.18 812.523 1122.29 812.955C1123.39 813.387 1124.33 814.035 1125.1 814.899L1123.61 816.387C1122.92 815.715 1122.17 815.227 1121.35 814.923C1120.55 814.603 1119.68 814.443 1118.74 814.443C1117.78 814.443 1116.88 814.603 1116.05 814.923C1115.23 815.243 1114.52 815.691 1113.91 816.267C1113.32 816.843 1112.86 817.531 1112.52 818.331C1112.2 819.115 1112.04 819.971 1112.04 820.899C1112.04 821.811 1112.2 822.667 1112.52 823.467C1112.86 824.251 1113.32 824.939 1113.91 825.531C1114.52 826.107 1115.23 826.555 1116.05 826.875C1116.86 827.195 1117.75 827.355 1118.71 827.355C1119.61 827.355 1120.46 827.219 1121.28 826.947C1122.11 826.659 1122.88 826.187 1123.58 825.531L1124.95 827.355C1124.12 828.059 1123.14 828.595 1122.02 828.963C1120.92 829.315 1119.78 829.491 1118.59 829.491ZM1122.65 827.043V820.803H1124.95V827.355L1122.65 827.043ZM1129.55 829.299V812.499H1131.95V827.211H1141.04V829.299H1129.55ZM1145.98 819.747H1154.62V821.787H1145.98V819.747ZM1146.2 827.211H1155.99V829.299H1143.8V812.499H1155.65V814.587H1146.2V827.211ZM1171.17 829.299L1163.78 812.499H1166.37L1173.16 828.003H1171.67L1178.51 812.499H1180.91L1173.54 829.299H1171.17ZM1183.06 829.299V812.499H1185.02L1192.56 825.195H1191.5L1198.94 812.499H1200.91L1200.94 829.299H1198.63L1198.61 816.123H1199.16L1192.54 827.259H1191.43L1184.76 816.123H1185.36V829.299H1183.06ZM1210.87 829.491C1209.59 829.491 1208.37 829.299 1207.2 828.915C1206.03 828.515 1205.11 828.003 1204.44 827.379L1205.33 825.507C1205.97 826.067 1206.79 826.531 1207.78 826.899C1208.77 827.267 1209.8 827.451 1210.87 827.451C1211.85 827.451 1212.64 827.339 1213.25 827.115C1213.86 826.891 1214.31 826.587 1214.59 826.203C1214.88 825.803 1215.03 825.355 1215.03 824.859C1215.03 824.283 1214.83 823.819 1214.45 823.467C1214.08 823.115 1213.59 822.835 1212.99 822.627C1212.39 822.403 1211.74 822.211 1211.02 822.051C1210.3 821.891 1209.57 821.707 1208.83 821.499C1208.11 821.275 1207.45 820.995 1206.84 820.659C1206.25 820.323 1205.77 819.875 1205.4 819.315C1205.03 818.739 1204.85 818.003 1204.85 817.107C1204.85 816.243 1205.07 815.451 1205.52 814.731C1205.99 813.995 1206.69 813.411 1207.63 812.979C1208.59 812.531 1209.81 812.307 1211.28 812.307C1212.26 812.307 1213.23 812.435 1214.19 812.691C1215.15 812.947 1215.98 813.315 1216.68 813.795L1215.89 815.715C1215.17 815.235 1214.41 814.891 1213.61 814.683C1212.81 814.459 1212.03 814.347 1211.28 814.347C1210.34 814.347 1209.56 814.467 1208.95 814.707C1208.35 814.947 1207.9 815.267 1207.61 815.667C1207.34 816.067 1207.2 816.515 1207.2 817.011C1207.2 817.603 1207.39 818.075 1207.75 818.427C1208.14 818.779 1208.63 819.059 1209.22 819.267C1209.83 819.475 1210.49 819.667 1211.21 819.843C1211.93 820.003 1212.65 820.187 1213.37 820.395C1214.11 820.603 1214.77 820.875 1215.36 821.211C1215.97 821.547 1216.46 821.995 1216.83 822.555C1217.19 823.115 1217.38 823.835 1217.38 824.715C1217.38 825.563 1217.15 826.355 1216.68 827.091C1216.22 827.811 1215.5 828.395 1214.52 828.843C1213.56 829.275 1212.35 829.491 1210.87 829.491Z" fill="black"/>
<rect x="959" y="856.098" width="350" height="50" rx="5.1495" fill="#F8F8F8"/>
<path d="M1060.55 889.598L1068.15 872.798H1070.53L1078.16 889.598H1075.64L1068.85 874.142H1069.81L1063.02 889.598H1060.55ZM1063.79 885.398L1064.43 883.478H1073.89L1074.59 885.398H1063.79ZM1079.18 889.598V887.966L1090.48 873.95L1090.75 874.886H1079.35V872.798H1092.91V874.43L1081.65 888.446L1081.36 887.51H1093.22V889.598H1079.18ZM1103.4 889.79C1101.19 889.79 1099.46 889.158 1098.19 887.894C1096.93 886.63 1096.3 884.782 1096.3 882.35V872.798H1098.7V882.254C1098.7 884.126 1099.11 885.494 1099.92 886.358C1100.75 887.222 1101.92 887.654 1103.43 887.654C1104.95 887.654 1106.11 887.222 1106.93 886.358C1107.76 885.494 1108.18 884.126 1108.18 882.254V872.798H1110.51V882.35C1110.51 884.782 1109.87 886.63 1108.61 887.894C1107.36 889.158 1105.63 889.79 1103.4 889.79ZM1115.43 889.598V872.798H1121.98C1123.45 872.798 1124.71 873.03 1125.75 873.494C1126.79 873.958 1127.59 874.63 1128.15 875.51C1128.71 876.39 1128.99 877.438 1128.99 878.654C1128.99 879.87 1128.71 880.918 1128.15 881.798C1127.59 882.662 1126.79 883.326 1125.75 883.79C1124.71 884.254 1123.45 884.486 1121.98 884.486H1116.75L1117.83 883.382V889.598H1115.43ZM1126.66 889.598L1122.39 883.502H1124.95L1129.27 889.598H1126.66ZM1117.83 883.622L1116.75 882.446H1121.91C1123.44 882.446 1124.6 882.118 1125.39 881.462C1126.19 880.79 1126.59 879.854 1126.59 878.654C1126.59 877.454 1126.19 876.526 1125.39 875.87C1124.6 875.214 1123.44 874.886 1121.91 874.886H1116.75L1117.83 873.686V883.622ZM1135.05 880.046H1143.69V882.086H1135.05V880.046ZM1135.26 887.51H1145.06V889.598H1132.86V872.798H1144.72V874.886H1135.26V887.51ZM1160.24 889.598L1152.84 872.798H1155.44L1162.23 888.302H1160.74L1167.58 872.798H1169.98L1162.61 889.598H1160.24ZM1172.12 889.598V872.798H1174.09L1181.63 885.494H1180.57L1188.01 872.798H1189.98L1190 889.598H1187.7L1187.67 876.422H1188.23L1181.6 887.558H1180.5L1173.83 876.422H1174.43V889.598H1172.12ZM1199.94 889.79C1198.66 889.79 1197.44 889.598 1196.27 889.214C1195.1 888.814 1194.18 888.302 1193.51 887.678L1194.4 885.806C1195.04 886.366 1195.85 886.83 1196.84 887.198C1197.84 887.566 1198.87 887.75 1199.94 887.75C1200.92 887.75 1201.71 887.638 1202.32 887.414C1202.92 887.19 1203.37 886.886 1203.66 886.502C1203.95 886.102 1204.09 885.654 1204.09 885.158C1204.09 884.582 1203.9 884.118 1203.52 883.766C1203.15 883.414 1202.66 883.134 1202.05 882.926C1201.46 882.702 1200.8 882.51 1200.08 882.35C1199.36 882.19 1198.64 882.006 1197.9 881.798C1197.18 881.574 1196.52 881.294 1195.91 880.958C1195.32 880.622 1194.84 880.174 1194.47 879.614C1194.1 879.038 1193.92 878.302 1193.92 877.406C1193.92 876.542 1194.14 875.75 1194.59 875.03C1195.05 874.294 1195.76 873.71 1196.7 873.278C1197.66 872.83 1198.88 872.606 1200.35 872.606C1201.32 872.606 1202.29 872.734 1203.25 872.99C1204.21 873.246 1205.04 873.614 1205.75 874.094L1204.96 876.014C1204.24 875.534 1203.48 875.19 1202.68 874.982C1201.88 874.758 1201.1 874.646 1200.35 874.646C1199.4 874.646 1198.63 874.766 1198.02 875.006C1197.41 875.246 1196.96 875.566 1196.68 875.966C1196.4 876.366 1196.27 876.814 1196.27 877.31C1196.27 877.902 1196.45 878.374 1196.82 878.726C1197.2 879.078 1197.69 879.358 1198.28 879.566C1198.89 879.774 1199.56 879.966 1200.28 880.142C1201 880.302 1201.72 880.486 1202.44 880.694C1203.17 880.902 1203.84 881.174 1204.43 881.51C1205.04 881.846 1205.52 882.294 1205.89 882.854C1206.26 883.414 1206.44 884.134 1206.44 885.014C1206.44 885.862 1206.21 886.654 1205.75 887.39C1205.28 888.11 1204.56 888.694 1203.59 889.142C1202.63 889.574 1201.41 889.79 1199.94 889.79Z" fill="black"/>
<path d="M424.997 609.001L450.49 622.546L449.473 593.696L424.997 609.001ZM883.991 245.5L858.696 231.589L859.296 260.451L883.991 245.5ZM447.655 610.702C510.861 606.074 548.003 581.687 573.145 547.348C598.105 513.257 611.164 469.391 626.528 426.361C641.962 383.136 659.775 340.514 694.107 307.762C728.36 275.085 779.345 251.978 861.627 248.465L861.414 243.47C778.233 247.021 725.988 270.438 690.656 304.144C655.402 337.776 637.273 381.399 621.819 424.679C606.296 468.155 593.52 511.056 569.11 544.394C544.882 577.485 509.117 601.189 447.29 605.716L447.655 610.702Z" fill="#FB6233"/>
<path d="M425 638L449.87 652.656L450.128 623.79L425 638ZM884 774.5L859.17 759.776L858.834 788.641L884 774.5ZM447.482 640.7C524.64 642.116 572.077 650.907 604.049 663.271C635.916 675.594 652.57 691.519 668.133 707.656C683.753 723.852 698.441 740.478 726.149 753.319C753.806 766.136 794.247 775.116 861.424 776.737L861.545 771.738C794.699 770.125 755.031 761.192 728.251 748.782C701.523 736.395 687.447 720.48 671.732 704.185C655.959 687.83 638.706 671.312 605.853 658.608C573.105 645.944 525.007 637.122 447.574 635.701L447.482 640.7Z" fill="#FB6233"/>
</g>
<defs>
<clipPath id="clip0_202_462">
<rect width="1384" height="939.095" fill="white"/>
</clipPath>
</defs>
</svg>
