<svg width="401" height="312" viewBox="0 0 401 312" fill="none" xmlns="http://www.w3.org/2000/svg">
<path d="M18.7672 278.886C19.8186 277.704 20.87 276.521 22.0518 275.338C23.151 274.116 24.2463 272.89 25.3374 271.66C26.3877 270.345 27.4391 269.162 28.3602 268.111C29.2813 267.059 30.1991 266.009 30.8562 265.221H43.6013C41.1053 268.111 38.6071 271.002 36.1122 273.63C33.7465 276.258 31.1187 279.017 28.2288 281.907C29.8133 283.392 31.3053 284.972 32.6962 286.639C34.2722 288.477 35.7179 290.316 37.1636 292.155C38.5961 293.999 39.9122 295.93 41.1042 297.938C42.2859 299.908 43.3395 301.616 44.127 303.194H31.7762C30.9866 301.88 30.0677 300.565 29.1477 299.119C28.1865 297.526 27.1333 295.992 25.9935 294.522C24.9256 292.946 23.7401 291.452 22.4472 290.055C21.3999 288.744 20.2097 287.553 18.8986 286.506V303.061H8.125V248.797L18.8986 247.088V278.884" fill="#326CE5"/>
<path d="M81.5733 301.88C79.2455 302.529 76.8746 303.012 74.4785 303.325C71.4817 303.815 68.4471 304.034 65.4112 303.981C62.6362 304.082 59.8686 303.635 57.266 302.667C55.3071 301.927 53.5745 300.69 52.2384 299.077C50.9023 297.465 50.0088 295.533 49.6455 293.47C49.109 291.144 48.844 288.762 48.8558 286.375V265.22H59.6317V285.061C59.6317 288.477 60.026 290.974 60.946 292.552C61.866 294.129 63.5723 294.915 66.0694 294.915C66.9035 294.934 67.7378 294.89 68.5654 294.785C69.4854 294.652 70.1436 294.652 70.9311 294.522V265.222H81.7047L81.5733 301.88Z" fill="#326CE5"/>
<path d="M116.134 283.879C116.134 276.915 113.635 273.499 108.511 273.499C107.404 273.5 106.302 273.632 105.226 273.892C104.305 274.116 103.42 274.47 102.599 274.944V294.522C103.124 294.653 103.781 294.653 104.569 294.785C105.358 294.785 106.277 294.917 107.198 294.917C108.474 294.975 109.745 294.731 110.91 294.206C112.074 293.68 113.098 292.888 113.899 291.893C115.471 289.524 116.253 286.719 116.134 283.879ZM127.038 284.142C127.093 286.957 126.648 289.76 125.723 292.42C124.932 294.777 123.631 296.93 121.913 298.727C120.123 300.453 118.03 301.833 115.738 302.8C113.035 303.734 110.187 304.179 107.328 304.114C106.015 304.114 104.701 303.981 103.255 303.851C101.809 303.721 100.497 303.588 99.0516 303.456C97.7373 303.325 96.423 303.063 95.1088 302.799C93.9853 302.606 92.8846 302.298 91.8242 301.88V248.793L102.599 247.086V266.007C103.822 265.476 105.1 265.079 106.409 264.825C107.795 264.558 109.203 264.426 110.614 264.431C113.056 264.386 115.478 264.879 117.709 265.875C119.745 266.762 121.545 268.112 122.966 269.818C124.477 271.657 125.555 273.812 126.119 276.125C126.714 278.755 127.022 281.442 127.038 284.139" fill="#326CE5"/>
<path d="M133.475 284.536C133.404 281.526 133.94 278.532 135.051 275.734C136.001 273.394 137.383 271.253 139.125 269.425C140.736 267.731 142.713 266.427 144.905 265.615C147.072 264.725 149.395 264.279 151.738 264.301C154.093 264.193 156.445 264.581 158.641 265.441C160.837 266.301 162.827 267.613 164.483 269.293C167.636 272.578 169.212 277.442 169.212 283.747C169.23 284.451 169.186 285.154 169.082 285.85C169.082 286.507 168.95 287.163 168.95 287.82H144.509C144.616 288.875 144.954 289.892 145.499 290.801C146.045 291.709 146.784 292.486 147.663 293.076C149.851 294.482 152.423 295.171 155.021 295.047C156.961 295.074 158.899 294.898 160.803 294.522C162.421 294.25 164.006 293.809 165.533 293.208L166.978 302.01C166.452 302.274 165.663 302.537 164.614 302.93C163.551 303.288 162.446 303.509 161.327 303.588C160.07 303.845 158.797 304.021 157.517 304.113C156.203 304.245 154.759 304.376 153.444 304.376C150.391 304.446 147.354 303.91 144.509 302.8C142.161 301.867 140.019 300.483 138.203 298.727C136.58 296.883 135.331 294.741 134.525 292.42C133.835 289.848 133.481 287.198 133.472 284.535M158.831 280.331C158.796 279.433 158.619 278.546 158.306 277.703C158.046 276.854 157.647 276.055 157.124 275.338C156.5 274.553 155.698 273.928 154.783 273.516C153.868 273.105 152.868 272.918 151.867 272.973C150.782 272.974 149.709 273.197 148.714 273.63C147.89 273.968 147.167 274.511 146.612 275.207C146.022 275.901 145.575 276.705 145.298 277.572C145.017 278.432 144.798 279.31 144.641 280.201H158.833" fill="#326CE5"/>
<path d="M200.355 274.681C199.237 274.362 198.094 274.142 196.937 274.024C195.552 273.757 194.144 273.624 192.733 273.63C191.897 273.672 191.064 273.76 190.237 273.893C189.53 273.988 188.828 274.119 188.134 274.287V303.325H177.359V267.192C179.596 266.435 181.877 265.821 184.191 265.352C187.078 264.694 190.034 264.386 192.995 264.433C193.698 264.419 194.401 264.462 195.098 264.564C195.935 264.593 196.769 264.681 197.594 264.826C198.383 264.959 199.171 265.089 200.091 265.221C200.878 265.353 201.668 265.616 202.192 265.746L200.355 274.681Z" fill="#326CE5"/>
<path d="M207.978 266.535C213.252 265.143 218.684 264.437 224.139 264.433C226.872 264.319 229.6 264.766 232.153 265.746C234.162 266.423 235.938 267.652 237.278 269.294C238.515 270.938 239.409 272.815 239.907 274.813C240.457 277.137 240.722 279.519 240.694 281.907V303.325H229.919V283.224C229.919 279.807 229.526 277.311 228.605 275.865C227.684 274.419 225.978 273.762 223.48 273.762C222.646 273.744 221.812 273.788 220.984 273.895C220.19 273.91 219.399 273.997 218.621 274.156V303.457H207.977V266.536" fill="#326CE5"/>
<path d="M248.705 284.536C248.634 281.526 249.17 278.532 250.281 275.734C251.232 273.393 252.614 271.253 254.357 269.425C255.968 267.73 257.945 266.427 260.137 265.615C262.305 264.725 264.628 264.279 266.97 264.301C269.326 264.193 271.678 264.581 273.874 265.441C276.07 266.301 278.06 267.613 279.715 269.293C282.867 272.578 284.445 277.442 284.445 283.747C284.462 284.451 284.418 285.154 284.313 285.85C284.313 286.507 284.181 287.163 284.181 287.82H259.743C259.85 288.875 260.188 289.892 260.733 290.801C261.278 291.709 262.017 292.486 262.897 293.076C265.085 294.482 267.656 295.171 270.253 295.047C272.194 295.074 274.132 294.898 276.037 294.522C277.654 294.25 279.239 293.809 280.766 293.208L282.211 302.01C281.686 302.274 280.897 302.537 279.846 302.93C278.783 303.288 277.68 303.509 276.561 303.588C275.304 303.845 274.031 304.021 272.751 304.113C271.437 304.245 269.991 304.376 268.678 304.376C265.625 304.446 262.588 303.91 259.743 302.8C257.395 301.867 255.253 300.483 253.437 298.727C251.813 296.883 250.563 294.741 249.757 292.42C249.068 289.848 248.714 287.198 248.705 284.535M274.064 280.331C274.029 279.433 273.852 278.546 273.54 277.703C273.279 276.854 272.88 276.055 272.357 275.338C271.733 274.553 270.93 273.928 270.016 273.516C269.101 273.105 268.101 272.918 267.1 272.973C266.015 272.974 264.942 273.197 263.947 273.63C263.123 273.968 262.4 274.511 261.845 275.207C261.255 275.901 260.808 276.705 260.531 277.572C260.25 278.432 260.031 279.31 259.874 280.201H274.064" fill="#326CE5"/>
<path d="M292.461 255.76L303.236 254.053V265.221H316.113V274.155H303.236V287.558C303.146 289.426 303.553 291.285 304.417 292.945C305.207 294.259 306.914 294.916 309.28 294.916C310.467 294.894 311.651 294.806 312.828 294.654C313.99 294.442 315.132 294.134 316.244 293.734L317.82 302.143C316.426 302.736 314.972 303.177 313.484 303.457C311.54 303.864 309.555 304.04 307.571 303.981C305.066 304.05 302.572 303.649 300.215 302.8C298.445 302.081 296.869 300.955 295.615 299.514C294.398 297.973 293.544 296.177 293.118 294.259C292.678 292.053 292.459 289.808 292.462 287.558L292.461 255.76Z" fill="#326CE5"/>
<path d="M321.631 284.536C321.56 281.526 322.097 278.532 323.208 275.734C324.158 273.394 325.54 271.254 327.281 269.425C328.892 267.73 330.87 266.427 333.062 265.615C335.229 264.725 337.552 264.279 339.895 264.301C342.251 264.193 344.603 264.581 346.798 265.441C348.994 266.301 350.984 267.613 352.64 269.293C355.794 272.578 357.37 277.442 357.37 283.747C357.388 284.451 357.343 285.154 357.238 285.85C357.238 286.507 357.106 287.163 357.106 287.82H332.668C332.775 288.875 333.113 289.892 333.658 290.801C334.203 291.709 334.942 292.486 335.822 293.076C338.01 294.482 340.581 295.171 343.178 295.047C345.119 295.074 347.057 294.898 348.961 294.522C350.579 294.25 352.164 293.809 353.69 293.208L355.137 302.01C354.611 302.274 353.823 302.537 352.77 302.93C351.708 303.288 350.604 303.509 349.486 303.588C348.228 303.845 346.956 304.021 345.676 304.113C344.361 304.245 342.918 304.376 341.602 304.376C338.549 304.446 335.513 303.91 332.668 302.8C330.32 301.867 328.177 300.483 326.361 298.727C324.739 296.883 323.49 294.741 322.684 292.42C321.93 289.861 321.575 287.202 321.631 284.535M346.86 280.331C346.824 279.433 346.646 278.546 346.333 277.703C346.073 276.854 345.673 276.055 345.151 275.338C344.528 274.553 343.725 273.928 342.811 273.516C341.896 273.105 340.896 272.918 339.895 272.973C338.81 272.974 337.736 273.197 336.741 273.63C335.917 273.968 335.193 274.511 334.638 275.207C334.049 275.901 333.603 276.705 333.326 277.572C333.045 278.432 332.825 279.31 332.668 280.201H346.86" fill="#326CE5"/>
<path d="M376.423 295.441C377.846 295.545 379.275 295.367 380.628 294.916C381.021 294.7 381.343 294.373 381.553 293.976C381.763 293.579 381.852 293.129 381.81 292.682C381.81 291.762 381.285 291.106 380.234 290.449C378.698 289.532 377.067 288.783 375.371 288.215C373.663 287.558 372.086 286.9 370.774 286.243C369.517 285.642 368.363 284.843 367.356 283.879C366.391 282.901 365.631 281.739 365.123 280.462C364.563 278.949 364.295 277.345 364.334 275.733C364.262 274.117 364.583 272.507 365.269 271.042C365.956 269.578 366.988 268.302 368.276 267.323C370.905 265.221 374.583 264.169 379.182 264.169C381.431 264.186 383.674 264.406 385.884 264.826C387.59 265.086 389.263 265.526 390.876 266.141L389.037 274.551C387.723 274.155 386.408 273.761 384.962 273.368C383.373 272.977 381.738 272.8 380.102 272.841C376.685 272.841 375.108 273.761 375.108 275.6C375.132 276.006 375.221 276.406 375.371 276.784C375.556 277.225 375.878 277.594 376.291 277.835C376.685 278.098 377.342 278.491 377.999 278.885C378.788 279.28 379.707 279.543 380.89 280.068C382.923 280.796 384.9 281.674 386.803 282.696C388.183 283.329 389.398 284.274 390.351 285.456C391.258 286.358 391.895 287.496 392.19 288.74C392.583 290.106 392.761 291.525 392.716 292.945C392.799 294.609 392.457 296.267 391.721 297.761C390.985 299.256 389.88 300.538 388.51 301.487C385.751 303.457 381.81 304.376 376.554 304.376C373.722 304.463 370.892 304.154 368.146 303.457C366.568 303.13 365.027 302.646 363.547 302.01L365.386 293.208C367.225 293.915 369.113 294.485 371.036 294.915C372.806 295.291 374.613 295.468 376.422 295.441" fill="#326CE5"/>
<path d="M84.6808 150.116H96.4087V159.429H84.6797L84.6808 150.116Z" fill="white"/>
<path d="M221.812 142.446C221.501 142.385 221.184 142.361 220.867 142.374C220.321 142.403 219.785 142.542 219.294 142.783C218.339 143.244 217.599 144.055 217.228 145.048C216.857 146.041 216.884 147.138 217.302 148.112L217.274 148.153L226.692 170.907C235.703 165.157 242.541 156.568 246.124 146.497L221.854 142.395L221.812 142.446ZM184.047 145.671C183.843 144.774 183.344 143.972 182.629 143.392C181.915 142.812 181.026 142.49 180.106 142.475C179.835 142.472 179.564 142.496 179.297 142.547L179.256 142.497L155.196 146.581C158.809 156.573 165.618 165.092 174.568 170.819L183.891 148.289L183.818 148.2C184.163 147.403 184.243 146.517 184.047 145.671ZM204.197 154.506C203.846 153.851 203.323 153.304 202.685 152.923C202.047 152.541 201.317 152.34 200.574 152.341C199.83 152.342 199.101 152.545 198.464 152.928C197.827 153.311 197.305 153.859 196.955 154.515H196.936L185.104 175.91C193.576 178.794 202.683 179.263 211.406 177.263C213.023 176.895 214.603 176.453 216.146 175.938L204.287 154.505L204.197 154.506ZM241.653 104.807L223.448 121.1L223.458 121.152C222.899 121.641 222.483 122.272 222.253 122.979C222.024 123.685 221.99 124.441 222.155 125.165C222.321 125.889 222.679 126.555 223.192 127.092C223.706 127.629 224.355 128.017 225.071 128.215L225.093 128.313L248.672 135.105C249.691 124.511 247.227 113.873 241.653 104.807ZM207.832 106.632C207.866 107.374 208.101 108.093 208.511 108.713C208.921 109.332 209.491 109.829 210.16 110.151C210.83 110.472 211.574 110.607 212.314 110.539C213.054 110.472 213.762 110.206 214.362 109.769L214.434 109.799L234.353 95.6739C226.771 88.2472 216.959 83.5171 206.426 82.2109L207.81 106.625L207.832 106.632ZM186.737 109.859C187.338 110.296 188.046 110.562 188.786 110.628C189.526 110.694 190.27 110.559 190.939 110.236C191.608 109.913 192.177 109.415 192.585 108.794C192.994 108.173 193.226 107.454 193.258 106.711L193.359 106.663L194.743 82.2109C193.073 82.4117 191.414 82.6977 189.772 83.068C181.041 85.0306 173.032 89.395 166.649 95.6683L186.699 109.881L186.737 109.859ZM176.049 128.334C176.766 128.138 177.417 127.751 177.932 127.214C178.447 126.677 178.807 126.011 178.973 125.286C179.138 124.561 179.104 123.804 178.874 123.097C178.643 122.389 178.225 121.758 177.663 121.27L177.683 121.174L159.379 104.801C153.794 113.89 151.397 124.58 152.566 135.183L176.03 128.413L176.049 128.334ZM193.828 135.526L200.58 138.773L207.313 135.534L208.985 128.264L204.325 122.437H196.826L192.153 128.255L193.828 135.526Z" fill="#326CE5"/>
<path d="M312.211 149.847L292.969 66.2698C292.452 64.1076 291.461 62.0872 290.068 60.3544C288.675 58.6216 286.915 57.2195 284.915 56.2494L207.03 19.0623C205.011 18.099 202.803 17.5991 200.566 17.5991C198.329 17.5991 196.121 18.099 194.103 19.0623L116.233 56.2692C114.232 57.2388 112.471 58.6405 111.078 60.3731C109.685 62.1058 108.694 64.1263 108.176 66.2886L88.9658 149.864C88.492 151.976 88.4905 154.167 88.9614 156.28C89.1001 156.924 89.2813 157.558 89.5037 158.178C89.8797 159.235 90.3774 160.246 90.9869 161.188C91.2509 161.591 91.5292 161.984 91.8318 162.363L145.732 229.378C145.967 229.669 146.227 229.935 146.484 230.206C147.33 231.107 148.285 231.898 149.327 232.562C150.645 233.391 152.081 234.016 153.587 234.414C154.821 234.752 156.095 234.928 157.375 234.936H158.213L243.81 234.916C244.331 234.914 244.851 234.883 245.368 234.825C246.109 234.741 246.844 234.601 247.564 234.407C248.081 234.271 248.59 234.108 249.09 233.919C249.479 233.77 249.868 233.621 250.244 233.441C250.806 233.172 251.352 232.868 251.877 232.533C253.233 231.68 254.441 230.611 255.452 229.369L257.096 227.326L309.334 162.341C310.335 161.086 311.122 159.673 311.662 158.161C311.887 157.539 312.072 156.903 312.214 156.257C312.686 154.144 312.685 151.953 312.21 149.84L312.211 149.847ZM231.425 182.352C231.644 182.995 231.903 183.623 232.202 184.233C231.725 185.067 231.596 186.055 231.841 186.983C232.974 189.578 234.358 192.057 235.973 194.383C236.877 195.572 237.712 196.813 238.473 198.098C238.66 198.446 238.906 198.985 239.083 199.353C239.419 199.914 239.633 200.538 239.713 201.187C239.793 201.835 239.736 202.493 239.546 203.119C239.356 203.744 239.037 204.322 238.61 204.817C238.183 205.312 237.657 205.711 237.067 205.991C236.476 206.27 235.833 206.423 235.18 206.439C234.527 206.455 233.877 206.334 233.274 206.084C232.67 205.834 232.125 205.46 231.674 204.987C231.224 204.514 230.877 203.952 230.657 203.336C230.479 202.972 230.232 202.486 230.08 202.141C229.548 200.745 229.096 199.318 228.727 197.87C227.919 195.159 226.848 192.534 225.529 190.031C224.955 189.258 224.101 188.74 223.15 188.588C223.001 188.331 222.449 187.318 222.153 186.796C208.288 192.046 192.975 192.007 179.138 186.685L178.083 188.596C177.33 188.713 176.63 189.054 176.074 189.575C174.484 192.184 173.27 195.003 172.465 197.949C172.099 199.398 171.65 200.824 171.119 202.221C170.97 202.563 170.721 203.043 170.543 203.406V203.416L170.535 203.425C170.315 204.041 169.969 204.604 169.518 205.078C169.067 205.552 168.521 205.926 167.917 206.176C167.313 206.426 166.662 206.546 166.008 206.53C165.355 206.513 164.711 206.36 164.12 206.079C163.53 205.799 163.004 205.398 162.578 204.901C162.151 204.405 161.834 203.825 161.645 203.199C161.457 202.573 161.402 201.914 161.484 201.265C161.565 200.616 161.782 199.991 162.121 199.431C162.296 199.061 162.531 198.526 162.717 198.178C163.477 196.889 164.311 195.645 165.215 194.452C166.86 192.065 168.272 189.526 169.434 186.869C169.558 185.969 169.413 185.052 169.019 184.233L169.867 182.201C157.11 174.672 147.549 162.735 142.988 148.641L140.957 148.987C140.169 148.427 139.24 148.1 138.275 148.042C135.496 148.574 132.775 149.375 130.151 150.433C128.788 151.046 127.392 151.581 125.968 152.035C125.632 152.128 125.146 152.22 124.761 152.304C124.73 152.315 124.704 152.329 124.673 152.336C124.649 152.34 124.625 152.342 124.601 152.343C123.982 152.547 123.328 152.619 122.68 152.555C122.032 152.491 121.404 152.292 120.837 151.972C120.27 151.651 119.776 151.216 119.387 150.693C118.998 150.171 118.723 149.573 118.578 148.938C118.433 148.303 118.423 147.645 118.547 147.006C118.671 146.366 118.928 145.76 119.3 145.226C119.672 144.691 120.152 144.24 120.708 143.902C121.265 143.563 121.886 143.345 122.531 143.26L122.599 143.244L122.64 143.233C123.03 143.141 123.529 143.012 123.884 142.943C125.367 142.737 126.861 142.617 128.357 142.583C131.18 142.399 133.978 141.939 136.711 141.212C137.521 140.696 138.206 140.005 138.715 139.19L140.666 138.621C138.548 123.911 141.936 108.938 150.179 96.5719L148.684 95.2399C148.63 94.2732 148.305 93.3411 147.748 92.5495C145.601 90.7042 143.279 89.073 140.815 87.679C139.485 87.0006 138.195 86.2461 136.951 85.4194C136.668 85.2084 136.293 84.8915 135.986 84.6419L135.916 84.5933C134.856 83.8317 134.14 82.6815 133.925 81.3939C133.71 80.1063 134.014 78.786 134.77 77.7216C135.216 77.1751 135.785 76.7415 136.43 76.456C137.076 76.1704 137.779 76.041 138.484 76.0782C139.67 76.1291 140.809 76.5587 141.733 77.3041C142.05 77.5526 142.484 77.885 142.766 78.1269C143.851 79.1531 144.876 80.2409 145.836 81.3849C147.741 83.4779 149.846 85.3798 152.12 87.0639C152.972 87.512 153.966 87.6084 154.889 87.3322C155.444 87.7372 156.004 88.1355 156.57 88.5272C164.761 79.8212 175.367 73.7622 187.026 71.1282C189.802 70.4997 192.617 70.0668 195.453 69.8327L195.564 67.8624C196.288 67.219 196.813 66.3821 197.077 65.4503C197.178 62.6224 197.005 59.7913 196.558 56.9971C196.261 55.5327 196.049 54.0525 195.922 52.5639C195.909 52.2248 195.928 51.7566 195.933 51.37C195.933 51.3258 195.922 51.2817 195.922 51.2397C195.855 50.5881 195.927 49.9298 196.131 49.3074C196.334 48.685 196.667 48.1123 197.106 47.6262C197.545 47.1402 198.081 46.7516 198.679 46.4855C199.278 46.2194 199.925 46.0818 200.58 46.0814C201.235 46.0811 201.883 46.2182 202.482 46.4837C203.08 46.7492 203.617 47.1373 204.056 47.623C204.496 48.1086 204.829 48.681 205.033 49.3032C205.238 49.9254 205.309 50.5836 205.244 51.2353C205.244 51.6439 205.268 52.1851 205.254 52.5606C205.126 54.049 204.913 55.5288 204.614 56.9926C204.165 59.7874 203.988 62.6192 204.087 65.4481C204.271 66.3938 204.817 67.2301 205.61 67.7784C205.626 68.1153 205.681 69.2396 205.722 69.8592C220.457 71.1989 234.205 77.8414 244.412 88.5526L246.186 87.2859C247.139 87.4493 248.118 87.343 249.013 86.9788C251.287 85.2919 253.392 83.3878 255.298 81.2933C256.26 80.1486 257.287 79.0608 258.376 78.0352C258.662 77.79 259.093 77.4609 259.409 77.2113C259.877 76.7501 260.436 76.3925 261.051 76.1615C261.666 75.9306 262.323 75.8315 262.979 75.8708C263.634 75.91 264.274 76.0867 264.857 76.3894C265.44 76.692 265.953 77.1139 266.362 77.6276C266.772 78.1413 267.069 78.7353 267.234 79.3711C267.398 80.0069 267.428 80.6703 267.32 81.3182C267.212 81.9661 266.969 82.5841 266.606 83.1319C266.244 83.6798 265.77 84.1453 265.216 84.4983C264.904 84.7512 264.491 85.1035 264.19 85.3266C262.944 86.1539 261.651 86.9084 260.317 87.5863C257.854 88.981 255.532 90.6122 253.385 92.4568C252.76 93.1887 252.446 94.136 252.51 95.0963C252.25 95.3349 251.339 96.1422 250.857 96.5796C259.123 108.901 262.578 123.828 260.567 138.529L262.449 139.077C262.919 139.923 263.615 140.623 264.459 141.098C267.194 141.827 269.993 142.288 272.817 142.474C274.312 142.508 275.804 142.628 277.285 142.832C277.678 142.904 278.244 143.06 278.644 143.152C279.29 143.237 279.911 143.456 280.467 143.794C281.023 144.133 281.503 144.584 281.875 145.119C282.247 145.654 282.503 146.26 282.627 146.899C282.751 147.539 282.74 148.197 282.595 148.832C282.45 149.467 282.174 150.065 281.785 150.587C281.395 151.109 280.901 151.544 280.334 151.864C279.767 152.185 279.139 152.383 278.491 152.446C277.843 152.51 277.188 152.438 276.57 152.234L276.502 152.225C276.472 152.217 276.443 152.201 276.411 152.192C276.026 152.109 275.544 152.025 275.207 151.937C273.784 151.479 272.388 150.94 271.027 150.322C268.4 149.263 265.677 148.462 262.895 147.931C261.932 147.9 260.996 148.248 260.286 148.899C259.624 148.774 258.959 148.657 258.294 148.55C253.787 162.732 244.224 174.762 231.425 182.351V182.352Z" fill="#326CE5"/>
<path d="M322.368 151.991L301.376 60.8085C300.812 58.4491 299.73 56.2445 298.211 54.3536C296.691 52.4628 294.77 50.9331 292.587 49.8748L207.618 9.3093C205.416 8.25816 203.006 7.71265 200.566 7.71265C198.125 7.71265 195.716 8.25816 193.514 9.3093L108.552 49.898C106.369 50.9553 104.448 52.484 102.928 54.3739C101.408 56.2637 100.326 58.4675 99.7601 60.8262L78.8048 152.013C78.3321 154.115 78.2835 156.29 78.6619 158.411C79.0402 160.533 79.8378 162.557 81.0081 164.366C81.2964 164.808 81.6023 165.236 81.9336 165.649L140.74 238.768C142.281 240.649 144.218 242.168 146.413 243.215C148.608 244.262 151.007 244.813 153.44 244.828L247.743 244.805C250.175 244.792 252.573 244.242 254.768 243.196C256.964 242.15 258.901 240.633 260.444 238.753L319.229 165.628C320.734 163.732 321.797 161.524 322.34 159.165C322.884 156.806 322.893 154.354 322.368 151.991ZM312.21 156.261C312.069 156.906 311.885 157.542 311.66 158.163C311.119 159.676 310.332 161.088 309.33 162.344L257.092 227.326L255.451 229.371C254.438 230.614 253.23 231.683 251.872 232.535C251.349 232.871 250.805 233.174 250.244 233.443C249.867 233.618 249.482 233.776 249.09 233.918C248.59 234.108 248.08 234.272 247.563 234.41C246.842 234.604 246.108 234.744 245.366 234.828C244.849 234.886 244.329 234.917 243.809 234.919L158.212 234.939H157.372C156.093 234.93 154.82 234.755 153.585 234.417C152.08 234.019 150.645 233.394 149.328 232.564C148.285 231.901 147.329 231.11 146.483 230.209C146.225 229.938 145.966 229.672 145.732 229.381L91.8304 162.365C91.53 161.987 91.2483 161.595 90.9855 161.188C90.376 160.246 89.8782 159.235 89.5022 158.178C89.2797 157.557 89.0985 156.923 88.96 156.278C88.4894 154.166 88.4909 151.976 88.9644 149.864L108.175 66.2865C108.693 64.1246 109.684 62.1046 111.077 60.3723C112.47 58.64 114.231 57.2387 116.231 56.2694L194.102 19.0658C196.121 18.1026 198.329 17.6027 200.566 17.6027C202.802 17.6027 205.011 18.1026 207.029 19.0658L284.912 56.2517C286.913 57.2219 288.673 58.6239 290.066 60.3567C291.459 62.0896 292.449 64.11 292.967 66.2721L312.208 149.849C312.682 151.961 312.683 154.151 312.21 156.263V156.261Z" fill="white"/>
<path d="M278.644 143.153C278.246 143.062 277.678 142.905 277.289 142.833C275.807 142.628 274.315 142.508 272.82 142.473C269.995 142.288 267.195 141.829 264.46 141.101C263.615 140.626 262.92 139.925 262.449 139.078L260.568 138.53C262.579 123.83 259.125 108.903 250.86 96.5808C251.341 96.1434 252.253 95.3361 252.511 95.0987C252.447 94.1384 252.761 93.191 253.385 92.4591C255.533 90.6145 257.855 88.9833 260.318 87.5886C261.652 86.9107 262.945 86.1563 264.191 85.3289C264.492 85.1058 264.902 84.7524 265.217 84.5006C265.771 84.1477 266.244 83.6823 266.607 83.1345C266.969 82.5868 267.212 81.9691 267.32 81.3213C267.428 80.6736 267.399 80.0103 267.235 79.3746C267.07 78.7389 266.773 78.1449 266.364 77.6312C265.955 77.1175 265.443 76.6955 264.86 76.3927C264.277 76.0898 263.637 75.9129 262.982 75.8733C262.326 75.8337 261.67 75.9324 261.055 76.1629C260.44 76.3934 259.88 76.7507 259.412 77.2114C259.094 77.4621 258.661 77.7912 258.379 78.0364C257.29 79.0619 256.261 80.1498 255.298 81.2945C253.393 83.389 251.288 85.2931 249.014 86.98C248.119 87.3442 247.139 87.4505 246.187 87.2871L244.413 88.5538C234.206 77.8422 220.458 71.1993 205.723 69.8593C205.68 69.2397 205.627 68.1176 205.61 67.7785C204.819 67.2297 204.273 66.3936 204.09 65.4482C203.991 62.6193 204.168 59.7875 204.617 56.9927C204.914 55.5292 205.126 54.0498 205.253 52.5618C205.267 52.1863 205.245 51.6407 205.245 51.2354C205.31 50.5837 205.239 49.9255 205.034 49.3033C204.829 48.6811 204.497 48.1087 204.057 47.6231C203.618 47.1374 203.081 46.7493 202.483 46.4838C201.884 46.2183 201.236 46.0812 200.581 46.0815C199.926 46.0819 199.279 46.2195 198.68 46.4856C198.082 46.7517 197.546 47.1403 197.107 47.6263C196.668 48.1124 196.335 48.6851 196.131 49.3075C195.927 49.9299 195.856 50.5882 195.922 51.2398C195.922 51.284 195.932 51.3259 195.933 51.3701C195.929 51.7567 195.91 52.2249 195.922 52.5629C196.05 54.0519 196.262 55.5324 196.558 56.9972C197.005 59.7914 197.179 62.6225 197.078 65.4504C196.813 66.3814 196.288 67.2175 195.565 67.8603L195.454 69.8328C192.618 70.0669 189.802 70.4998 187.027 71.1283C175.369 73.7629 164.764 79.8219 156.574 88.5273C156.007 88.1364 155.445 87.738 154.889 87.3323C153.966 87.6082 152.973 87.5118 152.121 87.064C149.846 85.3803 147.742 83.4787 145.837 81.3861C144.878 80.2422 143.854 79.1544 142.77 78.1281C142.486 77.8851 142.052 77.5538 141.734 77.2998C140.81 76.5544 139.671 76.1248 138.485 76.0739C137.78 76.037 137.076 76.1667 136.431 76.4526C135.785 76.7386 135.217 77.1726 134.77 77.7194C134.015 78.7839 133.711 80.1042 133.926 81.3918C134.141 82.6794 134.857 83.8296 135.917 84.5912L135.989 84.642C136.293 84.8916 136.669 85.2108 136.952 85.4173C138.195 86.2447 139.486 86.9999 140.816 87.6791C143.28 89.0738 145.601 90.7058 147.747 92.5519C148.305 93.3427 148.63 94.274 148.685 95.24L150.177 96.5742C141.935 108.94 138.549 123.914 140.667 138.623L138.715 139.191C138.206 140.004 137.522 140.693 136.712 141.208C133.978 141.938 131.18 142.399 128.357 142.586C126.861 142.62 125.368 142.74 123.885 142.946C123.527 143.012 123.03 143.138 122.641 143.235L122.6 143.244L122.533 143.264C121.888 143.349 121.267 143.567 120.711 143.906C120.155 144.244 119.675 144.695 119.303 145.23C118.931 145.764 118.675 146.371 118.551 147.01C118.427 147.649 118.437 148.307 118.582 148.942C118.727 149.577 119.002 150.175 119.391 150.697C119.78 151.219 120.274 151.654 120.841 151.975C121.408 152.295 122.035 152.494 122.683 152.558C123.331 152.622 123.986 152.55 124.604 152.346L124.674 152.335C124.705 152.329 124.731 152.313 124.762 152.308C125.146 152.219 125.63 152.128 125.968 152.036C127.391 151.582 128.787 151.047 130.15 150.434C132.774 149.375 135.496 148.574 138.276 148.042C139.24 148.101 140.168 148.429 140.955 148.989L142.987 148.641C147.549 162.735 157.111 174.672 169.869 182.201L169.02 184.233C169.415 185.052 169.559 185.969 169.436 186.87C168.274 189.525 166.862 192.063 165.217 194.45C164.313 195.643 163.479 196.886 162.718 198.174C162.532 198.526 162.297 199.064 162.119 199.431C161.783 199.991 161.567 200.615 161.487 201.264C161.406 201.912 161.462 202.57 161.651 203.195C161.84 203.821 162.158 204.4 162.584 204.895C163.01 205.39 163.535 205.79 164.125 206.07C164.715 206.351 165.357 206.504 166.011 206.521C166.664 206.538 167.313 206.418 167.917 206.168C168.521 205.919 169.066 205.546 169.517 205.074C169.968 204.601 170.315 204.04 170.536 203.425L170.544 203.416V203.405C170.721 203.041 170.971 202.562 171.12 202.221C171.651 200.824 172.1 199.398 172.466 197.949C173.27 195.003 174.485 192.184 176.075 189.575C176.63 189.054 177.331 188.712 178.084 188.595L179.141 186.684C192.978 192.005 208.29 192.044 222.154 186.793C222.449 187.321 223.002 188.331 223.147 188.586C224.1 188.738 224.954 189.257 225.528 190.033C226.847 192.535 227.919 195.159 228.728 197.87C229.097 199.318 229.549 200.745 230.081 202.142C230.232 202.486 230.479 202.97 230.658 203.337C230.878 203.952 231.225 204.514 231.675 204.987C232.126 205.46 232.671 205.834 233.274 206.084C233.878 206.334 234.527 206.455 235.181 206.439C235.834 206.423 236.477 206.27 237.067 205.991C237.658 205.712 238.184 205.312 238.611 204.817C239.038 204.322 239.357 203.744 239.546 203.119C239.736 202.494 239.793 201.835 239.714 201.187C239.634 200.538 239.42 199.914 239.084 199.353C238.907 198.985 238.661 198.447 238.477 198.098C237.716 196.813 236.882 195.572 235.978 194.383C234.362 192.057 232.978 189.579 231.845 186.983C231.599 186.055 231.727 185.068 232.203 184.233C231.904 183.623 231.645 182.995 231.426 182.353C244.225 174.763 253.788 162.733 258.295 148.552C258.898 148.648 259.948 148.831 260.289 148.901C260.998 148.25 261.934 147.902 262.896 147.932C265.676 148.463 268.399 149.264 271.024 150.323C272.386 150.942 273.783 151.481 275.208 151.938C275.545 152.026 276.025 152.11 276.412 152.195C276.444 152.204 276.472 152.217 276.503 152.226L276.57 152.236C277.188 152.439 277.842 152.511 278.49 152.446C279.137 152.382 279.764 152.184 280.331 151.863C280.897 151.543 281.391 151.108 281.78 150.586C282.169 150.064 282.444 149.467 282.589 148.832C282.734 148.198 282.745 147.54 282.621 146.901C282.498 146.262 282.242 145.656 281.87 145.122C281.499 144.587 281.02 144.136 280.465 143.797C279.909 143.458 279.289 143.239 278.644 143.153ZM234.356 95.6774L214.436 109.8L214.366 109.767C213.766 110.204 213.058 110.471 212.318 110.539C211.578 110.607 210.834 110.473 210.164 110.151C209.494 109.83 208.924 109.333 208.514 108.713C208.104 108.094 207.87 107.374 207.836 106.632L207.814 106.621L206.43 82.21C216.963 83.5178 226.774 88.2495 234.355 95.6774H234.356ZM196.83 122.435H204.327L208.988 128.262L207.317 135.529L200.584 138.77L193.832 135.523L192.157 128.252L196.83 122.435ZM189.777 83.0638C191.419 82.6942 193.079 82.4089 194.751 82.2089L193.364 106.658L193.263 106.706C193.232 107.449 192.999 108.169 192.591 108.789C192.183 109.41 191.614 109.909 190.945 110.232C190.276 110.555 189.532 110.691 188.792 110.625C188.052 110.559 187.343 110.293 186.742 109.856L186.704 109.878L166.654 95.6619C173.037 89.3893 181.046 85.0258 189.777 83.0638ZM159.384 104.799L177.688 121.171L177.668 121.27C178.229 121.758 178.648 122.39 178.878 123.097C179.108 123.804 179.142 124.56 178.977 125.285C178.811 126.01 178.452 126.677 177.937 127.213C177.422 127.75 176.771 128.137 176.054 128.333L176.035 128.412L152.572 135.183C151.402 124.579 153.799 113.888 159.384 104.799ZM183.892 148.291L174.569 170.818C165.621 165.09 158.814 156.57 155.202 146.578L179.26 142.492L179.301 142.546C179.566 142.495 179.837 142.471 180.107 142.474C180.782 142.484 181.443 142.66 182.034 142.986C182.624 143.313 183.125 143.78 183.493 144.346C183.86 144.912 184.082 145.56 184.14 146.232C184.197 146.904 184.088 147.58 183.822 148.2L183.892 148.291ZM211.41 177.26C202.687 179.26 193.58 178.793 185.108 175.909L196.94 154.514H196.959C197.311 153.861 197.833 153.314 198.47 152.933C199.108 152.552 199.836 152.351 200.578 152.35C201.321 152.349 202.049 152.55 202.687 152.93C203.325 153.309 203.848 153.855 204.201 154.508H204.289L216.151 175.938C214.611 176.452 213.031 176.893 211.41 177.262V177.26ZM226.696 170.908L217.277 148.152L217.306 148.111C216.889 147.138 216.862 146.04 217.233 145.048C217.604 144.056 218.344 143.245 219.297 142.784C219.789 142.544 220.325 142.405 220.871 142.376C221.188 142.361 221.505 142.384 221.816 142.445L221.856 142.394L246.128 146.496C242.545 156.568 235.708 165.158 226.696 170.908ZM248.677 135.103L225.096 128.311L225.074 128.211C224.358 128.014 223.708 127.626 223.195 127.089C222.682 126.552 222.323 125.886 222.158 125.162C221.993 124.437 222.027 123.682 222.256 122.975C222.485 122.269 222.902 121.638 223.461 121.149L223.452 121.101L241.655 104.81C247.23 113.875 249.695 124.511 248.676 135.104L248.677 135.103Z" fill="white"/>
</svg>
