<svg width="1905" height="1916" viewBox="0 0 1905 1916" fill="none" xmlns="http://www.w3.org/2000/svg">
<rect x="0.710938" width="1904" height="1916" rx="5" fill="#0067A8"/>
<rect x="0.710938" width="1904" height="1916" rx="5" fill="white" fill-opacity="0.8"/>
<rect x="32.7109" y="32" width="318" height="152" rx="5" fill="#FB6233"/>
<path d="M72.3745 93.06L72.1225 87.516L85.3345 73.8H90.5905L79.6105 85.464L77.0185 88.308L72.3745 93.06ZM68.1985 99V73.8H72.8785V99H68.1985ZM85.7665 99L76.1185 87.516L79.2145 84.096L91.2385 99H85.7665ZM104.909 99.36C101.453 99.36 98.7415 98.388 96.7735 96.444C94.8295 94.5 93.8575 91.692 93.8575 88.02V73.8H98.5375V87.84C98.5375 90.432 99.0895 92.316 100.193 93.492C101.321 94.668 102.905 95.256 104.945 95.256C106.985 95.256 108.557 94.668 109.661 93.492C110.765 92.316 111.317 90.432 111.317 87.84V73.8H115.925V88.02C115.925 91.692 114.941 94.5 112.973 96.444C111.029 98.388 108.341 99.36 104.909 99.36ZM122.48 99V73.8H134.288C137.312 73.8 139.616 74.4 141.2 75.6C142.784 76.776 143.576 78.36 143.576 80.352C143.576 81.696 143.264 82.848 142.64 83.808C142.016 84.744 141.176 85.476 140.12 86.004C139.088 86.508 137.96 86.76 136.736 86.76L137.384 85.464C138.8 85.464 140.072 85.728 141.2 86.256C142.328 86.76 143.216 87.504 143.864 88.488C144.536 89.472 144.872 90.696 144.872 92.16C144.872 94.32 144.044 96 142.388 97.2C140.732 98.4 138.272 99 135.008 99H122.48ZM127.16 95.328H134.72C136.472 95.328 137.816 95.04 138.752 94.464C139.688 93.888 140.156 92.964 140.156 91.692C140.156 90.444 139.688 89.532 138.752 88.956C137.816 88.356 136.472 88.056 134.72 88.056H126.8V84.42H133.784C135.416 84.42 136.664 84.132 137.528 83.556C138.416 82.98 138.86 82.116 138.86 80.964C138.86 79.788 138.416 78.912 137.528 78.336C136.664 77.76 135.416 77.472 133.784 77.472H127.16V95.328ZM154.186 84.276H166.714V88.128H154.186V84.276ZM154.546 95.076H168.766V99H149.866V73.8H168.262V77.724H154.546V95.076ZM173.984 99V73.8H184.352C186.584 73.8 188.492 74.16 190.076 74.88C191.684 75.6 192.92 76.632 193.784 77.976C194.648 79.32 195.08 80.916 195.08 82.764C195.08 84.612 194.648 86.208 193.784 87.552C192.92 88.872 191.684 89.892 190.076 90.612C188.492 91.308 186.584 91.656 184.352 91.656H176.576L178.664 89.532V99H173.984ZM190.472 99L184.1 89.856H189.104L195.512 99H190.472ZM178.664 90.036L176.576 87.804H184.136C186.2 87.804 187.748 87.36 188.78 86.472C189.836 85.584 190.364 84.348 190.364 82.764C190.364 81.156 189.836 79.92 188.78 79.056C187.748 78.192 186.2 77.76 184.136 77.76H176.576L178.664 75.456V90.036ZM200.316 99V73.8H204.168L219.972 93.204H218.064V73.8H222.708V99H218.856L203.052 79.596H204.96V99H200.316ZM233.78 84.276H246.308V88.128H233.78V84.276ZM234.14 95.076H248.36V99H229.46V73.8H247.856V77.724H234.14V95.076ZM258.689 99V77.76H250.337V73.8H271.721V77.76H263.369V99H258.689ZM279.554 84.276H292.082V88.128H279.554V84.276ZM279.914 95.076H294.134V99H275.234V73.8H293.63V77.724H279.914V95.076ZM307.163 99.36C305.195 99.36 303.311 99.084 301.511 98.532C299.711 97.956 298.283 97.224 297.227 96.336L298.847 92.7C299.855 93.492 301.103 94.152 302.591 94.68C304.079 95.208 305.603 95.472 307.163 95.472C308.483 95.472 309.551 95.328 310.367 95.04C311.183 94.752 311.783 94.368 312.167 93.888C312.551 93.384 312.743 92.82 312.743 92.196C312.743 91.428 312.467 90.816 311.915 90.36C311.363 89.88 310.643 89.508 309.755 89.244C308.891 88.956 307.919 88.692 306.839 88.452C305.783 88.212 304.715 87.936 303.635 87.624C302.579 87.288 301.607 86.868 300.719 86.364C299.855 85.836 299.147 85.14 298.595 84.276C298.043 83.412 297.767 82.308 297.767 80.964C297.767 79.596 298.127 78.348 298.847 77.22C299.591 76.068 300.707 75.156 302.195 74.484C303.707 73.788 305.615 73.44 307.919 73.44C309.431 73.44 310.931 73.632 312.419 74.016C313.907 74.4 315.203 74.952 316.307 75.672L314.831 79.308C313.703 78.636 312.539 78.144 311.339 77.832C310.139 77.496 308.987 77.328 307.883 77.328C306.587 77.328 305.531 77.484 304.715 77.796C303.923 78.108 303.335 78.516 302.951 79.02C302.591 79.524 302.411 80.1 302.411 80.748C302.411 81.516 302.675 82.14 303.203 82.62C303.755 83.076 304.463 83.436 305.327 83.7C306.215 83.964 307.199 84.228 308.279 84.492C309.359 84.732 310.427 85.008 311.483 85.32C312.563 85.632 313.535 86.04 314.399 86.544C315.287 87.048 315.995 87.732 316.523 88.596C317.075 89.46 317.351 90.552 317.351 91.872C317.351 93.216 316.979 94.464 316.235 95.616C315.515 96.744 314.399 97.656 312.887 98.352C311.375 99.024 309.467 99.36 307.163 99.36ZM121.681 143.36C119.761 143.36 117.973 143.048 116.317 142.424C114.685 141.776 113.257 140.876 112.033 139.724C110.833 138.548 109.897 137.168 109.225 135.584C108.553 134 108.217 132.272 108.217 130.4C108.217 128.528 108.553 126.8 109.225 125.216C109.897 123.632 110.845 122.264 112.069 121.112C113.293 119.936 114.721 119.036 116.353 118.412C117.985 117.764 119.773 117.44 121.717 117.44C123.781 117.44 125.665 117.8 127.369 118.52C129.073 119.216 130.513 120.26 131.689 121.652L128.665 124.496C127.753 123.512 126.733 122.78 125.605 122.3C124.477 121.796 123.253 121.544 121.933 121.544C120.613 121.544 119.401 121.76 118.297 122.192C117.217 122.624 116.269 123.236 115.453 124.028C114.661 124.82 114.037 125.756 113.581 126.836C113.149 127.916 112.933 129.104 112.933 130.4C112.933 131.696 113.149 132.884 113.581 133.964C114.037 135.044 114.661 135.98 115.453 136.772C116.269 137.564 117.217 138.176 118.297 138.608C119.401 139.04 120.613 139.256 121.933 139.256C123.253 139.256 124.477 139.016 125.605 138.536C126.733 138.032 127.753 137.276 128.665 136.268L131.689 139.148C130.513 140.516 129.073 141.56 127.369 142.28C125.665 143 123.769 143.36 121.681 143.36ZM136.173 143V117.8H140.853V139.04H154.029V143H136.173ZM168.208 143.36C164.752 143.36 162.04 142.388 160.072 140.444C158.128 138.5 157.156 135.692 157.156 132.02V117.8H161.836V131.84C161.836 134.432 162.388 136.316 163.492 137.492C164.62 138.668 166.204 139.256 168.244 139.256C170.284 139.256 171.856 138.668 172.96 137.492C174.064 136.316 174.616 134.432 174.616 131.84V117.8H179.224V132.02C179.224 135.692 178.24 138.5 176.272 140.444C174.328 142.388 171.64 143.36 168.208 143.36ZM193.591 143.36C191.623 143.36 189.739 143.084 187.939 142.532C186.139 141.956 184.711 141.224 183.655 140.336L185.275 136.7C186.283 137.492 187.531 138.152 189.019 138.68C190.507 139.208 192.031 139.472 193.591 139.472C194.911 139.472 195.979 139.328 196.795 139.04C197.611 138.752 198.211 138.368 198.595 137.888C198.979 137.384 199.171 136.82 199.171 136.196C199.171 135.428 198.895 134.816 198.343 134.36C197.791 133.88 197.071 133.508 196.183 133.244C195.319 132.956 194.347 132.692 193.267 132.452C192.211 132.212 191.143 131.936 190.063 131.624C189.007 131.288 188.035 130.868 187.147 130.364C186.283 129.836 185.575 129.14 185.023 128.276C184.471 127.412 184.195 126.308 184.195 124.964C184.195 123.596 184.555 122.348 185.275 121.22C186.019 120.068 187.135 119.156 188.623 118.484C190.135 117.788 192.043 117.44 194.347 117.44C195.859 117.44 197.359 117.632 198.847 118.016C200.335 118.4 201.631 118.952 202.735 119.672L201.259 123.308C200.131 122.636 198.967 122.144 197.767 121.832C196.567 121.496 195.415 121.328 194.311 121.328C193.015 121.328 191.959 121.484 191.143 121.796C190.351 122.108 189.763 122.516 189.379 123.02C189.019 123.524 188.839 124.1 188.839 124.748C188.839 125.516 189.103 126.14 189.631 126.62C190.183 127.076 190.891 127.436 191.755 127.7C192.643 127.964 193.627 128.228 194.707 128.492C195.787 128.732 196.855 129.008 197.911 129.32C198.991 129.632 199.963 130.04 200.827 130.544C201.715 131.048 202.423 131.732 202.951 132.596C203.503 133.46 203.779 134.552 203.779 135.872C203.779 137.216 203.407 138.464 202.663 139.616C201.943 140.744 200.827 141.656 199.315 142.352C197.803 143.024 195.895 143.36 193.591 143.36ZM213.18 143V121.76H204.828V117.8H226.212V121.76H217.86V143H213.18ZM234.044 128.276H246.572V132.128H234.044V128.276ZM234.404 139.076H248.624V143H229.724V117.8H248.12V121.724H234.404V139.076ZM253.841 143V117.8H264.209C266.441 117.8 268.349 118.16 269.933 118.88C271.541 119.6 272.777 120.632 273.641 121.976C274.505 123.32 274.937 124.916 274.937 126.764C274.937 128.612 274.505 130.208 273.641 131.552C272.777 132.872 271.541 133.892 269.933 134.612C268.349 135.308 266.441 135.656 264.209 135.656H256.433L258.521 133.532V143H253.841ZM270.329 143L263.957 133.856H268.961L275.369 143H270.329ZM258.521 134.036L256.433 131.804H263.993C266.057 131.804 267.605 131.36 268.637 130.472C269.693 129.584 270.221 128.348 270.221 126.764C270.221 125.156 269.693 123.92 268.637 123.056C267.605 122.192 266.057 121.76 263.993 121.76H256.433L258.521 119.456V134.036Z" fill="white"/>
<rect x="96.7109" y="248" width="1712" height="1604" rx="5" fill="#D19129"/>
<rect x="96.7109" y="248" width="1712" height="1604" rx="5" fill="white" fill-opacity="0.6"/>
<rect x="128.711" y="280" width="318" height="152" rx="5" fill="#FB6233"/>
<path d="M168.374 341.06L168.122 335.516L181.334 321.8H186.59L175.61 333.464L173.018 336.308L168.374 341.06ZM164.198 347V321.8H168.878V347H164.198ZM181.766 347L172.118 335.516L175.214 332.096L187.238 347H181.766ZM200.909 347.36C197.453 347.36 194.741 346.388 192.773 344.444C190.829 342.5 189.857 339.692 189.857 336.02V321.8H194.537V335.84C194.537 338.432 195.089 340.316 196.193 341.492C197.321 342.668 198.905 343.256 200.945 343.256C202.985 343.256 204.557 342.668 205.661 341.492C206.765 340.316 207.317 338.432 207.317 335.84V321.8H211.925V336.02C211.925 339.692 210.941 342.5 208.973 344.444C207.029 346.388 204.341 347.36 200.909 347.36ZM218.48 347V321.8H230.288C233.312 321.8 235.616 322.4 237.2 323.6C238.784 324.776 239.576 326.36 239.576 328.352C239.576 329.696 239.264 330.848 238.64 331.808C238.016 332.744 237.176 333.476 236.12 334.004C235.088 334.508 233.96 334.76 232.736 334.76L233.384 333.464C234.8 333.464 236.072 333.728 237.2 334.256C238.328 334.76 239.216 335.504 239.864 336.488C240.536 337.472 240.872 338.696 240.872 340.16C240.872 342.32 240.044 344 238.388 345.2C236.732 346.4 234.272 347 231.008 347H218.48ZM223.16 343.328H230.72C232.472 343.328 233.816 343.04 234.752 342.464C235.688 341.888 236.156 340.964 236.156 339.692C236.156 338.444 235.688 337.532 234.752 336.956C233.816 336.356 232.472 336.056 230.72 336.056H222.8V332.42H229.784C231.416 332.42 232.664 332.132 233.528 331.556C234.416 330.98 234.86 330.116 234.86 328.964C234.86 327.788 234.416 326.912 233.528 326.336C232.664 325.76 231.416 325.472 229.784 325.472H223.16V343.328ZM250.186 332.276H262.714V336.128H250.186V332.276ZM250.546 343.076H264.766V347H245.866V321.8H264.262V325.724H250.546V343.076ZM269.984 347V321.8H280.352C282.584 321.8 284.492 322.16 286.076 322.88C287.684 323.6 288.92 324.632 289.784 325.976C290.648 327.32 291.08 328.916 291.08 330.764C291.08 332.612 290.648 334.208 289.784 335.552C288.92 336.872 287.684 337.892 286.076 338.612C284.492 339.308 282.584 339.656 280.352 339.656H272.576L274.664 337.532V347H269.984ZM286.472 347L280.1 337.856H285.104L291.512 347H286.472ZM274.664 338.036L272.576 335.804H280.136C282.2 335.804 283.748 335.36 284.78 334.472C285.836 333.584 286.364 332.348 286.364 330.764C286.364 329.156 285.836 327.92 284.78 327.056C283.748 326.192 282.2 325.76 280.136 325.76H272.576L274.664 323.456V338.036ZM296.316 347V321.8H300.168L315.972 341.204H314.064V321.8H318.708V347H314.856L299.052 327.596H300.96V347H296.316ZM329.78 332.276H342.308V336.128H329.78V332.276ZM330.14 343.076H344.36V347H325.46V321.8H343.856V325.724H330.14V343.076ZM354.689 347V325.76H346.337V321.8H367.721V325.76H359.369V347H354.689ZM375.554 332.276H388.082V336.128H375.554V332.276ZM375.914 343.076H390.134V347H371.234V321.8H389.63V325.724H375.914V343.076ZM403.163 347.36C401.195 347.36 399.311 347.084 397.511 346.532C395.711 345.956 394.283 345.224 393.227 344.336L394.847 340.7C395.855 341.492 397.103 342.152 398.591 342.68C400.079 343.208 401.603 343.472 403.163 343.472C404.483 343.472 405.551 343.328 406.367 343.04C407.183 342.752 407.783 342.368 408.167 341.888C408.551 341.384 408.743 340.82 408.743 340.196C408.743 339.428 408.467 338.816 407.915 338.36C407.363 337.88 406.643 337.508 405.755 337.244C404.891 336.956 403.919 336.692 402.839 336.452C401.783 336.212 400.715 335.936 399.635 335.624C398.579 335.288 397.607 334.868 396.719 334.364C395.855 333.836 395.147 333.14 394.595 332.276C394.043 331.412 393.767 330.308 393.767 328.964C393.767 327.596 394.127 326.348 394.847 325.22C395.591 324.068 396.707 323.156 398.195 322.484C399.707 321.788 401.615 321.44 403.919 321.44C405.431 321.44 406.931 321.632 408.419 322.016C409.907 322.4 411.203 322.952 412.307 323.672L410.831 327.308C409.703 326.636 408.539 326.144 407.339 325.832C406.139 325.496 404.987 325.328 403.883 325.328C402.587 325.328 401.531 325.484 400.715 325.796C399.923 326.108 399.335 326.516 398.951 327.02C398.591 327.524 398.411 328.1 398.411 328.748C398.411 329.516 398.675 330.14 399.203 330.62C399.755 331.076 400.463 331.436 401.327 331.7C402.215 331.964 403.199 332.228 404.279 332.492C405.359 332.732 406.427 333.008 407.483 333.32C408.563 333.632 409.535 334.04 410.399 334.544C411.287 335.048 411.995 335.732 412.523 336.596C413.075 337.46 413.351 338.552 413.351 339.872C413.351 341.216 412.979 342.464 412.235 343.616C411.515 344.744 410.399 345.656 408.887 346.352C407.375 347.024 405.467 347.36 403.163 347.36ZM234.441 391V365.8H238.293L254.097 385.204H252.189V365.8H256.833V391H252.981L237.177 371.596H239.085V391H234.441ZM275.393 391.36C273.425 391.36 271.613 391.036 269.957 390.388C268.301 389.74 266.861 388.84 265.637 387.688C264.413 386.512 263.465 385.144 262.793 383.584C262.121 382 261.785 380.272 261.785 378.4C261.785 376.528 262.121 374.812 262.793 373.252C263.465 371.668 264.413 370.3 265.637 369.148C266.861 367.972 268.301 367.06 269.957 366.412C271.613 365.764 273.413 365.44 275.357 365.44C277.325 365.44 279.125 365.764 280.757 366.412C282.413 367.06 283.853 367.972 285.077 369.148C286.301 370.3 287.249 371.668 287.921 373.252C288.593 374.812 288.929 376.528 288.929 378.4C288.929 380.272 288.593 382 287.921 383.584C287.249 385.168 286.301 386.536 285.077 387.688C283.853 388.84 282.413 389.74 280.757 390.388C279.125 391.036 277.337 391.36 275.393 391.36ZM275.357 387.256C276.629 387.256 277.805 387.04 278.885 386.608C279.965 386.176 280.901 385.564 281.693 384.772C282.485 383.956 283.097 383.02 283.529 381.964C283.985 380.884 284.213 379.696 284.213 378.4C284.213 377.104 283.985 375.928 283.529 374.872C283.097 373.792 282.485 372.856 281.693 372.064C280.901 371.248 279.965 370.624 278.885 370.192C277.805 369.76 276.629 369.544 275.357 369.544C274.085 369.544 272.909 369.76 271.829 370.192C270.773 370.624 269.837 371.248 269.021 372.064C268.229 372.856 267.605 373.792 267.149 374.872C266.717 375.928 266.501 377.104 266.501 378.4C266.501 379.672 266.717 380.848 267.149 381.928C267.605 383.008 268.229 383.956 269.021 384.772C269.813 385.564 270.749 386.176 271.829 386.608C272.909 387.04 274.085 387.256 275.357 387.256ZM293.89 391V365.8H304.906C307.642 365.8 310.042 366.328 312.106 367.384C314.17 368.44 315.778 369.904 316.93 371.776C318.082 373.648 318.658 375.856 318.658 378.4C318.658 380.92 318.082 383.128 316.93 385.024C315.778 386.896 314.17 388.36 312.106 389.416C310.042 390.472 307.642 391 304.906 391H293.89ZM298.57 387.04H304.69C306.586 387.04 308.218 386.68 309.586 385.96C310.978 385.24 312.046 384.232 312.79 382.936C313.558 381.64 313.942 380.128 313.942 378.4C313.942 376.648 313.558 375.136 312.79 373.864C312.046 372.568 310.978 371.56 309.586 370.84C308.218 370.12 306.586 369.76 304.69 369.76H298.57V387.04ZM327.952 376.276H340.48V380.128H327.952V376.276ZM328.312 387.076H342.532V391H323.632V365.8H342.028V369.724H328.312V387.076Z" fill="white"/>
<rect x="192.711" y="496" width="1520" height="1292" rx="5" fill="#60A394"/>
<rect x="192.711" y="496" width="1520" height="1292" rx="5" fill="white" fill-opacity="0.4"/>
<rect x="224.711" y="528" width="318" height="152" rx="5" fill="#FB6233"/>
<path d="M264.374 589.06L264.122 583.516L277.334 569.8H282.59L271.61 581.464L269.018 584.308L264.374 589.06ZM260.198 595V569.8H264.878V595H260.198ZM277.766 595L268.118 583.516L271.214 580.096L283.238 595H277.766ZM296.909 595.36C293.453 595.36 290.741 594.388 288.773 592.444C286.829 590.5 285.857 587.692 285.857 584.02V569.8H290.537V583.84C290.537 586.432 291.089 588.316 292.193 589.492C293.321 590.668 294.905 591.256 296.945 591.256C298.985 591.256 300.557 590.668 301.661 589.492C302.765 588.316 303.317 586.432 303.317 583.84V569.8H307.925V584.02C307.925 587.692 306.941 590.5 304.973 592.444C303.029 594.388 300.341 595.36 296.909 595.36ZM314.48 595V569.8H326.288C329.312 569.8 331.616 570.4 333.2 571.6C334.784 572.776 335.576 574.36 335.576 576.352C335.576 577.696 335.264 578.848 334.64 579.808C334.016 580.744 333.176 581.476 332.12 582.004C331.088 582.508 329.96 582.76 328.736 582.76L329.384 581.464C330.8 581.464 332.072 581.728 333.2 582.256C334.328 582.76 335.216 583.504 335.864 584.488C336.536 585.472 336.872 586.696 336.872 588.16C336.872 590.32 336.044 592 334.388 593.2C332.732 594.4 330.272 595 327.008 595H314.48ZM319.16 591.328H326.72C328.472 591.328 329.816 591.04 330.752 590.464C331.688 589.888 332.156 588.964 332.156 587.692C332.156 586.444 331.688 585.532 330.752 584.956C329.816 584.356 328.472 584.056 326.72 584.056H318.8V580.42H325.784C327.416 580.42 328.664 580.132 329.528 579.556C330.416 578.98 330.86 578.116 330.86 576.964C330.86 575.788 330.416 574.912 329.528 574.336C328.664 573.76 327.416 573.472 325.784 573.472H319.16V591.328ZM346.186 580.276H358.714V584.128H346.186V580.276ZM346.546 591.076H360.766V595H341.866V569.8H360.262V573.724H346.546V591.076ZM365.984 595V569.8H376.352C378.584 569.8 380.492 570.16 382.076 570.88C383.684 571.6 384.92 572.632 385.784 573.976C386.648 575.32 387.08 576.916 387.08 578.764C387.08 580.612 386.648 582.208 385.784 583.552C384.92 584.872 383.684 585.892 382.076 586.612C380.492 587.308 378.584 587.656 376.352 587.656H368.576L370.664 585.532V595H365.984ZM382.472 595L376.1 585.856H381.104L387.512 595H382.472ZM370.664 586.036L368.576 583.804H376.136C378.2 583.804 379.748 583.36 380.78 582.472C381.836 581.584 382.364 580.348 382.364 578.764C382.364 577.156 381.836 575.92 380.78 575.056C379.748 574.192 378.2 573.76 376.136 573.76H368.576L370.664 571.456V586.036ZM392.316 595V569.8H396.168L411.972 589.204H410.064V569.8H414.708V595H410.856L395.052 575.596H396.96V595H392.316ZM425.78 580.276H438.308V584.128H425.78V580.276ZM426.14 591.076H440.36V595H421.46V569.8H439.856V573.724H426.14V591.076ZM450.689 595V573.76H442.337V569.8H463.721V573.76H455.369V595H450.689ZM471.554 580.276H484.082V584.128H471.554V580.276ZM471.914 591.076H486.134V595H467.234V569.8H485.63V573.724H471.914V591.076ZM499.163 595.36C497.195 595.36 495.311 595.084 493.511 594.532C491.711 593.956 490.283 593.224 489.227 592.336L490.847 588.7C491.855 589.492 493.103 590.152 494.591 590.68C496.079 591.208 497.603 591.472 499.163 591.472C500.483 591.472 501.551 591.328 502.367 591.04C503.183 590.752 503.783 590.368 504.167 589.888C504.551 589.384 504.743 588.82 504.743 588.196C504.743 587.428 504.467 586.816 503.915 586.36C503.363 585.88 502.643 585.508 501.755 585.244C500.891 584.956 499.919 584.692 498.839 584.452C497.783 584.212 496.715 583.936 495.635 583.624C494.579 583.288 493.607 582.868 492.719 582.364C491.855 581.836 491.147 581.14 490.595 580.276C490.043 579.412 489.767 578.308 489.767 576.964C489.767 575.596 490.127 574.348 490.847 573.22C491.591 572.068 492.707 571.156 494.195 570.484C495.707 569.788 497.615 569.44 499.919 569.44C501.431 569.44 502.931 569.632 504.419 570.016C505.907 570.4 507.203 570.952 508.307 571.672L506.831 575.308C505.703 574.636 504.539 574.144 503.339 573.832C502.139 573.496 500.987 573.328 499.883 573.328C498.587 573.328 497.531 573.484 496.715 573.796C495.923 574.108 495.335 574.516 494.951 575.02C494.591 575.524 494.411 576.1 494.411 576.748C494.411 577.516 494.675 578.14 495.203 578.62C495.755 579.076 496.463 579.436 497.327 579.7C498.215 579.964 499.199 580.228 500.279 580.492C501.359 580.732 502.427 581.008 503.483 581.32C504.563 581.632 505.535 582.04 506.399 582.544C507.287 583.048 507.995 583.732 508.523 584.596C509.075 585.46 509.351 586.552 509.351 587.872C509.351 589.216 508.979 590.464 508.235 591.616C507.515 592.744 506.399 593.656 504.887 594.352C503.375 595.024 501.467 595.36 499.163 595.36ZM267.775 639V613.8H271.627L287.431 633.204H285.523V613.8H290.167V639H286.315L270.511 619.596H272.419V639H267.775ZM293.355 639L304.695 613.8H309.303L320.679 639H315.783L306.027 616.284H307.899L298.179 639H293.355ZM298.575 633.168L299.835 629.496H313.443L314.703 633.168H298.575ZM323.884 639V613.8H327.736L338.752 632.196H336.736L347.572 613.8H351.424L351.46 639H347.032L346.996 620.748H347.932L338.716 636.12H336.628L327.268 620.748H328.348V639H323.884ZM362.587 624.276H375.115V628.128H362.587V624.276ZM362.947 635.076H377.167V639H358.267V613.8H376.663V617.724H362.947V635.076ZM390.196 639.36C388.228 639.36 386.344 639.084 384.544 638.532C382.744 637.956 381.316 637.224 380.26 636.336L381.88 632.7C382.888 633.492 384.136 634.152 385.624 634.68C387.112 635.208 388.636 635.472 390.196 635.472C391.516 635.472 392.584 635.328 393.4 635.04C394.216 634.752 394.816 634.368 395.2 633.888C395.584 633.384 395.776 632.82 395.776 632.196C395.776 631.428 395.5 630.816 394.948 630.36C394.396 629.88 393.676 629.508 392.788 629.244C391.924 628.956 390.952 628.692 389.872 628.452C388.816 628.212 387.748 627.936 386.668 627.624C385.612 627.288 384.64 626.868 383.752 626.364C382.888 625.836 382.18 625.14 381.628 624.276C381.076 623.412 380.8 622.308 380.8 620.964C380.8 619.596 381.16 618.348 381.88 617.22C382.624 616.068 383.74 615.156 385.228 614.484C386.74 613.788 388.648 613.44 390.952 613.44C392.464 613.44 393.964 613.632 395.452 614.016C396.94 614.4 398.236 614.952 399.34 615.672L397.864 619.308C396.736 618.636 395.572 618.144 394.372 617.832C393.172 617.496 392.02 617.328 390.916 617.328C389.62 617.328 388.564 617.484 387.748 617.796C386.956 618.108 386.368 618.516 385.984 619.02C385.624 619.524 385.444 620.1 385.444 620.748C385.444 621.516 385.708 622.14 386.236 622.62C386.788 623.076 387.496 623.436 388.36 623.7C389.248 623.964 390.232 624.228 391.312 624.492C392.392 624.732 393.46 625.008 394.516 625.32C395.596 625.632 396.568 626.04 397.432 626.544C398.32 627.048 399.028 627.732 399.556 628.596C400.108 629.46 400.384 630.552 400.384 631.872C400.384 633.216 400.012 634.464 399.268 635.616C398.548 636.744 397.432 637.656 395.92 638.352C394.408 639.024 392.5 639.36 390.196 639.36ZM405.025 639V613.8H415.393C417.625 613.8 419.533 614.16 421.117 614.88C422.725 615.6 423.961 616.632 424.825 617.976C425.689 619.32 426.121 620.916 426.121 622.764C426.121 624.612 425.689 626.208 424.825 627.552C423.961 628.896 422.725 629.928 421.117 630.648C419.533 631.368 417.625 631.728 415.393 631.728H407.617L409.705 629.532V639H405.025ZM409.705 630.036L407.617 627.768H415.177C417.241 627.768 418.789 627.336 419.821 626.472C420.877 625.584 421.405 624.348 421.405 622.764C421.405 621.156 420.877 619.92 419.821 619.056C418.789 618.192 417.241 617.76 415.177 617.76H407.617L409.705 615.456V630.036ZM425.965 639L437.305 613.8H441.913L453.289 639H448.393L438.637 616.284H440.509L430.789 639H425.965ZM431.185 633.168L432.445 629.496H446.053L447.313 633.168H431.185ZM467.806 639.36C465.886 639.36 464.098 639.048 462.442 638.424C460.81 637.776 459.382 636.876 458.158 635.724C456.958 634.548 456.022 633.168 455.35 631.584C454.678 630 454.342 628.272 454.342 626.4C454.342 624.528 454.678 622.8 455.35 621.216C456.022 619.632 456.97 618.264 458.194 617.112C459.418 615.936 460.846 615.036 462.478 614.412C464.11 613.764 465.898 613.44 467.842 613.44C469.906 613.44 471.79 613.8 473.494 614.52C475.198 615.216 476.638 616.26 477.814 617.652L474.79 620.496C473.878 619.512 472.858 618.78 471.73 618.3C470.602 617.796 469.378 617.544 468.058 617.544C466.738 617.544 465.526 617.76 464.422 618.192C463.342 618.624 462.394 619.236 461.578 620.028C460.786 620.82 460.162 621.756 459.706 622.836C459.274 623.916 459.058 625.104 459.058 626.4C459.058 627.696 459.274 628.884 459.706 629.964C460.162 631.044 460.786 631.98 461.578 632.772C462.394 633.564 463.342 634.176 464.422 634.608C465.526 635.04 466.738 635.256 468.058 635.256C469.378 635.256 470.602 635.016 471.73 634.536C472.858 634.032 473.878 633.276 474.79 632.268L477.814 635.148C476.638 636.516 475.198 637.56 473.494 638.28C471.79 639 469.894 639.36 467.806 639.36ZM486.618 624.276H499.146V628.128H486.618V624.276ZM486.978 635.076H501.198V639H482.298V613.8H500.694V617.724H486.978V635.076Z" fill="white"/>
<rect x="288.711" y="744" width="432" height="980" rx="5" fill="#60A394"/>
<rect x="288.711" y="744" width="432" height="980" rx="5" fill="white" fill-opacity="0.8"/>
<rect x="320.711" y="776" width="318" height="152" rx="5" fill="#FB6233"/>
<path d="M360.374 837.06L360.122 831.516L373.334 817.8H378.59L367.61 829.464L365.018 832.308L360.374 837.06ZM356.198 843V817.8H360.878V843H356.198ZM373.766 843L364.118 831.516L367.214 828.096L379.238 843H373.766ZM392.909 843.36C389.453 843.36 386.741 842.388 384.773 840.444C382.829 838.5 381.857 835.692 381.857 832.02V817.8H386.537V831.84C386.537 834.432 387.089 836.316 388.193 837.492C389.321 838.668 390.905 839.256 392.945 839.256C394.985 839.256 396.557 838.668 397.661 837.492C398.765 836.316 399.317 834.432 399.317 831.84V817.8H403.925V832.02C403.925 835.692 402.941 838.5 400.973 840.444C399.029 842.388 396.341 843.36 392.909 843.36ZM410.48 843V817.8H422.288C425.312 817.8 427.616 818.4 429.2 819.6C430.784 820.776 431.576 822.36 431.576 824.352C431.576 825.696 431.264 826.848 430.64 827.808C430.016 828.744 429.176 829.476 428.12 830.004C427.088 830.508 425.96 830.76 424.736 830.76L425.384 829.464C426.8 829.464 428.072 829.728 429.2 830.256C430.328 830.76 431.216 831.504 431.864 832.488C432.536 833.472 432.872 834.696 432.872 836.16C432.872 838.32 432.044 840 430.388 841.2C428.732 842.4 426.272 843 423.008 843H410.48ZM415.16 839.328H422.72C424.472 839.328 425.816 839.04 426.752 838.464C427.688 837.888 428.156 836.964 428.156 835.692C428.156 834.444 427.688 833.532 426.752 832.956C425.816 832.356 424.472 832.056 422.72 832.056H414.8V828.42H421.784C423.416 828.42 424.664 828.132 425.528 827.556C426.416 826.98 426.86 826.116 426.86 824.964C426.86 823.788 426.416 822.912 425.528 822.336C424.664 821.76 423.416 821.472 421.784 821.472H415.16V839.328ZM442.186 828.276H454.714V832.128H442.186V828.276ZM442.546 839.076H456.766V843H437.866V817.8H456.262V821.724H442.546V839.076ZM461.984 843V817.8H472.352C474.584 817.8 476.492 818.16 478.076 818.88C479.684 819.6 480.92 820.632 481.784 821.976C482.648 823.32 483.08 824.916 483.08 826.764C483.08 828.612 482.648 830.208 481.784 831.552C480.92 832.872 479.684 833.892 478.076 834.612C476.492 835.308 474.584 835.656 472.352 835.656H464.576L466.664 833.532V843H461.984ZM478.472 843L472.1 833.856H477.104L483.512 843H478.472ZM466.664 834.036L464.576 831.804H472.136C474.2 831.804 475.748 831.36 476.78 830.472C477.836 829.584 478.364 828.348 478.364 826.764C478.364 825.156 477.836 823.92 476.78 823.056C475.748 822.192 474.2 821.76 472.136 821.76H464.576L466.664 819.456V834.036ZM488.316 843V817.8H492.168L507.972 837.204H506.064V817.8H510.708V843H506.856L491.052 823.596H492.96V843H488.316ZM521.78 828.276H534.308V832.128H521.78V828.276ZM522.14 839.076H536.36V843H517.46V817.8H535.856V821.724H522.14V839.076ZM546.689 843V821.76H538.337V817.8H559.721V821.76H551.369V843H546.689ZM567.554 828.276H580.082V832.128H567.554V828.276ZM567.914 839.076H582.134V843H563.234V817.8H581.63V821.724H567.914V839.076ZM595.163 843.36C593.195 843.36 591.311 843.084 589.511 842.532C587.711 841.956 586.283 841.224 585.227 840.336L586.847 836.7C587.855 837.492 589.103 838.152 590.591 838.68C592.079 839.208 593.603 839.472 595.163 839.472C596.483 839.472 597.551 839.328 598.367 839.04C599.183 838.752 599.783 838.368 600.167 837.888C600.551 837.384 600.743 836.82 600.743 836.196C600.743 835.428 600.467 834.816 599.915 834.36C599.363 833.88 598.643 833.508 597.755 833.244C596.891 832.956 595.919 832.692 594.839 832.452C593.783 832.212 592.715 831.936 591.635 831.624C590.579 831.288 589.607 830.868 588.719 830.364C587.855 829.836 587.147 829.14 586.595 828.276C586.043 827.412 585.767 826.308 585.767 824.964C585.767 823.596 586.127 822.348 586.847 821.22C587.591 820.068 588.707 819.156 590.195 818.484C591.707 817.788 593.615 817.44 595.919 817.44C597.431 817.44 598.931 817.632 600.419 818.016C601.907 818.4 603.203 818.952 604.307 819.672L602.831 823.308C601.703 822.636 600.539 822.144 599.339 821.832C598.139 821.496 596.987 821.328 595.883 821.328C594.587 821.328 593.531 821.484 592.715 821.796C591.923 822.108 591.335 822.516 590.951 823.02C590.591 823.524 590.411 824.1 590.411 824.748C590.411 825.516 590.675 826.14 591.203 826.62C591.755 827.076 592.463 827.436 593.327 827.7C594.215 827.964 595.199 828.228 596.279 828.492C597.359 828.732 598.427 829.008 599.483 829.32C600.563 829.632 601.535 830.04 602.399 830.544C603.287 831.048 603.995 831.732 604.523 832.596C605.075 833.46 605.351 834.552 605.351 835.872C605.351 837.216 604.979 838.464 604.235 839.616C603.515 840.744 602.399 841.656 600.887 842.352C599.375 843.024 597.467 843.36 595.163 843.36ZM440.011 887V861.8H450.379C452.611 861.8 454.519 862.16 456.103 862.88C457.711 863.6 458.947 864.632 459.811 865.976C460.675 867.32 461.107 868.916 461.107 870.764C461.107 872.612 460.675 874.208 459.811 875.552C458.947 876.896 457.711 877.928 456.103 878.648C454.519 879.368 452.611 879.728 450.379 879.728H442.603L444.691 877.532V887H440.011ZM444.691 878.036L442.603 875.768H450.163C452.227 875.768 453.775 875.336 454.807 874.472C455.863 873.584 456.391 872.348 456.391 870.764C456.391 869.156 455.863 867.92 454.807 867.056C453.775 866.192 452.227 865.76 450.163 865.76H442.603L444.691 863.456V878.036ZM477.94 887.36C475.972 887.36 474.16 887.036 472.504 886.388C470.848 885.74 469.408 884.84 468.184 883.688C466.96 882.512 466.012 881.144 465.34 879.584C464.668 878 464.332 876.272 464.332 874.4C464.332 872.528 464.668 870.812 465.34 869.252C466.012 867.668 466.96 866.3 468.184 865.148C469.408 863.972 470.848 863.06 472.504 862.412C474.16 861.764 475.96 861.44 477.904 861.44C479.872 861.44 481.672 861.764 483.304 862.412C484.96 863.06 486.4 863.972 487.624 865.148C488.848 866.3 489.796 867.668 490.468 869.252C491.14 870.812 491.476 872.528 491.476 874.4C491.476 876.272 491.14 878 490.468 879.584C489.796 881.168 488.848 882.536 487.624 883.688C486.4 884.84 484.96 885.74 483.304 886.388C481.672 887.036 479.884 887.36 477.94 887.36ZM477.904 883.256C479.176 883.256 480.352 883.04 481.432 882.608C482.512 882.176 483.448 881.564 484.24 880.772C485.032 879.956 485.644 879.02 486.076 877.964C486.532 876.884 486.76 875.696 486.76 874.4C486.76 873.104 486.532 871.928 486.076 870.872C485.644 869.792 485.032 868.856 484.24 868.064C483.448 867.248 482.512 866.624 481.432 866.192C480.352 865.76 479.176 865.544 477.904 865.544C476.632 865.544 475.456 865.76 474.376 866.192C473.32 866.624 472.384 867.248 471.568 868.064C470.776 868.856 470.152 869.792 469.696 870.872C469.264 871.928 469.048 873.104 469.048 874.4C469.048 875.672 469.264 876.848 469.696 877.928C470.152 879.008 470.776 879.956 471.568 880.772C472.36 881.564 473.296 882.176 474.376 882.608C475.456 883.04 476.632 883.256 477.904 883.256ZM496.437 887V861.8H507.453C510.189 861.8 512.589 862.328 514.653 863.384C516.717 864.44 518.325 865.904 519.477 867.776C520.629 869.648 521.205 871.856 521.205 874.4C521.205 876.92 520.629 879.128 519.477 881.024C518.325 882.896 516.717 884.36 514.653 885.416C512.589 886.472 510.189 887 507.453 887H496.437ZM501.117 883.04H507.237C509.133 883.04 510.765 882.68 512.133 881.96C513.525 881.24 514.593 880.232 515.337 878.936C516.105 877.64 516.489 876.128 516.489 874.4C516.489 872.648 516.105 871.136 515.337 869.864C514.593 868.568 513.525 867.56 512.133 866.84C510.765 866.12 509.133 865.76 507.237 865.76H501.117V883.04Z" fill="white"/>
<rect x="384.711" y="992" width="288" height="108" rx="5" stroke="black" stroke-width="20" mask="url(#path-13-inside-1_294_1378)"/>
<path d="M431.997 1059.36C430.077 1059.36 428.289 1059.05 426.633 1058.42C425.001 1057.78 423.573 1056.88 422.349 1055.72C421.149 1054.55 420.213 1053.17 419.541 1051.58C418.869 1050 418.533 1048.27 418.533 1046.4C418.533 1044.53 418.869 1042.8 419.541 1041.22C420.213 1039.63 421.161 1038.26 422.385 1037.11C423.609 1035.94 425.037 1035.04 426.669 1034.41C428.301 1033.76 430.089 1033.44 432.033 1033.44C434.097 1033.44 435.981 1033.8 437.685 1034.52C439.389 1035.22 440.829 1036.26 442.005 1037.65L438.981 1040.5C438.069 1039.51 437.049 1038.78 435.921 1038.3C434.793 1037.8 433.569 1037.54 432.249 1037.54C430.929 1037.54 429.717 1037.76 428.613 1038.19C427.533 1038.62 426.585 1039.24 425.769 1040.03C424.977 1040.82 424.353 1041.76 423.897 1042.84C423.465 1043.92 423.249 1045.1 423.249 1046.4C423.249 1047.7 423.465 1048.88 423.897 1049.96C424.353 1051.04 424.977 1051.98 425.769 1052.77C426.585 1053.56 427.533 1054.18 428.613 1054.61C429.717 1055.04 430.929 1055.26 432.249 1055.26C433.569 1055.26 434.793 1055.02 435.921 1054.54C437.049 1054.03 438.069 1053.28 438.981 1052.27L442.005 1055.15C440.829 1056.52 439.389 1057.56 437.685 1058.28C435.981 1059 434.085 1059.36 431.997 1059.36ZM457.77 1059.36C455.802 1059.36 453.99 1059.04 452.334 1058.39C450.678 1057.74 449.238 1056.84 448.014 1055.69C446.79 1054.51 445.842 1053.14 445.17 1051.58C444.498 1050 444.162 1048.27 444.162 1046.4C444.162 1044.53 444.498 1042.81 445.17 1041.25C445.842 1039.67 446.79 1038.3 448.014 1037.15C449.238 1035.97 450.678 1035.06 452.334 1034.41C453.99 1033.76 455.79 1033.44 457.734 1033.44C459.702 1033.44 461.502 1033.76 463.134 1034.41C464.79 1035.06 466.23 1035.97 467.454 1037.15C468.678 1038.3 469.626 1039.67 470.298 1041.25C470.97 1042.81 471.306 1044.53 471.306 1046.4C471.306 1048.27 470.97 1050 470.298 1051.58C469.626 1053.17 468.678 1054.54 467.454 1055.69C466.23 1056.84 464.79 1057.74 463.134 1058.39C461.502 1059.04 459.714 1059.36 457.77 1059.36ZM457.734 1055.26C459.006 1055.26 460.182 1055.04 461.262 1054.61C462.342 1054.18 463.278 1053.56 464.07 1052.77C464.862 1051.96 465.474 1051.02 465.906 1049.96C466.362 1048.88 466.59 1047.7 466.59 1046.4C466.59 1045.1 466.362 1043.93 465.906 1042.87C465.474 1041.79 464.862 1040.86 464.07 1040.06C463.278 1039.25 462.342 1038.62 461.262 1038.19C460.182 1037.76 459.006 1037.54 457.734 1037.54C456.462 1037.54 455.286 1037.76 454.206 1038.19C453.15 1038.62 452.214 1039.25 451.398 1040.06C450.606 1040.86 449.982 1041.79 449.526 1042.87C449.094 1043.93 448.878 1045.1 448.878 1046.4C448.878 1047.67 449.094 1048.85 449.526 1049.93C449.982 1051.01 450.606 1051.96 451.398 1052.77C452.19 1053.56 453.126 1054.18 454.206 1054.61C455.286 1055.04 456.462 1055.26 457.734 1055.26ZM476.267 1059V1033.8H480.119L495.923 1053.2H494.015V1033.8H498.659V1059H494.807L479.003 1039.6H480.911V1059H476.267ZM510.523 1059V1037.76H502.171V1033.8H523.555V1037.76H515.203V1059H510.523ZM522.238 1059L533.578 1033.8H538.186L549.562 1059H544.666L534.91 1036.28H536.782L527.062 1059H522.238ZM527.458 1053.17L528.718 1049.5H542.326L543.586 1053.17H527.458ZM552.767 1059V1033.8H557.447V1059H552.767ZM564.263 1059V1033.8H568.115L583.919 1053.2H582.011V1033.8H586.655V1059H582.803L566.999 1039.6H568.907V1059H564.263ZM597.727 1044.28H610.255V1048.13H597.727V1044.28ZM598.087 1055.08H612.307V1059H593.407V1033.8H611.803V1037.72H598.087V1055.08ZM617.525 1059V1033.8H627.893C630.125 1033.8 632.033 1034.16 633.617 1034.88C635.225 1035.6 636.461 1036.63 637.325 1037.98C638.189 1039.32 638.621 1040.92 638.621 1042.76C638.621 1044.61 638.189 1046.21 637.325 1047.55C636.461 1048.87 635.225 1049.89 633.617 1050.61C632.033 1051.31 630.125 1051.66 627.893 1051.66H620.117L622.205 1049.53V1059H617.525ZM634.013 1059L627.641 1049.86H632.645L639.053 1059H634.013ZM622.205 1050.04L620.117 1047.8H627.677C629.741 1047.8 631.289 1047.36 632.321 1046.47C633.377 1045.58 633.905 1044.35 633.905 1042.76C633.905 1041.16 633.377 1039.92 632.321 1039.06C631.289 1038.19 629.741 1037.76 627.677 1037.76H620.117L622.205 1035.46V1050.04Z" fill="black"/>
<rect x="384.711" y="1132" width="288" height="108" rx="5" stroke="black" stroke-width="20" mask="url(#path-15-inside-2_294_1378)"/>
<path d="M431.997 1199.36C430.077 1199.36 428.289 1199.05 426.633 1198.42C425.001 1197.78 423.573 1196.88 422.349 1195.72C421.149 1194.55 420.213 1193.17 419.541 1191.58C418.869 1190 418.533 1188.27 418.533 1186.4C418.533 1184.53 418.869 1182.8 419.541 1181.22C420.213 1179.63 421.161 1178.26 422.385 1177.11C423.609 1175.94 425.037 1175.04 426.669 1174.41C428.301 1173.76 430.089 1173.44 432.033 1173.44C434.097 1173.44 435.981 1173.8 437.685 1174.52C439.389 1175.22 440.829 1176.26 442.005 1177.65L438.981 1180.5C438.069 1179.51 437.049 1178.78 435.921 1178.3C434.793 1177.8 433.569 1177.54 432.249 1177.54C430.929 1177.54 429.717 1177.76 428.613 1178.19C427.533 1178.62 426.585 1179.24 425.769 1180.03C424.977 1180.82 424.353 1181.76 423.897 1182.84C423.465 1183.92 423.249 1185.1 423.249 1186.4C423.249 1187.7 423.465 1188.88 423.897 1189.96C424.353 1191.04 424.977 1191.98 425.769 1192.77C426.585 1193.56 427.533 1194.18 428.613 1194.61C429.717 1195.04 430.929 1195.26 432.249 1195.26C433.569 1195.26 434.793 1195.02 435.921 1194.54C437.049 1194.03 438.069 1193.28 438.981 1192.27L442.005 1195.15C440.829 1196.52 439.389 1197.56 437.685 1198.28C435.981 1199 434.085 1199.36 431.997 1199.36ZM457.77 1199.36C455.802 1199.36 453.99 1199.04 452.334 1198.39C450.678 1197.74 449.238 1196.84 448.014 1195.69C446.79 1194.51 445.842 1193.14 445.17 1191.58C444.498 1190 444.162 1188.27 444.162 1186.4C444.162 1184.53 444.498 1182.81 445.17 1181.25C445.842 1179.67 446.79 1178.3 448.014 1177.15C449.238 1175.97 450.678 1175.06 452.334 1174.41C453.99 1173.76 455.79 1173.44 457.734 1173.44C459.702 1173.44 461.502 1173.76 463.134 1174.41C464.79 1175.06 466.23 1175.97 467.454 1177.15C468.678 1178.3 469.626 1179.67 470.298 1181.25C470.97 1182.81 471.306 1184.53 471.306 1186.4C471.306 1188.27 470.97 1190 470.298 1191.58C469.626 1193.17 468.678 1194.54 467.454 1195.69C466.23 1196.84 464.79 1197.74 463.134 1198.39C461.502 1199.04 459.714 1199.36 457.77 1199.36ZM457.734 1195.26C459.006 1195.26 460.182 1195.04 461.262 1194.61C462.342 1194.18 463.278 1193.56 464.07 1192.77C464.862 1191.96 465.474 1191.02 465.906 1189.96C466.362 1188.88 466.59 1187.7 466.59 1186.4C466.59 1185.1 466.362 1183.93 465.906 1182.87C465.474 1181.79 464.862 1180.86 464.07 1180.06C463.278 1179.25 462.342 1178.62 461.262 1178.19C460.182 1177.76 459.006 1177.54 457.734 1177.54C456.462 1177.54 455.286 1177.76 454.206 1178.19C453.15 1178.62 452.214 1179.25 451.398 1180.06C450.606 1180.86 449.982 1181.79 449.526 1182.87C449.094 1183.93 448.878 1185.1 448.878 1186.4C448.878 1187.67 449.094 1188.85 449.526 1189.93C449.982 1191.01 450.606 1191.96 451.398 1192.77C452.19 1193.56 453.126 1194.18 454.206 1194.61C455.286 1195.04 456.462 1195.26 457.734 1195.26ZM476.267 1199V1173.8H480.119L495.923 1193.2H494.015V1173.8H498.659V1199H494.807L479.003 1179.6H480.911V1199H476.267ZM510.523 1199V1177.76H502.171V1173.8H523.555V1177.76H515.203V1199H510.523ZM522.238 1199L533.578 1173.8H538.186L549.562 1199H544.666L534.91 1176.28H536.782L527.062 1199H522.238ZM527.458 1193.17L528.718 1189.5H542.326L543.586 1193.17H527.458ZM552.767 1199V1173.8H557.447V1199H552.767ZM564.263 1199V1173.8H568.115L583.919 1193.2H582.011V1173.8H586.655V1199H582.803L566.999 1179.6H568.907V1199H564.263ZM597.727 1184.28H610.255V1188.13H597.727V1184.28ZM598.087 1195.08H612.307V1199H593.407V1173.8H611.803V1177.72H598.087V1195.08ZM617.525 1199V1173.8H627.893C630.125 1173.8 632.033 1174.16 633.617 1174.88C635.225 1175.6 636.461 1176.63 637.325 1177.98C638.189 1179.32 638.621 1180.92 638.621 1182.76C638.621 1184.61 638.189 1186.21 637.325 1187.55C636.461 1188.87 635.225 1189.89 633.617 1190.61C632.033 1191.31 630.125 1191.66 627.893 1191.66H620.117L622.205 1189.53V1199H617.525ZM634.013 1199L627.641 1189.86H632.645L639.053 1199H634.013ZM622.205 1190.04L620.117 1187.8H627.677C629.741 1187.8 631.289 1187.36 632.321 1186.47C633.377 1185.58 633.905 1184.35 633.905 1182.76C633.905 1181.16 633.377 1179.92 632.321 1179.06C631.289 1178.19 629.741 1177.76 627.677 1177.76H620.117L622.205 1175.46V1190.04Z" fill="black"/>
<rect x="384.711" y="1272" width="288" height="108" rx="5" stroke="black" stroke-width="20" mask="url(#path-17-inside-3_294_1378)"/>
<path d="M431.997 1339.36C430.077 1339.36 428.289 1339.05 426.633 1338.42C425.001 1337.78 423.573 1336.88 422.349 1335.72C421.149 1334.55 420.213 1333.17 419.541 1331.58C418.869 1330 418.533 1328.27 418.533 1326.4C418.533 1324.53 418.869 1322.8 419.541 1321.22C420.213 1319.63 421.161 1318.26 422.385 1317.11C423.609 1315.94 425.037 1315.04 426.669 1314.41C428.301 1313.76 430.089 1313.44 432.033 1313.44C434.097 1313.44 435.981 1313.8 437.685 1314.52C439.389 1315.22 440.829 1316.26 442.005 1317.65L438.981 1320.5C438.069 1319.51 437.049 1318.78 435.921 1318.3C434.793 1317.8 433.569 1317.54 432.249 1317.54C430.929 1317.54 429.717 1317.76 428.613 1318.19C427.533 1318.62 426.585 1319.24 425.769 1320.03C424.977 1320.82 424.353 1321.76 423.897 1322.84C423.465 1323.92 423.249 1325.1 423.249 1326.4C423.249 1327.7 423.465 1328.88 423.897 1329.96C424.353 1331.04 424.977 1331.98 425.769 1332.77C426.585 1333.56 427.533 1334.18 428.613 1334.61C429.717 1335.04 430.929 1335.26 432.249 1335.26C433.569 1335.26 434.793 1335.02 435.921 1334.54C437.049 1334.03 438.069 1333.28 438.981 1332.27L442.005 1335.15C440.829 1336.52 439.389 1337.56 437.685 1338.28C435.981 1339 434.085 1339.36 431.997 1339.36ZM457.77 1339.36C455.802 1339.36 453.99 1339.04 452.334 1338.39C450.678 1337.74 449.238 1336.84 448.014 1335.69C446.79 1334.51 445.842 1333.14 445.17 1331.58C444.498 1330 444.162 1328.27 444.162 1326.4C444.162 1324.53 444.498 1322.81 445.17 1321.25C445.842 1319.67 446.79 1318.3 448.014 1317.15C449.238 1315.97 450.678 1315.06 452.334 1314.41C453.99 1313.76 455.79 1313.44 457.734 1313.44C459.702 1313.44 461.502 1313.76 463.134 1314.41C464.79 1315.06 466.23 1315.97 467.454 1317.15C468.678 1318.3 469.626 1319.67 470.298 1321.25C470.97 1322.81 471.306 1324.53 471.306 1326.4C471.306 1328.27 470.97 1330 470.298 1331.58C469.626 1333.17 468.678 1334.54 467.454 1335.69C466.23 1336.84 464.79 1337.74 463.134 1338.39C461.502 1339.04 459.714 1339.36 457.77 1339.36ZM457.734 1335.26C459.006 1335.26 460.182 1335.04 461.262 1334.61C462.342 1334.18 463.278 1333.56 464.07 1332.77C464.862 1331.96 465.474 1331.02 465.906 1329.96C466.362 1328.88 466.59 1327.7 466.59 1326.4C466.59 1325.1 466.362 1323.93 465.906 1322.87C465.474 1321.79 464.862 1320.86 464.07 1320.06C463.278 1319.25 462.342 1318.62 461.262 1318.19C460.182 1317.76 459.006 1317.54 457.734 1317.54C456.462 1317.54 455.286 1317.76 454.206 1318.19C453.15 1318.62 452.214 1319.25 451.398 1320.06C450.606 1320.86 449.982 1321.79 449.526 1322.87C449.094 1323.93 448.878 1325.1 448.878 1326.4C448.878 1327.67 449.094 1328.85 449.526 1329.93C449.982 1331.01 450.606 1331.96 451.398 1332.77C452.19 1333.56 453.126 1334.18 454.206 1334.61C455.286 1335.04 456.462 1335.26 457.734 1335.26ZM476.267 1339V1313.8H480.119L495.923 1333.2H494.015V1313.8H498.659V1339H494.807L479.003 1319.6H480.911V1339H476.267ZM510.523 1339V1317.76H502.171V1313.8H523.555V1317.76H515.203V1339H510.523ZM522.238 1339L533.578 1313.8H538.186L549.562 1339H544.666L534.91 1316.28H536.782L527.062 1339H522.238ZM527.458 1333.17L528.718 1329.5H542.326L543.586 1333.17H527.458ZM552.767 1339V1313.8H557.447V1339H552.767ZM564.263 1339V1313.8H568.115L583.919 1333.2H582.011V1313.8H586.655V1339H582.803L566.999 1319.6H568.907V1339H564.263ZM597.727 1324.28H610.255V1328.13H597.727V1324.28ZM598.087 1335.08H612.307V1339H593.407V1313.8H611.803V1317.72H598.087V1335.08ZM617.525 1339V1313.8H627.893C630.125 1313.8 632.033 1314.16 633.617 1314.88C635.225 1315.6 636.461 1316.63 637.325 1317.98C638.189 1319.32 638.621 1320.92 638.621 1322.76C638.621 1324.61 638.189 1326.21 637.325 1327.55C636.461 1328.87 635.225 1329.89 633.617 1330.61C632.033 1331.31 630.125 1331.66 627.893 1331.66H620.117L622.205 1329.53V1339H617.525ZM634.013 1339L627.641 1329.86H632.645L639.053 1339H634.013ZM622.205 1330.04L620.117 1327.8H627.677C629.741 1327.8 631.289 1327.36 632.321 1326.47C633.377 1325.58 633.905 1324.35 633.905 1322.76C633.905 1321.16 633.377 1319.92 632.321 1319.06C631.289 1318.19 629.741 1317.76 627.677 1317.76H620.117L622.205 1315.46V1330.04Z" fill="black"/>
<rect x="384.711" y="1412" width="288" height="108" rx="5" stroke="black" stroke-width="20" mask="url(#path-19-inside-4_294_1378)"/>
<path d="M431.997 1479.36C430.077 1479.36 428.289 1479.05 426.633 1478.42C425.001 1477.78 423.573 1476.88 422.349 1475.72C421.149 1474.55 420.213 1473.17 419.541 1471.58C418.869 1470 418.533 1468.27 418.533 1466.4C418.533 1464.53 418.869 1462.8 419.541 1461.22C420.213 1459.63 421.161 1458.26 422.385 1457.11C423.609 1455.94 425.037 1455.04 426.669 1454.41C428.301 1453.76 430.089 1453.44 432.033 1453.44C434.097 1453.44 435.981 1453.8 437.685 1454.52C439.389 1455.22 440.829 1456.26 442.005 1457.65L438.981 1460.5C438.069 1459.51 437.049 1458.78 435.921 1458.3C434.793 1457.8 433.569 1457.54 432.249 1457.54C430.929 1457.54 429.717 1457.76 428.613 1458.19C427.533 1458.62 426.585 1459.24 425.769 1460.03C424.977 1460.82 424.353 1461.76 423.897 1462.84C423.465 1463.92 423.249 1465.1 423.249 1466.4C423.249 1467.7 423.465 1468.88 423.897 1469.96C424.353 1471.04 424.977 1471.98 425.769 1472.77C426.585 1473.56 427.533 1474.18 428.613 1474.61C429.717 1475.04 430.929 1475.26 432.249 1475.26C433.569 1475.26 434.793 1475.02 435.921 1474.54C437.049 1474.03 438.069 1473.28 438.981 1472.27L442.005 1475.15C440.829 1476.52 439.389 1477.56 437.685 1478.28C435.981 1479 434.085 1479.36 431.997 1479.36ZM457.77 1479.36C455.802 1479.36 453.99 1479.04 452.334 1478.39C450.678 1477.74 449.238 1476.84 448.014 1475.69C446.79 1474.51 445.842 1473.14 445.17 1471.58C444.498 1470 444.162 1468.27 444.162 1466.4C444.162 1464.53 444.498 1462.81 445.17 1461.25C445.842 1459.67 446.79 1458.3 448.014 1457.15C449.238 1455.97 450.678 1455.06 452.334 1454.41C453.99 1453.76 455.79 1453.44 457.734 1453.44C459.702 1453.44 461.502 1453.76 463.134 1454.41C464.79 1455.06 466.23 1455.97 467.454 1457.15C468.678 1458.3 469.626 1459.67 470.298 1461.25C470.97 1462.81 471.306 1464.53 471.306 1466.4C471.306 1468.27 470.97 1470 470.298 1471.58C469.626 1473.17 468.678 1474.54 467.454 1475.69C466.23 1476.84 464.79 1477.74 463.134 1478.39C461.502 1479.04 459.714 1479.36 457.77 1479.36ZM457.734 1475.26C459.006 1475.26 460.182 1475.04 461.262 1474.61C462.342 1474.18 463.278 1473.56 464.07 1472.77C464.862 1471.96 465.474 1471.02 465.906 1469.96C466.362 1468.88 466.59 1467.7 466.59 1466.4C466.59 1465.1 466.362 1463.93 465.906 1462.87C465.474 1461.79 464.862 1460.86 464.07 1460.06C463.278 1459.25 462.342 1458.62 461.262 1458.19C460.182 1457.76 459.006 1457.54 457.734 1457.54C456.462 1457.54 455.286 1457.76 454.206 1458.19C453.15 1458.62 452.214 1459.25 451.398 1460.06C450.606 1460.86 449.982 1461.79 449.526 1462.87C449.094 1463.93 448.878 1465.1 448.878 1466.4C448.878 1467.67 449.094 1468.85 449.526 1469.93C449.982 1471.01 450.606 1471.96 451.398 1472.77C452.19 1473.56 453.126 1474.18 454.206 1474.61C455.286 1475.04 456.462 1475.26 457.734 1475.26ZM476.267 1479V1453.8H480.119L495.923 1473.2H494.015V1453.8H498.659V1479H494.807L479.003 1459.6H480.911V1479H476.267ZM510.523 1479V1457.76H502.171V1453.8H523.555V1457.76H515.203V1479H510.523ZM522.238 1479L533.578 1453.8H538.186L549.562 1479H544.666L534.91 1456.28H536.782L527.062 1479H522.238ZM527.458 1473.17L528.718 1469.5H542.326L543.586 1473.17H527.458ZM552.767 1479V1453.8H557.447V1479H552.767ZM564.263 1479V1453.8H568.115L583.919 1473.2H582.011V1453.8H586.655V1479H582.803L566.999 1459.6H568.907V1479H564.263ZM597.727 1464.28H610.255V1468.13H597.727V1464.28ZM598.087 1475.08H612.307V1479H593.407V1453.8H611.803V1457.72H598.087V1475.08ZM617.525 1479V1453.8H627.893C630.125 1453.8 632.033 1454.16 633.617 1454.88C635.225 1455.6 636.461 1456.63 637.325 1457.98C638.189 1459.32 638.621 1460.92 638.621 1462.76C638.621 1464.61 638.189 1466.21 637.325 1467.55C636.461 1468.87 635.225 1469.89 633.617 1470.61C632.033 1471.31 630.125 1471.66 627.893 1471.66H620.117L622.205 1469.53V1479H617.525ZM634.013 1479L627.641 1469.86H632.645L639.053 1479H634.013ZM622.205 1470.04L620.117 1467.8H627.677C629.741 1467.8 631.289 1467.36 632.321 1466.47C633.377 1465.58 633.905 1464.35 633.905 1462.76C633.905 1461.16 633.377 1459.92 632.321 1459.06C631.289 1458.19 629.741 1457.76 627.677 1457.76H620.117L622.205 1455.46V1470.04Z" fill="black"/>
<rect x="384.711" y="1552" width="288" height="108" rx="5" stroke="black" stroke-width="20" mask="url(#path-21-inside-5_294_1378)"/>
<path d="M431.997 1619.36C430.077 1619.36 428.289 1619.05 426.633 1618.42C425.001 1617.78 423.573 1616.88 422.349 1615.72C421.149 1614.55 420.213 1613.17 419.541 1611.58C418.869 1610 418.533 1608.27 418.533 1606.4C418.533 1604.53 418.869 1602.8 419.541 1601.22C420.213 1599.63 421.161 1598.26 422.385 1597.11C423.609 1595.94 425.037 1595.04 426.669 1594.41C428.301 1593.76 430.089 1593.44 432.033 1593.44C434.097 1593.44 435.981 1593.8 437.685 1594.52C439.389 1595.22 440.829 1596.26 442.005 1597.65L438.981 1600.5C438.069 1599.51 437.049 1598.78 435.921 1598.3C434.793 1597.8 433.569 1597.54 432.249 1597.54C430.929 1597.54 429.717 1597.76 428.613 1598.19C427.533 1598.62 426.585 1599.24 425.769 1600.03C424.977 1600.82 424.353 1601.76 423.897 1602.84C423.465 1603.92 423.249 1605.1 423.249 1606.4C423.249 1607.7 423.465 1608.88 423.897 1609.96C424.353 1611.04 424.977 1611.98 425.769 1612.77C426.585 1613.56 427.533 1614.18 428.613 1614.61C429.717 1615.04 430.929 1615.26 432.249 1615.26C433.569 1615.26 434.793 1615.02 435.921 1614.54C437.049 1614.03 438.069 1613.28 438.981 1612.27L442.005 1615.15C440.829 1616.52 439.389 1617.56 437.685 1618.28C435.981 1619 434.085 1619.36 431.997 1619.36ZM457.77 1619.36C455.802 1619.36 453.99 1619.04 452.334 1618.39C450.678 1617.74 449.238 1616.84 448.014 1615.69C446.79 1614.51 445.842 1613.14 445.17 1611.58C444.498 1610 444.162 1608.27 444.162 1606.4C444.162 1604.53 444.498 1602.81 445.17 1601.25C445.842 1599.67 446.79 1598.3 448.014 1597.15C449.238 1595.97 450.678 1595.06 452.334 1594.41C453.99 1593.76 455.79 1593.44 457.734 1593.44C459.702 1593.44 461.502 1593.76 463.134 1594.41C464.79 1595.06 466.23 1595.97 467.454 1597.15C468.678 1598.3 469.626 1599.67 470.298 1601.25C470.97 1602.81 471.306 1604.53 471.306 1606.4C471.306 1608.27 470.97 1610 470.298 1611.58C469.626 1613.17 468.678 1614.54 467.454 1615.69C466.23 1616.84 464.79 1617.74 463.134 1618.39C461.502 1619.04 459.714 1619.36 457.77 1619.36ZM457.734 1615.26C459.006 1615.26 460.182 1615.04 461.262 1614.61C462.342 1614.18 463.278 1613.56 464.07 1612.77C464.862 1611.96 465.474 1611.02 465.906 1609.96C466.362 1608.88 466.59 1607.7 466.59 1606.4C466.59 1605.1 466.362 1603.93 465.906 1602.87C465.474 1601.79 464.862 1600.86 464.07 1600.06C463.278 1599.25 462.342 1598.62 461.262 1598.19C460.182 1597.76 459.006 1597.54 457.734 1597.54C456.462 1597.54 455.286 1597.76 454.206 1598.19C453.15 1598.62 452.214 1599.25 451.398 1600.06C450.606 1600.86 449.982 1601.79 449.526 1602.87C449.094 1603.93 448.878 1605.1 448.878 1606.4C448.878 1607.67 449.094 1608.85 449.526 1609.93C449.982 1611.01 450.606 1611.96 451.398 1612.77C452.19 1613.56 453.126 1614.18 454.206 1614.61C455.286 1615.04 456.462 1615.26 457.734 1615.26ZM476.267 1619V1593.8H480.119L495.923 1613.2H494.015V1593.8H498.659V1619H494.807L479.003 1599.6H480.911V1619H476.267ZM510.523 1619V1597.76H502.171V1593.8H523.555V1597.76H515.203V1619H510.523ZM522.238 1619L533.578 1593.8H538.186L549.562 1619H544.666L534.91 1596.28H536.782L527.062 1619H522.238ZM527.458 1613.17L528.718 1609.5H542.326L543.586 1613.17H527.458ZM552.767 1619V1593.8H557.447V1619H552.767ZM564.263 1619V1593.8H568.115L583.919 1613.2H582.011V1593.8H586.655V1619H582.803L566.999 1599.6H568.907V1619H564.263ZM597.727 1604.28H610.255V1608.13H597.727V1604.28ZM598.087 1615.08H612.307V1619H593.407V1593.8H611.803V1597.72H598.087V1615.08ZM617.525 1619V1593.8H627.893C630.125 1593.8 632.033 1594.16 633.617 1594.88C635.225 1595.6 636.461 1596.63 637.325 1597.98C638.189 1599.32 638.621 1600.92 638.621 1602.76C638.621 1604.61 638.189 1606.21 637.325 1607.55C636.461 1608.87 635.225 1609.89 633.617 1610.61C632.033 1611.31 630.125 1611.66 627.893 1611.66H620.117L622.205 1609.53V1619H617.525ZM634.013 1619L627.641 1609.86H632.645L639.053 1619H634.013ZM622.205 1610.04L620.117 1607.8H627.677C629.741 1607.8 631.289 1607.36 632.321 1606.47C633.377 1605.58 633.905 1604.35 633.905 1602.76C633.905 1601.16 633.377 1599.92 632.321 1599.06C631.289 1598.19 629.741 1597.76 627.677 1597.76H620.117L622.205 1595.46V1610.04Z" fill="black"/>
<rect x="752.711" y="744" width="432" height="980" rx="5" fill="#60A394"/>
<rect x="752.711" y="744" width="432" height="980" rx="5" fill="white" fill-opacity="0.8"/>
<rect x="784.711" y="776" width="318" height="152" rx="5" fill="#FB6233"/>
<path d="M824.374 837.06L824.122 831.516L837.334 817.8H842.59L831.61 829.464L829.018 832.308L824.374 837.06ZM820.198 843V817.8H824.878V843H820.198ZM837.766 843L828.118 831.516L831.214 828.096L843.238 843H837.766ZM856.909 843.36C853.453 843.36 850.741 842.388 848.773 840.444C846.829 838.5 845.857 835.692 845.857 832.02V817.8H850.537V831.84C850.537 834.432 851.089 836.316 852.193 837.492C853.321 838.668 854.905 839.256 856.945 839.256C858.985 839.256 860.557 838.668 861.661 837.492C862.765 836.316 863.317 834.432 863.317 831.84V817.8H867.925V832.02C867.925 835.692 866.941 838.5 864.973 840.444C863.029 842.388 860.341 843.36 856.909 843.36ZM874.48 843V817.8H886.288C889.312 817.8 891.616 818.4 893.2 819.6C894.784 820.776 895.576 822.36 895.576 824.352C895.576 825.696 895.264 826.848 894.64 827.808C894.016 828.744 893.176 829.476 892.12 830.004C891.088 830.508 889.96 830.76 888.736 830.76L889.384 829.464C890.8 829.464 892.072 829.728 893.2 830.256C894.328 830.76 895.216 831.504 895.864 832.488C896.536 833.472 896.872 834.696 896.872 836.16C896.872 838.32 896.044 840 894.388 841.2C892.732 842.4 890.272 843 887.008 843H874.48ZM879.16 839.328H886.72C888.472 839.328 889.816 839.04 890.752 838.464C891.688 837.888 892.156 836.964 892.156 835.692C892.156 834.444 891.688 833.532 890.752 832.956C889.816 832.356 888.472 832.056 886.72 832.056H878.8V828.42H885.784C887.416 828.42 888.664 828.132 889.528 827.556C890.416 826.98 890.86 826.116 890.86 824.964C890.86 823.788 890.416 822.912 889.528 822.336C888.664 821.76 887.416 821.472 885.784 821.472H879.16V839.328ZM906.186 828.276H918.714V832.128H906.186V828.276ZM906.546 839.076H920.766V843H901.866V817.8H920.262V821.724H906.546V839.076ZM925.984 843V817.8H936.352C938.584 817.8 940.492 818.16 942.076 818.88C943.684 819.6 944.92 820.632 945.784 821.976C946.648 823.32 947.08 824.916 947.08 826.764C947.08 828.612 946.648 830.208 945.784 831.552C944.92 832.872 943.684 833.892 942.076 834.612C940.492 835.308 938.584 835.656 936.352 835.656H928.576L930.664 833.532V843H925.984ZM942.472 843L936.1 833.856H941.104L947.512 843H942.472ZM930.664 834.036L928.576 831.804H936.136C938.2 831.804 939.748 831.36 940.78 830.472C941.836 829.584 942.364 828.348 942.364 826.764C942.364 825.156 941.836 823.92 940.78 823.056C939.748 822.192 938.2 821.76 936.136 821.76H928.576L930.664 819.456V834.036ZM952.316 843V817.8H956.168L971.972 837.204H970.064V817.8H974.708V843H970.856L955.052 823.596H956.96V843H952.316ZM985.78 828.276H998.308V832.128H985.78V828.276ZM986.14 839.076H1000.36V843H981.46V817.8H999.856V821.724H986.14V839.076ZM1010.69 843V821.76H1002.34V817.8H1023.72V821.76H1015.37V843H1010.69ZM1031.55 828.276H1044.08V832.128H1031.55V828.276ZM1031.91 839.076H1046.13V843H1027.23V817.8H1045.63V821.724H1031.91V839.076ZM1059.16 843.36C1057.19 843.36 1055.31 843.084 1053.51 842.532C1051.71 841.956 1050.28 841.224 1049.23 840.336L1050.85 836.7C1051.85 837.492 1053.1 838.152 1054.59 838.68C1056.08 839.208 1057.6 839.472 1059.16 839.472C1060.48 839.472 1061.55 839.328 1062.37 839.04C1063.18 838.752 1063.78 838.368 1064.17 837.888C1064.55 837.384 1064.74 836.82 1064.74 836.196C1064.74 835.428 1064.47 834.816 1063.91 834.36C1063.36 833.88 1062.64 833.508 1061.75 833.244C1060.89 832.956 1059.92 832.692 1058.84 832.452C1057.78 832.212 1056.71 831.936 1055.63 831.624C1054.58 831.288 1053.61 830.868 1052.72 830.364C1051.85 829.836 1051.15 829.14 1050.59 828.276C1050.04 827.412 1049.77 826.308 1049.77 824.964C1049.77 823.596 1050.13 822.348 1050.85 821.22C1051.59 820.068 1052.71 819.156 1054.19 818.484C1055.71 817.788 1057.61 817.44 1059.92 817.44C1061.43 817.44 1062.93 817.632 1064.42 818.016C1065.91 818.4 1067.2 818.952 1068.31 819.672L1066.83 823.308C1065.7 822.636 1064.54 822.144 1063.34 821.832C1062.14 821.496 1060.99 821.328 1059.88 821.328C1058.59 821.328 1057.53 821.484 1056.71 821.796C1055.92 822.108 1055.33 822.516 1054.95 823.02C1054.59 823.524 1054.41 824.1 1054.41 824.748C1054.41 825.516 1054.67 826.14 1055.2 826.62C1055.75 827.076 1056.46 827.436 1057.33 827.7C1058.21 827.964 1059.2 828.228 1060.28 828.492C1061.36 828.732 1062.43 829.008 1063.48 829.32C1064.56 829.632 1065.53 830.04 1066.4 830.544C1067.29 831.048 1067.99 831.732 1068.52 832.596C1069.07 833.46 1069.35 834.552 1069.35 835.872C1069.35 837.216 1068.98 838.464 1068.23 839.616C1067.51 840.744 1066.4 841.656 1064.89 842.352C1063.37 843.024 1061.47 843.36 1059.16 843.36ZM904.011 887V861.8H914.379C916.611 861.8 918.519 862.16 920.103 862.88C921.711 863.6 922.947 864.632 923.811 865.976C924.675 867.32 925.107 868.916 925.107 870.764C925.107 872.612 924.675 874.208 923.811 875.552C922.947 876.896 921.711 877.928 920.103 878.648C918.519 879.368 916.611 879.728 914.379 879.728H906.603L908.691 877.532V887H904.011ZM908.691 878.036L906.603 875.768H914.163C916.227 875.768 917.775 875.336 918.807 874.472C919.863 873.584 920.391 872.348 920.391 870.764C920.391 869.156 919.863 867.92 918.807 867.056C917.775 866.192 916.227 865.76 914.163 865.76H906.603L908.691 863.456V878.036ZM941.94 887.36C939.972 887.36 938.16 887.036 936.504 886.388C934.848 885.74 933.408 884.84 932.184 883.688C930.96 882.512 930.012 881.144 929.34 879.584C928.668 878 928.332 876.272 928.332 874.4C928.332 872.528 928.668 870.812 929.34 869.252C930.012 867.668 930.96 866.3 932.184 865.148C933.408 863.972 934.848 863.06 936.504 862.412C938.16 861.764 939.96 861.44 941.904 861.44C943.872 861.44 945.672 861.764 947.304 862.412C948.96 863.06 950.4 863.972 951.624 865.148C952.848 866.3 953.796 867.668 954.468 869.252C955.14 870.812 955.476 872.528 955.476 874.4C955.476 876.272 955.14 878 954.468 879.584C953.796 881.168 952.848 882.536 951.624 883.688C950.4 884.84 948.96 885.74 947.304 886.388C945.672 887.036 943.884 887.36 941.94 887.36ZM941.904 883.256C943.176 883.256 944.352 883.04 945.432 882.608C946.512 882.176 947.448 881.564 948.24 880.772C949.032 879.956 949.644 879.02 950.076 877.964C950.532 876.884 950.76 875.696 950.76 874.4C950.76 873.104 950.532 871.928 950.076 870.872C949.644 869.792 949.032 868.856 948.24 868.064C947.448 867.248 946.512 866.624 945.432 866.192C944.352 865.76 943.176 865.544 941.904 865.544C940.632 865.544 939.456 865.76 938.376 866.192C937.32 866.624 936.384 867.248 935.568 868.064C934.776 868.856 934.152 869.792 933.696 870.872C933.264 871.928 933.048 873.104 933.048 874.4C933.048 875.672 933.264 876.848 933.696 877.928C934.152 879.008 934.776 879.956 935.568 880.772C936.36 881.564 937.296 882.176 938.376 882.608C939.456 883.04 940.632 883.256 941.904 883.256ZM960.437 887V861.8H971.453C974.189 861.8 976.589 862.328 978.653 863.384C980.717 864.44 982.325 865.904 983.477 867.776C984.629 869.648 985.205 871.856 985.205 874.4C985.205 876.92 984.629 879.128 983.477 881.024C982.325 882.896 980.717 884.36 978.653 885.416C976.589 886.472 974.189 887 971.453 887H960.437ZM965.117 883.04H971.237C973.133 883.04 974.765 882.68 976.133 881.96C977.525 881.24 978.593 880.232 979.337 878.936C980.105 877.64 980.489 876.128 980.489 874.4C980.489 872.648 980.105 871.136 979.337 869.864C978.593 868.568 977.525 867.56 976.133 866.84C974.765 866.12 973.133 865.76 971.237 865.76H965.117V883.04Z" fill="white"/>
<rect x="848.711" y="992" width="288" height="108" rx="5" stroke="black" stroke-width="20" mask="url(#path-26-inside-6_294_1378)"/>
<path d="M895.997 1059.36C894.077 1059.36 892.289 1059.05 890.633 1058.42C889.001 1057.78 887.573 1056.88 886.349 1055.72C885.149 1054.55 884.213 1053.17 883.541 1051.58C882.869 1050 882.533 1048.27 882.533 1046.4C882.533 1044.53 882.869 1042.8 883.541 1041.22C884.213 1039.63 885.161 1038.26 886.385 1037.11C887.609 1035.94 889.037 1035.04 890.669 1034.41C892.301 1033.76 894.089 1033.44 896.033 1033.44C898.097 1033.44 899.981 1033.8 901.685 1034.52C903.389 1035.22 904.829 1036.26 906.005 1037.65L902.981 1040.5C902.069 1039.51 901.049 1038.78 899.921 1038.3C898.793 1037.8 897.569 1037.54 896.249 1037.54C894.929 1037.54 893.717 1037.76 892.613 1038.19C891.533 1038.62 890.585 1039.24 889.769 1040.03C888.977 1040.82 888.353 1041.76 887.897 1042.84C887.465 1043.92 887.249 1045.1 887.249 1046.4C887.249 1047.7 887.465 1048.88 887.897 1049.96C888.353 1051.04 888.977 1051.98 889.769 1052.77C890.585 1053.56 891.533 1054.18 892.613 1054.61C893.717 1055.04 894.929 1055.26 896.249 1055.26C897.569 1055.26 898.793 1055.02 899.921 1054.54C901.049 1054.03 902.069 1053.28 902.981 1052.27L906.005 1055.15C904.829 1056.52 903.389 1057.56 901.685 1058.28C899.981 1059 898.085 1059.36 895.997 1059.36ZM921.77 1059.36C919.802 1059.36 917.99 1059.04 916.334 1058.39C914.678 1057.74 913.238 1056.84 912.014 1055.69C910.79 1054.51 909.842 1053.14 909.17 1051.58C908.498 1050 908.162 1048.27 908.162 1046.4C908.162 1044.53 908.498 1042.81 909.17 1041.25C909.842 1039.67 910.79 1038.3 912.014 1037.15C913.238 1035.97 914.678 1035.06 916.334 1034.41C917.99 1033.76 919.79 1033.44 921.734 1033.44C923.702 1033.44 925.502 1033.76 927.134 1034.41C928.79 1035.06 930.23 1035.97 931.454 1037.15C932.678 1038.3 933.626 1039.67 934.298 1041.25C934.97 1042.81 935.306 1044.53 935.306 1046.4C935.306 1048.27 934.97 1050 934.298 1051.58C933.626 1053.17 932.678 1054.54 931.454 1055.69C930.23 1056.84 928.79 1057.74 927.134 1058.39C925.502 1059.04 923.714 1059.36 921.77 1059.36ZM921.734 1055.26C923.006 1055.26 924.182 1055.04 925.262 1054.61C926.342 1054.18 927.278 1053.56 928.07 1052.77C928.862 1051.96 929.474 1051.02 929.906 1049.96C930.362 1048.88 930.59 1047.7 930.59 1046.4C930.59 1045.1 930.362 1043.93 929.906 1042.87C929.474 1041.79 928.862 1040.86 928.07 1040.06C927.278 1039.25 926.342 1038.62 925.262 1038.19C924.182 1037.76 923.006 1037.54 921.734 1037.54C920.462 1037.54 919.286 1037.76 918.206 1038.19C917.15 1038.62 916.214 1039.25 915.398 1040.06C914.606 1040.86 913.982 1041.79 913.526 1042.87C913.094 1043.93 912.878 1045.1 912.878 1046.4C912.878 1047.67 913.094 1048.85 913.526 1049.93C913.982 1051.01 914.606 1051.96 915.398 1052.77C916.19 1053.56 917.126 1054.18 918.206 1054.61C919.286 1055.04 920.462 1055.26 921.734 1055.26ZM940.267 1059V1033.8H944.119L959.923 1053.2H958.015V1033.8H962.659V1059H958.807L943.003 1039.6H944.911V1059H940.267ZM974.523 1059V1037.76H966.171V1033.8H987.555V1037.76H979.203V1059H974.523ZM986.238 1059L997.578 1033.8H1002.19L1013.56 1059H1008.67L998.91 1036.28H1000.78L991.062 1059H986.238ZM991.458 1053.17L992.718 1049.5H1006.33L1007.59 1053.17H991.458ZM1016.77 1059V1033.8H1021.45V1059H1016.77ZM1028.26 1059V1033.8H1032.11L1047.92 1053.2H1046.01V1033.8H1050.65V1059H1046.8L1031 1039.6H1032.91V1059H1028.26ZM1061.73 1044.28H1074.26V1048.13H1061.73V1044.28ZM1062.09 1055.08H1076.31V1059H1057.41V1033.8H1075.8V1037.72H1062.09V1055.08ZM1081.52 1059V1033.8H1091.89C1094.12 1033.8 1096.03 1034.16 1097.62 1034.88C1099.22 1035.6 1100.46 1036.63 1101.32 1037.98C1102.19 1039.32 1102.62 1040.92 1102.62 1042.76C1102.62 1044.61 1102.19 1046.21 1101.32 1047.55C1100.46 1048.87 1099.22 1049.89 1097.62 1050.61C1096.03 1051.31 1094.12 1051.66 1091.89 1051.66H1084.12L1086.2 1049.53V1059H1081.52ZM1098.01 1059L1091.64 1049.86H1096.64L1103.05 1059H1098.01ZM1086.2 1050.04L1084.12 1047.8H1091.68C1093.74 1047.8 1095.29 1047.36 1096.32 1046.47C1097.38 1045.58 1097.9 1044.35 1097.9 1042.76C1097.9 1041.16 1097.38 1039.92 1096.32 1039.06C1095.29 1038.19 1093.74 1037.76 1091.68 1037.76H1084.12L1086.2 1035.46V1050.04Z" fill="black"/>
<rect x="848.711" y="1132" width="288" height="108" rx="5" stroke="black" stroke-width="20" mask="url(#path-28-inside-7_294_1378)"/>
<path d="M895.997 1199.36C894.077 1199.36 892.289 1199.05 890.633 1198.42C889.001 1197.78 887.573 1196.88 886.349 1195.72C885.149 1194.55 884.213 1193.17 883.541 1191.58C882.869 1190 882.533 1188.27 882.533 1186.4C882.533 1184.53 882.869 1182.8 883.541 1181.22C884.213 1179.63 885.161 1178.26 886.385 1177.11C887.609 1175.94 889.037 1175.04 890.669 1174.41C892.301 1173.76 894.089 1173.44 896.033 1173.44C898.097 1173.44 899.981 1173.8 901.685 1174.52C903.389 1175.22 904.829 1176.26 906.005 1177.65L902.981 1180.5C902.069 1179.51 901.049 1178.78 899.921 1178.3C898.793 1177.8 897.569 1177.54 896.249 1177.54C894.929 1177.54 893.717 1177.76 892.613 1178.19C891.533 1178.62 890.585 1179.24 889.769 1180.03C888.977 1180.82 888.353 1181.76 887.897 1182.84C887.465 1183.92 887.249 1185.1 887.249 1186.4C887.249 1187.7 887.465 1188.88 887.897 1189.96C888.353 1191.04 888.977 1191.98 889.769 1192.77C890.585 1193.56 891.533 1194.18 892.613 1194.61C893.717 1195.04 894.929 1195.26 896.249 1195.26C897.569 1195.26 898.793 1195.02 899.921 1194.54C901.049 1194.03 902.069 1193.28 902.981 1192.27L906.005 1195.15C904.829 1196.52 903.389 1197.56 901.685 1198.28C899.981 1199 898.085 1199.36 895.997 1199.36ZM921.77 1199.36C919.802 1199.36 917.99 1199.04 916.334 1198.39C914.678 1197.74 913.238 1196.84 912.014 1195.69C910.79 1194.51 909.842 1193.14 909.17 1191.58C908.498 1190 908.162 1188.27 908.162 1186.4C908.162 1184.53 908.498 1182.81 909.17 1181.25C909.842 1179.67 910.79 1178.3 912.014 1177.15C913.238 1175.97 914.678 1175.06 916.334 1174.41C917.99 1173.76 919.79 1173.44 921.734 1173.44C923.702 1173.44 925.502 1173.76 927.134 1174.41C928.79 1175.06 930.23 1175.97 931.454 1177.15C932.678 1178.3 933.626 1179.67 934.298 1181.25C934.97 1182.81 935.306 1184.53 935.306 1186.4C935.306 1188.27 934.97 1190 934.298 1191.58C933.626 1193.17 932.678 1194.54 931.454 1195.69C930.23 1196.84 928.79 1197.74 927.134 1198.39C925.502 1199.04 923.714 1199.36 921.77 1199.36ZM921.734 1195.26C923.006 1195.26 924.182 1195.04 925.262 1194.61C926.342 1194.18 927.278 1193.56 928.07 1192.77C928.862 1191.96 929.474 1191.02 929.906 1189.96C930.362 1188.88 930.59 1187.7 930.59 1186.4C930.59 1185.1 930.362 1183.93 929.906 1182.87C929.474 1181.79 928.862 1180.86 928.07 1180.06C927.278 1179.25 926.342 1178.62 925.262 1178.19C924.182 1177.76 923.006 1177.54 921.734 1177.54C920.462 1177.54 919.286 1177.76 918.206 1178.19C917.15 1178.62 916.214 1179.25 915.398 1180.06C914.606 1180.86 913.982 1181.79 913.526 1182.87C913.094 1183.93 912.878 1185.1 912.878 1186.4C912.878 1187.67 913.094 1188.85 913.526 1189.93C913.982 1191.01 914.606 1191.96 915.398 1192.77C916.19 1193.56 917.126 1194.18 918.206 1194.61C919.286 1195.04 920.462 1195.26 921.734 1195.26ZM940.267 1199V1173.8H944.119L959.923 1193.2H958.015V1173.8H962.659V1199H958.807L943.003 1179.6H944.911V1199H940.267ZM974.523 1199V1177.76H966.171V1173.8H987.555V1177.76H979.203V1199H974.523ZM986.238 1199L997.578 1173.8H1002.19L1013.56 1199H1008.67L998.91 1176.28H1000.78L991.062 1199H986.238ZM991.458 1193.17L992.718 1189.5H1006.33L1007.59 1193.17H991.458ZM1016.77 1199V1173.8H1021.45V1199H1016.77ZM1028.26 1199V1173.8H1032.11L1047.92 1193.2H1046.01V1173.8H1050.65V1199H1046.8L1031 1179.6H1032.91V1199H1028.26ZM1061.73 1184.28H1074.26V1188.13H1061.73V1184.28ZM1062.09 1195.08H1076.31V1199H1057.41V1173.8H1075.8V1177.72H1062.09V1195.08ZM1081.52 1199V1173.8H1091.89C1094.12 1173.8 1096.03 1174.16 1097.62 1174.88C1099.22 1175.6 1100.46 1176.63 1101.32 1177.98C1102.19 1179.32 1102.62 1180.92 1102.62 1182.76C1102.62 1184.61 1102.19 1186.21 1101.32 1187.55C1100.46 1188.87 1099.22 1189.89 1097.62 1190.61C1096.03 1191.31 1094.12 1191.66 1091.89 1191.66H1084.12L1086.2 1189.53V1199H1081.52ZM1098.01 1199L1091.64 1189.86H1096.64L1103.05 1199H1098.01ZM1086.2 1190.04L1084.12 1187.8H1091.68C1093.74 1187.8 1095.29 1187.36 1096.32 1186.47C1097.38 1185.58 1097.9 1184.35 1097.9 1182.76C1097.9 1181.16 1097.38 1179.92 1096.32 1179.06C1095.29 1178.19 1093.74 1177.76 1091.68 1177.76H1084.12L1086.2 1175.46V1190.04Z" fill="black"/>
<rect x="848.711" y="1272" width="288" height="108" rx="5" stroke="black" stroke-width="20" mask="url(#path-30-inside-8_294_1378)"/>
<path d="M895.997 1339.36C894.077 1339.36 892.289 1339.05 890.633 1338.42C889.001 1337.78 887.573 1336.88 886.349 1335.72C885.149 1334.55 884.213 1333.17 883.541 1331.58C882.869 1330 882.533 1328.27 882.533 1326.4C882.533 1324.53 882.869 1322.8 883.541 1321.22C884.213 1319.63 885.161 1318.26 886.385 1317.11C887.609 1315.94 889.037 1315.04 890.669 1314.41C892.301 1313.76 894.089 1313.44 896.033 1313.44C898.097 1313.44 899.981 1313.8 901.685 1314.52C903.389 1315.22 904.829 1316.26 906.005 1317.65L902.981 1320.5C902.069 1319.51 901.049 1318.78 899.921 1318.3C898.793 1317.8 897.569 1317.54 896.249 1317.54C894.929 1317.54 893.717 1317.76 892.613 1318.19C891.533 1318.62 890.585 1319.24 889.769 1320.03C888.977 1320.82 888.353 1321.76 887.897 1322.84C887.465 1323.92 887.249 1325.1 887.249 1326.4C887.249 1327.7 887.465 1328.88 887.897 1329.96C888.353 1331.04 888.977 1331.98 889.769 1332.77C890.585 1333.56 891.533 1334.18 892.613 1334.61C893.717 1335.04 894.929 1335.26 896.249 1335.26C897.569 1335.26 898.793 1335.02 899.921 1334.54C901.049 1334.03 902.069 1333.28 902.981 1332.27L906.005 1335.15C904.829 1336.52 903.389 1337.56 901.685 1338.28C899.981 1339 898.085 1339.36 895.997 1339.36ZM921.77 1339.36C919.802 1339.36 917.99 1339.04 916.334 1338.39C914.678 1337.74 913.238 1336.84 912.014 1335.69C910.79 1334.51 909.842 1333.14 909.17 1331.58C908.498 1330 908.162 1328.27 908.162 1326.4C908.162 1324.53 908.498 1322.81 909.17 1321.25C909.842 1319.67 910.79 1318.3 912.014 1317.15C913.238 1315.97 914.678 1315.06 916.334 1314.41C917.99 1313.76 919.79 1313.44 921.734 1313.44C923.702 1313.44 925.502 1313.76 927.134 1314.41C928.79 1315.06 930.23 1315.97 931.454 1317.15C932.678 1318.3 933.626 1319.67 934.298 1321.25C934.97 1322.81 935.306 1324.53 935.306 1326.4C935.306 1328.27 934.97 1330 934.298 1331.58C933.626 1333.17 932.678 1334.54 931.454 1335.69C930.23 1336.84 928.79 1337.74 927.134 1338.39C925.502 1339.04 923.714 1339.36 921.77 1339.36ZM921.734 1335.26C923.006 1335.26 924.182 1335.04 925.262 1334.61C926.342 1334.18 927.278 1333.56 928.07 1332.77C928.862 1331.96 929.474 1331.02 929.906 1329.96C930.362 1328.88 930.59 1327.7 930.59 1326.4C930.59 1325.1 930.362 1323.93 929.906 1322.87C929.474 1321.79 928.862 1320.86 928.07 1320.06C927.278 1319.25 926.342 1318.62 925.262 1318.19C924.182 1317.76 923.006 1317.54 921.734 1317.54C920.462 1317.54 919.286 1317.76 918.206 1318.19C917.15 1318.62 916.214 1319.25 915.398 1320.06C914.606 1320.86 913.982 1321.79 913.526 1322.87C913.094 1323.93 912.878 1325.1 912.878 1326.4C912.878 1327.67 913.094 1328.85 913.526 1329.93C913.982 1331.01 914.606 1331.96 915.398 1332.77C916.19 1333.56 917.126 1334.18 918.206 1334.61C919.286 1335.04 920.462 1335.26 921.734 1335.26ZM940.267 1339V1313.8H944.119L959.923 1333.2H958.015V1313.8H962.659V1339H958.807L943.003 1319.6H944.911V1339H940.267ZM974.523 1339V1317.76H966.171V1313.8H987.555V1317.76H979.203V1339H974.523ZM986.238 1339L997.578 1313.8H1002.19L1013.56 1339H1008.67L998.91 1316.28H1000.78L991.062 1339H986.238ZM991.458 1333.17L992.718 1329.5H1006.33L1007.59 1333.17H991.458ZM1016.77 1339V1313.8H1021.45V1339H1016.77ZM1028.26 1339V1313.8H1032.11L1047.92 1333.2H1046.01V1313.8H1050.65V1339H1046.8L1031 1319.6H1032.91V1339H1028.26ZM1061.73 1324.28H1074.26V1328.13H1061.73V1324.28ZM1062.09 1335.08H1076.31V1339H1057.41V1313.8H1075.8V1317.72H1062.09V1335.08ZM1081.52 1339V1313.8H1091.89C1094.12 1313.8 1096.03 1314.16 1097.62 1314.88C1099.22 1315.6 1100.46 1316.63 1101.32 1317.98C1102.19 1319.32 1102.62 1320.92 1102.62 1322.76C1102.62 1324.61 1102.19 1326.21 1101.32 1327.55C1100.46 1328.87 1099.22 1329.89 1097.62 1330.61C1096.03 1331.31 1094.12 1331.66 1091.89 1331.66H1084.12L1086.2 1329.53V1339H1081.52ZM1098.01 1339L1091.64 1329.86H1096.64L1103.05 1339H1098.01ZM1086.2 1330.04L1084.12 1327.8H1091.68C1093.74 1327.8 1095.29 1327.36 1096.32 1326.47C1097.38 1325.58 1097.9 1324.35 1097.9 1322.76C1097.9 1321.16 1097.38 1319.92 1096.32 1319.06C1095.29 1318.19 1093.74 1317.76 1091.68 1317.76H1084.12L1086.2 1315.46V1330.04Z" fill="black"/>
<rect x="848.711" y="1412" width="288" height="108" rx="5" stroke="black" stroke-width="20" mask="url(#path-32-inside-9_294_1378)"/>
<path d="M895.997 1479.36C894.077 1479.36 892.289 1479.05 890.633 1478.42C889.001 1477.78 887.573 1476.88 886.349 1475.72C885.149 1474.55 884.213 1473.17 883.541 1471.58C882.869 1470 882.533 1468.27 882.533 1466.4C882.533 1464.53 882.869 1462.8 883.541 1461.22C884.213 1459.63 885.161 1458.26 886.385 1457.11C887.609 1455.94 889.037 1455.04 890.669 1454.41C892.301 1453.76 894.089 1453.44 896.033 1453.44C898.097 1453.44 899.981 1453.8 901.685 1454.52C903.389 1455.22 904.829 1456.26 906.005 1457.65L902.981 1460.5C902.069 1459.51 901.049 1458.78 899.921 1458.3C898.793 1457.8 897.569 1457.54 896.249 1457.54C894.929 1457.54 893.717 1457.76 892.613 1458.19C891.533 1458.62 890.585 1459.24 889.769 1460.03C888.977 1460.82 888.353 1461.76 887.897 1462.84C887.465 1463.92 887.249 1465.1 887.249 1466.4C887.249 1467.7 887.465 1468.88 887.897 1469.96C888.353 1471.04 888.977 1471.98 889.769 1472.77C890.585 1473.56 891.533 1474.18 892.613 1474.61C893.717 1475.04 894.929 1475.26 896.249 1475.26C897.569 1475.26 898.793 1475.02 899.921 1474.54C901.049 1474.03 902.069 1473.28 902.981 1472.27L906.005 1475.15C904.829 1476.52 903.389 1477.56 901.685 1478.28C899.981 1479 898.085 1479.36 895.997 1479.36ZM921.77 1479.36C919.802 1479.36 917.99 1479.04 916.334 1478.39C914.678 1477.74 913.238 1476.84 912.014 1475.69C910.79 1474.51 909.842 1473.14 909.17 1471.58C908.498 1470 908.162 1468.27 908.162 1466.4C908.162 1464.53 908.498 1462.81 909.17 1461.25C909.842 1459.67 910.79 1458.3 912.014 1457.15C913.238 1455.97 914.678 1455.06 916.334 1454.41C917.99 1453.76 919.79 1453.44 921.734 1453.44C923.702 1453.44 925.502 1453.76 927.134 1454.41C928.79 1455.06 930.23 1455.97 931.454 1457.15C932.678 1458.3 933.626 1459.67 934.298 1461.25C934.97 1462.81 935.306 1464.53 935.306 1466.4C935.306 1468.27 934.97 1470 934.298 1471.58C933.626 1473.17 932.678 1474.54 931.454 1475.69C930.23 1476.84 928.79 1477.74 927.134 1478.39C925.502 1479.04 923.714 1479.36 921.77 1479.36ZM921.734 1475.26C923.006 1475.26 924.182 1475.04 925.262 1474.61C926.342 1474.18 927.278 1473.56 928.07 1472.77C928.862 1471.96 929.474 1471.02 929.906 1469.96C930.362 1468.88 930.59 1467.7 930.59 1466.4C930.59 1465.1 930.362 1463.93 929.906 1462.87C929.474 1461.79 928.862 1460.86 928.07 1460.06C927.278 1459.25 926.342 1458.62 925.262 1458.19C924.182 1457.76 923.006 1457.54 921.734 1457.54C920.462 1457.54 919.286 1457.76 918.206 1458.19C917.15 1458.62 916.214 1459.25 915.398 1460.06C914.606 1460.86 913.982 1461.79 913.526 1462.87C913.094 1463.93 912.878 1465.1 912.878 1466.4C912.878 1467.67 913.094 1468.85 913.526 1469.93C913.982 1471.01 914.606 1471.96 915.398 1472.77C916.19 1473.56 917.126 1474.18 918.206 1474.61C919.286 1475.04 920.462 1475.26 921.734 1475.26ZM940.267 1479V1453.8H944.119L959.923 1473.2H958.015V1453.8H962.659V1479H958.807L943.003 1459.6H944.911V1479H940.267ZM974.523 1479V1457.76H966.171V1453.8H987.555V1457.76H979.203V1479H974.523ZM986.238 1479L997.578 1453.8H1002.19L1013.56 1479H1008.67L998.91 1456.28H1000.78L991.062 1479H986.238ZM991.458 1473.17L992.718 1469.5H1006.33L1007.59 1473.17H991.458ZM1016.77 1479V1453.8H1021.45V1479H1016.77ZM1028.26 1479V1453.8H1032.11L1047.92 1473.2H1046.01V1453.8H1050.65V1479H1046.8L1031 1459.6H1032.91V1479H1028.26ZM1061.73 1464.28H1074.26V1468.13H1061.73V1464.28ZM1062.09 1475.08H1076.31V1479H1057.41V1453.8H1075.8V1457.72H1062.09V1475.08ZM1081.52 1479V1453.8H1091.89C1094.12 1453.8 1096.03 1454.16 1097.62 1454.88C1099.22 1455.6 1100.46 1456.63 1101.32 1457.98C1102.19 1459.32 1102.62 1460.92 1102.62 1462.76C1102.62 1464.61 1102.19 1466.21 1101.32 1467.55C1100.46 1468.87 1099.22 1469.89 1097.62 1470.61C1096.03 1471.31 1094.12 1471.66 1091.89 1471.66H1084.12L1086.2 1469.53V1479H1081.52ZM1098.01 1479L1091.64 1469.86H1096.64L1103.05 1479H1098.01ZM1086.2 1470.04L1084.12 1467.8H1091.68C1093.74 1467.8 1095.29 1467.36 1096.32 1466.47C1097.38 1465.58 1097.9 1464.35 1097.9 1462.76C1097.9 1461.16 1097.38 1459.92 1096.32 1459.06C1095.29 1458.19 1093.74 1457.76 1091.68 1457.76H1084.12L1086.2 1455.46V1470.04Z" fill="black"/>
<rect x="1216.71" y="744" width="432" height="980" rx="5" fill="#60A394"/>
<rect x="1216.71" y="744" width="432" height="980" rx="5" fill="white" fill-opacity="0.8"/>
<rect x="1248.71" y="776" width="318" height="152" rx="5" fill="#FB6233"/>
<path d="M1288.37 837.06L1288.12 831.516L1301.33 817.8H1306.59L1295.61 829.464L1293.02 832.308L1288.37 837.06ZM1284.2 843V817.8H1288.88V843H1284.2ZM1301.77 843L1292.12 831.516L1295.21 828.096L1307.24 843H1301.77ZM1320.91 843.36C1317.45 843.36 1314.74 842.388 1312.77 840.444C1310.83 838.5 1309.86 835.692 1309.86 832.02V817.8H1314.54V831.84C1314.54 834.432 1315.09 836.316 1316.19 837.492C1317.32 838.668 1318.91 839.256 1320.95 839.256C1322.99 839.256 1324.56 838.668 1325.66 837.492C1326.77 836.316 1327.32 834.432 1327.32 831.84V817.8H1331.93V832.02C1331.93 835.692 1330.94 838.5 1328.97 840.444C1327.03 842.388 1324.34 843.36 1320.91 843.36ZM1338.48 843V817.8H1350.29C1353.31 817.8 1355.62 818.4 1357.2 819.6C1358.78 820.776 1359.58 822.36 1359.58 824.352C1359.58 825.696 1359.26 826.848 1358.64 827.808C1358.02 828.744 1357.18 829.476 1356.12 830.004C1355.09 830.508 1353.96 830.76 1352.74 830.76L1353.38 829.464C1354.8 829.464 1356.07 829.728 1357.2 830.256C1358.33 830.76 1359.22 831.504 1359.86 832.488C1360.54 833.472 1360.87 834.696 1360.87 836.16C1360.87 838.32 1360.04 840 1358.39 841.2C1356.73 842.4 1354.27 843 1351.01 843H1338.48ZM1343.16 839.328H1350.72C1352.47 839.328 1353.82 839.04 1354.75 838.464C1355.69 837.888 1356.16 836.964 1356.16 835.692C1356.16 834.444 1355.69 833.532 1354.75 832.956C1353.82 832.356 1352.47 832.056 1350.72 832.056H1342.8V828.42H1349.78C1351.42 828.42 1352.66 828.132 1353.53 827.556C1354.42 826.98 1354.86 826.116 1354.86 824.964C1354.86 823.788 1354.42 822.912 1353.53 822.336C1352.66 821.76 1351.42 821.472 1349.78 821.472H1343.16V839.328ZM1370.19 828.276H1382.71V832.128H1370.19V828.276ZM1370.55 839.076H1384.77V843H1365.87V817.8H1384.26V821.724H1370.55V839.076ZM1389.98 843V817.8H1400.35C1402.58 817.8 1404.49 818.16 1406.08 818.88C1407.68 819.6 1408.92 820.632 1409.78 821.976C1410.65 823.32 1411.08 824.916 1411.08 826.764C1411.08 828.612 1410.65 830.208 1409.78 831.552C1408.92 832.872 1407.68 833.892 1406.08 834.612C1404.49 835.308 1402.58 835.656 1400.35 835.656H1392.58L1394.66 833.532V843H1389.98ZM1406.47 843L1400.1 833.856H1405.1L1411.51 843H1406.47ZM1394.66 834.036L1392.58 831.804H1400.14C1402.2 831.804 1403.75 831.36 1404.78 830.472C1405.84 829.584 1406.36 828.348 1406.36 826.764C1406.36 825.156 1405.84 823.92 1404.78 823.056C1403.75 822.192 1402.2 821.76 1400.14 821.76H1392.58L1394.66 819.456V834.036ZM1416.32 843V817.8H1420.17L1435.97 837.204H1434.06V817.8H1438.71V843H1434.86L1419.05 823.596H1420.96V843H1416.32ZM1449.78 828.276H1462.31V832.128H1449.78V828.276ZM1450.14 839.076H1464.36V843H1445.46V817.8H1463.86V821.724H1450.14V839.076ZM1474.69 843V821.76H1466.34V817.8H1487.72V821.76H1479.37V843H1474.69ZM1495.55 828.276H1508.08V832.128H1495.55V828.276ZM1495.91 839.076H1510.13V843H1491.23V817.8H1509.63V821.724H1495.91V839.076ZM1523.16 843.36C1521.19 843.36 1519.31 843.084 1517.51 842.532C1515.71 841.956 1514.28 841.224 1513.23 840.336L1514.85 836.7C1515.85 837.492 1517.1 838.152 1518.59 838.68C1520.08 839.208 1521.6 839.472 1523.16 839.472C1524.48 839.472 1525.55 839.328 1526.37 839.04C1527.18 838.752 1527.78 838.368 1528.17 837.888C1528.55 837.384 1528.74 836.82 1528.74 836.196C1528.74 835.428 1528.47 834.816 1527.91 834.36C1527.36 833.88 1526.64 833.508 1525.75 833.244C1524.89 832.956 1523.92 832.692 1522.84 832.452C1521.78 832.212 1520.71 831.936 1519.63 831.624C1518.58 831.288 1517.61 830.868 1516.72 830.364C1515.85 829.836 1515.15 829.14 1514.59 828.276C1514.04 827.412 1513.77 826.308 1513.77 824.964C1513.77 823.596 1514.13 822.348 1514.85 821.22C1515.59 820.068 1516.71 819.156 1518.19 818.484C1519.71 817.788 1521.61 817.44 1523.92 817.44C1525.43 817.44 1526.93 817.632 1528.42 818.016C1529.91 818.4 1531.2 818.952 1532.31 819.672L1530.83 823.308C1529.7 822.636 1528.54 822.144 1527.34 821.832C1526.14 821.496 1524.99 821.328 1523.88 821.328C1522.59 821.328 1521.53 821.484 1520.71 821.796C1519.92 822.108 1519.33 822.516 1518.95 823.02C1518.59 823.524 1518.41 824.1 1518.41 824.748C1518.41 825.516 1518.67 826.14 1519.2 826.62C1519.75 827.076 1520.46 827.436 1521.33 827.7C1522.21 827.964 1523.2 828.228 1524.28 828.492C1525.36 828.732 1526.43 829.008 1527.48 829.32C1528.56 829.632 1529.53 830.04 1530.4 830.544C1531.29 831.048 1531.99 831.732 1532.52 832.596C1533.07 833.46 1533.35 834.552 1533.35 835.872C1533.35 837.216 1532.98 838.464 1532.23 839.616C1531.51 840.744 1530.4 841.656 1528.89 842.352C1527.37 843.024 1525.47 843.36 1523.16 843.36ZM1368.01 887V861.8H1378.38C1380.61 861.8 1382.52 862.16 1384.1 862.88C1385.71 863.6 1386.95 864.632 1387.81 865.976C1388.67 867.32 1389.11 868.916 1389.11 870.764C1389.11 872.612 1388.67 874.208 1387.81 875.552C1386.95 876.896 1385.71 877.928 1384.1 878.648C1382.52 879.368 1380.61 879.728 1378.38 879.728H1370.6L1372.69 877.532V887H1368.01ZM1372.69 878.036L1370.6 875.768H1378.16C1380.23 875.768 1381.77 875.336 1382.81 874.472C1383.86 873.584 1384.39 872.348 1384.39 870.764C1384.39 869.156 1383.86 867.92 1382.81 867.056C1381.77 866.192 1380.23 865.76 1378.16 865.76H1370.6L1372.69 863.456V878.036ZM1405.94 887.36C1403.97 887.36 1402.16 887.036 1400.5 886.388C1398.85 885.74 1397.41 884.84 1396.18 883.688C1394.96 882.512 1394.01 881.144 1393.34 879.584C1392.67 878 1392.33 876.272 1392.33 874.4C1392.33 872.528 1392.67 870.812 1393.34 869.252C1394.01 867.668 1394.96 866.3 1396.18 865.148C1397.41 863.972 1398.85 863.06 1400.5 862.412C1402.16 861.764 1403.96 861.44 1405.9 861.44C1407.87 861.44 1409.67 861.764 1411.3 862.412C1412.96 863.06 1414.4 863.972 1415.62 865.148C1416.85 866.3 1417.8 867.668 1418.47 869.252C1419.14 870.812 1419.48 872.528 1419.48 874.4C1419.48 876.272 1419.14 878 1418.47 879.584C1417.8 881.168 1416.85 882.536 1415.62 883.688C1414.4 884.84 1412.96 885.74 1411.3 886.388C1409.67 887.036 1407.88 887.36 1405.94 887.36ZM1405.9 883.256C1407.18 883.256 1408.35 883.04 1409.43 882.608C1410.51 882.176 1411.45 881.564 1412.24 880.772C1413.03 879.956 1413.64 879.02 1414.08 877.964C1414.53 876.884 1414.76 875.696 1414.76 874.4C1414.76 873.104 1414.53 871.928 1414.08 870.872C1413.64 869.792 1413.03 868.856 1412.24 868.064C1411.45 867.248 1410.51 866.624 1409.43 866.192C1408.35 865.76 1407.18 865.544 1405.9 865.544C1404.63 865.544 1403.46 865.76 1402.38 866.192C1401.32 866.624 1400.38 867.248 1399.57 868.064C1398.78 868.856 1398.15 869.792 1397.7 870.872C1397.26 871.928 1397.05 873.104 1397.05 874.4C1397.05 875.672 1397.26 876.848 1397.7 877.928C1398.15 879.008 1398.78 879.956 1399.57 880.772C1400.36 881.564 1401.3 882.176 1402.38 882.608C1403.46 883.04 1404.63 883.256 1405.9 883.256ZM1424.44 887V861.8H1435.45C1438.19 861.8 1440.59 862.328 1442.65 863.384C1444.72 864.44 1446.32 865.904 1447.48 867.776C1448.63 869.648 1449.2 871.856 1449.2 874.4C1449.2 876.92 1448.63 879.128 1447.48 881.024C1446.32 882.896 1444.72 884.36 1442.65 885.416C1440.59 886.472 1438.19 887 1435.45 887H1424.44ZM1429.12 883.04H1435.24C1437.13 883.04 1438.76 882.68 1440.13 881.96C1441.52 881.24 1442.59 880.232 1443.34 878.936C1444.1 877.64 1444.49 876.128 1444.49 874.4C1444.49 872.648 1444.1 871.136 1443.34 869.864C1442.59 868.568 1441.52 867.56 1440.13 866.84C1438.76 866.12 1437.13 865.76 1435.24 865.76H1429.12V883.04Z" fill="white"/>
<rect x="1312.71" y="992" width="288" height="108" rx="5" stroke="black" stroke-width="20" mask="url(#path-37-inside-10_294_1378)"/>
<path d="M1360 1059.36C1358.08 1059.36 1356.29 1059.05 1354.63 1058.42C1353 1057.78 1351.57 1056.88 1350.35 1055.72C1349.15 1054.55 1348.21 1053.17 1347.54 1051.58C1346.87 1050 1346.53 1048.27 1346.53 1046.4C1346.53 1044.53 1346.87 1042.8 1347.54 1041.22C1348.21 1039.63 1349.16 1038.26 1350.39 1037.11C1351.61 1035.94 1353.04 1035.04 1354.67 1034.41C1356.3 1033.76 1358.09 1033.44 1360.03 1033.44C1362.1 1033.44 1363.98 1033.8 1365.69 1034.52C1367.39 1035.22 1368.83 1036.26 1370.01 1037.65L1366.98 1040.5C1366.07 1039.51 1365.05 1038.78 1363.92 1038.3C1362.79 1037.8 1361.57 1037.54 1360.25 1037.54C1358.93 1037.54 1357.72 1037.76 1356.61 1038.19C1355.53 1038.62 1354.59 1039.24 1353.77 1040.03C1352.98 1040.82 1352.35 1041.76 1351.9 1042.84C1351.47 1043.92 1351.25 1045.1 1351.25 1046.4C1351.25 1047.7 1351.47 1048.88 1351.9 1049.96C1352.35 1051.04 1352.98 1051.98 1353.77 1052.77C1354.59 1053.56 1355.53 1054.18 1356.61 1054.61C1357.72 1055.04 1358.93 1055.26 1360.25 1055.26C1361.57 1055.26 1362.79 1055.02 1363.92 1054.54C1365.05 1054.03 1366.07 1053.28 1366.98 1052.27L1370.01 1055.15C1368.83 1056.52 1367.39 1057.56 1365.69 1058.28C1363.98 1059 1362.09 1059.36 1360 1059.36ZM1385.77 1059.36C1383.8 1059.36 1381.99 1059.04 1380.33 1058.39C1378.68 1057.74 1377.24 1056.84 1376.01 1055.69C1374.79 1054.51 1373.84 1053.14 1373.17 1051.58C1372.5 1050 1372.16 1048.27 1372.16 1046.4C1372.16 1044.53 1372.5 1042.81 1373.17 1041.25C1373.84 1039.67 1374.79 1038.3 1376.01 1037.15C1377.24 1035.97 1378.68 1035.06 1380.33 1034.41C1381.99 1033.76 1383.79 1033.44 1385.73 1033.44C1387.7 1033.44 1389.5 1033.76 1391.13 1034.41C1392.79 1035.06 1394.23 1035.97 1395.45 1037.15C1396.68 1038.3 1397.63 1039.67 1398.3 1041.25C1398.97 1042.81 1399.31 1044.53 1399.31 1046.4C1399.31 1048.27 1398.97 1050 1398.3 1051.58C1397.63 1053.17 1396.68 1054.54 1395.45 1055.69C1394.23 1056.84 1392.79 1057.74 1391.13 1058.39C1389.5 1059.04 1387.71 1059.36 1385.77 1059.36ZM1385.73 1055.26C1387.01 1055.26 1388.18 1055.04 1389.26 1054.61C1390.34 1054.18 1391.28 1053.56 1392.07 1052.77C1392.86 1051.96 1393.47 1051.02 1393.91 1049.96C1394.36 1048.88 1394.59 1047.7 1394.59 1046.4C1394.59 1045.1 1394.36 1043.93 1393.91 1042.87C1393.47 1041.79 1392.86 1040.86 1392.07 1040.06C1391.28 1039.25 1390.34 1038.62 1389.26 1038.19C1388.18 1037.76 1387.01 1037.54 1385.73 1037.54C1384.46 1037.54 1383.29 1037.76 1382.21 1038.19C1381.15 1038.62 1380.21 1039.25 1379.4 1040.06C1378.61 1040.86 1377.98 1041.79 1377.53 1042.87C1377.09 1043.93 1376.88 1045.1 1376.88 1046.4C1376.88 1047.67 1377.09 1048.85 1377.53 1049.93C1377.98 1051.01 1378.61 1051.96 1379.4 1052.77C1380.19 1053.56 1381.13 1054.18 1382.21 1054.61C1383.29 1055.04 1384.46 1055.26 1385.73 1055.26ZM1404.27 1059V1033.8H1408.12L1423.92 1053.2H1422.01V1033.8H1426.66V1059H1422.81L1407 1039.6H1408.91V1059H1404.27ZM1438.52 1059V1037.76H1430.17V1033.8H1451.56V1037.76H1443.2V1059H1438.52ZM1450.24 1059L1461.58 1033.8H1466.19L1477.56 1059H1472.67L1462.91 1036.28H1464.78L1455.06 1059H1450.24ZM1455.46 1053.17L1456.72 1049.5H1470.33L1471.59 1053.17H1455.46ZM1480.77 1059V1033.8H1485.45V1059H1480.77ZM1492.26 1059V1033.8H1496.11L1511.92 1053.2H1510.01V1033.8H1514.65V1059H1510.8L1495 1039.6H1496.91V1059H1492.26ZM1525.73 1044.28H1538.26V1048.13H1525.73V1044.28ZM1526.09 1055.08H1540.31V1059H1521.41V1033.8H1539.8V1037.72H1526.09V1055.08ZM1545.52 1059V1033.8H1555.89C1558.12 1033.8 1560.03 1034.16 1561.62 1034.88C1563.22 1035.6 1564.46 1036.63 1565.32 1037.98C1566.19 1039.32 1566.62 1040.92 1566.62 1042.76C1566.62 1044.61 1566.19 1046.21 1565.32 1047.55C1564.46 1048.87 1563.22 1049.89 1561.62 1050.61C1560.03 1051.31 1558.12 1051.66 1555.89 1051.66H1548.12L1550.2 1049.53V1059H1545.52ZM1562.01 1059L1555.64 1049.86H1560.64L1567.05 1059H1562.01ZM1550.2 1050.04L1548.12 1047.8H1555.68C1557.74 1047.8 1559.29 1047.36 1560.32 1046.47C1561.38 1045.58 1561.9 1044.35 1561.9 1042.76C1561.9 1041.16 1561.38 1039.92 1560.32 1039.06C1559.29 1038.19 1557.74 1037.76 1555.68 1037.76H1548.12L1550.2 1035.46V1050.04Z" fill="black"/>
<rect x="1312.71" y="1132" width="288" height="108" rx="5" stroke="black" stroke-width="20" mask="url(#path-39-inside-11_294_1378)"/>
<path d="M1360 1199.36C1358.08 1199.36 1356.29 1199.05 1354.63 1198.42C1353 1197.78 1351.57 1196.88 1350.35 1195.72C1349.15 1194.55 1348.21 1193.17 1347.54 1191.58C1346.87 1190 1346.53 1188.27 1346.53 1186.4C1346.53 1184.53 1346.87 1182.8 1347.54 1181.22C1348.21 1179.63 1349.16 1178.26 1350.39 1177.11C1351.61 1175.94 1353.04 1175.04 1354.67 1174.41C1356.3 1173.76 1358.09 1173.44 1360.03 1173.44C1362.1 1173.44 1363.98 1173.8 1365.69 1174.52C1367.39 1175.22 1368.83 1176.26 1370.01 1177.65L1366.98 1180.5C1366.07 1179.51 1365.05 1178.78 1363.92 1178.3C1362.79 1177.8 1361.57 1177.54 1360.25 1177.54C1358.93 1177.54 1357.72 1177.76 1356.61 1178.19C1355.53 1178.62 1354.59 1179.24 1353.77 1180.03C1352.98 1180.82 1352.35 1181.76 1351.9 1182.84C1351.47 1183.92 1351.25 1185.1 1351.25 1186.4C1351.25 1187.7 1351.47 1188.88 1351.9 1189.96C1352.35 1191.04 1352.98 1191.98 1353.77 1192.77C1354.59 1193.56 1355.53 1194.18 1356.61 1194.61C1357.72 1195.04 1358.93 1195.26 1360.25 1195.26C1361.57 1195.26 1362.79 1195.02 1363.92 1194.54C1365.05 1194.03 1366.07 1193.28 1366.98 1192.27L1370.01 1195.15C1368.83 1196.52 1367.39 1197.56 1365.69 1198.28C1363.98 1199 1362.09 1199.36 1360 1199.36ZM1385.77 1199.36C1383.8 1199.36 1381.99 1199.04 1380.33 1198.39C1378.68 1197.74 1377.24 1196.84 1376.01 1195.69C1374.79 1194.51 1373.84 1193.14 1373.17 1191.58C1372.5 1190 1372.16 1188.27 1372.16 1186.4C1372.16 1184.53 1372.5 1182.81 1373.17 1181.25C1373.84 1179.67 1374.79 1178.3 1376.01 1177.15C1377.24 1175.97 1378.68 1175.06 1380.33 1174.41C1381.99 1173.76 1383.79 1173.44 1385.73 1173.44C1387.7 1173.44 1389.5 1173.76 1391.13 1174.41C1392.79 1175.06 1394.23 1175.97 1395.45 1177.15C1396.68 1178.3 1397.63 1179.67 1398.3 1181.25C1398.97 1182.81 1399.31 1184.53 1399.31 1186.4C1399.31 1188.27 1398.97 1190 1398.3 1191.58C1397.63 1193.17 1396.68 1194.54 1395.45 1195.69C1394.23 1196.84 1392.79 1197.74 1391.13 1198.39C1389.5 1199.04 1387.71 1199.36 1385.77 1199.36ZM1385.73 1195.26C1387.01 1195.26 1388.18 1195.04 1389.26 1194.61C1390.34 1194.18 1391.28 1193.56 1392.07 1192.77C1392.86 1191.96 1393.47 1191.02 1393.91 1189.96C1394.36 1188.88 1394.59 1187.7 1394.59 1186.4C1394.59 1185.1 1394.36 1183.93 1393.91 1182.87C1393.47 1181.79 1392.86 1180.86 1392.07 1180.06C1391.28 1179.25 1390.34 1178.62 1389.26 1178.19C1388.18 1177.76 1387.01 1177.54 1385.73 1177.54C1384.46 1177.54 1383.29 1177.76 1382.21 1178.19C1381.15 1178.62 1380.21 1179.25 1379.4 1180.06C1378.61 1180.86 1377.98 1181.79 1377.53 1182.87C1377.09 1183.93 1376.88 1185.1 1376.88 1186.4C1376.88 1187.67 1377.09 1188.85 1377.53 1189.93C1377.98 1191.01 1378.61 1191.96 1379.4 1192.77C1380.19 1193.56 1381.13 1194.18 1382.21 1194.61C1383.29 1195.04 1384.46 1195.26 1385.73 1195.26ZM1404.27 1199V1173.8H1408.12L1423.92 1193.2H1422.01V1173.8H1426.66V1199H1422.81L1407 1179.6H1408.91V1199H1404.27ZM1438.52 1199V1177.76H1430.17V1173.8H1451.56V1177.76H1443.2V1199H1438.52ZM1450.24 1199L1461.58 1173.8H1466.19L1477.56 1199H1472.67L1462.91 1176.28H1464.78L1455.06 1199H1450.24ZM1455.46 1193.17L1456.72 1189.5H1470.33L1471.59 1193.17H1455.46ZM1480.77 1199V1173.8H1485.45V1199H1480.77ZM1492.26 1199V1173.8H1496.11L1511.92 1193.2H1510.01V1173.8H1514.65V1199H1510.8L1495 1179.6H1496.91V1199H1492.26ZM1525.73 1184.28H1538.26V1188.13H1525.73V1184.28ZM1526.09 1195.08H1540.31V1199H1521.41V1173.8H1539.8V1177.72H1526.09V1195.08ZM1545.52 1199V1173.8H1555.89C1558.12 1173.8 1560.03 1174.16 1561.62 1174.88C1563.22 1175.6 1564.46 1176.63 1565.32 1177.98C1566.19 1179.32 1566.62 1180.92 1566.62 1182.76C1566.62 1184.61 1566.19 1186.21 1565.32 1187.55C1564.46 1188.87 1563.22 1189.89 1561.62 1190.61C1560.03 1191.31 1558.12 1191.66 1555.89 1191.66H1548.12L1550.2 1189.53V1199H1545.52ZM1562.01 1199L1555.64 1189.86H1560.64L1567.05 1199H1562.01ZM1550.2 1190.04L1548.12 1187.8H1555.68C1557.74 1187.8 1559.29 1187.36 1560.32 1186.47C1561.38 1185.58 1561.9 1184.35 1561.9 1182.76C1561.9 1181.16 1561.38 1179.92 1560.32 1179.06C1559.29 1178.19 1557.74 1177.76 1555.68 1177.76H1548.12L1550.2 1175.46V1190.04Z" fill="black"/>
<rect x="1312.71" y="1272" width="288" height="108" rx="5" stroke="black" stroke-width="20" mask="url(#path-41-inside-12_294_1378)"/>
<path d="M1360 1339.36C1358.08 1339.36 1356.29 1339.05 1354.63 1338.42C1353 1337.78 1351.57 1336.88 1350.35 1335.72C1349.15 1334.55 1348.21 1333.17 1347.54 1331.58C1346.87 1330 1346.53 1328.27 1346.53 1326.4C1346.53 1324.53 1346.87 1322.8 1347.54 1321.22C1348.21 1319.63 1349.16 1318.26 1350.39 1317.11C1351.61 1315.94 1353.04 1315.04 1354.67 1314.41C1356.3 1313.76 1358.09 1313.44 1360.03 1313.44C1362.1 1313.44 1363.98 1313.8 1365.69 1314.52C1367.39 1315.22 1368.83 1316.26 1370.01 1317.65L1366.98 1320.5C1366.07 1319.51 1365.05 1318.78 1363.92 1318.3C1362.79 1317.8 1361.57 1317.54 1360.25 1317.54C1358.93 1317.54 1357.72 1317.76 1356.61 1318.19C1355.53 1318.62 1354.59 1319.24 1353.77 1320.03C1352.98 1320.82 1352.35 1321.76 1351.9 1322.84C1351.47 1323.92 1351.25 1325.1 1351.25 1326.4C1351.25 1327.7 1351.47 1328.88 1351.9 1329.96C1352.35 1331.04 1352.98 1331.98 1353.77 1332.77C1354.59 1333.56 1355.53 1334.18 1356.61 1334.61C1357.72 1335.04 1358.93 1335.26 1360.25 1335.26C1361.57 1335.26 1362.79 1335.02 1363.92 1334.54C1365.05 1334.03 1366.07 1333.28 1366.98 1332.27L1370.01 1335.15C1368.83 1336.52 1367.39 1337.56 1365.69 1338.28C1363.98 1339 1362.09 1339.36 1360 1339.36ZM1385.77 1339.36C1383.8 1339.36 1381.99 1339.04 1380.33 1338.39C1378.68 1337.74 1377.24 1336.84 1376.01 1335.69C1374.79 1334.51 1373.84 1333.14 1373.17 1331.58C1372.5 1330 1372.16 1328.27 1372.16 1326.4C1372.16 1324.53 1372.5 1322.81 1373.17 1321.25C1373.84 1319.67 1374.79 1318.3 1376.01 1317.15C1377.24 1315.97 1378.68 1315.06 1380.33 1314.41C1381.99 1313.76 1383.79 1313.44 1385.73 1313.44C1387.7 1313.44 1389.5 1313.76 1391.13 1314.41C1392.79 1315.06 1394.23 1315.97 1395.45 1317.15C1396.68 1318.3 1397.63 1319.67 1398.3 1321.25C1398.97 1322.81 1399.31 1324.53 1399.31 1326.4C1399.31 1328.27 1398.97 1330 1398.3 1331.58C1397.63 1333.17 1396.68 1334.54 1395.45 1335.69C1394.23 1336.84 1392.79 1337.74 1391.13 1338.39C1389.5 1339.04 1387.71 1339.36 1385.77 1339.36ZM1385.73 1335.26C1387.01 1335.26 1388.18 1335.04 1389.26 1334.61C1390.34 1334.18 1391.28 1333.56 1392.07 1332.77C1392.86 1331.96 1393.47 1331.02 1393.91 1329.96C1394.36 1328.88 1394.59 1327.7 1394.59 1326.4C1394.59 1325.1 1394.36 1323.93 1393.91 1322.87C1393.47 1321.79 1392.86 1320.86 1392.07 1320.06C1391.28 1319.25 1390.34 1318.62 1389.26 1318.19C1388.18 1317.76 1387.01 1317.54 1385.73 1317.54C1384.46 1317.54 1383.29 1317.76 1382.21 1318.19C1381.15 1318.62 1380.21 1319.25 1379.4 1320.06C1378.61 1320.86 1377.98 1321.79 1377.53 1322.87C1377.09 1323.93 1376.88 1325.1 1376.88 1326.4C1376.88 1327.67 1377.09 1328.85 1377.53 1329.93C1377.98 1331.01 1378.61 1331.96 1379.4 1332.77C1380.19 1333.56 1381.13 1334.18 1382.21 1334.61C1383.29 1335.04 1384.46 1335.26 1385.73 1335.26ZM1404.27 1339V1313.8H1408.12L1423.92 1333.2H1422.01V1313.8H1426.66V1339H1422.81L1407 1319.6H1408.91V1339H1404.27ZM1438.52 1339V1317.76H1430.17V1313.8H1451.56V1317.76H1443.2V1339H1438.52ZM1450.24 1339L1461.58 1313.8H1466.19L1477.56 1339H1472.67L1462.91 1316.28H1464.78L1455.06 1339H1450.24ZM1455.46 1333.17L1456.72 1329.5H1470.33L1471.59 1333.17H1455.46ZM1480.77 1339V1313.8H1485.45V1339H1480.77ZM1492.26 1339V1313.8H1496.11L1511.92 1333.2H1510.01V1313.8H1514.65V1339H1510.8L1495 1319.6H1496.91V1339H1492.26ZM1525.73 1324.28H1538.26V1328.13H1525.73V1324.28ZM1526.09 1335.08H1540.31V1339H1521.41V1313.8H1539.8V1317.72H1526.09V1335.08ZM1545.52 1339V1313.8H1555.89C1558.12 1313.8 1560.03 1314.16 1561.62 1314.88C1563.22 1315.6 1564.46 1316.63 1565.32 1317.98C1566.19 1319.32 1566.62 1320.92 1566.62 1322.76C1566.62 1324.61 1566.19 1326.21 1565.32 1327.55C1564.46 1328.87 1563.22 1329.89 1561.62 1330.61C1560.03 1331.31 1558.12 1331.66 1555.89 1331.66H1548.12L1550.2 1329.53V1339H1545.52ZM1562.01 1339L1555.64 1329.86H1560.64L1567.05 1339H1562.01ZM1550.2 1330.04L1548.12 1327.8H1555.68C1557.74 1327.8 1559.29 1327.36 1560.32 1326.47C1561.38 1325.58 1561.9 1324.35 1561.9 1322.76C1561.9 1321.16 1561.38 1319.92 1560.32 1319.06C1559.29 1318.19 1557.74 1317.76 1555.68 1317.76H1548.12L1550.2 1315.46V1330.04Z" fill="black"/>
</svg>
