<svg width="2591" height="469" viewBox="0 0 2591 469" fill="none" xmlns="http://www.w3.org/2000/svg">
<rect x="16.7881" y="16" width="286.772" height="109.149" rx="5" fill="#FB6233"/>
<path d="M72.3744 82.3701C70.4007 82.3701 68.5627 82.0493 66.8604 81.4079C65.1828 80.7418 63.7148 79.8166 62.4566 78.6324C61.223 77.4235 60.2609 76.0049 59.5701 74.3766C58.8793 72.7483 58.5339 70.972 58.5339 69.0476C58.5339 67.1233 58.8793 65.347 59.5701 63.7187C60.2609 62.0904 61.2354 60.6841 62.4936 59.4999C63.7518 58.291 65.2198 57.3659 66.8974 56.7244C68.575 56.0583 70.413 55.7252 72.4114 55.7252C74.5331 55.7252 76.4698 56.0953 78.2215 56.8354C79.9731 57.5509 81.4534 58.6241 82.6623 60.055L79.5537 62.9785C78.6162 61.967 77.5677 61.2146 76.4081 60.7211C75.2486 60.203 73.9904 59.944 72.6334 59.944C71.2765 59.944 70.0306 60.166 68.8958 60.6101C67.7856 61.0542 66.8111 61.6833 65.9722 62.4975C65.1581 63.3116 64.5166 64.2738 64.0479 65.384C63.6038 66.4942 63.3818 67.7154 63.3818 69.0476C63.3818 70.3799 63.6038 71.6011 64.0479 72.7113C64.5166 73.8215 65.1581 74.7837 65.9722 75.5978C66.8111 76.412 67.7856 77.0411 68.8958 77.4852C70.0306 77.9293 71.2765 78.1513 72.6334 78.1513C73.9904 78.1513 75.2486 77.9046 76.4081 77.4112C77.5677 76.8931 78.6162 76.1159 79.5537 75.0797L82.6623 78.0403C81.4534 79.4465 79.9731 80.5197 78.2215 81.2599C76.4698 82 74.5208 82.3701 72.3744 82.3701ZM98.868 82.3701C96.845 82.3701 94.9823 82.037 93.28 81.3709C91.5777 80.7048 90.0974 79.7796 88.8392 78.5954C87.581 77.3865 86.6065 75.9802 85.9157 74.3766C85.2249 72.7483 84.8795 70.972 84.8795 69.0476C84.8795 67.1233 85.2249 65.3593 85.9157 63.7557C86.6065 62.1274 87.581 60.7211 88.8392 59.5369C90.0974 58.328 91.5777 57.3905 93.28 56.7244C94.9823 56.0583 96.8327 55.7252 98.831 55.7252C100.854 55.7252 102.704 56.0583 104.382 56.7244C106.084 57.3905 107.565 58.328 108.823 59.5369C110.081 60.7211 111.056 62.1274 111.746 63.7557C112.437 65.3593 112.783 67.1233 112.783 69.0476C112.783 70.972 112.437 72.7483 111.746 74.3766C111.056 76.0049 110.081 77.4112 108.823 78.5954C107.565 79.7796 106.084 80.7048 104.382 81.3709C102.704 82.037 100.866 82.3701 98.868 82.3701ZM98.831 78.1513C100.139 78.1513 101.347 77.9293 102.458 77.4852C103.568 77.0411 104.53 76.412 105.344 75.5978C106.158 74.759 106.787 73.7968 107.232 72.7113C107.7 71.6011 107.935 70.3799 107.935 69.0476C107.935 67.7154 107.7 66.5065 107.232 65.421C106.787 64.3108 106.158 63.3486 105.344 62.5345C104.53 61.6956 103.568 61.0542 102.458 60.6101C101.347 60.166 100.139 59.944 98.831 59.944C97.5235 59.944 96.3146 60.166 95.2044 60.6101C94.1188 61.0542 93.1567 61.6956 92.3178 62.5345C91.5037 63.3486 90.8622 64.3108 90.3935 65.421C89.9494 66.5065 89.7274 67.7154 89.7274 69.0476C89.7274 70.3552 89.9494 71.5641 90.3935 72.6743C90.8622 73.7845 91.5037 74.759 92.3178 75.5978C93.132 76.412 94.0942 77.0411 95.2044 77.4852C96.3146 77.9293 97.5235 78.1513 98.831 78.1513ZM117.882 82V56.0953H121.842L133.166 75.0057H131.093L142.232 56.0953H146.192L146.229 82H141.677L141.64 63.2376H142.602L133.129 79.0395H130.982L121.361 63.2376H122.471V82H117.882ZM153.226 82V56.0953H163.884C166.179 56.0953 168.14 56.4654 169.768 57.2055C171.421 57.9456 172.692 59.0065 173.58 60.3881C174.468 61.7697 174.912 63.4103 174.912 65.31C174.912 67.2096 174.468 68.8503 173.58 70.2319C172.692 71.6134 171.421 72.6743 169.768 73.4144C168.14 74.1546 166.179 74.5246 163.884 74.5246H155.891L158.037 72.2672V82H153.226ZM158.037 72.7853L155.891 70.4539H163.662C165.784 70.4539 167.375 70.0098 168.436 69.1217C169.522 68.2088 170.064 66.9383 170.064 65.31C170.064 63.657 169.522 62.3864 168.436 61.4983C167.375 60.6101 165.784 60.166 163.662 60.166H155.891L158.037 57.7976V72.7853ZM190.819 82.3701C187.267 82.3701 184.479 81.3709 182.456 79.3725C180.457 77.3742 179.458 74.4876 179.458 70.7129V56.0953H184.269V70.5279C184.269 73.1924 184.837 75.1291 185.971 76.338C187.131 77.5469 188.759 78.1513 190.856 78.1513C192.953 78.1513 194.569 77.5469 195.704 76.338C196.839 75.1291 197.407 73.1924 197.407 70.5279V56.0953H202.143V70.7129C202.143 74.4876 201.132 77.3742 199.109 79.3725C197.111 81.3709 194.347 82.3701 190.819 82.3701ZM213.666 82V60.166H205.081V56.0953H227.063V60.166H218.477V82H213.666ZM235.114 66.8642H247.992V70.824H235.114V66.8642ZM235.484 77.9663H250.102V82H230.673V56.0953H249.583V60.129H235.484V77.9663ZM255.465 82V56.0953H266.123C268.417 56.0953 270.378 56.4654 272.007 57.2055C273.66 57.9456 274.93 59.0065 275.818 60.3881C276.706 61.7697 277.151 63.4103 277.151 65.31C277.151 67.2096 276.706 68.8503 275.818 70.2319C274.93 71.5888 273.66 72.6373 272.007 73.3774C270.378 74.0929 268.417 74.4506 266.123 74.4506H258.129L260.276 72.2672V82H255.465ZM272.414 82L265.864 72.6003H271.007L277.595 82H272.414ZM260.276 72.7853L258.129 70.4909H265.901C268.022 70.4909 269.614 70.0345 270.674 69.1217C271.76 68.2088 272.303 66.9383 272.303 65.31C272.303 63.657 271.76 62.3864 270.674 61.4983C269.614 60.6101 268.022 60.166 265.901 60.166H258.129L260.276 57.7976V72.7853Z" fill="#F8F8F8"/>
<path d="M188.739 236.593V257.036H102.764H16.7881V337.411V417.785H56.0512H95.3143L94.9222 419.858C94.7542 421.034 93.9701 423.274 93.2979 424.787C90.4414 431.06 85.8486 434.252 78.1192 435.261L73.3023 435.933L73.4703 444.054L73.6384 452.232L121.415 452.4L169.136 452.512V444.166V435.821L165.383 435.429C163.255 435.205 160.286 434.532 158.718 433.972C153.397 431.956 148.524 425.795 147.684 419.914L147.348 417.785H168.071H188.739V435.149V452.512H246.15H303.56V334.33V216.149H246.15H188.739V236.593ZM286.757 309.966V386.98H256.231H225.706V338.811V290.642H248.39H271.074V282.241V273.839H248.39H225.706V265.438V257.036H215.624H205.542V244.994V232.952H246.15H286.757V309.966ZM208.903 322.008V370.177H121.247H33.5911V322.008V273.839H121.247H208.903V322.008ZM208.903 393.981V400.982H121.247H33.5911V393.981V386.98H121.247H208.903V393.981ZM286.757 419.746V435.709H246.15H205.542V426.747V417.785H215.624H225.706V410.784V403.783H256.231H286.757V419.746ZM130.769 419.858C131.609 425.291 132.449 428.427 133.905 431.732C134.801 433.692 135.53 435.373 135.53 435.485C135.53 435.597 129.088 435.709 121.247 435.709C113.406 435.709 106.964 435.597 106.964 435.429C106.964 435.261 107.581 433.916 108.309 432.46C109.933 429.268 111.221 424.787 111.725 420.698L112.117 417.785H121.247H130.433L130.769 419.858Z" fill="#FFD633"/>
<path d="M237.86 339.979C237.636 340.147 237.468 343.956 237.468 348.381V356.39H245.869H254.271V347.989V339.587H246.261C241.837 339.587 238.028 339.755 237.86 339.979Z" fill="#FFD633"/>
<path d="M237.86 367.984C237.636 368.152 237.468 371.961 237.468 376.386V384.395H245.869H254.271V375.994V367.592H246.261C241.837 367.592 238.028 367.76 237.86 367.984Z" fill="#FFD633"/>
<path fill-rule="evenodd" clip-rule="evenodd" d="M335.66 297.376C334.5 297.376 333.56 298.319 333.56 299.482L333.56 316.334C333.56 317.497 334.5 318.44 335.66 318.44L541.582 318.44L529.465 330.597C528.645 331.42 528.645 332.753 529.465 333.576L538.373 342.513C539.193 343.335 540.522 343.335 541.342 342.513L564.648 319.131C564.87 318.908 565.13 318.723 565.352 318.499L574.26 309.562C574.986 308.834 575.069 307.705 574.509 306.885C574.43 306.762 574.337 306.646 574.23 306.539L565.322 297.602C565.272 297.551 565.219 297.503 565.164 297.458L541.372 273.588C540.552 272.766 539.223 272.766 538.403 273.588L529.495 282.525C528.675 283.348 528.675 284.681 529.495 285.504L541.328 297.376L335.66 297.376ZM551.942 308.025C551.948 308.031 551.948 308.04 551.942 308.046C551.933 308.056 551.916 308.049 551.916 308.035C551.916 308.022 551.933 308.015 551.942 308.025Z" fill="#60A394"/>
<rect x="604.875" y="16" width="286.67" height="105" rx="5" fill="#FB6233"/>
<path d="M671.152 82V56.0953H681.81C684.104 56.0953 686.066 56.4654 687.694 57.2055C689.347 57.9456 690.618 59.0065 691.506 60.3881C692.394 61.7697 692.838 63.4103 692.838 65.31C692.838 67.2096 692.394 68.8503 691.506 70.2319C690.618 71.5888 689.347 72.6373 687.694 73.3774C686.066 74.0929 684.104 74.4506 681.81 74.4506H673.816L675.963 72.2672V82H671.152ZM688.101 82L681.551 72.6003H686.695L693.282 82H688.101ZM675.963 72.7853L673.816 70.4909H681.588C683.71 70.4909 685.301 70.0345 686.362 69.1217C687.447 68.2088 687.99 66.9383 687.99 65.31C687.99 63.657 687.447 62.3864 686.362 61.4983C685.301 60.6101 683.71 60.166 681.588 60.166H673.816L675.963 57.7976V72.7853ZM710.359 82.3701C708.336 82.3701 706.473 82.037 704.771 81.3709C703.068 80.7048 701.588 79.7796 700.33 78.5954C699.072 77.3865 698.097 75.9802 697.406 74.3766C696.715 72.7483 696.37 70.972 696.37 69.0476C696.37 67.1233 696.715 65.3593 697.406 63.7557C698.097 62.1274 699.072 60.7211 700.33 59.5369C701.588 58.328 703.068 57.3905 704.771 56.7244C706.473 56.0583 708.323 55.7252 710.322 55.7252C712.345 55.7252 714.195 56.0583 715.873 56.7244C717.575 57.3905 719.055 58.328 720.313 59.5369C721.572 60.7211 722.546 62.1274 723.237 63.7557C723.928 65.3593 724.273 67.1233 724.273 69.0476C724.273 70.972 723.928 72.7483 723.237 74.3766C722.546 76.0049 721.572 77.4112 720.313 78.5954C719.055 79.7796 717.575 80.7048 715.873 81.3709C714.195 82.037 712.357 82.3701 710.359 82.3701ZM710.322 78.1513C711.629 78.1513 712.838 77.9293 713.948 77.4852C715.058 77.0411 716.021 76.412 716.835 75.5978C717.649 74.759 718.278 73.7968 718.722 72.7113C719.191 71.6011 719.425 70.3799 719.425 69.0476C719.425 67.7154 719.191 66.5065 718.722 65.421C718.278 64.3108 717.649 63.3486 716.835 62.5345C716.021 61.6956 715.058 61.0542 713.948 60.6101C712.838 60.166 711.629 59.944 710.322 59.944C709.014 59.944 707.805 60.166 706.695 60.6101C705.609 61.0542 704.647 61.6956 703.808 62.5345C702.994 63.3486 702.353 64.3108 701.884 65.421C701.44 66.5065 701.218 67.7154 701.218 69.0476C701.218 70.3552 701.44 71.5641 701.884 72.6743C702.353 73.7845 702.994 74.759 703.808 75.5978C704.623 76.412 705.585 77.0411 706.695 77.4852C707.805 77.9293 709.014 78.1513 710.322 78.1513ZM740.512 82.3701C736.959 82.3701 734.171 81.3709 732.148 79.3725C730.15 77.3742 729.15 74.4876 729.15 70.7129V56.0953H733.961V70.5279C733.961 73.1924 734.529 75.1291 735.664 76.338C736.823 77.5469 738.452 78.1513 740.549 78.1513C742.646 78.1513 744.262 77.5469 745.396 76.338C746.531 75.1291 747.099 73.1924 747.099 70.5279V56.0953H751.836V70.7129C751.836 74.4876 750.824 77.3742 748.801 79.3725C746.803 81.3709 744.04 82.3701 740.512 82.3701ZM763.358 82V60.166H754.773V56.0953H776.755V60.166H768.169V82H763.358ZM784.806 66.8642H797.684V70.824H784.806V66.8642ZM785.176 77.9663H799.794V82H780.365V56.0953H799.276V60.129H785.176V77.9663ZM805.157 82V56.0953H815.815C818.109 56.0953 820.071 56.4654 821.699 57.2055C823.352 57.9456 824.622 59.0065 825.511 60.3881C826.399 61.7697 826.843 63.4103 826.843 65.31C826.843 67.2096 826.399 68.8503 825.511 70.2319C824.622 71.5888 823.352 72.6373 821.699 73.3774C820.071 74.0929 818.109 74.4506 815.815 74.4506H807.821L809.968 72.2672V82H805.157ZM822.106 82L815.556 72.6003H820.7L827.287 82H822.106ZM809.968 72.7853L807.821 70.4909H815.593C817.714 70.4909 819.306 70.0345 820.367 69.1217C821.452 68.2088 821.995 66.9383 821.995 65.31C821.995 63.657 821.452 62.3864 820.367 61.4983C819.306 60.6101 817.714 60.166 815.593 60.166H807.821L809.968 57.7976V72.7853Z" fill="#F8F8F8"/>
<path d="M735.305 163.557C717.494 165.182 698.675 170.727 682.376 179.184C668.653 186.297 658.571 193.691 647.033 205.229C635.495 216.767 628.102 226.849 620.988 240.571C587.326 305.431 607.882 384.909 668.877 425.685C712.061 454.53 767.791 457.611 813.999 433.582C827.722 426.469 837.804 419.076 849.342 407.537C860.88 395.999 868.273 385.918 875.387 372.195C901.319 322.234 895.718 263.087 860.88 217.887C856.175 211.782 842.789 198.396 836.684 193.691C807.222 170.951 771.432 160.365 735.305 163.557ZM769.191 178.064C796.412 182.713 820.721 195.203 840.044 214.527C859.424 233.906 871.746 257.934 876.563 285.659C878.355 295.797 878.355 316.969 876.563 327.107C866.761 383.621 823.689 426.133 767.231 435.038C758.213 436.439 738.162 436.439 729.144 435.038C678.063 426.973 636.447 390.23 622.949 341.221C619.364 328.171 618.58 321.842 618.58 306.383C618.58 290.924 619.364 284.595 622.949 271.545C637.119 219.96 682.712 181.929 736.425 176.776C742.923 176.16 762.638 176.944 769.191 178.064Z" fill="#FFD633"/>
<path d="M734.297 185.897C733.793 186.401 733.625 193.234 733.625 214.182V241.795H724.719C715.309 241.795 714.021 241.963 714.021 243.308C714.021 244.036 743.538 280.274 746.899 283.635C749.251 286.043 750.484 285.427 755.637 279.154C763.366 269.744 783.474 243.251 783.474 242.467C783.474 241.123 780.617 240.675 772.216 240.675H763.87L763.758 213.062L763.59 185.505L749.307 185.337C738.609 185.225 734.801 185.393 734.297 185.897Z" fill="#FFD633"/>
<path d="M800.557 275.793C774.904 295.285 768.911 300.214 768.911 301.894C768.911 302.398 769.471 303.406 770.199 304.19C772.776 307.103 810.135 337.572 810.919 337.46C811.647 337.292 811.759 335.668 811.927 327.603L812.039 317.969H839.708C864.744 317.969 867.433 317.857 868.105 317.017C868.721 316.289 868.889 313.208 868.889 302.566C868.889 291.924 868.721 288.844 868.105 288.115C867.433 287.275 864.8 287.163 840.268 287.163H813.159V278.538C813.159 269.24 812.991 268.12 811.535 268.12C811.031 268.12 806.046 271.536 800.557 275.793Z" fill="#FFD633"/>
<path d="M684.168 269.632C683.944 269.801 683.776 273.833 683.776 278.594V287.164H656.723C636.447 287.164 629.502 287.332 628.998 287.836C628.494 288.34 628.326 292.373 628.326 302.678C628.326 316.065 628.382 316.849 629.39 317.409C630.118 317.745 640.032 317.969 657.675 317.969H684.896V327.155C684.896 334.604 685.064 336.453 685.736 337.013C686.296 337.461 686.8 337.517 687.304 337.181C690.273 334.94 724.271 306.767 725.951 305.199C729.648 301.67 729.2 300.998 715.701 290.468C695.818 274.897 687.976 269.24 686.24 269.24C685.288 269.24 684.336 269.408 684.168 269.632Z" fill="#FFD633"/>
<path d="M738.217 336.564C733.064 342.837 725.503 351.967 721.47 356.896C717.382 361.825 714.021 366.306 714.021 366.81C714.021 367.762 714.805 367.818 723.823 367.818H733.625V395.823C733.625 422.876 733.681 423.828 734.689 424.388C736.425 425.284 762.47 425.116 763.254 424.22C763.646 423.66 763.926 415.203 763.982 396.327L764.15 369.218L773.056 369.05C781.961 368.882 783.866 368.49 783.25 366.866C782.689 365.522 758.717 334.268 753.9 328.723C749.139 323.234 749.419 323.066 738.217 336.564Z" fill="#FFD633"/>
<path fill-rule="evenodd" clip-rule="evenodd" d="M923.644 297.376C922.484 297.376 921.544 298.319 921.544 299.482L921.544 316.334C921.544 317.497 922.484 318.44 923.644 318.44L1129.57 318.44L1117.45 330.597C1116.63 331.42 1116.63 332.753 1117.45 333.576L1126.36 342.513C1127.18 343.335 1128.51 343.335 1129.33 342.513L1152.63 319.131C1152.85 318.908 1153.11 318.723 1153.34 318.499L1162.24 309.562C1162.97 308.834 1163.05 307.705 1162.49 306.885C1162.41 306.762 1162.32 306.646 1162.21 306.539L1153.31 297.602C1153.26 297.551 1153.2 297.503 1153.15 297.458L1129.36 273.588C1128.54 272.766 1127.21 272.766 1126.39 273.588L1117.48 282.525C1116.66 283.348 1116.66 284.681 1117.48 285.504L1129.31 297.376L923.644 297.376ZM1139.93 308.025C1139.93 308.031 1139.93 308.04 1139.93 308.046C1139.92 308.056 1139.9 308.049 1139.9 308.035C1139.9 308.022 1139.92 308.015 1139.93 308.025Z" fill="#60A394"/>
<rect x="1192.86" y="16" width="205.762" height="105" rx="5" fill="#FB6233"/>
<path d="M1268.25 82V56.0953H1273.06V82H1268.25ZM1288.1 82.3701C1286.07 82.3701 1284.14 82.0863 1282.29 81.5189C1280.44 80.9268 1278.97 80.1743 1277.88 79.2615L1279.55 75.5238C1280.58 76.338 1281.87 77.0164 1283.4 77.5592C1284.93 78.102 1286.49 78.3733 1288.1 78.3733C1289.45 78.3733 1290.55 78.2253 1291.39 77.9293C1292.23 77.6332 1292.84 77.2385 1293.24 76.745C1293.63 76.2269 1293.83 75.6472 1293.83 75.0057C1293.83 74.2162 1293.55 73.5871 1292.98 73.1184C1292.41 72.625 1291.67 72.2426 1290.76 71.9712C1289.87 71.6751 1288.87 71.4037 1287.76 71.157C1286.68 70.9103 1285.58 70.6266 1284.47 70.3059C1283.38 69.9605 1282.38 69.5287 1281.47 69.0106C1280.58 68.4679 1279.86 67.7524 1279.29 66.8642C1278.72 65.9761 1278.44 64.8412 1278.44 63.4596C1278.44 62.0534 1278.81 60.7705 1279.55 59.6109C1280.31 58.4267 1281.46 57.4892 1282.99 56.7984C1284.54 56.0829 1286.5 55.7252 1288.87 55.7252C1290.43 55.7252 1291.97 55.9226 1293.5 56.3173C1295.03 56.7121 1296.36 57.2795 1297.5 58.0196L1295.98 61.7573C1294.82 61.0665 1293.62 60.5608 1292.39 60.24C1291.15 59.8946 1289.97 59.7219 1288.84 59.7219C1287.5 59.7219 1286.42 59.8823 1285.58 60.203C1284.76 60.5238 1284.16 60.9432 1283.77 61.4613C1283.4 61.9794 1283.21 62.5715 1283.21 63.2376C1283.21 64.0271 1283.48 64.6685 1284.02 65.1619C1284.59 65.6307 1285.32 66.0008 1286.21 66.2721C1287.12 66.5435 1288.13 66.8149 1289.24 67.0863C1290.35 67.333 1291.45 67.6167 1292.54 67.9374C1293.65 68.2582 1294.65 68.6776 1295.53 69.1957C1296.45 69.7138 1297.17 70.4169 1297.72 71.3051C1298.28 72.1932 1298.57 73.3158 1298.57 74.6727C1298.57 76.0543 1298.19 77.3372 1297.42 78.5214C1296.68 79.6809 1295.53 80.6184 1293.98 81.3339C1292.43 82.0247 1290.46 82.3701 1288.1 82.3701ZM1303.34 82V56.0953H1314C1316.29 56.0953 1318.25 56.4654 1319.88 57.2055C1321.53 57.9456 1322.8 59.0065 1323.69 60.3881C1324.58 61.7697 1325.02 63.4103 1325.02 65.31C1325.02 67.2096 1324.58 68.8503 1323.69 70.2319C1322.8 71.6134 1321.53 72.6743 1319.88 73.4144C1318.25 74.1546 1316.29 74.5246 1314 74.5246H1306L1308.15 72.2672V82H1303.34ZM1308.15 72.7853L1306 70.4539H1313.77C1315.9 70.4539 1317.49 70.0098 1318.55 69.1217C1319.63 68.2088 1320.18 66.9383 1320.18 65.31C1320.18 63.657 1319.63 62.3864 1318.55 61.4983C1317.49 60.6101 1315.9 60.166 1313.77 60.166H1306L1308.15 57.7976V72.7853Z" fill="#F8F8F8"/>
<path d="M1286.05 168.644C1274.51 170.828 1264.37 176.149 1256.2 184.327C1234.35 206.171 1234.35 241.457 1256.25 263.301C1260.68 267.782 1264.99 270.862 1270.98 273.887C1273.17 275.007 1275.02 276.015 1275.02 276.183C1275.02 276.351 1263.81 313.374 1250.09 358.462C1236.37 403.55 1225.17 440.965 1225.17 441.637C1225.17 442.309 1225.78 443.486 1226.57 444.214C1227.85 445.558 1228.14 445.614 1236.26 445.614C1243.43 445.614 1244.83 445.446 1245.83 444.606C1246.73 443.878 1248.41 439.229 1252.33 426.347C1255.24 416.825 1257.93 408.703 1258.32 408.311C1259.84 406.855 1295.18 382.323 1295.74 382.323C1296.3 382.323 1331.53 406.855 1333.15 408.311C1333.55 408.703 1336.23 416.825 1339.15 426.347C1343.07 439.229 1344.75 443.878 1345.64 444.606C1346.65 445.446 1348.05 445.614 1355.22 445.614C1363.34 445.614 1363.62 445.558 1364.91 444.214C1365.7 443.486 1366.31 442.309 1366.31 441.637C1366.31 441.021 1355.11 403.55 1341.39 358.462C1327.67 313.374 1316.46 276.351 1316.46 276.239C1316.46 276.071 1318.37 275.063 1320.72 273.887C1348.16 260.108 1359.53 226.334 1345.81 199.001C1338.42 184.159 1324.92 173.405 1308.9 169.428C1302.91 167.916 1291.87 167.524 1286.05 168.644ZM1291.15 192.784C1290.92 192.952 1282.3 191.944 1281.29 191.608C1280.22 191.216 1282.02 188.864 1287 183.879L1290.98 179.902L1291.15 186.231C1291.2 189.76 1291.2 192.672 1291.15 192.784ZM1307.78 187.351C1309.46 189.368 1310.86 191.16 1310.86 191.384C1310.86 191.608 1309.18 191.944 1307.11 192.112C1304.98 192.336 1302.63 192.616 1301.79 192.784L1300.22 193.12V186.567V180.07L1302.46 181.862C1303.69 182.871 1306.05 185.335 1307.78 187.351ZM1274.51 184.383C1273 186.399 1271.65 188.303 1271.54 188.64C1271.43 188.976 1270.42 188.808 1268.97 188.247C1266.95 187.407 1266.67 187.127 1267.29 186.455C1268.01 185.559 1276.08 180.686 1276.86 180.686C1277.09 180.686 1276.02 182.366 1274.51 184.383ZM1318.31 182.646C1320.22 183.711 1322.51 185.167 1323.41 185.895L1325.03 187.239L1322.62 188.191C1320.61 188.976 1320.1 189.032 1319.77 188.359C1319.49 187.967 1318.2 186.063 1316.8 184.159C1315.4 182.254 1314.39 180.686 1314.56 180.686C1314.73 180.686 1316.41 181.582 1318.31 182.646ZM1263.48 195.585C1265.21 196.369 1266.61 197.097 1266.61 197.209C1266.61 197.321 1265.72 200.01 1264.65 203.202C1263.59 206.395 1262.41 211.324 1262.02 214.18L1261.35 219.333H1255.08H1248.86L1249.36 216.141C1250.09 211.66 1252.33 205.107 1254.63 201.018C1256.64 197.377 1259.11 194.129 1259.89 194.129C1260.12 194.129 1261.74 194.801 1263.48 195.585ZM1333.49 195.865C1337.13 200.178 1341.05 209.419 1342.12 216.141L1342.62 219.333H1336.35H1330.13L1329.4 214.124C1329.07 211.324 1327.83 206.339 1326.77 203.146C1325.7 199.954 1324.98 197.209 1325.14 196.985C1325.54 196.649 1331.14 194.185 1331.7 194.129C1331.87 194.129 1332.71 194.913 1333.49 195.865ZM1282.02 200.794C1284.2 201.13 1287.11 201.522 1288.63 201.69L1291.26 202.026V210.708V219.333H1280.84H1270.42L1270.81 216.141C1271.32 212.052 1273 205.667 1274.46 202.25C1275.41 200.01 1275.74 199.674 1276.86 199.898C1277.54 200.122 1279.89 200.514 1282.02 200.794ZM1317.08 202.306C1318.48 205.667 1320.16 212.108 1320.66 216.141L1321.06 219.333H1310.64H1300.22V210.708V202.026L1302.91 201.69C1304.36 201.522 1307.56 201.074 1310.02 200.626C1312.49 200.234 1314.84 199.842 1315.23 199.786C1315.62 199.786 1316.46 200.906 1317.08 202.306ZM1262.08 233.448C1262.41 236.304 1263.65 241.289 1264.71 244.482C1265.77 247.73 1266.45 250.475 1266.22 250.699C1266 250.867 1264.43 251.651 1262.81 252.379L1259.89 253.667L1258.6 252.491C1255.19 249.299 1250.48 238.489 1249.36 231.487L1248.86 228.295H1255.13H1261.35L1262.08 233.448ZM1291.26 236.92V245.602L1288.63 245.938C1284.15 246.442 1278.15 247.394 1276.86 247.73C1275.74 247.954 1275.41 247.618 1274.46 245.378C1273 241.961 1271.32 235.576 1270.81 231.487L1270.42 228.295H1280.84H1291.26V236.92ZM1320.66 231.487C1320.16 235.576 1318.48 241.961 1317.02 245.378C1316.07 247.618 1315.73 247.954 1314.61 247.73C1313.33 247.394 1307.33 246.442 1302.91 245.938L1300.22 245.602V236.92V228.295H1310.64H1321.06L1320.66 231.487ZM1342.12 231.487C1341.05 238.321 1336.07 249.635 1332.82 252.547C1331.75 253.555 1331.59 253.555 1328.67 252.323C1327.05 251.651 1325.48 250.923 1325.26 250.699C1325.03 250.475 1325.7 247.73 1326.77 244.482C1327.83 241.289 1329.07 236.304 1329.4 233.448L1330.13 228.295H1336.35H1342.62L1342.12 231.487ZM1291.26 261.061V267.558L1289.02 265.766C1286.11 263.413 1280.5 256.748 1281.06 256.244C1281.4 255.908 1285.77 255.18 1290.59 254.675C1291.09 254.619 1291.26 256.244 1291.26 261.061ZM1306.83 255.46C1308.73 255.684 1310.41 256.02 1310.58 256.244C1310.92 256.86 1305.15 263.581 1302.46 265.766L1300.22 267.558V261.061V254.507L1301.79 254.844C1302.63 255.012 1304.87 255.292 1306.83 255.46ZM1274.29 262.797C1275.91 265.093 1277.03 266.942 1276.86 266.942C1276.36 266.942 1271.88 264.309 1268.85 262.237L1266.39 260.557L1268.57 259.548C1269.81 259.044 1270.93 258.596 1271.09 258.596C1271.26 258.596 1272.66 260.501 1274.29 262.797ZM1323.69 259.94L1325.03 260.613L1322.57 262.293C1319.1 264.645 1314.78 267.11 1314.5 266.886C1314.39 266.774 1315.57 265.037 1317.08 263.021C1318.59 261.005 1319.82 259.156 1319.82 258.932C1319.82 258.428 1321.67 258.876 1323.69 259.94ZM1286.72 279.208C1287.39 279.656 1283.25 293.771 1263.7 358.07L1239.95 436.372L1237.77 436.54C1236.2 436.708 1235.75 436.54 1235.92 435.98C1236.03 435.588 1246.84 400.022 1259.95 356.95C1281.23 286.881 1283.81 278.704 1284.82 278.704C1285.43 278.704 1286.27 278.928 1286.72 279.208ZM1331.53 356.95C1344.64 400.022 1355.45 435.588 1355.56 435.98C1355.73 436.54 1355.28 436.708 1353.71 436.54L1351.53 436.372L1327.78 358.07C1302.63 275.455 1303.52 278.76 1306.66 278.704C1307.67 278.704 1310.25 286.825 1331.53 356.95ZM1298.76 293.434C1300.28 298.419 1301.62 302.9 1301.73 303.348C1301.96 304.244 1296.64 312.03 1295.8 312.03C1295.52 312.03 1293.95 310.294 1292.38 308.165L1289.47 304.356L1292.43 294.331C1294.11 288.842 1295.57 284.305 1295.74 284.305C1295.91 284.305 1297.25 288.394 1298.76 293.434ZM1288.79 322.056C1288.12 323.008 1286.22 325.64 1284.59 327.881C1282.91 330.121 1281.51 331.857 1281.4 331.745C1281.23 331.577 1284.99 318.359 1285.94 315.727C1286.16 315.222 1286.89 315.895 1288.18 317.687L1290.08 320.375L1288.79 322.056ZM1306.27 318.191C1306.66 319.423 1307.78 323.288 1308.85 326.817C1309.91 330.345 1310.58 332.978 1310.36 332.698C1309.74 332.025 1302.24 321.72 1301.73 320.879C1301.23 320.095 1304.76 314.942 1305.32 315.559C1305.49 315.783 1305.93 316.959 1306.27 318.191ZM1306.49 342.555C1311.53 349.501 1315.85 355.438 1316.07 355.774C1316.41 356.39 1296.86 370.56 1295.68 370.56C1294.9 370.56 1274.96 356.446 1275.13 355.998C1275.24 355.83 1279.83 349.445 1285.38 341.883C1294.73 329.113 1295.52 328.161 1296.36 329.001C1296.86 329.505 1301.4 335.61 1306.49 342.555ZM1279.5 370.504C1283.87 373.585 1287.34 376.273 1287.23 376.554C1287.06 377.114 1262.69 394.253 1262.41 393.973C1262.3 393.861 1264.09 387.644 1266.39 380.082C1271.09 364.623 1270.98 364.959 1271.32 364.959C1271.49 364.959 1275.18 367.48 1279.5 370.504ZM1324.92 379.578C1327.33 387.419 1329.29 393.973 1329.35 394.197C1329.35 394.589 1304.14 377.058 1303.97 376.498C1303.8 376.049 1319.49 365.015 1320.05 365.183C1320.33 365.239 1322.57 371.737 1324.92 379.578Z" fill="#FFD633"/>
<path d="M1214.19 177.032C1213.57 177.312 1211.39 179.385 1209.32 181.569C1194.81 197.252 1189.49 218.144 1194.98 238.139C1197.44 247.213 1204.16 258.471 1211.11 265.248C1213.4 267.545 1214.3 268.049 1215.87 268.049C1219.34 268.049 1221.47 264.8 1219.9 261.776C1219.45 260.936 1217.94 259.143 1216.49 257.743C1210.77 252.254 1205.51 243.012 1203.27 234.499C1201.59 228.17 1201.59 216.744 1203.27 210.414C1205.51 201.901 1210.77 192.659 1216.49 187.17C1219.68 184.09 1220.8 182.017 1220.35 180.225C1219.73 177.648 1216.6 176.024 1214.19 177.032Z" fill="#FFD633"/>
<path d="M1373.59 177.256C1371.86 178.153 1370.62 180.617 1371.13 182.241C1371.3 182.913 1373.2 185.266 1375.22 187.394C1379.87 192.323 1381.99 195.404 1384.79 201.285C1388.32 208.678 1389.39 213.607 1389.39 222.457C1389.39 228.394 1389.16 230.97 1388.21 234.499C1385.97 243.012 1380.71 252.254 1374.99 257.743C1373.54 259.143 1372.02 260.936 1371.58 261.776C1370.01 264.8 1372.14 268.049 1375.61 268.049C1377.18 268.049 1378.07 267.545 1380.37 265.304C1387.32 258.471 1394.04 247.213 1396.5 238.139C1400.31 224.193 1398.97 210.078 1392.64 196.916C1388.44 188.234 1379.87 177.648 1376.39 176.864C1375.61 176.64 1374.38 176.864 1373.59 177.256Z" fill="#FFD633"/>
<path d="M1229.65 191.259C1227.41 192.379 1223.04 198.26 1220.35 203.693C1216.93 210.695 1215.98 214.671 1215.98 222.457C1215.98 226.714 1216.32 230.13 1216.93 232.539C1219.06 240.604 1226.4 252.422 1230.1 253.71C1232 254.383 1234.86 253.374 1235.47 251.862C1236.31 249.566 1235.75 247.717 1233.23 244.749C1229.87 240.772 1228.3 238.028 1226.51 232.763C1225.22 229.01 1224.94 227.386 1224.94 222.457C1224.94 213.719 1227.46 206.886 1233.23 200.165C1235.75 197.252 1236.03 196.524 1235.81 194.172C1235.58 191.595 1232.11 189.971 1229.65 191.259Z" fill="#FFD633"/>
<path d="M1357.91 191.259C1357.13 191.651 1356.17 192.603 1355.78 193.444C1354.89 195.348 1355.56 197.196 1358.47 200.445C1369.34 212.767 1369.34 231.754 1358.41 244.525C1355.73 247.717 1355.11 249.51 1356.01 251.862C1356.62 253.374 1359.48 254.383 1361.38 253.71C1363.51 252.982 1367.99 247.381 1370.79 242.004C1374.21 235.395 1375.5 230.074 1375.5 222.457C1375.5 212.767 1373.03 205.206 1367.15 196.972C1363.06 191.259 1360.71 189.803 1357.91 191.259Z" fill="#FFD633"/>
<path fill-rule="evenodd" clip-rule="evenodd" d="M1430.72 297.376C1429.56 297.376 1428.62 298.319 1428.62 299.482L1428.62 316.334C1428.62 317.497 1429.56 318.44 1430.72 318.44L1636.64 318.44L1624.53 330.597C1623.71 331.42 1623.71 332.753 1624.53 333.576L1633.43 342.513C1634.25 343.335 1635.58 343.335 1636.4 342.513L1659.71 319.131C1659.93 318.908 1660.19 318.723 1660.41 318.499L1669.32 309.562C1670.05 308.834 1670.13 307.705 1669.57 306.885C1669.49 306.762 1669.4 306.646 1669.29 306.539L1660.38 297.602C1660.33 297.551 1660.28 297.503 1660.23 297.458L1636.43 273.588C1635.61 272.766 1634.28 272.766 1633.46 273.588L1624.56 282.525C1623.74 283.348 1623.74 284.681 1624.56 285.504L1636.39 297.376L1430.72 297.376ZM1647 308.025C1647.01 308.031 1647.01 308.04 1647 308.046C1646.99 308.056 1646.98 308.049 1646.98 308.035C1646.98 308.022 1646.99 308.015 1647 308.025Z" fill="#60A394"/>
<rect x="1699.94" y="16" width="284" height="105" rx="5" fill="#FB6233"/>
<path d="M1733.71 82V56.0953H1745.85C1748.95 56.0953 1751.32 56.7121 1752.95 57.9456C1754.58 59.1545 1755.39 60.7828 1755.39 62.8305C1755.39 64.2121 1755.07 65.3963 1754.43 66.3832C1753.79 67.3453 1752.93 68.0978 1751.84 68.6406C1750.78 69.1587 1749.62 69.4177 1748.36 69.4177L1749.03 68.0855C1750.48 68.0855 1751.79 68.3569 1752.95 68.8996C1754.11 69.4177 1755.02 70.1825 1755.69 71.194C1756.38 72.2056 1756.73 73.4638 1756.73 74.9687C1756.73 77.1891 1755.87 78.9161 1754.17 80.1497C1752.47 81.3832 1749.94 82 1746.59 82H1733.71ZM1738.52 78.2253H1746.29C1748.09 78.2253 1749.47 77.9293 1750.43 77.3372C1751.4 76.745 1751.88 75.7952 1751.88 74.4876C1751.88 73.2047 1751.4 72.2672 1750.43 71.6751C1749.47 71.0583 1748.09 70.75 1746.29 70.75H1738.15V67.0123H1745.33C1747.01 67.0123 1748.29 66.7162 1749.18 66.1241C1750.09 65.532 1750.55 64.6438 1750.55 63.4596C1750.55 62.2507 1750.09 61.3502 1749.18 60.7581C1748.29 60.166 1747.01 59.87 1745.33 59.87H1738.52V78.2253ZM1758.2 82L1769.85 56.0953H1774.59L1786.28 82H1781.25L1771.22 58.6487H1773.15L1763.16 82H1758.2ZM1763.56 76.0049L1764.86 72.2302H1778.85L1780.14 76.0049H1763.56ZM1801.21 82.3701C1799.23 82.3701 1797.4 82.0493 1795.69 81.4079C1794.02 80.7418 1792.55 79.8166 1791.29 78.6324C1790.06 77.4235 1789.09 76.0049 1788.4 74.3766C1787.71 72.7483 1787.37 70.972 1787.37 69.0476C1787.37 67.1233 1787.71 65.347 1788.4 63.7187C1789.09 62.0904 1790.07 60.6841 1791.33 59.4999C1792.59 58.291 1794.05 57.3659 1795.73 56.7244C1797.41 56.0583 1799.25 55.7252 1801.25 55.7252C1803.37 55.7252 1805.3 56.0953 1807.06 56.8354C1808.81 57.5509 1810.29 58.6241 1811.5 60.055L1808.39 62.9785C1807.45 61.967 1806.4 61.2146 1805.24 60.7211C1804.08 60.203 1802.82 59.944 1801.47 59.944C1800.11 59.944 1798.86 60.166 1797.73 60.6101C1796.62 61.0542 1795.64 61.6833 1794.81 62.4975C1793.99 63.3116 1793.35 64.2738 1792.88 65.384C1792.44 66.4942 1792.22 67.7154 1792.22 69.0476C1792.22 70.3799 1792.44 71.6011 1792.88 72.7113C1793.35 73.8215 1793.99 74.7837 1794.81 75.5978C1795.64 76.412 1796.62 77.0411 1797.73 77.4852C1798.86 77.9293 1800.11 78.1513 1801.47 78.1513C1802.82 78.1513 1804.08 77.9046 1805.24 77.4112C1806.4 76.8931 1807.45 76.1159 1808.39 75.0797L1811.5 78.0403C1810.29 79.4465 1808.81 80.5197 1807.06 81.2599C1805.3 82 1803.35 82.3701 1801.21 82.3701ZM1820.4 75.8939L1820.14 70.1949L1833.72 56.0953H1839.12L1827.84 68.0855L1825.17 71.009L1820.4 75.8939ZM1816.11 82V56.0953H1820.92V82H1816.11ZM1834.16 82L1824.25 70.1949L1827.43 66.6792L1839.79 82H1834.16ZM1843.07 82V56.0953H1855.2C1858.31 56.0953 1860.68 56.7121 1862.31 57.9456C1863.94 59.1545 1864.75 60.7828 1864.75 62.8305C1864.75 64.2121 1864.43 65.3963 1863.79 66.3832C1863.15 67.3453 1862.28 68.0978 1861.2 68.6406C1860.14 69.1587 1858.98 69.4177 1857.72 69.4177L1858.39 68.0855C1859.84 68.0855 1861.15 68.3569 1862.31 68.8996C1863.47 69.4177 1864.38 70.1825 1865.05 71.194C1865.74 72.2056 1866.08 73.4638 1866.08 74.9687C1866.08 77.1891 1865.23 78.9161 1863.53 80.1497C1861.83 81.3832 1859.3 82 1855.94 82H1843.07ZM1847.88 78.2253H1855.65C1857.45 78.2253 1858.83 77.9293 1859.79 77.3372C1860.75 76.745 1861.24 75.7952 1861.24 74.4876C1861.24 73.2047 1860.75 72.2672 1859.79 71.6751C1858.83 71.0583 1857.45 70.75 1855.65 70.75H1847.51V67.0123H1854.69C1856.36 67.0123 1857.65 66.7162 1858.53 66.1241C1859.45 65.532 1859.9 64.6438 1859.9 63.4596C1859.9 62.2507 1859.45 61.3502 1858.53 60.7581C1857.65 60.166 1856.36 59.87 1854.69 59.87H1847.88V78.2253ZM1883.36 82.3701C1881.33 82.3701 1879.47 82.037 1877.77 81.3709C1876.07 80.7048 1874.59 79.7796 1873.33 78.5954C1872.07 77.3865 1871.09 75.9802 1870.4 74.3766C1869.71 72.7483 1869.37 70.972 1869.37 69.0476C1869.37 67.1233 1869.71 65.3593 1870.4 63.7557C1871.09 62.1274 1872.07 60.7211 1873.33 59.5369C1874.59 58.328 1876.07 57.3905 1877.77 56.7244C1879.47 56.0583 1881.32 55.7252 1883.32 55.7252C1885.34 55.7252 1887.19 56.0583 1888.87 56.7244C1890.57 57.3905 1892.05 58.328 1893.31 59.5369C1894.57 60.7211 1895.54 62.1274 1896.23 63.7557C1896.93 65.3593 1897.27 67.1233 1897.27 69.0476C1897.27 70.972 1896.93 72.7483 1896.23 74.3766C1895.54 76.0049 1894.57 77.4112 1893.31 78.5954C1892.05 79.7796 1890.57 80.7048 1888.87 81.3709C1887.19 82.037 1885.35 82.3701 1883.36 82.3701ZM1883.32 78.1513C1884.63 78.1513 1885.84 77.9293 1886.95 77.4852C1888.06 77.0411 1889.02 76.412 1889.83 75.5978C1890.65 74.759 1891.28 73.7968 1891.72 72.7113C1892.19 71.6011 1892.42 70.3799 1892.42 69.0476C1892.42 67.7154 1892.19 66.5065 1891.72 65.421C1891.28 64.3108 1890.65 63.3486 1889.83 62.5345C1889.02 61.6956 1888.06 61.0542 1886.95 60.6101C1885.84 60.166 1884.63 59.944 1883.32 59.944C1882.01 59.944 1880.8 60.166 1879.69 60.6101C1878.61 61.0542 1877.65 61.6956 1876.81 62.5345C1875.99 63.3486 1875.35 64.3108 1874.88 65.421C1874.44 66.5065 1874.22 67.7154 1874.22 69.0476C1874.22 70.3552 1874.44 71.5641 1874.88 72.6743C1875.35 73.7845 1875.99 74.759 1876.81 75.5978C1877.62 76.412 1878.58 77.0411 1879.69 77.4852C1880.8 77.9293 1882.01 78.1513 1883.32 78.1513ZM1902.37 82V56.0953H1906.33L1922.58 76.0419H1920.61V56.0953H1925.39V82H1921.43L1905.18 62.0534H1907.14V82H1902.37ZM1936.77 66.8642H1949.65V70.824H1936.77V66.8642ZM1937.14 77.9663H1951.76V82H1932.33V56.0953H1951.24V60.129H1937.14V77.9663Z" fill="#F8F8F8"/>
<path d="M1774.99 163.347C1770.68 164.691 1766.48 168.612 1765.47 172.309C1765.14 173.541 1764.91 186.647 1764.91 205.523V236.72L1737.63 236.888C1706.94 237.056 1708.12 236.888 1703.8 241.369C1699.66 245.682 1699.94 237.336 1699.94 349.189V449.615H1843.33H1986.71V349.189C1986.71 237.336 1986.99 245.682 1982.85 241.369C1978.53 236.888 1979.71 237.056 1949.07 236.888L1921.74 236.72V205.523C1921.74 186.647 1921.52 173.541 1921.18 172.309C1920.45 169.676 1917.15 165.923 1914.23 164.355L1911.94 163.123L1844.17 163.011C1806.92 162.955 1775.78 163.123 1774.99 163.347ZM1910.26 172.701C1912.89 173.709 1912.78 167.156 1912.78 308.189V440.093H1843.33H1773.87V308.189C1773.87 192.808 1773.99 176.005 1774.71 174.605C1775.16 173.765 1775.83 172.925 1776.23 172.757C1777.29 172.309 1909.14 172.309 1910.26 172.701ZM1764.91 269.262V292.226H1737.19H1709.46V270.55C1709.46 249.098 1709.46 248.874 1710.69 247.586L1711.87 246.298H1738.42H1764.91V269.262ZM1975.9 247.53L1977.19 248.706V270.494V292.226H1949.47H1921.74V269.262V246.298H1948.18C1974.56 246.298 1974.61 246.298 1975.9 247.53ZM1764.91 324.712V347.676H1737.19H1709.46V324.712V301.748H1737.19H1764.91V324.712ZM1977.19 324.712V347.676H1949.47H1921.74V324.712V301.748H1949.47H1977.19V324.712ZM1764.91 380.162V403.126H1737.19H1709.46V380.162V357.198H1737.19H1764.91V380.162ZM1977.19 380.162V403.126H1949.47H1921.74V380.162V357.198H1949.47H1977.19V380.162ZM1764.91 426.371V440.093H1737.19H1709.46V426.371V412.648H1737.19H1764.91V426.371ZM1977.19 426.371V440.093H1949.47H1921.74V426.371V412.648H1949.47H1977.19V426.371Z" fill="#FFD633"/>
<path d="M1783.4 304.873V429.775H1787.88H1792.36V420.533V411.292H1843.33H1894.3V420.533V429.775H1898.78H1903.26V304.873V179.97H1843.33H1783.4V304.873ZM1894.3 212.456V235.42H1843.33H1792.36V212.456V189.492H1843.33H1894.3V212.456ZM1894.3 267.906V290.87H1843.33H1792.36V267.906V244.942H1843.33H1894.3V267.906ZM1894.3 323.356V346.32H1843.33H1792.36V323.356V300.392H1843.33H1894.3V323.356ZM1894.3 378.806V401.77H1843.33H1792.36V378.806V355.842H1843.33H1894.3V378.806Z" fill="#FFD633"/>
<path d="M1801.88 212.456V226.458H1824.84H1847.81V212.456V198.453H1824.84H1801.88V212.456ZM1820.36 212.456V216.937H1815.6H1810.84V212.456V207.975H1815.6H1820.36V212.456ZM1838.85 212.456V216.937H1834.08H1829.32V212.456V207.975H1834.08H1838.85V212.456Z" fill="#FFD633"/>
<path d="M1857.33 203.214V207.975H1861.81H1866.29V203.214V198.453H1861.81H1857.33V203.214Z" fill="#FFD633"/>
<path d="M1875.81 203.214V207.975H1880.29H1884.77V203.214V198.453H1880.29H1875.81V203.214Z" fill="#FFD633"/>
<path d="M1857.33 221.698V226.458H1861.81H1866.29V221.698V216.937H1861.81H1857.33V221.698Z" fill="#FFD633"/>
<path d="M1875.81 221.698V226.458H1880.29H1884.77V221.698V216.937H1880.29H1875.81V221.698Z" fill="#FFD633"/>
<path d="M1801.88 267.906V281.908H1824.84H1847.81V267.906V253.903H1824.84H1801.88V267.906ZM1820.36 267.906V272.386H1815.6H1810.84V267.906V263.425H1815.6H1820.36V267.906ZM1838.85 267.906V272.386H1834.08H1829.32V267.906V263.425H1834.08H1838.85V267.906Z" fill="#FFD633"/>
<path d="M1857.33 258.664V263.425H1861.81H1866.29V258.664V253.903H1861.81H1857.33V258.664Z" fill="#FFD633"/>
<path d="M1875.81 258.664V263.425H1880.29H1884.77V258.664V253.903H1880.29H1875.81V258.664Z" fill="#FFD633"/>
<path d="M1857.33 277.147V281.908H1861.81H1866.29V277.147V272.386H1861.81H1857.33V277.147Z" fill="#FFD633"/>
<path d="M1875.81 277.147V281.908H1880.29H1884.77V277.147V272.386H1880.29H1875.81V277.147Z" fill="#FFD633"/>
<path d="M1801.88 323.356V337.358H1824.84H1847.81V323.356V309.353H1824.84H1801.88V323.356ZM1820.36 323.356V327.837H1815.6H1810.84V323.356V318.875H1815.6H1820.36V323.356ZM1838.85 323.356V327.837H1834.08H1829.32V323.356V318.875H1834.08H1838.85V323.356Z" fill="#FFD633"/>
<path d="M1857.33 314.114V318.875H1861.81H1866.29V314.114V309.353H1861.81H1857.33V314.114Z" fill="#FFD633"/>
<path d="M1875.81 314.114V318.875H1880.29H1884.77V314.114V309.353H1880.29H1875.81V314.114Z" fill="#FFD633"/>
<path d="M1857.33 332.598V337.358H1861.81H1866.29V332.598V327.837H1861.81H1857.33V332.598Z" fill="#FFD633"/>
<path d="M1875.81 332.598V337.358H1880.29H1884.77V332.598V327.837H1880.29H1875.81V332.598Z" fill="#FFD633"/>
<path d="M1801.88 378.806V392.808H1824.84H1847.81V378.806V364.803H1824.84H1801.88V378.806ZM1820.36 378.806V383.287H1815.6H1810.84V378.806V374.325H1815.6H1820.36V378.806ZM1838.85 378.806V383.287H1834.08H1829.32V378.806V374.325H1834.08H1838.85V378.806Z" fill="#FFD633"/>
<path d="M1857.33 369.564V374.325H1861.81H1866.29V369.564V364.803H1861.81H1857.33V369.564Z" fill="#FFD633"/>
<path d="M1875.81 369.564V374.325H1880.29H1884.77V369.564V364.803H1880.29H1875.81V369.564Z" fill="#FFD633"/>
<path d="M1857.33 388.047V392.808H1861.81H1866.29V388.047V383.287H1861.81H1857.33V388.047Z" fill="#FFD633"/>
<path d="M1875.81 388.047V392.808H1880.29H1884.77V388.047V383.287H1880.29H1875.81V388.047Z" fill="#FFD633"/>
<path d="M1801.88 425.014V429.775H1806.36H1810.84V425.014V420.253H1806.36H1801.88V425.014Z" fill="#FFD633"/>
<path d="M1820.36 425.014V429.775H1824.84H1829.32V425.014V420.253H1824.84H1820.36V425.014Z" fill="#FFD633"/>
<path d="M1838.85 425.014V429.775H1843.33H1847.81V425.014V420.253H1843.33H1838.85V425.014Z" fill="#FFD633"/>
<path d="M1857.33 425.014V429.775H1861.81H1866.29V425.014V420.253H1861.81H1857.33V425.014Z" fill="#FFD633"/>
<path d="M1875.81 425.014V429.775H1880.29H1884.77V425.014V420.253H1880.29H1875.81V425.014Z" fill="#FFD633"/>
<path d="M1718.42 267.906V281.908H1736.91H1755.39V267.906V253.903H1736.91H1718.42V267.906ZM1746.43 267.906V272.386H1737.19H1727.95V267.906V263.425H1737.19H1746.43V267.906Z" fill="#FFD633"/>
<path d="M1931.26 267.906V281.908H1949.75H1968.23V267.906V253.903H1949.75H1931.26V267.906ZM1958.71 267.906V272.386H1949.47H1940.22V267.906V263.425H1949.47H1958.71V267.906Z" fill="#FFD633"/>
<path d="M1718.42 323.356V337.358H1736.91H1755.39V323.356V309.353H1736.91H1718.42V323.356ZM1746.43 323.356V327.837H1737.19H1727.95V323.356V318.875H1737.19H1746.43V323.356Z" fill="#FFD633"/>
<path d="M1931.26 323.356V337.358H1949.75H1968.23V323.356V309.353H1949.75H1931.26V323.356ZM1958.71 323.356V327.837H1949.47H1940.22V323.356V318.875H1949.47H1958.71V323.356Z" fill="#FFD633"/>
<path d="M1718.42 378.806V392.808H1736.91H1755.39V378.806V364.803H1736.91H1718.42V378.806ZM1746.43 378.806V383.287H1737.19H1727.95V378.806V374.325H1737.19H1746.43V378.806Z" fill="#FFD633"/>
<path d="M1931.26 378.806V392.808H1949.75H1968.23V378.806V364.803H1949.75H1931.26V378.806ZM1958.71 378.806V383.287H1949.47H1940.22V378.806V374.325H1949.47H1958.71V378.806Z" fill="#FFD633"/>
<path d="M1718.42 425.014V429.775H1723.18H1728L1727.83 425.126L1727.67 420.533L1723.07 420.365L1718.42 420.197V425.014Z" fill="#FFD633"/>
<path d="M1736.91 425.014V429.775H1741.67H1746.48L1746.32 425.126L1746.15 420.533L1741.56 420.365L1736.91 420.197V425.014Z" fill="#FFD633"/>
<path d="M1940.62 420.645C1940.39 420.814 1940.22 422.998 1940.22 425.406V429.775H1944.98H1949.74V425.014V420.253H1945.38C1942.97 420.253 1940.78 420.421 1940.62 420.645Z" fill="#FFD633"/>
<path d="M1959.1 420.645C1958.88 420.814 1958.71 422.998 1958.71 425.406V429.775H1963.47H1968.23V425.014V420.253H1963.86C1961.45 420.253 1959.27 420.421 1959.1 420.645Z" fill="#FFD633"/>
<path fill-rule="evenodd" clip-rule="evenodd" d="M2018.82 297.376C2017.66 297.376 2016.72 298.319 2016.72 299.482L2016.72 316.334C2016.72 317.497 2017.66 318.44 2018.82 318.44L2224.74 318.44L2212.62 330.597C2211.8 331.42 2211.8 332.753 2212.62 333.576L2221.53 342.513C2222.35 343.335 2223.68 343.335 2224.5 342.513L2247.8 319.131C2248.03 318.908 2248.29 318.723 2248.51 318.499L2257.42 309.562C2258.14 308.834 2258.22 307.705 2257.67 306.885C2257.59 306.762 2257.49 306.646 2257.39 306.539L2248.48 297.602C2248.43 297.551 2248.37 297.503 2248.32 297.458L2224.53 273.588C2223.71 272.766 2222.38 272.766 2221.56 273.588L2212.65 282.525C2211.83 283.348 2211.83 284.681 2212.65 285.504L2224.48 297.376L2018.82 297.376ZM2235.1 308.025C2235.1 308.031 2235.1 308.04 2235.1 308.046C2235.09 308.056 2235.07 308.049 2235.07 308.035C2235.07 308.022 2235.09 308.015 2235.1 308.025Z" fill="#60A394"/>
<rect x="2288.03" y="16" width="286.656" height="105" rx="5" fill="#FB6233"/>
<path d="M2366.16 82.3701C2364.14 82.3701 2362.2 82.0863 2360.35 81.5189C2358.5 80.9268 2357.03 80.1743 2355.95 79.2615L2357.61 75.5238C2358.65 76.338 2359.93 77.0164 2361.46 77.5592C2362.99 78.102 2364.56 78.3733 2366.16 78.3733C2367.52 78.3733 2368.62 78.2253 2369.45 77.9293C2370.29 77.6332 2370.91 77.2385 2371.31 76.745C2371.7 76.2269 2371.9 75.6472 2371.9 75.0057C2371.9 74.2162 2371.61 73.5871 2371.05 73.1184C2370.48 72.625 2369.74 72.2426 2368.83 71.9712C2367.94 71.6751 2366.94 71.4037 2365.83 71.157C2364.74 70.9103 2363.64 70.6266 2362.53 70.3059C2361.45 69.9605 2360.45 69.5287 2359.54 69.0106C2358.65 68.4679 2357.92 67.7524 2357.35 66.8642C2356.79 65.9761 2356.5 64.8412 2356.5 63.4596C2356.5 62.0534 2356.87 60.7705 2357.61 59.6109C2358.38 58.4267 2359.52 57.4892 2361.05 56.7984C2362.61 56.0829 2364.57 55.7252 2366.94 55.7252C2368.49 55.7252 2370.03 55.9226 2371.56 56.3173C2373.09 56.7121 2374.43 57.2795 2375.56 58.0196L2374.04 61.7573C2372.88 61.0665 2371.69 60.5608 2370.45 60.24C2369.22 59.8946 2368.04 59.7219 2366.9 59.7219C2365.57 59.7219 2364.48 59.8823 2363.64 60.203C2362.83 60.5238 2362.23 60.9432 2361.83 61.4613C2361.46 61.9794 2361.28 62.5715 2361.28 63.2376C2361.28 64.0271 2361.55 64.6685 2362.09 65.1619C2362.66 65.6307 2363.39 66.0008 2364.27 66.2721C2365.19 66.5435 2366.2 66.8149 2367.31 67.0863C2368.42 67.333 2369.52 67.6167 2370.6 67.9374C2371.71 68.2582 2372.71 68.6776 2373.6 69.1957C2374.51 69.7138 2375.24 70.4169 2375.78 71.3051C2376.35 72.1932 2376.63 73.3158 2376.63 74.6727C2376.63 76.0543 2376.25 77.3372 2375.49 78.5214C2374.75 79.6809 2373.6 80.6184 2372.05 81.3339C2370.49 82.0247 2368.53 82.3701 2366.16 82.3701ZM2385.85 66.8642H2398.72V70.824H2385.85V66.8642ZM2386.22 77.9663H2400.83V82H2381.4V56.0953H2400.31V60.129H2386.22V77.9663ZM2406.2 82V56.0953H2416.85C2419.15 56.0953 2421.11 56.4654 2422.74 57.2055C2424.39 57.9456 2425.66 59.0065 2426.55 60.3881C2427.44 61.7697 2427.88 63.4103 2427.88 65.31C2427.88 67.2096 2427.44 68.8503 2426.55 70.2319C2425.66 71.5888 2424.39 72.6373 2422.74 73.3774C2421.11 74.0929 2419.15 74.4506 2416.85 74.4506H2408.86L2411.01 72.2672V82H2406.2ZM2423.15 82L2416.59 72.6003H2421.74L2428.33 82H2423.15ZM2411.01 72.7853L2408.86 70.4909H2416.63C2418.75 70.4909 2420.34 70.0345 2421.41 69.1217C2422.49 68.2088 2423.03 66.9383 2423.03 65.31C2423.03 63.657 2422.49 62.3864 2421.41 61.4983C2420.34 60.6101 2418.75 60.166 2416.63 60.166H2408.86L2411.01 57.7976V72.7853ZM2440.92 82L2429.6 56.0953H2434.82L2444.92 79.5205H2441.92L2452.14 56.0953H2456.95L2445.66 82H2440.92ZM2464.12 66.8642H2477V70.824H2464.12V66.8642ZM2464.49 77.9663H2479.11V82H2459.68V56.0953H2478.59V60.129H2464.49V77.9663ZM2484.47 82V56.0953H2495.13C2497.43 56.0953 2499.39 56.4654 2501.02 57.2055C2502.67 57.9456 2503.94 59.0065 2504.83 60.3881C2505.72 61.7697 2506.16 63.4103 2506.16 65.31C2506.16 67.2096 2505.72 68.8503 2504.83 70.2319C2503.94 71.5888 2502.67 72.6373 2501.02 73.3774C2499.39 74.0929 2497.43 74.4506 2495.13 74.4506H2487.14L2489.28 72.2672V82H2484.47ZM2501.42 82L2494.87 72.6003H2500.02L2506.6 82H2501.42ZM2489.28 72.7853L2487.14 70.4909H2494.91C2497.03 70.4909 2498.62 70.0345 2499.68 69.1217C2500.77 68.2088 2501.31 66.9383 2501.31 65.31C2501.31 63.657 2500.77 62.3864 2499.68 61.4983C2498.62 60.6101 2497.03 60.166 2494.91 60.166H2487.14L2489.28 57.7976V72.7853Z" fill="#F8F8F8"/>
<path d="M2298.61 163.347C2294.75 164.523 2291.33 167.436 2289.32 171.244C2288.31 173.093 2288.25 175.221 2288.08 204.57C2287.92 238.401 2287.97 238.961 2290.83 242.937C2294.25 247.642 2298.73 249.098 2309.93 249.098H2316.54V256.044V262.989L2307.74 263.213C2297.94 263.493 2295.87 263.997 2292.57 267.19C2291.5 268.198 2290.16 269.99 2289.48 271.222C2288.25 273.463 2288.25 273.687 2288.25 306.229C2288.25 338.771 2288.25 338.995 2289.48 341.235C2290.16 342.467 2291.5 344.26 2292.57 345.268C2295.87 348.46 2297.94 348.965 2307.74 349.245L2316.54 349.469V356.414V363.359H2309.93C2298.73 363.359 2294.25 364.815 2290.83 369.52C2287.97 373.497 2287.92 374.057 2288.08 407.887C2288.25 438.805 2288.25 439.309 2289.48 441.493C2290.88 444.126 2293.63 446.814 2296.37 448.271C2298.28 449.279 2302.7 449.335 2431.36 449.335H2564.38L2566.62 448.102C2569.26 446.702 2571.94 443.958 2573.4 441.213C2574.41 439.365 2574.46 437.237 2574.63 407.887C2574.8 374.057 2574.74 373.497 2571.89 369.52C2568.47 364.815 2563.99 363.359 2552.79 363.359H2546.18V356.414V349.469L2555.03 349.245C2564.77 348.965 2566.85 348.46 2570.15 345.268C2571.22 344.26 2572.56 342.467 2573.23 341.235C2574.46 338.995 2574.46 338.771 2574.46 306.229C2574.46 273.687 2574.46 273.463 2573.23 271.222C2572.56 269.99 2571.22 268.198 2570.15 267.19C2566.85 263.997 2564.77 263.493 2555.03 263.213L2546.18 262.989V256.044V249.098H2552.79C2563.99 249.098 2568.47 247.642 2571.89 242.937C2574.74 238.961 2574.8 238.401 2574.63 204.57C2574.46 175.221 2574.41 173.093 2573.4 171.244C2571.94 168.5 2569.26 165.755 2566.62 164.355L2564.38 163.123L2432.2 163.011C2359.5 162.955 2299.4 163.123 2298.61 163.347ZM2563.6 173.989L2565.22 175.613V205.411C2565.22 238.737 2565.33 237.896 2561.41 238.961C2558.5 239.801 2304.22 239.801 2301.3 238.961C2297.38 237.896 2297.49 238.737 2297.49 205.411V175.613L2299.12 173.989L2300.74 172.365H2431.36H2561.97L2563.6 173.989ZM2335.58 256.1V263.101H2330.82H2326.06V256.1V249.098H2330.82H2335.58V256.1ZM2517.61 256.1V263.101H2431.36H2345.1V256.1V249.098H2431.36H2517.61V256.1ZM2536.66 256.1V263.101H2531.9H2527.14V256.1V249.098H2531.9H2536.66V256.1ZM2563.65 274.191L2564.94 275.479V306.229V336.978L2563.65 338.267L2562.37 339.555H2431.36H2300.35L2299.06 338.267L2297.77 336.978L2297.66 306.901C2297.49 274.639 2297.49 274.751 2300.29 273.351C2301.41 272.791 2328.19 272.679 2432.03 272.791L2562.37 272.903L2563.65 274.191ZM2335.58 356.358V363.359H2330.82H2326.06V356.358V349.357H2330.82H2335.58V356.358ZM2517.61 356.358V363.359H2431.36H2345.1V356.358V349.357H2431.36H2517.61V356.358ZM2536.66 356.358V363.359H2531.9H2527.14V356.358V349.357H2531.9H2536.66V356.358ZM2561.41 373.497C2565.33 374.561 2565.22 373.721 2565.22 407.047V436.844L2563.6 438.469L2561.97 440.093H2431.36H2300.74L2299.12 438.469L2297.49 436.844V407.047C2297.49 374.113 2297.44 374.505 2301.02 373.497C2303.66 372.769 2558.73 372.713 2561.41 373.497Z" fill="#FFD633"/>
<path d="M2459.92 185.011V189.772H2464.68H2469.45V185.011V180.25H2464.68H2459.92V185.011Z" fill="#FFD633"/>
<path d="M2478.97 185.011V189.772H2483.73H2488.49V185.011V180.25H2483.73H2478.97V185.011Z" fill="#FFD633"/>
<path d="M2498.4 180.586C2498.18 180.81 2498.01 182.995 2498.01 185.403V189.772H2503.05H2508.15L2507.98 185.123L2507.81 180.53L2503.33 180.362C2500.81 180.306 2498.63 180.362 2498.4 180.586Z" fill="#FFD633"/>
<path d="M2517.61 185.011V189.772H2522.37H2527.14V185.011V180.25H2522.37H2517.61V185.011Z" fill="#FFD633"/>
<path d="M2536.66 185.011V189.772H2541.42H2546.18V185.011V180.25H2541.42H2536.66V185.011Z" fill="#FFD633"/>
<path d="M2326.39 190.668C2320.46 192.572 2315.92 199.686 2316.76 205.903C2317.21 209.095 2319.67 213.632 2321.86 215.312C2329.03 220.745 2339.5 218.617 2343.48 210.888L2344.54 208.815H2393.72H2442.95L2444.07 207.527C2445.47 206.071 2445.75 204.671 2445.19 202.486C2444.3 199.238 2445.53 199.294 2392.49 199.294H2344.09L2343.76 198.005C2343.31 196.157 2339.61 192.572 2336.81 191.34C2333.56 189.884 2329.7 189.604 2326.39 190.668ZM2334.35 201.142C2336.08 202.71 2336.03 205.623 2334.18 207.415C2331.72 209.935 2327.68 208.871 2326.45 205.343C2325.83 203.606 2327.18 200.918 2329.08 200.078C2331.1 199.238 2332.56 199.518 2334.35 201.142Z" fill="#FFD633"/>
<path d="M2459.92 204.054V208.815H2464.68H2469.45V204.054V199.293H2464.68H2459.92V204.054Z" fill="#FFD633"/>
<path d="M2479.36 199.686C2479.13 199.854 2478.97 202.038 2478.97 204.446V208.815H2483.73H2488.49V204.054V199.293H2484.12C2481.71 199.293 2479.53 199.461 2479.36 199.686Z" fill="#FFD633"/>
<path d="M2498.4 199.63C2498.18 199.854 2498.01 202.038 2498.01 204.446V208.815H2503.05H2508.15L2507.98 204.166L2507.81 199.574L2503.33 199.405C2500.81 199.349 2498.63 199.405 2498.4 199.63Z" fill="#FFD633"/>
<path d="M2517.61 204.054V208.815H2522.37H2527.19L2527.02 204.166L2526.86 199.574L2522.26 199.405L2517.61 199.237V204.054Z" fill="#FFD633"/>
<path d="M2536.66 204.054V208.815H2541.42H2546.18V204.054V199.293H2541.42H2536.66V204.054Z" fill="#FFD633"/>
<path d="M2460.32 218.729C2460.09 218.897 2459.92 221.081 2459.92 223.49V227.859H2464.68H2469.45V223.098V218.337H2465.08C2462.67 218.337 2460.48 218.505 2460.32 218.729Z" fill="#FFD633"/>
<path d="M2479.36 218.729C2479.13 218.897 2478.97 221.081 2478.97 223.49V227.859H2483.73H2488.49V223.098V218.337H2484.12C2481.71 218.337 2479.53 218.505 2479.36 218.729Z" fill="#FFD633"/>
<path d="M2498.4 218.673C2498.18 218.897 2498.01 221.081 2498.01 223.49V227.859H2503.05H2508.15L2507.98 223.21L2507.81 218.617L2503.33 218.449C2500.81 218.393 2498.63 218.449 2498.4 218.673Z" fill="#FFD633"/>
<path d="M2517.61 223.098V227.859H2522.37H2527.19L2527.02 223.21L2526.86 218.617L2522.26 218.449L2517.61 218.281V223.098Z" fill="#FFD633"/>
<path d="M2536.66 223.098V227.859H2541.42H2546.23L2546.07 223.21L2545.9 218.617L2541.31 218.449L2536.66 218.281V223.098Z" fill="#FFD633"/>
<path d="M2459.92 285.269V290.03H2464.68H2469.45V285.269V280.508H2464.68H2459.92V285.269Z" fill="#FFD633"/>
<path d="M2479.36 280.9C2479.13 281.068 2478.97 283.253 2478.97 285.661V290.03H2483.73H2488.49V285.269V280.508H2484.12C2481.71 280.508 2479.53 280.676 2479.36 280.9Z" fill="#FFD633"/>
<path d="M2498.4 280.844C2498.18 281.068 2498.01 283.253 2498.01 285.661V290.03H2503.05H2508.15L2507.98 285.381L2507.81 280.788L2503.33 280.62C2500.81 280.564 2498.63 280.62 2498.4 280.844Z" fill="#FFD633"/>
<path d="M2517.61 285.269V290.03H2522.37H2527.19L2527.02 285.381L2526.86 280.788L2522.26 280.62L2517.61 280.452V285.269Z" fill="#FFD633"/>
<path d="M2536.66 285.269V290.03H2541.42H2546.18V285.269V280.508H2541.42H2536.66V285.269Z" fill="#FFD633"/>
<path d="M2328.69 290.646C2315.08 292.83 2312.22 310.978 2324.55 317.139C2328.3 319.043 2332.89 319.267 2336.48 317.755C2339.11 316.691 2342.53 313.442 2343.48 311.258L2344.09 309.633L2393.27 309.521L2442.45 309.353L2443.9 308.009C2444.97 307.001 2445.36 306.049 2445.36 304.592C2445.36 303.136 2444.97 302.184 2443.9 301.176L2442.45 299.832L2393.27 299.664L2344.09 299.551L2343.42 297.871C2343.03 296.975 2341.74 295.295 2340.51 294.175C2336.92 290.926 2333.4 289.862 2328.69 290.646ZM2334.29 301.344C2337.15 304.032 2335.13 309.073 2331.27 309.073C2328.69 309.073 2327.4 308.289 2326.67 306.273C2326 304.312 2326.67 301.96 2328.13 300.784C2329.64 299.664 2332.84 299.944 2334.29 301.344Z" fill="#FFD633"/>
<path d="M2460.15 300.28C2459.98 300.728 2459.92 302.912 2460.04 305.209L2460.2 309.353L2464.85 309.521L2469.45 309.689V304.593V299.552H2464.96C2461.72 299.552 2460.37 299.776 2460.15 300.28Z" fill="#FFD633"/>
<path d="M2479.19 300.28C2479.02 300.728 2478.97 302.912 2479.08 305.209L2479.25 309.353L2483.9 309.521L2488.49 309.689V304.593V299.552H2484.01C2480.76 299.552 2479.41 299.776 2479.19 300.28Z" fill="#FFD633"/>
<path d="M2498.23 300.28C2498.07 300.728 2498.01 302.912 2498.12 305.209L2498.29 309.353H2503.05H2507.81V304.592V299.832L2503.16 299.664C2499.63 299.551 2498.46 299.664 2498.23 300.28Z" fill="#FFD633"/>
<path d="M2517.61 304.593V309.689L2522.26 309.521L2526.86 309.353V304.593V299.832L2522.26 299.664L2517.61 299.496V304.593Z" fill="#FFD633"/>
<path d="M2536.66 304.593V309.689L2541.31 309.521L2545.9 309.353V304.593V299.832L2541.31 299.664L2536.66 299.496V304.593Z" fill="#FFD633"/>
<path d="M2459.92 323.916V328.677H2464.68H2469.45V323.916V319.155H2464.68H2459.92V323.916Z" fill="#FFD633"/>
<path d="M2479.08 323.748L2479.25 328.397L2483.9 328.565L2488.49 328.733V323.916V319.155H2483.73H2478.91L2479.08 323.748Z" fill="#FFD633"/>
<path d="M2498.12 323.748L2498.29 328.397H2503.05H2507.81L2507.98 323.748L2508.15 319.155H2503.05H2497.95L2498.12 323.748Z" fill="#FFD633"/>
<path d="M2517.61 323.916V328.733L2522.26 328.565L2526.86 328.397L2527.02 323.748L2527.19 319.155H2522.37H2517.61V323.916Z" fill="#FFD633"/>
<path d="M2536.66 323.916V328.677H2541.42H2546.18V323.916V319.155H2541.42H2536.66V323.916Z" fill="#FFD633"/>
<path d="M2460.04 385.919L2460.2 390.568L2464.85 390.736L2469.44 390.904V386.087V381.326H2464.68H2459.87L2460.04 385.919Z" fill="#FFD633"/>
<path d="M2479.08 385.919L2479.25 390.568L2483.9 390.736L2488.49 390.904V386.087V381.326H2483.73H2478.91L2479.08 385.919Z" fill="#FFD633"/>
<path d="M2498.12 385.919L2498.29 390.568H2503.05H2507.81L2507.98 385.919L2508.15 381.326H2503.05H2497.95L2498.12 385.919Z" fill="#FFD633"/>
<path d="M2517.61 386.087V390.904L2522.26 390.736L2526.86 390.568L2527.02 385.919L2527.19 381.326H2522.37H2517.61V386.087Z" fill="#FFD633"/>
<path d="M2536.66 386.087V390.904L2541.31 390.736L2545.9 390.568L2546.07 385.919L2546.23 381.326H2541.42H2536.66V386.087Z" fill="#FFD633"/>
<path d="M2324.43 392.304C2318.78 395.161 2315.64 401.714 2317.04 407.875C2319.06 417.005 2329.08 421.878 2337.32 417.733C2339.84 416.445 2342.81 413.42 2343.53 411.404L2344.09 409.892H2392.49C2445.53 409.892 2444.3 409.948 2445.19 406.699C2445.75 404.515 2445.47 403.114 2444.07 401.602L2442.95 400.37H2393.72H2344.54L2343.48 398.241C2340.06 391.576 2331.38 388.888 2324.43 392.304ZM2334.18 401.77C2337.71 405.243 2334.07 410.844 2329.36 409.219C2327.46 408.547 2325.83 405.635 2326.45 403.899C2327.68 400.314 2331.66 399.194 2334.18 401.77Z" fill="#FFD633"/>
<path d="M2459.92 405.13V409.891H2464.68H2469.45V405.13V400.37H2464.68H2459.92V405.13Z" fill="#FFD633"/>
<path d="M2479.08 404.963L2479.25 409.611L2483.9 409.779L2488.49 409.948V405.131V400.37H2483.73H2478.91L2479.08 404.963Z" fill="#FFD633"/>
<path d="M2498.12 404.963L2498.29 409.612H2503.05H2507.81L2507.98 404.963L2508.15 400.37H2503.05H2497.95L2498.12 404.963Z" fill="#FFD633"/>
<path d="M2517.61 405.131V409.948L2522.26 409.779L2526.86 409.611L2527.02 404.963L2527.19 400.37H2522.37H2517.61V405.131Z" fill="#FFD633"/>
<path d="M2536.66 405.13V409.891H2541.42H2546.18V405.13V400.37H2541.42H2536.66V405.13Z" fill="#FFD633"/>
<path d="M2459.92 424.174V428.935H2464.68H2469.45V424.174V419.413H2464.68H2459.92V424.174Z" fill="#FFD633"/>
<path d="M2478.97 424.174V428.935H2483.73H2488.49V424.174V419.413H2483.73H2478.97V424.174Z" fill="#FFD633"/>
<path d="M2498.12 424.006L2498.29 428.655H2503.05H2507.81L2507.98 424.006L2508.15 419.413H2503.05H2497.95L2498.12 424.006Z" fill="#FFD633"/>
<path d="M2517.61 424.174V428.935H2522.37H2527.14V424.174V419.413H2522.37H2517.61V424.174Z" fill="#FFD633"/>
<path d="M2536.66 424.174V428.935H2541.42H2546.18V424.174V419.413H2541.42H2536.66V424.174Z" fill="#FFD633"/>
</svg>
