<svg width="834" height="324" viewBox="0 0 834 324" fill="none" xmlns="http://www.w3.org/2000/svg">
<g clip-path="url(#clip0_202_379)">
<rect x="217" width="400" height="72.6856" rx="5" fill="#FB6233"/>
<path d="M297.255 35.2192H305.869V37.8676H297.255V35.2192ZM297.503 42.6448H307.28V45.3428H294.285V28.0163H306.933V30.7143H297.503V42.6448ZM308.57 45.3428L315.872 35.2934V37.7191L308.916 28.0163H312.555L317.728 35.1944L316.243 35.2192L321.367 28.0163H324.857L317.951 37.5459V35.2192L325.302 45.3428H321.589L316.144 37.7191H317.604L312.233 45.3428H308.57ZM324.515 45.3428L332.312 28.0163H335.48L343.302 45.3428H339.936L333.228 29.7242H334.515L327.832 45.3428H324.515ZM328.104 41.3329L328.97 38.8082H338.327L339.193 41.3329H328.104ZM345.505 45.3428V28.0163H348.154L355.728 40.6646H354.342L361.792 28.0163H364.441L364.466 45.3428H361.421L361.396 32.7935H362.04L355.703 43.3626H354.268L347.832 32.7935H348.575V45.3428H345.505ZM369.146 45.3428V28.0163H376.274C377.809 28.0163 379.121 28.2638 380.21 28.7589C381.315 29.2539 382.165 29.9635 382.759 30.8875C383.353 31.8116 383.65 32.909 383.65 34.1796C383.65 35.4502 383.353 36.5475 382.759 37.4716C382.165 38.3957 381.315 39.1052 380.21 39.6003C379.121 40.0953 377.809 40.3428 376.274 40.3428H370.928L372.363 38.833V45.3428H369.146ZM372.363 39.1795L370.928 37.6201H376.126C377.545 37.6201 378.609 37.3231 379.319 36.729C380.045 36.1185 380.408 35.2687 380.408 34.1796C380.408 33.074 380.045 32.2242 379.319 31.6301C378.609 31.0361 377.545 30.739 376.126 30.739H370.928L372.363 29.1549V39.1795ZM386.864 45.3428V28.0163H390.081V42.62H399.141V45.3428H386.864ZM404.651 35.2192H413.265V37.8676H404.651V35.2192ZM404.899 42.6448H414.676V45.3428H401.681V28.0163H414.329V30.7143H404.899V42.6448ZM425.104 45.3428V28.0163H432.232C433.767 28.0163 435.079 28.2638 436.168 28.7589C437.274 29.2539 438.123 29.9635 438.717 30.8875C439.312 31.8116 439.609 32.909 439.609 34.1796C439.609 35.4502 439.312 36.5475 438.717 37.4716C438.123 38.3957 437.274 39.1052 436.168 39.6003C435.079 40.0953 433.767 40.3428 432.232 40.3428H426.886L428.322 38.833V45.3428H425.104ZM428.322 39.1795L426.886 37.6201H432.084C433.503 37.6201 434.567 37.3231 435.277 36.729C436.003 36.1185 436.366 35.2687 436.366 34.1796C436.366 33.074 436.003 32.2242 435.277 31.6301C434.567 31.0361 433.503 30.739 432.084 30.739H426.886L428.322 29.1549V39.1795ZM442.822 45.3428V28.0163H446.04V45.3428H442.822ZM450.726 45.3428V28.0163H457.855C459.389 28.0163 460.701 28.2638 461.79 28.7589C462.896 29.2539 463.746 29.9635 464.34 30.8875C464.934 31.8116 465.231 32.909 465.231 34.1796C465.231 35.4502 464.934 36.5475 464.34 37.4716C463.746 38.3957 462.896 39.1052 461.79 39.6003C460.701 40.0953 459.389 40.3428 457.855 40.3428H452.508L453.944 38.833V45.3428H450.726ZM453.944 39.1795L452.508 37.6201H457.706C459.125 37.6201 460.19 37.3231 460.899 36.729C461.625 36.1185 461.988 35.2687 461.988 34.1796C461.988 33.074 461.625 32.2242 460.899 31.6301C460.19 31.0361 459.125 30.739 457.706 30.739H452.508L453.944 29.1549V39.1795ZM471.414 35.2192H480.028V37.8676H471.414V35.2192ZM471.662 42.6448H481.439V45.3428H468.444V28.0163H481.092V30.7143H471.662V42.6448ZM485.026 45.3428V28.0163H488.244V42.62H497.303V45.3428H485.026ZM499.844 45.3428V28.0163H503.061V45.3428H499.844ZM507.748 45.3428V28.0163H510.396L521.262 41.3577H519.951V28.0163H523.144V45.3428H520.495L509.629 32.0014H510.941V45.3428H507.748ZM530.757 35.2192H539.37V37.8676H530.757V35.2192ZM531.004 42.6448H540.781V45.3428H527.786V28.0163H540.435V30.7143H531.004V42.6448Z" fill="#F8F8F8"/>
<path d="M0 318.5V137.027C0 134.255 2.25504 132.012 5.02696 132.027L149.192 132.804C151.114 132.815 152.86 133.926 153.683 135.664L196.486 226.02C197.128 227.375 197.128 228.946 196.486 230.301L153.692 320.641C152.864 322.387 151.105 323.5 149.173 323.5H5C2.23858 323.5 0 321.261 0 318.5Z" fill="#FFD633"/>
<path d="M30.2038 177.297C28.8177 177.297 27.4893 177.116 26.2187 176.752C24.9481 176.373 23.925 175.886 23.1494 175.292L24.5108 172.272C25.2534 172.8 26.1279 173.238 27.1345 173.584C28.1576 173.914 29.189 174.079 30.2285 174.079C31.0206 174.079 31.6559 174.005 32.1345 173.856C32.6295 173.691 32.9925 173.469 33.2235 173.188C33.4546 172.908 33.5701 172.586 33.5701 172.223C33.5701 171.761 33.3886 171.398 33.0255 171.134C32.6625 170.853 32.184 170.63 31.5899 170.465C30.9959 170.284 30.3358 170.119 29.6097 169.97C28.9002 169.805 28.1824 169.607 27.4563 169.376C26.7467 169.145 26.0949 168.848 25.5009 168.485C24.9068 168.122 24.42 167.644 24.0405 167.05C23.6775 166.456 23.496 165.697 23.496 164.772C23.496 163.782 23.76 162.883 24.288 162.074C24.8326 161.249 25.6411 160.598 26.7137 160.119C27.8028 159.624 29.1642 159.376 30.7978 159.376C31.8869 159.376 32.9595 159.509 34.0156 159.773C35.0717 160.02 36.004 160.4 36.8126 160.911L35.575 163.956C34.7664 163.494 33.9579 163.155 33.1493 162.941C32.3407 162.71 31.5487 162.594 30.7731 162.594C29.9975 162.594 29.3622 162.685 28.8672 162.867C28.3721 163.048 28.0174 163.287 27.8028 163.584C27.5883 163.865 27.4811 164.195 27.4811 164.574C27.4811 165.02 27.6626 165.383 28.0256 165.664C28.3886 165.928 28.8672 166.142 29.4612 166.307C30.0553 166.472 30.7071 166.637 31.4166 166.802C32.1427 166.967 32.8605 167.157 33.5701 167.371C34.2961 167.586 34.9562 167.875 35.5502 168.238C36.1443 168.601 36.6228 169.079 36.9859 169.673C37.3654 170.267 37.5552 171.018 37.5552 171.926C37.5552 172.899 37.2829 173.79 36.7383 174.599C36.1938 175.408 35.377 176.059 34.2879 176.554C33.2153 177.05 31.8539 177.297 30.2038 177.297ZM43.6424 177V162.941H38.098V159.674H53.1968V162.941H47.6523V177H43.6424ZM52.2069 177L59.9295 159.674H63.8899L71.6373 177H67.4294L61.0929 161.703H62.677L56.3157 177H52.2069ZM56.0682 173.287L57.1325 170.243H66.0433L67.1324 173.287H56.0682ZM81.5594 177.297C80.1898 177.297 78.9274 177.083 77.7723 176.653C76.6337 176.208 75.6354 175.581 74.7773 174.772C73.9357 173.964 73.2757 173.015 72.7971 171.926C72.3351 170.837 72.1041 169.64 72.1041 168.337C72.1041 167.033 72.3351 165.837 72.7971 164.748C73.2757 163.659 73.944 162.71 74.8021 161.901C75.6601 161.093 76.6667 160.474 77.8218 160.045C78.9769 159.599 80.2475 159.376 81.6337 159.376C83.1683 159.376 84.5462 159.632 85.7673 160.144C87.0049 160.655 88.0445 161.398 88.886 162.371L86.3118 164.748C85.6847 164.088 84.9999 163.601 84.2574 163.287C83.5148 162.957 82.7062 162.792 81.8317 162.792C80.9901 162.792 80.2228 162.924 79.5297 163.188C78.8367 163.452 78.2344 163.832 77.7228 164.327C77.2278 164.822 76.84 165.408 76.5595 166.084C76.2954 166.761 76.1634 167.512 76.1634 168.337C76.1634 169.145 76.2954 169.888 76.5595 170.564C76.84 171.241 77.2278 171.835 77.7228 172.347C78.2344 172.842 78.8284 173.221 79.505 173.485C80.198 173.749 80.9571 173.881 81.7822 173.881C82.5742 173.881 83.3415 173.757 84.0841 173.51C84.8432 173.246 85.5775 172.809 86.2871 172.198L88.5642 175.094C87.6237 175.804 86.5263 176.348 85.2722 176.728C84.0346 177.107 82.797 177.297 81.5594 177.297ZM84.9009 174.574V168.064H88.5642V175.094L84.9009 174.574ZM95.9771 166.654H104.319V169.772H95.9771V166.654ZM96.2741 173.782H105.705V177H92.2891V159.674H105.383V162.891H96.2741V173.782ZM117.489 177V161.159L119.222 162.891H114.024V159.674H121.499V177H117.489Z" fill="black"/>
<path d="M29.26 264.24C28.14 264.24 27.0667 264.093 26.04 263.8C25.0133 263.493 24.1867 263.1 23.56 262.62L24.66 260.18C25.26 260.607 25.9667 260.96 26.78 261.24C27.6067 261.507 28.44 261.64 29.28 261.64C29.92 261.64 30.4333 261.58 30.82 261.46C31.22 261.327 31.5133 261.147 31.7 260.92C31.8867 260.693 31.98 260.433 31.98 260.14C31.98 259.767 31.8333 259.473 31.54 259.26C31.2467 259.033 30.86 258.853 30.38 258.72C29.9 258.573 29.3667 258.44 28.78 258.32C28.2067 258.187 27.6267 258.027 27.04 257.84C26.4667 257.653 25.94 257.413 25.46 257.12C24.98 256.827 24.5867 256.44 24.28 255.96C23.9867 255.48 23.84 254.867 23.84 254.12C23.84 253.32 24.0533 252.593 24.48 251.94C24.92 251.273 25.5733 250.747 26.44 250.36C27.32 249.96 28.42 249.76 29.74 249.76C30.62 249.76 31.4867 249.867 32.34 250.08C33.1933 250.28 33.9467 250.587 34.6 251L33.6 253.46C32.9467 253.087 32.2933 252.813 31.64 252.64C30.9867 252.453 30.3467 252.36 29.72 252.36C29.0933 252.36 28.58 252.433 28.18 252.58C27.78 252.727 27.4933 252.92 27.32 253.16C27.1467 253.387 27.06 253.653 27.06 253.96C27.06 254.32 27.2067 254.613 27.5 254.84C27.7933 255.053 28.18 255.227 28.66 255.36C29.14 255.493 29.6667 255.627 30.24 255.76C30.8267 255.893 31.4067 256.047 31.98 256.22C32.5667 256.393 33.1 256.627 33.58 256.92C34.06 257.213 34.4467 257.6 34.74 258.08C35.0467 258.56 35.2 259.167 35.2 259.9C35.2 260.687 34.98 261.407 34.54 262.06C34.1 262.713 33.44 263.24 32.56 263.64C31.6933 264.04 30.5933 264.24 29.26 264.24ZM41.5939 264.16C40.3272 264.16 39.3406 263.84 38.6339 263.2C37.9272 262.547 37.5739 261.58 37.5739 260.3V250.86H40.6939V260.26C40.6939 260.713 40.8139 261.067 41.0539 261.32C41.2939 261.56 41.6206 261.68 42.0339 261.68C42.5272 261.68 42.9472 261.547 43.2939 261.28L44.1339 263.48C43.8139 263.707 43.4272 263.88 42.9739 264C42.5339 264.107 42.0739 264.16 41.5939 264.16ZM35.9139 255.88V253.48H43.3739V255.88H35.9139ZM50.8933 264.16C49.6666 264.16 48.5866 263.92 47.6533 263.44C46.7333 262.96 46.0199 262.307 45.5133 261.48C45.0066 260.64 44.7533 259.687 44.7533 258.62C44.7533 257.54 44.9999 256.587 45.4933 255.76C45.9999 254.92 46.6866 254.267 47.5533 253.8C48.4199 253.32 49.3999 253.08 50.4933 253.08C51.5466 253.08 52.4933 253.307 53.3333 253.76C54.1866 254.2 54.8599 254.84 55.3533 255.68C55.8466 256.507 56.0933 257.5 56.0933 258.66C56.0933 258.78 56.0866 258.92 56.0733 259.08C56.0599 259.227 56.0466 259.367 56.0333 259.5H47.2933V257.68H54.3933L53.1933 258.22C53.1933 257.66 53.0799 257.173 52.8533 256.76C52.6266 256.347 52.3133 256.027 51.9133 255.8C51.5133 255.56 51.0466 255.44 50.5133 255.44C49.9799 255.44 49.5066 255.56 49.0933 255.8C48.6933 256.027 48.3799 256.353 48.1533 256.78C47.9266 257.193 47.8133 257.687 47.8133 258.26V258.74C47.8133 259.327 47.9399 259.847 48.1933 260.3C48.4599 260.74 48.8266 261.08 49.2933 261.32C49.7733 261.547 50.3333 261.66 50.9733 261.66C51.5466 261.66 52.0466 261.573 52.4733 261.4C52.9133 261.227 53.3133 260.967 53.6733 260.62L55.3333 262.42C54.8399 262.98 54.2199 263.413 53.4733 263.72C52.7266 264.013 51.8666 264.16 50.8933 264.16ZM64.5305 264.16C63.6238 264.16 62.8305 263.96 62.1505 263.56C61.4705 263.16 60.9371 262.553 60.5505 261.74C60.1771 260.913 59.9905 259.873 59.9905 258.62C59.9905 257.353 60.1705 256.313 60.5305 255.5C60.8905 254.687 61.4105 254.08 62.0905 253.68C62.7705 253.28 63.5838 253.08 64.5305 253.08C65.5438 253.08 66.4505 253.313 67.2505 253.78C68.0638 254.233 68.7038 254.873 69.1705 255.7C69.6505 256.527 69.8905 257.5 69.8905 258.62C69.8905 259.753 69.6505 260.733 69.1705 261.56C68.7038 262.387 68.0638 263.027 67.2505 263.48C66.4505 263.933 65.5438 264.16 64.5305 264.16ZM58.1705 267.88V253.24H61.1505V255.44L61.0905 258.64L61.2905 261.82V267.88H58.1705ZM63.9905 261.6C64.5105 261.6 64.9705 261.48 65.3705 261.24C65.7838 261 66.1105 260.66 66.3505 260.22C66.6038 259.767 66.7305 259.233 66.7305 258.62C66.7305 257.993 66.6038 257.46 66.3505 257.02C66.1105 256.58 65.7838 256.24 65.3705 256C64.9705 255.76 64.5105 255.64 63.9905 255.64C63.4705 255.64 63.0038 255.76 62.5905 256C62.1771 256.24 61.8505 256.58 61.6105 257.02C61.3705 257.46 61.2505 257.993 61.2505 258.62C61.2505 259.233 61.3705 259.767 61.6105 260.22C61.8505 260.66 62.1771 261 62.5905 261.24C63.0038 261.48 63.4705 261.6 63.9905 261.6ZM84.1831 253.08C85.0365 253.08 85.7965 253.253 86.4631 253.6C87.1431 253.933 87.6765 254.453 88.0631 255.16C88.4498 255.853 88.6431 256.747 88.6431 257.84V264H85.5231V258.32C85.5231 257.453 85.3298 256.813 84.9431 256.4C84.5698 255.987 84.0365 255.78 83.3431 255.78C82.8498 255.78 82.4031 255.887 82.0031 256.1C81.6165 256.3 81.3098 256.613 81.0831 257.04C80.8698 257.467 80.7631 258.013 80.7631 258.68V264H77.6431V253.24H80.6231V256.22L80.0631 255.32C80.4498 254.6 81.0031 254.047 81.7231 253.66C82.4431 253.273 83.2631 253.08 84.1831 253.08ZM92.6513 256.98C92.1179 256.98 91.6579 256.8 91.2713 256.44C90.8979 256.067 90.7113 255.593 90.7113 255.02C90.7113 254.447 90.8979 253.987 91.2713 253.64C91.6579 253.28 92.1179 253.1 92.6513 253.1C93.1979 253.1 93.6579 253.28 94.0313 253.64C94.4046 253.987 94.5913 254.447 94.5913 255.02C94.5913 255.593 94.4046 256.067 94.0313 256.44C93.6579 256.8 93.1979 256.98 92.6513 256.98ZM92.6513 264.16C92.1179 264.16 91.6579 263.98 91.2713 263.62C90.8979 263.247 90.7113 262.773 90.7113 262.2C90.7113 261.627 90.8979 261.167 91.2713 260.82C91.6579 260.46 92.1179 260.28 92.6513 260.28C93.1979 260.28 93.6579 260.46 94.0313 260.82C94.4046 261.167 94.5913 261.627 94.5913 262.2C94.5913 262.773 94.4046 263.247 94.0313 263.62C93.6579 263.98 93.1979 264.16 92.6513 264.16ZM29.16 288.14C28.1333 288.14 27.2067 287.913 26.38 287.46C25.5667 286.993 24.9267 286.353 24.46 285.54C23.9933 284.727 23.76 283.767 23.76 282.66C23.76 281.553 23.9933 280.593 24.46 279.78C24.9267 278.967 25.5667 278.333 26.38 277.88C27.2067 277.427 28.1333 277.2 29.16 277.2C30.0533 277.2 30.8533 277.4 31.56 277.8C32.2667 278.187 32.8267 278.78 33.24 279.58C33.6533 280.38 33.86 281.407 33.86 282.66C33.86 283.9 33.66 284.927 33.26 285.74C32.86 286.54 32.3067 287.14 31.6 287.54C30.8933 287.94 30.08 288.14 29.16 288.14ZM29.46 286C30.06 286 30.5933 285.867 31.06 285.6C31.54 285.333 31.92 284.947 32.2 284.44C32.4933 283.933 32.64 283.34 32.64 282.66C32.64 281.967 32.4933 281.373 32.2 280.88C31.92 280.373 31.54 279.987 31.06 279.72C30.5933 279.453 30.06 279.32 29.46 279.32C28.86 279.32 28.32 279.453 27.84 279.72C27.3733 279.987 26.9933 280.373 26.7 280.88C26.42 281.373 26.28 281.967 26.28 282.66C26.28 283.34 26.42 283.933 26.7 284.44C26.9933 284.947 27.3733 285.333 27.84 285.6C28.32 285.867 28.86 286 29.46 286ZM32.7 288V285.48L32.8 282.64L32.6 279.8V273.16H35.08V288H32.7ZM43.1705 288.14C42.0771 288.14 41.1038 287.907 40.2505 287.44C39.3971 286.96 38.7238 286.307 38.2305 285.48C37.7371 284.653 37.4905 283.713 37.4905 282.66C37.4905 281.593 37.7371 280.653 38.2305 279.84C38.7238 279.013 39.3971 278.367 40.2505 277.9C41.1038 277.433 42.0771 277.2 43.1705 277.2C44.2771 277.2 45.2571 277.433 46.1105 277.9C46.9771 278.367 47.6505 279.007 48.1305 279.82C48.6238 280.633 48.8705 281.58 48.8705 282.66C48.8705 283.713 48.6238 284.653 48.1305 285.48C47.6505 286.307 46.9771 286.96 46.1105 287.44C45.2571 287.907 44.2771 288.14 43.1705 288.14ZM43.1705 286C43.7838 286 44.3305 285.867 44.8105 285.6C45.2905 285.333 45.6638 284.947 45.9305 284.44C46.2105 283.933 46.3505 283.34 46.3505 282.66C46.3505 281.967 46.2105 281.373 45.9305 280.88C45.6638 280.373 45.2905 279.987 44.8105 279.72C44.3305 279.453 43.7905 279.32 43.1905 279.32C42.5771 279.32 42.0305 279.453 41.5505 279.72C41.0838 279.987 40.7105 280.373 40.4305 280.88C40.1505 281.373 40.0105 281.967 40.0105 282.66C40.0105 283.34 40.1505 283.933 40.4305 284.44C40.7105 284.947 41.0838 285.333 41.5505 285.6C42.0305 285.867 42.5705 286 43.1705 286ZM62.8484 277.2C63.7018 277.2 64.4618 277.367 65.1284 277.7C65.8084 278.033 66.3418 278.547 66.7284 279.24C67.1151 279.92 67.3084 280.8 67.3084 281.88V288H64.8084V282.2C64.8084 281.253 64.5818 280.547 64.1284 280.08C63.6884 279.613 63.0684 279.38 62.2684 279.38C61.6818 279.38 61.1618 279.5 60.7084 279.74C60.2551 279.98 59.9018 280.34 59.6484 280.82C59.4084 281.287 59.2884 281.88 59.2884 282.6V288H56.7884V277.32H59.1684V280.2L58.7484 279.32C59.1218 278.64 59.6618 278.12 60.3684 277.76C61.0884 277.387 61.9151 277.2 62.8484 277.2ZM71.5497 288V275L72.6897 276.18H68.5897V274H74.1497V288H71.5497ZM29.16 312.1C28.16 312.1 27.26 311.873 26.46 311.42C25.6733 310.967 25.0533 310.34 24.6 309.54C24.1467 308.727 23.92 307.793 23.92 306.74C23.92 305.673 24.1467 304.74 24.6 303.94C25.0533 303.14 25.6733 302.52 26.46 302.08C27.26 301.627 28.16 301.4 29.16 301.4C30.08 301.4 30.9 301.607 31.62 302.02C32.3533 302.433 32.9333 303.04 33.36 303.84C33.8 304.627 34.02 305.593 34.02 306.74C34.02 307.873 33.8067 308.84 33.38 309.64C32.9533 310.44 32.3733 311.053 31.64 311.48C30.92 311.893 30.0933 312.1 29.16 312.1ZM29.26 310.84C30.0067 310.84 30.6733 310.673 31.26 310.34C31.86 309.993 32.3267 309.513 32.66 308.9C33.0067 308.273 33.18 307.553 33.18 306.74C33.18 305.913 33.0067 305.193 32.66 304.58C32.3267 303.967 31.86 303.493 31.26 303.16C30.6733 302.813 30.0067 302.64 29.26 302.64C28.5267 302.64 27.8667 302.813 27.28 303.16C26.6933 303.493 26.2267 303.967 25.88 304.58C25.5333 305.193 25.36 305.913 25.36 306.74C25.36 307.553 25.5333 308.273 25.88 308.9C26.2267 309.513 26.6933 309.993 27.28 310.34C27.8667 310.673 28.5267 310.84 29.26 310.84ZM33.22 312V308.84L33.36 306.72L33.16 304.6V297.16H34.58V312H33.22ZM42.8147 312.1C41.8014 312.1 40.888 311.873 40.0747 311.42C39.2747 310.953 38.6414 310.32 38.1747 309.52C37.708 308.707 37.4747 307.78 37.4747 306.74C37.4747 305.687 37.708 304.76 38.1747 303.96C38.6414 303.16 39.2747 302.533 40.0747 302.08C40.8747 301.627 41.788 301.4 42.8147 301.4C43.8547 301.4 44.7747 301.627 45.5747 302.08C46.388 302.533 47.0214 303.16 47.4747 303.96C47.9414 304.76 48.1747 305.687 48.1747 306.74C48.1747 307.78 47.9414 308.707 47.4747 309.52C47.0214 310.32 46.388 310.953 45.5747 311.42C44.7614 311.873 43.8414 312.1 42.8147 312.1ZM42.8147 310.84C43.5747 310.84 44.248 310.673 44.8347 310.34C45.4214 309.993 45.8814 309.513 46.2147 308.9C46.5614 308.273 46.7347 307.553 46.7347 306.74C46.7347 305.913 46.5614 305.193 46.2147 304.58C45.8814 303.967 45.4214 303.493 44.8347 303.16C44.248 302.813 43.5814 302.64 42.8347 302.64C42.088 302.64 41.4214 302.813 40.8347 303.16C40.248 303.493 39.7814 303.967 39.4347 304.58C39.088 305.193 38.9147 305.913 38.9147 306.74C38.9147 307.553 39.088 308.273 39.4347 308.9C39.7814 309.513 40.248 309.993 40.8347 310.34C41.4214 310.673 42.0814 310.84 42.8147 310.84ZM61.6681 301.4C62.5215 301.4 63.2681 301.567 63.9081 301.9C64.5615 302.22 65.0681 302.713 65.4281 303.38C65.8015 304.047 65.9881 304.887 65.9881 305.9V312H64.5681V306.04C64.5681 304.933 64.2881 304.1 63.7281 303.54C63.1815 302.967 62.4081 302.68 61.4081 302.68C60.6615 302.68 60.0081 302.833 59.4481 303.14C58.9015 303.433 58.4748 303.867 58.1681 304.44C57.8748 305 57.7281 305.68 57.7281 306.48V312H56.3081V301.5H57.6681V304.38L57.4481 303.84C57.7815 303.08 58.3148 302.487 59.0481 302.06C59.7815 301.62 60.6548 301.4 61.6681 301.4ZM68.5261 312V310.98L74.3461 305.28C74.8794 304.76 75.2794 304.307 75.5461 303.92C75.8128 303.52 75.9928 303.147 76.0861 302.8C76.1794 302.453 76.2261 302.127 76.2261 301.82C76.2261 301.007 75.9461 300.367 75.3861 299.9C74.8394 299.433 74.0261 299.2 72.9461 299.2C72.1194 299.2 71.3861 299.327 70.7461 299.58C70.1194 299.833 69.5794 300.227 69.1261 300.76L68.1061 299.88C68.6528 299.24 69.3528 298.747 70.2061 298.4C71.0594 298.053 72.0128 297.88 73.0661 297.88C74.0128 297.88 74.8328 298.033 75.5261 298.34C76.2194 298.633 76.7528 299.067 77.1261 299.64C77.5128 300.213 77.7061 300.887 77.7061 301.66C77.7061 302.113 77.6394 302.56 77.5061 303C77.3861 303.44 77.1594 303.907 76.8261 304.4C76.5061 304.88 76.0328 305.427 75.4061 306.04L70.0661 311.28L69.6661 310.72H78.3461V312H68.5261Z" fill="black"/>
<path d="M29.22 207.2C28.1267 207.2 27.08 207.047 26.08 206.74C25.08 206.42 24.2867 206.013 23.7 205.52L24.6 203.5C25.16 203.94 25.8533 204.307 26.68 204.6C27.5067 204.893 28.3533 205.04 29.22 205.04C29.9533 205.04 30.5467 204.96 31 204.8C31.4533 204.64 31.7867 204.427 32 204.16C32.2133 203.88 32.32 203.567 32.32 203.22C32.32 202.793 32.1667 202.453 31.86 202.2C31.5533 201.933 31.1533 201.727 30.66 201.58C30.18 201.42 29.64 201.273 29.04 201.14C28.4533 201.007 27.86 200.853 27.26 200.68C26.6733 200.493 26.1333 200.26 25.64 199.98C25.16 199.687 24.7667 199.3 24.46 198.82C24.1533 198.34 24 197.727 24 196.98C24 196.22 24.2 195.527 24.6 194.9C25.0133 194.26 25.6333 193.753 26.46 193.38C27.3 192.993 28.36 192.8 29.64 192.8C30.48 192.8 31.3133 192.907 32.14 193.12C32.9667 193.333 33.6867 193.64 34.3 194.04L33.48 196.06C32.8533 195.687 32.2067 195.413 31.54 195.24C30.8733 195.053 30.2333 194.96 29.62 194.96C28.9 194.96 28.3133 195.047 27.86 195.22C27.42 195.393 27.0933 195.62 26.88 195.9C26.68 196.18 26.58 196.5 26.58 196.86C26.58 197.287 26.7267 197.633 27.02 197.9C27.3267 198.153 27.72 198.353 28.2 198.5C28.6933 198.647 29.24 198.793 29.84 198.94C30.44 199.073 31.0333 199.227 31.62 199.4C32.22 199.573 32.76 199.8 33.24 200.08C33.7333 200.36 34.1267 200.74 34.42 201.22C34.7267 201.7 34.88 202.307 34.88 203.04C34.88 203.787 34.6733 204.48 34.26 205.12C33.86 205.747 33.24 206.253 32.4 206.64C31.56 207.013 30.5 207.2 29.22 207.2ZM41.2381 207.14C40.0648 207.14 39.1581 206.84 38.5181 206.24C37.8781 205.627 37.5581 204.727 37.5581 203.54V193.96H40.0581V203.48C40.0581 203.987 40.1848 204.38 40.4381 204.66C40.7048 204.94 41.0715 205.08 41.5381 205.08C42.0981 205.08 42.5648 204.933 42.9381 204.64L43.6381 206.42C43.3448 206.66 42.9848 206.84 42.5581 206.96C42.1315 207.08 41.6915 207.14 41.2381 207.14ZM35.7981 198.4V196.4H42.9181V198.4H35.7981ZM50.3631 207.14C49.1765 207.14 48.1365 206.907 47.2431 206.44C46.3631 205.96 45.6765 205.307 45.1831 204.48C44.7031 203.653 44.4631 202.713 44.4631 201.66C44.4631 200.593 44.6965 199.653 45.1631 198.84C45.6431 198.013 46.2965 197.367 47.1231 196.9C47.9631 196.433 48.9165 196.2 49.9831 196.2C51.0231 196.2 51.9498 196.427 52.7631 196.88C53.5765 197.333 54.2165 197.973 54.6831 198.8C55.1498 199.627 55.3831 200.6 55.3831 201.72C55.3831 201.827 55.3765 201.947 55.3631 202.08C55.3631 202.213 55.3565 202.34 55.3431 202.46H46.4431V200.8H54.0231L53.0431 201.32C53.0565 200.707 52.9298 200.167 52.6631 199.7C52.3965 199.233 52.0298 198.867 51.5631 198.6C51.1098 198.333 50.5831 198.2 49.9831 198.2C49.3698 198.2 48.8298 198.333 48.3631 198.6C47.9098 198.867 47.5498 199.24 47.2831 199.72C47.0298 200.187 46.9031 200.74 46.9031 201.38V201.78C46.9031 202.42 47.0498 202.987 47.3431 203.48C47.6365 203.973 48.0498 204.353 48.5831 204.62C49.1165 204.887 49.7298 205.02 50.4231 205.02C51.0231 205.02 51.5631 204.927 52.0431 204.74C52.5231 204.553 52.9498 204.26 53.3231 203.86L54.6631 205.4C54.1831 205.96 53.5765 206.393 52.8431 206.7C52.1231 206.993 51.2965 207.14 50.3631 207.14ZM63.7045 207.14C62.8379 207.14 62.0445 206.94 61.3245 206.54C60.6179 206.14 60.0512 205.54 59.6245 204.74C59.2112 203.927 59.0045 202.9 59.0045 201.66C59.0045 200.407 59.2045 199.38 59.6045 198.58C60.0179 197.78 60.5779 197.187 61.2845 196.8C61.9912 196.4 62.7979 196.2 63.7045 196.2C64.7579 196.2 65.6845 196.427 66.4845 196.88C67.2979 197.333 67.9379 197.967 68.4045 198.78C68.8845 199.593 69.1245 200.553 69.1245 201.66C69.1245 202.767 68.8845 203.733 68.4045 204.56C67.9379 205.373 67.2979 206.007 66.4845 206.46C65.6845 206.913 64.7579 207.14 63.7045 207.14ZM57.7845 210.88V196.32H60.1645V198.84L60.0845 201.68L60.2845 204.52V210.88H57.7845ZM63.4245 205C64.0245 205 64.5579 204.867 65.0245 204.6C65.5045 204.333 65.8845 203.947 66.1645 203.44C66.4445 202.933 66.5845 202.34 66.5845 201.66C66.5845 200.967 66.4445 200.373 66.1645 199.88C65.8845 199.373 65.5045 198.987 65.0245 198.72C64.5579 198.453 64.0245 198.32 63.4245 198.32C62.8245 198.32 62.2845 198.453 61.8045 198.72C61.3245 198.987 60.9445 199.373 60.6645 199.88C60.3845 200.373 60.2445 200.967 60.2445 201.66C60.2445 202.34 60.3845 202.933 60.6645 203.44C60.9445 203.947 61.3245 204.333 61.8045 204.6C62.2845 204.867 62.8245 205 63.4245 205ZM78.5028 207V194L79.6428 195.18H75.5428V193H81.1028V207H78.5028ZM85.44 199.52C84.9867 199.52 84.6 199.367 84.28 199.06C83.96 198.74 83.8 198.34 83.8 197.86C83.8 197.353 83.96 196.953 84.28 196.66C84.6 196.353 84.9867 196.2 85.44 196.2C85.8933 196.2 86.28 196.353 86.6 196.66C86.92 196.953 87.08 197.353 87.08 197.86C87.08 198.34 86.92 198.74 86.6 199.06C86.28 199.367 85.8933 199.52 85.44 199.52ZM85.44 207.14C84.9867 207.14 84.6 206.987 84.28 206.68C83.96 206.36 83.8 205.96 83.8 205.48C83.8 204.973 83.96 204.573 84.28 204.28C84.6 203.973 84.9867 203.82 85.44 203.82C85.8933 203.82 86.28 203.973 86.6 204.28C86.92 204.573 87.08 204.973 87.08 205.48C87.08 205.96 86.92 206.36 86.6 206.68C86.28 206.987 85.8933 207.14 85.44 207.14ZM29.16 231.1C28.16 231.1 27.26 230.873 26.46 230.42C25.6733 229.967 25.0533 229.34 24.6 228.54C24.1467 227.727 23.92 226.793 23.92 225.74C23.92 224.673 24.1467 223.74 24.6 222.94C25.0533 222.14 25.6733 221.52 26.46 221.08C27.26 220.627 28.16 220.4 29.16 220.4C30.08 220.4 30.9 220.607 31.62 221.02C32.3533 221.433 32.9333 222.04 33.36 222.84C33.8 223.627 34.02 224.593 34.02 225.74C34.02 226.873 33.8067 227.84 33.38 228.64C32.9533 229.44 32.3733 230.053 31.64 230.48C30.92 230.893 30.0933 231.1 29.16 231.1ZM29.26 229.84C30.0067 229.84 30.6733 229.673 31.26 229.34C31.86 228.993 32.3267 228.513 32.66 227.9C33.0067 227.273 33.18 226.553 33.18 225.74C33.18 224.913 33.0067 224.193 32.66 223.58C32.3267 222.967 31.86 222.493 31.26 222.16C30.6733 221.813 30.0067 221.64 29.26 221.64C28.5267 221.64 27.8667 221.813 27.28 222.16C26.6933 222.493 26.2267 222.967 25.88 223.58C25.5333 224.193 25.36 224.913 25.36 225.74C25.36 226.553 25.5333 227.273 25.88 227.9C26.2267 228.513 26.6933 228.993 27.28 229.34C27.8667 229.673 28.5267 229.84 29.26 229.84ZM33.22 231V227.84L33.36 225.72L33.16 223.6V216.16H34.58V231H33.22ZM42.8147 231.1C41.8014 231.1 40.888 230.873 40.0747 230.42C39.2747 229.953 38.6414 229.32 38.1747 228.52C37.708 227.707 37.4747 226.78 37.4747 225.74C37.4747 224.687 37.708 223.76 38.1747 222.96C38.6414 222.16 39.2747 221.533 40.0747 221.08C40.8747 220.627 41.788 220.4 42.8147 220.4C43.8547 220.4 44.7747 220.627 45.5747 221.08C46.388 221.533 47.0214 222.16 47.4747 222.96C47.9414 223.76 48.1747 224.687 48.1747 225.74C48.1747 226.78 47.9414 227.707 47.4747 228.52C47.0214 229.32 46.388 229.953 45.5747 230.42C44.7614 230.873 43.8414 231.1 42.8147 231.1ZM42.8147 229.84C43.5747 229.84 44.248 229.673 44.8347 229.34C45.4214 228.993 45.8814 228.513 46.2147 227.9C46.5614 227.273 46.7347 226.553 46.7347 225.74C46.7347 224.913 46.5614 224.193 46.2147 223.58C45.8814 222.967 45.4214 222.493 44.8347 222.16C44.248 221.813 43.5814 221.64 42.8347 221.64C42.088 221.64 41.4214 221.813 40.8347 222.16C40.248 222.493 39.7814 222.967 39.4347 223.58C39.088 224.193 38.9147 224.913 38.9147 225.74C38.9147 226.553 39.088 227.273 39.4347 227.9C39.7814 228.513 40.248 228.993 40.8347 229.34C41.4214 229.673 42.0814 229.84 42.8147 229.84ZM54.7081 231L59.1481 225.24L59.1281 225.94L54.9081 220.5H56.5081L59.9681 225L59.3681 224.98L62.8281 220.5H64.3881L60.1281 226L60.1481 225.24L64.6281 231H63.0081L59.3481 226.2L59.9081 226.28L56.3081 231H54.7081Z" fill="black"/>
<path d="M223 318.5V137.027C223 134.255 225.255 132.012 228.027 132.027L372.192 132.804C374.114 132.815 375.86 133.926 376.683 135.664L419.486 226.02C420.128 227.375 420.128 228.946 419.486 230.301L376.692 320.641C375.864 322.387 374.105 323.5 372.173 323.5H228C225.239 323.5 223 321.261 223 318.5Z" fill="#FFD633"/>
<path d="M250.75 177.297C249.364 177.297 248.036 177.116 246.765 176.752C245.495 176.373 244.472 175.886 243.696 175.292L245.057 172.272C245.8 172.8 246.674 173.238 247.681 173.584C248.704 173.914 249.735 174.079 250.775 174.079C251.567 174.079 252.202 174.005 252.681 173.856C253.176 173.691 253.539 173.469 253.77 173.188C254.001 172.908 254.117 172.586 254.117 172.223C254.117 171.761 253.935 171.398 253.572 171.134C253.209 170.853 252.731 170.63 252.136 170.465C251.542 170.284 250.882 170.119 250.156 169.97C249.447 169.805 248.729 169.607 248.003 169.376C247.293 169.145 246.641 168.848 246.047 168.485C245.453 168.122 244.967 167.644 244.587 167.05C244.224 166.456 244.043 165.697 244.043 164.772C244.043 163.782 244.307 162.883 244.835 162.074C245.379 161.249 246.188 160.598 247.26 160.119C248.349 159.624 249.711 159.376 251.344 159.376C252.433 159.376 253.506 159.509 254.562 159.773C255.618 160.02 256.551 160.4 257.359 160.911L256.122 163.956C255.313 163.494 254.504 163.155 253.696 162.941C252.887 162.71 252.095 162.594 251.32 162.594C250.544 162.594 249.909 162.685 249.414 162.867C248.919 163.048 248.564 163.287 248.349 163.584C248.135 163.865 248.028 164.195 248.028 164.574C248.028 165.02 248.209 165.383 248.572 165.664C248.935 165.928 249.414 166.142 250.008 166.307C250.602 166.472 251.254 166.637 251.963 166.802C252.689 166.967 253.407 167.157 254.117 167.371C254.843 167.586 255.503 167.875 256.097 168.238C256.691 168.601 257.169 169.079 257.532 169.673C257.912 170.267 258.102 171.018 258.102 171.926C258.102 172.899 257.829 173.79 257.285 174.599C256.74 175.408 255.924 176.059 254.834 176.554C253.762 177.05 252.4 177.297 250.75 177.297ZM264.189 177V162.941H258.645V159.674H273.743V162.941H268.199V177H264.189ZM272.753 177L280.476 159.674H284.436L292.184 177H287.976L281.639 161.703H283.224L276.862 177H272.753ZM276.615 173.287L277.679 170.243H286.59L287.679 173.287H276.615ZM302.106 177.297C300.736 177.297 299.474 177.083 298.319 176.653C297.18 176.208 296.182 175.581 295.324 174.772C294.482 173.964 293.822 173.015 293.344 171.926C292.882 170.837 292.651 169.64 292.651 168.337C292.651 167.033 292.882 165.837 293.344 164.748C293.822 163.659 294.491 162.71 295.349 161.901C296.207 161.093 297.213 160.474 298.368 160.045C299.523 159.599 300.794 159.376 302.18 159.376C303.715 159.376 305.093 159.632 306.314 160.144C307.551 160.655 308.591 161.398 309.433 162.371L306.858 164.748C306.231 164.088 305.546 163.601 304.804 163.287C304.061 162.957 303.253 162.792 302.378 162.792C301.537 162.792 300.769 162.924 300.076 163.188C299.383 163.452 298.781 163.832 298.269 164.327C297.774 164.822 297.387 165.408 297.106 166.084C296.842 166.761 296.71 167.512 296.71 168.337C296.71 169.145 296.842 169.888 297.106 170.564C297.387 171.241 297.774 171.835 298.269 172.347C298.781 172.842 299.375 173.221 300.052 173.485C300.745 173.749 301.504 173.881 302.329 173.881C303.121 173.881 303.888 173.757 304.631 173.51C305.39 173.246 306.124 172.809 306.834 172.198L309.111 175.094C308.17 175.804 307.073 176.348 305.819 176.728C304.581 177.107 303.344 177.297 302.106 177.297ZM305.447 174.574V168.064H309.111V175.094L305.447 174.574ZM316.524 166.654H324.865V169.772H316.524V166.654ZM316.821 173.782H326.251V177H312.836V159.674H325.929V162.891H316.821V173.782ZM335.214 177V174.401L341.897 168.089C342.425 167.611 342.813 167.182 343.06 166.802C343.308 166.423 343.473 166.076 343.555 165.763C343.654 165.449 343.704 165.16 343.704 164.896C343.704 164.203 343.465 163.675 342.986 163.312C342.524 162.933 341.839 162.743 340.932 162.743C340.206 162.743 339.529 162.883 338.902 163.164C338.292 163.444 337.772 163.881 337.343 164.475L334.422 162.594C335.082 161.604 336.006 160.82 337.194 160.243C338.382 159.665 339.752 159.376 341.303 159.376C342.59 159.376 343.712 159.591 344.669 160.02C345.643 160.433 346.394 161.018 346.922 161.777C347.466 162.537 347.739 163.444 347.739 164.5C347.739 165.061 347.664 165.622 347.516 166.183C347.384 166.728 347.103 167.305 346.674 167.916C346.262 168.527 345.651 169.211 344.843 169.97L339.298 175.193L338.531 173.733H348.308V177H335.214Z" fill="black"/>
<path d="M252.26 264.24C251.14 264.24 250.067 264.093 249.04 263.8C248.013 263.493 247.187 263.1 246.56 262.62L247.66 260.18C248.26 260.607 248.967 260.96 249.78 261.24C250.607 261.507 251.44 261.64 252.28 261.64C252.92 261.64 253.433 261.58 253.82 261.46C254.22 261.327 254.513 261.147 254.7 260.92C254.887 260.693 254.98 260.433 254.98 260.14C254.98 259.767 254.833 259.473 254.54 259.26C254.247 259.033 253.86 258.853 253.38 258.72C252.9 258.573 252.367 258.44 251.78 258.32C251.207 258.187 250.627 258.027 250.04 257.84C249.467 257.653 248.94 257.413 248.46 257.12C247.98 256.827 247.587 256.44 247.28 255.96C246.987 255.48 246.84 254.867 246.84 254.12C246.84 253.32 247.053 252.593 247.48 251.94C247.92 251.273 248.573 250.747 249.44 250.36C250.32 249.96 251.42 249.76 252.74 249.76C253.62 249.76 254.487 249.867 255.34 250.08C256.193 250.28 256.947 250.587 257.6 251L256.6 253.46C255.947 253.087 255.293 252.813 254.64 252.64C253.987 252.453 253.347 252.36 252.72 252.36C252.093 252.36 251.58 252.433 251.18 252.58C250.78 252.727 250.493 252.92 250.32 253.16C250.147 253.387 250.06 253.653 250.06 253.96C250.06 254.32 250.207 254.613 250.5 254.84C250.793 255.053 251.18 255.227 251.66 255.36C252.14 255.493 252.667 255.627 253.24 255.76C253.827 255.893 254.407 256.047 254.98 256.22C255.567 256.393 256.1 256.627 256.58 256.92C257.06 257.213 257.447 257.6 257.74 258.08C258.047 258.56 258.2 259.167 258.2 259.9C258.2 260.687 257.98 261.407 257.54 262.06C257.1 262.713 256.44 263.24 255.56 263.64C254.693 264.04 253.593 264.24 252.26 264.24ZM264.594 264.16C263.327 264.16 262.341 263.84 261.634 263.2C260.927 262.547 260.574 261.58 260.574 260.3V250.86H263.694V260.26C263.694 260.713 263.814 261.067 264.054 261.32C264.294 261.56 264.621 261.68 265.034 261.68C265.527 261.68 265.947 261.547 266.294 261.28L267.134 263.48C266.814 263.707 266.427 263.88 265.974 264C265.534 264.107 265.074 264.16 264.594 264.16ZM258.914 255.88V253.48H266.374V255.88H258.914ZM273.893 264.16C272.667 264.16 271.587 263.92 270.653 263.44C269.733 262.96 269.02 262.307 268.513 261.48C268.007 260.64 267.753 259.687 267.753 258.62C267.753 257.54 268 256.587 268.493 255.76C269 254.92 269.687 254.267 270.553 253.8C271.42 253.32 272.4 253.08 273.493 253.08C274.547 253.08 275.493 253.307 276.333 253.76C277.187 254.2 277.86 254.84 278.353 255.68C278.847 256.507 279.093 257.5 279.093 258.66C279.093 258.78 279.087 258.92 279.073 259.08C279.06 259.227 279.047 259.367 279.033 259.5H270.293V257.68H277.393L276.193 258.22C276.193 257.66 276.08 257.173 275.853 256.76C275.627 256.347 275.313 256.027 274.913 255.8C274.513 255.56 274.047 255.44 273.513 255.44C272.98 255.44 272.507 255.56 272.093 255.8C271.693 256.027 271.38 256.353 271.153 256.78C270.927 257.193 270.813 257.687 270.813 258.26V258.74C270.813 259.327 270.94 259.847 271.193 260.3C271.46 260.74 271.827 261.08 272.293 261.32C272.773 261.547 273.333 261.66 273.973 261.66C274.547 261.66 275.047 261.573 275.473 261.4C275.913 261.227 276.313 260.967 276.673 260.62L278.333 262.42C277.84 262.98 277.22 263.413 276.473 263.72C275.727 264.013 274.867 264.16 273.893 264.16ZM287.53 264.16C286.624 264.16 285.83 263.96 285.15 263.56C284.47 263.16 283.937 262.553 283.55 261.74C283.177 260.913 282.99 259.873 282.99 258.62C282.99 257.353 283.17 256.313 283.53 255.5C283.89 254.687 284.41 254.08 285.09 253.68C285.77 253.28 286.584 253.08 287.53 253.08C288.544 253.08 289.45 253.313 290.25 253.78C291.064 254.233 291.704 254.873 292.17 255.7C292.65 256.527 292.89 257.5 292.89 258.62C292.89 259.753 292.65 260.733 292.17 261.56C291.704 262.387 291.064 263.027 290.25 263.48C289.45 263.933 288.544 264.16 287.53 264.16ZM281.17 267.88V253.24H284.15V255.44L284.09 258.64L284.29 261.82V267.88H281.17ZM286.99 261.6C287.51 261.6 287.97 261.48 288.37 261.24C288.784 261 289.11 260.66 289.35 260.22C289.604 259.767 289.73 259.233 289.73 258.62C289.73 257.993 289.604 257.46 289.35 257.02C289.11 256.58 288.784 256.24 288.37 256C287.97 255.76 287.51 255.64 286.99 255.64C286.47 255.64 286.004 255.76 285.59 256C285.177 256.24 284.85 256.58 284.61 257.02C284.37 257.46 284.25 257.993 284.25 258.62C284.25 259.233 284.37 259.767 284.61 260.22C284.85 260.66 285.177 261 285.59 261.24C286.004 261.48 286.47 261.6 286.99 261.6ZM307.183 253.08C308.036 253.08 308.796 253.253 309.463 253.6C310.143 253.933 310.676 254.453 311.063 255.16C311.45 255.853 311.643 256.747 311.643 257.84V264H308.523V258.32C308.523 257.453 308.33 256.813 307.943 256.4C307.57 255.987 307.036 255.78 306.343 255.78C305.85 255.78 305.403 255.887 305.003 256.1C304.616 256.3 304.31 256.613 304.083 257.04C303.87 257.467 303.763 258.013 303.763 258.68V264H300.643V253.24H303.623V256.22L303.063 255.32C303.45 254.6 304.003 254.047 304.723 253.66C305.443 253.273 306.263 253.08 307.183 253.08ZM315.651 256.98C315.118 256.98 314.658 256.8 314.271 256.44C313.898 256.067 313.711 255.593 313.711 255.02C313.711 254.447 313.898 253.987 314.271 253.64C314.658 253.28 315.118 253.1 315.651 253.1C316.198 253.1 316.658 253.28 317.031 253.64C317.405 253.987 317.591 254.447 317.591 255.02C317.591 255.593 317.405 256.067 317.031 256.44C316.658 256.8 316.198 256.98 315.651 256.98ZM315.651 264.16C315.118 264.16 314.658 263.98 314.271 263.62C313.898 263.247 313.711 262.773 313.711 262.2C313.711 261.627 313.898 261.167 314.271 260.82C314.658 260.46 315.118 260.28 315.651 260.28C316.198 260.28 316.658 260.46 317.031 260.82C317.405 261.167 317.591 261.627 317.591 262.2C317.591 262.773 317.405 263.247 317.031 263.62C316.658 263.98 316.198 264.16 315.651 264.16ZM252.16 288.14C251.133 288.14 250.207 287.913 249.38 287.46C248.567 286.993 247.927 286.353 247.46 285.54C246.993 284.727 246.76 283.767 246.76 282.66C246.76 281.553 246.993 280.593 247.46 279.78C247.927 278.967 248.567 278.333 249.38 277.88C250.207 277.427 251.133 277.2 252.16 277.2C253.053 277.2 253.853 277.4 254.56 277.8C255.267 278.187 255.827 278.78 256.24 279.58C256.653 280.38 256.86 281.407 256.86 282.66C256.86 283.9 256.66 284.927 256.26 285.74C255.86 286.54 255.307 287.14 254.6 287.54C253.893 287.94 253.08 288.14 252.16 288.14ZM252.46 286C253.06 286 253.593 285.867 254.06 285.6C254.54 285.333 254.92 284.947 255.2 284.44C255.493 283.933 255.64 283.34 255.64 282.66C255.64 281.967 255.493 281.373 255.2 280.88C254.92 280.373 254.54 279.987 254.06 279.72C253.593 279.453 253.06 279.32 252.46 279.32C251.86 279.32 251.32 279.453 250.84 279.72C250.373 279.987 249.993 280.373 249.7 280.88C249.42 281.373 249.28 281.967 249.28 282.66C249.28 283.34 249.42 283.933 249.7 284.44C249.993 284.947 250.373 285.333 250.84 285.6C251.32 285.867 251.86 286 252.46 286ZM255.7 288V285.48L255.8 282.64L255.6 279.8V273.16H258.08V288H255.7ZM266.17 288.14C265.077 288.14 264.104 287.907 263.25 287.44C262.397 286.96 261.724 286.307 261.23 285.48C260.737 284.653 260.49 283.713 260.49 282.66C260.49 281.593 260.737 280.653 261.23 279.84C261.724 279.013 262.397 278.367 263.25 277.9C264.104 277.433 265.077 277.2 266.17 277.2C267.277 277.2 268.257 277.433 269.11 277.9C269.977 278.367 270.65 279.007 271.13 279.82C271.624 280.633 271.87 281.58 271.87 282.66C271.87 283.713 271.624 284.653 271.13 285.48C270.65 286.307 269.977 286.96 269.11 287.44C268.257 287.907 267.277 288.14 266.17 288.14ZM266.17 286C266.784 286 267.33 285.867 267.81 285.6C268.29 285.333 268.664 284.947 268.93 284.44C269.21 283.933 269.35 283.34 269.35 282.66C269.35 281.967 269.21 281.373 268.93 280.88C268.664 280.373 268.29 279.987 267.81 279.72C267.33 279.453 266.79 279.32 266.19 279.32C265.577 279.32 265.03 279.453 264.55 279.72C264.084 279.987 263.71 280.373 263.43 280.88C263.15 281.373 263.01 281.967 263.01 282.66C263.01 283.34 263.15 283.933 263.43 284.44C263.71 284.947 264.084 285.333 264.55 285.6C265.03 285.867 265.57 286 266.17 286ZM285.848 277.2C286.702 277.2 287.462 277.367 288.128 277.7C288.808 278.033 289.342 278.547 289.728 279.24C290.115 279.92 290.308 280.8 290.308 281.88V288H287.808V282.2C287.808 281.253 287.582 280.547 287.128 280.08C286.688 279.613 286.068 279.38 285.268 279.38C284.682 279.38 284.162 279.5 283.708 279.74C283.255 279.98 282.902 280.34 282.648 280.82C282.408 281.287 282.288 281.88 282.288 282.6V288H279.788V277.32H282.168V280.2L281.748 279.32C282.122 278.64 282.662 278.12 283.368 277.76C284.088 277.387 284.915 277.2 285.848 277.2ZM294.55 288V275L295.69 276.18H291.59V274H297.15V288H294.55ZM252.16 312.1C251.16 312.1 250.26 311.873 249.46 311.42C248.673 310.967 248.053 310.34 247.6 309.54C247.147 308.727 246.92 307.793 246.92 306.74C246.92 305.673 247.147 304.74 247.6 303.94C248.053 303.14 248.673 302.52 249.46 302.08C250.26 301.627 251.16 301.4 252.16 301.4C253.08 301.4 253.9 301.607 254.62 302.02C255.353 302.433 255.933 303.04 256.36 303.84C256.8 304.627 257.02 305.593 257.02 306.74C257.02 307.873 256.807 308.84 256.38 309.64C255.953 310.44 255.373 311.053 254.64 311.48C253.92 311.893 253.093 312.1 252.16 312.1ZM252.26 310.84C253.007 310.84 253.673 310.673 254.26 310.34C254.86 309.993 255.327 309.513 255.66 308.9C256.007 308.273 256.18 307.553 256.18 306.74C256.18 305.913 256.007 305.193 255.66 304.58C255.327 303.967 254.86 303.493 254.26 303.16C253.673 302.813 253.007 302.64 252.26 302.64C251.527 302.64 250.867 302.813 250.28 303.16C249.693 303.493 249.227 303.967 248.88 304.58C248.533 305.193 248.36 305.913 248.36 306.74C248.36 307.553 248.533 308.273 248.88 308.9C249.227 309.513 249.693 309.993 250.28 310.34C250.867 310.673 251.527 310.84 252.26 310.84ZM256.22 312V308.84L256.36 306.72L256.16 304.6V297.16H257.58V312H256.22ZM265.815 312.1C264.801 312.1 263.888 311.873 263.075 311.42C262.275 310.953 261.641 310.32 261.175 309.52C260.708 308.707 260.475 307.78 260.475 306.74C260.475 305.687 260.708 304.76 261.175 303.96C261.641 303.16 262.275 302.533 263.075 302.08C263.875 301.627 264.788 301.4 265.815 301.4C266.855 301.4 267.775 301.627 268.575 302.08C269.388 302.533 270.021 303.16 270.475 303.96C270.941 304.76 271.175 305.687 271.175 306.74C271.175 307.78 270.941 308.707 270.475 309.52C270.021 310.32 269.388 310.953 268.575 311.42C267.761 311.873 266.841 312.1 265.815 312.1ZM265.815 310.84C266.575 310.84 267.248 310.673 267.835 310.34C268.421 309.993 268.881 309.513 269.215 308.9C269.561 308.273 269.735 307.553 269.735 306.74C269.735 305.913 269.561 305.193 269.215 304.58C268.881 303.967 268.421 303.493 267.835 303.16C267.248 302.813 266.581 302.64 265.835 302.64C265.088 302.64 264.421 302.813 263.835 303.16C263.248 303.493 262.781 303.967 262.435 304.58C262.088 305.193 261.915 305.913 261.915 306.74C261.915 307.553 262.088 308.273 262.435 308.9C262.781 309.513 263.248 309.993 263.835 310.34C264.421 310.673 265.081 310.84 265.815 310.84ZM284.668 301.4C285.521 301.4 286.268 301.567 286.908 301.9C287.561 302.22 288.068 302.713 288.428 303.38C288.801 304.047 288.988 304.887 288.988 305.9V312H287.568V306.04C287.568 304.933 287.288 304.1 286.728 303.54C286.181 302.967 285.408 302.68 284.408 302.68C283.661 302.68 283.008 302.833 282.448 303.14C281.901 303.433 281.475 303.867 281.168 304.44C280.875 305 280.728 305.68 280.728 306.48V312H279.308V301.5H280.668V304.38L280.448 303.84C280.781 303.08 281.315 302.487 282.048 302.06C282.781 301.62 283.655 301.4 284.668 301.4ZM291.526 312V310.98L297.346 305.28C297.879 304.76 298.279 304.307 298.546 303.92C298.813 303.52 298.993 303.147 299.086 302.8C299.179 302.453 299.226 302.127 299.226 301.82C299.226 301.007 298.946 300.367 298.386 299.9C297.839 299.433 297.026 299.2 295.946 299.2C295.119 299.2 294.386 299.327 293.746 299.58C293.119 299.833 292.579 300.227 292.126 300.76L291.106 299.88C291.653 299.24 292.353 298.747 293.206 298.4C294.059 298.053 295.013 297.88 296.066 297.88C297.013 297.88 297.833 298.033 298.526 298.34C299.219 298.633 299.753 299.067 300.126 299.64C300.513 300.213 300.706 300.887 300.706 301.66C300.706 302.113 300.639 302.56 300.506 303C300.386 303.44 300.159 303.907 299.826 304.4C299.506 304.88 299.033 305.427 298.406 306.04L293.066 311.28L292.666 310.72H301.346V312H291.526Z" fill="black"/>
<path d="M252.22 207.2C251.127 207.2 250.08 207.047 249.08 206.74C248.08 206.42 247.287 206.013 246.7 205.52L247.6 203.5C248.16 203.94 248.853 204.307 249.68 204.6C250.507 204.893 251.353 205.04 252.22 205.04C252.953 205.04 253.547 204.96 254 204.8C254.453 204.64 254.787 204.427 255 204.16C255.213 203.88 255.32 203.567 255.32 203.22C255.32 202.793 255.167 202.453 254.86 202.2C254.553 201.933 254.153 201.727 253.66 201.58C253.18 201.42 252.64 201.273 252.04 201.14C251.453 201.007 250.86 200.853 250.26 200.68C249.673 200.493 249.133 200.26 248.64 199.98C248.16 199.687 247.767 199.3 247.46 198.82C247.153 198.34 247 197.727 247 196.98C247 196.22 247.2 195.527 247.6 194.9C248.013 194.26 248.633 193.753 249.46 193.38C250.3 192.993 251.36 192.8 252.64 192.8C253.48 192.8 254.313 192.907 255.14 193.12C255.967 193.333 256.687 193.64 257.3 194.04L256.48 196.06C255.853 195.687 255.207 195.413 254.54 195.24C253.873 195.053 253.233 194.96 252.62 194.96C251.9 194.96 251.313 195.047 250.86 195.22C250.42 195.393 250.093 195.62 249.88 195.9C249.68 196.18 249.58 196.5 249.58 196.86C249.58 197.287 249.727 197.633 250.02 197.9C250.327 198.153 250.72 198.353 251.2 198.5C251.693 198.647 252.24 198.793 252.84 198.94C253.44 199.073 254.033 199.227 254.62 199.4C255.22 199.573 255.76 199.8 256.24 200.08C256.733 200.36 257.127 200.74 257.42 201.22C257.727 201.7 257.88 202.307 257.88 203.04C257.88 203.787 257.673 204.48 257.26 205.12C256.86 205.747 256.24 206.253 255.4 206.64C254.56 207.013 253.5 207.2 252.22 207.2ZM264.238 207.14C263.065 207.14 262.158 206.84 261.518 206.24C260.878 205.627 260.558 204.727 260.558 203.54V193.96H263.058V203.48C263.058 203.987 263.185 204.38 263.438 204.66C263.705 204.94 264.071 205.08 264.538 205.08C265.098 205.08 265.565 204.933 265.938 204.64L266.638 206.42C266.345 206.66 265.985 206.84 265.558 206.96C265.131 207.08 264.691 207.14 264.238 207.14ZM258.798 198.4V196.4H265.918V198.4H258.798ZM273.363 207.14C272.176 207.14 271.136 206.907 270.243 206.44C269.363 205.96 268.676 205.307 268.183 204.48C267.703 203.653 267.463 202.713 267.463 201.66C267.463 200.593 267.696 199.653 268.163 198.84C268.643 198.013 269.296 197.367 270.123 196.9C270.963 196.433 271.916 196.2 272.983 196.2C274.023 196.2 274.95 196.427 275.763 196.88C276.576 197.333 277.216 197.973 277.683 198.8C278.15 199.627 278.383 200.6 278.383 201.72C278.383 201.827 278.376 201.947 278.363 202.08C278.363 202.213 278.356 202.34 278.343 202.46H269.443V200.8H277.023L276.043 201.32C276.056 200.707 275.93 200.167 275.663 199.7C275.396 199.233 275.03 198.867 274.563 198.6C274.11 198.333 273.583 198.2 272.983 198.2C272.37 198.2 271.83 198.333 271.363 198.6C270.91 198.867 270.55 199.24 270.283 199.72C270.03 200.187 269.903 200.74 269.903 201.38V201.78C269.903 202.42 270.05 202.987 270.343 203.48C270.636 203.973 271.05 204.353 271.583 204.62C272.116 204.887 272.73 205.02 273.423 205.02C274.023 205.02 274.563 204.927 275.043 204.74C275.523 204.553 275.95 204.26 276.323 203.86L277.663 205.4C277.183 205.96 276.576 206.393 275.843 206.7C275.123 206.993 274.296 207.14 273.363 207.14ZM286.705 207.14C285.838 207.14 285.045 206.94 284.325 206.54C283.618 206.14 283.051 205.54 282.625 204.74C282.211 203.927 282.005 202.9 282.005 201.66C282.005 200.407 282.205 199.38 282.605 198.58C283.018 197.78 283.578 197.187 284.285 196.8C284.991 196.4 285.798 196.2 286.705 196.2C287.758 196.2 288.685 196.427 289.485 196.88C290.298 197.333 290.938 197.967 291.405 198.78C291.885 199.593 292.125 200.553 292.125 201.66C292.125 202.767 291.885 203.733 291.405 204.56C290.938 205.373 290.298 206.007 289.485 206.46C288.685 206.913 287.758 207.14 286.705 207.14ZM280.785 210.88V196.32H283.165V198.84L283.085 201.68L283.285 204.52V210.88H280.785ZM286.425 205C287.025 205 287.558 204.867 288.025 204.6C288.505 204.333 288.885 203.947 289.165 203.44C289.445 202.933 289.585 202.34 289.585 201.66C289.585 200.967 289.445 200.373 289.165 199.88C288.885 199.373 288.505 198.987 288.025 198.72C287.558 198.453 287.025 198.32 286.425 198.32C285.825 198.32 285.285 198.453 284.805 198.72C284.325 198.987 283.945 199.373 283.665 199.88C283.385 200.373 283.245 200.967 283.245 201.66C283.245 202.34 283.385 202.933 283.665 203.44C283.945 203.947 284.325 204.333 284.805 204.6C285.285 204.867 285.825 205 286.425 205ZM301.503 207V194L302.643 195.18H298.543V193H304.103V207H301.503ZM308.44 199.52C307.987 199.52 307.6 199.367 307.28 199.06C306.96 198.74 306.8 198.34 306.8 197.86C306.8 197.353 306.96 196.953 307.28 196.66C307.6 196.353 307.987 196.2 308.44 196.2C308.893 196.2 309.28 196.353 309.6 196.66C309.92 196.953 310.08 197.353 310.08 197.86C310.08 198.34 309.92 198.74 309.6 199.06C309.28 199.367 308.893 199.52 308.44 199.52ZM308.44 207.14C307.987 207.14 307.6 206.987 307.28 206.68C306.96 206.36 306.8 205.96 306.8 205.48C306.8 204.973 306.96 204.573 307.28 204.28C307.6 203.973 307.987 203.82 308.44 203.82C308.893 203.82 309.28 203.973 309.6 204.28C309.92 204.573 310.08 204.973 310.08 205.48C310.08 205.96 309.92 206.36 309.6 206.68C309.28 206.987 308.893 207.14 308.44 207.14ZM252.16 231.1C251.16 231.1 250.26 230.873 249.46 230.42C248.673 229.967 248.053 229.34 247.6 228.54C247.147 227.727 246.92 226.793 246.92 225.74C246.92 224.673 247.147 223.74 247.6 222.94C248.053 222.14 248.673 221.52 249.46 221.08C250.26 220.627 251.16 220.4 252.16 220.4C253.08 220.4 253.9 220.607 254.62 221.02C255.353 221.433 255.933 222.04 256.36 222.84C256.8 223.627 257.02 224.593 257.02 225.74C257.02 226.873 256.807 227.84 256.38 228.64C255.953 229.44 255.373 230.053 254.64 230.48C253.92 230.893 253.093 231.1 252.16 231.1ZM252.26 229.84C253.007 229.84 253.673 229.673 254.26 229.34C254.86 228.993 255.327 228.513 255.66 227.9C256.007 227.273 256.18 226.553 256.18 225.74C256.18 224.913 256.007 224.193 255.66 223.58C255.327 222.967 254.86 222.493 254.26 222.16C253.673 221.813 253.007 221.64 252.26 221.64C251.527 221.64 250.867 221.813 250.28 222.16C249.693 222.493 249.227 222.967 248.88 223.58C248.533 224.193 248.36 224.913 248.36 225.74C248.36 226.553 248.533 227.273 248.88 227.9C249.227 228.513 249.693 228.993 250.28 229.34C250.867 229.673 251.527 229.84 252.26 229.84ZM256.22 231V227.84L256.36 225.72L256.16 223.6V216.16H257.58V231H256.22ZM265.815 231.1C264.801 231.1 263.888 230.873 263.075 230.42C262.275 229.953 261.641 229.32 261.175 228.52C260.708 227.707 260.475 226.78 260.475 225.74C260.475 224.687 260.708 223.76 261.175 222.96C261.641 222.16 262.275 221.533 263.075 221.08C263.875 220.627 264.788 220.4 265.815 220.4C266.855 220.4 267.775 220.627 268.575 221.08C269.388 221.533 270.021 222.16 270.475 222.96C270.941 223.76 271.175 224.687 271.175 225.74C271.175 226.78 270.941 227.707 270.475 228.52C270.021 229.32 269.388 229.953 268.575 230.42C267.761 230.873 266.841 231.1 265.815 231.1ZM265.815 229.84C266.575 229.84 267.248 229.673 267.835 229.34C268.421 228.993 268.881 228.513 269.215 227.9C269.561 227.273 269.735 226.553 269.735 225.74C269.735 224.913 269.561 224.193 269.215 223.58C268.881 222.967 268.421 222.493 267.835 222.16C267.248 221.813 266.581 221.64 265.835 221.64C265.088 221.64 264.421 221.813 263.835 222.16C263.248 222.493 262.781 222.967 262.435 223.58C262.088 224.193 261.915 224.913 261.915 225.74C261.915 226.553 262.088 227.273 262.435 227.9C262.781 228.513 263.248 228.993 263.835 229.34C264.421 229.673 265.081 229.84 265.815 229.84ZM279.388 234.98C278.895 234.98 278.421 234.9 277.968 234.74C277.528 234.58 277.148 234.34 276.828 234.02L277.488 232.96C277.755 233.213 278.041 233.407 278.348 233.54C278.668 233.687 279.021 233.76 279.408 233.76C279.875 233.76 280.275 233.627 280.608 233.36C280.955 233.107 281.281 232.653 281.588 232L282.268 230.46L282.428 230.24L286.748 220.5H288.148L282.888 232.26C282.595 232.94 282.268 233.48 281.908 233.88C281.561 234.28 281.181 234.56 280.768 234.72C280.355 234.893 279.895 234.98 279.388 234.98ZM282.188 231.3L277.348 220.5H278.828L283.108 230.14L282.188 231.3Z" fill="black"/>
<path d="M636 318.5V137.027C636 134.255 638.255 132.012 641.027 132.027L785.192 132.804C787.114 132.815 788.86 133.926 789.683 135.664L832.486 226.02C833.128 227.375 833.128 228.946 832.486 230.301L789.692 320.641C788.864 322.387 787.105 323.5 785.173 323.5H641C638.239 323.5 636 321.261 636 318.5Z" fill="#FFD633"/>
<path d="M661.055 177.297C659.669 177.297 658.341 177.116 657.07 176.752C655.799 176.373 654.776 175.886 654.001 175.292L655.362 172.272C656.105 172.8 656.979 173.238 657.986 173.584C659.009 173.914 660.04 174.079 661.08 174.079C661.872 174.079 662.507 174.005 662.986 173.856C663.481 173.691 663.844 173.469 664.075 173.188C664.306 172.908 664.421 172.586 664.421 172.223C664.421 171.761 664.24 171.398 663.877 171.134C663.514 170.853 663.035 170.63 662.441 170.465C661.847 170.284 661.187 170.119 660.461 169.97C659.752 169.805 659.034 169.607 658.308 169.376C657.598 169.145 656.946 168.848 656.352 168.485C655.758 168.122 655.271 167.644 654.892 167.05C654.529 166.456 654.347 165.697 654.347 164.772C654.347 163.782 654.611 162.883 655.139 162.074C655.684 161.249 656.493 160.598 657.565 160.119C658.654 159.624 660.016 159.376 661.649 159.376C662.738 159.376 663.811 159.509 664.867 159.773C665.923 160.02 666.855 160.4 667.664 160.911L666.426 163.956C665.618 163.494 664.809 163.155 664.001 162.941C663.192 162.71 662.4 162.594 661.624 162.594C660.849 162.594 660.214 162.685 659.719 162.867C659.223 163.048 658.869 163.287 658.654 163.584C658.44 163.865 658.332 164.195 658.332 164.574C658.332 165.02 658.514 165.383 658.877 165.664C659.24 165.928 659.719 166.142 660.313 166.307C660.907 166.472 661.558 166.637 662.268 166.802C662.994 166.967 663.712 167.157 664.421 167.371C665.148 167.586 665.808 167.875 666.402 168.238C666.996 168.601 667.474 169.079 667.837 169.673C668.217 170.267 668.407 171.018 668.407 171.926C668.407 172.899 668.134 173.79 667.59 174.599C667.045 175.408 666.228 176.059 665.139 176.554C664.067 177.05 662.705 177.297 661.055 177.297ZM674.494 177V162.941H668.949V159.674H684.048V162.941H678.504V177H674.494ZM683.058 177L690.781 159.674H694.741L702.489 177H698.281L691.944 161.703H693.528L687.167 177H683.058ZM686.92 173.287L687.984 170.243H696.895L697.984 173.287H686.92ZM712.411 177.297C711.041 177.297 709.779 177.083 708.624 176.653C707.485 176.208 706.487 175.581 705.629 174.772C704.787 173.964 704.127 173.015 703.649 171.926C703.186 170.837 702.955 169.64 702.955 168.337C702.955 167.033 703.186 165.837 703.649 164.748C704.127 163.659 704.795 162.71 705.653 161.901C706.512 161.093 707.518 160.474 708.673 160.045C709.828 159.599 711.099 159.376 712.485 159.376C714.02 159.376 715.398 159.632 716.619 160.144C717.856 160.655 718.896 161.398 719.737 162.371L717.163 164.748C716.536 164.088 715.851 163.601 715.109 163.287C714.366 162.957 713.558 162.792 712.683 162.792C711.841 162.792 711.074 162.924 710.381 163.188C709.688 163.452 709.086 163.832 708.574 164.327C708.079 164.822 707.691 165.408 707.411 166.084C707.147 166.761 707.015 167.512 707.015 168.337C707.015 169.145 707.147 169.888 707.411 170.564C707.691 171.241 708.079 171.835 708.574 172.347C709.086 172.842 709.68 173.221 710.356 173.485C711.049 173.749 711.808 173.881 712.634 173.881C713.426 173.881 714.193 173.757 714.935 173.51C715.695 173.246 716.429 172.809 717.138 172.198L719.416 175.094C718.475 175.804 717.378 176.348 716.124 176.728C714.886 177.107 713.648 177.297 712.411 177.297ZM715.752 174.574V168.064H719.416V175.094L715.752 174.574ZM726.828 166.654H735.17V169.772H726.828V166.654ZM727.126 173.782H736.556V177H723.14V159.674H736.234V162.891H727.126V173.782ZM746.756 177V159.674H750.073L760.296 172.149H758.687V159.674H762.647V177H759.355L749.108 164.525H750.717V177H746.756Z" fill="black"/>
<path d="M665.26 264.24C664.14 264.24 663.067 264.093 662.04 263.8C661.013 263.493 660.187 263.1 659.56 262.62L660.66 260.18C661.26 260.607 661.967 260.96 662.78 261.24C663.607 261.507 664.44 261.64 665.28 261.64C665.92 261.64 666.433 261.58 666.82 261.46C667.22 261.327 667.513 261.147 667.7 260.92C667.887 260.693 667.98 260.433 667.98 260.14C667.98 259.767 667.833 259.473 667.54 259.26C667.247 259.033 666.86 258.853 666.38 258.72C665.9 258.573 665.367 258.44 664.78 258.32C664.207 258.187 663.627 258.027 663.04 257.84C662.467 257.653 661.94 257.413 661.46 257.12C660.98 256.827 660.587 256.44 660.28 255.96C659.987 255.48 659.84 254.867 659.84 254.12C659.84 253.32 660.053 252.593 660.48 251.94C660.92 251.273 661.573 250.747 662.44 250.36C663.32 249.96 664.42 249.76 665.74 249.76C666.62 249.76 667.487 249.867 668.34 250.08C669.193 250.28 669.947 250.587 670.6 251L669.6 253.46C668.947 253.087 668.293 252.813 667.64 252.64C666.987 252.453 666.347 252.36 665.72 252.36C665.093 252.36 664.58 252.433 664.18 252.58C663.78 252.727 663.493 252.92 663.32 253.16C663.147 253.387 663.06 253.653 663.06 253.96C663.06 254.32 663.207 254.613 663.5 254.84C663.793 255.053 664.18 255.227 664.66 255.36C665.14 255.493 665.667 255.627 666.24 255.76C666.827 255.893 667.407 256.047 667.98 256.22C668.567 256.393 669.1 256.627 669.58 256.92C670.06 257.213 670.447 257.6 670.74 258.08C671.047 258.56 671.2 259.167 671.2 259.9C671.2 260.687 670.98 261.407 670.54 262.06C670.1 262.713 669.44 263.24 668.56 263.64C667.693 264.04 666.593 264.24 665.26 264.24ZM677.594 264.16C676.327 264.16 675.341 263.84 674.634 263.2C673.927 262.547 673.574 261.58 673.574 260.3V250.86H676.694V260.26C676.694 260.713 676.814 261.067 677.054 261.32C677.294 261.56 677.621 261.68 678.034 261.68C678.527 261.68 678.947 261.547 679.294 261.28L680.134 263.48C679.814 263.707 679.427 263.88 678.974 264C678.534 264.107 678.074 264.16 677.594 264.16ZM671.914 255.88V253.48H679.374V255.88H671.914ZM686.893 264.16C685.667 264.16 684.587 263.92 683.653 263.44C682.733 262.96 682.02 262.307 681.513 261.48C681.007 260.64 680.753 259.687 680.753 258.62C680.753 257.54 681 256.587 681.493 255.76C682 254.92 682.687 254.267 683.553 253.8C684.42 253.32 685.4 253.08 686.493 253.08C687.547 253.08 688.493 253.307 689.333 253.76C690.187 254.2 690.86 254.84 691.353 255.68C691.847 256.507 692.093 257.5 692.093 258.66C692.093 258.78 692.087 258.92 692.073 259.08C692.06 259.227 692.047 259.367 692.033 259.5H683.293V257.68H690.393L689.193 258.22C689.193 257.66 689.08 257.173 688.853 256.76C688.627 256.347 688.313 256.027 687.913 255.8C687.513 255.56 687.047 255.44 686.513 255.44C685.98 255.44 685.507 255.56 685.093 255.8C684.693 256.027 684.38 256.353 684.153 256.78C683.927 257.193 683.813 257.687 683.813 258.26V258.74C683.813 259.327 683.94 259.847 684.193 260.3C684.46 260.74 684.827 261.08 685.293 261.32C685.773 261.547 686.333 261.66 686.973 261.66C687.547 261.66 688.047 261.573 688.473 261.4C688.913 261.227 689.313 260.967 689.673 260.62L691.333 262.42C690.84 262.98 690.22 263.413 689.473 263.72C688.727 264.013 687.867 264.16 686.893 264.16ZM700.53 264.16C699.624 264.16 698.83 263.96 698.15 263.56C697.47 263.16 696.937 262.553 696.55 261.74C696.177 260.913 695.99 259.873 695.99 258.62C695.99 257.353 696.17 256.313 696.53 255.5C696.89 254.687 697.41 254.08 698.09 253.68C698.77 253.28 699.584 253.08 700.53 253.08C701.544 253.08 702.45 253.313 703.25 253.78C704.064 254.233 704.704 254.873 705.17 255.7C705.65 256.527 705.89 257.5 705.89 258.62C705.89 259.753 705.65 260.733 705.17 261.56C704.704 262.387 704.064 263.027 703.25 263.48C702.45 263.933 701.544 264.16 700.53 264.16ZM694.17 267.88V253.24H697.15V255.44L697.09 258.64L697.29 261.82V267.88H694.17ZM699.99 261.6C700.51 261.6 700.97 261.48 701.37 261.24C701.784 261 702.11 260.66 702.35 260.22C702.604 259.767 702.73 259.233 702.73 258.62C702.73 257.993 702.604 257.46 702.35 257.02C702.11 256.58 701.784 256.24 701.37 256C700.97 255.76 700.51 255.64 699.99 255.64C699.47 255.64 699.004 255.76 698.59 256C698.177 256.24 697.85 256.58 697.61 257.02C697.37 257.46 697.25 257.993 697.25 258.62C697.25 259.233 697.37 259.767 697.61 260.22C697.85 260.66 698.177 261 698.59 261.24C699.004 261.48 699.47 261.6 699.99 261.6ZM720.183 253.08C721.036 253.08 721.796 253.253 722.463 253.6C723.143 253.933 723.676 254.453 724.063 255.16C724.45 255.853 724.643 256.747 724.643 257.84V264H721.523V258.32C721.523 257.453 721.33 256.813 720.943 256.4C720.57 255.987 720.036 255.78 719.343 255.78C718.85 255.78 718.403 255.887 718.003 256.1C717.616 256.3 717.31 256.613 717.083 257.04C716.87 257.467 716.763 258.013 716.763 258.68V264H713.643V253.24H716.623V256.22L716.063 255.32C716.45 254.6 717.003 254.047 717.723 253.66C718.443 253.273 719.263 253.08 720.183 253.08ZM728.651 256.98C728.118 256.98 727.658 256.8 727.271 256.44C726.898 256.067 726.711 255.593 726.711 255.02C726.711 254.447 726.898 253.987 727.271 253.64C727.658 253.28 728.118 253.1 728.651 253.1C729.198 253.1 729.658 253.28 730.031 253.64C730.405 253.987 730.591 254.447 730.591 255.02C730.591 255.593 730.405 256.067 730.031 256.44C729.658 256.8 729.198 256.98 728.651 256.98ZM728.651 264.16C728.118 264.16 727.658 263.98 727.271 263.62C726.898 263.247 726.711 262.773 726.711 262.2C726.711 261.627 726.898 261.167 727.271 260.82C727.658 260.46 728.118 260.28 728.651 260.28C729.198 260.28 729.658 260.46 730.031 260.82C730.405 261.167 730.591 261.627 730.591 262.2C730.591 262.773 730.405 263.247 730.031 263.62C729.658 263.98 729.198 264.16 728.651 264.16ZM665.16 288.14C664.133 288.14 663.207 287.913 662.38 287.46C661.567 286.993 660.927 286.353 660.46 285.54C659.993 284.727 659.76 283.767 659.76 282.66C659.76 281.553 659.993 280.593 660.46 279.78C660.927 278.967 661.567 278.333 662.38 277.88C663.207 277.427 664.133 277.2 665.16 277.2C666.053 277.2 666.853 277.4 667.56 277.8C668.267 278.187 668.827 278.78 669.24 279.58C669.653 280.38 669.86 281.407 669.86 282.66C669.86 283.9 669.66 284.927 669.26 285.74C668.86 286.54 668.307 287.14 667.6 287.54C666.893 287.94 666.08 288.14 665.16 288.14ZM665.46 286C666.06 286 666.593 285.867 667.06 285.6C667.54 285.333 667.92 284.947 668.2 284.44C668.493 283.933 668.64 283.34 668.64 282.66C668.64 281.967 668.493 281.373 668.2 280.88C667.92 280.373 667.54 279.987 667.06 279.72C666.593 279.453 666.06 279.32 665.46 279.32C664.86 279.32 664.32 279.453 663.84 279.72C663.373 279.987 662.993 280.373 662.7 280.88C662.42 281.373 662.28 281.967 662.28 282.66C662.28 283.34 662.42 283.933 662.7 284.44C662.993 284.947 663.373 285.333 663.84 285.6C664.32 285.867 664.86 286 665.46 286ZM668.7 288V285.48L668.8 282.64L668.6 279.8V273.16H671.08V288H668.7ZM679.17 288.14C678.077 288.14 677.104 287.907 676.25 287.44C675.397 286.96 674.724 286.307 674.23 285.48C673.737 284.653 673.49 283.713 673.49 282.66C673.49 281.593 673.737 280.653 674.23 279.84C674.724 279.013 675.397 278.367 676.25 277.9C677.104 277.433 678.077 277.2 679.17 277.2C680.277 277.2 681.257 277.433 682.11 277.9C682.977 278.367 683.65 279.007 684.13 279.82C684.624 280.633 684.87 281.58 684.87 282.66C684.87 283.713 684.624 284.653 684.13 285.48C683.65 286.307 682.977 286.96 682.11 287.44C681.257 287.907 680.277 288.14 679.17 288.14ZM679.17 286C679.784 286 680.33 285.867 680.81 285.6C681.29 285.333 681.664 284.947 681.93 284.44C682.21 283.933 682.35 283.34 682.35 282.66C682.35 281.967 682.21 281.373 681.93 280.88C681.664 280.373 681.29 279.987 680.81 279.72C680.33 279.453 679.79 279.32 679.19 279.32C678.577 279.32 678.03 279.453 677.55 279.72C677.084 279.987 676.71 280.373 676.43 280.88C676.15 281.373 676.01 281.967 676.01 282.66C676.01 283.34 676.15 283.933 676.43 284.44C676.71 284.947 677.084 285.333 677.55 285.6C678.03 285.867 678.57 286 679.17 286ZM698.848 277.2C699.702 277.2 700.462 277.367 701.128 277.7C701.808 278.033 702.342 278.547 702.728 279.24C703.115 279.92 703.308 280.8 703.308 281.88V288H700.808V282.2C700.808 281.253 700.582 280.547 700.128 280.08C699.688 279.613 699.068 279.38 698.268 279.38C697.682 279.38 697.162 279.5 696.708 279.74C696.255 279.98 695.902 280.34 695.648 280.82C695.408 281.287 695.288 281.88 695.288 282.6V288H692.788V277.32H695.168V280.2L694.748 279.32C695.122 278.64 695.662 278.12 696.368 277.76C697.088 277.387 697.915 277.2 698.848 277.2ZM707.55 288V275L708.69 276.18H704.59V274H710.15V288H707.55ZM665.16 312.1C664.16 312.1 663.26 311.873 662.46 311.42C661.673 310.967 661.053 310.34 660.6 309.54C660.147 308.727 659.92 307.793 659.92 306.74C659.92 305.673 660.147 304.74 660.6 303.94C661.053 303.14 661.673 302.52 662.46 302.08C663.26 301.627 664.16 301.4 665.16 301.4C666.08 301.4 666.9 301.607 667.62 302.02C668.353 302.433 668.933 303.04 669.36 303.84C669.8 304.627 670.02 305.593 670.02 306.74C670.02 307.873 669.807 308.84 669.38 309.64C668.953 310.44 668.373 311.053 667.64 311.48C666.92 311.893 666.093 312.1 665.16 312.1ZM665.26 310.84C666.007 310.84 666.673 310.673 667.26 310.34C667.86 309.993 668.327 309.513 668.66 308.9C669.007 308.273 669.18 307.553 669.18 306.74C669.18 305.913 669.007 305.193 668.66 304.58C668.327 303.967 667.86 303.493 667.26 303.16C666.673 302.813 666.007 302.64 665.26 302.64C664.527 302.64 663.867 302.813 663.28 303.16C662.693 303.493 662.227 303.967 661.88 304.58C661.533 305.193 661.36 305.913 661.36 306.74C661.36 307.553 661.533 308.273 661.88 308.9C662.227 309.513 662.693 309.993 663.28 310.34C663.867 310.673 664.527 310.84 665.26 310.84ZM669.22 312V308.84L669.36 306.72L669.16 304.6V297.16H670.58V312H669.22ZM678.815 312.1C677.801 312.1 676.888 311.873 676.075 311.42C675.275 310.953 674.641 310.32 674.175 309.52C673.708 308.707 673.475 307.78 673.475 306.74C673.475 305.687 673.708 304.76 674.175 303.96C674.641 303.16 675.275 302.533 676.075 302.08C676.875 301.627 677.788 301.4 678.815 301.4C679.855 301.4 680.775 301.627 681.575 302.08C682.388 302.533 683.021 303.16 683.475 303.96C683.941 304.76 684.175 305.687 684.175 306.74C684.175 307.78 683.941 308.707 683.475 309.52C683.021 310.32 682.388 310.953 681.575 311.42C680.761 311.873 679.841 312.1 678.815 312.1ZM678.815 310.84C679.575 310.84 680.248 310.673 680.835 310.34C681.421 309.993 681.881 309.513 682.215 308.9C682.561 308.273 682.735 307.553 682.735 306.74C682.735 305.913 682.561 305.193 682.215 304.58C681.881 303.967 681.421 303.493 680.835 303.16C680.248 302.813 679.581 302.64 678.835 302.64C678.088 302.64 677.421 302.813 676.835 303.16C676.248 303.493 675.781 303.967 675.435 304.58C675.088 305.193 674.915 305.913 674.915 306.74C674.915 307.553 675.088 308.273 675.435 308.9C675.781 309.513 676.248 309.993 676.835 310.34C677.421 310.673 678.081 310.84 678.815 310.84ZM697.668 301.4C698.521 301.4 699.268 301.567 699.908 301.9C700.561 302.22 701.068 302.713 701.428 303.38C701.801 304.047 701.988 304.887 701.988 305.9V312H700.568V306.04C700.568 304.933 700.288 304.1 699.728 303.54C699.181 302.967 698.408 302.68 697.408 302.68C696.661 302.68 696.008 302.833 695.448 303.14C694.901 303.433 694.475 303.867 694.168 304.44C693.875 305 693.728 305.68 693.728 306.48V312H692.308V301.5H693.668V304.38L693.448 303.84C693.781 303.08 694.315 302.487 695.048 302.06C695.781 301.62 696.655 301.4 697.668 301.4ZM704.526 312V310.98L710.346 305.28C710.879 304.76 711.279 304.307 711.546 303.92C711.813 303.52 711.993 303.147 712.086 302.8C712.179 302.453 712.226 302.127 712.226 301.82C712.226 301.007 711.946 300.367 711.386 299.9C710.839 299.433 710.026 299.2 708.946 299.2C708.119 299.2 707.386 299.327 706.746 299.58C706.119 299.833 705.579 300.227 705.126 300.76L704.106 299.88C704.653 299.24 705.353 298.747 706.206 298.4C707.059 298.053 708.013 297.88 709.066 297.88C710.013 297.88 710.833 298.033 711.526 298.34C712.219 298.633 712.753 299.067 713.126 299.64C713.513 300.213 713.706 300.887 713.706 301.66C713.706 302.113 713.639 302.56 713.506 303C713.386 303.44 713.159 303.907 712.826 304.4C712.506 304.88 712.033 305.427 711.406 306.04L706.066 311.28L705.666 310.72H714.346V312H704.526Z" fill="black"/>
<path d="M665.22 207.2C664.127 207.2 663.08 207.047 662.08 206.74C661.08 206.42 660.287 206.013 659.7 205.52L660.6 203.5C661.16 203.94 661.853 204.307 662.68 204.6C663.507 204.893 664.353 205.04 665.22 205.04C665.953 205.04 666.547 204.96 667 204.8C667.453 204.64 667.787 204.427 668 204.16C668.213 203.88 668.32 203.567 668.32 203.22C668.32 202.793 668.167 202.453 667.86 202.2C667.553 201.933 667.153 201.727 666.66 201.58C666.18 201.42 665.64 201.273 665.04 201.14C664.453 201.007 663.86 200.853 663.26 200.68C662.673 200.493 662.133 200.26 661.64 199.98C661.16 199.687 660.767 199.3 660.46 198.82C660.153 198.34 660 197.727 660 196.98C660 196.22 660.2 195.527 660.6 194.9C661.013 194.26 661.633 193.753 662.46 193.38C663.3 192.993 664.36 192.8 665.64 192.8C666.48 192.8 667.313 192.907 668.14 193.12C668.967 193.333 669.687 193.64 670.3 194.04L669.48 196.06C668.853 195.687 668.207 195.413 667.54 195.24C666.873 195.053 666.233 194.96 665.62 194.96C664.9 194.96 664.313 195.047 663.86 195.22C663.42 195.393 663.093 195.62 662.88 195.9C662.68 196.18 662.58 196.5 662.58 196.86C662.58 197.287 662.727 197.633 663.02 197.9C663.327 198.153 663.72 198.353 664.2 198.5C664.693 198.647 665.24 198.793 665.84 198.94C666.44 199.073 667.033 199.227 667.62 199.4C668.22 199.573 668.76 199.8 669.24 200.08C669.733 200.36 670.127 200.74 670.42 201.22C670.727 201.7 670.88 202.307 670.88 203.04C670.88 203.787 670.673 204.48 670.26 205.12C669.86 205.747 669.24 206.253 668.4 206.64C667.56 207.013 666.5 207.2 665.22 207.2ZM677.238 207.14C676.065 207.14 675.158 206.84 674.518 206.24C673.878 205.627 673.558 204.727 673.558 203.54V193.96H676.058V203.48C676.058 203.987 676.185 204.38 676.438 204.66C676.705 204.94 677.071 205.08 677.538 205.08C678.098 205.08 678.565 204.933 678.938 204.64L679.638 206.42C679.345 206.66 678.985 206.84 678.558 206.96C678.131 207.08 677.691 207.14 677.238 207.14ZM671.798 198.4V196.4H678.918V198.4H671.798ZM686.363 207.14C685.176 207.14 684.136 206.907 683.243 206.44C682.363 205.96 681.676 205.307 681.183 204.48C680.703 203.653 680.463 202.713 680.463 201.66C680.463 200.593 680.696 199.653 681.163 198.84C681.643 198.013 682.296 197.367 683.123 196.9C683.963 196.433 684.916 196.2 685.983 196.2C687.023 196.2 687.95 196.427 688.763 196.88C689.576 197.333 690.216 197.973 690.683 198.8C691.15 199.627 691.383 200.6 691.383 201.72C691.383 201.827 691.376 201.947 691.363 202.08C691.363 202.213 691.356 202.34 691.343 202.46H682.443V200.8H690.023L689.043 201.32C689.056 200.707 688.93 200.167 688.663 199.7C688.396 199.233 688.03 198.867 687.563 198.6C687.11 198.333 686.583 198.2 685.983 198.2C685.37 198.2 684.83 198.333 684.363 198.6C683.91 198.867 683.55 199.24 683.283 199.72C683.03 200.187 682.903 200.74 682.903 201.38V201.78C682.903 202.42 683.05 202.987 683.343 203.48C683.636 203.973 684.05 204.353 684.583 204.62C685.116 204.887 685.73 205.02 686.423 205.02C687.023 205.02 687.563 204.927 688.043 204.74C688.523 204.553 688.95 204.26 689.323 203.86L690.663 205.4C690.183 205.96 689.576 206.393 688.843 206.7C688.123 206.993 687.296 207.14 686.363 207.14ZM699.705 207.14C698.838 207.14 698.045 206.94 697.325 206.54C696.618 206.14 696.051 205.54 695.625 204.74C695.211 203.927 695.005 202.9 695.005 201.66C695.005 200.407 695.205 199.38 695.605 198.58C696.018 197.78 696.578 197.187 697.285 196.8C697.991 196.4 698.798 196.2 699.705 196.2C700.758 196.2 701.685 196.427 702.485 196.88C703.298 197.333 703.938 197.967 704.405 198.78C704.885 199.593 705.125 200.553 705.125 201.66C705.125 202.767 704.885 203.733 704.405 204.56C703.938 205.373 703.298 206.007 702.485 206.46C701.685 206.913 700.758 207.14 699.705 207.14ZM693.785 210.88V196.32H696.165V198.84L696.085 201.68L696.285 204.52V210.88H693.785ZM699.425 205C700.025 205 700.558 204.867 701.025 204.6C701.505 204.333 701.885 203.947 702.165 203.44C702.445 202.933 702.585 202.34 702.585 201.66C702.585 200.967 702.445 200.373 702.165 199.88C701.885 199.373 701.505 198.987 701.025 198.72C700.558 198.453 700.025 198.32 699.425 198.32C698.825 198.32 698.285 198.453 697.805 198.72C697.325 198.987 696.945 199.373 696.665 199.88C696.385 200.373 696.245 200.967 696.245 201.66C696.245 202.34 696.385 202.933 696.665 203.44C696.945 203.947 697.325 204.333 697.805 204.6C698.285 204.867 698.825 205 699.425 205ZM714.503 207V194L715.643 195.18H711.543V193H717.103V207H714.503ZM721.44 199.52C720.987 199.52 720.6 199.367 720.28 199.06C719.96 198.74 719.8 198.34 719.8 197.86C719.8 197.353 719.96 196.953 720.28 196.66C720.6 196.353 720.987 196.2 721.44 196.2C721.893 196.2 722.28 196.353 722.6 196.66C722.92 196.953 723.08 197.353 723.08 197.86C723.08 198.34 722.92 198.74 722.6 199.06C722.28 199.367 721.893 199.52 721.44 199.52ZM721.44 207.14C720.987 207.14 720.6 206.987 720.28 206.68C719.96 206.36 719.8 205.96 719.8 205.48C719.8 204.973 719.96 204.573 720.28 204.28C720.6 203.973 720.987 203.82 721.44 203.82C721.893 203.82 722.28 203.973 722.6 204.28C722.92 204.573 723.08 204.973 723.08 205.48C723.08 205.96 722.92 206.36 722.6 206.68C722.28 206.987 721.893 207.14 721.44 207.14ZM665.16 231.1C664.16 231.1 663.26 230.873 662.46 230.42C661.673 229.967 661.053 229.34 660.6 228.54C660.147 227.727 659.92 226.793 659.92 225.74C659.92 224.673 660.147 223.74 660.6 222.94C661.053 222.14 661.673 221.52 662.46 221.08C663.26 220.627 664.16 220.4 665.16 220.4C666.08 220.4 666.9 220.607 667.62 221.02C668.353 221.433 668.933 222.04 669.36 222.84C669.8 223.627 670.02 224.593 670.02 225.74C670.02 226.873 669.807 227.84 669.38 228.64C668.953 229.44 668.373 230.053 667.64 230.48C666.92 230.893 666.093 231.1 665.16 231.1ZM665.26 229.84C666.007 229.84 666.673 229.673 667.26 229.34C667.86 228.993 668.327 228.513 668.66 227.9C669.007 227.273 669.18 226.553 669.18 225.74C669.18 224.913 669.007 224.193 668.66 223.58C668.327 222.967 667.86 222.493 667.26 222.16C666.673 221.813 666.007 221.64 665.26 221.64C664.527 221.64 663.867 221.813 663.28 222.16C662.693 222.493 662.227 222.967 661.88 223.58C661.533 224.193 661.36 224.913 661.36 225.74C661.36 226.553 661.533 227.273 661.88 227.9C662.227 228.513 662.693 228.993 663.28 229.34C663.867 229.673 664.527 229.84 665.26 229.84ZM669.22 231V227.84L669.36 225.72L669.16 223.6V216.16H670.58V231H669.22ZM678.815 231.1C677.801 231.1 676.888 230.873 676.075 230.42C675.275 229.953 674.641 229.32 674.175 228.52C673.708 227.707 673.475 226.78 673.475 225.74C673.475 224.687 673.708 223.76 674.175 222.96C674.641 222.16 675.275 221.533 676.075 221.08C676.875 220.627 677.788 220.4 678.815 220.4C679.855 220.4 680.775 220.627 681.575 221.08C682.388 221.533 683.021 222.16 683.475 222.96C683.941 223.76 684.175 224.687 684.175 225.74C684.175 226.78 683.941 227.707 683.475 228.52C683.021 229.32 682.388 229.953 681.575 230.42C680.761 230.873 679.841 231.1 678.815 231.1ZM678.815 229.84C679.575 229.84 680.248 229.673 680.835 229.34C681.421 228.993 681.881 228.513 682.215 227.9C682.561 227.273 682.735 226.553 682.735 225.74C682.735 224.913 682.561 224.193 682.215 223.58C681.881 222.967 681.421 222.493 680.835 222.16C680.248 221.813 679.581 221.64 678.835 221.64C678.088 221.64 677.421 221.813 676.835 222.16C676.248 222.493 675.781 222.967 675.435 223.58C675.088 224.193 674.915 224.913 674.915 225.74C674.915 226.553 675.088 227.273 675.435 227.9C675.781 228.513 676.248 228.993 676.835 229.34C677.421 229.673 678.081 229.84 678.815 229.84ZM691.168 231V230.06L698.168 221.2L698.468 221.68H691.288V220.5H699.588V221.42L692.608 230.3L692.248 229.82H699.728V231H691.168Z" fill="black"/>
<circle cx="528.5" cy="227.5" r="17.5" fill="#FFD633"/>
<circle cx="463.5" cy="227.5" r="17.5" fill="#FFD633"/>
<circle cx="593.5" cy="227.5" r="17.5" fill="#FFD633"/>
</g>
<defs>
<clipPath id="clip0_202_379">
<rect width="833.5" height="323.5" fill="white"/>
</clipPath>
</defs>
</svg>
