<svg width="305" height="804" viewBox="0 0 305 804" fill="none" xmlns="http://www.w3.org/2000/svg">
<g clip-path="url(#clip0_107_34)">
<circle cx="152.254" cy="20.1794" r="18.8489" fill="#60A394" stroke="#F8F8F8" stroke-width="2.66099"/>
<path d="M125.498 55.3383C130.681 46.8386 138.247 43.5249 140.611 42.6603C141.08 42.4888 141.589 42.5476 142.043 42.7561C142.861 43.1316 144.356 43.7483 146.32 44.2562C149.004 44.9504 151.546 44.892 152.122 44.8677C152.203 44.8642 152.282 44.8642 152.364 44.8677C152.939 44.8919 155.482 44.9505 158.167 44.2562C160.132 43.7482 161.629 43.1314 162.446 42.7559C162.9 42.5476 163.409 42.4888 163.878 42.6601C166.242 43.5244 173.811 46.838 178.997 55.3383C183.752 63.133 183.851 71.1127 183.636 74.4307C183.575 75.3588 182.791 76.0283 181.861 76.0283H122.635C121.705 76.0283 120.922 75.3587 120.861 74.4306C120.646 71.1125 120.745 63.1329 125.498 55.3383Z" fill="#60A394" stroke="#F8F8F8" stroke-width="2.66099"/>
<rect x="0.294678" y="107.58" width="304.113" height="190.071" rx="5" fill="#FB6233"/>
<rect x="0.294678" y="107.58" width="304.113" height="190.071" rx="5" fill="white" fill-opacity="0.8"/>
<rect x="0.674805" y="613.929" width="304.113" height="190.071" rx="5" fill="#FB6233"/>
<rect x="0.674805" y="613.929" width="304.113" height="190.071" rx="5" fill="white" fill-opacity="0.4"/>
<rect x="0.294678" y="303.733" width="304.113" height="152.057" rx="5" fill="#FB6233"/>
<rect x="0.294678" y="303.733" width="304.113" height="152.057" rx="5" fill="white" fill-opacity="0.6"/>
<rect x="0.294678" y="417.776" width="304.113" height="190.071" rx="5" fill="#FB6233"/>
<rect x="0.294678" y="417.776" width="304.113" height="190.071" rx="5" fill="white" fill-opacity="0.6"/>
<rect x="76.323" y="145.594" width="152.057" height="76.0284" rx="1.90071" fill="#F8F8F8"/>
<rect x="76.7031" y="651.943" width="152.057" height="76.0284" rx="1.90071" fill="#F8F8F8"/>
<rect x="76.323" y="341.748" width="152.057" height="76.0284" rx="1.90071" fill="#F8F8F8"/>
<rect x="76.323" y="455.79" width="152.057" height="76.0284" rx="1.90071" fill="#F8F8F8"/>
<path d="M147.023 84.3332C147.023 83.7355 147.507 83.251 148.105 83.251H156.762C157.36 83.251 157.844 83.7355 157.844 84.3332V121.212L164.09 114.966C164.512 114.544 165.198 114.544 165.62 114.966L170.211 119.558C170.634 119.98 170.634 120.665 170.211 121.088L153.283 138.055C152.909 138.429 152.329 138.472 151.908 138.183C151.845 138.142 151.785 138.094 151.73 138.039L134.802 121.103C134.379 120.681 134.379 119.996 134.802 119.573L139.393 114.982C139.816 114.559 140.501 114.559 140.924 114.982L147.023 121.081V84.3332Z" fill="#FB6233"/>
<path d="M147.023 420.759C147.023 420.161 147.507 419.677 148.105 419.677H156.762C157.36 419.677 157.845 420.161 157.845 420.759L157.844 436.887L164.09 430.642C164.512 430.219 165.198 430.219 165.62 430.642L170.211 435.233C170.634 435.656 170.634 436.341 170.211 436.763L153.283 453.73C152.909 454.104 152.329 454.147 151.908 453.858C151.845 453.818 151.785 453.77 151.73 453.715L134.802 436.779C134.379 436.356 134.379 435.671 134.802 435.248L139.393 430.657C139.816 430.234 140.501 430.234 140.924 430.657L147.023 436.756L147.023 420.759Z" fill="#FB6233"/>
<path d="M147.023 229.167C147.023 228.569 147.507 228.085 148.105 228.085H156.762C157.36 228.085 157.844 228.569 157.844 229.167V318.258L164.09 312.013C164.512 311.59 165.198 311.59 165.62 312.013L170.211 316.604C170.634 317.027 170.634 317.712 170.211 318.134L153.283 335.101C152.909 335.475 152.329 335.518 151.908 335.23C151.845 335.189 151.785 335.141 151.73 335.086L134.802 318.15C134.379 317.727 134.379 317.042 134.802 316.619L139.393 312.028C139.816 311.605 140.501 311.605 140.924 312.028L147.023 318.127V229.167Z" fill="#FB6233"/>
<path d="M147.023 539.743C147.023 539.146 147.507 538.661 148.105 538.661H156.762C157.36 538.661 157.844 539.146 157.844 539.743V627.75L164.09 621.505C164.512 621.082 165.198 621.082 165.62 621.505L170.211 626.096C170.634 626.519 170.634 627.204 170.211 627.627L153.283 644.593C152.909 644.967 152.329 645.01 151.908 644.722C151.845 644.681 151.785 644.633 151.73 644.578L134.802 627.642C134.379 627.219 134.379 626.534 134.802 626.112L139.393 621.52C139.816 621.098 140.501 621.098 140.924 621.52L147.023 627.619V539.743Z" fill="#FB6233"/>
<path d="M21.4624 279.103C20.0757 279.103 18.9874 278.713 18.1978 277.933C17.4177 277.153 17.0277 276.026 17.0277 274.553V268.847H18.9056V274.481C18.9056 275.521 19.1271 276.277 19.5701 276.749C20.0227 277.22 20.6583 277.456 21.4769 277.456C22.2954 277.456 22.9262 277.22 23.3692 276.749C23.8122 276.277 24.0337 275.521 24.0337 274.481V268.847H25.8827V274.553C25.8827 276.026 25.4879 277.153 24.6982 277.933C23.9181 278.713 22.8395 279.103 21.4624 279.103ZM31.6473 279.103C30.8576 279.103 30.1017 278.992 29.3794 278.771C28.6571 278.54 28.0841 278.246 27.6604 277.89L28.3104 276.431C28.7149 276.749 29.2157 277.013 29.8127 277.225C30.4098 277.437 31.0213 277.543 31.6473 277.543C32.177 277.543 32.6055 277.485 32.933 277.37C33.2604 277.254 33.5011 277.1 33.6552 276.907C33.8093 276.705 33.8863 276.479 33.8863 276.229C33.8863 275.92 33.7756 275.675 33.5541 275.492C33.3326 275.299 33.0437 275.15 32.6874 275.044C32.3407 274.928 31.9507 274.823 31.5173 274.726C31.0936 274.63 30.665 274.519 30.2317 274.394C29.8079 274.259 29.4179 274.091 29.0616 273.888C28.7149 273.677 28.4308 273.397 28.2093 273.051C27.9878 272.704 27.8771 272.261 27.8771 271.722C27.8771 271.173 28.0215 270.672 28.3104 270.219C28.609 269.757 29.0568 269.391 29.6539 269.121C30.2606 268.842 31.0262 268.703 31.9507 268.703C32.5574 268.703 33.1593 268.78 33.7563 268.934C34.3534 269.088 34.8735 269.309 35.3164 269.598L34.7242 271.057C34.2716 270.787 33.8045 270.59 33.323 270.465C32.8415 270.33 32.3792 270.263 31.9362 270.263C31.4162 270.263 30.9925 270.325 30.665 270.45C30.3472 270.576 30.1113 270.739 29.9572 270.942C29.8127 271.144 29.7405 271.375 29.7405 271.635C29.7405 271.943 29.8465 272.193 30.0583 272.386C30.2798 272.569 30.5639 272.714 30.9106 272.819C31.2669 272.925 31.6618 273.031 32.0951 273.137C32.5285 273.234 32.957 273.344 33.3808 273.469C33.8141 273.595 34.2041 273.758 34.5508 273.961C34.9072 274.163 35.1913 274.437 35.4031 274.784C35.6246 275.131 35.7354 275.569 35.7354 276.099C35.7354 276.638 35.5861 277.139 35.2876 277.601C34.9986 278.053 34.5508 278.419 33.9441 278.699C33.3374 278.968 32.5718 279.103 31.6473 279.103ZM39.3309 273.051H44.3579V274.596H39.3309V273.051ZM39.4754 277.384H45.1813V278.959H37.5975V268.847H44.9791V270.422H39.4754V277.384ZM47.2747 278.959V268.847H51.435C52.3306 268.847 53.0962 268.991 53.7318 269.28C54.3771 269.569 54.873 269.983 55.2197 270.523C55.5664 271.062 55.7397 271.702 55.7397 272.444C55.7397 273.185 55.5664 273.826 55.2197 274.365C54.873 274.895 54.3771 275.304 53.7318 275.593C53.0962 275.872 52.3306 276.012 51.435 276.012H48.3148L49.1526 275.16V278.959H47.2747ZM53.8907 278.959L51.3339 275.29H53.3418L55.9131 278.959H53.8907ZM49.1526 275.362L48.3148 274.466H51.3483C52.1765 274.466 52.7977 274.288 53.2118 273.932C53.6355 273.575 53.8474 273.079 53.8474 272.444C53.8474 271.799 53.6355 271.303 53.2118 270.956C52.7977 270.609 52.1765 270.436 51.3483 270.436H48.3148L49.1526 269.511V275.362ZM64.9676 279.103C64.178 279.103 63.422 278.992 62.6997 278.771C61.9774 278.54 61.4044 278.246 60.9807 277.89L61.6308 276.431C62.0352 276.749 62.536 277.013 63.1331 277.225C63.7302 277.437 64.3417 277.543 64.9676 277.543C65.4973 277.543 65.9259 277.485 66.2533 277.37C66.5807 277.254 66.8215 277.1 66.9756 276.907C67.1296 276.705 67.2067 276.479 67.2067 276.229C67.2067 275.92 67.0959 275.675 66.8744 275.492C66.6529 275.299 66.364 275.15 66.0077 275.044C65.661 274.928 65.271 274.823 64.8376 274.726C64.4139 274.63 63.9854 274.519 63.552 274.394C63.1283 274.259 62.7382 274.091 62.3819 273.888C62.0352 273.677 61.7511 273.397 61.5296 273.051C61.3081 272.704 61.1974 272.261 61.1974 271.722C61.1974 271.173 61.3418 270.672 61.6308 270.219C61.9293 269.757 62.3771 269.391 62.9742 269.121C63.5809 268.842 64.3465 268.703 65.271 268.703C65.8777 268.703 66.4796 268.78 67.0767 268.934C67.6737 269.088 68.1938 269.309 68.6368 269.598L68.0445 271.057C67.5919 270.787 67.1248 270.59 66.6433 270.465C66.1618 270.33 65.6995 270.263 65.2565 270.263C64.7365 270.263 64.3128 270.325 63.9854 270.45C63.6676 270.576 63.4316 270.739 63.2775 270.942C63.1331 271.144 63.0608 271.375 63.0608 271.635C63.0608 271.943 63.1668 272.193 63.3786 272.386C63.6001 272.569 63.8842 272.714 64.2309 272.819C64.5872 272.925 64.9821 273.031 65.4154 273.137C65.8488 273.234 66.2774 273.344 66.7011 273.469C67.1344 273.595 67.5245 273.758 67.8712 273.961C68.2275 274.163 68.5116 274.437 68.7234 274.784C68.9449 275.131 69.0557 275.569 69.0557 276.099C69.0557 276.638 68.9064 277.139 68.6079 277.601C68.319 278.053 67.8712 278.419 67.2645 278.699C66.6578 278.968 65.8921 279.103 64.9676 279.103ZM70.9178 278.959V268.847H75.0781C75.9737 268.847 76.7393 268.991 77.3749 269.28C78.0201 269.569 78.5161 269.983 78.8628 270.523C79.2094 271.062 79.3828 271.702 79.3828 272.444C79.3828 273.185 79.2094 273.826 78.8628 274.365C78.5161 274.904 78.0201 275.319 77.3749 275.607C76.7393 275.896 75.9737 276.041 75.0781 276.041H71.9579L72.7957 275.16V278.959H70.9178ZM72.7957 275.362L71.9579 274.452H74.9914C75.8196 274.452 76.4407 274.278 76.8548 273.932C77.2786 273.575 77.4904 273.079 77.4904 272.444C77.4904 271.799 77.2786 271.303 76.8548 270.956C76.4407 270.609 75.8196 270.436 74.9914 270.436H71.9579L72.7957 269.511V275.362ZM79.3202 278.959L83.8705 268.847H85.7195L90.2842 278.959H88.3196L84.4049 269.844H85.1561L81.2558 278.959H79.3202ZM81.4147 276.619L81.9203 275.145H87.3807L87.8863 276.619H81.4147ZM96.1094 279.103C95.339 279.103 94.6215 278.978 93.9571 278.728C93.3022 278.468 92.7292 278.106 92.2381 277.644C91.7565 277.172 91.381 276.619 91.1113 275.983C90.8417 275.347 90.7068 274.654 90.7068 273.903C90.7068 273.152 90.8417 272.458 91.1113 271.823C91.381 271.187 91.7614 270.638 92.2525 270.176C92.7436 269.704 93.3166 269.343 93.9715 269.093C94.6264 268.833 95.3438 268.703 96.1239 268.703C96.9521 268.703 97.708 268.847 98.3918 269.136C99.0755 269.415 99.6534 269.834 100.125 270.393L98.9118 271.534C98.5459 271.139 98.1366 270.845 97.684 270.653C97.2313 270.45 96.7402 270.349 96.2105 270.349C95.6809 270.349 95.1945 270.436 94.7515 270.609C94.3182 270.783 93.9378 271.028 93.6104 271.346C93.2926 271.664 93.0422 272.039 92.8592 272.473C92.6859 272.906 92.5992 273.383 92.5992 273.903C92.5992 274.423 92.6859 274.9 92.8592 275.333C93.0422 275.766 93.2926 276.142 93.6104 276.46C93.9378 276.777 94.3182 277.023 94.7515 277.196C95.1945 277.37 95.6809 277.456 96.2105 277.456C96.7402 277.456 97.2313 277.36 97.684 277.168C98.1366 276.965 98.5459 276.662 98.9118 276.257L100.125 277.413C99.6534 277.962 99.0755 278.381 98.3918 278.67C97.708 278.959 96.9472 279.103 96.1094 279.103ZM103.658 273.051H108.685V274.596H103.658V273.051ZM103.802 277.384H109.508V278.959H101.925V268.847H109.306V270.422H103.802V277.384Z" fill="black"/>
<path d="M21.9904 571.813C21.2007 571.813 20.4736 571.683 19.8092 571.423C19.1447 571.163 18.5669 570.801 18.0757 570.339C17.5846 569.867 17.2042 569.318 16.9345 568.692C16.6649 568.057 16.5301 567.363 16.5301 566.612C16.5301 565.861 16.6649 565.173 16.9345 564.547C17.2042 563.911 17.5846 563.362 18.0757 562.9C18.5669 562.428 19.1447 562.062 19.8092 561.802C20.4736 561.542 21.1959 561.412 21.976 561.412C22.7656 561.412 23.4879 561.542 24.1428 561.802C24.8073 562.062 25.3851 562.428 25.8762 562.9C26.3674 563.362 26.7478 563.911 27.0174 564.547C27.2871 565.173 27.4219 565.861 27.4219 566.612C27.4219 567.363 27.2871 568.057 27.0174 568.692C26.7478 569.328 26.3674 569.877 25.8762 570.339C25.3851 570.801 24.8073 571.163 24.1428 571.423C23.4879 571.683 22.7705 571.813 21.9904 571.813ZM21.976 570.166C22.4864 570.166 22.9583 570.079 23.3916 569.906C23.825 569.733 24.2006 569.487 24.5184 569.169C24.8362 568.842 25.0817 568.466 25.2551 568.042C25.438 567.609 25.5295 567.132 25.5295 566.612C25.5295 566.092 25.438 565.62 25.2551 565.197C25.0817 564.763 24.8362 564.388 24.5184 564.07C24.2006 563.743 23.825 563.492 23.3916 563.319C22.9583 563.145 22.4864 563.059 21.976 563.059C21.4656 563.059 20.9937 563.145 20.5603 563.319C20.1366 563.492 19.761 563.743 19.4336 564.07C19.1158 564.388 18.8654 564.763 18.6824 565.197C18.5091 565.62 18.4224 566.092 18.4224 566.612C18.4224 567.123 18.5091 567.595 18.6824 568.028C18.8654 568.461 19.1158 568.842 19.4336 569.169C19.7514 569.487 20.127 569.733 20.5603 569.906C20.9937 570.079 21.4656 570.166 21.976 570.166ZM29.4124 571.668V561.556H33.5727C34.4683 561.556 35.2339 561.701 35.8695 561.99C36.5147 562.279 37.0107 562.693 37.3574 563.232C37.7041 563.771 37.8774 564.412 37.8774 565.153C37.8774 565.895 37.7041 566.535 37.3574 567.075C37.0107 567.614 36.5147 568.028 35.8695 568.317C35.2339 568.606 34.4683 568.75 33.5727 568.75H30.4525L31.2903 567.869V571.668H29.4124ZM31.2903 568.071L30.4525 567.161H33.486C34.3142 567.161 34.9354 566.988 35.3495 566.641C35.7732 566.285 35.9851 565.789 35.9851 565.153C35.9851 564.508 35.7732 564.012 35.3495 563.665C34.9354 563.319 34.3142 563.145 33.486 563.145H30.4525L31.2903 562.221V568.071ZM41.4862 565.76H46.5132V567.306H41.4862V565.76ZM41.6306 570.094H47.3365V571.668H39.7527V561.556H47.1343V563.131H41.6306V570.094ZM49.43 571.668V561.556H53.5903C54.4859 561.556 55.2515 561.701 55.8871 561.99C56.5323 562.279 57.0283 562.693 57.375 563.232C57.7217 563.771 57.895 564.412 57.895 565.153C57.895 565.895 57.7217 566.535 57.375 567.075C57.0283 567.604 56.5323 568.014 55.8871 568.302C55.2515 568.582 54.4859 568.721 53.5903 568.721H50.4701L51.3079 567.869V571.668H49.43ZM56.046 571.668L53.4892 567.999H55.4971L58.0683 571.668H56.046ZM51.3079 568.071L50.4701 567.176H53.5036C54.3318 567.176 54.953 566.998 55.3671 566.641C55.7908 566.285 56.0027 565.789 56.0027 565.153C56.0027 564.508 55.7908 564.012 55.3671 563.665C54.953 563.319 54.3318 563.145 53.5036 563.145H50.4701L51.3079 562.221V568.071ZM58.5659 571.668L63.1162 561.556H64.9652L69.53 571.668H67.5654L63.6507 562.553H64.4019L60.5016 571.668H58.5659ZM60.6605 569.328L61.1661 567.855H66.6264L67.132 569.328H60.6605ZM72.3593 571.668V563.145H69.008V561.556H77.5886V563.145H74.2373V571.668H72.3593ZM78.9979 571.668V561.556H80.8758V571.668H78.9979ZM83.6108 571.668V561.556H85.1565L91.498 569.343H90.7324V561.556H92.5959V571.668H91.0502L84.7087 563.882H85.4743V571.668H83.6108ZM100.029 571.813C99.2394 571.813 98.5123 571.687 97.8478 571.437C97.1929 571.177 96.6199 570.816 96.1288 570.354C95.6376 569.882 95.2572 569.328 94.9876 568.692C94.7179 568.057 94.5831 567.363 94.5831 566.612C94.5831 565.861 94.7179 565.168 94.9876 564.532C95.2572 563.897 95.6376 563.348 96.1288 562.885C96.6296 562.414 97.2122 562.052 97.8767 561.802C98.5412 561.542 99.2682 561.412 100.058 561.412C100.915 561.412 101.685 561.552 102.369 561.831C103.063 562.11 103.645 562.519 104.117 563.059L102.933 564.214C102.538 563.82 102.109 563.531 101.647 563.348C101.194 563.155 100.694 563.059 100.145 563.059C99.6149 563.059 99.1238 563.145 98.6712 563.319C98.2185 563.492 97.8285 563.738 97.5011 564.055C97.1737 564.373 96.9185 564.749 96.7355 565.182C96.5621 565.616 96.4755 566.092 96.4755 566.612C96.4755 567.123 96.5621 567.595 96.7355 568.028C96.9185 568.461 97.1737 568.842 97.5011 569.169C97.8285 569.487 98.2137 569.733 98.6567 569.906C99.0997 570.079 99.5909 570.166 100.13 570.166C100.631 570.166 101.112 570.089 101.575 569.935C102.047 569.771 102.494 569.501 102.918 569.126L103.987 570.527C103.457 570.951 102.841 571.273 102.138 571.495C101.445 571.707 100.742 571.813 100.029 571.813ZM102.21 570.281V566.497H103.987V570.527L102.21 570.281ZM35.3332 589.813C34.5435 589.813 33.7875 589.702 33.0652 589.48C32.343 589.249 31.77 588.956 31.3462 588.599L31.9963 587.14C32.4007 587.458 32.9015 587.723 33.4986 587.935C34.0957 588.147 34.7072 588.253 35.3332 588.253C35.8628 588.253 36.2914 588.195 36.6188 588.079C36.9462 587.964 37.187 587.81 37.3411 587.617C37.4952 587.415 37.5722 587.188 37.5722 586.938C37.5722 586.63 37.4614 586.384 37.2399 586.201C37.0185 586.009 36.7295 585.859 36.3732 585.754C36.0265 585.638 35.6365 585.532 35.2031 585.436C34.7794 585.339 34.3509 585.229 33.9175 585.103C33.4938 584.969 33.1038 584.8 32.7474 584.598C32.4007 584.386 32.1167 584.107 31.8952 583.76C31.6737 583.413 31.5629 582.97 31.5629 582.431C31.5629 581.882 31.7074 581.381 31.9963 580.929C32.2948 580.466 32.7426 580.101 33.3397 579.831C33.9464 579.552 34.712 579.412 35.6365 579.412C36.2432 579.412 36.8451 579.489 37.4422 579.643C38.0393 579.797 38.5593 580.019 39.0023 580.308L38.41 581.767C37.9574 581.497 37.4903 581.3 37.0088 581.174C36.5273 581.039 36.0651 580.972 35.6221 580.972C35.102 580.972 34.6783 581.035 34.3509 581.16C34.0331 581.285 33.7971 581.449 33.643 581.651C33.4986 581.853 33.4264 582.084 33.4264 582.344C33.4264 582.653 33.5323 582.903 33.7442 583.096C33.9657 583.279 34.2498 583.423 34.5964 583.529C34.9528 583.635 35.3476 583.741 35.781 583.847C36.2143 583.943 36.6429 584.054 37.0666 584.179C37.5 584.304 37.89 584.468 38.2367 584.67C38.593 584.872 38.8771 585.147 39.089 585.493C39.3105 585.84 39.4212 586.278 39.4212 586.808C39.4212 587.347 39.2719 587.848 38.9734 588.31C38.6845 588.763 38.2367 589.129 37.63 589.408C37.0233 589.678 36.2577 589.813 35.3332 589.813ZM43.5563 589.668V585.667L43.9752 586.822L39.5838 579.556H41.5917L45.1164 585.407H43.9897L47.5432 579.556H49.3922L45.0008 586.822L45.4342 585.667V589.668H43.5563ZM53.5451 589.813C52.7554 589.813 51.9994 589.702 51.2771 589.48C50.5549 589.249 49.9819 588.956 49.5581 588.599L50.2082 587.14C50.6127 587.458 51.1134 587.723 51.7105 587.935C52.3076 588.147 52.9191 588.253 53.5451 588.253C54.0747 588.253 54.5033 588.195 54.8307 588.079C55.1581 587.964 55.3989 587.81 55.553 587.617C55.7071 587.415 55.7841 587.188 55.7841 586.938C55.7841 586.63 55.6734 586.384 55.4519 586.201C55.2304 586.009 54.9415 585.859 54.5851 585.754C54.2385 585.638 53.8484 585.532 53.4151 585.436C52.9913 585.339 52.5628 585.229 52.1294 585.103C51.7057 584.969 51.3157 584.8 50.9593 584.598C50.6127 584.386 50.3286 584.107 50.1071 583.76C49.8856 583.413 49.7748 582.97 49.7748 582.431C49.7748 581.882 49.9193 581.381 50.2082 580.929C50.5067 580.466 50.9545 580.101 51.5516 579.831C52.1583 579.552 52.9239 579.412 53.8484 579.412C54.4551 579.412 55.057 579.489 55.6541 579.643C56.2512 579.797 56.7712 580.019 57.2142 580.308L56.6219 581.767C56.1693 581.497 55.7023 581.3 55.2207 581.174C54.7392 581.039 54.277 580.972 53.834 580.972C53.3139 580.972 52.8902 581.035 52.5628 581.16C52.245 581.285 52.009 581.449 51.855 581.651C51.7105 581.853 51.6383 582.084 51.6383 582.344C51.6383 582.653 51.7442 582.903 51.9561 583.096C52.1776 583.279 52.4617 583.423 52.8084 583.529C53.1647 583.635 53.5595 583.741 53.9929 583.847C54.4262 583.943 54.8548 584.054 55.2785 584.179C55.7119 584.304 56.1019 584.468 56.4486 584.67C56.8049 584.872 57.089 585.147 57.3009 585.493C57.5224 585.84 57.6331 586.278 57.6331 586.808C57.6331 587.347 57.4838 587.848 57.1853 588.31C56.8964 588.763 56.4486 589.129 55.8419 589.408C55.2352 589.678 54.4696 589.813 53.5451 589.813ZM61.4054 589.668V581.145H58.0541V579.556H66.6346V581.145H63.2833V589.668H61.4054ZM69.7774 583.76H74.8044V585.306H69.7774V583.76ZM69.9219 588.094H75.6278V589.668H68.044V579.556H75.4256V581.131H69.9219V588.094ZM77.7212 589.668V579.556H79.2669L83.6872 586.938H82.8782L87.2263 579.556H88.772L88.7864 589.668H87.0096L86.9952 582.344H87.3708L83.6727 588.513H82.8349L79.0791 582.344H79.5125V589.668H77.7212Z" fill="black"/>
<path d="M24.47 775.196H26.3479V785.308H24.47V775.196ZM19.2407 785.308H17.3628V775.196H19.2407V785.308ZM24.6144 780.974H19.0818V779.371H24.6144V780.974ZM27.6273 785.308L32.1776 775.196H34.0266L38.5914 785.308H36.6268L32.7121 776.193H33.4632L29.563 785.308H27.6273ZM29.7219 782.968L30.2275 781.494H35.6878L36.1934 782.968H29.7219ZM39.8773 785.308V775.196H44.0376C44.9332 775.196 45.6988 775.341 46.3344 775.629C46.9797 775.918 47.4756 776.332 47.8223 776.872C48.169 777.411 48.3423 778.051 48.3423 778.793C48.3423 779.535 48.169 780.175 47.8223 780.714C47.4756 781.244 46.9797 781.653 46.3344 781.942C45.6988 782.221 44.9332 782.361 44.0376 782.361H40.9174L41.7552 781.509V785.308H39.8773ZM46.4933 785.308L43.9365 781.639H45.9444L48.5157 785.308H46.4933ZM41.7552 781.711L40.9174 780.815H43.9509C44.7791 780.815 45.4003 780.637 45.8144 780.281C46.2381 779.925 46.45 779.429 46.45 778.793C46.45 778.148 46.2381 777.652 45.8144 777.305C45.4003 776.958 44.7791 776.785 43.9509 776.785H40.9174L41.7552 775.861V781.711ZM50.4433 785.308V775.196H54.8636C55.9615 775.196 56.9245 775.408 57.7527 775.832C58.5809 776.255 59.2261 776.843 59.6884 777.594C60.1506 778.345 60.3818 779.231 60.3818 780.252C60.3818 781.263 60.1506 782.149 59.6884 782.91C59.2261 783.661 58.5809 784.249 57.7527 784.672C56.9245 785.096 55.9615 785.308 54.8636 785.308H50.4433ZM52.3212 783.719H54.777C55.5378 783.719 56.1926 783.574 56.7415 783.286C57.3001 782.997 57.7286 782.592 58.0272 782.072C58.3353 781.552 58.4894 780.945 58.4894 780.252C58.4894 779.549 58.3353 778.942 58.0272 778.432C57.7286 777.912 57.3001 777.507 56.7415 777.218C56.1926 776.93 55.5378 776.785 54.777 776.785H52.3212V783.719ZM64.4509 785.308L61.0995 775.196H63.0497L66.0399 784.34H65.072L68.1778 775.196H69.9112L72.9303 784.34H71.9914L75.0538 775.196H76.845L73.4937 785.308H71.5002L68.7411 777.06H69.2612L66.4588 785.308H64.4509ZM76.6203 785.308L81.1706 775.196H83.0196L87.5844 785.308H85.6198L81.7051 776.193H82.4563L78.556 785.308H76.6203ZM78.7149 782.968L79.2205 781.494H84.6808L85.1864 782.968H78.7149ZM88.8703 785.308V775.196H93.0306C93.9262 775.196 94.6918 775.341 95.3274 775.629C95.9727 775.918 96.4686 776.332 96.8153 776.872C97.162 777.411 97.3353 778.051 97.3353 778.793C97.3353 779.535 97.162 780.175 96.8153 780.714C96.4686 781.244 95.9727 781.653 95.3274 781.942C94.6918 782.221 93.9262 782.361 93.0306 782.361H89.9104L90.7482 781.509V785.308H88.8703ZM95.4863 785.308L92.9295 781.639H94.9374L97.5087 785.308H95.4863ZM90.7482 781.711L89.9104 780.815H92.9439C93.7722 780.815 94.3933 780.637 94.8074 780.281C95.2311 779.925 95.443 779.429 95.443 778.793C95.443 778.148 95.2311 777.652 94.8074 777.305C94.3933 776.958 93.7722 776.785 92.9439 776.785H89.9104L90.7482 775.861V781.711ZM101.17 779.4H106.197V780.945H101.17V779.4ZM101.314 783.733H107.02V785.308H99.4364V775.196H106.818V776.771H101.314V783.733Z" fill="black"/>
<path d="M107.657 190.204V179.438H103.424V177.431H114.263V179.438H110.029V190.204H107.657ZM118.232 182.741H124.582V184.694H118.232V182.741ZM118.415 188.215H125.622V190.204H116.043V177.431H125.367V179.42H118.415V188.215ZM128.267 190.204V177.431H133.522C134.653 177.431 135.62 177.614 136.423 177.979C137.238 178.344 137.865 178.867 138.303 179.548C138.74 180.229 138.959 181.038 138.959 181.975C138.959 182.911 138.74 183.72 138.303 184.402C137.865 185.071 137.238 185.588 136.423 185.953C135.62 186.305 134.653 186.482 133.522 186.482H129.581L130.639 185.405V190.204H128.267ZM136.624 190.204L133.394 185.569H135.93L139.178 190.204H136.624ZM130.639 185.661L129.581 184.529H133.412C134.459 184.529 135.243 184.304 135.766 183.854C136.301 183.404 136.569 182.778 136.569 181.975C136.569 181.16 136.301 180.533 135.766 180.095C135.243 179.657 134.459 179.438 133.412 179.438H129.581L130.639 178.271V185.661ZM141.613 190.204V177.431H143.566L149.149 186.755H148.127L153.62 177.431H155.572L155.59 190.204H153.346L153.328 180.953H153.802L149.131 188.744H148.073L143.329 180.953H143.876V190.204H141.613ZM159.04 190.204V177.431H161.413V190.204H159.04ZM164.867 190.204V177.431H166.82L174.83 187.266H173.863V177.431H176.217V190.204H174.264L166.254 180.369H167.221V190.204H164.867ZM177.833 190.204L183.581 177.431H185.916L191.682 190.204H189.201L184.256 178.69H185.205L180.278 190.204H177.833ZM180.479 187.248L181.117 185.387H188.015L188.653 187.248H180.479ZM193.307 190.204V177.431H195.679V188.197H202.357V190.204H193.307Z" fill="black"/>
<path d="M128.336 386.54C127.338 386.54 126.384 386.4 125.471 386.12C124.559 385.828 123.835 385.457 123.3 385.007L124.121 383.164C124.632 383.566 125.264 383.9 126.019 384.168C126.773 384.435 127.545 384.569 128.336 384.569C129.005 384.569 129.546 384.496 129.96 384.35C130.373 384.204 130.678 384.01 130.872 383.766C131.067 383.511 131.164 383.225 131.164 382.909C131.164 382.52 131.024 382.209 130.744 381.978C130.465 381.735 130.1 381.546 129.65 381.413C129.212 381.267 128.719 381.133 128.172 381.011C127.636 380.889 127.095 380.75 126.548 380.591C126.012 380.421 125.52 380.208 125.07 379.953C124.632 379.685 124.273 379.332 123.993 378.894C123.713 378.457 123.573 377.897 123.573 377.216C123.573 376.522 123.756 375.89 124.121 375.318C124.498 374.734 125.064 374.272 125.818 373.931C126.584 373.579 127.551 373.402 128.719 373.402C129.485 373.402 130.246 373.5 131 373.694C131.754 373.889 132.411 374.169 132.971 374.533L132.222 376.376C131.651 376.036 131.061 375.786 130.453 375.628C129.844 375.458 129.26 375.373 128.701 375.373C128.044 375.373 127.509 375.452 127.095 375.61C126.694 375.768 126.396 375.975 126.201 376.23C126.019 376.486 125.927 376.778 125.927 377.106C125.927 377.496 126.061 377.812 126.329 378.055C126.609 378.286 126.967 378.469 127.405 378.603C127.855 378.736 128.354 378.87 128.902 379.004C129.449 379.126 129.99 379.265 130.526 379.424C131.073 379.582 131.566 379.789 132.004 380.044C132.454 380.299 132.812 380.646 133.08 381.084C133.36 381.522 133.5 382.076 133.5 382.745C133.5 383.426 133.311 384.058 132.934 384.642C132.569 385.214 132.004 385.676 131.237 386.029C130.471 386.37 129.504 386.54 128.336 386.54ZM144.829 373.585H147.201V386.357H144.829V373.585ZM138.224 386.357H135.852V373.585H138.224V386.357ZM145.012 380.883H138.023V378.858H145.012V380.883ZM152.814 378.894H159.163V380.847H152.814V378.894ZM152.996 384.369H160.204V386.357H150.624V373.585H159.948V375.574H152.996V384.369ZM162.848 386.357V373.585H165.22V384.35H171.898V386.357H162.848ZM173.771 386.357V373.585H176.143V384.35H182.821V386.357H173.771Z" fill="black"/>
<path d="M117.898 497.389L117.77 494.579L124.467 487.627H127.131L121.565 493.539L120.252 494.981L117.898 497.389ZM115.781 500.4V487.627H118.153V500.4H115.781ZM124.686 500.4L119.795 494.579L121.365 492.846L127.459 500.4H124.686ZM131.264 492.937H137.614V494.889H131.264V492.937ZM131.446 498.411H138.654V500.4H129.074V487.627H138.398V489.616H131.446V498.411ZM141.298 500.4V487.627H146.553C147.685 487.627 148.652 487.81 149.454 488.175C150.269 488.539 150.896 489.063 151.334 489.744C151.772 490.425 151.991 491.234 151.991 492.171C151.991 493.107 151.772 493.916 151.334 494.597C150.896 495.266 150.269 495.783 149.454 496.148C148.652 496.501 147.685 496.678 146.553 496.678H142.612L143.67 495.601V500.4H141.298ZM149.655 500.4L146.425 495.765H148.962L152.21 500.4H149.655ZM143.67 495.856L142.612 494.725H146.444C147.49 494.725 148.275 494.5 148.798 494.05C149.333 493.6 149.6 492.973 149.6 492.171C149.6 491.356 149.333 490.729 148.798 490.291C148.275 489.853 147.49 489.634 146.444 489.634H142.612L143.67 488.466V495.856ZM154.645 500.4V487.627H156.597L164.607 497.462H163.64V487.627H165.994V500.4H164.042L156.031 490.565H156.999V500.4H154.645ZM171.606 492.937H177.956V494.889H171.606V492.937ZM171.789 498.411H178.996V500.4H169.417V487.627H178.741V489.616H171.789V498.411ZM181.641 500.4V487.627H184.013V498.393H190.691V500.4H181.641Z" fill="black"/>
<path d="M105.79 672.756H108.162V685.529H105.79V672.756ZM99.1851 685.529H96.813V672.756H99.1851V685.529ZM105.973 680.055H98.9843V678.03H105.973V680.055ZM109.779 685.529L115.526 672.756H117.862L123.628 685.529H121.146L116.201 674.015H117.15L112.224 685.529H109.779ZM112.424 682.573L113.063 680.712H119.96L120.599 682.573H112.424ZM125.252 685.529V672.756H130.507C131.639 672.756 132.606 672.939 133.409 673.304C134.224 673.669 134.85 674.192 135.288 674.873C135.726 675.554 135.945 676.363 135.945 677.3C135.945 678.236 135.726 679.045 135.288 679.727C134.85 680.396 134.224 680.913 133.409 681.278C132.606 681.63 131.639 681.807 130.507 681.807H126.566L127.624 680.73V685.529H125.252ZM133.609 685.529L130.38 680.894H132.916L136.164 685.529H133.609ZM127.624 680.986L126.566 679.854H130.398C131.444 679.854 132.229 679.629 132.752 679.179C133.287 678.729 133.555 678.103 133.555 677.3C133.555 676.485 133.287 675.858 132.752 675.42C132.229 674.982 131.444 674.763 130.398 674.763H126.566L127.624 673.596V680.986ZM138.599 685.529V672.756H144.182C145.569 672.756 146.786 673.024 147.832 673.559C148.878 674.094 149.693 674.836 150.277 675.785C150.861 676.734 151.153 677.853 151.153 679.143C151.153 680.42 150.861 681.539 150.277 682.5C149.693 683.449 148.878 684.191 147.832 684.726C146.786 685.261 145.569 685.529 144.182 685.529H138.599ZM140.971 683.522H144.073C145.034 683.522 145.861 683.339 146.554 682.974C147.26 682.61 147.801 682.099 148.178 681.442C148.568 680.785 148.762 680.019 148.762 679.143C148.762 678.255 148.568 677.488 148.178 676.844C147.801 676.187 147.26 675.676 146.554 675.311C145.861 674.946 145.034 674.763 144.073 674.763H140.971V683.522ZM156.293 685.529L152.059 672.756H154.523L158.3 684.307H157.077L161 672.756H163.19L167.003 684.307H165.817L169.686 672.756H171.948L167.715 685.529H165.197L161.712 675.11H162.369L158.829 685.529H156.293ZM171.665 685.529L177.412 672.756H179.748L185.514 685.529H183.032L178.087 674.015H179.036L174.11 685.529H171.665ZM174.31 682.573L174.949 680.712H181.846L182.485 682.573H174.31ZM187.138 685.529V672.756H192.393C193.525 672.756 194.492 672.939 195.295 673.304C196.11 673.669 196.736 674.192 197.174 674.873C197.612 675.554 197.831 676.363 197.831 677.3C197.831 678.236 197.612 679.045 197.174 679.727C196.736 680.396 196.11 680.913 195.295 681.278C194.492 681.63 193.525 681.807 192.393 681.807H188.452L189.51 680.73V685.529H187.138ZM195.495 685.529L192.266 680.894H194.802L198.05 685.529H195.495ZM189.51 680.986L188.452 679.854H192.284C193.33 679.854 194.115 679.629 194.638 679.179C195.173 678.729 195.441 678.103 195.441 677.3C195.441 676.485 195.173 675.858 194.638 675.42C194.115 674.982 193.33 674.763 192.284 674.763H188.452L189.51 673.596V680.986ZM202.674 678.066H209.024V680.019H202.674V678.066ZM202.857 683.54H210.064V685.529H200.485V672.756H209.809V674.745H202.857V683.54ZM91.4365 707.712C90.4634 707.712 89.5571 707.553 88.7177 707.237C87.8906 706.909 87.1668 706.452 86.5464 705.869C85.9381 705.273 85.4637 704.573 85.1231 703.77C84.7825 702.967 84.6122 702.092 84.6122 701.143C84.6122 700.194 84.7825 699.318 85.1231 698.515C85.4637 697.712 85.9442 697.019 86.5646 696.435C87.185 695.839 87.9088 695.383 88.736 695.066C89.5632 694.738 90.4694 694.574 91.4548 694.574C92.5009 694.574 93.4558 694.756 94.3195 695.121C95.1832 695.474 95.9131 696.003 96.5091 696.709L94.9764 698.15C94.5141 697.651 93.9972 697.28 93.4254 697.037C92.8537 696.782 92.2333 696.654 91.5642 696.654C90.8952 696.654 90.2809 696.763 89.7213 696.982C89.1739 697.201 88.6934 697.512 88.2798 697.913C87.8784 698.314 87.5621 698.789 87.331 699.336C87.112 699.884 87.0025 700.486 87.0025 701.143C87.0025 701.8 87.112 702.402 87.331 702.949C87.5621 703.497 87.8784 703.971 88.2798 704.372C88.6934 704.774 89.1739 705.084 89.7213 705.303C90.2809 705.522 90.8952 705.631 91.5642 705.631C92.2333 705.631 92.8537 705.51 93.4254 705.266C93.9972 705.011 94.5141 704.628 94.9764 704.117L96.5091 705.577C95.9131 706.27 95.1832 706.799 94.3195 707.164C93.4558 707.529 92.4948 707.712 91.4365 707.712ZM104.5 707.712C103.502 707.712 102.584 707.547 101.744 707.219C100.905 706.89 100.175 706.434 99.5548 705.85C98.9344 705.254 98.4539 704.561 98.1133 703.77C97.7727 702.967 97.6024 702.092 97.6024 701.143C97.6024 700.194 97.7727 699.324 98.1133 698.533C98.4539 697.731 98.9344 697.037 99.5548 696.453C100.175 695.857 100.905 695.395 101.744 695.066C102.584 694.738 103.496 694.574 104.481 694.574C105.479 694.574 106.391 694.738 107.218 695.066C108.058 695.395 108.788 695.857 109.408 696.453C110.028 697.037 110.509 697.731 110.85 698.533C111.19 699.324 111.36 700.194 111.36 701.143C111.36 702.092 111.19 702.967 110.85 703.77C110.509 704.573 110.028 705.266 109.408 705.85C108.788 706.434 108.058 706.89 107.218 707.219C106.391 707.547 105.485 707.712 104.5 707.712ZM104.481 705.631C105.126 705.631 105.722 705.522 106.27 705.303C106.817 705.084 107.291 704.774 107.693 704.372C108.094 703.959 108.404 703.484 108.623 702.949C108.855 702.402 108.97 701.8 108.97 701.143C108.97 700.486 108.855 699.89 108.623 699.354C108.404 698.807 108.094 698.333 107.693 697.931C107.291 697.518 106.817 697.201 106.27 696.982C105.722 696.763 105.126 696.654 104.481 696.654C103.837 696.654 103.241 696.763 102.693 696.982C102.158 697.201 101.684 697.518 101.27 697.931C100.869 698.333 100.552 698.807 100.321 699.354C100.102 699.89 99.9927 700.486 99.9927 701.143C99.9927 701.787 100.102 702.383 100.321 702.931C100.552 703.478 100.869 703.959 101.27 704.372C101.671 704.774 102.146 705.084 102.693 705.303C103.241 705.522 103.837 705.631 104.481 705.631ZM113.875 707.529V694.756H115.827L121.411 704.08H120.389L125.881 694.756H127.834L127.852 707.529H125.608L125.589 698.278H126.064L121.393 706.069H120.334L115.59 698.278H116.137V707.529H113.875ZM131.302 707.529V694.756H136.557C137.688 694.756 138.655 694.939 139.458 695.304C140.273 695.669 140.9 696.192 141.338 696.873C141.776 697.554 141.995 698.363 141.995 699.3C141.995 700.236 141.776 701.045 141.338 701.727C140.9 702.408 140.273 702.931 139.458 703.296C138.655 703.661 137.688 703.843 136.557 703.843H132.616L133.674 702.73V707.529H131.302ZM133.674 702.986L132.616 701.836H136.448C137.494 701.836 138.278 701.617 138.801 701.179C139.337 700.729 139.604 700.103 139.604 699.3C139.604 698.485 139.337 697.858 138.801 697.42C138.278 696.982 137.494 696.763 136.448 696.763H132.616L133.674 695.596V702.986ZM150.527 707.712C149.529 707.712 148.611 707.547 147.771 707.219C146.932 706.89 146.202 706.434 145.582 705.85C144.961 705.254 144.481 704.561 144.14 703.77C143.8 702.967 143.629 702.092 143.629 701.143C143.629 700.194 143.8 699.324 144.14 698.533C144.481 697.731 144.961 697.037 145.582 696.453C146.202 695.857 146.932 695.395 147.771 695.066C148.611 694.738 149.523 694.574 150.508 694.574C151.506 694.574 152.418 694.738 153.245 695.066C154.085 695.395 154.815 695.857 155.435 696.453C156.055 697.037 156.536 697.731 156.876 698.533C157.217 699.324 157.387 700.194 157.387 701.143C157.387 702.092 157.217 702.967 156.876 703.77C156.536 704.573 156.055 705.266 155.435 705.85C154.815 706.434 154.085 706.89 153.245 707.219C152.418 707.547 151.512 707.712 150.527 707.712ZM150.508 705.631C151.153 705.631 151.749 705.522 152.296 705.303C152.844 705.084 153.318 704.774 153.72 704.372C154.121 703.959 154.431 703.484 154.65 702.949C154.881 702.402 154.997 701.8 154.997 701.143C154.997 700.486 154.881 699.89 154.65 699.354C154.431 698.807 154.121 698.333 153.72 697.931C153.318 697.518 152.844 697.201 152.296 696.982C151.749 696.763 151.153 696.654 150.508 696.654C149.864 696.654 149.267 696.763 148.72 696.982C148.185 697.201 147.71 697.518 147.297 697.931C146.895 698.333 146.579 698.807 146.348 699.354C146.129 699.89 146.02 700.486 146.02 701.143C146.02 701.787 146.129 702.383 146.348 702.931C146.579 703.478 146.895 703.959 147.297 704.372C147.698 704.774 148.173 705.084 148.72 705.303C149.267 705.522 149.864 705.631 150.508 705.631ZM159.902 707.529V694.756H161.854L169.864 704.591H168.897V694.756H171.251V707.529H169.299L161.288 697.694H162.256V707.529H159.902ZM176.863 700.066H183.213V702.019H176.863V700.066ZM177.046 705.54H184.253V707.529H174.674V694.756H183.998V696.745H177.046V705.54ZM186.898 707.529V694.756H188.85L196.86 704.591H195.893V694.756H198.247V707.529H196.295L188.284 697.694H189.252V707.529H186.898ZM204.261 707.529V696.763H200.028V694.756H210.866V696.763H206.633V707.529H204.261ZM216.481 707.712C215.484 707.712 214.529 707.572 213.616 707.292C212.704 707 211.98 706.629 211.445 706.179L212.266 704.336C212.777 704.737 213.41 705.072 214.164 705.339C214.918 705.607 215.69 705.741 216.481 705.741C217.15 705.741 217.692 705.668 218.105 705.522C218.519 705.376 218.823 705.181 219.017 704.938C219.212 704.683 219.309 704.397 219.309 704.08C219.309 703.691 219.17 703.381 218.89 703.15C218.61 702.907 218.245 702.718 217.795 702.584C217.357 702.438 216.864 702.304 216.317 702.183C215.782 702.061 215.24 701.921 214.693 701.763C214.158 701.593 213.665 701.38 213.215 701.124C212.777 700.857 212.418 700.504 212.138 700.066C211.859 699.628 211.719 699.069 211.719 698.387C211.719 697.694 211.901 697.061 212.266 696.49C212.643 695.906 213.209 695.444 213.963 695.103C214.729 694.75 215.697 694.574 216.864 694.574C217.631 694.574 218.391 694.671 219.145 694.866C219.899 695.06 220.556 695.34 221.116 695.705L220.368 697.548C219.796 697.207 219.206 696.958 218.598 696.8C217.99 696.63 217.406 696.544 216.846 696.544C216.189 696.544 215.654 696.624 215.24 696.782C214.839 696.94 214.541 697.147 214.346 697.402C214.164 697.658 214.073 697.949 214.073 698.278C214.073 698.667 214.206 698.983 214.474 699.227C214.754 699.458 215.113 699.64 215.551 699.774C216.001 699.908 216.499 700.042 217.047 700.176C217.594 700.297 218.136 700.437 218.671 700.595C219.218 700.753 219.711 700.96 220.149 701.216C220.599 701.471 220.958 701.818 221.225 702.256C221.505 702.694 221.645 703.247 221.645 703.916C221.645 704.597 221.456 705.23 221.079 705.814C220.714 706.386 220.149 706.848 219.382 707.201C218.616 707.541 217.649 707.712 216.481 707.712Z" fill="black"/>
</g>
<defs>
<clipPath id="clip0_107_34">
<rect width="304.494" height="804" fill="white" transform="translate(0.294678)"/>
</clipPath>
</defs>
</svg>
