<svg width="800" height="798" viewBox="0 0 800 798" fill="none" xmlns="http://www.w3.org/2000/svg">
<g clip-path="url(#clip0_138_691)">
<circle cx="400" cy="399" r="240" fill="#FB6233"/>
<path d="M320.967 315.4C318.781 315.4 316.687 315.093 314.687 314.48C312.687 313.84 311.101 313.027 309.927 312.04L311.727 308C312.847 308.88 314.234 309.613 315.887 310.2C317.541 310.787 319.234 311.08 320.967 311.08C322.434 311.08 323.621 310.92 324.527 310.6C325.434 310.28 326.101 309.853 326.527 309.32C326.954 308.76 327.167 308.133 327.167 307.44C327.167 306.587 326.861 305.907 326.247 305.4C325.634 304.867 324.834 304.453 323.847 304.16C322.887 303.84 321.807 303.547 320.607 303.28C319.434 303.013 318.247 302.707 317.047 302.36C315.874 301.987 314.794 301.52 313.807 300.96C312.847 300.373 312.061 299.6 311.447 298.64C310.834 297.68 310.527 296.453 310.527 294.96C310.527 293.44 310.927 292.053 311.727 290.8C312.554 289.52 313.794 288.507 315.447 287.76C317.127 286.987 319.247 286.6 321.807 286.6C323.487 286.6 325.154 286.813 326.807 287.24C328.461 287.667 329.901 288.28 331.127 289.08L329.487 293.12C328.234 292.373 326.941 291.827 325.607 291.48C324.274 291.107 322.994 290.92 321.767 290.92C320.327 290.92 319.154 291.093 318.247 291.44C317.367 291.787 316.714 292.24 316.287 292.8C315.887 293.36 315.687 294 315.687 294.72C315.687 295.573 315.981 296.267 316.567 296.8C317.181 297.307 317.967 297.707 318.927 298C319.914 298.293 321.007 298.587 322.207 298.88C323.407 299.147 324.594 299.453 325.767 299.8C326.967 300.147 328.047 300.6 329.007 301.16C329.994 301.72 330.781 302.48 331.367 303.44C331.981 304.4 332.287 305.613 332.287 307.08C332.287 308.573 331.874 309.96 331.047 311.24C330.247 312.493 329.007 313.507 327.327 314.28C325.647 315.027 323.527 315.4 320.967 315.4ZM346.564 315.28C344.377 315.28 342.43 314.813 340.724 313.88C339.017 312.92 337.67 311.613 336.684 309.96C335.697 308.307 335.204 306.427 335.204 304.32C335.204 302.187 335.697 300.307 336.684 298.68C337.67 297.027 339.017 295.733 340.724 294.8C342.43 293.867 344.377 293.4 346.564 293.4C348.777 293.4 350.737 293.867 352.444 294.8C354.177 295.733 355.524 297.013 356.484 298.64C357.47 300.267 357.964 302.16 357.964 304.32C357.964 306.427 357.47 308.307 356.484 309.96C355.524 311.613 354.177 312.92 352.444 313.88C350.737 314.813 348.777 315.28 346.564 315.28ZM346.564 311C347.79 311 348.884 310.733 349.844 310.2C350.804 309.667 351.55 308.893 352.084 307.88C352.644 306.867 352.924 305.68 352.924 304.32C352.924 302.933 352.644 301.747 352.084 300.76C351.55 299.747 350.804 298.973 349.844 298.44C348.884 297.907 347.804 297.64 346.604 297.64C345.377 297.64 344.284 297.907 343.324 298.44C342.39 298.973 341.644 299.747 341.084 300.76C340.524 301.747 340.244 302.933 340.244 304.32C340.244 305.68 340.524 306.867 341.084 307.88C341.644 308.893 342.39 309.667 343.324 310.2C344.284 310.733 345.364 311 346.564 311ZM363.425 315V292.44C363.425 290.2 364.078 288.413 365.385 287.08C366.718 285.72 368.612 285.04 371.065 285.04C371.945 285.04 372.772 285.133 373.545 285.32C374.345 285.507 375.012 285.8 375.545 286.2L374.185 289.96C373.812 289.667 373.385 289.453 372.905 289.32C372.425 289.16 371.932 289.08 371.425 289.08C370.385 289.08 369.598 289.373 369.065 289.96C368.532 290.52 368.265 291.373 368.265 292.52V294.92L368.425 297.16V315H363.425ZM359.905 297.8V293.8H374.145V297.8H359.905ZM385.55 315.28C383.204 315.28 381.39 314.68 380.11 313.48C378.83 312.253 378.19 310.453 378.19 308.08V288.92H383.19V307.96C383.19 308.973 383.444 309.76 383.95 310.32C384.484 310.88 385.217 311.16 386.15 311.16C387.27 311.16 388.204 310.867 388.95 310.28L390.35 313.84C389.764 314.32 389.044 314.68 388.19 314.92C387.337 315.16 386.457 315.28 385.55 315.28ZM374.67 297.8V293.8H388.91V297.8H374.67ZM398.793 315L390.953 293.64H395.673L402.393 312.48H400.153L407.193 293.64H411.393L418.233 312.48H416.033L422.953 293.64H427.393L419.513 315H414.713L408.473 298.32H409.953L403.593 315H398.793ZM443.327 315V310.68L443.047 309.76V302.2C443.047 300.733 442.607 299.6 441.727 298.8C440.847 297.973 439.513 297.56 437.727 297.56C436.527 297.56 435.34 297.747 434.167 298.12C433.02 298.493 432.047 299.013 431.247 299.68L429.287 296.04C430.433 295.16 431.793 294.507 433.367 294.08C434.967 293.627 436.62 293.4 438.327 293.4C441.42 293.4 443.807 294.147 445.487 295.64C447.193 297.107 448.047 299.387 448.047 302.48V315H443.327ZM436.607 315.28C435.007 315.28 433.607 315.013 432.407 314.48C431.207 313.92 430.273 313.16 429.607 312.2C428.967 311.213 428.647 310.107 428.647 308.88C428.647 307.68 428.927 306.6 429.487 305.64C430.073 304.68 431.02 303.92 432.327 303.36C433.633 302.8 435.367 302.52 437.527 302.52H443.727V305.84H437.887C436.18 305.84 435.033 306.12 434.447 306.68C433.86 307.213 433.567 307.88 433.567 308.68C433.567 309.587 433.927 310.307 434.647 310.84C435.367 311.373 436.367 311.64 437.647 311.64C438.873 311.64 439.967 311.36 440.927 310.8C441.913 310.24 442.62 309.413 443.047 308.32L443.887 311.32C443.407 312.573 442.54 313.547 441.287 314.24C440.06 314.933 438.5 315.28 436.607 315.28ZM454.464 315V293.64H459.224V299.52L458.664 297.8C459.304 296.36 460.304 295.267 461.664 294.52C463.05 293.773 464.77 293.4 466.824 293.4V298.16C466.61 298.107 466.41 298.08 466.224 298.08C466.037 298.053 465.85 298.04 465.664 298.04C463.77 298.04 462.264 298.6 461.144 299.72C460.024 300.813 459.464 302.453 459.464 304.64V315H454.464ZM480.91 315.28C478.537 315.28 476.457 314.813 474.67 313.88C472.91 312.92 471.537 311.613 470.55 309.96C469.59 308.307 469.11 306.427 469.11 304.32C469.11 302.187 469.577 300.307 470.51 298.68C471.47 297.027 472.777 295.733 474.43 294.8C476.11 293.867 478.017 293.4 480.15 293.4C482.23 293.4 484.083 293.853 485.71 294.76C487.337 295.667 488.617 296.947 489.55 298.6C490.483 300.253 490.95 302.2 490.95 304.44C490.95 304.653 490.937 304.893 490.91 305.16C490.91 305.427 490.897 305.68 490.87 305.92H473.07V302.6H488.23L486.27 303.64C486.297 302.413 486.043 301.333 485.51 300.4C484.977 299.467 484.243 298.733 483.31 298.2C482.403 297.667 481.35 297.4 480.15 297.4C478.923 297.4 477.843 297.667 476.91 298.2C476.003 298.733 475.283 299.48 474.75 300.44C474.243 301.373 473.99 302.48 473.99 303.76V304.56C473.99 305.84 474.283 306.973 474.87 307.96C475.457 308.947 476.283 309.707 477.35 310.24C478.417 310.773 479.643 311.04 481.03 311.04C482.23 311.04 483.31 310.853 484.27 310.48C485.23 310.107 486.083 309.52 486.83 308.72L489.51 311.8C488.55 312.92 487.337 313.787 485.87 314.4C484.43 314.987 482.777 315.28 480.91 315.28ZM263.713 364V336H275.953C278.993 336 281.66 336.587 283.953 337.76C286.246 338.933 288.033 340.56 289.313 342.64C290.593 344.72 291.233 347.173 291.233 350C291.233 352.8 290.593 355.253 289.313 357.36C288.033 359.44 286.246 361.067 283.953 362.24C281.66 363.413 278.993 364 275.953 364H263.713ZM268.913 359.6H275.713C277.82 359.6 279.633 359.2 281.153 358.4C282.7 357.6 283.886 356.48 284.713 355.04C285.566 353.6 285.993 351.92 285.993 350C285.993 348.053 285.566 346.373 284.713 344.96C283.886 343.52 282.7 342.4 281.153 341.6C279.633 340.8 277.82 340.4 275.713 340.4H268.913V359.6ZM306.32 364.28C303.947 364.28 301.867 363.813 300.08 362.88C298.32 361.92 296.947 360.613 295.96 358.96C295 357.307 294.52 355.427 294.52 353.32C294.52 351.187 294.987 349.307 295.92 347.68C296.88 346.027 298.187 344.733 299.84 343.8C301.52 342.867 303.427 342.4 305.56 342.4C307.64 342.4 309.493 342.853 311.12 343.76C312.747 344.667 314.027 345.947 314.96 347.6C315.893 349.253 316.36 351.2 316.36 353.44C316.36 353.653 316.347 353.893 316.32 354.16C316.32 354.427 316.307 354.68 316.28 354.92H298.48V351.6H313.64L311.68 352.64C311.707 351.413 311.453 350.333 310.92 349.4C310.387 348.467 309.653 347.733 308.72 347.2C307.813 346.667 306.76 346.4 305.56 346.4C304.333 346.4 303.253 346.667 302.32 347.2C301.413 347.733 300.693 348.48 300.16 349.44C299.653 350.373 299.4 351.48 299.4 352.76V353.56C299.4 354.84 299.693 355.973 300.28 356.96C300.867 357.947 301.693 358.707 302.76 359.24C303.827 359.773 305.053 360.04 306.44 360.04C307.64 360.04 308.72 359.853 309.68 359.48C310.64 359.107 311.493 358.52 312.24 357.72L314.92 360.8C313.96 361.92 312.747 362.787 311.28 363.4C309.84 363.987 308.187 364.28 306.32 364.28ZM326.452 364L317.292 342.64H322.492L330.372 361.48H327.812L335.972 342.64H340.772L331.612 364H326.452ZM353.351 364.28C350.978 364.28 348.898 363.813 347.111 362.88C345.351 361.92 343.978 360.613 342.991 358.96C342.031 357.307 341.551 355.427 341.551 353.32C341.551 351.187 342.018 349.307 342.951 347.68C343.911 346.027 345.218 344.733 346.871 343.8C348.551 342.867 350.458 342.4 352.591 342.4C354.671 342.4 356.525 342.853 358.151 343.76C359.778 344.667 361.058 345.947 361.991 347.6C362.925 349.253 363.391 351.2 363.391 353.44C363.391 353.653 363.378 353.893 363.351 354.16C363.351 354.427 363.338 354.68 363.311 354.92H345.511V351.6H360.671L358.711 352.64C358.738 351.413 358.485 350.333 357.951 349.4C357.418 348.467 356.685 347.733 355.751 347.2C354.845 346.667 353.791 346.4 352.591 346.4C351.365 346.4 350.285 346.667 349.351 347.2C348.445 347.733 347.725 348.48 347.191 349.44C346.685 350.373 346.431 351.48 346.431 352.76V353.56C346.431 354.84 346.725 355.973 347.311 356.96C347.898 357.947 348.725 358.707 349.791 359.24C350.858 359.773 352.085 360.04 353.471 360.04C354.671 360.04 355.751 359.853 356.711 359.48C357.671 359.107 358.525 358.52 359.271 357.72L361.951 360.8C360.991 361.92 359.778 362.787 358.311 363.4C356.871 363.987 355.218 364.28 353.351 364.28ZM368.194 364V334.32H373.194V364H368.194ZM389.357 364.28C387.17 364.28 385.223 363.813 383.517 362.88C381.81 361.92 380.463 360.613 379.477 358.96C378.49 357.307 377.997 355.427 377.997 353.32C377.997 351.187 378.49 349.307 379.477 347.68C380.463 346.027 381.81 344.733 383.517 343.8C385.223 342.867 387.17 342.4 389.357 342.4C391.57 342.4 393.53 342.867 395.237 343.8C396.97 344.733 398.317 346.013 399.277 347.64C400.263 349.267 400.757 351.16 400.757 353.32C400.757 355.427 400.263 357.307 399.277 358.96C398.317 360.613 396.97 361.92 395.237 362.88C393.53 363.813 391.57 364.28 389.357 364.28ZM389.357 360C390.583 360 391.677 359.733 392.637 359.2C393.597 358.667 394.343 357.893 394.877 356.88C395.437 355.867 395.717 354.68 395.717 353.32C395.717 351.933 395.437 350.747 394.877 349.76C394.343 348.747 393.597 347.973 392.637 347.44C391.677 346.907 390.597 346.64 389.397 346.64C388.17 346.64 387.077 346.907 386.117 347.44C385.183 347.973 384.437 348.747 383.877 349.76C383.317 350.747 383.037 351.933 383.037 353.32C383.037 354.68 383.317 355.867 383.877 356.88C384.437 357.893 385.183 358.667 386.117 359.2C387.077 359.733 388.157 360 389.357 360ZM417.378 364.28C415.644 364.28 414.058 363.88 412.618 363.08C411.204 362.28 410.071 361.08 409.218 359.48C408.391 357.853 407.978 355.8 407.978 353.32C407.978 350.813 408.378 348.76 409.178 347.16C410.004 345.56 411.124 344.373 412.538 343.6C413.951 342.8 415.564 342.4 417.378 342.4C419.484 342.4 421.338 342.853 422.938 343.76C424.564 344.667 425.844 345.933 426.778 347.56C427.738 349.187 428.218 351.107 428.218 353.32C428.218 355.533 427.738 357.467 426.778 359.12C425.844 360.747 424.564 362.013 422.938 362.92C421.338 363.827 419.484 364.28 417.378 364.28ZM405.538 371.76V342.64H410.298V347.68L410.138 353.36L410.538 359.04V371.76H405.538ZM416.818 360C418.018 360 419.084 359.733 420.018 359.2C420.978 358.667 421.738 357.893 422.298 356.88C422.858 355.867 423.138 354.68 423.138 353.32C423.138 351.933 422.858 350.747 422.298 349.76C421.738 348.747 420.978 347.973 420.018 347.44C419.084 346.907 418.018 346.64 416.818 346.64C415.618 346.64 414.538 346.907 413.578 347.44C412.618 347.973 411.858 348.747 411.298 349.76C410.738 350.747 410.458 351.933 410.458 353.32C410.458 354.68 410.738 355.867 411.298 356.88C411.858 357.893 412.618 358.667 413.578 359.2C414.538 359.733 415.618 360 416.818 360ZM459.92 342.4C461.626 342.4 463.133 342.733 464.44 343.4C465.773 344.067 466.813 345.093 467.56 346.48C468.306 347.84 468.68 349.6 468.68 351.76V364H463.68V352.4C463.68 350.507 463.266 349.093 462.44 348.16C461.613 347.227 460.426 346.76 458.88 346.76C457.786 346.76 456.813 347 455.96 347.48C455.133 347.96 454.48 348.667 454 349.6C453.546 350.533 453.32 351.72 453.32 353.16V364H448.32V352.4C448.32 350.507 447.906 349.093 447.08 348.16C446.253 347.227 445.066 346.76 443.52 346.76C442.426 346.76 441.453 347 440.6 347.48C439.773 347.96 439.12 348.667 438.64 349.6C438.186 350.533 437.96 351.72 437.96 353.16V364H432.96V342.64H437.72V348.32L436.88 346.64C437.6 345.253 438.64 344.2 440 343.48C441.386 342.76 442.96 342.4 444.72 342.4C446.72 342.4 448.453 342.893 449.92 343.88C451.413 344.867 452.4 346.36 452.88 348.36L450.92 347.68C451.613 346.08 452.76 344.8 454.36 343.84C455.96 342.88 457.813 342.4 459.92 342.4ZM485.148 364.28C482.775 364.28 480.695 363.813 478.908 362.88C477.148 361.92 475.775 360.613 474.788 358.96C473.828 357.307 473.348 355.427 473.348 353.32C473.348 351.187 473.815 349.307 474.748 347.68C475.708 346.027 477.015 344.733 478.668 343.8C480.348 342.867 482.255 342.4 484.388 342.4C486.468 342.4 488.321 342.853 489.948 343.76C491.575 344.667 492.855 345.947 493.788 347.6C494.721 349.253 495.188 351.2 495.188 353.44C495.188 353.653 495.175 353.893 495.148 354.16C495.148 354.427 495.135 354.68 495.108 354.92H477.308V351.6H492.468L490.508 352.64C490.535 351.413 490.281 350.333 489.748 349.4C489.215 348.467 488.481 347.733 487.548 347.2C486.641 346.667 485.588 346.4 484.388 346.4C483.161 346.4 482.081 346.667 481.148 347.2C480.241 347.733 479.521 348.48 478.988 349.44C478.481 350.373 478.228 351.48 478.228 352.76V353.56C478.228 354.84 478.521 355.973 479.108 356.96C479.695 357.947 480.521 358.707 481.588 359.24C482.655 359.773 483.881 360.04 485.268 360.04C486.468 360.04 487.548 359.853 488.508 359.48C489.468 359.107 490.321 358.52 491.068 357.72L493.748 360.8C492.788 361.92 491.575 362.787 490.108 363.4C488.668 363.987 487.015 364.28 485.148 364.28ZM512.111 342.4C513.818 342.4 515.338 342.733 516.671 343.4C518.031 344.067 519.098 345.093 519.871 346.48C520.644 347.84 521.031 349.6 521.031 351.76V364H516.031V352.4C516.031 350.507 515.578 349.093 514.671 348.16C513.791 347.227 512.551 346.76 510.951 346.76C509.778 346.76 508.738 347 507.831 347.48C506.924 347.96 506.218 348.68 505.711 349.64C505.231 350.573 504.991 351.76 504.991 353.2V364H499.991V342.64H504.751V348.4L503.911 346.64C504.658 345.28 505.738 344.24 507.151 343.52C508.591 342.773 510.244 342.4 512.111 342.4ZM535.414 364.28C533.067 364.28 531.254 363.68 529.974 362.48C528.694 361.253 528.054 359.453 528.054 357.08V337.92H533.054V356.96C533.054 357.973 533.307 358.76 533.814 359.32C534.347 359.88 535.08 360.16 536.014 360.16C537.134 360.16 538.067 359.867 538.814 359.28L540.214 362.84C539.627 363.32 538.907 363.68 538.054 363.92C537.2 364.16 536.32 364.28 535.414 364.28ZM524.534 346.8V342.8H538.774V346.8H524.534ZM305.764 413V385H310.964V408.6H325.604V413H305.764ZM329.229 413V391.64H334.229V413H329.229ZM331.749 388.12C330.816 388.12 330.043 387.827 329.429 387.24C328.843 386.653 328.549 385.947 328.549 385.12C328.549 384.267 328.843 383.56 329.429 383C330.043 382.413 330.816 382.12 331.749 382.12C332.683 382.12 333.443 382.4 334.029 382.96C334.643 383.493 334.949 384.173 334.949 385C334.949 385.88 334.656 386.627 334.069 387.24C333.483 387.827 332.709 388.12 331.749 388.12ZM341.472 413V390.44C341.472 388.2 342.125 386.413 343.432 385.08C344.765 383.72 346.658 383.04 349.112 383.04C349.992 383.04 350.818 383.133 351.592 383.32C352.392 383.507 353.058 383.8 353.592 384.2L352.232 387.96C351.858 387.667 351.432 387.453 350.952 387.32C350.472 387.16 349.978 387.08 349.472 387.08C348.432 387.08 347.645 387.373 347.112 387.96C346.578 388.52 346.312 389.373 346.312 390.52V392.92L346.472 395.16V413H341.472ZM337.952 395.8V391.8H352.192V395.8H337.952ZM365.285 413.28C362.912 413.28 360.832 412.813 359.045 411.88C357.285 410.92 355.912 409.613 354.925 407.96C353.965 406.307 353.485 404.427 353.485 402.32C353.485 400.187 353.952 398.307 354.885 396.68C355.845 395.027 357.152 393.733 358.805 392.8C360.485 391.867 362.392 391.4 364.525 391.4C366.605 391.4 368.458 391.853 370.085 392.76C371.712 393.667 372.992 394.947 373.925 396.6C374.858 398.253 375.325 400.2 375.325 402.44C375.325 402.653 375.312 402.893 375.285 403.16C375.285 403.427 375.272 403.68 375.245 403.92H357.445V400.6H372.605L370.645 401.64C370.672 400.413 370.418 399.333 369.885 398.4C369.352 397.467 368.618 396.733 367.685 396.2C366.778 395.667 365.725 395.4 364.525 395.4C363.298 395.4 362.218 395.667 361.285 396.2C360.378 396.733 359.658 397.48 359.125 398.44C358.618 399.373 358.365 400.48 358.365 401.76V402.56C358.365 403.84 358.658 404.973 359.245 405.96C359.832 406.947 360.658 407.707 361.725 408.24C362.792 408.773 364.018 409.04 365.405 409.04C366.605 409.04 367.685 408.853 368.645 408.48C369.605 408.107 370.458 407.52 371.205 406.72L373.885 409.8C372.925 410.92 371.712 411.787 370.245 412.4C368.805 412.987 367.152 413.28 365.285 413.28ZM404.622 413.4C402.489 413.4 400.502 413.053 398.662 412.36C396.849 411.64 395.262 410.64 393.902 409.36C392.569 408.053 391.529 406.52 390.782 404.76C390.036 403 389.662 401.08 389.662 399C389.662 396.92 390.036 395 390.782 393.24C391.529 391.48 392.582 389.96 393.942 388.68C395.302 387.373 396.889 386.373 398.702 385.68C400.516 384.96 402.502 384.6 404.662 384.6C406.956 384.6 409.049 385 410.942 385.8C412.836 386.573 414.436 387.733 415.742 389.28L412.382 392.44C411.369 391.347 410.236 390.533 408.982 390C407.729 389.44 406.369 389.16 404.902 389.16C403.436 389.16 402.089 389.4 400.862 389.88C399.662 390.36 398.609 391.04 397.702 391.92C396.822 392.8 396.129 393.84 395.622 395.04C395.142 396.24 394.902 397.56 394.902 399C394.902 400.44 395.142 401.76 395.622 402.96C396.129 404.16 396.822 405.2 397.702 406.08C398.609 406.96 399.662 407.64 400.862 408.12C402.089 408.6 403.436 408.84 404.902 408.84C406.369 408.84 407.729 408.573 408.982 408.04C410.236 407.48 411.369 406.64 412.382 405.52L415.742 408.72C414.436 410.24 412.836 411.4 410.942 412.2C409.049 413 406.942 413.4 404.622 413.4ZM422.005 421.04C420.965 421.04 419.925 420.867 418.885 420.52C417.845 420.173 416.978 419.693 416.285 419.08L418.285 415.4C418.792 415.853 419.365 416.213 420.005 416.48C420.645 416.747 421.298 416.88 421.965 416.88C422.872 416.88 423.605 416.653 424.165 416.2C424.725 415.747 425.245 414.987 425.725 413.92L426.965 411.12L427.365 410.52L435.445 391.64H440.245L430.245 414.72C429.578 416.32 428.832 417.587 428.005 418.52C427.205 419.453 426.298 420.107 425.285 420.48C424.298 420.853 423.205 421.04 422.005 421.04ZM426.405 413.76L416.765 391.64H421.965L429.805 410.08L426.405 413.76ZM452.584 413.28C450.344 413.28 448.344 412.813 446.584 411.88C444.851 410.92 443.491 409.613 442.504 407.96C441.517 406.307 441.024 404.427 441.024 402.32C441.024 400.187 441.517 398.307 442.504 396.68C443.491 395.027 444.851 393.733 446.584 392.8C448.344 391.867 450.344 391.4 452.584 391.4C454.664 391.4 456.491 391.827 458.064 392.68C459.664 393.507 460.877 394.733 461.704 396.36L457.864 398.6C457.224 397.587 456.437 396.84 455.504 396.36C454.597 395.88 453.611 395.64 452.544 395.64C451.317 395.64 450.211 395.907 449.224 396.44C448.237 396.973 447.464 397.747 446.904 398.76C446.344 399.747 446.064 400.933 446.064 402.32C446.064 403.707 446.344 404.907 446.904 405.92C447.464 406.907 448.237 407.667 449.224 408.2C450.211 408.733 451.317 409 452.544 409C453.611 409 454.597 408.76 455.504 408.28C456.437 407.8 457.224 407.053 457.864 406.04L461.704 408.28C460.877 409.88 459.664 411.12 458.064 412C456.491 412.853 454.664 413.28 452.584 413.28ZM465.831 413V383.32H470.831V413H465.831ZM487.433 413.28C485.06 413.28 482.98 412.813 481.193 411.88C479.433 410.92 478.06 409.613 477.073 407.96C476.113 406.307 475.633 404.427 475.633 402.32C475.633 400.187 476.1 398.307 477.033 396.68C477.993 395.027 479.3 393.733 480.953 392.8C482.633 391.867 484.54 391.4 486.673 391.4C488.753 391.4 490.607 391.853 492.233 392.76C493.86 393.667 495.14 394.947 496.073 396.6C497.007 398.253 497.473 400.2 497.473 402.44C497.473 402.653 497.46 402.893 497.433 403.16C497.433 403.427 497.42 403.68 497.393 403.92H479.593V400.6H494.753L492.793 401.64C492.82 400.413 492.567 399.333 492.033 398.4C491.5 397.467 490.767 396.733 489.833 396.2C488.927 395.667 487.873 395.4 486.673 395.4C485.447 395.4 484.367 395.667 483.433 396.2C482.527 396.733 481.807 397.48 481.273 398.44C480.767 399.373 480.513 400.48 480.513 401.76V402.56C480.513 403.84 480.807 404.973 481.393 405.96C481.98 406.947 482.807 407.707 483.873 408.24C484.94 408.773 486.167 409.04 487.553 409.04C488.753 409.04 489.833 408.853 490.793 408.48C491.753 408.107 492.607 407.52 493.353 406.72L496.033 409.8C495.073 410.92 493.86 411.787 492.393 412.4C490.953 412.987 489.3 413.28 487.433 413.28ZM265.139 462V434H269.419L281.659 454.44H279.419L291.459 434H295.739L295.779 462H290.859L290.819 441.72H291.859L281.619 458.8H279.299L268.899 441.72H270.099V462H265.139ZM316.022 462V457.68L315.742 456.76V449.2C315.742 447.733 315.302 446.6 314.422 445.8C313.542 444.973 312.209 444.56 310.422 444.56C309.222 444.56 308.035 444.747 306.862 445.12C305.715 445.493 304.742 446.013 303.942 446.68L301.982 443.04C303.129 442.16 304.489 441.507 306.062 441.08C307.662 440.627 309.315 440.4 311.022 440.4C314.115 440.4 316.502 441.147 318.182 442.64C319.889 444.107 320.742 446.387 320.742 449.48V462H316.022ZM309.302 462.28C307.702 462.28 306.302 462.013 305.102 461.48C303.902 460.92 302.969 460.16 302.302 459.2C301.662 458.213 301.342 457.107 301.342 455.88C301.342 454.68 301.622 453.6 302.182 452.64C302.769 451.68 303.715 450.92 305.022 450.36C306.329 449.8 308.062 449.52 310.222 449.52H316.422V452.84H310.582C308.875 452.84 307.729 453.12 307.142 453.68C306.555 454.213 306.262 454.88 306.262 455.68C306.262 456.587 306.622 457.307 307.342 457.84C308.062 458.373 309.062 458.64 310.342 458.64C311.569 458.64 312.662 458.36 313.622 457.8C314.609 457.24 315.315 456.413 315.742 455.32L316.582 458.32C316.102 459.573 315.235 460.547 313.982 461.24C312.755 461.933 311.195 462.28 309.302 462.28ZM339.279 440.4C340.986 440.4 342.506 440.733 343.839 441.4C345.199 442.067 346.266 443.093 347.039 444.48C347.812 445.84 348.199 447.6 348.199 449.76V462H343.199V450.4C343.199 448.507 342.746 447.093 341.839 446.16C340.959 445.227 339.719 444.76 338.119 444.76C336.946 444.76 335.906 445 334.999 445.48C334.092 445.96 333.386 446.68 332.879 447.64C332.399 448.573 332.159 449.76 332.159 451.2V462H327.159V440.64H331.919V446.4L331.079 444.64C331.826 443.28 332.906 442.24 334.319 441.52C335.759 440.773 337.412 440.4 339.279 440.4ZM367.702 462V457.68L367.422 456.76V449.2C367.422 447.733 366.982 446.6 366.102 445.8C365.222 444.973 363.888 444.56 362.102 444.56C360.902 444.56 359.715 444.747 358.542 445.12C357.395 445.493 356.422 446.013 355.622 446.68L353.662 443.04C354.808 442.16 356.168 441.507 357.742 441.08C359.342 440.627 360.995 440.4 362.702 440.4C365.795 440.4 368.182 441.147 369.862 442.64C371.568 444.107 372.422 446.387 372.422 449.48V462H367.702ZM360.982 462.28C359.382 462.28 357.982 462.013 356.782 461.48C355.582 460.92 354.648 460.16 353.982 459.2C353.342 458.213 353.022 457.107 353.022 455.88C353.022 454.68 353.302 453.6 353.862 452.64C354.448 451.68 355.395 450.92 356.702 450.36C358.008 449.8 359.742 449.52 361.902 449.52H368.102V452.84H362.262C360.555 452.84 359.408 453.12 358.822 453.68C358.235 454.213 357.942 454.88 357.942 455.68C357.942 456.587 358.302 457.307 359.022 457.84C359.742 458.373 360.742 458.64 362.022 458.64C363.248 458.64 364.342 458.36 365.302 457.8C366.288 457.24 366.995 456.413 367.422 455.32L368.262 458.32C367.782 459.573 366.915 460.547 365.662 461.24C364.435 461.933 362.875 462.28 360.982 462.28ZM388.558 470.04C386.584 470.04 384.651 469.773 382.758 469.24C380.891 468.733 379.358 467.987 378.158 467L380.398 463.24C381.331 464.013 382.504 464.627 383.918 465.08C385.358 465.56 386.811 465.8 388.278 465.8C390.624 465.8 392.344 465.253 393.438 464.16C394.531 463.093 395.078 461.48 395.078 459.32V455.52L395.478 450.68L395.318 445.84V440.64H400.078V458.76C400.078 462.627 399.091 465.467 397.118 467.28C395.144 469.12 392.291 470.04 388.558 470.04ZM387.918 461.04C385.891 461.04 384.051 460.613 382.398 459.76C380.771 458.88 379.478 457.667 378.518 456.12C377.584 454.573 377.118 452.76 377.118 450.68C377.118 448.627 377.584 446.827 378.518 445.28C379.478 443.733 380.771 442.533 382.398 441.68C384.051 440.827 385.891 440.4 387.918 440.4C389.731 440.4 391.358 440.76 392.798 441.48C394.238 442.2 395.384 443.32 396.238 444.84C397.118 446.36 397.558 448.307 397.558 450.68C397.558 453.053 397.118 455.013 396.238 456.56C395.384 458.08 394.238 459.213 392.798 459.96C391.358 460.68 389.731 461.04 387.918 461.04ZM388.678 456.8C389.931 456.8 391.051 456.547 392.038 456.04C393.024 455.507 393.784 454.787 394.318 453.88C394.878 452.947 395.158 451.88 395.158 450.68C395.158 449.48 394.878 448.427 394.318 447.52C393.784 446.587 393.024 445.88 392.038 445.4C391.051 444.893 389.931 444.64 388.678 444.64C387.424 444.64 386.291 444.893 385.278 445.4C384.291 445.88 383.518 446.587 382.958 447.52C382.424 448.427 382.158 449.48 382.158 450.68C382.158 451.88 382.424 452.947 382.958 453.88C383.518 454.787 384.291 455.507 385.278 456.04C386.291 456.547 387.424 456.8 388.678 456.8ZM416.691 462.28C414.318 462.28 412.238 461.813 410.451 460.88C408.691 459.92 407.318 458.613 406.331 456.96C405.371 455.307 404.891 453.427 404.891 451.32C404.891 449.187 405.358 447.307 406.291 445.68C407.251 444.027 408.558 442.733 410.211 441.8C411.891 440.867 413.798 440.4 415.931 440.4C418.011 440.4 419.864 440.853 421.491 441.76C423.118 442.667 424.398 443.947 425.331 445.6C426.264 447.253 426.731 449.2 426.731 451.44C426.731 451.653 426.718 451.893 426.691 452.16C426.691 452.427 426.678 452.68 426.651 452.92H408.851V449.6H424.011L422.051 450.64C422.078 449.413 421.824 448.333 421.291 447.4C420.758 446.467 420.024 445.733 419.091 445.2C418.184 444.667 417.131 444.4 415.931 444.4C414.704 444.4 413.624 444.667 412.691 445.2C411.784 445.733 411.064 446.48 410.531 447.44C410.024 448.373 409.771 449.48 409.771 450.76V451.56C409.771 452.84 410.064 453.973 410.651 454.96C411.238 455.947 412.064 456.707 413.131 457.24C414.198 457.773 415.424 458.04 416.811 458.04C418.011 458.04 419.091 457.853 420.051 457.48C421.011 457.107 421.864 456.52 422.611 455.72L425.291 458.8C424.331 459.92 423.118 460.787 421.651 461.4C420.211 461.987 418.558 462.28 416.691 462.28ZM458.494 440.4C460.201 440.4 461.707 440.733 463.014 441.4C464.347 442.067 465.387 443.093 466.134 444.48C466.881 445.84 467.254 447.6 467.254 449.76V462H462.254V450.4C462.254 448.507 461.841 447.093 461.014 446.16C460.187 445.227 459.001 444.76 457.454 444.76C456.361 444.76 455.387 445 454.534 445.48C453.707 445.96 453.054 446.667 452.574 447.6C452.121 448.533 451.894 449.72 451.894 451.16V462H446.894V450.4C446.894 448.507 446.481 447.093 445.654 446.16C444.827 445.227 443.641 444.76 442.094 444.76C441.001 444.76 440.027 445 439.174 445.48C438.347 445.96 437.694 446.667 437.214 447.6C436.761 448.533 436.534 449.72 436.534 451.16V462H431.534V440.64H436.294V446.32L435.454 444.64C436.174 443.253 437.214 442.2 438.574 441.48C439.961 440.76 441.534 440.4 443.294 440.4C445.294 440.4 447.027 440.893 448.494 441.88C449.987 442.867 450.974 444.36 451.454 446.36L449.494 445.68C450.187 444.08 451.334 442.8 452.934 441.84C454.534 440.88 456.387 440.4 458.494 440.4ZM483.722 462.28C481.349 462.28 479.269 461.813 477.482 460.88C475.722 459.92 474.349 458.613 473.362 456.96C472.402 455.307 471.922 453.427 471.922 451.32C471.922 449.187 472.389 447.307 473.322 445.68C474.282 444.027 475.589 442.733 477.242 441.8C478.922 440.867 480.829 440.4 482.962 440.4C485.042 440.4 486.896 440.853 488.522 441.76C490.149 442.667 491.429 443.947 492.362 445.6C493.296 447.253 493.762 449.2 493.762 451.44C493.762 451.653 493.749 451.893 493.722 452.16C493.722 452.427 493.709 452.68 493.682 452.92H475.882V449.6H491.042L489.082 450.64C489.109 449.413 488.856 448.333 488.322 447.4C487.789 446.467 487.056 445.733 486.122 445.2C485.216 444.667 484.162 444.4 482.962 444.4C481.736 444.4 480.656 444.667 479.722 445.2C478.816 445.733 478.096 446.48 477.562 447.44C477.056 448.373 476.802 449.48 476.802 450.76V451.56C476.802 452.84 477.096 453.973 477.682 454.96C478.269 455.947 479.096 456.707 480.162 457.24C481.229 457.773 482.456 458.04 483.842 458.04C485.042 458.04 486.122 457.853 487.082 457.48C488.042 457.107 488.896 456.52 489.642 455.72L492.322 458.8C491.362 459.92 490.149 460.787 488.682 461.4C487.242 461.987 485.589 462.28 483.722 462.28ZM510.685 440.4C512.392 440.4 513.912 440.733 515.245 441.4C516.605 442.067 517.672 443.093 518.445 444.48C519.218 445.84 519.605 447.6 519.605 449.76V462H514.605V450.4C514.605 448.507 514.152 447.093 513.245 446.16C512.365 445.227 511.125 444.76 509.525 444.76C508.352 444.76 507.312 445 506.405 445.48C505.498 445.96 504.792 446.68 504.285 447.64C503.805 448.573 503.565 449.76 503.565 451.2V462H498.565V440.64H503.325V446.4L502.485 444.64C503.232 443.28 504.312 442.24 505.725 441.52C507.165 440.773 508.818 440.4 510.685 440.4ZM533.988 462.28C531.641 462.28 529.828 461.68 528.548 460.48C527.268 459.253 526.628 457.453 526.628 455.08V435.92H531.628V454.96C531.628 455.973 531.881 456.76 532.388 457.32C532.921 457.88 533.655 458.16 534.588 458.16C535.708 458.16 536.641 457.867 537.388 457.28L538.788 460.84C538.201 461.32 537.481 461.68 536.628 461.92C535.775 462.16 534.895 462.28 533.988 462.28ZM523.108 444.8V440.8H537.348V444.8H523.108ZM249.944 511V483H254.224L266.464 503.44H264.224L276.264 483H280.544L280.584 511H275.664L275.624 490.72H276.664L266.424 507.8H264.104L253.704 490.72H254.904V511H249.944ZM297.707 511.28C295.333 511.28 293.253 510.813 291.467 509.88C289.707 508.92 288.333 507.613 287.347 505.96C286.387 504.307 285.907 502.427 285.907 500.32C285.907 498.187 286.373 496.307 287.307 494.68C288.267 493.027 289.573 491.733 291.227 490.8C292.907 489.867 294.813 489.4 296.947 489.4C299.027 489.4 300.88 489.853 302.507 490.76C304.133 491.667 305.413 492.947 306.347 494.6C307.28 496.253 307.747 498.2 307.747 500.44C307.747 500.653 307.733 500.893 307.707 501.16C307.707 501.427 307.693 501.68 307.667 501.92H289.867V498.6H305.027L303.067 499.64C303.093 498.413 302.84 497.333 302.307 496.4C301.773 495.467 301.04 494.733 300.107 494.2C299.2 493.667 298.147 493.4 296.947 493.4C295.72 493.4 294.64 493.667 293.707 494.2C292.8 494.733 292.08 495.48 291.547 496.44C291.04 497.373 290.787 498.48 290.787 499.76V500.56C290.787 501.84 291.08 502.973 291.667 503.96C292.253 504.947 293.08 505.707 294.147 506.24C295.213 506.773 296.44 507.04 297.827 507.04C299.027 507.04 300.107 506.853 301.067 506.48C302.027 506.107 302.88 505.52 303.627 504.72L306.307 507.8C305.347 508.92 304.133 509.787 302.667 510.4C301.227 510.987 299.573 511.28 297.707 511.28ZM320.59 511.28C318.243 511.28 316.43 510.68 315.15 509.48C313.87 508.253 313.23 506.453 313.23 504.08V484.92H318.23V503.96C318.23 504.973 318.483 505.76 318.99 506.32C319.523 506.88 320.256 507.16 321.19 507.16C322.31 507.16 323.243 506.867 323.99 506.28L325.39 509.84C324.803 510.32 324.083 510.68 323.23 510.92C322.376 511.16 321.496 511.28 320.59 511.28ZM309.71 493.8V489.8H323.95V493.8H309.71ZM341.623 489.4C343.329 489.4 344.849 489.733 346.183 490.4C347.543 491.067 348.609 492.093 349.383 493.48C350.156 494.84 350.543 496.6 350.543 498.76V511H345.543V499.4C345.543 497.507 345.089 496.093 344.183 495.16C343.303 494.227 342.063 493.76 340.463 493.76C339.289 493.76 338.249 494 337.343 494.48C336.436 494.96 335.729 495.68 335.223 496.64C334.743 497.573 334.503 498.76 334.503 500.2V511H329.503V481.32H334.503V495.4L333.423 493.64C334.169 492.28 335.249 491.24 336.663 490.52C338.103 489.773 339.756 489.4 341.623 489.4ZM366.525 511.28C364.338 511.28 362.391 510.813 360.685 509.88C358.978 508.92 357.631 507.613 356.645 505.96C355.658 504.307 355.165 502.427 355.165 500.32C355.165 498.187 355.658 496.307 356.645 494.68C357.631 493.027 358.978 491.733 360.685 490.8C362.391 489.867 364.338 489.4 366.525 489.4C368.738 489.4 370.698 489.867 372.405 490.8C374.138 491.733 375.485 493.013 376.445 494.64C377.431 496.267 377.925 498.16 377.925 500.32C377.925 502.427 377.431 504.307 376.445 505.96C375.485 507.613 374.138 508.92 372.405 509.88C370.698 510.813 368.738 511.28 366.525 511.28ZM366.525 507C367.751 507 368.845 506.733 369.805 506.2C370.765 505.667 371.511 504.893 372.045 503.88C372.605 502.867 372.885 501.68 372.885 500.32C372.885 498.933 372.605 497.747 372.045 496.76C371.511 495.747 370.765 494.973 369.805 494.44C368.845 493.907 367.765 493.64 366.565 493.64C365.338 493.64 364.245 493.907 363.285 494.44C362.351 494.973 361.605 495.747 361.045 496.76C360.485 497.747 360.205 498.933 360.205 500.32C360.205 501.68 360.485 502.867 361.045 503.88C361.605 504.893 362.351 505.667 363.285 506.2C364.245 506.733 365.325 507 366.525 507ZM391.746 511.28C389.692 511.28 387.839 510.827 386.186 509.92C384.559 508.987 383.279 507.707 382.346 506.08C381.412 504.453 380.946 502.533 380.946 500.32C380.946 498.107 381.412 496.187 382.346 494.56C383.279 492.933 384.559 491.667 386.186 490.76C387.839 489.853 389.692 489.4 391.746 489.4C393.532 489.4 395.132 489.8 396.546 490.6C397.959 491.373 399.079 492.56 399.906 494.16C400.732 495.76 401.146 497.813 401.146 500.32C401.146 502.8 400.746 504.853 399.946 506.48C399.146 508.08 398.039 509.28 396.626 510.08C395.212 510.88 393.586 511.28 391.746 511.28ZM392.346 507C393.546 507 394.612 506.733 395.546 506.2C396.506 505.667 397.266 504.893 397.826 503.88C398.412 502.867 398.706 501.68 398.706 500.32C398.706 498.933 398.412 497.747 397.826 496.76C397.266 495.747 396.506 494.973 395.546 494.44C394.612 493.907 393.546 493.64 392.346 493.64C391.146 493.64 390.066 493.907 389.106 494.44C388.172 494.973 387.412 495.747 386.826 496.76C386.266 497.747 385.986 498.933 385.986 500.32C385.986 501.68 386.266 502.867 386.826 503.88C387.412 504.893 388.172 505.667 389.106 506.2C390.066 506.733 391.146 507 392.346 507ZM398.826 511V505.96L399.026 500.28L398.626 494.6V481.32H403.586V511H398.826ZM419.767 511.28C417.58 511.28 415.633 510.813 413.927 509.88C412.22 508.92 410.873 507.613 409.887 505.96C408.9 504.307 408.407 502.427 408.407 500.32C408.407 498.187 408.9 496.307 409.887 494.68C410.873 493.027 412.22 491.733 413.927 490.8C415.633 489.867 417.58 489.4 419.767 489.4C421.98 489.4 423.94 489.867 425.647 490.8C427.38 491.733 428.727 493.013 429.687 494.64C430.673 496.267 431.167 498.16 431.167 500.32C431.167 502.427 430.673 504.307 429.687 505.96C428.727 507.613 427.38 508.92 425.647 509.88C423.94 510.813 421.98 511.28 419.767 511.28ZM419.767 507C420.993 507 422.087 506.733 423.047 506.2C424.007 505.667 424.753 504.893 425.287 503.88C425.847 502.867 426.127 501.68 426.127 500.32C426.127 498.933 425.847 497.747 425.287 496.76C424.753 495.747 424.007 494.973 423.047 494.44C422.087 493.907 421.007 493.64 419.807 493.64C418.58 493.64 417.487 493.907 416.527 494.44C415.593 494.973 414.847 495.747 414.287 496.76C413.727 497.747 413.447 498.933 413.447 500.32C413.447 501.68 413.727 502.867 414.287 503.88C414.847 504.893 415.593 505.667 416.527 506.2C417.487 506.733 418.567 507 419.767 507ZM435.948 511V481.32H440.948V511H435.948ZM457.11 511.28C454.924 511.28 452.977 510.813 451.27 509.88C449.564 508.92 448.217 507.613 447.23 505.96C446.244 504.307 445.75 502.427 445.75 500.32C445.75 498.187 446.244 496.307 447.23 494.68C448.217 493.027 449.564 491.733 451.27 490.8C452.977 489.867 454.924 489.4 457.11 489.4C459.324 489.4 461.284 489.867 462.99 490.8C464.724 491.733 466.07 493.013 467.03 494.64C468.017 496.267 468.51 498.16 468.51 500.32C468.51 502.427 468.017 504.307 467.03 505.96C466.07 507.613 464.724 508.92 462.99 509.88C461.284 510.813 459.324 511.28 457.11 511.28ZM457.11 507C458.337 507 459.43 506.733 460.39 506.2C461.35 505.667 462.097 504.893 462.63 503.88C463.19 502.867 463.47 501.68 463.47 500.32C463.47 498.933 463.19 497.747 462.63 496.76C462.097 495.747 461.35 494.973 460.39 494.44C459.43 493.907 458.35 493.64 457.15 493.64C455.924 493.64 454.83 493.907 453.87 494.44C452.937 494.973 452.19 495.747 451.63 496.76C451.07 497.747 450.79 498.933 450.79 500.32C450.79 501.68 451.07 502.867 451.63 503.88C452.19 504.893 452.937 505.667 453.87 506.2C454.83 506.733 455.91 507 457.11 507ZM482.972 519.04C480.998 519.04 479.065 518.773 477.172 518.24C475.305 517.733 473.772 516.987 472.572 516L474.812 512.24C475.745 513.013 476.918 513.627 478.332 514.08C479.772 514.56 481.225 514.8 482.692 514.8C485.038 514.8 486.758 514.253 487.852 513.16C488.945 512.093 489.492 510.48 489.492 508.32V504.52L489.892 499.68L489.732 494.84V489.64H494.492V507.76C494.492 511.627 493.505 514.467 491.532 516.28C489.558 518.12 486.705 519.04 482.972 519.04ZM482.332 510.04C480.305 510.04 478.465 509.613 476.812 508.76C475.185 507.88 473.892 506.667 472.932 505.12C471.998 503.573 471.532 501.76 471.532 499.68C471.532 497.627 471.998 495.827 472.932 494.28C473.892 492.733 475.185 491.533 476.812 490.68C478.465 489.827 480.305 489.4 482.332 489.4C484.145 489.4 485.772 489.76 487.212 490.48C488.652 491.2 489.798 492.32 490.652 493.84C491.532 495.36 491.972 497.307 491.972 499.68C491.972 502.053 491.532 504.013 490.652 505.56C489.798 507.08 488.652 508.213 487.212 508.96C485.772 509.68 484.145 510.04 482.332 510.04ZM483.092 505.8C484.345 505.8 485.465 505.547 486.452 505.04C487.438 504.507 488.198 503.787 488.732 502.88C489.292 501.947 489.572 500.88 489.572 499.68C489.572 498.48 489.292 497.427 488.732 496.52C488.198 495.587 487.438 494.88 486.452 494.4C485.465 493.893 484.345 493.64 483.092 493.64C481.838 493.64 480.705 493.893 479.692 494.4C478.705 494.88 477.932 495.587 477.372 496.52C476.838 497.427 476.572 498.48 476.572 499.68C476.572 500.88 476.838 501.947 477.372 502.88C477.932 503.787 478.705 504.507 479.692 505.04C480.705 505.547 481.838 505.8 483.092 505.8ZM501.065 511V489.64H506.065V511H501.065ZM503.585 486.12C502.652 486.12 501.878 485.827 501.265 485.24C500.678 484.653 500.385 483.947 500.385 483.12C500.385 482.267 500.678 481.56 501.265 481C501.878 480.413 502.652 480.12 503.585 480.12C504.518 480.12 505.278 480.4 505.865 480.96C506.478 481.493 506.785 482.173 506.785 483C506.785 483.88 506.492 484.627 505.905 485.24C505.318 485.827 504.545 486.12 503.585 486.12ZM522.668 511.28C520.294 511.28 518.214 510.813 516.428 509.88C514.668 508.92 513.294 507.613 512.308 505.96C511.348 504.307 510.868 502.427 510.868 500.32C510.868 498.187 511.334 496.307 512.268 494.68C513.228 493.027 514.534 491.733 516.188 490.8C517.868 489.867 519.774 489.4 521.908 489.4C523.988 489.4 525.841 489.853 527.468 490.76C529.094 491.667 530.374 492.947 531.308 494.6C532.241 496.253 532.708 498.2 532.708 500.44C532.708 500.653 532.694 500.893 532.668 501.16C532.668 501.427 532.654 501.68 532.628 501.92H514.828V498.6H529.988L528.028 499.64C528.054 498.413 527.801 497.333 527.268 496.4C526.734 495.467 526.001 494.733 525.068 494.2C524.161 493.667 523.108 493.4 521.908 493.4C520.681 493.4 519.601 493.667 518.668 494.2C517.761 494.733 517.041 495.48 516.508 496.44C516.001 497.373 515.748 498.48 515.748 499.76V500.56C515.748 501.84 516.041 502.973 516.628 503.96C517.214 504.947 518.041 505.707 519.108 506.24C520.174 506.773 521.401 507.04 522.788 507.04C523.988 507.04 525.068 506.853 526.028 506.48C526.988 506.107 527.841 505.52 528.588 504.72L531.268 507.8C530.308 508.92 529.094 509.787 527.628 510.4C526.188 510.987 524.534 511.28 522.668 511.28ZM544.11 511.28C542.324 511.28 540.604 511.053 538.95 510.6C537.324 510.12 536.03 509.547 535.07 508.88L536.99 505.08C537.95 505.693 539.097 506.2 540.43 506.6C541.764 507 543.097 507.2 544.43 507.2C546.004 507.2 547.137 506.987 547.83 506.56C548.55 506.133 548.91 505.56 548.91 504.84C548.91 504.253 548.67 503.813 548.19 503.52C547.71 503.2 547.084 502.96 546.31 502.8C545.537 502.64 544.67 502.493 543.71 502.36C542.777 502.227 541.83 502.053 540.87 501.84C539.937 501.6 539.084 501.267 538.31 500.84C537.537 500.387 536.91 499.787 536.43 499.04C535.95 498.293 535.71 497.307 535.71 496.08C535.71 494.72 536.097 493.547 536.87 492.56C537.644 491.547 538.724 490.773 540.11 490.24C541.524 489.68 543.19 489.4 545.11 489.4C546.55 489.4 548.004 489.56 549.47 489.88C550.937 490.2 552.15 490.653 553.11 491.24L551.19 495.04C550.177 494.427 549.15 494.013 548.11 493.8C547.097 493.56 546.084 493.44 545.07 493.44C543.55 493.44 542.417 493.667 541.67 494.12C540.95 494.573 540.59 495.147 540.59 495.84C540.59 496.48 540.83 496.96 541.31 497.28C541.79 497.6 542.417 497.853 543.19 498.04C543.964 498.227 544.817 498.387 545.75 498.52C546.71 498.627 547.657 498.8 548.59 499.04C549.524 499.28 550.377 499.613 551.15 500.04C551.95 500.44 552.59 501.013 553.07 501.76C553.55 502.507 553.79 503.48 553.79 504.68C553.79 506.013 553.39 507.173 552.59 508.16C551.817 509.147 550.71 509.92 549.27 510.48C547.83 511.013 546.11 511.28 544.11 511.28Z" fill="#F8F8F8"/>
<circle cx="401" cy="100" r="100" fill="#F1CBA2"/>
<circle cx="401" cy="100" r="100" fill="white" fill-opacity="0.8"/>
<circle cx="700" cy="399" r="100" fill="#FB6233"/>
<circle cx="700" cy="399" r="100" fill="white" fill-opacity="0.8"/>
<circle cx="100" cy="399" r="100" fill="#DFC3F9"/>
<circle cx="401" cy="698" r="100" fill="#D84C4E"/>
<circle cx="401" cy="698" r="100" fill="white" fill-opacity="0.4"/>
<circle cx="611.998" cy="188.421" r="100" transform="rotate(45 611.998 188.421)" fill="#00B4CA"/>
<circle cx="611.998" cy="188.421" r="100" transform="rotate(45 611.998 188.421)" fill="white" fill-opacity="0.8"/>
<circle cx="612" cy="611.421" r="100" transform="rotate(45 612 611.421)" fill="#0067A8"/>
<circle cx="612" cy="611.421" r="100" transform="rotate(45 612 611.421)" fill="white" fill-opacity="0.6"/>
<circle cx="187" cy="186.421" r="100" transform="rotate(45 187 186.421)" fill="#60A394"/>
<circle cx="187" cy="186.421" r="100" transform="rotate(45 187 186.421)" fill="white" fill-opacity="0.8"/>
<circle cx="189" cy="611.421" r="100" transform="rotate(45 189 611.421)" fill="#D19129"/>
<circle cx="189" cy="611.421" r="100" transform="rotate(45 189 611.421)" fill="white" fill-opacity="0.6"/>
<path d="M331.204 108L325.636 91.2H328.876L333.844 106.392H332.236L337.396 91.2H340.276L345.292 106.392H343.732L348.82 91.2H351.796L346.228 108H342.916L338.332 94.296H339.196L334.54 108H331.204ZM351.423 108L358.983 91.2H362.055L369.639 108H366.375L359.871 92.856H361.119L354.639 108H351.423ZM354.903 104.112L355.743 101.664H364.815L365.655 104.112H354.903ZM374.34 108V93.84H368.772V91.2H383.028V93.84H377.46V108H374.34ZM388.249 98.184H396.601V100.752H388.249V98.184ZM388.489 105.384H397.969V108H385.369V91.2H397.633V93.816H388.489V105.384ZM401.447 108V91.2H408.359C409.847 91.2 411.119 91.44 412.175 91.92C413.247 92.4 414.071 93.088 414.647 93.984C415.223 94.88 415.511 95.944 415.511 97.176C415.511 98.408 415.223 99.472 414.647 100.368C414.071 101.248 413.247 101.928 412.175 102.408C411.119 102.872 409.847 103.104 408.359 103.104H403.175L404.567 101.688V108H401.447ZM412.439 108L408.191 101.904H411.527L415.799 108H412.439ZM404.567 102.024L403.175 100.536H408.215C409.591 100.536 410.623 100.24 411.311 99.648C412.015 99.056 412.367 98.232 412.367 97.176C412.367 96.104 412.015 95.28 411.311 94.704C410.623 94.128 409.591 93.84 408.215 93.84H403.175L404.567 92.304V102.024ZM421.858 98.928H430.234V101.568H421.858V98.928ZM422.122 108H419.002V91.2H431.266V93.816H422.122V108ZM431.181 108L438.741 91.2H441.813L449.397 108H446.133L439.629 92.856H440.877L434.397 108H431.181ZM434.661 104.112L435.501 101.664H444.573L445.413 104.112H434.661ZM451.533 108V91.2H454.653V105.36H463.437V108H451.533ZM465.901 108V91.2H469.021V105.36H477.805V108H465.901Z" fill="black"/>
<path d="M574.185 197L581.745 180.2H584.817L592.401 197H589.137L582.633 181.856H583.881L577.401 197H574.185ZM577.665 193.112L578.505 190.664H587.577L588.417 193.112H577.665ZM602.151 197.24C600.839 197.24 599.631 197.032 598.527 196.616C597.439 196.184 596.487 195.584 595.671 194.816C594.855 194.032 594.223 193.112 593.775 192.056C593.327 191 593.103 189.848 593.103 188.6C593.103 187.352 593.327 186.2 593.775 185.144C594.223 184.088 594.855 183.176 595.671 182.408C596.503 181.624 597.471 181.024 598.575 180.608C599.679 180.176 600.887 179.96 602.199 179.96C603.623 179.96 604.903 180.192 606.039 180.656C607.191 181.12 608.159 181.8 608.943 182.696L606.975 184.616C606.319 183.96 605.607 183.48 604.839 183.176C604.087 182.856 603.255 182.696 602.343 182.696C601.463 182.696 600.647 182.84 599.895 183.128C599.143 183.416 598.495 183.824 597.951 184.352C597.407 184.88 596.983 185.504 596.679 186.224C596.391 186.944 596.247 187.736 596.247 188.6C596.247 189.448 596.391 190.232 596.679 190.952C596.983 191.672 597.407 192.304 597.951 192.848C598.495 193.376 599.135 193.784 599.871 194.072C600.607 194.36 601.423 194.504 602.319 194.504C603.151 194.504 603.951 194.376 604.719 194.12C605.503 193.848 606.247 193.4 606.951 192.776L608.727 195.104C607.847 195.808 606.823 196.344 605.655 196.712C604.503 197.064 603.335 197.24 602.151 197.24ZM605.775 194.696V188.408H608.727V195.104L605.775 194.696ZM612.842 197V180.2H615.962V197H612.842ZM620.506 197V180.2H623.626V194.36H632.41V197H620.506ZM637.753 187.184H646.105V189.752H637.753V187.184ZM637.993 194.384H647.473V197H634.873V180.2H647.137V182.816H637.993V194.384Z" fill="black"/>
<path d="M661.991 407.24C660.679 407.24 659.423 407.056 658.223 406.688C657.023 406.304 656.071 405.816 655.367 405.224L656.447 402.8C657.119 403.328 657.951 403.768 658.943 404.12C659.935 404.472 660.951 404.648 661.991 404.648C662.871 404.648 663.583 404.552 664.127 404.36C664.671 404.168 665.071 403.912 665.327 403.592C665.583 403.256 665.711 402.88 665.711 402.464C665.711 401.952 665.527 401.544 665.159 401.24C664.791 400.92 664.311 400.672 663.719 400.496C663.143 400.304 662.495 400.128 661.775 399.968C661.071 399.808 660.359 399.624 659.639 399.416C658.935 399.192 658.287 398.912 657.695 398.576C657.119 398.224 656.647 397.76 656.279 397.184C655.911 396.608 655.727 395.872 655.727 394.976C655.727 394.064 655.967 393.232 656.447 392.48C656.943 391.712 657.687 391.104 658.679 390.656C659.687 390.192 660.959 389.96 662.495 389.96C663.503 389.96 664.503 390.088 665.495 390.344C666.487 390.6 667.351 390.968 668.087 391.448L667.103 393.872C666.351 393.424 665.575 393.096 664.775 392.888C663.975 392.664 663.207 392.552 662.471 392.552C661.607 392.552 660.903 392.656 660.359 392.864C659.831 393.072 659.439 393.344 659.183 393.68C658.943 394.016 658.823 394.4 658.823 394.832C658.823 395.344 658.999 395.76 659.351 396.08C659.719 396.384 660.191 396.624 660.767 396.8C661.359 396.976 662.015 397.152 662.735 397.328C663.455 397.488 664.167 397.672 664.871 397.88C665.591 398.088 666.239 398.36 666.815 398.696C667.407 399.032 667.879 399.488 668.231 400.064C668.599 400.64 668.783 401.368 668.783 402.248C668.783 403.144 668.535 403.976 668.039 404.744C667.559 405.496 666.815 406.104 665.807 406.568C664.799 407.016 663.527 407.24 661.991 407.24ZM679.653 407.24C678.373 407.24 677.181 407.032 676.077 406.616C674.989 406.184 674.037 405.584 673.221 404.816C672.421 404.032 671.797 403.112 671.349 402.056C670.901 401 670.677 399.848 670.677 398.6C670.677 397.352 670.901 396.2 671.349 395.144C671.797 394.088 672.429 393.176 673.245 392.408C674.061 391.624 675.013 391.024 676.101 390.608C677.189 390.176 678.381 389.96 679.677 389.96C681.053 389.96 682.309 390.2 683.445 390.68C684.581 391.144 685.541 391.84 686.325 392.768L684.309 394.664C683.701 394.008 683.021 393.52 682.269 393.2C681.517 392.864 680.701 392.696 679.821 392.696C678.941 392.696 678.133 392.84 677.397 393.128C676.677 393.416 676.045 393.824 675.501 394.352C674.973 394.88 674.557 395.504 674.253 396.224C673.965 396.944 673.821 397.736 673.821 398.6C673.821 399.464 673.965 400.256 674.253 400.976C674.557 401.696 674.973 402.32 675.501 402.848C676.045 403.376 676.677 403.784 677.397 404.072C678.133 404.36 678.941 404.504 679.821 404.504C680.701 404.504 681.517 404.344 682.269 404.024C683.021 403.688 683.701 403.184 684.309 402.512L686.325 404.432C685.541 405.344 684.581 406.04 683.445 406.52C682.309 407 681.045 407.24 679.653 407.24ZM689.315 407V390.2H696.227C697.715 390.2 698.987 390.44 700.043 390.92C701.115 391.4 701.939 392.088 702.515 392.984C703.091 393.88 703.379 394.944 703.379 396.176C703.379 397.408 703.091 398.472 702.515 399.368C701.939 400.248 701.115 400.928 700.043 401.408C698.987 401.872 697.715 402.104 696.227 402.104H691.043L692.435 400.688V407H689.315ZM700.307 407L696.059 400.904H699.395L703.667 407H700.307ZM692.435 401.024L691.043 399.536H696.083C697.459 399.536 698.491 399.24 699.179 398.648C699.883 398.056 700.235 397.232 700.235 396.176C700.235 395.104 699.883 394.28 699.179 393.704C698.491 393.128 697.459 392.84 696.083 392.84H691.043L692.435 391.304V401.024ZM714.093 407.24C711.789 407.24 709.981 406.592 708.669 405.296C707.373 404 706.725 402.128 706.725 399.68V390.2H709.845V399.56C709.845 401.288 710.213 402.544 710.949 403.328C711.701 404.112 712.757 404.504 714.117 404.504C715.477 404.504 716.525 404.112 717.261 403.328C717.997 402.544 718.365 401.288 718.365 399.56V390.2H721.437V399.68C721.437 402.128 720.781 404 719.469 405.296C718.173 406.592 716.381 407.24 714.093 407.24ZM725.807 407V390.2H728.375L735.719 402.464H734.375L741.599 390.2H744.167L744.191 407H741.239L741.215 394.832H741.839L735.695 405.08H734.303L728.063 394.832H728.783V407H725.807Z" fill="black"/>
<path d="M580.83 620V603.2H583.95V617.36H592.734V620H580.83ZM598.077 610.184H606.429V612.752H598.077V610.184ZM598.317 617.384H607.797V620H595.197V603.2H607.461V605.816H598.317V617.384ZM608.9 620L616.46 603.2H619.532L627.116 620H623.852L617.348 604.856H618.596L612.116 620H608.9ZM612.38 616.112L613.22 613.664H622.292L623.132 616.112H612.38ZM629.252 620V603.2H631.82L642.356 616.136H641.084V603.2H644.18V620H641.612L631.076 607.064H632.348V620H629.252Z" fill="black"/>
<path d="M351.08 706V689.2H358.424C360.248 689.2 361.848 689.552 363.224 690.256C364.6 690.96 365.672 691.936 366.44 693.184C367.208 694.432 367.592 695.904 367.592 697.6C367.592 699.28 367.208 700.752 366.44 702.016C365.672 703.264 364.6 704.24 363.224 704.944C361.848 705.648 360.248 706 358.424 706H351.08ZM354.2 703.36H358.28C359.544 703.36 360.632 703.12 361.544 702.64C362.472 702.16 363.184 701.488 363.68 700.624C364.192 699.76 364.448 698.752 364.448 697.6C364.448 696.432 364.192 695.424 363.68 694.576C363.184 693.712 362.472 693.04 361.544 692.56C360.632 692.08 359.544 691.84 358.28 691.84H354.2V703.36ZM373.788 696.184H382.14V698.752H373.788V696.184ZM374.028 703.384H383.508V706H370.908V689.2H383.172V691.816H374.028V703.384ZM391.72 706L384.376 689.2H387.76L394.312 704.392H392.368L398.992 689.2H402.112L394.792 706H391.72ZM411.593 706.24C410.281 706.24 409.073 706.024 407.969 705.592C406.865 705.16 405.905 704.56 405.089 703.792C404.273 703.008 403.641 702.096 403.193 701.056C402.745 700 402.521 698.848 402.521 697.6C402.521 696.352 402.745 695.208 403.193 694.168C403.641 693.112 404.273 692.2 405.089 691.432C405.905 690.648 406.865 690.04 407.969 689.608C409.073 689.176 410.273 688.96 411.569 688.96C412.881 688.96 414.081 689.176 415.169 689.608C416.273 690.04 417.233 690.648 418.049 691.432C418.865 692.2 419.497 693.112 419.945 694.168C420.393 695.208 420.617 696.352 420.617 697.6C420.617 698.848 420.393 700 419.945 701.056C419.497 702.112 418.865 703.024 418.049 703.792C417.233 704.56 416.273 705.16 415.169 705.592C414.081 706.024 412.889 706.24 411.593 706.24ZM411.569 703.504C412.417 703.504 413.201 703.36 413.921 703.072C414.641 702.784 415.265 702.376 415.793 701.848C416.321 701.304 416.729 700.68 417.017 699.976C417.321 699.256 417.473 698.464 417.473 697.6C417.473 696.736 417.321 695.952 417.017 695.248C416.729 694.528 416.321 693.904 415.793 693.376C415.265 692.832 414.641 692.416 413.921 692.128C413.201 691.84 412.417 691.696 411.569 691.696C410.721 691.696 409.937 691.84 409.217 692.128C408.513 692.416 407.889 692.832 407.345 693.376C406.817 693.904 406.401 694.528 406.097 695.248C405.809 695.952 405.665 696.736 405.665 697.6C405.665 698.448 405.809 699.232 406.097 699.952C406.401 700.672 406.817 701.304 407.345 701.848C407.873 702.376 408.497 702.784 409.217 703.072C409.937 703.36 410.721 703.504 411.569 703.504ZM423.924 706V689.2H430.836C432.324 689.2 433.596 689.44 434.652 689.92C435.724 690.4 436.548 691.088 437.124 691.984C437.7 692.88 437.988 693.944 437.988 695.176C437.988 696.408 437.7 697.472 437.124 698.368C436.548 699.264 435.724 699.952 434.652 700.432C433.596 700.912 432.324 701.152 430.836 701.152H425.652L427.044 699.688V706H423.924ZM427.044 700.024L425.652 698.512H430.692C432.068 698.512 433.1 698.224 433.788 697.648C434.492 697.056 434.844 696.232 434.844 695.176C434.844 694.104 434.492 693.28 433.788 692.704C433.1 692.128 432.068 691.84 430.692 691.84H425.652L427.044 690.304V700.024ZM446.546 706.24C445.234 706.24 443.978 706.056 442.778 705.688C441.578 705.304 440.626 704.816 439.922 704.224L441.002 701.8C441.674 702.328 442.506 702.768 443.498 703.12C444.49 703.472 445.506 703.648 446.546 703.648C447.426 703.648 448.138 703.552 448.682 703.36C449.226 703.168 449.626 702.912 449.882 702.592C450.138 702.256 450.266 701.88 450.266 701.464C450.266 700.952 450.082 700.544 449.714 700.24C449.346 699.92 448.866 699.672 448.274 699.496C447.698 699.304 447.05 699.128 446.33 698.968C445.626 698.808 444.914 698.624 444.194 698.416C443.49 698.192 442.842 697.912 442.25 697.576C441.674 697.224 441.202 696.76 440.834 696.184C440.466 695.608 440.282 694.872 440.282 693.976C440.282 693.064 440.522 692.232 441.002 691.48C441.498 690.712 442.242 690.104 443.234 689.656C444.242 689.192 445.514 688.96 447.05 688.96C448.058 688.96 449.058 689.088 450.05 689.344C451.042 689.6 451.906 689.968 452.642 690.448L451.658 692.872C450.906 692.424 450.13 692.096 449.33 691.888C448.53 691.664 447.762 691.552 447.026 691.552C446.162 691.552 445.458 691.656 444.914 691.864C444.386 692.072 443.994 692.344 443.738 692.68C443.498 693.016 443.378 693.4 443.378 693.832C443.378 694.344 443.554 694.76 443.906 695.08C444.274 695.384 444.746 695.624 445.322 695.8C445.914 695.976 446.57 696.152 447.29 696.328C448.01 696.488 448.722 696.672 449.426 696.88C450.146 697.088 450.794 697.36 451.37 697.696C451.962 698.032 452.434 698.488 452.786 699.064C453.154 699.64 453.338 700.368 453.338 701.248C453.338 702.144 453.09 702.976 452.594 703.744C452.114 704.496 451.37 705.104 450.362 705.568C449.354 706.016 448.082 706.24 446.546 706.24Z" fill="black"/>
<path d="M139.626 616.04L139.458 612.344L148.266 603.2H151.77L144.45 610.976L142.722 612.872L139.626 616.04ZM136.842 620V603.2H139.962V620H136.842ZM148.554 620L142.122 612.344L144.186 610.064L152.202 620H148.554ZM151.224 620L158.784 603.2H161.856L169.44 620H166.176L159.672 604.856H160.92L154.44 620H151.224ZM154.704 616.112L155.544 613.664H164.616L165.456 616.112H154.704ZM171.576 620V603.2H174.144L184.68 616.136H183.408V603.2H186.504V620H183.936L173.4 607.064H174.672V620H171.576ZM191.006 620V603.2H198.878C200.894 603.2 202.43 603.6 203.486 604.4C204.542 605.184 205.07 606.24 205.07 607.568C205.07 608.464 204.862 609.232 204.446 609.872C204.03 610.496 203.47 610.984 202.766 611.336C202.078 611.672 201.326 611.84 200.51 611.84L200.942 610.976C201.886 610.976 202.734 611.152 203.486 611.504C204.238 611.84 204.83 612.336 205.262 612.992C205.71 613.648 205.934 614.464 205.934 615.44C205.934 616.88 205.382 618 204.278 618.8C203.174 619.6 201.534 620 199.358 620H191.006ZM194.126 617.552H199.166C200.334 617.552 201.23 617.36 201.854 616.976C202.478 616.592 202.79 615.976 202.79 615.128C202.79 614.296 202.478 613.688 201.854 613.304C201.23 612.904 200.334 612.704 199.166 612.704H193.886V610.28H198.542C199.63 610.28 200.462 610.088 201.038 609.704C201.63 609.32 201.926 608.744 201.926 607.976C201.926 607.192 201.63 606.608 201.038 606.224C200.462 605.84 199.63 605.648 198.542 605.648H194.126V617.552ZM206.888 620L214.448 603.2H217.52L225.104 620H221.84L215.336 604.856H216.584L210.104 620H206.888ZM210.368 616.112L211.208 613.664H220.28L221.12 616.112H210.368ZM227.24 620V603.2H229.808L240.344 616.136H239.072V603.2H242.168V620H239.6L229.064 607.064H230.336V620H227.24Z" fill="black"/>
<path d="M75.0763 407V390.2H81.9883C83.4763 390.2 84.7483 390.44 85.8043 390.92C86.8763 391.4 87.7003 392.088 88.2763 392.984C88.8523 393.88 89.1403 394.944 89.1403 396.176C89.1403 397.408 88.8523 398.472 88.2763 399.368C87.7003 400.248 86.8763 400.928 85.8043 401.408C84.7483 401.872 83.4763 402.104 81.9883 402.104H76.8043L78.1963 400.688V407H75.0763ZM86.0683 407L81.8203 400.904H85.1563L89.4283 407H86.0683ZM78.1963 401.024L76.8043 399.536H81.8443C83.2203 399.536 84.2523 399.24 84.9403 398.648C85.6443 398.056 85.9963 397.232 85.9963 396.176C85.9963 395.104 85.6443 394.28 84.9403 393.704C84.2523 393.128 83.2203 392.84 81.8443 392.84H76.8043L78.1963 391.304V401.024ZM90.255 407L97.815 390.2H100.887L108.471 407H105.207L98.703 391.856H99.951L93.471 407H90.255ZM93.735 403.112L94.575 400.664H103.647L104.487 403.112H93.735ZM110.608 407V390.2H117.952C119.776 390.2 121.376 390.552 122.752 391.256C124.128 391.96 125.2 392.936 125.968 394.184C126.736 395.432 127.12 396.904 127.12 398.6C127.12 400.28 126.736 401.752 125.968 403.016C125.2 404.264 124.128 405.24 122.752 405.944C121.376 406.648 119.776 407 117.952 407H110.608ZM113.728 404.36H117.808C119.072 404.36 120.16 404.12 121.072 403.64C122 403.16 122.712 402.488 123.208 401.624C123.72 400.76 123.976 399.752 123.976 398.6C123.976 397.432 123.72 396.424 123.208 395.576C122.712 394.712 122 394.04 121.072 393.56C120.16 393.08 119.072 392.84 117.808 392.84H113.728V404.36Z" fill="black"/>
<path d="M150.046 195.24C148.734 195.24 147.478 195.056 146.278 194.688C145.078 194.304 144.126 193.816 143.422 193.224L144.502 190.8C145.174 191.328 146.006 191.768 146.998 192.12C147.99 192.472 149.006 192.648 150.046 192.648C150.926 192.648 151.638 192.552 152.182 192.36C152.726 192.168 153.126 191.912 153.382 191.592C153.638 191.256 153.766 190.88 153.766 190.464C153.766 189.952 153.582 189.544 153.214 189.24C152.846 188.92 152.366 188.672 151.774 188.496C151.198 188.304 150.55 188.128 149.83 187.968C149.126 187.808 148.414 187.624 147.694 187.416C146.99 187.192 146.342 186.912 145.75 186.576C145.174 186.224 144.702 185.76 144.334 185.184C143.966 184.608 143.782 183.872 143.782 182.976C143.782 182.064 144.022 181.232 144.502 180.48C144.998 179.712 145.742 179.104 146.734 178.656C147.742 178.192 149.014 177.96 150.55 177.96C151.558 177.96 152.558 178.088 153.55 178.344C154.542 178.6 155.406 178.968 156.142 179.448L155.158 181.872C154.406 181.424 153.63 181.096 152.83 180.888C152.03 180.664 151.262 180.552 150.526 180.552C149.662 180.552 148.958 180.656 148.414 180.864C147.886 181.072 147.494 181.344 147.238 181.68C146.998 182.016 146.878 182.4 146.878 182.832C146.878 183.344 147.054 183.76 147.406 184.08C147.774 184.384 148.246 184.624 148.822 184.8C149.414 184.976 150.07 185.152 150.79 185.328C151.51 185.488 152.222 185.672 152.926 185.88C153.646 186.088 154.294 186.36 154.87 186.696C155.462 187.032 155.934 187.488 156.286 188.064C156.654 188.64 156.838 189.368 156.838 190.248C156.838 191.144 156.59 191.976 156.094 192.744C155.614 193.496 154.87 194.104 153.862 194.568C152.854 195.016 151.582 195.24 150.046 195.24ZM159.932 195V178.2H166.844C168.332 178.2 169.604 178.44 170.66 178.92C171.732 179.4 172.556 180.088 173.132 180.984C173.708 181.88 173.996 182.944 173.996 184.176C173.996 185.408 173.708 186.472 173.132 187.368C172.556 188.264 171.732 188.952 170.66 189.432C169.604 189.912 168.332 190.152 166.844 190.152H161.66L163.052 188.688V195H159.932ZM163.052 189.024L161.66 187.512H166.7C168.076 187.512 169.108 187.224 169.796 186.648C170.5 186.056 170.852 185.232 170.852 184.176C170.852 183.104 170.5 182.28 169.796 181.704C169.108 181.128 168.076 180.84 166.7 180.84H161.66L163.052 179.304V189.024ZM177.111 195V178.2H180.231V195H177.111ZM184.776 195V178.2H191.688C193.176 178.2 194.448 178.44 195.504 178.92C196.576 179.4 197.4 180.088 197.976 180.984C198.552 181.88 198.84 182.944 198.84 184.176C198.84 185.408 198.552 186.472 197.976 187.368C197.4 188.248 196.576 188.928 195.504 189.408C194.448 189.872 193.176 190.104 191.688 190.104H186.504L187.896 188.688V195H184.776ZM195.768 195L191.52 188.904H194.856L199.128 195H195.768ZM187.896 189.024L186.504 187.536H191.544C192.92 187.536 193.952 187.24 194.64 186.648C195.344 186.056 195.696 185.232 195.696 184.176C195.696 183.104 195.344 182.28 194.64 181.704C193.952 181.128 192.92 180.84 191.544 180.84H186.504L187.896 179.304V189.024ZM199.954 195L207.514 178.2H210.586L218.17 195H214.906L208.402 179.856H209.65L203.17 195H199.954ZM203.434 191.112L204.274 188.664H213.346L214.186 191.112H203.434ZM220.307 195V178.2H223.427V192.36H232.211V195H220.307Z" fill="black"/>
</g>
<defs>
<clipPath id="clip0_138_691">
<rect width="800" height="798" fill="white"/>
</clipPath>
</defs>
</svg>
