<svg width="741" height="802" viewBox="0 0 741 802" fill="none" xmlns="http://www.w3.org/2000/svg">
<path d="M308.171 70.8167C308.277 70.6334 308.472 70.5205 308.684 70.5205L435.136 70.5205C435.348 70.5205 435.544 70.6334 435.649 70.8167L498.876 180.328C498.981 180.511 498.981 180.737 498.876 180.92L435.649 290.431C435.544 290.614 435.348 290.727 435.136 290.727L308.684 290.727C308.472 290.727 308.277 290.614 308.171 290.431L244.945 180.92C244.839 180.737 244.839 180.511 244.945 180.328L308.171 70.8167Z" fill="#75ACCF" stroke="#E0E0E0" stroke-width="8.81505"/>
<path d="M116.885 180.123C116.99 179.94 117.186 179.827 117.398 179.827L243.85 179.827C244.062 179.827 244.257 179.94 244.363 180.123L307.589 289.634C307.695 289.817 307.695 290.043 307.589 290.226L244.363 399.737C244.257 399.921 244.062 400.034 243.85 400.034L117.398 400.034C117.186 400.034 116.99 399.921 116.885 399.737L53.6584 290.226C53.5526 290.043 53.5526 289.817 53.6584 289.634L116.885 180.123Z" fill="#D19129" stroke="#E0E0E0" stroke-width="8.81505"/>
<path d="M116.885 400.499C116.99 400.316 117.186 400.203 117.398 400.203L243.85 400.203C244.062 400.203 244.257 400.316 244.363 400.499L307.589 510.01C307.695 510.194 307.695 510.419 307.589 510.603L244.363 620.114C244.257 620.297 244.062 620.41 243.85 620.41L117.398 620.41C117.186 620.41 116.99 620.297 116.885 620.114L53.6584 510.603C53.5526 510.419 53.5526 510.194 53.6584 510.01L116.885 400.499Z" fill="#D84C4E" stroke="#E0E0E0" stroke-width="8.81505"/>
<path d="M495.932 400.499C496.037 400.316 496.233 400.203 496.445 400.203L622.897 400.203C623.109 400.203 623.304 400.316 623.41 400.499L686.636 510.01C686.742 510.194 686.742 510.419 686.636 510.603L623.41 620.114C623.304 620.297 623.109 620.41 622.897 620.41L496.445 620.41C496.233 620.41 496.037 620.297 495.932 620.114L432.706 510.603C432.6 510.419 432.6 510.194 432.706 510.01L495.932 400.499Z" fill="#DFC3F9" stroke="#E0E0E0" stroke-width="8.81505"/>
<path d="M495.932 180.123C496.037 179.94 496.233 179.827 496.445 179.827L622.897 179.827C623.109 179.827 623.304 179.94 623.41 180.123L686.636 289.634C686.742 289.817 686.742 290.043 686.636 290.226L623.41 399.737C623.304 399.921 623.109 400.034 622.897 400.034L496.445 400.034C496.233 400.034 496.037 399.921 495.932 399.737L432.706 290.226C432.6 290.043 432.6 289.817 432.706 289.634L495.932 180.123Z" fill="#00B4CA" stroke="#E0E0E0" stroke-width="8.81505"/>
<path d="M307.29 511.569C307.395 511.386 307.591 511.273 307.803 511.273L434.255 511.273C434.467 511.273 434.662 511.386 434.768 511.569L497.994 621.08C498.1 621.263 498.1 621.489 497.994 621.672L434.768 731.183C434.662 731.367 434.467 731.48 434.255 731.48L307.803 731.48C307.591 731.48 307.395 731.367 307.29 731.183L244.063 621.672C243.958 621.489 243.958 621.263 244.063 621.08L307.29 511.569Z" fill="#F1CBA2" stroke="#E0E0E0" stroke-width="8.81505"/>
<path d="M307.29 291.193C307.395 291.01 307.591 290.897 307.803 290.897L434.255 290.897C434.467 290.897 434.662 291.01 434.768 291.193L497.994 400.704C498.1 400.887 498.1 401.113 497.994 401.296L434.768 510.807C434.662 510.99 434.467 511.103 434.255 511.103L307.803 511.103C307.591 511.103 307.395 510.99 307.29 510.807L244.063 401.296C243.958 401.113 243.958 400.887 244.063 400.704L307.29 291.193Z" fill="#60A394" stroke="#E0E0E0" stroke-width="8.81505"/>
<path d="M324.556 187.13V174.789H329.634C330.727 174.789 331.661 174.966 332.437 175.318C333.225 175.671 333.83 176.176 334.253 176.834C334.676 177.493 334.888 178.274 334.888 179.179C334.888 180.084 334.676 180.866 334.253 181.524C333.83 182.182 333.225 182.688 332.437 183.04C331.661 183.393 330.727 183.569 329.634 183.569H325.826L326.848 182.494V187.13H324.556ZM326.848 182.74L325.826 181.63H329.528C330.539 181.63 331.297 181.418 331.802 180.995C332.319 180.56 332.578 179.955 332.578 179.179C332.578 178.392 332.319 177.786 331.802 177.363C331.297 176.94 330.539 176.729 329.528 176.729H325.826L326.848 175.6V182.74ZM337.176 187.13V174.789H339.468V185.191H345.921V187.13H337.176ZM346.002 187.13L351.556 174.789H353.812L359.383 187.13H356.986L352.208 176.006H353.125L348.365 187.13H346.002ZM348.559 184.274L349.176 182.476H355.84L356.457 184.274H348.559ZM360.953 187.13V174.789H362.839L370.579 184.292H369.645V174.789H371.919V187.13H370.032L362.293 177.628H363.227V187.13H360.953ZM375.226 187.13V174.789H377.112L384.852 184.292H383.917V174.789H386.192V187.13H384.305L376.566 177.628H377.5V187.13H375.226ZM389.499 187.13V174.789H391.79V187.13H389.499ZM395.128 187.13V174.789H397.015L404.754 184.292H403.82V174.789H406.094V187.13H404.208L396.468 177.628H397.403V187.13H395.128ZM415.166 187.307C414.202 187.307 413.315 187.154 412.504 186.848C411.705 186.531 411.006 186.09 410.406 185.526C409.807 184.95 409.342 184.274 409.013 183.499C408.684 182.723 408.52 181.877 408.52 180.96C408.52 180.043 408.684 179.197 409.013 178.421C409.342 177.645 409.807 176.975 410.406 176.411C411.017 175.835 411.728 175.395 412.539 175.089C413.35 174.772 414.238 174.613 415.202 174.613C416.248 174.613 417.188 174.783 418.022 175.124C418.869 175.465 419.58 175.965 420.156 176.623L418.71 178.033C418.228 177.551 417.705 177.199 417.141 176.975C416.588 176.74 415.977 176.623 415.307 176.623C414.661 176.623 414.061 176.729 413.509 176.94C412.957 177.152 412.481 177.451 412.081 177.839C411.681 178.227 411.37 178.686 411.147 179.214C410.935 179.743 410.829 180.325 410.829 180.96C410.829 181.583 410.935 182.159 411.147 182.688C411.37 183.216 411.681 183.681 412.081 184.08C412.481 184.468 412.951 184.768 413.491 184.979C414.032 185.191 414.631 185.297 415.29 185.297C415.901 185.297 416.489 185.203 417.053 185.015C417.629 184.815 418.175 184.486 418.692 184.027L419.997 185.738C419.35 186.255 418.598 186.648 417.74 186.919C416.894 187.177 416.036 187.307 415.166 187.307ZM417.828 185.438V180.819H419.997V185.738L417.828 185.438Z" fill="black"/>
<path d="M112.86 296.437V284.096H114.746L120.141 293.105H119.154L124.461 284.096H126.347L126.365 296.437H124.196L124.179 287.499H124.637L120.124 295.027H119.101L114.517 287.499H115.046V296.437H112.86ZM127.953 296.437L133.506 284.096H135.763L141.334 296.437H138.936L134.159 285.312H135.075L130.315 296.437H127.953ZM130.509 293.581L131.126 291.783H137.79L138.407 293.581H130.509ZM142.904 296.437V284.096H145.195V296.437H142.904ZM148.533 296.437V284.096H150.42L158.16 293.599H157.225V284.096H159.499V296.437H157.613L149.873 286.934H150.808V296.437H148.533ZM165.31 296.437V286.035H161.22V284.096H171.692V286.035H167.602V296.437H165.31ZM175.527 289.226H181.663V291.113H175.527V289.226ZM175.704 294.515H182.668V296.437H173.412V284.096H182.421V286.018H175.704V294.515ZM185.223 296.437V284.096H187.109L194.849 293.599H193.914V284.096H196.189V296.437H194.302L186.563 286.934H187.497V296.437H185.223ZM197.75 296.437L203.304 284.096H205.56L211.131 296.437H208.734L203.956 285.312H204.873L200.113 296.437H197.75ZM200.306 293.581L200.924 291.783H207.588L208.205 293.581H200.306ZM212.701 296.437V284.096H214.587L222.327 293.599H221.392V284.096H223.667V296.437H221.78L214.041 286.934H214.975V296.437H212.701ZM232.686 296.613C231.746 296.613 230.87 296.461 230.059 296.155C229.26 295.838 228.56 295.397 227.961 294.833C227.373 294.257 226.915 293.581 226.586 292.805C226.257 292.029 226.092 291.183 226.092 290.266C226.092 289.35 226.257 288.503 226.586 287.728C226.915 286.952 227.379 286.282 227.979 285.718C228.578 285.142 229.277 284.701 230.077 284.396C230.876 284.078 231.751 283.92 232.703 283.92C233.714 283.92 234.637 284.096 235.471 284.449C236.306 284.789 237.011 285.301 237.587 285.982L236.106 287.375C235.659 286.893 235.16 286.535 234.607 286.3C234.055 286.053 233.456 285.929 232.809 285.929C232.163 285.929 231.569 286.035 231.029 286.247C230.5 286.458 230.035 286.758 229.636 287.146C229.248 287.534 228.942 287.992 228.719 288.521C228.507 289.05 228.402 289.632 228.402 290.266C228.402 290.901 228.507 291.483 228.719 292.012C228.942 292.541 229.248 292.999 229.636 293.387C230.035 293.775 230.5 294.075 231.029 294.286C231.569 294.498 232.163 294.603 232.809 294.603C233.456 294.603 234.055 294.486 234.607 294.251C235.16 294.004 235.659 293.634 236.106 293.14L237.587 294.551C237.011 295.221 236.306 295.732 235.471 296.084C234.637 296.437 233.708 296.613 232.686 296.613ZM241.899 289.226H248.034V291.113H241.899V289.226ZM242.075 294.515H249.039V296.437H239.783V284.096H248.792V286.018H242.075V294.515Z" fill="black"/>
<path d="M122.714 506.235V495.834H118.623V493.894H129.096V495.834H125.005V506.235H122.714ZM132.931 499.025H139.067V500.911H132.931V499.025ZM133.108 504.314H140.071V506.235H130.816V493.894H139.825V495.816H133.108V504.314ZM146.452 506.412C145.488 506.412 144.566 506.276 143.684 506.006C142.803 505.724 142.103 505.366 141.586 504.931L142.38 503.15C142.873 503.538 143.484 503.861 144.213 504.12C144.942 504.378 145.688 504.508 146.452 504.508C147.099 504.508 147.622 504.437 148.021 504.296C148.421 504.155 148.715 503.967 148.903 503.732C149.091 503.485 149.185 503.209 149.185 502.903C149.185 502.527 149.05 502.227 148.779 502.004C148.509 501.769 148.156 501.587 147.722 501.458C147.298 501.317 146.822 501.187 146.293 501.07C145.776 500.952 145.253 500.817 144.724 500.664C144.207 500.5 143.731 500.294 143.296 500.047C142.873 499.789 142.527 499.448 142.256 499.025C141.986 498.602 141.851 498.061 141.851 497.403C141.851 496.733 142.027 496.122 142.38 495.569C142.744 495.005 143.29 494.558 144.019 494.229C144.76 493.888 145.694 493.718 146.822 493.718C147.563 493.718 148.297 493.812 149.026 494C149.755 494.188 150.39 494.458 150.93 494.811L150.207 496.592C149.655 496.263 149.085 496.022 148.497 495.869C147.91 495.704 147.345 495.622 146.805 495.622C146.17 495.622 145.653 495.698 145.253 495.851C144.865 496.004 144.577 496.204 144.389 496.451C144.213 496.697 144.125 496.98 144.125 497.297C144.125 497.673 144.254 497.979 144.513 498.214C144.783 498.437 145.13 498.613 145.553 498.743C145.988 498.872 146.47 499.001 146.999 499.13C147.528 499.248 148.051 499.383 148.568 499.536C149.097 499.689 149.573 499.889 149.996 500.135C150.431 500.382 150.777 500.717 151.036 501.14C151.306 501.563 151.441 502.098 151.441 502.745C151.441 503.403 151.259 504.014 150.895 504.578C150.542 505.131 149.996 505.577 149.255 505.918C148.515 506.247 147.58 506.412 146.452 506.412ZM156.045 506.235V495.834H151.955V493.894H162.428V495.834H158.337V506.235H156.045ZM164.148 506.235V493.894H166.439V506.235H164.148ZM169.777 506.235V493.894H171.664L179.404 503.397H178.469V493.894H180.743V506.235H178.857L171.117 496.733H172.052V506.235H169.777ZM189.815 506.412C188.852 506.412 187.964 506.259 187.153 505.953C186.354 505.636 185.655 505.195 185.055 504.631C184.456 504.055 183.992 503.379 183.662 502.604C183.333 501.828 183.169 500.982 183.169 500.065C183.169 499.148 183.333 498.302 183.662 497.526C183.992 496.75 184.456 496.08 185.055 495.516C185.666 494.94 186.377 494.5 187.188 494.194C187.999 493.877 188.887 493.718 189.851 493.718C190.897 493.718 191.837 493.888 192.671 494.229C193.518 494.57 194.229 495.07 194.805 495.728L193.359 497.138C192.877 496.656 192.354 496.304 191.79 496.08C191.237 495.845 190.626 495.728 189.956 495.728C189.31 495.728 188.711 495.834 188.158 496.045C187.606 496.257 187.13 496.556 186.73 496.944C186.33 497.332 186.019 497.791 185.796 498.319C185.584 498.848 185.478 499.43 185.478 500.065C185.478 500.688 185.584 501.264 185.796 501.793C186.019 502.321 186.33 502.786 186.73 503.185C187.13 503.573 187.6 503.873 188.14 504.084C188.681 504.296 189.281 504.402 189.939 504.402C190.55 504.402 191.138 504.308 191.702 504.12C192.278 503.92 192.824 503.591 193.341 503.132L194.646 504.843C194 505.36 193.247 505.753 192.389 506.024C191.543 506.282 190.685 506.412 189.815 506.412ZM192.477 504.543V499.924H194.646V504.843L192.477 504.543ZM200.796 506.235L206.349 493.894H208.606L214.177 506.235H211.779L207.002 495.111H207.918L203.158 506.235H200.796ZM203.352 503.379L203.969 501.581H210.633L211.251 503.379H203.352ZM215.747 506.235V493.894H217.633L225.373 503.397H224.438V493.894H226.713V506.235H224.826L217.086 496.733H218.021V506.235H215.747ZM230.019 506.235V493.894H235.414C236.754 493.894 237.929 494.153 238.94 494.67C239.951 495.187 240.738 495.904 241.303 496.821C241.867 497.738 242.149 498.819 242.149 500.065C242.149 501.299 241.867 502.38 241.303 503.309C240.738 504.226 239.951 504.942 238.94 505.46C237.929 505.977 236.754 506.235 235.414 506.235H230.019ZM232.311 504.296H235.308C236.237 504.296 237.036 504.12 237.706 503.767C238.388 503.415 238.911 502.921 239.275 502.286C239.651 501.652 239.839 500.911 239.839 500.065C239.839 499.207 239.651 498.466 239.275 497.843C238.911 497.209 238.388 496.715 237.706 496.362C237.036 496.01 236.237 495.834 235.308 495.834H232.311V504.296ZM119.013 527.235V514.894H121.305V527.235H119.013ZM124.643 527.235V514.894H126.53L134.269 524.397H133.335V514.894H135.609V527.235H133.723L125.983 517.733H126.918V527.235H124.643ZM141.42 527.235V516.834H137.329V514.894H147.802V516.834H143.712V527.235H141.42ZM151.637 520.025H157.773V521.911H151.637V520.025ZM151.814 525.314H158.778V527.235H149.522V514.894H158.531V516.816H151.814V525.314ZM167.098 527.412C166.134 527.412 165.246 527.259 164.435 526.953C163.636 526.636 162.937 526.195 162.338 525.631C161.738 525.055 161.274 524.379 160.945 523.604C160.616 522.828 160.451 521.982 160.451 521.065C160.451 520.148 160.616 519.302 160.945 518.526C161.274 517.75 161.738 517.08 162.338 516.516C162.949 515.94 163.66 515.5 164.471 515.194C165.282 514.877 166.169 514.718 167.133 514.718C168.179 514.718 169.119 514.888 169.954 515.229C170.8 515.57 171.511 516.07 172.087 516.728L170.641 518.138C170.159 517.656 169.636 517.304 169.072 517.08C168.52 516.845 167.909 516.728 167.239 516.728C166.592 516.728 165.993 516.834 165.44 517.045C164.888 517.257 164.412 517.556 164.012 517.944C163.613 518.332 163.301 518.791 163.078 519.319C162.866 519.848 162.761 520.43 162.761 521.065C162.761 521.688 162.866 522.264 163.078 522.793C163.301 523.321 163.613 523.786 164.012 524.185C164.412 524.573 164.882 524.873 165.423 525.084C165.963 525.296 166.563 525.402 167.221 525.402C167.832 525.402 168.42 525.308 168.984 525.12C169.56 524.92 170.107 524.591 170.624 524.132L171.928 525.843C171.282 526.36 170.53 526.753 169.672 527.024C168.825 527.282 167.967 527.412 167.098 527.412ZM169.76 525.543V520.924H171.928V525.843L169.76 525.543ZM174.951 527.235V514.894H180.029C181.122 514.894 182.056 515.071 182.832 515.423C183.619 515.776 184.225 516.281 184.648 516.939C185.071 517.598 185.282 518.379 185.282 519.284C185.282 520.189 185.071 520.971 184.648 521.629C184.225 522.275 183.619 522.775 182.832 523.128C182.056 523.468 181.122 523.639 180.029 523.639H176.221L177.243 522.599V527.235H174.951ZM183.026 527.235L179.905 522.757H182.356L185.494 527.235H183.026ZM177.243 522.845L176.221 521.752H179.923C180.934 521.752 181.692 521.535 182.197 521.1C182.714 520.665 182.973 520.06 182.973 519.284C182.973 518.497 182.714 517.891 182.197 517.468C181.692 517.045 180.934 516.834 179.923 516.834H176.221L177.243 515.705V522.845ZM186.101 527.235L191.655 514.894H193.911L199.482 527.235H197.085L192.307 516.111H193.224L188.464 527.235H186.101ZM188.658 524.379L189.275 522.581H195.939L196.556 524.379H188.658ZM202.936 527.235V516.834H198.845V514.894H209.318V516.834H205.228V527.235H202.936ZM211.038 527.235V514.894H213.33V527.235H211.038ZM222.45 527.412C221.487 527.412 220.599 527.253 219.788 526.936C218.977 526.618 218.272 526.178 217.673 525.613C217.073 525.037 216.609 524.368 216.28 523.604C215.951 522.828 215.786 521.982 215.786 521.065C215.786 520.148 215.951 519.308 216.28 518.544C216.609 517.768 217.073 517.098 217.673 516.534C218.272 515.958 218.977 515.511 219.788 515.194C220.599 514.877 221.481 514.718 222.433 514.718C223.397 514.718 224.278 514.877 225.077 515.194C225.888 515.511 226.593 515.958 227.193 516.534C227.792 517.098 228.257 517.768 228.586 518.544C228.915 519.308 229.079 520.148 229.079 521.065C229.079 521.982 228.915 522.828 228.586 523.604C228.257 524.379 227.792 525.049 227.193 525.613C226.593 526.178 225.888 526.618 225.077 526.936C224.278 527.253 223.402 527.412 222.45 527.412ZM222.433 525.402C223.056 525.402 223.632 525.296 224.16 525.084C224.689 524.873 225.148 524.573 225.536 524.185C225.924 523.786 226.223 523.327 226.435 522.81C226.658 522.281 226.77 521.699 226.77 521.065C226.77 520.43 226.658 519.854 226.435 519.337C226.223 518.808 225.924 518.35 225.536 517.962C225.148 517.562 224.689 517.257 224.16 517.045C223.632 516.834 223.056 516.728 222.433 516.728C221.81 516.728 221.234 516.834 220.705 517.045C220.188 517.257 219.729 517.562 219.33 517.962C218.942 518.35 218.636 518.808 218.413 519.337C218.202 519.854 218.096 520.43 218.096 521.065C218.096 521.688 218.202 522.264 218.413 522.793C218.636 523.321 218.942 523.786 219.33 524.185C219.718 524.573 220.176 524.873 220.705 525.084C221.234 525.296 221.81 525.402 222.433 525.402ZM231.509 527.235V514.894H233.395L241.135 524.397H240.2V514.894H242.475V527.235H240.588L232.849 517.733H233.783V527.235H231.509Z" fill="black"/>
<path d="M288.499 627.883V615.542H290.791V627.883H288.499ZM294.129 627.883V615.542H296.015L301.41 624.551H300.423L305.729 615.542H307.616L307.633 627.883H305.465L305.447 618.944H305.906L301.392 626.472H300.37L295.786 618.944H296.315V627.883H294.129ZM310.967 627.883V615.542H316.044C317.137 615.542 318.072 615.718 318.847 616.071C319.635 616.423 320.24 616.929 320.663 617.587C321.087 618.245 321.298 619.027 321.298 619.932C321.298 620.837 321.087 621.618 320.663 622.276C320.24 622.935 319.635 623.44 318.847 623.793C318.072 624.145 317.137 624.322 316.044 624.322H312.236L313.259 623.246V627.883H310.967ZM313.259 623.493L312.236 622.382H315.939C316.949 622.382 317.707 622.171 318.213 621.748C318.73 621.313 318.989 620.707 318.989 619.932C318.989 619.144 318.73 618.539 318.213 618.116C317.707 617.693 316.949 617.481 315.939 617.481H312.236L313.259 616.353V623.493ZM323.587 627.883V615.542H325.879V625.944H332.331V627.883H323.587ZM336.256 620.672H342.392V622.559H336.256V620.672ZM336.433 625.961H343.397V627.883H334.141V615.542H343.15V617.463H336.433V625.961ZM345.952 627.883V615.542H347.838L353.233 624.551H352.246L357.552 615.542H359.439L359.456 627.883H357.288L357.27 618.944H357.728L353.215 626.472H352.193L347.609 618.944H348.138V627.883H345.952ZM364.905 620.672H371.041V622.559H364.905V620.672ZM365.082 625.961H372.045V627.883H362.79V615.542H371.799V617.463H365.082V625.961ZM374.6 627.883V615.542H376.487L384.227 625.044H383.292V615.542H385.566V627.883H383.68L375.94 618.38H376.875V627.883H374.6ZM391.377 627.883V617.481H387.287V615.542H397.759V617.481H393.669V627.883H391.377ZM397.114 627.883L402.667 615.542H404.924L410.495 627.883H408.097L403.32 616.758H404.236L399.476 627.883H397.114ZM399.67 625.027L400.287 623.228H406.951L407.568 625.027H399.67ZM413.948 627.883V617.481H409.858V615.542H420.33V617.481H416.24V627.883H413.948ZM422.05 627.883V615.542H424.342V627.883H422.05ZM433.463 628.059C432.499 628.059 431.612 627.9 430.801 627.583C429.99 627.266 429.285 626.825 428.685 626.261C428.086 625.685 427.621 625.015 427.292 624.251C426.963 623.475 426.799 622.629 426.799 621.712C426.799 620.796 426.963 619.955 427.292 619.191C427.621 618.415 428.086 617.746 428.685 617.181C429.285 616.605 429.99 616.159 430.801 615.841C431.612 615.524 432.493 615.365 433.445 615.365C434.409 615.365 435.291 615.524 436.09 615.841C436.901 616.159 437.606 616.605 438.205 617.181C438.805 617.746 439.269 618.415 439.598 619.191C439.927 619.955 440.092 620.796 440.092 621.712C440.092 622.629 439.927 623.475 439.598 624.251C439.269 625.027 438.805 625.697 438.205 626.261C437.606 626.825 436.901 627.266 436.09 627.583C435.291 627.9 434.415 628.059 433.463 628.059ZM433.445 626.049C434.068 626.049 434.644 625.944 435.173 625.732C435.702 625.52 436.16 625.221 436.548 624.833C436.936 624.433 437.236 623.975 437.447 623.458C437.671 622.929 437.782 622.347 437.782 621.712C437.782 621.078 437.671 620.502 437.447 619.985C437.236 619.456 436.936 618.997 436.548 618.609C436.16 618.21 435.702 617.904 435.173 617.693C434.644 617.481 434.068 617.375 433.445 617.375C432.822 617.375 432.246 617.481 431.717 617.693C431.2 617.904 430.742 618.21 430.342 618.609C429.954 618.997 429.649 619.456 429.426 619.985C429.214 620.502 429.108 621.078 429.108 621.712C429.108 622.335 429.214 622.911 429.426 623.44C429.649 623.969 429.954 624.433 430.342 624.833C430.73 625.221 431.189 625.52 431.717 625.732C432.246 625.944 432.822 626.049 433.445 626.049ZM442.521 627.883V615.542H444.408L452.147 625.044H451.213V615.542H453.487V627.883H451.601L443.861 618.38H444.795V627.883H442.521Z" fill="black"/>
<path d="M525.278 516.813V504.472H530.673C532.013 504.472 533.189 504.731 534.199 505.248C535.21 505.765 535.998 506.482 536.562 507.399C537.126 508.316 537.408 509.397 537.408 510.643C537.408 511.877 537.126 512.958 536.562 513.887C535.998 514.804 535.21 515.521 534.199 516.038C533.189 516.555 532.013 516.813 530.673 516.813H525.278ZM527.57 514.874H530.568C531.496 514.874 532.295 514.698 532.965 514.345C533.647 513.993 534.17 513.499 534.534 512.864C534.91 512.23 535.098 511.489 535.098 510.643C535.098 509.785 534.91 509.044 534.534 508.422C534.17 507.787 533.647 507.293 532.965 506.941C532.295 506.588 531.496 506.412 530.568 506.412H527.57V514.874ZM541.96 509.603H548.095V511.489H541.96V509.603ZM542.136 514.892H549.1V516.813H539.844V504.472H548.853V506.394H542.136V514.892ZM555.481 516.99C554.517 516.99 553.594 516.855 552.713 516.584C551.831 516.302 551.132 515.944 550.615 515.509L551.408 513.728C551.902 514.116 552.513 514.439 553.241 514.698C553.97 514.956 554.717 515.086 555.481 515.086C556.127 515.086 556.65 515.015 557.05 514.874C557.449 514.733 557.743 514.545 557.931 514.31C558.119 514.063 558.213 513.787 558.213 513.481C558.213 513.105 558.078 512.806 557.808 512.582C557.537 512.347 557.185 512.165 556.75 512.036C556.327 511.895 555.851 511.765 555.322 511.648C554.805 511.53 554.282 511.395 553.753 511.242C553.236 511.078 552.76 510.872 552.325 510.625C551.902 510.367 551.555 510.026 551.285 509.603C551.014 509.18 550.879 508.639 550.879 507.981C550.879 507.311 551.055 506.7 551.408 506.147C551.772 505.583 552.319 505.136 553.048 504.807C553.788 504.467 554.722 504.296 555.851 504.296C556.591 504.296 557.326 504.39 558.055 504.578C558.783 504.766 559.418 505.037 559.959 505.389L559.236 507.17C558.683 506.841 558.113 506.6 557.526 506.447C556.938 506.282 556.374 506.2 555.833 506.2C555.198 506.2 554.681 506.277 554.282 506.429C553.894 506.582 553.606 506.782 553.418 507.029C553.241 507.276 553.153 507.558 553.153 507.875C553.153 508.251 553.283 508.557 553.541 508.792C553.812 509.015 554.158 509.191 554.581 509.321C555.016 509.45 555.498 509.579 556.027 509.709C556.556 509.826 557.079 509.961 557.596 510.114C558.125 510.267 558.601 510.467 559.024 510.713C559.459 510.96 559.806 511.295 560.064 511.718C560.335 512.141 560.47 512.676 560.47 513.323C560.47 513.981 560.288 514.592 559.923 515.156C559.571 515.709 559.024 516.155 558.284 516.496C557.543 516.825 556.609 516.99 555.481 516.99ZM562.742 516.813V504.472H565.034V516.813H562.742ZM574.137 516.99C573.174 516.99 572.286 516.837 571.475 516.531C570.676 516.214 569.977 515.773 569.377 515.209C568.778 514.633 568.314 513.957 567.985 513.182C567.655 512.406 567.491 511.56 567.491 510.643C567.491 509.726 567.655 508.88 567.985 508.104C568.314 507.328 568.778 506.659 569.377 506.094C569.988 505.518 570.7 505.078 571.511 504.772C572.322 504.455 573.209 504.296 574.173 504.296C575.219 504.296 576.159 504.467 576.993 504.807C577.84 505.148 578.551 505.648 579.127 506.306L577.681 507.716C577.199 507.234 576.676 506.882 576.112 506.659C575.56 506.423 574.948 506.306 574.278 506.306C573.632 506.306 573.033 506.412 572.48 506.623C571.928 506.835 571.452 507.135 571.052 507.522C570.653 507.91 570.341 508.369 570.118 508.898C569.906 509.426 569.8 510.008 569.8 510.643C569.8 511.266 569.906 511.842 570.118 512.371C570.341 512.9 570.653 513.364 571.052 513.763C571.452 514.151 571.922 514.451 572.463 514.663C573.003 514.874 573.603 514.98 574.261 514.98C574.872 514.98 575.46 514.886 576.024 514.698C576.6 514.498 577.146 514.169 577.663 513.711L578.968 515.421C578.322 515.938 577.569 516.332 576.711 516.602C575.865 516.86 575.007 516.99 574.137 516.99ZM576.8 515.121V510.502H578.968V515.421L576.8 515.121ZM581.991 516.813V504.472H583.877L591.617 513.975H590.683V504.472H592.957V516.813H591.07L583.331 507.311H584.265V516.813H581.991Z" fill="black"/>
<path d="M515.136 296.437L520.69 284.096H522.946L528.517 296.437H526.12L521.342 285.312H522.259L517.499 296.437H515.136ZM517.692 293.581L518.31 291.783H524.974L525.591 293.581H517.692ZM530.087 296.437V284.096H531.973L539.713 293.599H538.779V284.096H541.053V296.437H539.166L531.427 286.934H532.361V296.437H530.087ZM542.614 296.437L548.168 284.096H550.424L555.996 296.437H553.598L548.82 285.312H549.737L544.977 296.437H542.614ZM545.171 293.581L545.788 291.783H552.452L553.069 293.581H545.171ZM557.565 296.437V284.096H559.857V294.498H566.31V296.437H557.565ZM569.86 296.437V291.553L570.371 292.964L565.012 284.096H567.462L571.764 291.236H570.389L574.726 284.096H576.983L571.623 292.964L572.152 291.553V296.437H569.86ZM582.051 296.613C581.087 296.613 580.165 296.478 579.283 296.208C578.402 295.926 577.702 295.567 577.185 295.132L577.978 293.352C578.472 293.74 579.083 294.063 579.812 294.321C580.541 294.58 581.287 294.709 582.051 294.709C582.697 294.709 583.221 294.639 583.62 294.498C584.02 294.357 584.314 294.169 584.502 293.934C584.69 293.687 584.784 293.411 584.784 293.105C584.784 292.729 584.649 292.429 584.378 292.206C584.108 291.971 583.755 291.789 583.32 291.659C582.897 291.518 582.421 291.389 581.892 291.271C581.375 291.154 580.852 291.019 580.323 290.866C579.806 290.701 579.33 290.496 578.895 290.249C578.472 289.99 578.125 289.649 577.855 289.226C577.585 288.803 577.45 288.263 577.45 287.604C577.45 286.934 577.626 286.323 577.978 285.771C578.343 285.207 578.889 284.76 579.618 284.431C580.359 284.09 581.293 283.92 582.421 283.92C583.162 283.92 583.896 284.014 584.625 284.202C585.354 284.39 585.988 284.66 586.529 285.013L585.806 286.793C585.254 286.464 584.684 286.223 584.096 286.071C583.508 285.906 582.944 285.824 582.404 285.824C581.769 285.824 581.252 285.9 580.852 286.053C580.464 286.206 580.176 286.405 579.988 286.652C579.812 286.899 579.724 287.181 579.724 287.499C579.724 287.875 579.853 288.18 580.112 288.415C580.382 288.639 580.729 288.815 581.152 288.944C581.587 289.074 582.069 289.203 582.598 289.332C583.126 289.45 583.65 289.585 584.167 289.738C584.696 289.89 585.172 290.09 585.595 290.337C586.03 290.584 586.376 290.919 586.635 291.342C586.905 291.765 587.04 292.3 587.04 292.946C587.04 293.604 586.858 294.216 586.494 294.78C586.141 295.332 585.595 295.779 584.854 296.12C584.114 296.449 583.179 296.613 582.051 296.613ZM589.313 296.437V284.096H591.605V296.437H589.313ZM598.769 296.613C597.805 296.613 596.882 296.478 596.001 296.208C595.119 295.926 594.42 295.567 593.903 295.132L594.696 293.352C595.19 293.74 595.801 294.063 596.53 294.321C597.258 294.58 598.005 294.709 598.769 294.709C599.415 294.709 599.938 294.639 600.338 294.498C600.737 294.357 601.031 294.169 601.219 293.934C601.407 293.687 601.501 293.411 601.501 293.105C601.501 292.729 601.366 292.429 601.096 292.206C600.825 291.971 600.473 291.789 600.038 291.659C599.615 291.518 599.139 291.389 598.61 291.271C598.093 291.154 597.57 291.019 597.041 290.866C596.524 290.701 596.048 290.496 595.613 290.249C595.19 289.99 594.843 289.649 594.573 289.226C594.302 288.803 594.167 288.263 594.167 287.604C594.167 286.934 594.343 286.323 594.696 285.771C595.06 285.207 595.607 284.76 596.336 284.431C597.076 284.09 598.011 283.92 599.139 283.92C599.879 283.92 600.614 284.014 601.343 284.202C602.071 284.39 602.706 284.66 603.247 285.013L602.524 286.793C601.971 286.464 601.401 286.223 600.814 286.071C600.226 285.906 599.662 285.824 599.121 285.824C598.487 285.824 597.969 285.9 597.57 286.053C597.182 286.206 596.894 286.405 596.706 286.652C596.53 286.899 596.441 287.181 596.441 287.499C596.441 287.875 596.571 288.18 596.829 288.415C597.1 288.639 597.446 288.815 597.87 288.944C598.304 289.074 598.786 289.203 599.315 289.332C599.844 289.45 600.367 289.585 600.884 289.738C601.413 289.89 601.889 290.09 602.312 290.337C602.747 290.584 603.094 290.919 603.352 291.342C603.623 291.765 603.758 292.3 603.758 292.946C603.758 293.604 603.576 294.216 603.211 294.78C602.859 295.332 602.312 295.779 601.572 296.12C600.831 296.449 599.897 296.613 598.769 296.613Z" fill="black"/>
<path d="M323.657 386.527C322.693 386.527 321.771 386.392 320.889 386.121C320.008 385.839 319.309 385.481 318.791 385.046L319.585 383.265C320.078 383.653 320.69 383.976 321.418 384.235C322.147 384.494 322.893 384.623 323.657 384.623C324.304 384.623 324.827 384.552 325.226 384.411C325.626 384.27 325.92 384.082 326.108 383.847C326.296 383.6 326.39 383.324 326.39 383.018C326.39 382.642 326.255 382.343 325.984 382.119C325.714 381.884 325.362 381.702 324.927 381.573C324.504 381.432 324.028 381.302 323.499 381.185C322.981 381.067 322.458 380.932 321.93 380.779C321.412 380.615 320.936 380.409 320.501 380.162C320.078 379.904 319.732 379.563 319.461 379.14C319.191 378.717 319.056 378.176 319.056 377.518C319.056 376.848 319.232 376.237 319.585 375.684C319.949 375.12 320.496 374.674 321.224 374.344C321.965 374.004 322.899 373.833 324.028 373.833C324.768 373.833 325.503 373.927 326.231 374.115C326.96 374.303 327.595 374.574 328.135 374.926L327.412 376.707C326.86 376.378 326.29 376.137 325.702 375.984C325.115 375.82 324.551 375.737 324.01 375.737C323.375 375.737 322.858 375.814 322.458 375.966C322.071 376.119 321.783 376.319 321.595 376.566C321.418 376.813 321.33 377.095 321.33 377.412C321.33 377.788 321.459 378.094 321.718 378.329C321.988 378.552 322.335 378.729 322.758 378.858C323.193 378.987 323.675 379.116 324.204 379.246C324.733 379.363 325.256 379.498 325.773 379.651C326.302 379.804 326.778 380.004 327.201 380.251C327.636 380.497 327.983 380.832 328.241 381.255C328.511 381.679 328.647 382.213 328.647 382.86C328.647 383.518 328.464 384.129 328.1 384.693C327.747 385.246 327.201 385.692 326.46 386.033C325.72 386.362 324.786 386.527 323.657 386.527ZM336.702 386.527C335.738 386.527 334.851 386.368 334.04 386.051C333.229 385.734 332.524 385.293 331.924 384.729C331.325 384.153 330.86 383.483 330.531 382.719C330.202 381.943 330.038 381.097 330.038 380.18C330.038 379.263 330.202 378.423 330.531 377.659C330.86 376.883 331.325 376.213 331.924 375.649C332.524 375.073 333.229 374.627 334.04 374.309C334.851 373.992 335.732 373.833 336.684 373.833C337.648 373.833 338.53 373.992 339.329 374.309C340.14 374.627 340.845 375.073 341.444 375.649C342.044 376.213 342.508 376.883 342.837 377.659C343.166 378.423 343.331 379.263 343.331 380.18C343.331 381.097 343.166 381.943 342.837 382.719C342.508 383.495 342.044 384.164 341.444 384.729C340.845 385.293 340.14 385.734 339.329 386.051C338.53 386.368 337.654 386.527 336.702 386.527ZM336.684 384.517C337.307 384.517 337.883 384.411 338.412 384.2C338.941 383.988 339.399 383.688 339.787 383.301C340.175 382.901 340.475 382.443 340.686 381.925C340.91 381.397 341.021 380.815 341.021 380.18C341.021 379.545 340.91 378.969 340.686 378.452C340.475 377.923 340.175 377.465 339.787 377.077C339.399 376.678 338.941 376.372 338.412 376.16C337.883 375.949 337.307 375.843 336.684 375.843C336.061 375.843 335.485 375.949 334.957 376.16C334.439 376.372 333.981 376.678 333.581 377.077C333.194 377.465 332.888 377.923 332.665 378.452C332.453 378.969 332.347 379.545 332.347 380.18C332.347 380.803 332.453 381.379 332.665 381.908C332.888 382.437 333.194 382.901 333.581 383.301C333.969 383.688 334.428 383.988 334.957 384.2C335.485 384.411 336.061 384.517 336.684 384.517ZM347.858 379.686H354.011V381.626H347.858V379.686ZM348.052 386.351H345.76V374.01H354.769V375.931H348.052V386.351ZM359.575 386.351V375.949H355.485V374.01H365.957V375.949H361.867V386.351H359.575ZM370.397 386.351L366.307 374.01H368.687L372.336 385.169H371.155L374.945 374.01H377.061L380.746 385.169H379.6L383.337 374.01H385.524L381.433 386.351H379L375.633 376.284H376.268L372.847 386.351H370.397ZM385.249 386.351L390.803 374.01H393.059L398.631 386.351H396.233L391.455 375.226H392.372L387.612 386.351H385.249ZM387.806 383.495L388.423 381.696H395.087L395.704 383.495H387.806ZM400.2 386.351V374.01H405.277C406.371 374.01 407.305 374.186 408.081 374.538C408.868 374.891 409.473 375.396 409.897 376.055C410.32 376.713 410.531 377.494 410.531 378.399C410.531 379.304 410.32 380.086 409.897 380.744C409.473 381.391 408.868 381.89 408.081 382.243C407.305 382.584 406.371 382.754 405.277 382.754H401.469L402.492 381.714V386.351H400.2ZM408.275 386.351L405.154 381.873H407.605L410.743 386.351H408.275ZM402.492 381.961L401.469 380.868H405.172C406.182 380.868 406.941 380.65 407.446 380.215C407.963 379.78 408.222 379.175 408.222 378.399C408.222 377.612 407.963 377.007 407.446 376.584C406.941 376.16 406.182 375.949 405.172 375.949H401.469L402.492 374.82V381.961ZM415.211 379.14H421.346V381.026H415.211V379.14ZM415.387 384.429H422.351V386.351H413.095V374.01H422.104V375.931H415.387V384.429ZM301.409 407.351V395.01H306.804C308.144 395.01 309.319 395.268 310.33 395.785C311.341 396.302 312.129 397.019 312.693 397.936C313.257 398.853 313.539 399.934 313.539 401.18C313.539 402.414 313.257 403.495 312.693 404.424C312.129 405.341 311.341 406.058 310.33 406.575C309.319 407.092 308.144 407.351 306.804 407.351H301.409ZM303.701 405.411H306.698C307.627 405.411 308.426 405.235 309.096 404.882C309.778 404.53 310.301 404.036 310.665 403.401C311.041 402.767 311.229 402.026 311.229 401.18C311.229 400.322 311.041 399.582 310.665 398.959C310.301 398.324 309.778 397.83 309.096 397.478C308.426 397.125 307.627 396.949 306.698 396.949H303.701V405.411ZM318.091 400.14H324.226V402.026H318.091V400.14ZM318.267 405.429H325.231V407.351H315.975V395.01H324.984V396.931H318.267V405.429ZM331.263 407.351L325.868 395.01H328.354L333.167 406.169H331.739L336.605 395.01H338.897L333.52 407.351H331.263ZM342.315 400.14H348.45V402.026H342.315V400.14ZM342.491 405.429H349.455V407.351H340.199V395.01H349.208V396.931H342.491V405.429ZM352.01 407.351V395.01H354.302V405.411H360.754V407.351H352.01ZM368.123 407.527C367.159 407.527 366.272 407.368 365.461 407.051C364.65 406.734 363.944 406.293 363.345 405.729C362.746 405.153 362.281 404.483 361.952 403.719C361.623 402.943 361.459 402.097 361.459 401.18C361.459 400.263 361.623 399.423 361.952 398.659C362.281 397.883 362.746 397.213 363.345 396.649C363.944 396.073 364.65 395.627 365.461 395.309C366.272 394.992 367.153 394.833 368.105 394.833C369.069 394.833 369.95 394.992 370.75 395.309C371.561 395.627 372.266 396.073 372.865 396.649C373.465 397.213 373.929 397.883 374.258 398.659C374.587 399.423 374.752 400.263 374.752 401.18C374.752 402.097 374.587 402.943 374.258 403.719C373.929 404.495 373.465 405.164 372.865 405.729C372.266 406.293 371.561 406.734 370.75 407.051C369.95 407.368 369.075 407.527 368.123 407.527ZM368.105 405.517C368.728 405.517 369.304 405.411 369.833 405.2C370.362 404.988 370.82 404.688 371.208 404.301C371.596 403.901 371.896 403.443 372.107 402.925C372.33 402.397 372.442 401.815 372.442 401.18C372.442 400.545 372.33 399.969 372.107 399.452C371.896 398.923 371.596 398.465 371.208 398.077C370.82 397.678 370.362 397.372 369.833 397.16C369.304 396.949 368.728 396.843 368.105 396.843C367.482 396.843 366.906 396.949 366.377 397.16C365.86 397.372 365.402 397.678 365.002 398.077C364.614 398.465 364.309 398.923 364.085 399.452C363.874 399.969 363.768 400.545 363.768 401.18C363.768 401.803 363.874 402.379 364.085 402.908C364.309 403.437 364.614 403.901 365.002 404.301C365.39 404.688 365.848 404.988 366.377 405.2C366.906 405.411 367.482 405.517 368.105 405.517ZM377.181 407.351V395.01H382.258C383.352 395.01 384.286 395.186 385.062 395.538C385.849 395.891 386.454 396.396 386.878 397.055C387.301 397.713 387.512 398.494 387.512 399.399C387.512 400.304 387.301 401.086 386.878 401.744C386.454 402.402 385.849 402.908 385.062 403.26C384.286 403.613 383.352 403.789 382.258 403.789H378.45L379.473 402.714V407.351H377.181ZM379.473 402.961L378.45 401.85H382.153C383.163 401.85 383.922 401.638 384.427 401.215C384.944 400.78 385.203 400.175 385.203 399.399C385.203 398.612 384.944 398.007 384.427 397.584C383.922 397.16 383.163 396.949 382.153 396.949H378.45L379.473 395.82V402.961ZM389.801 407.351V395.01H391.687L397.082 404.018H396.095L401.402 395.01H403.288L403.306 407.351H401.137L401.12 398.412H401.578L397.065 405.94H396.042L391.458 398.412H391.987V407.351H389.801ZM408.755 400.14H414.89V402.026H408.755V400.14ZM408.931 405.429H415.895V407.351H406.639V395.01H415.648V396.931H408.931V405.429ZM418.45 407.351V395.01H420.336L428.076 404.512H427.142V395.01H429.416V407.351H427.529L419.79 397.848H420.724V407.351H418.45ZM435.226 407.351V396.949H431.136V395.01H441.608V396.949H437.518V407.351H435.226ZM348.606 428.527C347.665 428.527 346.79 428.374 345.979 428.069C345.18 427.751 344.48 427.31 343.881 426.746C343.293 426.17 342.835 425.495 342.506 424.719C342.177 423.943 342.012 423.097 342.012 422.18C342.012 421.263 342.177 420.417 342.506 419.641C342.835 418.866 343.299 418.196 343.898 417.631C344.498 417.056 345.197 416.615 345.996 416.309C346.796 415.992 347.671 415.833 348.623 415.833C349.634 415.833 350.557 416.01 351.391 416.362C352.226 416.703 352.931 417.214 353.507 417.896L352.026 419.289C351.579 418.807 351.08 418.448 350.527 418.213C349.975 417.966 349.376 417.843 348.729 417.843C348.083 417.843 347.489 417.949 346.948 418.16C346.42 418.372 345.955 418.672 345.556 419.06C345.168 419.447 344.862 419.906 344.639 420.435C344.427 420.964 344.322 421.545 344.322 422.18C344.322 422.815 344.427 423.397 344.639 423.925C344.862 424.454 345.168 424.913 345.556 425.301C345.955 425.688 346.42 425.988 346.948 426.2C347.489 426.411 348.083 426.517 348.729 426.517C349.376 426.517 349.975 426.4 350.527 426.164C351.08 425.918 351.579 425.547 352.026 425.054L353.507 426.464C352.931 427.134 352.226 427.645 351.391 427.998C350.557 428.351 349.628 428.527 348.606 428.527ZM358.58 428.351V423.467L359.092 424.877L353.732 416.01H356.183L360.484 423.15H359.109L363.446 416.01H365.703L360.343 424.877L360.872 423.467V428.351H358.58ZM372.382 428.527C371.442 428.527 370.566 428.374 369.755 428.069C368.956 427.751 368.257 427.31 367.657 426.746C367.07 426.17 366.611 425.495 366.282 424.719C365.953 423.943 365.789 423.097 365.789 422.18C365.789 421.263 365.953 420.417 366.282 419.641C366.611 418.866 367.076 418.196 367.675 417.631C368.274 417.056 368.974 416.615 369.773 416.309C370.572 415.992 371.448 415.833 372.4 415.833C373.411 415.833 374.333 416.01 375.168 416.362C376.002 416.703 376.708 417.214 377.283 417.896L375.803 419.289C375.356 418.807 374.856 418.448 374.304 418.213C373.752 417.966 373.152 417.843 372.506 417.843C371.859 417.843 371.266 417.949 370.725 418.16C370.196 418.372 369.732 418.672 369.332 419.06C368.944 419.447 368.639 419.906 368.415 420.435C368.204 420.964 368.098 421.545 368.098 422.18C368.098 422.815 368.204 423.397 368.415 423.925C368.639 424.454 368.944 424.913 369.332 425.301C369.732 425.688 370.196 425.988 370.725 426.2C371.266 426.411 371.859 426.517 372.506 426.517C373.152 426.517 373.752 426.4 374.304 426.164C374.856 425.918 375.356 425.547 375.803 425.054L377.283 426.464C376.708 427.134 376.002 427.645 375.168 427.998C374.333 428.351 373.405 428.527 372.382 428.527ZM379.479 428.351V416.01H381.771V426.411H388.224V428.351H379.479ZM392.149 421.14H398.284V423.026H392.149V421.14ZM392.325 426.429H399.289V428.351H390.033V416.01H399.042V417.931H392.325V426.429Z" fill="black"/>
</svg>
