<svg width="2090" height="325" viewBox="0 0 2090 325" fill="none" xmlns="http://www.w3.org/2000/svg">
<rect x="0.0078125" width="2089.23" height="325" rx="5" fill="#60A394"/>
<rect x="0.0078125" width="2089.23" height="325" rx="5" fill="white" fill-opacity="0.8"/>
<rect x="885.008" y="126" width="300" height="72" rx="5" fill="#0067A8"/>
<path d="M903.037 147.771V152.343C904.934 152.343 908.015 151.465 911.939 150.348C912.144 150.29 912.351 150.231 912.56 150.171L912.712 150.127C918.102 148.534 924.748 146.571 929.211 146.571C934.172 146.571 939.589 148.286 943.923 149.657C946.432 150.514 948.428 151.143 949.968 151.314C954.461 151.791 957.239 150.745 957.893 150.499C957.945 150.48 957.983 150.465 958.008 150.457L956.069 146.286C956.069 146.286 954.016 147.143 950.481 146.743L945.292 145.314C945.128 145.263 944.962 145.211 944.794 145.159C940.455 143.801 934.701 142 929.211 142C924.079 142 916.951 144.057 911.249 145.771C910.939 145.859 910.629 145.948 910.32 146.036C907.215 146.921 904.23 147.771 903.037 147.771Z" fill="#F8F8F8"/>
<path fill-rule="evenodd" clip-rule="evenodd" d="M954.1 157.689C951.431 158.594 949.125 159.376 947.287 160.686C945.462 162 945.177 163.029 944.892 164.343C944.759 165.48 944.782 166.513 944.805 167.564C944.841 169.206 944.878 170.891 944.322 173.086C943.638 175.886 941.528 180.057 939.076 182L939.019 176.857C941.697 174.401 941.521 169.013 941.395 165.159C941.362 164.17 941.334 163.283 941.357 162.571C934.286 170.057 926.132 178.4 915.525 179.829C907.143 181.2 897.392 176 902.353 166.571C904.063 163.829 909.937 162.571 912.161 165.314C915.411 170 907.998 174.229 906.458 168.286C902.98 169.829 904.577 174.971 908.226 175.657C918.775 178.914 928.07 170.743 934.97 163.829C927.041 164.801 919.658 162.64 912.229 160.465C909.186 159.574 906.136 158.681 903.037 158V153.657C907.299 153.339 911.453 152.109 915.595 150.882C921.872 149.023 928.123 147.172 934.685 148.514C937.366 148.88 939.967 149.722 942.557 150.561C946.852 151.953 951.116 153.334 955.67 152.514L957.437 156.514C956.272 156.952 955.158 157.33 954.1 157.689ZM915.594 154.428C914.321 154.859 913.061 155.285 911.819 155.657C922.311 159.086 933.659 161.714 945.405 155.886C940.045 153.6 937.992 152.8 934.343 151.886C935.768 160.686 923.052 159.771 925.447 151.886C922.135 152.214 918.822 153.335 915.594 154.428Z" fill="#F8F8F8"/>
<path d="M989.326 182.24C986.288 182.24 983.381 181.814 980.603 180.962C977.826 180.073 975.622 178.944 973.992 177.573L976.492 171.962C978.048 173.184 979.974 174.203 982.27 175.018C984.566 175.833 986.918 176.24 989.326 176.24C991.363 176.24 993.011 176.018 994.27 175.573C995.529 175.129 996.455 174.536 997.048 173.796C997.64 173.018 997.937 172.147 997.937 171.184C997.937 169.999 997.511 169.055 996.659 168.351C995.807 167.61 994.696 167.036 993.326 166.629C991.992 166.184 990.492 165.777 988.826 165.407C987.196 165.036 985.548 164.61 983.881 164.129C982.251 163.61 980.751 162.962 979.381 162.184C978.048 161.37 976.955 160.296 976.103 158.962C975.251 157.629 974.826 155.925 974.826 153.851C974.826 151.74 975.381 149.814 976.492 148.073C977.64 146.296 979.363 144.888 981.659 143.851C983.992 142.777 986.937 142.24 990.492 142.24C992.826 142.24 995.14 142.536 997.437 143.129C999.733 143.721 1001.73 144.573 1003.44 145.684L1001.16 151.296C999.418 150.259 997.622 149.499 995.77 149.018C993.918 148.499 992.14 148.24 990.437 148.24C988.437 148.24 986.807 148.481 985.548 148.962C984.326 149.444 983.418 150.073 982.826 150.851C982.27 151.629 981.992 152.518 981.992 153.518C981.992 154.703 982.4 155.666 983.214 156.407C984.066 157.11 985.159 157.666 986.492 158.073C987.863 158.481 989.381 158.888 991.048 159.296C992.714 159.666 994.363 160.092 995.992 160.573C997.659 161.055 999.159 161.684 1000.49 162.462C1001.86 163.24 1002.96 164.296 1003.77 165.629C1004.62 166.962 1005.05 168.647 1005.05 170.684C1005.05 172.759 1004.47 174.684 1003.33 176.462C1002.21 178.203 1000.49 179.61 998.159 180.684C995.826 181.721 992.881 182.24 989.326 182.24Z" fill="#F8F8F8"/>
<path d="M1046.76 181.684V149.907H1053.76V162.684H1069.04V149.907H1076.04V181.684H1069.04V168.462H1053.76V181.684H1046.76Z" fill="#F8F8F8"/>
<path d="M1085.71 181.684V149.907H1092.71V181.684H1085.71Z" fill="#F8F8F8"/>
<path fill-rule="evenodd" clip-rule="evenodd" d="M1011.82 181.684V149.907H1025.54C1028.39 149.907 1030.86 150.37 1032.93 151.296C1035.01 152.184 1036.6 153.481 1037.71 155.184C1038.86 156.888 1039.43 158.944 1039.43 161.351C1039.43 163.759 1038.86 165.833 1037.71 167.573C1036.6 169.277 1035.01 170.592 1032.93 171.518C1030.86 172.407 1028.39 172.851 1025.54 172.851H1018.82V181.684H1011.82ZM1030.54 165.684C1029.32 166.684 1027.49 167.184 1025.04 167.184H1018.82V155.573H1025.04C1027.49 155.573 1029.32 156.073 1030.54 157.073C1031.76 158.073 1032.38 159.499 1032.38 161.351C1032.38 163.203 1031.76 164.647 1030.54 165.684Z" fill="#F8F8F8"/>
<path d="M1102.37 181.684V149.907H1108.15L1124.7 169.965V149.907H1131.65V181.684H1125.87L1109.37 161.693V181.684H1102.37Z" fill="#F8F8F8"/>
<path d="M1137.55 149.907H1145.43L1153.05 160.343L1160.66 149.907H1168.43L1156.84 165.38L1169.05 181.684H1160.93L1152.96 170.563L1144.93 181.684H1136.93L1149.11 165.5L1137.55 149.907Z" fill="#F8F8F8"/>
<rect x="418.008" y="192" width="97" height="72" rx="5" fill="#0067A8"/>
<path d="M443.383 217.375V238.625H449.633V226.438L455.883 234.25L462.133 226.438V238.625H468.383V217.375H462.133L455.883 225.188L449.633 217.375H443.383Z" fill="#F8F8F8"/>
<path d="M473.07 228.312L482.445 238.625L491.82 228.312H485.57V217.375H479.32V228.312H473.07Z" fill="#F8F8F8"/>
<path fill-rule="evenodd" clip-rule="evenodd" d="M438.695 208C436.106 208 434.008 210.099 434.008 212.688V243.312C434.008 245.901 436.106 248 438.695 248H494.32C496.909 248 499.008 245.901 499.008 243.312V212.688C499.008 210.099 496.909 208 494.32 208H438.695ZM437.133 212.688C437.133 211.825 437.832 211.125 438.695 211.125H494.32C495.183 211.125 495.883 211.825 495.883 212.688V243.312C495.883 244.175 495.183 244.875 494.32 244.875H438.695C437.832 244.875 437.133 244.175 437.133 243.312V212.688Z" fill="#F8F8F8"/>
<rect x="60.0078" y="60" width="454.598" height="72" rx="5" fill="#0067A8"/>
<path d="M77.7717 115.886C79.0235 115.488 80.2752 115.26 81.5839 115.033L83.0633 108.205C84.0875 103.482 85.3961 100.467 87.8997 97.2233C89.8343 94.7198 91.3705 93.5249 92.6223 93.5249C93.4758 93.5249 94.0448 93.8094 94.6707 94.606H95.4673C95.638 92.4438 95.9225 90.623 96.3777 88.2902C95.7518 88.0057 95.5242 87.9488 95.2397 87.9488C93.4758 87.9488 91.7119 89.3144 89.6636 92.2162C87.729 95.0043 85.7375 97.7354 84.3151 100.808L85.7944 93.6387C86.0789 92.3869 86.4772 91.0782 86.4772 89.7696C86.4772 88.6316 86.022 87.9488 85.1686 87.9488C83.9737 87.9488 81.8115 89.1437 77.601 92.1593L76.0078 93.2973L76.4061 94.4353L78.2269 93.2404C79.82 92.2162 80.4459 91.9317 80.958 91.9317C81.527 91.9317 81.9253 92.4438 81.9253 93.1835C81.9253 96.4836 79.4787 108.205 77.2027 115.488L77.7717 115.886ZM102.693 116C105.937 116 109.066 114.407 114.358 110.139L113.903 109.058L112.537 110.026C109.521 112.188 106.79 113.326 104.742 113.326C102.011 113.326 100.417 111.22 100.417 107.75C100.417 106.27 100.531 104.848 100.873 103.198L105.538 102.06C106.506 101.832 107.985 101.263 109.464 100.637C114.301 98.4751 116.52 95.9146 116.52 92.3869C116.52 89.7127 114.642 87.9488 111.74 87.9488C108.042 87.9488 101.84 91.761 99.564 95.4026C97.857 98.1906 96.0932 105.018 96.0932 109.001C96.0932 113.383 98.5967 116 102.693 116ZM101.157 101.889L101.669 99.7838C102.58 95.9715 103.718 93.5249 105.254 92.1024C106.335 91.0782 108.156 90.3385 109.578 90.3385C111.228 90.3385 112.309 91.4765 112.309 93.2973C112.309 95.8009 110.318 98.4751 107.359 99.8976C105.766 100.637 103.718 101.32 101.157 101.889ZM137.751 115.374C139.321 115.374 140.742 114.944 142.013 114.084C143.284 113.224 143.92 112.122 143.92 110.776V109.542C143.92 109.018 143.854 108.542 143.724 108.112C143.593 107.682 143.322 107.205 142.91 106.682L124.965 84.0259C124.853 83.8389 124.797 83.652 124.797 83.4651C124.797 82.8295 125.002 82.5117 125.414 82.5117H138.256C138.667 83.5212 139.004 84.2689 139.265 84.7549C140.125 86.213 141.06 86.942 142.069 86.942C142.817 86.942 143.322 86.7924 143.583 86.4934C143.845 86.1943 143.976 85.7643 143.976 85.2035C143.976 84.8297 143.957 84.2128 143.92 83.3529C143.92 81.6706 143.312 80.334 142.097 79.3433C140.882 78.3525 139.508 77.8572 137.975 77.8572H124.236C122.928 77.8572 121.843 78.5021 120.983 79.7919C120.124 81.0817 119.694 82.493 119.694 84.0259C119.694 84.3997 119.768 84.7456 119.918 85.0633C120.067 85.3811 120.31 85.7456 120.647 86.1569L139.602 110.776H126.311C125.601 110.776 125.04 110.29 124.629 109.318C123.769 107.336 122.778 106.345 121.656 106.345C120.946 106.345 120.441 106.663 120.142 107.299C119.843 107.934 119.694 108.719 119.694 109.654C119.694 111.374 120.254 112.757 121.376 113.804C122.498 114.851 123.843 115.374 125.414 115.374H137.751ZM165.957 115.374C167.013 115.374 168.175 114.987 169.442 114.213C170.885 113.333 171.607 112.277 171.607 111.045C171.607 110.728 171.624 110.323 171.659 109.83C171.695 109.337 171.712 109.021 171.712 108.88C171.712 108.211 171.563 107.709 171.263 107.375C170.964 107.041 170.392 106.873 169.547 106.873C169.125 106.873 168.298 107.753 167.066 109.513C166.538 110.288 165.922 110.675 165.218 110.675H160.202C159.603 110.675 159.049 110.455 158.539 110.015C158.028 109.575 157.773 109.091 157.773 108.563V93.4623H167.699C168.192 93.4623 168.597 93.2511 168.914 92.8287C169.231 92.4063 169.389 91.9135 169.389 91.3503C169.389 90.7871 169.187 90.2503 168.782 89.7399C168.377 89.2295 168.016 88.9743 167.699 88.9743H157.773V82.7967C157.773 82.3743 157.579 82.0223 157.192 81.7407C156.805 81.4591 156.383 81.3183 155.925 81.3183C155.256 81.3183 154.693 81.4415 154.235 81.6879C153.778 81.9343 153.549 82.3039 153.549 82.7967V88.9743H150.117C149.554 88.9743 149.158 89.1943 148.929 89.6343C148.7 90.0743 148.586 90.6463 148.586 91.3503C148.586 91.9135 148.7 92.4063 148.929 92.8287C149.158 93.2511 149.501 93.4623 149.959 93.4623H153.443V109.672C153.443 111.185 154.139 112.514 155.529 113.658C156.919 114.802 158.477 115.374 160.202 115.374H165.957ZM179.418 115.585C179.981 115.585 180.492 115.462 180.949 115.216C181.407 114.969 181.635 114.617 181.635 114.16V99.851L188.816 94.1486C189.379 93.6911 189.881 93.3919 190.321 93.2511C190.761 93.1103 191.333 93.0399 192.037 93.0399C194.466 93.2511 195.68 94.8702 195.68 97.8974C195.68 98.2846 195.927 98.6278 196.419 98.927C196.912 99.2262 197.44 99.3758 198.003 99.3758C198.567 99.3758 199.068 99.2438 199.508 98.9798C199.948 98.7158 200.168 98.3374 200.168 97.8446C200.168 94.219 199.235 91.6671 197.37 90.1887C196.103 89.2031 194.325 88.7103 192.037 88.7103C191.72 88.7103 191.263 88.6927 190.664 88.6575C190.277 88.6575 189.925 88.6927 189.608 88.7631C189.291 88.8335 188.992 88.9743 188.711 89.1855L181.635 94.1486V91.9311C181.635 91.3327 181.442 90.7871 181.055 90.2943C180.668 89.8015 180.122 89.5551 179.418 89.5551C178.679 89.5551 178.098 89.7487 177.676 90.1359C177.253 90.5231 177.042 91.1391 177.042 91.9839V114.16C177.042 114.653 177.288 115.013 177.781 115.242C178.274 115.471 178.82 115.585 179.418 115.585ZM215.85 115.533L224.35 110.886V113.368C224.35 114.811 225.072 115.533 226.515 115.533C227.219 115.533 227.8 115.216 228.258 114.582C228.574 114.125 228.733 113.72 228.733 113.368V90.0831C228.733 88.9215 228.046 88.3407 226.674 88.3407C225.16 88.3407 224.403 88.9215 224.403 90.0831V106.187L216.747 110.358C216.325 110.605 215.929 110.763 215.559 110.833C215.19 110.904 214.794 110.939 214.371 110.939C213.315 110.939 212.418 110.64 211.678 110.041C210.939 109.443 210.57 108.704 210.57 107.824V89.8719C210.57 89.3791 210.376 89.0007 209.989 88.7367C209.602 88.4727 209.127 88.3407 208.563 88.3407C208 88.3407 207.507 88.4727 207.085 88.7367C206.663 89.0007 206.451 89.3791 206.451 89.8719V108.035C206.451 109.971 207.067 111.705 208.299 113.236C209.531 114.767 211.027 115.533 212.787 115.533H215.85ZM255.238 115.374C255.801 115.374 256.25 115.119 256.585 114.609C256.919 114.098 257.086 113.509 257.086 112.84C257.086 112.277 256.937 111.775 256.637 111.335C256.338 110.895 255.96 110.675 255.502 110.675H243.939L239.609 105.817C239.187 105.36 238.879 104.823 238.686 104.207C238.492 103.591 238.395 103.054 238.395 102.597V101.699C238.395 100.854 238.474 100.221 238.633 99.7982C238.791 99.3758 239.011 99.0414 239.293 98.795L243.833 94.4126H254.182C255.203 94.4126 255.907 94.1926 256.294 93.7527C256.681 93.3127 256.875 92.6703 256.875 91.8255C256.875 91.1919 256.602 90.6375 256.057 90.1623C255.511 89.6871 254.886 89.4495 254.182 89.4495H243.833C243.481 89.4495 243.068 89.5287 242.593 89.6871C242.117 89.8455 241.721 90.0831 241.405 90.3999L235.65 96.3662C234.981 97.0702 234.514 98.0118 234.25 99.191C233.986 100.37 233.854 101.505 233.854 102.597C233.854 103.477 234.004 104.515 234.303 105.712C234.602 106.909 234.928 107.683 235.28 108.035L241.827 114.582C242.179 114.934 242.531 115.154 242.883 115.242C243.235 115.33 243.728 115.374 244.361 115.374H255.238ZM280.955 115.374C282.011 115.374 283.172 114.987 284.439 114.213C285.883 113.333 286.604 112.277 286.604 111.045C286.604 110.728 286.622 110.323 286.657 109.83C286.692 109.337 286.71 109.021 286.71 108.88C286.71 108.211 286.56 107.709 286.261 107.375C285.962 107.041 285.39 106.873 284.545 106.873C284.123 106.873 283.295 107.753 282.063 109.513C281.535 110.288 280.919 110.675 280.215 110.675H275.199C274.601 110.675 274.047 110.455 273.536 110.015C273.026 109.575 272.771 109.091 272.771 108.563V93.4623H282.697C283.19 93.4623 283.595 93.2511 283.911 92.8287C284.228 92.4063 284.387 91.9135 284.387 91.3503C284.387 90.7871 284.184 90.2503 283.779 89.7399C283.375 89.2295 283.014 88.9743 282.697 88.9743H272.771V82.7967C272.771 82.3743 272.577 82.0223 272.19 81.7407C271.803 81.4591 271.38 81.3183 270.923 81.3183C270.254 81.3183 269.691 81.4415 269.233 81.6879C268.775 81.9343 268.547 82.3039 268.547 82.7967V88.9743H265.115C264.551 88.9743 264.156 89.1943 263.927 89.6343C263.698 90.0743 263.584 90.6463 263.584 91.3503C263.584 91.9135 263.698 92.4063 263.927 92.8287C264.156 93.2511 264.499 93.4623 264.956 93.4623H268.441V109.672C268.441 111.185 269.136 112.514 270.527 113.658C271.917 114.802 273.475 115.374 275.199 115.374H280.955ZM302.708 115.533L311.209 110.886V113.368C311.209 114.811 311.93 115.533 313.374 115.533C314.078 115.533 314.658 115.216 315.116 114.582C315.433 114.125 315.591 113.72 315.591 113.368V90.0831C315.591 88.9215 314.905 88.3407 313.532 88.3407C312.018 88.3407 311.262 88.9215 311.262 90.0831V106.187L303.606 110.358C303.183 110.605 302.787 110.763 302.418 110.833C302.048 110.904 301.652 110.939 301.23 110.939C300.174 110.939 299.276 110.64 298.537 110.041C297.798 109.443 297.428 108.704 297.428 107.824V89.8719C297.428 89.3791 297.234 89.0007 296.847 88.7367C296.46 88.4727 295.985 88.3407 295.422 88.3407C294.858 88.3407 294.366 88.4727 293.943 88.7367C293.521 89.0007 293.31 89.3791 293.31 89.8719V108.035C293.31 109.971 293.926 111.705 295.158 113.236C296.39 114.767 297.886 115.533 299.646 115.533H302.708ZM323.986 115.585C324.549 115.585 325.06 115.462 325.517 115.216C325.975 114.969 326.204 114.617 326.204 114.16V99.851L333.385 94.1486C333.948 93.6911 334.449 93.3919 334.889 93.2511C335.329 93.1103 335.901 93.0399 336.605 93.0399C339.034 93.2511 340.249 94.8702 340.249 97.8974C340.249 98.2846 340.495 98.6278 340.988 98.927C341.481 99.2262 342.009 99.3758 342.572 99.3758C343.135 99.3758 343.637 99.2438 344.077 98.9798C344.517 98.7158 344.737 98.3374 344.737 97.8446C344.737 94.219 343.804 91.6671 341.938 90.1887C340.671 89.2031 338.893 88.7103 336.605 88.7103C336.289 88.7103 335.831 88.6927 335.233 88.6575C334.845 88.6575 334.493 88.6927 334.177 88.7631C333.86 88.8335 333.561 88.9743 333.279 89.1855L326.204 94.1486V91.9311C326.204 91.3327 326.01 90.7871 325.623 90.2943C325.236 89.8015 324.69 89.5551 323.986 89.5551C323.247 89.5551 322.666 89.7487 322.244 90.1359C321.822 90.5231 321.61 91.1391 321.61 91.9839V114.16C321.61 114.653 321.857 115.013 322.35 115.242C322.842 115.471 323.388 115.585 323.986 115.585ZM370.633 115.374C371.126 115.374 371.557 115.093 371.927 114.529C372.297 113.966 372.481 113.438 372.481 112.945C372.481 112.558 372.27 112.136 371.848 111.678C371.425 111.221 370.985 110.992 370.528 110.992H357.856C357.257 110.992 356.536 110.622 355.691 109.883C354.846 109.144 354.424 108.493 354.424 107.929V105.817H370.158C370.616 105.817 371.117 105.659 371.663 105.342C372.208 105.025 372.481 104.726 372.481 104.445V97.2638C372.481 95.539 371.681 93.8935 370.079 92.3271C368.477 90.7607 366.92 89.9775 365.406 89.9775H356.377C355.145 89.9775 353.737 90.7519 352.153 92.3007C350.569 93.8495 349.777 95.2222 349.777 96.419V108.088C349.777 109.531 350.49 111.106 351.916 112.813C353.341 114.521 354.67 115.374 355.902 115.374H370.633ZM368.496 101.593H355.244V96.7886C355.244 96.2958 355.569 95.7942 356.22 95.2838C356.872 94.7734 357.567 94.5182 358.306 94.5182H365.645C366.279 94.5182 366.912 94.8174 367.546 95.4158C368.18 96.0142 368.496 96.6302 368.496 97.2638V101.593ZM390.856 115.374C392.052 115.374 393.161 115.04 394.182 114.371C394.499 114.16 395.379 113.421 396.822 112.153V113.896C396.822 114.353 396.998 114.714 397.35 114.978C397.702 115.242 398.142 115.374 398.67 115.374C400.254 115.374 401.046 114.881 401.046 113.896V81.3711C401.046 80.9135 400.844 80.5967 400.439 80.4207C400.034 80.2447 399.55 80.1567 398.987 80.1567C398.424 80.1567 397.922 80.3151 397.482 80.6319C397.042 80.9487 396.822 81.3183 396.822 81.7407V92.1423C396.118 91.6847 395.388 91.2095 394.631 90.7167C393.874 90.2239 393.073 89.9775 392.228 89.9775H384.784C383.728 89.9775 382.39 90.6991 380.771 92.1423C379.152 93.5855 378.342 94.7998 378.342 95.7854V108.933C378.342 110.024 379.266 111.37 381.114 112.972C382.962 114.573 384.414 115.374 385.47 115.374H390.856ZM389.669 111.15C388.754 111.15 387.557 110.833 386.079 110.2C384.354 109.461 383.491 108.669 383.491 107.824V97.6334C383.491 97.035 383.703 96.3926 384.125 95.7062C384.548 95.0198 385.076 94.6766 385.709 94.6766H393.048C393.858 94.6766 394.667 95.0726 395.477 95.8646C396.287 96.6566 396.938 97.7214 397.431 99.059V106.345C396.656 107.401 395.653 108.387 394.421 109.302C392.731 110.534 391.147 111.15 389.669 111.15ZM425.449 115.545L425.62 113.952L422.263 113.781C420.783 113.724 420.214 113.269 420.214 112.074C420.214 111.505 420.214 111.277 420.442 110.083L425.79 78.6174H429.944C434.382 78.6174 436.43 78.9018 436.601 79.5846C436.772 80.0398 436.886 81.1209 436.829 81.6899L436.601 85.3314H438.194L439.73 76C434.382 76.1138 429.033 76.1707 423.685 76.1707C418.336 76.1707 412.988 76.1138 407.639 76L406.615 85.3314H408.265L409.119 81.9175C409.403 80.6657 409.802 79.7553 410.143 79.357C410.484 78.9587 412.647 78.6174 414.752 78.6174H421.125L416.231 108.262C415.378 113.44 415.207 113.667 412.931 113.781L410.029 113.952L409.802 115.545C412.476 115.431 415.207 115.374 417.881 115.374C420.442 115.374 422.945 115.431 425.449 115.545ZM439.555 116C442.798 116 445.928 114.407 451.219 110.139L450.764 109.058L449.398 110.026C446.383 112.188 443.652 113.326 441.603 113.326C438.872 113.326 437.279 111.22 437.279 107.75C437.279 106.27 437.393 104.848 437.734 103.198L442.4 102.06C443.367 101.832 444.846 101.263 446.326 100.637C451.162 98.4751 453.381 95.9146 453.381 92.3869C453.381 89.7127 451.504 87.9488 448.602 87.9488C444.903 87.9488 438.701 91.761 436.425 95.4026C434.718 98.1906 432.955 105.018 432.955 109.001C432.955 113.383 435.458 116 439.555 116ZM438.019 101.889L438.531 99.7838C439.441 95.9715 440.579 93.5249 442.115 92.1024C443.196 91.0782 445.017 90.3385 446.44 90.3385C448.09 90.3385 449.171 91.4765 449.171 93.2973C449.171 95.8009 447.179 98.4751 444.221 99.8976C442.627 100.637 440.579 101.32 438.019 101.889ZM470.958 116C472.21 116 474.031 115.033 475.852 113.383L478.64 110.879L478.128 109.798C476.079 111.505 474.657 112.358 473.746 112.358C472.893 112.358 472.153 111.789 471.584 110.651C471.072 109.57 470.446 107.465 470.162 105.815L469.137 100.068L471.129 97.2802C473.803 93.5818 475.339 92.2731 477.103 92.2731C478.014 92.2731 478.697 92.7283 478.981 93.5818L479.778 93.3542L480.631 88.5178C479.948 88.1195 479.436 87.9488 478.924 87.9488C476.648 87.9488 474.372 89.9972 470.844 95.2319L468.739 98.3613L468.398 95.6302C467.715 89.9972 466.179 87.9488 462.822 87.9488C461.342 87.9488 460.091 88.404 459.578 89.1437L456.278 93.8663L457.246 94.4353C458.953 92.5007 460.091 91.7041 461.172 91.7041C463.049 91.7041 464.301 94.037 465.268 99.6131L465.894 103.141L463.618 106.669C461.172 110.481 459.237 112.302 457.644 112.302C456.79 112.302 456.164 112.074 456.051 111.789L455.425 110.196L454.287 110.367C454.287 111.505 454.173 112.245 453.832 114.065C453.718 114.748 453.661 114.919 453.604 115.317C454.458 115.772 455.368 116 456.051 116C457.928 116 460.147 114.35 461.911 111.676L466.236 105.018L466.861 108.945C467.658 113.781 468.91 116 470.958 116ZM485.861 115.886C487.852 115.886 489.787 114.748 494.282 111.164C495.306 110.367 494.965 110.595 496.046 109.741L495.477 108.717L492.916 110.481C491.209 111.676 490.128 112.188 489.445 112.188C488.99 112.188 488.706 111.733 488.706 111.05C488.706 109.57 489.389 105.132 491.152 96.7112L491.892 93.1835H497.98L498.606 90.3385C496.444 90.5661 494.509 90.6799 492.347 90.6799C493.258 85.3314 493.884 82.5434 494.908 79.4708L494.282 78.6174C493.144 79.3001 491.608 79.9829 489.844 80.6657L488.421 90.3385C485.918 91.5334 484.438 92.1593 483.414 92.4438L483.3 93.1835H488.08L484.894 109.286C484.609 110.708 484.154 112.131 484.154 113.61C484.154 115.033 484.78 115.886 485.861 115.886Z" fill="#F8F8F8"/>
<path d="M1799.01 66C1799.01 63.2386 1801.25 61 1804.01 61H2024.23C2027 61 2029.23 63.2386 2029.23 66V86.522H1799.01V66Z" fill="#E0E0E0"/>
<path d="M1799.01 86.3459H2029.23V260C2029.23 262.761 2027 265 2024.23 265H1804.01C1801.25 265 1799.01 262.761 1799.01 260V86.3459Z" fill="white"/>
<ellipse cx="1993.35" cy="73.7609" rx="3.84414" ry="3.8283" fill="white"/>
<ellipse cx="2004.89" cy="73.7609" rx="3.84414" ry="3.8283" fill="white"/>
<ellipse cx="2016.42" cy="73.7609" rx="3.84414" ry="3.8283" fill="white"/>
<rect x="1975.73" y="100.427" width="42.2433" height="94.3434" rx="5" fill="#75ACCF"/>
<rect x="1920.81" y="177.873" width="42.2433" height="71.8136" rx="5" fill="#E0E0E0"/>
<rect x="1810.98" y="155.344" width="42.2433" height="94.3434" rx="5" fill="#D19129"/>
<rect x="1865.89" y="207.443" width="42.2433" height="42.2433" rx="5" fill="#75ACCF"/>
<rect x="1865.89" y="100.427" width="42.2433" height="94.3434" rx="5" fill="#60A394"/>
<rect x="1975.73" y="207.443" width="42.2433" height="42.2433" rx="5" fill="#D84C4E"/>
<rect x="1920.81" y="100.427" width="42.2433" height="64.7731" rx="5" fill="#0067A8"/>
<rect x="1810.98" y="100.427" width="42.2433" height="42.2433" rx="5" fill="#0067A8"/>
<path d="M1425.01 255.72C1425.01 258.482 1427.25 260.72 1430.01 260.72H1553.82C1556.58 260.72 1558.82 258.482 1558.82 255.72V93.4534H1530.37C1527.61 93.4534 1525.37 91.2148 1525.37 88.4534V60H1430.01C1427.25 60 1425.01 62.2386 1425.01 65V255.72Z" fill="white"/>
<path d="M1558.82 93.4534L1525.37 60V88.4534C1525.37 91.2148 1527.61 93.4534 1530.37 93.4534H1558.82Z" fill="#E0E0E0"/>
<path d="M1425.01 204.965H1558.82V259.965C1558.82 262.726 1556.58 264.965 1553.82 264.965H1430.01C1427.25 264.965 1425.01 262.726 1425.01 259.965V204.965Z" fill="#0067A8"/>
<path d="M1472.14 248.965V226.245H1463.18V220.965H1487.58V226.245H1478.62V248.965H1472.14Z" fill="#F8F8F8"/>
<path d="M1529.27 248.965V220.965H1535.75V243.685H1549.79V248.965H1529.27Z" fill="#F8F8F8"/>
<path d="M1453.24 220.965H1459.72V248.965H1453.24V237.485H1440.52V248.965H1434.04V220.965H1440.52V232.005H1453.24V220.965Z" fill="#F8F8F8"/>
<path d="M1491.07 248.965V220.965H1496.43L1506.92 238.351L1517.23 220.965H1522.55L1522.63 248.965H1516.55L1516.51 232.159L1508.27 246.005H1505.35L1497.15 232.521V248.965H1491.07Z" fill="#F8F8F8"/>
<path d="M580.008 91C577.246 91 575.008 93.2386 575.008 96C575.008 98.7614 577.246 101 580.008 101H690.008C692.769 101 695.008 103.239 695.008 106L695.008 218C695.008 220.761 692.769 223 690.008 223H580.008C577.246 223 575.008 225.239 575.008 228C575.008 230.761 577.246 233 580.008 233H700.008C702.769 233 705.008 230.761 705.008 228V172C705.008 169.239 707.246 167 710.008 167H807.937L784.652 190.284C782.7 192.237 782.7 195.403 784.652 197.355C786.605 199.308 789.771 199.308 791.724 197.355L823.543 165.536C825.496 163.583 825.496 160.417 823.543 158.464L791.724 126.645C789.771 124.692 786.605 124.692 784.652 126.645C782.7 128.597 782.7 131.763 784.652 133.716L807.937 157H710.008C707.246 157 705.008 154.761 705.008 152V96C705.008 93.5838 703.294 91.5678 701.015 91.1016C700.69 91.035 700.353 91 700.008 91H580.008Z" fill="#F1CBA2"/>
<path d="M1245.01 157C1242.25 157 1240.01 159.239 1240.01 162C1240.01 164.761 1242.25 167 1245.01 167V157ZM1368.54 165.536C1370.5 163.583 1370.5 160.417 1368.54 158.464L1336.72 126.645C1334.77 124.692 1331.61 124.692 1329.65 126.645C1327.7 128.597 1327.7 131.763 1329.65 133.716L1357.94 162L1329.65 190.284C1327.7 192.237 1327.7 195.403 1329.65 197.355C1331.61 199.308 1334.77 199.308 1336.72 197.355L1368.54 165.536ZM1245.01 167H1365.01V157H1245.01V167Z" fill="#F1CBA2"/>
<path d="M1619.01 157C1616.25 157 1614.01 159.239 1614.01 162C1614.01 164.761 1616.25 167 1619.01 167V157ZM1742.54 165.536C1744.5 163.583 1744.5 160.417 1742.54 158.464L1710.72 126.645C1708.77 124.692 1705.61 124.692 1703.65 126.645C1701.7 128.597 1701.7 131.763 1703.65 133.716L1731.94 162L1703.65 190.284C1701.7 192.237 1701.7 195.403 1703.65 197.355C1705.61 199.308 1708.77 199.308 1710.72 197.355L1742.54 165.536ZM1619.01 167H1739.01V157H1619.01V167Z" fill="#F1CBA2"/>
</svg>
